<svg id="Capa_1" data-name="Capa 1" xmlns="http://www.w3.org/2000/svg" viewBox="0 0 500 500"><rect width="500" height="500" style="fill:none"/><line x1="340.799" y1="233.071" x2="364.088" y2="233.071" style="fill:none;stroke:#000;stroke-linecap:square;stroke-miterlimit:10;stroke-width:1.5px"/><polyline points="364.088 233.017 364.196 233.017 364.304 232.909 364.358 232.854 364.413 232.746" style="fill:none;stroke:#000;stroke-linecap:square;stroke-miterlimit:10;stroke-width:1.5px"/><polyline points="370.912 232.421 370.749 231.879 370.479 231.338 370.154 230.904 369.72 230.525 369.233 230.2 368.691 229.983 368.15 229.875 367.554 229.821 367.012 229.929 366.416 230.092 365.929 230.363 365.496 230.688 365.117 231.121 364.792 231.609 364.575 232.15 364.467 232.746" style="fill:none;stroke:#000;stroke-linecap:square;stroke-miterlimit:10;stroke-width:1.5px"/><polyline points="370.966 232.421 371.074 232.638 371.237 232.8 371.453 232.909 371.724 232.963 371.941 232.909 372.157 232.746" style="fill:none;stroke:#000;stroke-linecap:square;stroke-miterlimit:10;stroke-width:1.5px"/><line x1="372.212" y1="232.8" x2="377.357" y2="227.654" style="fill:none;stroke:#000;stroke-linecap:square;stroke-miterlimit:10;stroke-width:1.5px"/><polyline points="377.303 227.6 377.411 227.491 377.465 227.383 377.519 227.275 377.519 227.112" style="fill:none;stroke:#000;stroke-linecap:square;stroke-miterlimit:10;stroke-width:1.5px"/><line x1="377.573" y1="227.112" x2="377.573" y2="191.413" style="fill:none;stroke:#000;stroke-linecap:square;stroke-miterlimit:10;stroke-width:1.5px"/><polyline points="377.519 191.413 377.465 191.088 377.357 190.763 377.194 190.492 376.924 190.275 376.653 190.058 376.328 189.95" style="fill:none;stroke:#000;stroke-linecap:square;stroke-miterlimit:10;stroke-width:1.5px"/><line x1="376.328" y1="189.95" x2="313.719" y2="177.87" style="fill:none;stroke:#000;stroke-linecap:square;stroke-miterlimit:10;stroke-width:1.5px"/><polyline points="313.719 177.87 313.611 177.87 313.502 177.87" style="fill:none;stroke:#000;stroke-linecap:square;stroke-miterlimit:10;stroke-width:1.5px"/><line x1="313.502" y1="177.87" x2="123.889" y2="177.87" style="fill:none;stroke:#000;stroke-linecap:square;stroke-miterlimit:10;stroke-width:1.5px"/><polyline points="123.889 177.87 123.51 177.924 123.185 178.086 122.86 178.303 122.643 178.574 122.481 178.953 122.427 179.332" style="fill:none;stroke:#000;stroke-linecap:square;stroke-miterlimit:10;stroke-width:1.5px"/><line x1="122.427" y1="179.332" x2="122.427" y2="180.849" style="fill:none;stroke:#000;stroke-linecap:square;stroke-miterlimit:10;stroke-width:1.5px"/><polyline points="122.427 180.849 122.481 181.228 122.643 181.553 122.86 181.878 123.185 182.095 123.51 182.258 123.889 182.312" style="fill:none;stroke:#000;stroke-linecap:square;stroke-miterlimit:10;stroke-width:1.5px"/><line x1="123.889" y1="182.366" x2="313.123" y2="182.366" style="fill:none;stroke:#000;stroke-linecap:square;stroke-miterlimit:10;stroke-width:1.5px"/><polyline points="313.34 182.366 313.232 182.366 313.123 182.366" style="fill:none;stroke:#000;stroke-linecap:square;stroke-miterlimit:10;stroke-width:1.5px"/><line x1="313.286" y1="182.366" x2="372.157" y2="193.742" style="fill:none;stroke:#000;stroke-linecap:square;stroke-miterlimit:10;stroke-width:1.5px"/><polyline points="373.024 194.826 372.97 194.555 372.916 194.338 372.753 194.121 372.591 193.959 372.374 193.85 372.157 193.742" style="fill:none;stroke:#000;stroke-linecap:square;stroke-miterlimit:10;stroke-width:1.5px"/><line x1="373.078" y1="194.826" x2="373.078" y2="225.216" style="fill:none;stroke:#000;stroke-linecap:square;stroke-miterlimit:10;stroke-width:1.5px"/><polyline points="371.453 226.191 371.67 226.245 371.941 226.3 372.266 226.245 372.482 226.137 372.699 225.975 372.862 225.758 372.97 225.487 373.024 225.216" style="fill:none;stroke:#000;stroke-linecap:square;stroke-miterlimit:10;stroke-width:1.5px"/><polyline points="371.399 226.245 370.587 225.866 369.72 225.595 368.854 225.433 367.987 225.325 367.066 225.325 366.2 225.487 365.333 225.704 364.521 226.029 363.709 226.408 363.004 226.95 362.3 227.546 361.705 228.196" style="fill:none;stroke:#000;stroke-linecap:square;stroke-miterlimit:10;stroke-width:1.5px"/><polyline points="360.784 228.521 361.001 228.521 361.271 228.412 361.434 228.304 361.65 228.141" style="fill:none;stroke:#000;stroke-linecap:square;stroke-miterlimit:10;stroke-width:1.5px"/><line x1="360.784" y1="228.575" x2="336.683" y2="228.575" style="fill:none;stroke:#000;stroke-linecap:square;stroke-miterlimit:10;stroke-width:1.5px"/><polyline points="336.683 228.629 336.412 228.683 336.141 228.792 335.925 228.954 335.762 229.171 335.654 229.442 335.6 229.713" style="fill:none;stroke:#000;stroke-linecap:square;stroke-miterlimit:10;stroke-width:1.5px"/><line x1="335.545" y1="229.713" x2="335.545" y2="282.205" style="fill:none;stroke:#000;stroke-linecap:square;stroke-miterlimit:10;stroke-width:1.5px"/><polyline points="335.6 282.205 335.654 282.476 335.762 282.747 335.925 282.964 336.141 283.126 336.412 283.235 336.683 283.289" style="fill:none;stroke:#000;stroke-linecap:square;stroke-miterlimit:10;stroke-width:1.5px"/><line x1="336.683" y1="283.343" x2="360.784" y2="283.343" style="fill:none;stroke:#000;stroke-linecap:square;stroke-miterlimit:10;stroke-width:1.5px"/><polyline points="361.65 283.776 361.434 283.614 361.271 283.506 361.001 283.397 360.784 283.397" style="fill:none;stroke:#000;stroke-linecap:square;stroke-miterlimit:10;stroke-width:1.5px"/><polyline points="361.705 283.722 362.3 284.372 363.004 284.968 363.709 285.51 364.521 285.889 365.333 286.214 366.2 286.431 367.066 286.593 367.987 286.593 368.854 286.485 369.72 286.323 370.587 286.052 371.399 285.672" style="fill:none;stroke:#000;stroke-linecap:square;stroke-miterlimit:10;stroke-width:1.5px"/><polyline points="373.024 286.702 372.97 286.431 372.862 286.16 372.699 285.943 372.482 285.781 372.266 285.672 371.941 285.618 371.67 285.672 371.453 285.727" style="fill:none;stroke:#000;stroke-linecap:square;stroke-miterlimit:10;stroke-width:1.5px"/><line x1="373.078" y1="286.702" x2="373.078" y2="315.63" style="fill:none;stroke:#000;stroke-linecap:square;stroke-miterlimit:10;stroke-width:1.5px"/><polyline points="371.724 316.713 372.049 316.713 372.374 316.605 372.645 316.442 372.862 316.226 372.97 315.955 373.024 315.63" style="fill:none;stroke:#000;stroke-linecap:square;stroke-miterlimit:10;stroke-width:1.5px"/><line x1="371.724" y1="316.713" x2="210.436" y2="286.702" style="fill:none;stroke:#000;stroke-linecap:square;stroke-miterlimit:10;stroke-width:1.5px"/><polyline points="210.436 286.756 210.111 286.756 209.786 286.81 209.516 286.918 209.245 287.081 209.028 287.298 208.866 287.623 208.757 287.893 208.703 288.219" style="fill:none;stroke:#000;stroke-linecap:square;stroke-miterlimit:10;stroke-width:1.5px"/><line x1="208.649" y1="288.219" x2="208.649" y2="289.735" style="fill:none;stroke:#000;stroke-linecap:square;stroke-miterlimit:10;stroke-width:1.5px"/><polyline points="208.703 289.735 208.757 290.06 208.866 290.385 209.028 290.656 209.299 290.927 209.57 291.09 209.895 291.198" style="fill:none;stroke:#000;stroke-linecap:square;stroke-miterlimit:10;stroke-width:1.5px"/><line x1="209.895" y1="291.198" x2="376.219" y2="322.13" style="fill:none;stroke:#000;stroke-linecap:square;stroke-miterlimit:10;stroke-width:1.5px"/><polyline points="376.219 322.13 376.544 322.13 376.869 322.022 377.14 321.859 377.357 321.643 377.465 321.372 377.519 321.047" style="fill:none;stroke:#000;stroke-linecap:square;stroke-miterlimit:10;stroke-width:1.5px"/><line x1="377.573" y1="321.047" x2="377.573" y2="284.806" style="fill:none;stroke:#000;stroke-linecap:square;stroke-miterlimit:10;stroke-width:1.5px"/><polyline points="377.519 284.806 377.519 284.643 377.465 284.535 377.411 284.426 377.303 284.318" style="fill:none;stroke:#000;stroke-linecap:square;stroke-miterlimit:10;stroke-width:1.5px"/><line x1="377.357" y1="284.264" x2="372.212" y2="279.118" style="fill:none;stroke:#000;stroke-linecap:square;stroke-miterlimit:10;stroke-width:1.5px"/><polyline points="372.157 279.172 371.941 279.009 371.724 278.955 371.453 279.009 371.237 279.118 371.074 279.28 370.966 279.497" style="fill:none;stroke:#000;stroke-linecap:square;stroke-miterlimit:10;stroke-width:1.5px"/><polyline points="364.467 279.172 364.575 279.768 364.792 280.309 365.117 280.797 365.496 281.23 365.929 281.555 366.416 281.826 367.012 281.989 367.554 282.097 368.15 282.043 368.691 281.935 369.233 281.718 369.72 281.393 370.154 281.014 370.479 280.58 370.749 280.038 370.912 279.497" style="fill:none;stroke:#000;stroke-linecap:square;stroke-miterlimit:10;stroke-width:1.5px"/><polyline points="364.413 279.172 364.358 279.063 364.304 279.009 364.196 278.901 364.088 278.901" style="fill:none;stroke:#000;stroke-linecap:square;stroke-miterlimit:10;stroke-width:1.5px"/><line x1="364.088" y1="278.847" x2="340.799" y2="278.847" style="fill:none;stroke:#000;stroke-linecap:square;stroke-miterlimit:10;stroke-width:1.5px"/><polyline points="340.095 278.088 340.095 278.251 340.203 278.413 340.312 278.576 340.474 278.684 340.636 278.793 340.799 278.793" style="fill:none;stroke:#000;stroke-linecap:square;stroke-miterlimit:10;stroke-width:1.5px"/><line x1="340.041" y1="278.088" x2="340.041" y2="233.83" style="fill:none;stroke:#000;stroke-linecap:square;stroke-miterlimit:10;stroke-width:1.5px"/><polyline points="340.799 233.125 340.636 233.125 340.474 233.234 340.312 233.342 340.203 233.45 340.095 233.667 340.095 233.83" style="fill:none;stroke:#000;stroke-linecap:square;stroke-miterlimit:10;stroke-width:1.5px"/></svg>