<svg id="Capa_1" data-name="Capa 1" xmlns="http://www.w3.org/2000/svg" viewBox="0 0 500 500"><rect width="500" height="500" style="fill:none"/><line x1="363.032" y1="295.423" x2="421.47" y2="279.388" style="fill:none;stroke:#000;stroke-linecap:square;stroke-miterlimit:10;stroke-width:1.5px"/><polyline points="421.416 279.388 422.986 278.901 424.503 278.305 425.965 277.601 427.373 276.788 428.727 275.921 430.027 274.892 431.219 273.809 432.356 272.617 433.385 271.371 434.306 270.017 435.172 268.662 435.877 267.2 436.526 265.683 437.068 264.166 437.447 262.541 437.772 260.97 437.935 259.345 437.989 257.72" style="fill:none;stroke:#000;stroke-linecap:square;stroke-miterlimit:10;stroke-width:1.5px"/><line x1="438.043" y1="257.72" x2="438.043" y2="246.398" style="fill:none;stroke:#000;stroke-linecap:square;stroke-miterlimit:10;stroke-width:1.5px"/><polyline points="437.989 246.398 437.935 244.772 437.772 243.147 437.447 241.576 437.068 239.951 436.526 238.434 435.877 236.917 435.172 235.455 434.306 234.101 433.385 232.746 432.356 231.5 431.219 230.308 430.027 229.225 428.727 228.196 427.373 227.329 425.965 226.516 424.503 225.812 422.986 225.216 421.416 224.729" style="fill:none;stroke:#000;stroke-linecap:square;stroke-miterlimit:10;stroke-width:1.5px"/><line x1="421.47" y1="224.675" x2="275.563" y2="184.75" style="fill:none;stroke:#000;stroke-linecap:square;stroke-miterlimit:10;stroke-width:1.5px"/><polyline points="275.563 184.804 275.509 184.804 275.401 184.75" style="fill:none;stroke:#000;stroke-linecap:square;stroke-miterlimit:10;stroke-width:1.5px"/><line x1="275.401" y1="184.75" x2="253.304" y2="181.391" style="fill:none;stroke:#000;stroke-linecap:square;stroke-miterlimit:10;stroke-width:1.5px"/><polyline points="253.25 181.391 253.141 181.391 253.087 181.391" style="fill:none;stroke:#000;stroke-linecap:square;stroke-miterlimit:10;stroke-width:1.5px"/><line x1="253.087" y1="181.391" x2="63.474" y2="181.391" style="fill:none;stroke:#000;stroke-linecap:square;stroke-miterlimit:10;stroke-width:1.5px"/><polyline points="63.474 181.391 63.095 181.445 62.77 181.608 62.445 181.824 62.228 182.095 62.065 182.474 62.011 182.854" style="fill:none;stroke:#000;stroke-linecap:square;stroke-miterlimit:10;stroke-width:1.5px"/><line x1="61.957" y1="182.854" x2="61.957" y2="184.37" style="fill:none;stroke:#000;stroke-linecap:square;stroke-miterlimit:10;stroke-width:1.5px"/><polyline points="62.011 184.37 62.065 184.75 62.228 185.075 62.445 185.4 62.77 185.616 63.095 185.779 63.474 185.833" style="fill:none;stroke:#000;stroke-linecap:square;stroke-miterlimit:10;stroke-width:1.5px"/><line x1="63.474" y1="185.887" x2="252.762" y2="185.887" style="fill:none;stroke:#000;stroke-linecap:square;stroke-miterlimit:10;stroke-width:1.5px"/><polyline points="252.925 185.941 252.816 185.941 252.762 185.941" style="fill:none;stroke:#000;stroke-linecap:square;stroke-miterlimit:10;stroke-width:1.5px"/><line x1="252.925" y1="185.887" x2="274.48" y2="189.138" style="fill:none;stroke:#000;stroke-linecap:square;stroke-miterlimit:10;stroke-width:1.5px"/><polyline points="274.589 189.246 274.534 189.192 274.48 189.192" style="fill:none;stroke:#000;stroke-linecap:square;stroke-miterlimit:10;stroke-width:1.5px"/><line x1="274.643" y1="189.192" x2="420.278" y2="229.008" style="fill:none;stroke:#000;stroke-linecap:square;stroke-miterlimit:10;stroke-width:1.5px"/><polyline points="433.493 246.398 433.439 244.935 433.277 243.472 432.952 242.064 432.573 240.655 432.031 239.247 431.381 237.947 430.623 236.701 429.811 235.509 428.89 234.371 427.861 233.288 426.724 232.367 425.586 231.5 424.286 230.688 422.986 230.038 421.632 229.496 420.278 229.062" style="fill:none;stroke:#000;stroke-linecap:square;stroke-miterlimit:10;stroke-width:1.5px"/><line x1="433.548" y1="246.398" x2="433.548" y2="257.72" style="fill:none;stroke:#000;stroke-linecap:square;stroke-miterlimit:10;stroke-width:1.5px"/><polyline points="420.278 275.055 421.632 274.621 422.986 274.08 424.286 273.429 425.586 272.617 426.724 271.75 427.861 270.829 428.89 269.746 429.811 268.608 430.623 267.416 431.381 266.17 432.031 264.87 432.573 263.462 432.952 262.053 433.277 260.645 433.439 259.182 433.493 257.72" style="fill:none;stroke:#000;stroke-linecap:square;stroke-miterlimit:10;stroke-width:1.5px"/><line x1="420.278" y1="275.055" x2="363.357" y2="290.656" style="fill:none;stroke:#000;stroke-linecap:square;stroke-miterlimit:10;stroke-width:1.5px"/><polyline points="362.057 289.356 362.002 289.627 362.057 289.898 362.165 290.115 362.327 290.331 362.544 290.494 362.815 290.602 363.086 290.656 363.357 290.602" style="fill:none;stroke:#000;stroke-linecap:square;stroke-miterlimit:10;stroke-width:1.5px"/><polyline points="361.894 289.302 362.057 288.435 362.111 287.514 362.057 286.648 361.894 285.781 361.623 284.914 361.298 284.101 360.865 283.343 360.324 282.639 359.728 281.989 359.024 281.393 358.32 280.905 357.507 280.472" style="fill:none;stroke:#000;stroke-linecap:square;stroke-miterlimit:10;stroke-width:1.5px"/><polyline points="356.966 279.659 357.02 279.876 357.182 280.093 357.345 280.255 357.561 280.364" style="fill:none;stroke:#000;stroke-linecap:square;stroke-miterlimit:10;stroke-width:1.5px"/><line x1="356.912" y1="279.713" x2="350.521" y2="256.419" style="fill:none;stroke:#000;stroke-linecap:square;stroke-miterlimit:10;stroke-width:1.5px"/><polyline points="350.466 256.419 350.358 256.149 350.196 255.932 349.979 255.769 349.708 255.661 349.437 255.607 349.167 255.661" style="fill:none;stroke:#000;stroke-linecap:square;stroke-miterlimit:10;stroke-width:1.5px"/><line x1="349.167" y1="255.607" x2="298.527" y2="269.475" style="fill:none;stroke:#000;stroke-linecap:square;stroke-miterlimit:10;stroke-width:1.5px"/><polyline points="298.581 269.529 298.311 269.637 298.094 269.8 297.931 270.017 297.823 270.288 297.769 270.558 297.823 270.829" style="fill:none;stroke:#000;stroke-linecap:square;stroke-miterlimit:10;stroke-width:1.5px"/><line x1="297.769" y1="270.883" x2="304.106" y2="294.123" style="fill:none;stroke:#000;stroke-linecap:square;stroke-miterlimit:10;stroke-width:1.5px"/><polyline points="303.889 295.098 303.997 294.882 304.106 294.665 304.106 294.394 304.051 294.177" style="fill:none;stroke:#000;stroke-linecap:square;stroke-miterlimit:10;stroke-width:1.5px"/><polyline points="303.997 295.098 303.51 295.857 303.131 296.669 302.806 297.482 302.643 298.349 302.535 299.27 302.535 300.136 302.643 301.003 302.86 301.87 303.185 302.737 303.618 303.495 304.106 304.254 304.647 304.958" style="fill:none;stroke:#000;stroke-linecap:square;stroke-miterlimit:10;stroke-width:1.5px"/><polyline points="304.106 306.8 304.376 306.691 304.593 306.529 304.756 306.312 304.864 306.041 304.918 305.77 304.864 305.499 304.81 305.229 304.593 305.012" style="fill:none;stroke:#000;stroke-linecap:square;stroke-miterlimit:10;stroke-width:1.5px"/><line x1="304.106" y1="306.854" x2="278.109" y2="313.95" style="fill:none;stroke:#000;stroke-linecap:square;stroke-miterlimit:10;stroke-width:1.5px"/><polyline points="277.622 313.95 277.892 313.95 278.109 313.896" style="fill:none;stroke:#000;stroke-linecap:square;stroke-miterlimit:10;stroke-width:1.5px"/><line x1="277.622" y1="314.004" x2="149.967" y2="290.223" style="fill:none;stroke:#000;stroke-linecap:square;stroke-miterlimit:10;stroke-width:1.5px"/><polyline points="149.967 290.277 149.642 290.277 149.317 290.331 149.046 290.44 148.775 290.602 148.559 290.819 148.396 291.144 148.288 291.415 148.234 291.74" style="fill:none;stroke:#000;stroke-linecap:square;stroke-miterlimit:10;stroke-width:1.5px"/><line x1="148.234" y1="291.74" x2="148.234" y2="293.257" style="fill:none;stroke:#000;stroke-linecap:square;stroke-miterlimit:10;stroke-width:1.5px"/><polyline points="148.234 293.257 148.288 293.582 148.396 293.907 148.559 294.177 148.829 294.448 149.1 294.611 149.425 294.719" style="fill:none;stroke:#000;stroke-linecap:square;stroke-miterlimit:10;stroke-width:1.5px"/><line x1="149.425" y1="294.719" x2="277.784" y2="318.609" style="fill:none;stroke:#000;stroke-linecap:square;stroke-miterlimit:10;stroke-width:1.5px"/><polyline points="277.784 318.555 278.055 318.555 278.271 318.501" style="fill:none;stroke:#000;stroke-linecap:square;stroke-miterlimit:10;stroke-width:1.5px"/><line x1="278.326" y1="318.555" x2="306.814" y2="310.754" style="fill:none;stroke:#000;stroke-linecap:square;stroke-miterlimit:10;stroke-width:1.5px"/><polyline points="306.814 310.754 307.084 310.646 307.355 310.483 307.518 310.321 307.68 310.05" style="fill:none;stroke:#000;stroke-linecap:square;stroke-miterlimit:10;stroke-width:1.5px"/><line x1="307.734" y1="310.05" x2="311.201" y2="304.037" style="fill:none;stroke:#000;stroke-linecap:square;stroke-miterlimit:10;stroke-width:1.5px"/><polyline points="311.146 303.983 311.255 303.766 311.255 303.495 311.146 303.278 310.984 303.116 310.767 303.008 310.496 302.953" style="fill:none;stroke:#000;stroke-linecap:square;stroke-miterlimit:10;stroke-width:1.5px"/><polyline points="309.088 296.561 308.601 296.832 308.114 297.157 307.734 297.59 307.409 298.078 307.193 298.565 307.084 299.161 307.03 299.703 307.084 300.299 307.301 300.841 307.572 301.382 307.897 301.816 308.33 302.195 308.818 302.52 309.359 302.737 309.901 302.845 310.496 302.845" style="fill:none;stroke:#000;stroke-linecap:square;stroke-miterlimit:10;stroke-width:1.5px"/><polyline points="309.034 296.561 309.143 296.453 309.197 296.399 309.251 296.29 309.251 296.128" style="fill:none;stroke:#000;stroke-linecap:square;stroke-miterlimit:10;stroke-width:1.5px"/><line x1="309.305" y1="296.128" x2="303.185" y2="273.646" style="fill:none;stroke:#000;stroke-linecap:square;stroke-miterlimit:10;stroke-width:1.5px"/><polyline points="303.727 272.725 303.51 272.834 303.402 272.942 303.293 273.104 303.185 273.267 303.185 273.429 303.185 273.592" style="fill:none;stroke:#000;stroke-linecap:square;stroke-miterlimit:10;stroke-width:1.5px"/><line x1="303.672" y1="272.725" x2="346.35" y2="261.078" style="fill:none;stroke:#000;stroke-linecap:square;stroke-miterlimit:10;stroke-width:1.5px"/><polyline points="347.271 261.62 347.163 261.403 347.054 261.295 346.892 261.187 346.729 261.078 346.567 261.078 346.404 261.078" style="fill:none;stroke:#000;stroke-linecap:square;stroke-miterlimit:10;stroke-width:1.5px"/><line x1="347.271" y1="261.566" x2="353.445" y2="284.047" style="fill:none;stroke:#000;stroke-linecap:square;stroke-miterlimit:10;stroke-width:1.5px"/><polyline points="353.445 284.047 353.499 284.156 353.608 284.21 353.716 284.264 353.824 284.264" style="fill:none;stroke:#000;stroke-linecap:square;stroke-miterlimit:10;stroke-width:1.5px"/><polyline points="355.828 290.494 356.316 290.169 356.749 289.79 357.074 289.356 357.345 288.814 357.561 288.273 357.616 287.677 357.561 287.135 357.453 286.539 357.236 286.052 356.912 285.564 356.532 285.131 356.045 284.806 355.557 284.535 354.962 284.372 354.42 284.318 353.824 284.372" style="fill:none;stroke:#000;stroke-linecap:square;stroke-miterlimit:10;stroke-width:1.5px"/><polyline points="355.882 290.494 355.666 290.656 355.557 290.873 355.503 291.144 355.557 291.36 355.666 291.577 355.882 291.74" style="fill:none;stroke:#000;stroke-linecap:square;stroke-miterlimit:10;stroke-width:1.5px"/><line x1="355.828" y1="291.794" x2="361.894" y2="295.261" style="fill:none;stroke:#000;stroke-linecap:square;stroke-miterlimit:10;stroke-width:1.5px"/><polyline points="361.894 295.207 362.111 295.369 362.436 295.423 362.707 295.423 362.977 295.369" style="fill:none;stroke:#000;stroke-linecap:square;stroke-miterlimit:10;stroke-width:1.5px"/></svg>