<svg id="Capa_1" data-name="Capa 1" xmlns="http://www.w3.org/2000/svg" viewBox="0 0 500 500"><rect width="500" height="500" style="fill:none"/><polyline points="333.487 280.316 333.271 280.154 333.108 280.046 332.837 279.937 332.621 279.937" style="fill:none;stroke:#000;stroke-linecap:square;stroke-miterlimit:10;stroke-width:1.5px"/><polyline points="333.487 280.262 334.083 280.912 334.733 281.507 335.437 281.995 336.195 282.428 337.008 282.752 337.874 282.969 338.741 283.077 339.607 283.131 340.474 283.077 341.341 282.915 342.153 282.644 342.965 282.319" style="fill:none;stroke:#000;stroke-linecap:square;stroke-miterlimit:10;stroke-width:1.5px"/><polyline points="344.211 282.59 343.94 282.428 343.669 282.319 343.344 282.319 343.019 282.428" style="fill:none;stroke:#000;stroke-linecap:square;stroke-miterlimit:10;stroke-width:1.5px"/><line x1="344.211" y1="282.536" x2="369.72" y2="304.678" style="fill:none;stroke:#000;stroke-linecap:square;stroke-miterlimit:10;stroke-width:1.5px"/><polyline points="369.666 306.356 369.883 306.139 369.991 305.869 370.045 305.544 369.991 305.219 369.883 304.948 369.666 304.732" style="fill:none;stroke:#000;stroke-linecap:square;stroke-miterlimit:10;stroke-width:1.5px"/><line x1="369.72" y1="306.356" x2="340.907" y2="331.367" style="fill:none;stroke:#000;stroke-linecap:square;stroke-miterlimit:10;stroke-width:1.5px"/><polyline points="339.987 331.638 340.257 331.638 340.474 331.583 340.691 331.529 340.907 331.367" style="fill:none;stroke:#000;stroke-linecap:square;stroke-miterlimit:10;stroke-width:1.5px"/><line x1="339.987" y1="331.638" x2="211.303" y2="307.709" style="fill:none;stroke:#000;stroke-linecap:square;stroke-miterlimit:10;stroke-width:1.5px"/><polyline points="211.303 307.709 210.978 307.709 210.653 307.764 210.382 307.872 210.111 308.034 209.895 308.251 209.732 308.576 209.624 308.846 209.57 309.171" style="fill:none;stroke:#000;stroke-linecap:square;stroke-miterlimit:10;stroke-width:1.5px"/><line x1="209.57" y1="309.171" x2="209.57" y2="310.741" style="fill:none;stroke:#000;stroke-linecap:square;stroke-miterlimit:10;stroke-width:1.5px"/><polyline points="209.57 310.741 209.624 311.066 209.732 311.391 209.895 311.661 210.165 311.932 210.436 312.094 210.761 312.203" style="fill:none;stroke:#000;stroke-linecap:square;stroke-miterlimit:10;stroke-width:1.5px"/><line x1="210.761" y1="312.203" x2="341.286" y2="336.456" style="fill:none;stroke:#000;stroke-linecap:square;stroke-miterlimit:10;stroke-width:1.5px"/><polyline points="341.286 336.456 341.557 336.456 341.774 336.402 341.99 336.347 342.207 336.185" style="fill:none;stroke:#000;stroke-linecap:square;stroke-miterlimit:10;stroke-width:1.5px"/><line x1="342.207" y1="336.185" x2="376.219" y2="306.681" style="fill:none;stroke:#000;stroke-linecap:square;stroke-miterlimit:10;stroke-width:1.5px"/><polyline points="376.165 306.681 376.382 306.464 376.544 306.194 376.653 305.869 376.707 305.544 376.653 305.219 376.544 304.894 376.382 304.624 376.165 304.407" style="fill:none;stroke:#000;stroke-linecap:square;stroke-miterlimit:10;stroke-width:1.5px"/><line x1="376.219" y1="304.353" x2="343.778" y2="276.202" style="fill:none;stroke:#000;stroke-linecap:square;stroke-miterlimit:10;stroke-width:1.5px"/><polyline points="343.778 276.202 343.561 276.094 343.344 276.04 343.128 276.04 342.911 276.148 342.749 276.31 342.64 276.527" style="fill:none;stroke:#000;stroke-linecap:square;stroke-miterlimit:10;stroke-width:1.5px"/><polyline points="336.25 275.715 336.412 276.31 336.629 276.906 336.954 277.447 337.387 277.88 337.929 278.205 338.47 278.476 339.12 278.638 339.716 278.638 340.366 278.53 340.907 278.313 341.449 277.988 341.936 277.555 342.315 277.068 342.532 276.473" style="fill:none;stroke:#000;stroke-linecap:square;stroke-miterlimit:10;stroke-width:1.5px"/><polyline points="336.195 275.715 336.141 275.606 336.087 275.552 335.979 275.444 335.87 275.444" style="fill:none;stroke:#000;stroke-linecap:square;stroke-miterlimit:10;stroke-width:1.5px"/><line x1="335.87" y1="275.39" x2="313.34" y2="275.39" style="fill:none;stroke:#000;stroke-linecap:square;stroke-miterlimit:10;stroke-width:1.5px"/><polyline points="311.878 273.928 311.932 274.307 312.094 274.686 312.311 274.957 312.636 275.173 312.961 275.336 313.34 275.39" style="fill:none;stroke:#000;stroke-linecap:square;stroke-miterlimit:10;stroke-width:1.5px"/><line x1="311.878" y1="273.928" x2="311.878" y2="231.161" style="fill:none;stroke:#000;stroke-linecap:square;stroke-miterlimit:10;stroke-width:1.5px"/><polyline points="313.34 229.699 312.961 229.753 312.636 229.915 312.311 230.132 312.094 230.403 311.932 230.782 311.878 231.161" style="fill:none;stroke:#000;stroke-linecap:square;stroke-miterlimit:10;stroke-width:1.5px"/><line x1="313.34" y1="229.645" x2="335.87" y2="229.645" style="fill:none;stroke:#000;stroke-linecap:square;stroke-miterlimit:10;stroke-width:1.5px"/><polyline points="335.87 229.591 335.979 229.591 336.087 229.482 336.141 229.428 336.195 229.32" style="fill:none;stroke:#000;stroke-linecap:square;stroke-miterlimit:10;stroke-width:1.5px"/><polyline points="342.532 228.562 342.315 227.966 341.936 227.479 341.449 227.046 340.907 226.721 340.366 226.505 339.716 226.397 339.12 226.397 338.47 226.559 337.929 226.83 337.387 227.154 336.954 227.588 336.629 228.129 336.412 228.724 336.25 229.32" style="fill:none;stroke:#000;stroke-linecap:square;stroke-miterlimit:10;stroke-width:1.5px"/><polyline points="342.64 228.508 342.749 228.724 342.911 228.887 343.128 228.995 343.344 228.995 343.561 228.941 343.778 228.833" style="fill:none;stroke:#000;stroke-linecap:square;stroke-miterlimit:10;stroke-width:1.5px"/><line x1="343.778" y1="228.887" x2="376.219" y2="200.736" style="fill:none;stroke:#000;stroke-linecap:square;stroke-miterlimit:10;stroke-width:1.5px"/><polyline points="376.165 200.682 376.382 200.465 376.544 200.195 376.653 199.87 376.707 199.545 376.653 199.22 376.544 198.895 376.382 198.625 376.165 198.408" style="fill:none;stroke:#000;stroke-linecap:square;stroke-miterlimit:10;stroke-width:1.5px"/><line x1="376.219" y1="198.408" x2="342.586" y2="169.174" style="fill:none;stroke:#000;stroke-linecap:square;stroke-miterlimit:10;stroke-width:1.5px"/><polyline points="342.586 169.229 342.424 169.066 342.261 169.012 342.099 168.904 341.882 168.85" style="fill:none;stroke:#000;stroke-linecap:square;stroke-miterlimit:10;stroke-width:1.5px"/><line x1="341.882" y1="168.85" x2="314.64" y2="163.598" style="fill:none;stroke:#000;stroke-linecap:square;stroke-miterlimit:10;stroke-width:1.5px"/><polyline points="314.64 163.598 314.531 163.598 314.423 163.598" style="fill:none;stroke:#000;stroke-linecap:square;stroke-miterlimit:10;stroke-width:1.5px"/><line x1="314.423" y1="163.544" x2="124.81" y2="163.544" style="fill:none;stroke:#000;stroke-linecap:square;stroke-miterlimit:10;stroke-width:1.5px"/><polyline points="124.81 163.598 124.43 163.653 124.106 163.815 123.781 164.031 123.564 164.302 123.401 164.681 123.347 165.06" style="fill:none;stroke:#000;stroke-linecap:square;stroke-miterlimit:10;stroke-width:1.5px"/><line x1="123.293" y1="165.06" x2="123.293" y2="166.576" style="fill:none;stroke:#000;stroke-linecap:square;stroke-miterlimit:10;stroke-width:1.5px"/><polyline points="123.347 166.576 123.401 166.955 123.564 167.28 123.781 167.604 124.106 167.821 124.43 167.983 124.81 168.038" style="fill:none;stroke:#000;stroke-linecap:square;stroke-miterlimit:10;stroke-width:1.5px"/><line x1="124.81" y1="168.092" x2="313.99" y2="168.092" style="fill:none;stroke:#000;stroke-linecap:square;stroke-miterlimit:10;stroke-width:1.5px"/><polyline points="314.206 168.092 314.098 168.092 313.99 168.092" style="fill:none;stroke:#000;stroke-linecap:square;stroke-miterlimit:10;stroke-width:1.5px"/><line x1="314.206" y1="168.092" x2="339.932" y2="173.072" style="fill:none;stroke:#000;stroke-linecap:square;stroke-miterlimit:10;stroke-width:1.5px"/><polyline points="340.42 173.343 340.203 173.181 339.932 173.072" style="fill:none;stroke:#000;stroke-linecap:square;stroke-miterlimit:10;stroke-width:1.5px"/><line x1="340.474" y1="173.289" x2="369.72" y2="198.679" style="fill:none;stroke:#000;stroke-linecap:square;stroke-miterlimit:10;stroke-width:1.5px"/><polyline points="369.666 200.357 369.883 200.14 369.991 199.87 370.045 199.545 369.991 199.22 369.883 198.949 369.666 198.733" style="fill:none;stroke:#000;stroke-linecap:square;stroke-miterlimit:10;stroke-width:1.5px"/><line x1="369.72" y1="200.411" x2="344.211" y2="222.553" style="fill:none;stroke:#000;stroke-linecap:square;stroke-miterlimit:10;stroke-width:1.5px"/><polyline points="343.019 222.661 343.344 222.769 343.669 222.769 343.94 222.661 344.211 222.499" style="fill:none;stroke:#000;stroke-linecap:square;stroke-miterlimit:10;stroke-width:1.5px"/><polyline points="342.965 222.715 342.153 222.39 341.341 222.12 340.474 221.957 339.607 221.903 338.741 221.957 337.874 222.066 337.008 222.282 336.195 222.607 335.437 223.04 334.733 223.527 334.083 224.123 333.487 224.772" style="fill:none;stroke:#000;stroke-linecap:square;stroke-miterlimit:10;stroke-width:1.5px"/><polyline points="332.621 225.097 332.837 225.097 333.108 224.989 333.271 224.881 333.487 224.718" style="fill:none;stroke:#000;stroke-linecap:square;stroke-miterlimit:10;stroke-width:1.5px"/><line x1="332.621" y1="225.151" x2="308.466" y2="225.151" style="fill:none;stroke:#000;stroke-linecap:square;stroke-miterlimit:10;stroke-width:1.5px"/><polyline points="308.466 225.206 308.195 225.26 307.924 225.368 307.707 225.53 307.545 225.747 307.437 226.018 307.382 226.288" style="fill:none;stroke:#000;stroke-linecap:square;stroke-miterlimit:10;stroke-width:1.5px"/><line x1="307.382" y1="226.288" x2="307.382" y2="278.801" style="fill:none;stroke:#000;stroke-linecap:square;stroke-miterlimit:10;stroke-width:1.5px"/><polyline points="307.382 278.801 307.437 279.071 307.545 279.342 307.707 279.558 307.924 279.721 308.195 279.829 308.466 279.883" style="fill:none;stroke:#000;stroke-linecap:square;stroke-miterlimit:10;stroke-width:1.5px"/><line x1="308.466" y1="279.883" x2="332.621" y2="279.883" style="fill:none;stroke:#000;stroke-linecap:square;stroke-miterlimit:10;stroke-width:1.5px"/></svg>