<svg id="Capa_1" data-name="Capa 1" xmlns="http://www.w3.org/2000/svg" viewBox="0 0 500 500"><rect width="500" height="500" style="fill:none"/><line x1="359.213" y1="224.052" x2="394.525" y2="230.877" style="fill:none;stroke:#000;stroke-linecap:square;stroke-miterlimit:10;stroke-width:1.5px"/><polyline points="394.525 230.823 394.85 230.823 395.175 230.769 395.446 230.661 395.717 230.498 395.934 230.281 396.096 230.01 396.204 229.685 396.259 229.36" style="fill:none;stroke:#000;stroke-linecap:square;stroke-miterlimit:10;stroke-width:1.5px"/><line x1="396.313" y1="229.36" x2="396.313" y2="195.178" style="fill:none;stroke:#000;stroke-linecap:square;stroke-miterlimit:10;stroke-width:1.5px"/><polyline points="396.259 195.178 396.204 194.853 396.096 194.528 395.934 194.257 395.663 194.04 395.392 193.823 395.067 193.715" style="fill:none;stroke:#000;stroke-linecap:square;stroke-miterlimit:10;stroke-width:1.5px"/><line x1="395.121" y1="193.715" x2="295.034" y2="174.376" style="fill:none;stroke:#000;stroke-linecap:square;stroke-miterlimit:10;stroke-width:1.5px"/><polyline points="295.034 174.43 294.926 174.43 294.817 174.43" style="fill:none;stroke:#000;stroke-linecap:square;stroke-miterlimit:10;stroke-width:1.5px"/><line x1="294.817" y1="174.376" x2="105.204" y2="174.376" style="fill:none;stroke:#000;stroke-linecap:square;stroke-miterlimit:10;stroke-width:1.5px"/><polyline points="105.204 174.43 104.825 174.484 104.5 174.646 104.175 174.863 103.958 175.134 103.796 175.513 103.741 175.892" style="fill:none;stroke:#000;stroke-linecap:square;stroke-miterlimit:10;stroke-width:1.5px"/><line x1="103.687" y1="175.892" x2="103.687" y2="177.355" style="fill:none;stroke:#000;stroke-linecap:square;stroke-miterlimit:10;stroke-width:1.5px"/><polyline points="103.741 177.355 103.796 177.734 103.958 178.059 104.175 178.384 104.5 178.601 104.825 178.764 105.204 178.818" style="fill:none;stroke:#000;stroke-linecap:square;stroke-miterlimit:10;stroke-width:1.5px"/><line x1="105.204" y1="178.872" x2="294.384" y2="178.872" style="fill:none;stroke:#000;stroke-linecap:square;stroke-miterlimit:10;stroke-width:1.5px"/><polyline points="294.601 178.926 294.492 178.926 294.384 178.926" style="fill:none;stroke:#000;stroke-linecap:square;stroke-miterlimit:10;stroke-width:1.5px"/><line x1="294.601" y1="178.872" x2="390.897" y2="197.453" style="fill:none;stroke:#000;stroke-linecap:square;stroke-miterlimit:10;stroke-width:1.5px"/><polyline points="391.763 198.591 391.709 198.32 391.655 198.103 391.493 197.886 391.33 197.724 391.113 197.615 390.897 197.507" style="fill:none;stroke:#000;stroke-linecap:square;stroke-miterlimit:10;stroke-width:1.5px"/><line x1="391.817" y1="198.591" x2="391.817" y2="224.377" style="fill:none;stroke:#000;stroke-linecap:square;stroke-miterlimit:10;stroke-width:1.5px"/><polyline points="390.464 225.46 390.788 225.46 391.113 225.352 391.384 225.189 391.601 224.972 391.709 224.702 391.763 224.377" style="fill:none;stroke:#000;stroke-linecap:square;stroke-miterlimit:10;stroke-width:1.5px"/><line x1="390.464" y1="225.46" x2="357.913" y2="219.23" style="fill:none;stroke:#000;stroke-linecap:square;stroke-miterlimit:10;stroke-width:1.5px"/><polyline points="357.913 219.23 357.643 219.23 357.372 219.284 357.155 219.393 356.939 219.555" style="fill:none;stroke:#000;stroke-linecap:square;stroke-miterlimit:10;stroke-width:1.5px"/><line x1="356.939" y1="219.501" x2="353.906" y2="222.48" style="fill:none;stroke:#000;stroke-linecap:square;stroke-miterlimit:10;stroke-width:1.5px"/><polyline points="352.66 222.697 352.877 222.751 353.093 222.806 353.31 222.806 353.527 222.751 353.743 222.643 353.906 222.48" style="fill:none;stroke:#000;stroke-linecap:square;stroke-miterlimit:10;stroke-width:1.5px"/><polyline points="352.606 222.697 351.793 222.372 350.927 222.101 350.06 221.885 349.194 221.83 348.327 221.885 347.406 221.993 346.594 222.21 345.727 222.535 344.969 222.968 344.211 223.456 343.561 224.052 342.965 224.702" style="fill:none;stroke:#000;stroke-linecap:square;stroke-miterlimit:10;stroke-width:1.5px"/><polyline points="342.099 225.027 342.315 225.027 342.586 224.918 342.749 224.81 342.965 224.647" style="fill:none;stroke:#000;stroke-linecap:square;stroke-miterlimit:10;stroke-width:1.5px"/><line x1="342.099" y1="225.081" x2="317.944" y2="225.081" style="fill:none;stroke:#000;stroke-linecap:square;stroke-miterlimit:10;stroke-width:1.5px"/><polyline points="317.944 225.135 317.673 225.189 317.402 225.297 317.185 225.46 317.023 225.677 316.914 225.948 316.86 226.218" style="fill:none;stroke:#000;stroke-linecap:square;stroke-miterlimit:10;stroke-width:1.5px"/><line x1="316.806" y1="226.218" x2="316.806" y2="278.765" style="fill:none;stroke:#000;stroke-linecap:square;stroke-miterlimit:10;stroke-width:1.5px"/><polyline points="316.86 278.765 316.914 279.036 317.023 279.307 317.185 279.524 317.402 279.686 317.673 279.795 317.944 279.849" style="fill:none;stroke:#000;stroke-linecap:square;stroke-miterlimit:10;stroke-width:1.5px"/><line x1="317.944" y1="279.849" x2="342.099" y2="279.849" style="fill:none;stroke:#000;stroke-linecap:square;stroke-miterlimit:10;stroke-width:1.5px"/><polyline points="342.965 280.282 342.749 280.12 342.586 280.011 342.315 279.903 342.099 279.903" style="fill:none;stroke:#000;stroke-linecap:square;stroke-miterlimit:10;stroke-width:1.5px"/><polyline points="342.965 280.228 343.561 280.878 344.211 281.474 344.969 281.962 345.727 282.395 346.594 282.72 347.406 282.937 348.327 283.045 349.194 283.099 350.06 283.045 350.927 282.828 351.793 282.558 352.606 282.232" style="fill:none;stroke:#000;stroke-linecap:square;stroke-miterlimit:10;stroke-width:1.5px"/><polyline points="353.906 282.503 353.743 282.341 353.527 282.232 353.31 282.178 353.093 282.178 352.877 282.232 352.66 282.287" style="fill:none;stroke:#000;stroke-linecap:square;stroke-miterlimit:10;stroke-width:1.5px"/><line x1="353.906" y1="282.449" x2="356.397" y2="284.887" style="fill:none;stroke:#000;stroke-linecap:square;stroke-miterlimit:10;stroke-width:1.5px"/><polyline points="356.397 284.887 356.505 284.995 356.668 285.104 356.776 285.158 356.939 285.212" style="fill:none;stroke:#000;stroke-linecap:square;stroke-miterlimit:10;stroke-width:1.5px"/><line x1="356.939" y1="285.212" x2="390.897" y2="291.767" style="fill:none;stroke:#000;stroke-linecap:square;stroke-miterlimit:10;stroke-width:1.5px"/><polyline points="391.763 292.85 391.709 292.579 391.655 292.363 391.493 292.146 391.33 291.984 391.113 291.875 390.897 291.767" style="fill:none;stroke:#000;stroke-linecap:square;stroke-miterlimit:10;stroke-width:1.5px"/><line x1="391.817" y1="292.85" x2="391.817" y2="319.124" style="fill:none;stroke:#000;stroke-linecap:square;stroke-miterlimit:10;stroke-width:1.5px"/><polyline points="390.464 320.207 390.788 320.207 391.113 320.099 391.384 319.936 391.601 319.72 391.709 319.449 391.763 319.124" style="fill:none;stroke:#000;stroke-linecap:square;stroke-miterlimit:10;stroke-width:1.5px"/><line x1="390.518" y1="320.207" x2="191.697" y2="283.262" style="fill:none;stroke:#000;stroke-linecap:square;stroke-miterlimit:10;stroke-width:1.5px"/><polyline points="191.697 283.262 191.372 283.262 191.047 283.316 190.776 283.424 190.505 283.587 190.289 283.803 190.126 284.129 190.018 284.399 189.964 284.724" style="fill:none;stroke:#000;stroke-linecap:square;stroke-miterlimit:10;stroke-width:1.5px"/><line x1="189.91" y1="284.724" x2="189.91" y2="286.241" style="fill:none;stroke:#000;stroke-linecap:square;stroke-miterlimit:10;stroke-width:1.5px"/><polyline points="189.964 286.241 190.018 286.566 190.126 286.891 190.289 287.162 190.56 287.433 190.83 287.596 191.155 287.704" style="fill:none;stroke:#000;stroke-linecap:square;stroke-miterlimit:10;stroke-width:1.5px"/><line x1="191.155" y1="287.704" x2="395.013" y2="325.624" style="fill:none;stroke:#000;stroke-linecap:square;stroke-miterlimit:10;stroke-width:1.5px"/><polyline points="394.959 325.624 395.284 325.624 395.609 325.516 395.879 325.354 396.096 325.137 396.204 324.866 396.259 324.541" style="fill:none;stroke:#000;stroke-linecap:square;stroke-miterlimit:10;stroke-width:1.5px"/><line x1="396.313" y1="324.541" x2="396.313" y2="289.492" style="fill:none;stroke:#000;stroke-linecap:square;stroke-miterlimit:10;stroke-width:1.5px"/><polyline points="396.259 289.492 396.204 289.167 396.096 288.842 395.934 288.571 395.663 288.354 395.392 288.137 395.067 288.029" style="fill:none;stroke:#000;stroke-linecap:square;stroke-miterlimit:10;stroke-width:1.5px"/><line x1="395.121" y1="287.975" x2="359.051" y2="281.041" style="fill:none;stroke:#000;stroke-linecap:square;stroke-miterlimit:10;stroke-width:1.5px"/><polyline points="358.726 280.77 358.888 280.878 359.105 280.987" style="fill:none;stroke:#000;stroke-linecap:square;stroke-miterlimit:10;stroke-width:1.5px"/><line x1="358.672" y1="280.824" x2="353.472" y2="275.623" style="fill:none;stroke:#000;stroke-linecap:square;stroke-miterlimit:10;stroke-width:1.5px"/><polyline points="353.418 275.678 353.202 275.515 352.985 275.461 352.714 275.515 352.497 275.623 352.335 275.786 352.227 276.003" style="fill:none;stroke:#000;stroke-linecap:square;stroke-miterlimit:10;stroke-width:1.5px"/><polyline points="345.727 275.678 345.836 276.274 346.052 276.815 346.377 277.303 346.756 277.736 347.19 278.061 347.677 278.332 348.273 278.495 348.815 278.603 349.41 278.549 349.952 278.44 350.494 278.224 350.981 277.899 351.414 277.52 351.739 277.086 352.01 276.544 352.172 276.003" style="fill:none;stroke:#000;stroke-linecap:square;stroke-miterlimit:10;stroke-width:1.5px"/><polyline points="345.673 275.678 345.619 275.569 345.565 275.515 345.457 275.407 345.348 275.407" style="fill:none;stroke:#000;stroke-linecap:square;stroke-miterlimit:10;stroke-width:1.5px"/><line x1="345.348" y1="275.353" x2="322.06" y2="275.353" style="fill:none;stroke:#000;stroke-linecap:square;stroke-miterlimit:10;stroke-width:1.5px"/><polyline points="321.356 274.594 321.356 274.757 321.464 274.919 321.572 275.082 321.735 275.19 321.897 275.298 322.06 275.298" style="fill:none;stroke:#000;stroke-linecap:square;stroke-miterlimit:10;stroke-width:1.5px"/><line x1="321.301" y1="274.594" x2="321.301" y2="230.335" style="fill:none;stroke:#000;stroke-linecap:square;stroke-miterlimit:10;stroke-width:1.5px"/><polyline points="322.06 229.631 321.897 229.631 321.735 229.74 321.572 229.848 321.464 229.956 321.356 230.173 321.356 230.335" style="fill:none;stroke:#000;stroke-linecap:square;stroke-miterlimit:10;stroke-width:1.5px"/><line x1="322.06" y1="229.577" x2="345.348" y2="229.577" style="fill:none;stroke:#000;stroke-linecap:square;stroke-miterlimit:10;stroke-width:1.5px"/><polyline points="345.348 229.523 345.457 229.523 345.565 229.415 345.619 229.36 345.673 229.252" style="fill:none;stroke:#000;stroke-linecap:square;stroke-miterlimit:10;stroke-width:1.5px"/><polyline points="352.172 228.927 352.01 228.385 351.739 227.844 351.414 227.41 350.981 227.031 350.494 226.706 349.952 226.489 349.41 226.381 348.815 226.327 348.273 226.435 347.677 226.598 347.19 226.868 346.756 227.193 346.377 227.627 346.052 228.114 345.836 228.656 345.727 229.252" style="fill:none;stroke:#000;stroke-linecap:square;stroke-miterlimit:10;stroke-width:1.5px"/><polyline points="352.227 228.981 352.335 229.198 352.497 229.36 352.714 229.469 352.985 229.523 353.202 229.469 353.418 229.306" style="fill:none;stroke:#000;stroke-linecap:square;stroke-miterlimit:10;stroke-width:1.5px"/><line x1="353.472" y1="229.306" x2="358.563" y2="224.268" style="fill:none;stroke:#000;stroke-linecap:square;stroke-miterlimit:10;stroke-width:1.5px"/><polyline points="359.159 224.052 358.997 224.052 358.834 224.106 358.672 224.16 358.563 224.268" style="fill:none;stroke:#000;stroke-linecap:square;stroke-miterlimit:10;stroke-width:1.5px"/></svg>