<svg id="Capa_1" data-name="Capa 1" xmlns="http://www.w3.org/2000/svg" viewBox="0 0 500 500"><rect width="500" height="500" style="fill:none"/><polyline points="354.691 317.986 354.908 318.149 355.178 318.311 355.449 318.365 355.72 318.42" style="fill:none;stroke:#000;stroke-linecap:square;stroke-miterlimit:10;stroke-width:1.5px"/><line x1="355.72" y1="318.474" x2="415.512" y2="318.474" style="fill:none;stroke:#000;stroke-linecap:square;stroke-miterlimit:10;stroke-width:1.5px"/><polyline points="415.512 318.42 417.137 318.365 418.708 318.203 420.278 317.932 421.849 317.499 423.366 317.011 424.828 316.361 426.29 315.657 427.644 314.844 428.998 313.923 430.244 312.948 431.381 311.811 432.519 310.673 433.494 309.427 434.414 308.073 435.227 306.718 435.931 305.256 436.581 303.793 437.068 302.276 437.501 300.705 437.772 299.134 437.935 297.563 437.989 295.938" style="fill:none;stroke:#000;stroke-linecap:square;stroke-miterlimit:10;stroke-width:1.5px"/><line x1="438.043" y1="295.938" x2="438.043" y2="246.587" style="fill:none;stroke:#000;stroke-linecap:square;stroke-miterlimit:10;stroke-width:1.5px"/><polyline points="437.989 246.587 437.935 244.962 437.772 243.337 437.447 241.766 437.068 240.141 436.526 238.624 435.876 237.107 435.172 235.644 434.306 234.29 433.385 232.936 432.356 231.69 431.219 230.498 430.027 229.415 428.727 228.385 427.373 227.519 425.965 226.706 424.503 226.002 422.986 225.406 421.416 224.918" style="fill:none;stroke:#000;stroke-linecap:square;stroke-miterlimit:10;stroke-width:1.5px"/><line x1="421.47" y1="224.864" x2="275.563" y2="184.939" style="fill:none;stroke:#000;stroke-linecap:square;stroke-miterlimit:10;stroke-width:1.5px"/><polyline points="275.563 184.993 275.509 184.939 275.455 184.939" style="fill:none;stroke:#000;stroke-linecap:square;stroke-miterlimit:10;stroke-width:1.5px"/><line x1="275.455" y1="184.885" x2="253.304" y2="181.581" style="fill:none;stroke:#000;stroke-linecap:square;stroke-miterlimit:10;stroke-width:1.5px"/><polyline points="253.25 181.581 253.141 181.581 253.087 181.581" style="fill:none;stroke:#000;stroke-linecap:square;stroke-miterlimit:10;stroke-width:1.5px"/><line x1="253.087" y1="181.526" x2="63.474" y2="181.526" style="fill:none;stroke:#000;stroke-linecap:square;stroke-miterlimit:10;stroke-width:1.5px"/><polyline points="63.474 181.581 63.095 181.635 62.77 181.797 62.445 182.014 62.228 182.285 62.065 182.664 62.011 183.043" style="fill:none;stroke:#000;stroke-linecap:square;stroke-miterlimit:10;stroke-width:1.5px"/><line x1="61.957" y1="183.043" x2="61.957" y2="184.56" style="fill:none;stroke:#000;stroke-linecap:square;stroke-miterlimit:10;stroke-width:1.5px"/><polyline points="62.011 184.56 62.065 184.939 62.228 185.264 62.445 185.589 62.77 185.806 63.095 185.968 63.474 186.023" style="fill:none;stroke:#000;stroke-linecap:square;stroke-miterlimit:10;stroke-width:1.5px"/><line x1="63.474" y1="186.077" x2="252.762" y2="186.077" style="fill:none;stroke:#000;stroke-linecap:square;stroke-miterlimit:10;stroke-width:1.5px"/><polyline points="252.925 186.077 252.816 186.077 252.762 186.077" style="fill:none;stroke:#000;stroke-linecap:square;stroke-miterlimit:10;stroke-width:1.5px"/><line x1="252.925" y1="186.077" x2="274.48" y2="189.327" style="fill:none;stroke:#000;stroke-linecap:square;stroke-miterlimit:10;stroke-width:1.5px"/><polyline points="274.589 189.381 274.534 189.327 274.48 189.327" style="fill:none;stroke:#000;stroke-linecap:square;stroke-miterlimit:10;stroke-width:1.5px"/><line x1="274.643" y1="189.327" x2="420.278" y2="229.198" style="fill:none;stroke:#000;stroke-linecap:square;stroke-miterlimit:10;stroke-width:1.5px"/><polyline points="433.494 246.587 433.439 245.125 433.277 243.662 432.952 242.253 432.573 240.845 432.031 239.436 431.381 238.136 430.623 236.89 429.811 235.699 428.89 234.561 427.861 233.477 426.723 232.557 425.586 231.69 424.286 230.877 422.986 230.227 421.633 229.685 420.278 229.252" style="fill:none;stroke:#000;stroke-linecap:square;stroke-miterlimit:10;stroke-width:1.5px"/><line x1="433.548" y1="246.587" x2="433.548" y2="295.938" style="fill:none;stroke:#000;stroke-linecap:square;stroke-miterlimit:10;stroke-width:1.5px"/><polyline points="415.512 313.923 416.921 313.869 418.329 313.707 419.737 313.436 421.091 313.057 422.391 312.569 423.691 311.973 424.882 311.269 426.074 310.51 427.211 309.589 428.24 308.669 429.161 307.639 430.081 306.502 430.84 305.31 431.544 304.118 432.139 302.818 432.627 301.518 433.006 300.164 433.277 298.755 433.439 297.347 433.494 295.938" style="fill:none;stroke:#000;stroke-linecap:square;stroke-miterlimit:10;stroke-width:1.5px"/><line x1="415.512" y1="313.977" x2="357.345" y2="313.977" style="fill:none;stroke:#000;stroke-linecap:square;stroke-miterlimit:10;stroke-width:1.5px"/><polyline points="356.37 312.352 356.316 312.569 356.262 312.84 356.316 313.165 356.424 313.382 356.587 313.598 356.803 313.761 357.074 313.869 357.345 313.923" style="fill:none;stroke:#000;stroke-linecap:square;stroke-miterlimit:10;stroke-width:1.5px"/><polyline points="356.316 312.298 356.695 311.486 356.966 310.619 357.128 309.752 357.236 308.885 357.236 307.964 357.074 307.098 356.857 306.231 356.532 305.418 356.153 304.606 355.612 303.901 355.016 303.197 354.366 302.601" style="fill:none;stroke:#000;stroke-linecap:square;stroke-miterlimit:10;stroke-width:1.5px"/><polyline points="354.041 301.68 354.041 301.897 354.149 302.168 354.258 302.33 354.42 302.547" style="fill:none;stroke:#000;stroke-linecap:square;stroke-miterlimit:10;stroke-width:1.5px"/><line x1="353.987" y1="301.68" x2="353.987" y2="277.574" style="fill:none;stroke:#000;stroke-linecap:square;stroke-miterlimit:10;stroke-width:1.5px"/><polyline points="353.933 277.574 353.879 277.303 353.77 277.032 353.608 276.815 353.391 276.653 353.12 276.544 352.85 276.49" style="fill:none;stroke:#000;stroke-linecap:square;stroke-miterlimit:10;stroke-width:1.5px"/><line x1="352.85" y1="276.436" x2="300.369" y2="276.436" style="fill:none;stroke:#000;stroke-linecap:square;stroke-miterlimit:10;stroke-width:1.5px"/><polyline points="300.369 276.49 300.098 276.544 299.827 276.653 299.61 276.815 299.448 277.032 299.34 277.303 299.285 277.574" style="fill:none;stroke:#000;stroke-linecap:square;stroke-miterlimit:10;stroke-width:1.5px"/><line x1="299.231" y1="277.574" x2="299.231" y2="301.68" style="fill:none;stroke:#000;stroke-linecap:square;stroke-miterlimit:10;stroke-width:1.5px"/><polyline points="298.798 302.547 298.96 302.33 299.069 302.168 299.177 301.897 299.177 301.68" style="fill:none;stroke:#000;stroke-linecap:square;stroke-miterlimit:10;stroke-width:1.5px"/><polyline points="298.852 302.601 298.202 303.197 297.606 303.901 297.065 304.606 296.686 305.418 296.361 306.231 296.144 307.098 295.982 307.964 295.982 308.885 296.09 309.752 296.252 310.619 296.523 311.486 296.902 312.298" style="fill:none;stroke:#000;stroke-linecap:square;stroke-miterlimit:10;stroke-width:1.5px"/><polyline points="295.928 313.923 296.198 313.869 296.469 313.761 296.686 313.598 296.848 313.382 296.957 313.165 297.011 312.84 296.957 312.569 296.902 312.352" style="fill:none;stroke:#000;stroke-linecap:square;stroke-miterlimit:10;stroke-width:1.5px"/><line x1="295.928" y1="313.977" x2="276.647" y2="313.977" style="fill:none;stroke:#000;stroke-linecap:square;stroke-miterlimit:10;stroke-width:1.5px"/><polyline points="276.43 313.923 276.538 313.923 276.647 313.923" style="fill:none;stroke:#000;stroke-linecap:square;stroke-miterlimit:10;stroke-width:1.5px"/><line x1="276.43" y1="313.923" x2="149.967" y2="290.413" style="fill:none;stroke:#000;stroke-linecap:square;stroke-miterlimit:10;stroke-width:1.5px"/><polyline points="149.967 290.413 149.642 290.413 149.317 290.467 149.046 290.575 148.775 290.738 148.559 290.954 148.396 291.279 148.288 291.55 148.234 291.875" style="fill:none;stroke:#000;stroke-linecap:square;stroke-miterlimit:10;stroke-width:1.5px"/><line x1="148.234" y1="291.875" x2="148.234" y2="293.446" style="fill:none;stroke:#000;stroke-linecap:square;stroke-miterlimit:10;stroke-width:1.5px"/><polyline points="148.234 293.446 148.288 293.771 148.396 294.096 148.559 294.367 148.829 294.638 149.1 294.8 149.425 294.909" style="fill:none;stroke:#000;stroke-linecap:square;stroke-miterlimit:10;stroke-width:1.5px"/><line x1="149.425" y1="294.909" x2="275.997" y2="318.42" style="fill:none;stroke:#000;stroke-linecap:square;stroke-miterlimit:10;stroke-width:1.5px"/><polyline points="275.997 318.42 276.105 318.42 276.213 318.42" style="fill:none;stroke:#000;stroke-linecap:square;stroke-miterlimit:10;stroke-width:1.5px"/><line x1="276.213" y1="318.474" x2="297.498" y2="318.474" style="fill:none;stroke:#000;stroke-linecap:square;stroke-miterlimit:10;stroke-width:1.5px"/><polyline points="297.498 318.42 297.769 318.365 298.04 318.311 298.311 318.149 298.527 317.986" style="fill:none;stroke:#000;stroke-linecap:square;stroke-miterlimit:10;stroke-width:1.5px"/><line x1="298.581" y1="318.04" x2="303.456" y2="313.111" style="fill:none;stroke:#000;stroke-linecap:square;stroke-miterlimit:10;stroke-width:1.5px"/><polyline points="303.456 313.057 303.618 312.84 303.672 312.623 303.618 312.352 303.51 312.136 303.347 311.973 303.131 311.865" style="fill:none;stroke:#000;stroke-linecap:square;stroke-miterlimit:10;stroke-width:1.5px"/><polyline points="303.402 305.364 302.806 305.472 302.264 305.689 301.777 306.014 301.344 306.393 301.019 306.827 300.748 307.314 300.585 307.91 300.477 308.452 300.531 309.048 300.639 309.589 300.856 310.131 301.181 310.619 301.56 311.052 301.993 311.377 302.535 311.648 303.077 311.811" style="fill:none;stroke:#000;stroke-linecap:square;stroke-miterlimit:10;stroke-width:1.5px"/><polyline points="303.402 305.31 303.51 305.256 303.564 305.202 303.672 305.093 303.672 304.985" style="fill:none;stroke:#000;stroke-linecap:square;stroke-miterlimit:10;stroke-width:1.5px"/><line x1="303.727" y1="304.985" x2="303.727" y2="281.691" style="fill:none;stroke:#000;stroke-linecap:square;stroke-miterlimit:10;stroke-width:1.5px"/><polyline points="304.485 280.987 304.322 280.987 304.16 281.095 303.997 281.203 303.889 281.312 303.781 281.528 303.781 281.691" style="fill:none;stroke:#000;stroke-linecap:square;stroke-miterlimit:10;stroke-width:1.5px"/><line x1="304.485" y1="280.932" x2="348.733" y2="280.932" style="fill:none;stroke:#000;stroke-linecap:square;stroke-miterlimit:10;stroke-width:1.5px"/><polyline points="349.437 281.691 349.437 281.528 349.329 281.312 349.221 281.203 349.112 281.095 348.896 280.987 348.733 280.987" style="fill:none;stroke:#000;stroke-linecap:square;stroke-miterlimit:10;stroke-width:1.5px"/><line x1="349.492" y1="281.691" x2="349.492" y2="304.985" style="fill:none;stroke:#000;stroke-linecap:square;stroke-miterlimit:10;stroke-width:1.5px"/><polyline points="349.546 304.985 349.546 305.093 349.654 305.202 349.708 305.256 349.817 305.31" style="fill:none;stroke:#000;stroke-linecap:square;stroke-miterlimit:10;stroke-width:1.5px"/><polyline points="350.142 311.811 350.683 311.648 351.225 311.377 351.658 311.052 352.037 310.619 352.362 310.131 352.579 309.589 352.687 309.048 352.741 308.452 352.633 307.91 352.47 307.314 352.2 306.827 351.875 306.393 351.441 306.014 350.954 305.689 350.412 305.472 349.817 305.364" style="fill:none;stroke:#000;stroke-linecap:square;stroke-miterlimit:10;stroke-width:1.5px"/><polyline points="350.142 311.865 349.925 311.973 349.762 312.136 349.654 312.352 349.6 312.623 349.654 312.84 349.817 313.057" style="fill:none;stroke:#000;stroke-linecap:square;stroke-miterlimit:10;stroke-width:1.5px"/><line x1="349.762" y1="313.111" x2="354.691" y2="318.04" style="fill:none;stroke:#000;stroke-linecap:square;stroke-miterlimit:10;stroke-width:1.5px"/><polyline points="275.997 318.42 276.159 318.42 276.268 318.42" style="fill:none;stroke:#000;stroke-linecap:square;stroke-miterlimit:10;stroke-width:1.5px"/></svg>