<svg id="Capa_1" data-name="Capa 1" xmlns="http://www.w3.org/2000/svg" viewBox="0 0 500 500"><rect width="500" height="500" style="fill:none"/><polyline points="104.283 184.425 104.337 184.804 104.5 185.129 104.716 185.454 105.041 185.67 105.366 185.833 105.745 185.887" style="fill:none;stroke:#000;stroke-linecap:square;stroke-miterlimit:10;stroke-width:1.5px"/><line x1="105.745" y1="185.941" x2="294.926" y2="185.941" style="fill:none;stroke:#000;stroke-linecap:square;stroke-miterlimit:10;stroke-width:1.5px"/><polyline points="295.142 185.941 295.034 185.941 294.926 185.941" style="fill:none;stroke:#000;stroke-linecap:square;stroke-miterlimit:10;stroke-width:1.5px"/><line x1="295.142" y1="185.941" x2="318.214" y2="190.383" style="fill:none;stroke:#000;stroke-linecap:square;stroke-miterlimit:10;stroke-width:1.5px"/><polyline points="318.702 190.654 318.485 190.492 318.214 190.383" style="fill:none;stroke:#000;stroke-linecap:square;stroke-miterlimit:10;stroke-width:1.5px"/><line x1="318.756" y1="190.654" x2="388.785" y2="251.49" style="fill:none;stroke:#000;stroke-linecap:square;stroke-miterlimit:10;stroke-width:1.5px"/><polyline points="388.73 253.169 388.947 252.952 389.055 252.681 389.11 252.356 389.055 252.031 388.947 251.761 388.73 251.544" style="fill:none;stroke:#000;stroke-linecap:square;stroke-miterlimit:10;stroke-width:1.5px"/><line x1="388.785" y1="253.223" x2="383.964" y2="257.395" style="fill:none;stroke:#000;stroke-linecap:square;stroke-miterlimit:10;stroke-width:1.5px"/><polyline points="382.123 256.744 382.231 257.015 382.394 257.232 382.61 257.449 382.881 257.557 383.152 257.611 383.423 257.611 383.694 257.503 383.91 257.34" style="fill:none;stroke:#000;stroke-linecap:square;stroke-miterlimit:10;stroke-width:1.5px"/><polyline points="382.123 256.799 381.852 255.932 381.527 255.119 381.094 254.307 380.552 253.602 379.957 252.952 379.307 252.356 378.548 251.869 377.736 251.436 376.924 251.111 376.057 250.894 375.19 250.731 374.324 250.731" style="fill:none;stroke:#000;stroke-linecap:square;stroke-miterlimit:10;stroke-width:1.5px"/><polyline points="373.457 250.298 373.62 250.46 373.836 250.569 374.053 250.677 374.324 250.677" style="fill:none;stroke:#000;stroke-linecap:square;stroke-miterlimit:10;stroke-width:1.5px"/><line x1="373.403" y1="250.352" x2="357.588" y2="232.096" style="fill:none;stroke:#000;stroke-linecap:square;stroke-miterlimit:10;stroke-width:1.5px"/><polyline points="357.534 232.15 357.318 231.934 357.101 231.825 356.776 231.771 356.505 231.771 356.235 231.879 356.018 232.042" style="fill:none;stroke:#000;stroke-linecap:square;stroke-miterlimit:10;stroke-width:1.5px"/><line x1="356.018" y1="231.988" x2="316.373" y2="266.441" style="fill:none;stroke:#000;stroke-linecap:square;stroke-miterlimit:10;stroke-width:1.5px"/><polyline points="316.427 266.495 316.21 266.712 316.102 266.929 316.048 267.254 316.048 267.525 316.156 267.796 316.319 268.012" style="fill:none;stroke:#000;stroke-linecap:square;stroke-miterlimit:10;stroke-width:1.5px"/><line x1="316.265" y1="268.012" x2="332.079" y2="286.268" style="fill:none;stroke:#000;stroke-linecap:square;stroke-miterlimit:10;stroke-width:1.5px"/><polyline points="332.296 287.135 332.296 286.918 332.242 286.702 332.188 286.485 332.025 286.268" style="fill:none;stroke:#000;stroke-linecap:square;stroke-miterlimit:10;stroke-width:1.5px"/><polyline points="332.35 287.189 332.242 288.056 332.242 288.923 332.35 289.844 332.567 290.71 332.837 291.523 333.271 292.336 333.758 293.094 334.3 293.744 334.95 294.394 335.654 294.936 336.412 295.369 337.224 295.748" style="fill:none;stroke:#000;stroke-linecap:square;stroke-miterlimit:10;stroke-width:1.5px"/><polyline points="337.549 297.644 337.766 297.428 337.874 297.211 337.929 296.94 337.929 296.615 337.82 296.399 337.658 296.128 337.495 295.965 337.224 295.803" style="fill:none;stroke:#000;stroke-linecap:square;stroke-miterlimit:10;stroke-width:1.5px"/><line x1="337.604" y1="297.699" x2="319.406" y2="313.517" style="fill:none;stroke:#000;stroke-linecap:square;stroke-miterlimit:10;stroke-width:1.5px"/><polyline points="318.431 313.734 318.702 313.734 318.918 313.679 319.135 313.625 319.352 313.463" style="fill:none;stroke:#000;stroke-linecap:square;stroke-miterlimit:10;stroke-width:1.5px"/><line x1="318.431" y1="313.788" x2="192.239" y2="290.277" style="fill:none;stroke:#000;stroke-linecap:square;stroke-miterlimit:10;stroke-width:1.5px"/><polyline points="192.239 290.277 191.914 290.277 191.589 290.331 191.318 290.44 191.047 290.602 190.83 290.819 190.668 291.144 190.56 291.415 190.505 291.74" style="fill:none;stroke:#000;stroke-linecap:square;stroke-miterlimit:10;stroke-width:1.5px"/><line x1="190.451" y1="291.74" x2="190.451" y2="293.311" style="fill:none;stroke:#000;stroke-linecap:square;stroke-miterlimit:10;stroke-width:1.5px"/><polyline points="190.505 293.311 190.56 293.636 190.668 293.961 190.83 294.232 191.101 294.503 191.372 294.665 191.697 294.773" style="fill:none;stroke:#000;stroke-linecap:square;stroke-miterlimit:10;stroke-width:1.5px"/><line x1="191.697" y1="294.773" x2="319.785" y2="318.609" style="fill:none;stroke:#000;stroke-linecap:square;stroke-miterlimit:10;stroke-width:1.5px"/><polyline points="319.731 318.555 320.002 318.555 320.218 318.501 320.435 318.447 320.651 318.284" style="fill:none;stroke:#000;stroke-linecap:square;stroke-miterlimit:10;stroke-width:1.5px"/><line x1="320.706" y1="318.338" x2="341.99" y2="299.866" style="fill:none;stroke:#000;stroke-linecap:square;stroke-miterlimit:10;stroke-width:1.5px"/><polyline points="341.99 299.811 342.045 299.703 342.153 299.595 342.207 299.432 342.207 299.324" style="fill:none;stroke:#000;stroke-linecap:square;stroke-miterlimit:10;stroke-width:1.5px"/><line x1="342.207" y1="299.324" x2="342.749" y2="292.065" style="fill:none;stroke:#000;stroke-linecap:square;stroke-miterlimit:10;stroke-width:1.5px"/><polyline points="342.695 292.065 342.64 291.794 342.532 291.577 342.37 291.415 342.153 291.306 341.882 291.306 341.666 291.415" style="fill:none;stroke:#000;stroke-linecap:square;stroke-miterlimit:10;stroke-width:1.5px"/><polyline points="337.604 286.268 337.279 286.702 337.008 287.243 336.791 287.785 336.737 288.327 336.791 288.923 336.899 289.464 337.116 290.006 337.441 290.494 337.82 290.927 338.308 291.252 338.795 291.523 339.337 291.686 339.932 291.74 340.528 291.686 341.07 291.577 341.611 291.306" style="fill:none;stroke:#000;stroke-linecap:square;stroke-miterlimit:10;stroke-width:1.5px"/><polyline points="337.549 286.214 337.658 286.106 337.658 285.997 337.658 285.889 337.604 285.781" style="fill:none;stroke:#000;stroke-linecap:square;stroke-miterlimit:10;stroke-width:1.5px"/><line x1="337.604" y1="285.781" x2="322.385" y2="268.175" style="fill:none;stroke:#000;stroke-linecap:square;stroke-miterlimit:10;stroke-width:1.5px"/><polyline points="322.439 267.145 322.33 267.308 322.276 267.471 322.222 267.633 322.222 267.796 322.276 268.012 322.385 268.175" style="fill:none;stroke:#000;stroke-linecap:square;stroke-miterlimit:10;stroke-width:1.5px"/><line x1="322.439" y1="267.145" x2="355.855" y2="238.109" style="fill:none;stroke:#000;stroke-linecap:square;stroke-miterlimit:10;stroke-width:1.5px"/><polyline points="356.884 238.163 356.722 238.055 356.559 238.001 356.397 237.947 356.235 237.947 356.018 238.001 355.855 238.109" style="fill:none;stroke:#000;stroke-linecap:square;stroke-miterlimit:10;stroke-width:1.5px"/><line x1="356.884" y1="238.163" x2="372.157" y2="255.769" style="fill:none;stroke:#000;stroke-linecap:square;stroke-miterlimit:10;stroke-width:1.5px"/><polyline points="372.157 255.715 372.266 255.769 372.374 255.823 372.482 255.823 372.591 255.769" style="fill:none;stroke:#000;stroke-linecap:square;stroke-miterlimit:10;stroke-width:1.5px"/><polyline points="377.086 260.482 377.411 259.995 377.628 259.453 377.79 258.857 377.79 258.315 377.682 257.72 377.519 257.178 377.249 256.69 376.869 256.257 376.436 255.878 375.949 255.553 375.407 255.336 374.865 255.228 374.27 255.228 373.728 255.336 373.187 255.553 372.699 255.823" style="fill:none;stroke:#000;stroke-linecap:square;stroke-miterlimit:10;stroke-width:1.5px"/><polyline points="377.194 260.537 377.086 260.753 377.032 261.024 377.086 261.241 377.249 261.457 377.465 261.62 377.682 261.674" style="fill:none;stroke:#000;stroke-linecap:square;stroke-miterlimit:10;stroke-width:1.5px"/><line x1="377.682" y1="261.728" x2="384.939" y2="262.216" style="fill:none;stroke:#000;stroke-linecap:square;stroke-miterlimit:10;stroke-width:1.5px"/><polyline points="384.939 262.162 385.102 262.162 385.21 262.108 385.318 262.053 385.481 261.999" style="fill:none;stroke:#000;stroke-linecap:square;stroke-miterlimit:10;stroke-width:1.5px"/><line x1="385.481" y1="262.053" x2="395.284" y2="253.548" style="fill:none;stroke:#000;stroke-linecap:square;stroke-miterlimit:10;stroke-width:1.5px"/><polyline points="395.23 253.494 395.446 253.277 395.609 253.007 395.717 252.681 395.771 252.356 395.717 252.031 395.609 251.706 395.446 251.436 395.23 251.219" style="fill:none;stroke:#000;stroke-linecap:square;stroke-miterlimit:10;stroke-width:1.5px"/><line x1="395.284" y1="251.165" x2="320.868" y2="186.537" style="fill:none;stroke:#000;stroke-linecap:square;stroke-miterlimit:10;stroke-width:1.5px"/><polyline points="320.868 186.591 320.706 186.429 320.543 186.375 320.381 186.266 320.164 186.212" style="fill:none;stroke:#000;stroke-linecap:square;stroke-miterlimit:10;stroke-width:1.5px"/><line x1="320.164" y1="186.158" x2="295.576" y2="181.445" style="fill:none;stroke:#000;stroke-linecap:square;stroke-miterlimit:10;stroke-width:1.5px"/><polyline points="295.576 181.445 295.467 181.445 295.359 181.445" style="fill:none;stroke:#000;stroke-linecap:square;stroke-miterlimit:10;stroke-width:1.5px"/><line x1="295.359" y1="181.391" x2="105.745" y2="181.391" style="fill:none;stroke:#000;stroke-linecap:square;stroke-miterlimit:10;stroke-width:1.5px"/><polyline points="105.745 181.445 105.366 181.499 105.041 181.662 104.716 181.878 104.5 182.149 104.337 182.528 104.283 182.908" style="fill:none;stroke:#000;stroke-linecap:square;stroke-miterlimit:10;stroke-width:1.5px"/><line x1="104.229" y1="182.908" x2="104.229" y2="184.425" style="fill:none;stroke:#000;stroke-linecap:square;stroke-miterlimit:10;stroke-width:1.5px"/></svg>