<svg id="Capa_1" data-name="Capa 1" xmlns="http://www.w3.org/2000/svg" viewBox="0 0 500 500"><rect width="500" height="500" style="fill:none"/><line x1="377.546" y1="284.264" x2="335.518" y2="276.409" style="fill:none;stroke:#000;stroke-linecap:square;stroke-miterlimit:10;stroke-width:1.5px"/><polyline points="335.518 276.463 335.139 276.463 334.76 276.572 334.435 276.734 334.11 276.951 333.948 277.276 333.785 277.655" style="fill:none;stroke:#000;stroke-linecap:square;stroke-miterlimit:10;stroke-width:1.5px"/><line x1="333.785" y1="277.655" x2="329.669" y2="299.811" style="fill:none;stroke:#000;stroke-linecap:square;stroke-miterlimit:10;stroke-width:1.5px"/><polyline points="329.29 300.028 329.398 300.028 329.507 299.974 329.561 299.866 329.615 299.757" style="fill:none;stroke:#000;stroke-linecap:square;stroke-miterlimit:10;stroke-width:1.5px"/><polyline points="329.29 300.136 328.694 300.136 328.153 300.245 327.611 300.461 327.124 300.732 326.69 301.111 326.311 301.599 326.04 302.087 325.878 302.628 325.77 303.224 325.77 303.766 325.932 304.362 326.149 304.903 326.419 305.391 326.853 305.77 327.286 306.15 327.828 306.42" style="fill:none;stroke:#000;stroke-linecap:square;stroke-miterlimit:10;stroke-width:1.5px"/><polyline points="327.882 307.721 328.098 307.504 328.207 307.287 328.207 307.07 328.153 306.8 327.99 306.583 327.774 306.475" style="fill:none;stroke:#000;stroke-linecap:square;stroke-miterlimit:10;stroke-width:1.5px"/><line x1="327.936" y1="307.721" x2="322.033" y2="311.783" style="fill:none;stroke:#000;stroke-linecap:square;stroke-miterlimit:10;stroke-width:1.5px"/><polyline points="321.22 311.892 321.437 311.892 321.653 311.892 321.87 311.783 322.033 311.675" style="fill:none;stroke:#000;stroke-linecap:square;stroke-miterlimit:10;stroke-width:1.5px"/><line x1="321.22" y1="311.946" x2="191.345" y2="287.785" style="fill:none;stroke:#000;stroke-linecap:square;stroke-miterlimit:10;stroke-width:1.5px"/><polyline points="190.153 286.322 190.208 286.647 190.316 286.972 190.478 287.243 190.749 287.514 191.02 287.677 191.345 287.785" style="fill:none;stroke:#000;stroke-linecap:square;stroke-miterlimit:10;stroke-width:1.5px"/><line x1="190.153" y1="286.322" x2="190.153" y2="284.806" style="fill:none;stroke:#000;stroke-linecap:square;stroke-miterlimit:10;stroke-width:1.5px"/><polyline points="191.887 283.343 191.562 283.343 191.237 283.397 190.966 283.506 190.695 283.668 190.478 283.885 190.316 284.21 190.208 284.481 190.153 284.806" style="fill:none;stroke:#000;stroke-linecap:square;stroke-miterlimit:10;stroke-width:1.5px"/><line x1="191.887" y1="283.289" x2="320.299" y2="307.179" style="fill:none;stroke:#000;stroke-linecap:square;stroke-miterlimit:10;stroke-width:1.5px"/><polyline points="320.299 307.179 320.57 307.179 320.895 307.125 321.112 307.016 321.328 306.8 321.491 306.583 321.599 306.312 321.599 306.041 321.545 305.77" style="fill:none;stroke:#000;stroke-linecap:square;stroke-miterlimit:10;stroke-width:1.5px"/><polyline points="325.282 296.561 324.578 297.049 323.874 297.59 323.224 298.24 322.682 298.945 322.195 299.703 321.816 300.516 321.545 301.382 321.383 302.249 321.274 303.116 321.274 303.983 321.437 304.903 321.653 305.77" style="fill:none;stroke:#000;stroke-linecap:square;stroke-miterlimit:10;stroke-width:1.5px"/><polyline points="325.282 296.507 325.445 296.344 325.607 296.182 325.715 295.965 325.824 295.748" style="fill:none;stroke:#000;stroke-linecap:square;stroke-miterlimit:10;stroke-width:1.5px"/><line x1="325.824" y1="295.748" x2="330.265" y2="272.021" style="fill:none;stroke:#000;stroke-linecap:square;stroke-miterlimit:10;stroke-width:1.5px"/><polyline points="331.565 271.154 331.24 271.154 330.969 271.208 330.752 271.371 330.536 271.533 330.373 271.75 330.265 272.021" style="fill:none;stroke:#000;stroke-linecap:square;stroke-miterlimit:10;stroke-width:1.5px"/><line x1="331.565" y1="271.1" x2="383.179" y2="280.743" style="fill:none;stroke:#000;stroke-linecap:square;stroke-miterlimit:10;stroke-width:1.5px"/><polyline points="384.046 282.043 384.046 281.718 383.991 281.447 383.829 281.23 383.666 281.014 383.45 280.851 383.179 280.743" style="fill:none;stroke:#000;stroke-linecap:square;stroke-miterlimit:10;stroke-width:1.5px"/><line x1="384.046" y1="282.043" x2="379.659" y2="305.77" style="fill:none;stroke:#000;stroke-linecap:square;stroke-miterlimit:10;stroke-width:1.5px"/><polyline points="379.659 305.77 379.659 306.041 379.713 306.258 379.767 306.475 379.929 306.691" style="fill:none;stroke:#000;stroke-linecap:square;stroke-miterlimit:10;stroke-width:1.5px"/><polyline points="379.984 316.605 380.525 315.846 380.958 315.088 381.283 314.275 381.554 313.409 381.662 312.542 381.717 311.621 381.662 310.754 381.5 309.887 381.229 309.021 380.85 308.208 380.417 307.45 379.875 306.745" style="fill:none;stroke:#000;stroke-linecap:square;stroke-miterlimit:10;stroke-width:1.5px"/><polyline points="380.038 316.605 379.929 316.876 379.821 317.146 379.821 317.417 379.875 317.688 380.038 317.959 380.2 318.122 380.417 318.284 380.688 318.392" style="fill:none;stroke:#000;stroke-linecap:square;stroke-miterlimit:10;stroke-width:1.5px"/><line x1="380.688" y1="318.447" x2="390.274" y2="320.18" style="fill:none;stroke:#000;stroke-linecap:square;stroke-miterlimit:10;stroke-width:1.5px"/><polyline points="390.274 320.18 390.599 320.18 390.924 320.072 391.195 319.909 391.411 319.693 391.52 319.422 391.574 319.097" style="fill:none;stroke:#000;stroke-linecap:square;stroke-miterlimit:10;stroke-width:1.5px"/><line x1="391.574" y1="319.097" x2="391.574" y2="198.563" style="fill:none;stroke:#000;stroke-linecap:square;stroke-miterlimit:10;stroke-width:1.5px"/><polyline points="391.574 198.563 391.52 198.293 391.465 198.076 391.303 197.859 391.14 197.697 390.924 197.588 390.707 197.48" style="fill:none;stroke:#000;stroke-linecap:square;stroke-miterlimit:10;stroke-width:1.5px"/><line x1="390.707" y1="197.426" x2="294.844" y2="178.953" style="fill:none;stroke:#000;stroke-linecap:square;stroke-miterlimit:10;stroke-width:1.5px"/><polyline points="294.844 178.953 294.736 178.953 294.628 178.953" style="fill:none;stroke:#000;stroke-linecap:square;stroke-miterlimit:10;stroke-width:1.5px"/><line x1="294.628" y1="178.953" x2="105.393" y2="178.953" style="fill:none;stroke:#000;stroke-linecap:square;stroke-miterlimit:10;stroke-width:1.5px"/><polyline points="103.931 177.436 103.985 177.815 104.148 178.14 104.364 178.466 104.689 178.682 105.014 178.845 105.393 178.899" style="fill:none;stroke:#000;stroke-linecap:square;stroke-miterlimit:10;stroke-width:1.5px"/><line x1="103.877" y1="177.436" x2="103.877" y2="175.919" style="fill:none;stroke:#000;stroke-linecap:square;stroke-miterlimit:10;stroke-width:1.5px"/><polyline points="105.393 174.457 105.014 174.511 104.689 174.674 104.364 174.89 104.148 175.161 103.985 175.54 103.931 175.919" style="fill:none;stroke:#000;stroke-linecap:square;stroke-miterlimit:10;stroke-width:1.5px"/><line x1="105.393" y1="174.457" x2="295.061" y2="174.457" style="fill:none;stroke:#000;stroke-linecap:square;stroke-miterlimit:10;stroke-width:1.5px"/><polyline points="295.278 174.457 295.169 174.457 295.061 174.457" style="fill:none;stroke:#000;stroke-linecap:square;stroke-miterlimit:10;stroke-width:1.5px"/><line x1="295.278" y1="174.457" x2="394.878" y2="193.688" style="fill:none;stroke:#000;stroke-linecap:square;stroke-miterlimit:10;stroke-width:1.5px"/><polyline points="396.069 195.151 396.015 194.826 395.907 194.501 395.744 194.23 395.473 194.013 395.202 193.796 394.878 193.688" style="fill:none;stroke:#000;stroke-linecap:square;stroke-miterlimit:10;stroke-width:1.5px"/><line x1="396.123" y1="195.151" x2="396.123" y2="324.081" style="fill:none;stroke:#000;stroke-linecap:square;stroke-miterlimit:10;stroke-width:1.5px"/><polyline points="394.336 325.543 394.661 325.543 394.986 325.489 395.257 325.381 395.527 325.218 395.744 325.001 395.907 324.676 396.015 324.406 396.069 324.081" style="fill:none;stroke:#000;stroke-linecap:square;stroke-miterlimit:10;stroke-width:1.5px"/><line x1="394.336" y1="325.543" x2="378.305" y2="322.564" style="fill:none;stroke:#000;stroke-linecap:square;stroke-miterlimit:10;stroke-width:1.5px"/><polyline points="377.384 321.914 377.546 322.13 377.763 322.347 378.034 322.455 378.305 322.564" style="fill:none;stroke:#000;stroke-linecap:square;stroke-miterlimit:10;stroke-width:1.5px"/><line x1="377.33" y1="321.914" x2="373.43" y2="316.171" style="fill:none;stroke:#000;stroke-linecap:square;stroke-miterlimit:10;stroke-width:1.5px"/><polyline points="374.026 315.034 373.755 315.088 373.539 315.196 373.376 315.413 373.322 315.63 373.322 315.9 373.43 316.117" style="fill:none;stroke:#000;stroke-linecap:square;stroke-miterlimit:10;stroke-width:1.5px"/><polyline points="374.026 314.98 374.568 314.925 375.163 314.763 375.651 314.492 376.138 314.167 376.517 313.734 376.842 313.246 377.059 312.759 377.167 312.163 377.221 311.621 377.167 311.025 376.951 310.483 376.68 309.942 376.355 309.508 375.922 309.129 375.434 308.804 374.893 308.587" style="fill:none;stroke:#000;stroke-linecap:square;stroke-miterlimit:10;stroke-width:1.5px"/><polyline points="374.676 308.154 374.676 308.262 374.73 308.371 374.784 308.479 374.893 308.533" style="fill:none;stroke:#000;stroke-linecap:square;stroke-miterlimit:10;stroke-width:1.5px"/><line x1="374.622" y1="308.154" x2="378.738" y2="285.997" style="fill:none;stroke:#000;stroke-linecap:square;stroke-miterlimit:10;stroke-width:1.5px"/><polyline points="378.738 285.997 378.738 285.618 378.63 285.239 378.467 284.914 378.25 284.589 377.925 284.426 377.546 284.264" style="fill:none;stroke:#000;stroke-linecap:square;stroke-miterlimit:10;stroke-width:1.5px"/></svg>