<svg id="Capa_1" data-name="Capa 1" xmlns="http://www.w3.org/2000/svg" viewBox="0 0 500 500"><rect width="500" height="500" style="fill:none"/><line x1="314.261" y1="172.669" x2="314.261" y2="172.669" style="fill:none;stroke:#000;stroke-linecap:square;stroke-miterlimit:10;stroke-width:1.5px"/><polyline points="314.207 172.669 314.207 172.452 314.098 172.236 313.99 172.019 313.882 171.857 313.665 171.748 313.502 171.64" style="fill:none;stroke:#000;stroke-linecap:square;stroke-miterlimit:10;stroke-width:1.5px"/><line x1="313.502" y1="171.586" x2="288.535" y2="166.764" style="fill:none;stroke:#000;stroke-linecap:square;stroke-miterlimit:10;stroke-width:1.5px"/><polyline points="288.535 166.764 288.426 166.764 288.318 166.764" style="fill:none;stroke:#000;stroke-linecap:square;stroke-miterlimit:10;stroke-width:1.5px"/><line x1="288.318" y1="166.764" x2="98.705" y2="166.764" style="fill:none;stroke:#000;stroke-linecap:square;stroke-miterlimit:10;stroke-width:1.5px"/><polyline points="98.705 166.764 98.325 166.819 98 166.981 97.676 167.198 97.459 167.469 97.296 167.848 97.242 168.227" style="fill:none;stroke:#000;stroke-linecap:square;stroke-miterlimit:10;stroke-width:1.5px"/><line x1="97.188" y1="168.227" x2="97.188" y2="169.744" style="fill:none;stroke:#000;stroke-linecap:square;stroke-miterlimit:10;stroke-width:1.5px"/><polyline points="97.242 169.744 97.296 170.123 97.459 170.448 97.676 170.773 98 170.99 98.325 171.152 98.705 171.207" style="fill:none;stroke:#000;stroke-linecap:square;stroke-miterlimit:10;stroke-width:1.5px"/><line x1="98.705" y1="171.261" x2="287.885" y2="171.261" style="fill:none;stroke:#000;stroke-linecap:square;stroke-miterlimit:10;stroke-width:1.5px"/><polyline points="288.101 171.315 287.993 171.315 287.885 171.315" style="fill:none;stroke:#000;stroke-linecap:square;stroke-miterlimit:10;stroke-width:1.5px"/><line x1="288.101" y1="171.261" x2="308.953" y2="175.269" style="fill:none;stroke:#000;stroke-linecap:square;stroke-miterlimit:10;stroke-width:1.5px"/><polyline points="309.82 176.353 309.765 176.136 309.711 175.92 309.549 175.703 309.386 175.54 309.17 175.432 308.953 175.324" style="fill:none;stroke:#000;stroke-linecap:square;stroke-miterlimit:10;stroke-width:1.5px"/><polyline points="309.82 176.353 310.036 179.657 310.361 182.908 310.794 186.212 311.39 189.463 312.094 192.659 312.907 195.855 313.827 198.997 314.856 202.139 316.048 205.227 317.294 208.26 318.702 211.24 320.218 214.165 321.843 217.036 323.576 219.853 325.363 222.616 327.313 225.27 329.317 227.871 331.483 230.363 333.65 232.8 335.979 235.184 338.362 237.459 340.853 239.626 343.399 241.685 346.052 243.689 348.76 245.531 351.523 247.318 354.339 248.998 357.264 250.569 360.242 252.031 363.221 253.332 366.308 254.578 369.395 255.661" style="fill:none;stroke:#000;stroke-linecap:square;stroke-miterlimit:10;stroke-width:1.5px"/><polyline points="388.351 323.43 389.814 321.643 391.113 319.801 392.359 317.851 393.442 315.846 394.471 313.788 395.392 311.621 396.15 309.508 396.8 307.287 397.342 305.066 397.775 302.791 398.1 300.516 398.262 298.24 398.317 295.911 398.262 293.636 398.046 291.306 397.721 289.031 397.288 286.81 396.746 284.589 396.042 282.368 395.23 280.201 394.363 278.088 393.334 276.03 392.197 274.025 390.951 272.129 389.597 270.233 388.135 268.446 386.618 266.766 384.993 265.141 383.26 263.57 381.473 262.162 379.632 260.807 377.682 259.561 375.678 258.424 373.62 257.449 371.508 256.528 369.395 255.715" style="fill:none;stroke:#000;stroke-linecap:square;stroke-miterlimit:10;stroke-width:1.5px"/><polyline points="386.456 322.835 386.564 323.16 386.726 323.43 386.943 323.647 387.214 323.755 387.539 323.81 387.864 323.755 388.135 323.647 388.351 323.43" style="fill:none;stroke:#000;stroke-linecap:square;stroke-miterlimit:10;stroke-width:1.5px"/><polyline points="386.347 322.889 386.239 322.13 386.077 321.372 385.806 320.668 385.481 320.018 385.048 319.368 384.614 318.772 384.127 318.176 383.531 317.688" style="fill:none;stroke:#000;stroke-linecap:square;stroke-miterlimit:10;stroke-width:1.5px"/><polyline points="383.206 316.767 383.206 316.984 383.314 317.255 383.423 317.417 383.585 317.634" style="fill:none;stroke:#000;stroke-linecap:square;stroke-miterlimit:10;stroke-width:1.5px"/><line x1="383.152" y1="316.767" x2="383.152" y2="292.606" style="fill:none;stroke:#000;stroke-linecap:square;stroke-miterlimit:10;stroke-width:1.5px"/><polyline points="383.152 292.606 383.098 292.336 382.989 292.065 382.827 291.848 382.61 291.686 382.34 291.577 382.069 291.523" style="fill:none;stroke:#000;stroke-linecap:square;stroke-miterlimit:10;stroke-width:1.5px"/><line x1="382.069" y1="291.523" x2="329.588" y2="291.523" style="fill:none;stroke:#000;stroke-linecap:square;stroke-miterlimit:10;stroke-width:1.5px"/><polyline points="329.588 291.523 329.317 291.577 329.046 291.686 328.83 291.848 328.667 292.065 328.559 292.336 328.505 292.606" style="fill:none;stroke:#000;stroke-linecap:square;stroke-miterlimit:10;stroke-width:1.5px"/><line x1="328.45" y1="292.606" x2="328.45" y2="316.767" style="fill:none;stroke:#000;stroke-linecap:square;stroke-miterlimit:10;stroke-width:1.5px"/><polyline points="328.017 317.634 328.18 317.417 328.288 317.255 328.396 316.984 328.396 316.767" style="fill:none;stroke:#000;stroke-linecap:square;stroke-miterlimit:10;stroke-width:1.5px"/><polyline points="328.071 317.688 327.476 318.176 326.988 318.772 326.555 319.368 326.122 320.018 325.797 320.668 325.526 321.372 325.363 322.13 325.255 322.889" style="fill:none;stroke:#000;stroke-linecap:square;stroke-miterlimit:10;stroke-width:1.5px"/><polyline points="323.251 323.43 323.468 323.647 323.739 323.755 324.064 323.81 324.389 323.755 324.659 323.647 324.876 323.43 325.038 323.16 325.147 322.835" style="fill:none;stroke:#000;stroke-linecap:square;stroke-miterlimit:10;stroke-width:1.5px"/><polyline points="313.502 300.299 313.773 302.412 314.152 304.524 314.586 306.583 315.181 308.641 315.831 310.646 316.644 312.596 317.51 314.546 318.485 316.442 319.514 318.284 320.706 320.072 321.897 321.805 323.251 323.43" style="fill:none;stroke:#000;stroke-linecap:square;stroke-miterlimit:10;stroke-width:1.5px"/><polyline points="313.448 300.299 313.394 300.082 313.286 299.866 313.177 299.649 313.015 299.541 312.798 299.432 312.582 299.324" style="fill:none;stroke:#000;stroke-linecap:square;stroke-miterlimit:10;stroke-width:1.5px"/><line x1="312.528" y1="299.324" x2="185.198" y2="275.596" style="fill:none;stroke:#000;stroke-linecap:square;stroke-miterlimit:10;stroke-width:1.5px"/><polyline points="185.198 275.651 184.873 275.651 184.548 275.705 184.277 275.813 184.006 275.976 183.79 276.192 183.627 276.517 183.519 276.788 183.465 277.113" style="fill:none;stroke:#000;stroke-linecap:square;stroke-miterlimit:10;stroke-width:1.5px"/><line x1="183.411" y1="277.113" x2="183.411" y2="278.63" style="fill:none;stroke:#000;stroke-linecap:square;stroke-miterlimit:10;stroke-width:1.5px"/><polyline points="183.465 278.63 183.519 278.955 183.627 279.28 183.79 279.551 184.06 279.822 184.331 279.984 184.656 280.093" style="fill:none;stroke:#000;stroke-linecap:square;stroke-miterlimit:10;stroke-width:1.5px"/><line x1="184.656" y1="280.093" x2="308.52" y2="303.116" style="fill:none;stroke:#000;stroke-linecap:square;stroke-miterlimit:10;stroke-width:1.5px"/><polyline points="309.44 304.091 309.332 303.766 309.115 303.495 308.845 303.278 308.574 303.17" style="fill:none;stroke:#000;stroke-linecap:square;stroke-miterlimit:10;stroke-width:1.5px"/><polyline points="309.495 304.091 309.874 306.204 310.415 308.316 311.011 310.375 311.715 312.433 312.528 314.438 313.394 316.388 314.369 318.338 315.452 320.234 316.589 322.022 317.835 323.81 319.135 325.543 320.543 327.168 322.005 328.793 323.522 330.31 325.147 331.773 326.826 333.127" style="fill:none;stroke:#000;stroke-linecap:square;stroke-miterlimit:10;stroke-width:1.5px"/><polyline points="326.826 333.073 327.042 333.181 327.313 333.236 327.53 333.181 327.746 333.019" style="fill:none;stroke:#000;stroke-linecap:square;stroke-miterlimit:10;stroke-width:1.5px"/><line x1="327.801" y1="333.073" x2="332.675" y2="328.143" style="fill:none;stroke:#000;stroke-linecap:square;stroke-miterlimit:10;stroke-width:1.5px"/><polyline points="332.621 328.143 332.783 327.927 332.837 327.71 332.783 327.439 332.675 327.223 332.513 327.06 332.296 326.952" style="fill:none;stroke:#000;stroke-linecap:square;stroke-miterlimit:10;stroke-width:1.5px"/><polyline points="332.621 320.451 332.025 320.559 331.483 320.776 330.996 321.101 330.563 321.48 330.238 321.914 329.967 322.401 329.805 322.997 329.696 323.539 329.75 324.135 329.859 324.676 330.075 325.218 330.4 325.706 330.779 326.139 331.213 326.464 331.754 326.735 332.296 326.897" style="fill:none;stroke:#000;stroke-linecap:square;stroke-miterlimit:10;stroke-width:1.5px"/><polyline points="332.621 320.343 332.729 320.288 332.783 320.234 332.892 320.126 332.892 320.018" style="fill:none;stroke:#000;stroke-linecap:square;stroke-miterlimit:10;stroke-width:1.5px"/><line x1="332.946" y1="320.018" x2="332.946" y2="296.778" style="fill:none;stroke:#000;stroke-linecap:square;stroke-miterlimit:10;stroke-width:1.5px"/><polyline points="333.704 296.074 333.542 296.074 333.379 296.182 333.217 296.29 333.108 296.399 333 296.615 333 296.778" style="fill:none;stroke:#000;stroke-linecap:square;stroke-miterlimit:10;stroke-width:1.5px"/><line x1="333.704" y1="296.019" x2="377.953" y2="296.019" style="fill:none;stroke:#000;stroke-linecap:square;stroke-miterlimit:10;stroke-width:1.5px"/><polyline points="378.657 296.778 378.657 296.615 378.548 296.399 378.44 296.29 378.332 296.182 378.115 296.074 377.953 296.074" style="fill:none;stroke:#000;stroke-linecap:square;stroke-miterlimit:10;stroke-width:1.5px"/><line x1="378.657" y1="296.778" x2="378.657" y2="320.018" style="fill:none;stroke:#000;stroke-linecap:square;stroke-miterlimit:10;stroke-width:1.5px"/><polyline points="378.711 320.018 378.711 320.126 378.819 320.234 378.873 320.288 378.982 320.343" style="fill:none;stroke:#000;stroke-linecap:square;stroke-miterlimit:10;stroke-width:1.5px"/><polyline points="379.307 326.897 379.848 326.735 380.39 326.464 380.823 326.139 381.202 325.706 381.527 325.218 381.744 324.676 381.852 324.135 381.906 323.539 381.798 322.997 381.635 322.401 381.365 321.914 381.04 321.48 380.606 321.101 380.119 320.776 379.577 320.559 378.982 320.451" style="fill:none;stroke:#000;stroke-linecap:square;stroke-miterlimit:10;stroke-width:1.5px"/><polyline points="379.307 326.952 379.09 327.06 378.927 327.223 378.819 327.439 378.765 327.71 378.819 327.927 378.982 328.143" style="fill:none;stroke:#000;stroke-linecap:square;stroke-miterlimit:10;stroke-width:1.5px"/><line x1="378.927" y1="328.143" x2="383.856" y2="333.073" style="fill:none;stroke:#000;stroke-linecap:square;stroke-miterlimit:10;stroke-width:1.5px"/><polyline points="383.856 333.019 384.073 333.181 384.289 333.236 384.56 333.181 384.777 333.073" style="fill:none;stroke:#000;stroke-linecap:square;stroke-miterlimit:10;stroke-width:1.5px"/><polyline points="384.777 333.127 386.672 331.61 388.405 329.985 390.139 328.252 391.709 326.464 393.226 324.568 394.634 322.618 395.934 320.559 397.125 318.501 398.208 316.334 399.237 314.113 400.104 311.892 400.808 309.617 401.458 307.287 402 304.904 402.379 302.52 402.649 300.136 402.758 297.699 402.812 295.315 402.704 292.877 402.487 290.494 402.162 288.11 401.675 285.727 401.079 283.397 400.375 281.122 399.562 278.847 398.587 276.626 397.558 274.459 396.421 272.346 395.121 270.288 393.767 268.283 392.305 266.387 390.734 264.545 389.055 262.812 387.322 261.132 385.481 259.561 383.585 258.099 381.581 256.744 379.577 255.444 377.465 254.307 375.299 253.223 373.078 252.302 370.803 251.436" style="fill:none;stroke:#000;stroke-linecap:square;stroke-miterlimit:10;stroke-width:1.5px"/><polyline points="314.315 172.669 314.369 175.92 314.586 179.116 314.856 182.366 315.344 185.562 315.885 188.758 316.589 191.9 317.402 195.042 318.323 198.13 319.352 201.218 320.543 204.197 321.789 207.177 323.197 210.102 324.713 212.973 326.338 215.736 328.071 218.499 329.913 221.153 331.863 223.754 333.866 226.245 336.033 228.683 338.253 231.013 340.528 233.288 342.965 235.455 345.457 237.513 348.002 239.518 350.656 241.36 353.364 243.147 356.126 244.827 358.942 246.343 361.867 247.806 364.792 249.106 367.771 250.352 370.858 251.436" style="fill:none;stroke:#000;stroke-linecap:square;stroke-miterlimit:10;stroke-width:1.5px"/></svg>