<svg id="Capa_1" data-name="Capa 1" xmlns="http://www.w3.org/2000/svg" viewBox="0 0 500 500"><rect width="500" height="500" style="fill:none"/><polyline points="401.81 292.065 403.056 291.685 404.247 291.198 405.384 290.602 406.468 289.952 407.497 289.194 408.472 288.327 409.338 287.406 410.205 286.431 410.909 285.402 411.559 284.264 412.1 283.126 412.588 281.934 412.913 280.689 413.184 279.443 413.346 278.197 413.4 276.896" style="fill:none;stroke:#000;stroke-linecap:square;stroke-miterlimit:10;stroke-width:1.5px"/><line x1="413.4" y1="276.896" x2="413.4" y2="228.25" style="fill:none;stroke:#000;stroke-linecap:square;stroke-miterlimit:10;stroke-width:1.5px"/><polyline points="413.4 228.25 413.346 226.95 413.184 225.704 412.913 224.458 412.588 223.212 412.1 222.02 411.559 220.882 410.909 219.745 410.205 218.715 409.338 217.74 408.472 216.819 407.497 215.953 406.468 215.194 405.384 214.544 404.247 213.948 403.056 213.461 401.81 213.082" style="fill:none;stroke:#000;stroke-linecap:square;stroke-miterlimit:10;stroke-width:1.5px"/><line x1="401.81" y1="213.082" x2="304.214" y2="186.321" style="fill:none;stroke:#000;stroke-linecap:square;stroke-miterlimit:10;stroke-width:1.5px"/><polyline points="304.16 186.375 304.16 186.375 304.106 186.321" style="fill:none;stroke:#000;stroke-linecap:square;stroke-miterlimit:10;stroke-width:1.5px"/><line x1="304.106" y1="186.321" x2="277.892" y2="181.283" style="fill:none;stroke:#000;stroke-linecap:square;stroke-miterlimit:10;stroke-width:1.5px"/><polyline points="277.892 181.283 277.784 181.283 277.676 181.283" style="fill:none;stroke:#000;stroke-linecap:square;stroke-miterlimit:10;stroke-width:1.5px"/><line x1="277.676" y1="181.228" x2="88.062" y2="181.228" style="fill:none;stroke:#000;stroke-linecap:square;stroke-miterlimit:10;stroke-width:1.5px"/><polyline points="88.062 181.283 87.683 181.337 87.358 181.499 87.033 181.716 86.816 181.987 86.654 182.366 86.6 182.745" style="fill:none;stroke:#000;stroke-linecap:square;stroke-miterlimit:10;stroke-width:1.5px"/><line x1="86.6" y1="182.745" x2="86.6" y2="184.262" style="fill:none;stroke:#000;stroke-linecap:square;stroke-miterlimit:10;stroke-width:1.5px"/><polyline points="86.6 184.262 86.654 184.641 86.816 184.966 87.033 185.291 87.358 185.508 87.683 185.671 88.062 185.725" style="fill:none;stroke:#000;stroke-linecap:square;stroke-miterlimit:10;stroke-width:1.5px"/><line x1="88.062" y1="185.779" x2="277.242" y2="185.779" style="fill:none;stroke:#000;stroke-linecap:square;stroke-miterlimit:10;stroke-width:1.5px"/><polyline points="277.459 185.779 277.351 185.779 277.242 185.779" style="fill:none;stroke:#000;stroke-linecap:square;stroke-miterlimit:10;stroke-width:1.5px"/><line x1="277.459" y1="185.779" x2="303.077" y2="190.708" style="fill:none;stroke:#000;stroke-linecap:square;stroke-miterlimit:10;stroke-width:1.5px"/><polyline points="303.131 190.817 303.131 190.817 303.077 190.763" style="fill:none;stroke:#000;stroke-linecap:square;stroke-miterlimit:10;stroke-width:1.5px"/><line x1="303.185" y1="190.708" x2="400.618" y2="217.415" style="fill:none;stroke:#000;stroke-linecap:square;stroke-miterlimit:10;stroke-width:1.5px"/><polyline points="408.905 228.25 408.851 227.221 408.688 226.191 408.472 225.162 408.147 224.187 407.713 223.212 407.226 222.291 406.63 221.424 405.926 220.666 405.168 219.907 404.41 219.257 403.543 218.661 402.622 218.174 401.647 217.74 400.673 217.415" style="fill:none;stroke:#000;stroke-linecap:square;stroke-miterlimit:10;stroke-width:1.5px"/><line x1="408.905" y1="228.25" x2="408.905" y2="276.896" style="fill:none;stroke:#000;stroke-linecap:square;stroke-miterlimit:10;stroke-width:1.5px"/><polyline points="400.673 287.731 401.647 287.406 402.622 286.973 403.543 286.485 404.41 285.889 405.168 285.239 405.926 284.481 406.63 283.722 407.226 282.855 407.713 281.934 408.147 280.959 408.472 279.984 408.688 278.955 408.851 277.926 408.905 276.896" style="fill:none;stroke:#000;stroke-linecap:square;stroke-miterlimit:10;stroke-width:1.5px"/><line x1="400.618" y1="287.785" x2="383.071" y2="292.606" style="fill:none;stroke:#000;stroke-linecap:square;stroke-miterlimit:10;stroke-width:1.5px"/><polyline points="381.717 291.306 381.663 291.577 381.717 291.848 381.825 292.065 381.987 292.281 382.204 292.444 382.475 292.552 382.746 292.606 383.016 292.552" style="fill:none;stroke:#000;stroke-linecap:square;stroke-miterlimit:10;stroke-width:1.5px"/><polyline points="381.608 291.252 381.771 290.385 381.825 289.464 381.771 288.598 381.608 287.731 381.338 286.864 381.013 286.052 380.579 285.293 380.038 284.589 379.442 283.939 378.738 283.343 378.034 282.855 377.221 282.422" style="fill:none;stroke:#000;stroke-linecap:square;stroke-miterlimit:10;stroke-width:1.5px"/><polyline points="376.68 281.609 376.734 281.826 376.896 282.043 377.059 282.205 377.276 282.314" style="fill:none;stroke:#000;stroke-linecap:square;stroke-miterlimit:10;stroke-width:1.5px"/><line x1="376.571" y1="281.664" x2="370.235" y2="258.37" style="fill:none;stroke:#000;stroke-linecap:square;stroke-miterlimit:10;stroke-width:1.5px"/><polyline points="370.181 258.37 370.072 258.099 369.91 257.882 369.693 257.72 369.422 257.611 369.152 257.557 368.881 257.611" style="fill:none;stroke:#000;stroke-linecap:square;stroke-miterlimit:10;stroke-width:1.5px"/><line x1="368.881" y1="257.557" x2="318.241" y2="271.425" style="fill:none;stroke:#000;stroke-linecap:square;stroke-miterlimit:10;stroke-width:1.5px"/><polyline points="318.241 271.479 317.971 271.588 317.754 271.75 317.591 271.967 317.483 272.238 317.429 272.509 317.483 272.779" style="fill:none;stroke:#000;stroke-linecap:square;stroke-miterlimit:10;stroke-width:1.5px"/><line x1="317.429" y1="272.834" x2="323.82" y2="296.073" style="fill:none;stroke:#000;stroke-linecap:square;stroke-miterlimit:10;stroke-width:1.5px"/><polyline points="323.603 297.049 323.712 296.832 323.82 296.615 323.82 296.344 323.766 296.128" style="fill:none;stroke:#000;stroke-linecap:square;stroke-miterlimit:10;stroke-width:1.5px"/><polyline points="323.657 297.103 323.17 297.861 322.791 298.674 322.466 299.486 322.303 300.353 322.195 301.274 322.195 302.141 322.303 303.007 322.52 303.874 322.845 304.741 323.278 305.499 323.766 306.258 324.307 306.962" style="fill:none;stroke:#000;stroke-linecap:square;stroke-miterlimit:10;stroke-width:1.5px"/><polyline points="323.766 308.75 324.036 308.641 324.253 308.479 324.416 308.262 324.524 307.991 324.578 307.72 324.524 307.45 324.47 307.179 324.253 306.962" style="fill:none;stroke:#000;stroke-linecap:square;stroke-miterlimit:10;stroke-width:1.5px"/><line x1="323.82" y1="308.804" x2="304.268" y2="314.113" style="fill:none;stroke:#000;stroke-linecap:square;stroke-miterlimit:10;stroke-width:1.5px"/><polyline points="303.781 314.113 304.051 314.113 304.268 314.059" style="fill:none;stroke:#000;stroke-linecap:square;stroke-miterlimit:10;stroke-width:1.5px"/><line x1="303.781" y1="314.167" x2="174.61" y2="290.115" style="fill:none;stroke:#000;stroke-linecap:square;stroke-miterlimit:10;stroke-width:1.5px"/><polyline points="174.61 290.115 174.285 290.115 173.96 290.169 173.689 290.277 173.418 290.44 173.201 290.656 173.039 290.981 172.931 291.252 172.876 291.577" style="fill:none;stroke:#000;stroke-linecap:square;stroke-miterlimit:10;stroke-width:1.5px"/><line x1="172.822" y1="291.577" x2="172.822" y2="293.148" style="fill:none;stroke:#000;stroke-linecap:square;stroke-miterlimit:10;stroke-width:1.5px"/><polyline points="172.876 293.148 172.931 293.473 173.039 293.798 173.201 294.069 173.472 294.34 173.743 294.503 174.068 294.611" style="fill:none;stroke:#000;stroke-linecap:square;stroke-miterlimit:10;stroke-width:1.5px"/><line x1="174.068" y1="294.611" x2="303.997" y2="318.772" style="fill:none;stroke:#000;stroke-linecap:square;stroke-miterlimit:10;stroke-width:1.5px"/><polyline points="303.997 318.772 304.268 318.772 304.485 318.717" style="fill:none;stroke:#000;stroke-linecap:square;stroke-miterlimit:10;stroke-width:1.5px"/><line x1="304.485" y1="318.772" x2="326.69" y2="312.704" style="fill:none;stroke:#000;stroke-linecap:square;stroke-miterlimit:10;stroke-width:1.5px"/><polyline points="326.636 312.65 326.853 312.596 327.015 312.488 327.178 312.325 327.286 312.163" style="fill:none;stroke:#000;stroke-linecap:square;stroke-miterlimit:10;stroke-width:1.5px"/><line x1="327.34" y1="312.163" x2="330.861" y2="305.987" style="fill:none;stroke:#000;stroke-linecap:square;stroke-miterlimit:10;stroke-width:1.5px"/><polyline points="330.806 305.933 330.915 305.716 330.915 305.445 330.806 305.229 330.644 305.066 330.427 304.958 330.157 304.904" style="fill:none;stroke:#000;stroke-linecap:square;stroke-miterlimit:10;stroke-width:1.5px"/><polyline points="328.748 298.565 328.261 298.836 327.773 299.161 327.394 299.595 327.069 300.082 326.853 300.57 326.744 301.166 326.69 301.707 326.744 302.303 326.961 302.845 327.232 303.387 327.557 303.82 327.99 304.199 328.478 304.524 329.019 304.741 329.561 304.849 330.157 304.849" style="fill:none;stroke:#000;stroke-linecap:square;stroke-miterlimit:10;stroke-width:1.5px"/><polyline points="328.748 298.511 328.857 298.403 328.911 298.349 328.965 298.24 328.965 298.078" style="fill:none;stroke:#000;stroke-linecap:square;stroke-miterlimit:10;stroke-width:1.5px"/><line x1="329.019" y1="298.078" x2="322.845" y2="275.596" style="fill:none;stroke:#000;stroke-linecap:square;stroke-miterlimit:10;stroke-width:1.5px"/><polyline points="323.441 274.675 323.224 274.784 323.116 274.892 323.007 275.055 322.899 275.217 322.899 275.38 322.899 275.542" style="fill:none;stroke:#000;stroke-linecap:square;stroke-miterlimit:10;stroke-width:1.5px"/><line x1="323.387" y1="274.675" x2="366.064" y2="263.028" style="fill:none;stroke:#000;stroke-linecap:square;stroke-miterlimit:10;stroke-width:1.5px"/><polyline points="366.985 263.57 366.877 263.353 366.769 263.245 366.606 263.137 366.444 263.028 366.281 263.028 366.119 263.028" style="fill:none;stroke:#000;stroke-linecap:square;stroke-miterlimit:10;stroke-width:1.5px"/><line x1="366.985" y1="263.516" x2="373.105" y2="285.997" style="fill:none;stroke:#000;stroke-linecap:square;stroke-miterlimit:10;stroke-width:1.5px"/><polyline points="373.159 285.997 373.214 286.106 373.322 286.16 373.43 286.214 373.539 286.214" style="fill:none;stroke:#000;stroke-linecap:square;stroke-miterlimit:10;stroke-width:1.5px"/><polyline points="375.542 292.444 376.03 292.119 376.463 291.74 376.788 291.306 377.059 290.765 377.276 290.223 377.33 289.627 377.276 289.085 377.167 288.489 376.951 288.002 376.626 287.514 376.247 287.081 375.759 286.756 375.272 286.485 374.676 286.322 374.134 286.268 373.539 286.322" style="fill:none;stroke:#000;stroke-linecap:square;stroke-miterlimit:10;stroke-width:1.5px"/><polyline points="375.542 292.444 375.326 292.606 375.217 292.823 375.163 293.094 375.217 293.311 375.326 293.527 375.542 293.69" style="fill:none;stroke:#000;stroke-linecap:square;stroke-miterlimit:10;stroke-width:1.5px"/><line x1="375.488" y1="293.744" x2="381.717" y2="297.265" style="fill:none;stroke:#000;stroke-linecap:square;stroke-miterlimit:10;stroke-width:1.5px"/><polyline points="381.717 297.211 381.933 297.319 382.096 297.374 382.312 297.374 382.529 297.319" style="fill:none;stroke:#000;stroke-linecap:square;stroke-miterlimit:10;stroke-width:1.5px"/><line x1="382.529" y1="297.374" x2="401.81" y2="292.119" style="fill:none;stroke:#000;stroke-linecap:square;stroke-miterlimit:10;stroke-width:1.5px"/></svg>