<svg id="Capa_1" data-name="Capa 1" xmlns="http://www.w3.org/2000/svg" viewBox="0 0 500 500"><rect width="500" height="500" style="fill:none"/><polyline points="325.273 115.35 325.24 114.894 325.143 114.405 324.98 113.981 324.751 113.557 324.491 113.166 324.164 112.84 323.806 112.547 323.382 112.286 322.958 112.123 322.502 111.993" style="fill:none;stroke:#000;stroke-linecap:square;stroke-miterlimit:10;stroke-width:2px"/><line x1="325.306" y1="115.35" x2="325.306" y2="197.532" style="fill:none;stroke:#000;stroke-linecap:square;stroke-miterlimit:10;stroke-width:2px"/><polyline points="324.784 198.738 324.914 198.575 325.045 198.38 325.143 198.184 325.208 197.956 325.273 197.76 325.273 197.532" style="fill:none;stroke:#000;stroke-linecap:square;stroke-miterlimit:10;stroke-width:2px"/><line x1="324.784" y1="198.738" x2="312.98" y2="210.604" style="fill:none;stroke:#000;stroke-linecap:square;stroke-miterlimit:10;stroke-width:2px"/><polyline points="310.078 209.691 310.176 209.985 310.307 210.278 310.502 210.506 310.698 210.702 310.959 210.865 311.252 210.995 311.546 211.061 311.839 211.061 312.165 210.995 312.426 210.898 312.719 210.767 312.948 210.572" style="fill:none;stroke:#000;stroke-linecap:square;stroke-miterlimit:10;stroke-width:2px"/><polyline points="310.013 209.691 309.85 208.974 309.589 208.257 309.23 207.573 308.839 206.921 308.383 206.301 307.861 205.747 307.274 205.258 306.655 204.802 305.97 204.443 305.285 204.15 304.568 203.921 303.818 203.759 303.035 203.661 302.285 203.661 301.535 203.759 300.785 203.889 300.035 204.117 299.351 204.41 298.666 204.802 298.046 205.225 297.459 205.714 296.938 206.269 296.481 206.888 296.057 207.54 295.731 208.225 295.47 208.909 295.275 209.659 295.144 210.409" style="fill:none;stroke:#000;stroke-linecap:square;stroke-miterlimit:10;stroke-width:2px"/><polyline points="294.264 211.191 294.46 211.158 294.655 211.093 294.818 210.963 294.981 210.832 295.046 210.637 295.112 210.441" style="fill:none;stroke:#000;stroke-linecap:square;stroke-miterlimit:10;stroke-width:2px"/><line x1="294.264" y1="211.191" x2="240.691" y2="211.191" style="fill:none;stroke:#000;stroke-linecap:square;stroke-miterlimit:10;stroke-width:2px"/><polyline points="240.691 211.224 240.365 211.256 240.039 211.354 239.745 211.517 239.484 211.713 239.289 211.973 239.126 212.267 239.028 212.593 238.995 212.919" style="fill:none;stroke:#000;stroke-linecap:square;stroke-miterlimit:10;stroke-width:2px"/><line x1="238.963" y1="212.919" x2="238.963" y2="314.79" style="fill:none;stroke:#000;stroke-linecap:square;stroke-miterlimit:10;stroke-width:2px"/><polyline points="238.995 314.79 239.028 315.116 239.126 315.442 239.289 315.736 239.484 315.996 239.745 316.192 240.039 316.355 240.365 316.453 240.691 316.485" style="fill:none;stroke:#000;stroke-linecap:square;stroke-miterlimit:10;stroke-width:2px"/><line x1="240.691" y1="316.518" x2="294.264" y2="316.518" style="fill:none;stroke:#000;stroke-linecap:square;stroke-miterlimit:10;stroke-width:2px"/><polyline points="295.112 317.3 295.046 317.105 294.981 316.909 294.818 316.779 294.655 316.648 294.46 316.583 294.264 316.551" style="fill:none;stroke:#000;stroke-linecap:square;stroke-miterlimit:10;stroke-width:2px"/><polyline points="295.144 317.3 295.275 318.05 295.47 318.8 295.731 319.485 296.057 320.169 296.481 320.821 296.938 321.44 297.459 321.995 298.046 322.484 298.666 322.907 299.351 323.299 300.035 323.592 300.785 323.82 301.535 323.951 302.285 324.048 303.035 324.048 303.818 323.951 304.568 323.788 305.285 323.559 305.97 323.266 306.655 322.907 307.274 322.451 307.861 321.962 308.383 321.408 308.839 320.788 309.23 320.137 309.589 319.452 309.85 318.735 310.013 318.018" style="fill:none;stroke:#000;stroke-linecap:square;stroke-miterlimit:10;stroke-width:2px"/><polyline points="312.948 317.17 312.719 316.974 312.426 316.844 312.165 316.746 311.839 316.681 311.546 316.681 311.252 316.746 310.959 316.877 310.698 317.04 310.502 317.235 310.307 317.463 310.176 317.757 310.078 318.05" style="fill:none;stroke:#000;stroke-linecap:square;stroke-miterlimit:10;stroke-width:2px"/><line x1="312.98" y1="317.137" x2="324.784" y2="328.971" style="fill:none;stroke:#000;stroke-linecap:square;stroke-miterlimit:10;stroke-width:2px"/><polyline points="325.273 330.21 325.273 329.981 325.208 329.786 325.143 329.558 325.045 329.362 324.914 329.166 324.784 329.003" style="fill:none;stroke:#000;stroke-linecap:square;stroke-miterlimit:10;stroke-width:2px"/><line x1="325.306" y1="330.21" x2="325.306" y2="412.587" style="fill:none;stroke:#000;stroke-linecap:square;stroke-miterlimit:10;stroke-width:2px"/><polyline points="321.23 415.945 321.719 416.01 322.208 415.977 322.697 415.912 323.186 415.749 323.643 415.521 324.034 415.227 324.393 414.869 324.719 414.478 324.947 414.054 325.143 413.565 325.24 413.076 325.273 412.587" style="fill:none;stroke:#000;stroke-linecap:square;stroke-miterlimit:10;stroke-width:2px"/><line x1="321.23" y1="415.977" x2="181.248" y2="389.931" style="fill:none;stroke:#000;stroke-linecap:square;stroke-miterlimit:10;stroke-width:2px"/><polyline points="178.444 386.54 178.477 387.029 178.574 387.486 178.738 387.91 178.966 388.333 179.227 388.725 179.553 389.083 179.944 389.376 180.335 389.605 180.792 389.8 181.248 389.898" style="fill:none;stroke:#000;stroke-linecap:square;stroke-miterlimit:10;stroke-width:2px"/><line x1="178.411" y1="386.54" x2="178.411" y2="381.259" style="fill:none;stroke:#000;stroke-linecap:square;stroke-miterlimit:10;stroke-width:2px"/><polyline points="182.487 377.902 181.998 377.837 181.509 377.869 181.02 377.934 180.531 378.097 180.074 378.326 179.683 378.619 179.324 378.977 178.998 379.369 178.77 379.792 178.574 380.281 178.477 380.77 178.444 381.259" style="fill:none;stroke:#000;stroke-linecap:square;stroke-miterlimit:10;stroke-width:2px"/><line x1="182.487" y1="377.869" x2="309.133" y2="401.438" style="fill:none;stroke:#000;stroke-linecap:square;stroke-miterlimit:10;stroke-width:2px"/><polyline points="309.133 401.373 309.622 401.438 310.111 401.405 310.6 401.34 311.089 401.177 311.546 400.949 311.937 400.656 312.296 400.297 312.622 399.906 312.85 399.482 313.045 398.993 313.143 398.504 313.176 398.015" style="fill:none;stroke:#000;stroke-linecap:square;stroke-miterlimit:10;stroke-width:2px"/><line x1="313.208" y1="398.015" x2="313.208" y2="335.98" style="fill:none;stroke:#000;stroke-linecap:square;stroke-miterlimit:10;stroke-width:2px"/><polyline points="313.176 335.98 313.143 335.654 313.045 335.328 312.882 335.034 312.654 334.773 312.393 334.545 312.1 334.415 311.774 334.317 311.448 334.284 311.089 334.317 310.763 334.447" style="fill:none;stroke:#000;stroke-linecap:square;stroke-miterlimit:10;stroke-width:2px"/><polyline points="287.677 329.199 288.427 330.079 289.275 330.862 290.123 331.644 291.036 332.361 291.981 333.013 292.992 333.6 294.003 334.154 295.046 334.61 296.122 335.034 297.231 335.393 298.34 335.654 299.481 335.882 300.622 336.045 301.796 336.11 302.937 336.143 304.079 336.077 305.252 335.98 306.394 335.784 307.502 335.523 308.611 335.197 309.72 334.839 310.763 334.382" style="fill:none;stroke:#000;stroke-linecap:square;stroke-miterlimit:10;stroke-width:2px"/><polyline points="287.645 329.232 287.449 329.069 287.253 328.906 287.058 328.808 286.83 328.71 286.569 328.677 286.34 328.645" style="fill:none;stroke:#000;stroke-linecap:square;stroke-miterlimit:10;stroke-width:2px"/><line x1="286.34" y1="328.612" x2="230.322" y2="328.612" style="fill:none;stroke:#000;stroke-linecap:square;stroke-miterlimit:10;stroke-width:2px"/><polyline points="226.898 325.157 226.931 325.613 227.028 326.037 227.159 326.461 227.354 326.852 227.615 327.243 227.909 327.569 228.235 327.862 228.626 328.123 229.017 328.319 229.441 328.449 229.865 328.547 230.322 328.58" style="fill:none;stroke:#000;stroke-linecap:square;stroke-miterlimit:10;stroke-width:2px"/><line x1="226.898" y1="325.157" x2="226.898" y2="232.022" style="fill:none;stroke:#000;stroke-linecap:square;stroke-miterlimit:10;stroke-width:2px"/><polyline points="226.865 232.022 226.833 231.696 226.735 231.37 226.572 231.076 226.376 230.816 226.115 230.62 225.822 230.457 225.496 230.359 225.17 230.327" style="fill:none;stroke:#000;stroke-linecap:square;stroke-miterlimit:10;stroke-width:2px"/><line x1="225.17" y1="230.294" x2="214.67" y2="230.294" style="fill:none;stroke:#000;stroke-linecap:square;stroke-miterlimit:10;stroke-width:2px"/><polyline points="214.67 230.327 214.344 230.359 214.018 230.457 213.725 230.62 213.464 230.816 213.268 231.076 213.105 231.37 213.007 231.696 212.975 232.022" style="fill:none;stroke:#000;stroke-linecap:square;stroke-miterlimit:10;stroke-width:2px"/><line x1="212.942" y1="232.022" x2="212.942" y2="270.423" style="fill:none;stroke:#000;stroke-linecap:square;stroke-miterlimit:10;stroke-width:2px"/><polyline points="209.551 273.781 209.975 273.748 210.431 273.65 210.823 273.52 211.247 273.324 211.605 273.096 211.931 272.803 212.225 272.477 212.453 272.086 212.649 271.695 212.779 271.303 212.877 270.847 212.91 270.423" style="fill:none;stroke:#000;stroke-linecap:square;stroke-miterlimit:10;stroke-width:2px"/><line x1="209.551" y1="273.814" x2="203.128" y2="273.814" style="fill:none;stroke:#000;stroke-linecap:square;stroke-miterlimit:10;stroke-width:2px"/><polyline points="200.552 271.206 200.584 271.597 200.682 271.988 200.845 272.379 201.041 272.705 201.302 273.031 201.628 273.292 201.954 273.487 202.345 273.65 202.736 273.748 203.128 273.781" style="fill:none;stroke:#000;stroke-linecap:square;stroke-miterlimit:10;stroke-width:2px"/><line x1="200.552" y1="271.206" x2="200.552" y2="221.395" style="fill:none;stroke:#000;stroke-linecap:square;stroke-miterlimit:10;stroke-width:2px"/><polyline points="202.28 219.699 201.954 219.732 201.628 219.83 201.334 219.993 201.073 220.188 200.878 220.449 200.715 220.743 200.617 221.069 200.584 221.395" style="fill:none;stroke:#000;stroke-linecap:square;stroke-miterlimit:10;stroke-width:2px"/><line x1="202.28" y1="219.667" x2="225.202" y2="219.667" style="fill:none;stroke:#000;stroke-linecap:square;stroke-miterlimit:10;stroke-width:2px"/><polyline points="225.202 219.634 225.528 219.602 225.855 219.504 226.148 219.341 226.409 219.145 226.605 218.884 226.768 218.591 226.865 218.265 226.898 217.939" style="fill:none;stroke:#000;stroke-linecap:square;stroke-miterlimit:10;stroke-width:2px"/><line x1="226.931" y1="217.939" x2="226.931" y2="202.552" style="fill:none;stroke:#000;stroke-linecap:square;stroke-miterlimit:10;stroke-width:2px"/><polyline points="230.387 199.129 229.93 199.162 229.507 199.26 229.083 199.39 228.691 199.586 228.3 199.847 227.974 200.14 227.681 200.466 227.42 200.825 227.224 201.248 227.094 201.672 226.996 202.096 226.963 202.552" style="fill:none;stroke:#000;stroke-linecap:square;stroke-miterlimit:10;stroke-width:2px"/><line x1="230.387" y1="199.097" x2="286.34" y2="199.097" style="fill:none;stroke:#000;stroke-linecap:square;stroke-miterlimit:10;stroke-width:2px"/><polyline points="286.34 199.064 286.569 199.032 286.83 198.999 287.058 198.901 287.253 198.803 287.449 198.64 287.645 198.477" style="fill:none;stroke:#000;stroke-linecap:square;stroke-miterlimit:10;stroke-width:2px"/><polyline points="310.763 193.327 309.72 192.87 308.611 192.512 307.502 192.186 306.394 191.925 305.252 191.73 304.079 191.632 302.937 191.566 301.796 191.599 300.622 191.664 299.481 191.827 298.34 192.056 297.231 192.316 296.122 192.675 295.046 193.099 294.003 193.555 292.992 194.109 291.981 194.696 291.036 195.348 290.123 196.065 289.275 196.848 288.427 197.63 287.677 198.51" style="fill:none;stroke:#000;stroke-linecap:square;stroke-miterlimit:10;stroke-width:2px"/><polyline points="310.763 193.294 311.089 193.425 311.448 193.457 311.774 193.425 312.1 193.327 312.393 193.196 312.654 192.968 312.882 192.707 313.045 192.414 313.143 192.088 313.176 191.762" style="fill:none;stroke:#000;stroke-linecap:square;stroke-miterlimit:10;stroke-width:2px"/><line x1="313.208" y1="191.762" x2="313.208" y2="125.326" style="fill:none;stroke:#000;stroke-linecap:square;stroke-miterlimit:10;stroke-width:2px"/><polyline points="313.176 125.326 313.143 124.869 313.045 124.38 312.882 123.956 312.654 123.533 312.393 123.141 312.067 122.815 311.709 122.522 311.285 122.261 310.861 122.098 310.404 121.968" style="fill:none;stroke:#000;stroke-linecap:square;stroke-miterlimit:10;stroke-width:2px"/><polyline points="310.437 121.935 210.366 102.637 189.074 99.442" style="fill:none;stroke:#000;stroke-linecap:square;stroke-miterlimit:10;stroke-width:2px"/><polyline points="189.074 99.475 188.78 99.442 188.487 99.475 188.194 99.54 187.933 99.67 187.704 99.866 187.509 100.061 187.346 100.29 187.215 100.55 187.15 100.844 187.118 101.137" style="fill:none;stroke:#000;stroke-linecap:square;stroke-miterlimit:10;stroke-width:2px"/><line x1="187.118" y1="101.137" x2="187.118" y2="136.54" style="fill:none;stroke:#000;stroke-linecap:square;stroke-miterlimit:10;stroke-width:2px"/><polyline points="185.389 138.235 185.715 138.202 186.041 138.104 186.335 137.941 186.596 137.746 186.791 137.485 186.954 137.192 187.052 136.866 187.085 136.54" style="fill:none;stroke:#000;stroke-linecap:square;stroke-miterlimit:10;stroke-width:2px"/><line x1="185.389" y1="138.267" x2="177.303" y2="138.267" style="fill:none;stroke:#000;stroke-linecap:square;stroke-miterlimit:10;stroke-width:2px"/><polyline points="174.727 135.659 174.759 136.051 174.857 136.442 175.02 136.833 175.216 137.159 175.477 137.485 175.803 137.746 176.129 137.941 176.52 138.104 176.912 138.202 177.303 138.235" style="fill:none;stroke:#000;stroke-linecap:square;stroke-miterlimit:10;stroke-width:2px"/><line x1="174.694" y1="135.659" x2="174.694" y2="86.566" style="fill:none;stroke:#000;stroke-linecap:square;stroke-miterlimit:10;stroke-width:2px"/><polyline points="178.151 84.121 177.759 84.023 177.335 83.99 176.944 84.023 176.553 84.121 176.162 84.251 175.803 84.479 175.509 84.74 175.216 85.033 175.02 85.392 174.857 85.751 174.759 86.174 174.727 86.566" style="fill:none;stroke:#000;stroke-linecap:square;stroke-miterlimit:10;stroke-width:2px"/><line x1="178.151" y1="84.121" x2="322.502" y2="111.96" style="fill:none;stroke:#000;stroke-linecap:square;stroke-miterlimit:10;stroke-width:2px"/></svg>