<svg id="Capa_1" data-name="Capa 1" xmlns="http://www.w3.org/2000/svg" viewBox="0 0 500 500"><rect width="500" height="500" style="fill:none"/><polyline points="154.967 353.029 154.38 354.007 153.858 355.017 153.402 356.06 153.011 357.136 152.652 358.212 152.391 359.32 152.163 360.429 152.033 361.537 151.935 362.678 151.935 363.819 152 364.96 152.098 366.068 152.293 367.177 152.554 368.285 152.848 369.393 153.239 370.469 153.663 371.512 154.185 372.523 154.739 373.501 155.358 374.446 156.011 375.392 156.728 376.239 157.51 377.087 158.326 377.869" style="fill:none;stroke:#000;stroke-linecap:square;stroke-miterlimit:10;stroke-width:2px"/><polyline points="154.934 353.029 155.163 352.605 155.326 352.181 155.424 351.692 155.456 351.236 155.424 350.779 155.326 350.323" style="fill:none;stroke:#000;stroke-linecap:square;stroke-miterlimit:10;stroke-width:2px"/><line x1="155.358" y1="350.29" x2="140.946" y2="297.578" style="fill:none;stroke:#000;stroke-linecap:square;stroke-miterlimit:10;stroke-width:2px"/><polyline points="143.359 293.405 142.935 293.536 142.544 293.731 142.153 293.992 141.827 294.286 141.533 294.612 141.305 294.97 141.109 295.394 140.946 295.818 140.881 296.242 140.848 296.698 140.881 297.122 140.979 297.545" style="fill:none;stroke:#000;stroke-linecap:square;stroke-miterlimit:10;stroke-width:2px"/><line x1="143.359" y1="293.373" x2="260.353" y2="261.393" style="fill:none;stroke:#000;stroke-linecap:square;stroke-miterlimit:10;stroke-width:2px"/><polyline points="264.526 263.806 264.396 263.382 264.2 262.991 263.939 262.599 263.646 262.273 263.32 261.98 262.961 261.752 262.537 261.556 262.113 261.393 261.69 261.328 261.233 261.296 260.809 261.328 260.385 261.426" style="fill:none;stroke:#000;stroke-linecap:square;stroke-miterlimit:10;stroke-width:2px"/><line x1="264.559" y1="263.773" x2="278.971" y2="316.485" style="fill:none;stroke:#000;stroke-linecap:square;stroke-miterlimit:10;stroke-width:2px"/><polyline points="279.004 316.485 279.134 316.942 279.363 317.366 279.623 317.757 279.949 318.083 280.308 318.376 280.732 318.637" style="fill:none;stroke:#000;stroke-linecap:square;stroke-miterlimit:10;stroke-width:2px"/><polyline points="291.297 336.86 291.329 335.751 291.297 334.643 291.166 333.535 291.003 332.426 290.775 331.318 290.482 330.242 290.123 329.199 289.699 328.156 289.242 327.178 288.688 326.2 288.101 325.222 287.482 324.342 286.764 323.462 286.047 322.614 285.264 321.832 284.417 321.082 283.536 320.397 282.656 319.745 281.71 319.159 280.732 318.637" style="fill:none;stroke:#000;stroke-linecap:square;stroke-miterlimit:10;stroke-width:2px"/><polyline points="291.329 336.86 291.329 337.316 291.427 337.772 291.558 338.196 291.721 338.62 291.981 339.011 292.275 339.37 292.601 339.663 292.96 339.924 293.384 340.152 293.807 340.283 294.264 340.38 294.72 340.413 295.177 340.38 295.601 340.283" style="fill:none;stroke:#000;stroke-linecap:square;stroke-miterlimit:10;stroke-width:2px"/><line x1="295.633" y1="340.315" x2="421.561" y2="305.891" style="fill:none;stroke:#000;stroke-linecap:square;stroke-miterlimit:10;stroke-width:2px"/><polyline points="421.561 305.858 423.192 305.369 424.822 304.815 426.387 304.196 427.952 303.511 429.485 302.729 430.985 301.914 432.42 301.034 433.854 300.056 435.224 299.045 436.561 297.969 437.832 296.861 439.071 295.655 440.245 294.449 441.354 293.145 442.43 291.808 443.441 290.439 444.386 289.005 445.267 287.538 446.082 286.038 446.832 284.506 447.517 282.941 448.136 281.376 448.69 279.746 449.147 278.117 449.571 276.454 449.897 274.759 450.158 273.096 450.321 271.401 450.451 269.673 450.484 267.978" style="fill:none;stroke:#000;stroke-linecap:square;stroke-miterlimit:10;stroke-width:2px"/><line x1="450.484" y1="267.978" x2="450.484" y2="242.225" style="fill:none;stroke:#000;stroke-linecap:square;stroke-miterlimit:10;stroke-width:2px"/><polyline points="450.484 242.225 450.451 240.53 450.321 238.802 450.158 237.107 449.897 235.445 449.571 233.749 449.147 232.087 448.69 230.457 448.136 228.827 447.517 227.262 446.832 225.698 446.082 224.165 445.267 222.666 444.386 221.199 443.441 219.765 442.43 218.395 441.354 217.059 440.245 215.755 439.071 214.549 437.832 213.343 436.561 212.234 435.224 211.158 433.854 210.148 432.42 209.17 430.985 208.29 429.485 207.475 427.952 206.692 426.387 206.008 424.822 205.388 423.192 204.834 421.561 204.345" style="fill:none;stroke:#000;stroke-linecap:square;stroke-miterlimit:10;stroke-width:2px"/><line x1="421.561" y1="204.313" x2="91.612" y2="114.079" style="fill:none;stroke:#000;stroke-linecap:square;stroke-miterlimit:10;stroke-width:2px"/><polyline points="91.612 114.079 90.634 113.818 89.655 113.623 88.677 113.427 87.699 113.264" style="fill:none;stroke:#000;stroke-linecap:square;stroke-miterlimit:10;stroke-width:2px"/><line x1="87.699" y1="113.231" x2="51.799" y2="107.82" style="fill:none;stroke:#000;stroke-linecap:square;stroke-miterlimit:10;stroke-width:2px"/><polyline points="51.799 107.853 51.505 107.82 51.212 107.853 50.918 107.918 50.658 108.048 50.429 108.244 50.234 108.439 50.071 108.668 49.94 108.928 49.875 109.222 49.842 109.515" style="fill:none;stroke:#000;stroke-linecap:square;stroke-miterlimit:10;stroke-width:2px"/><line x1="49.842" y1="109.515" x2="49.842" y2="144.559" style="fill:none;stroke:#000;stroke-linecap:square;stroke-miterlimit:10;stroke-width:2px"/><polyline points="48.114 146.254 48.44 146.221 48.766 146.124 49.06 145.961 49.321 145.765 49.516 145.504 49.679 145.211 49.777 144.885 49.81 144.559" style="fill:none;stroke:#000;stroke-linecap:square;stroke-miterlimit:10;stroke-width:2px"/><line x1="48.114" y1="146.254" x2="40.126" y2="146.254" style="fill:none;stroke:#000;stroke-linecap:square;stroke-miterlimit:10;stroke-width:2px"/><polyline points="37.582 143.679 37.615 144.07 37.713 144.461 37.876 144.82 38.071 145.178 38.332 145.472 38.626 145.732 38.984 145.928 39.343 146.091 39.734 146.189 40.126 146.221" style="fill:none;stroke:#000;stroke-linecap:square;stroke-miterlimit:10;stroke-width:2px"/><line x1="37.55" y1="143.679" x2="37.55" y2="97.551" style="fill:none;stroke:#000;stroke-linecap:square;stroke-miterlimit:10;stroke-width:2px"/><polyline points="41.495 94.194 41.006 94.161 40.517 94.194 40.028 94.291 39.571 94.454 39.147 94.683 38.756 94.976 38.43 95.335 38.136 95.726 37.876 96.15 37.713 96.606 37.615 97.062 37.582 97.551" style="fill:none;stroke:#000;stroke-linecap:square;stroke-miterlimit:10;stroke-width:2px"/><line x1="41.495" y1="94.161" x2="91.938" y2="101.789" style="fill:none;stroke:#000;stroke-linecap:square;stroke-miterlimit:10;stroke-width:2px"/><polyline points="92.329 101.92 92.166 101.854 91.971 101.822" style="fill:none;stroke:#000;stroke-linecap:square;stroke-miterlimit:10;stroke-width:2px"/><line x1="92.329" y1="101.854" x2="424.692" y2="192.773" style="fill:none;stroke:#000;stroke-linecap:square;stroke-miterlimit:10;stroke-width:2px"/><polyline points="462.418 242.225 462.385 240.269 462.255 238.313 462.092 236.357 461.831 234.401 461.472 232.445 461.081 230.522 460.592 228.631 460.038 226.741 459.385 224.883 458.701 223.057 457.918 221.231 457.103 219.471 456.19 217.711 455.212 216.016 454.168 214.353 453.06 212.723 451.918 211.126 450.679 209.594 449.408 208.094 448.071 206.66 446.669 205.258 445.234 203.954 443.734 202.65 442.202 201.444 440.636 200.27 439.006 199.195 437.311 198.151 435.615 197.174 433.887 196.261 432.093 195.446 430.3 194.663 428.441 193.979 426.583 193.359 424.692 192.805" style="fill:none;stroke:#000;stroke-linecap:square;stroke-miterlimit:10;stroke-width:2px"/><line x1="462.45" y1="242.225" x2="462.45" y2="267.978" style="fill:none;stroke:#000;stroke-linecap:square;stroke-miterlimit:10;stroke-width:2px"/><polyline points="424.692 317.398 426.583 316.844 428.441 316.225 430.3 315.54 432.093 314.758 433.887 313.943 435.615 313.03 437.311 312.052 439.006 311.009 440.636 309.933 442.202 308.759 443.734 307.553 445.234 306.249 446.669 304.945 448.071 303.544 449.408 302.109 450.679 300.61 451.918 299.078 453.06 297.48 454.168 295.85 455.212 294.188 456.19 292.493 457.103 290.732 457.918 288.972 458.701 287.146 459.385 285.321 460.038 283.463 460.592 281.572 461.081 279.681 461.472 277.758 461.831 275.802 462.092 273.846 462.255 271.89 462.385 269.934 462.418 267.978" style="fill:none;stroke:#000;stroke-linecap:square;stroke-miterlimit:10;stroke-width:2px"/><line x1="424.692" y1="317.431" x2="291.525" y2="353.844" style="fill:none;stroke:#000;stroke-linecap:square;stroke-miterlimit:10;stroke-width:2px"/><polyline points="288.949 353.485 289.373 353.681 289.797 353.844 290.221 353.909 290.677 353.942 291.101 353.909 291.525 353.811" style="fill:none;stroke:#000;stroke-linecap:square;stroke-miterlimit:10;stroke-width:2px"/><line x1="288.949" y1="353.518" x2="275.156" y2="345.661" style="fill:none;stroke:#000;stroke-linecap:square;stroke-miterlimit:10;stroke-width:2px"/><polyline points="275.254 342.662 274.993 342.793 274.765 343.021 274.569 343.249 274.439 343.51 274.341 343.803 274.309 344.129 274.341 344.423 274.406 344.716 274.537 345.009 274.7 345.238 274.928 345.466 275.156 345.629" style="fill:none;stroke:#000;stroke-linecap:square;stroke-miterlimit:10;stroke-width:2px"/><polyline points="275.254 342.63 275.906 342.239 276.526 341.815 277.08 341.293 277.602 340.739 278.058 340.152 278.45 339.5 278.776 338.816 279.036 338.098 279.232 337.381 279.33 336.632 279.363 335.882 279.33 335.099 279.2 334.382 279.004 333.632 278.71 332.915 278.384 332.263 277.993 331.611 277.504 331.025 276.982 330.47 276.395 329.981 275.776 329.558 275.091 329.199 274.406 328.906 273.689 328.71 272.939 328.547 272.189 328.482 271.439 328.482 270.689 328.58" style="fill:none;stroke:#000;stroke-linecap:square;stroke-miterlimit:10;stroke-width:2px"/><polyline points="269.711 327.96 269.776 328.156 269.907 328.319 270.07 328.449 270.265 328.547 270.461 328.58 270.657 328.58" style="fill:none;stroke:#000;stroke-linecap:square;stroke-miterlimit:10;stroke-width:2px"/><line x1="269.711" y1="327.96" x2="255.723" y2="276.813" style="fill:none;stroke:#000;stroke-linecap:square;stroke-miterlimit:10;stroke-width:2px"/><polyline points="255.723 276.813 255.625 276.519 255.429 276.226 255.201 275.998 254.94 275.802 254.614 275.672 254.32 275.574 253.962 275.574 253.636 275.639" style="fill:none;stroke:#000;stroke-linecap:square;stroke-miterlimit:10;stroke-width:2px"/><line x1="253.636" y1="275.639" x2="156.402" y2="302.207" style="fill:none;stroke:#000;stroke-linecap:square;stroke-miterlimit:10;stroke-width:2px"/><polyline points="156.402 302.24 156.108 302.338 155.815 302.533 155.587 302.761 155.391 303.022 155.261 303.348 155.163 303.641 155.163 304 155.228 304.326" style="fill:none;stroke:#000;stroke-linecap:square;stroke-miterlimit:10;stroke-width:2px"/><line x1="155.195" y1="304.326" x2="169.184" y2="355.474" style="fill:none;stroke:#000;stroke-linecap:square;stroke-miterlimit:10;stroke-width:2px"/><polyline points="168.629 356.484 168.825 356.386 168.988 356.256 169.086 356.093 169.151 355.897 169.184 355.669 169.151 355.474" style="fill:none;stroke:#000;stroke-linecap:square;stroke-miterlimit:10;stroke-width:2px"/><polyline points="168.662 356.484 167.977 356.81 167.325 357.201 166.706 357.625 166.151 358.114 165.63 358.701 165.173 359.288 164.782 359.94 164.456 360.624 164.195 361.341 164.032 362.059 163.934 362.841 163.901 363.591 163.967 364.341 164.064 365.09 164.293 365.808 164.554 366.525 164.912 367.177 165.303 367.829 165.793 368.415 166.314 368.97 166.901 369.426 167.521 369.85 168.206 370.208 168.89 370.502 169.64 370.73 170.358 370.86 171.108 370.926 171.89 370.893" style="fill:none;stroke:#000;stroke-linecap:square;stroke-miterlimit:10;stroke-width:2px"/><polyline points="173.455 373.468 173.586 373.175 173.651 372.881 173.684 372.588 173.651 372.295 173.553 372.001 173.423 371.708 173.227 371.48 172.999 371.284 172.77 371.121 172.477 370.991 172.184 370.926 171.858 370.926" style="fill:none;stroke:#000;stroke-linecap:square;stroke-miterlimit:10;stroke-width:2px"/><line x1="173.488" y1="373.468" x2="165.63" y2="387.258" style="fill:none;stroke:#000;stroke-linecap:square;stroke-miterlimit:10;stroke-width:2px"/><polyline points="163.543 388.822 163.967 388.692 164.358 388.496 164.749 388.236 165.075 387.942 165.369 387.616 165.597 387.258" style="fill:none;stroke:#000;stroke-linecap:square;stroke-miterlimit:10;stroke-width:2px"/><line x1="163.543" y1="388.855" x2="101.785" y2="405.741" style="fill:none;stroke:#000;stroke-linecap:square;stroke-miterlimit:10;stroke-width:2px"/><polyline points="100.285 405.774 100.677 405.839 101.035 405.839 101.427 405.806 101.785 405.709" style="fill:none;stroke:#000;stroke-linecap:square;stroke-miterlimit:10;stroke-width:2px"/><line x1="100.253" y1="405.806" x2="42.962" y2="395.146" style="fill:none;stroke:#000;stroke-linecap:square;stroke-miterlimit:10;stroke-width:2px"/><polyline points="41.267 392.734 41.299 393.125 41.397 393.517 41.528 393.875 41.723 394.201 41.984 394.495 42.278 394.755 42.604 394.984 42.962 395.146" style="fill:none;stroke:#000;stroke-linecap:square;stroke-miterlimit:10;stroke-width:2px"/><line x1="41.234" y1="392.734" x2="41.234" y2="386.834" style="fill:none;stroke:#000;stroke-linecap:square;stroke-miterlimit:10;stroke-width:2px"/><polyline points="44.625 384.421 44.169 384.389 43.712 384.421 43.256 384.519 42.832 384.682 42.441 384.943 42.082 385.236 41.788 385.562 41.528 385.954 41.365 386.377 41.234 386.834" style="fill:none;stroke:#000;stroke-linecap:square;stroke-miterlimit:10;stroke-width:2px"/><line x1="44.625" y1="384.421" x2="85.319" y2="390.68" style="fill:none;stroke:#000;stroke-linecap:square;stroke-miterlimit:10;stroke-width:2px"/><polyline points="85.351 390.648 85.808 390.68 86.297 390.648 86.753 390.55 87.21 390.387 87.634 390.159 87.992 389.865 88.351 389.54 88.645 389.148 88.873 388.757 89.036 388.301 89.134 387.844 89.166 387.355" style="fill:none;stroke:#000;stroke-linecap:square;stroke-miterlimit:10;stroke-width:2px"/><line x1="89.199" y1="387.355" x2="89.232" y2="239.03" style="fill:none;stroke:#000;stroke-linecap:square;stroke-miterlimit:10;stroke-width:2px"/><polyline points="89.232 239.03 89.199 238.705 89.101 238.411 88.938 238.118 88.71 237.857 88.482 237.661 88.188 237.498 87.862 237.401 87.536 237.368" style="fill:none;stroke:#000;stroke-linecap:square;stroke-miterlimit:10;stroke-width:2px"/><line x1="87.536" y1="237.368" x2="77.102" y2="237.368" style="fill:none;stroke:#000;stroke-linecap:square;stroke-miterlimit:10;stroke-width:2px"/><polyline points="77.102 237.368 76.776 237.401 76.45 237.498 76.156 237.661 75.895 237.857 75.7 238.118 75.537 238.411 75.439 238.737 75.406 239.063" style="fill:none;stroke:#000;stroke-linecap:square;stroke-miterlimit:10;stroke-width:2px"/><line x1="75.406" y1="239.063" x2="75.406" y2="277.041" style="fill:none;stroke:#000;stroke-linecap:square;stroke-miterlimit:10;stroke-width:2px"/><polyline points="72.048 280.366 72.472 280.333 72.895 280.268 73.319 280.105 73.711 279.909 74.069 279.681 74.395 279.388 74.689 279.062 74.917 278.703 75.113 278.312 75.276 277.888 75.341 277.465 75.374 277.041" style="fill:none;stroke:#000;stroke-linecap:square;stroke-miterlimit:10;stroke-width:2px"/><line x1="72.048" y1="280.398" x2="65.689" y2="280.398" style="fill:none;stroke:#000;stroke-linecap:square;stroke-miterlimit:10;stroke-width:2px"/><polyline points="63.146 277.823 63.179 278.214 63.276 278.606 63.439 278.964 63.635 279.323 63.896 279.616 64.189 279.877 64.548 280.072 64.907 280.235 65.298 280.333 65.689 280.366" style="fill:none;stroke:#000;stroke-linecap:square;stroke-miterlimit:10;stroke-width:2px"/><line x1="63.113" y1="277.823" x2="63.113" y2="228.534" style="fill:none;stroke:#000;stroke-linecap:square;stroke-miterlimit:10;stroke-width:2px"/><polyline points="64.842 226.838 64.515 226.871 64.189 226.969 63.896 227.132 63.635 227.327 63.439 227.588 63.276 227.882 63.179 228.208 63.146 228.534" style="fill:none;stroke:#000;stroke-linecap:square;stroke-miterlimit:10;stroke-width:2px"/><line x1="64.842" y1="226.806" x2="97.872" y2="226.806" style="fill:none;stroke:#000;stroke-linecap:square;stroke-miterlimit:10;stroke-width:2px"/><polyline points="101.198 230.164 101.166 229.74 101.1 229.316 100.937 228.892 100.742 228.501 100.514 228.142 100.22 227.816 99.894 227.523 99.535 227.295 99.144 227.099 98.72 226.936 98.296 226.871 97.872 226.838" style="fill:none;stroke:#000;stroke-linecap:square;stroke-miterlimit:10;stroke-width:2px"/><line x1="101.198" y1="230.164" x2="101.133" y2="389.116" style="fill:none;stroke:#000;stroke-linecap:square;stroke-miterlimit:10;stroke-width:2px"/><polyline points="101.166 389.116 101.198 389.54 101.264 389.963 101.427 390.387 101.622 390.778 101.85 391.137 102.144 391.463 102.47 391.756 102.829 391.984 103.22 392.18 103.644 392.343 104.068 392.408 104.492 392.441 104.948 392.408 105.372 392.31" style="fill:none;stroke:#000;stroke-linecap:square;stroke-miterlimit:10;stroke-width:2px"/><line x1="105.372" y1="392.343" x2="158.326" y2="377.869" style="fill:none;stroke:#000;stroke-linecap:square;stroke-miterlimit:10;stroke-width:2px"/></svg>