<svg id="Capa_1" data-name="Capa 1" xmlns="http://www.w3.org/2000/svg" viewBox="0 0 500 500"><rect width="500" height="500" style="fill:none"/><line x1="197.91" y1="383.329" x2="161.554" y2="393.272" style="fill:none;stroke:#000;stroke-linecap:square;stroke-miterlimit:10;stroke-width:2px"/><polyline points="157.347 390.045 157.38 390.469 157.445 390.892 157.608 391.316 157.804 391.707 158.032 392.066 158.326 392.392 158.652 392.685 159.01 392.913 159.402 393.109 159.826 393.272 160.249 393.337 160.673 393.37 161.13 393.337 161.554 393.239" style="fill:none;stroke:#000;stroke-linecap:square;stroke-miterlimit:10;stroke-width:2px"/><line x1="157.315" y1="390.045" x2="157.38" y2="230.962" style="fill:none;stroke:#000;stroke-linecap:square;stroke-miterlimit:10;stroke-width:2px"/><polyline points="157.347 230.962 157.315 230.538 157.25 230.115 157.087 229.691 156.891 229.3 156.663 228.941 156.369 228.615 156.043 228.322 155.684 228.094 155.293 227.898 154.869 227.735 154.445 227.67 154.021 227.637" style="fill:none;stroke:#000;stroke-linecap:square;stroke-miterlimit:10;stroke-width:2px"/><line x1="154.021" y1="227.605" x2="121.023" y2="227.605" style="fill:none;stroke:#000;stroke-linecap:square;stroke-miterlimit:10;stroke-width:2px"/><polyline points="121.023 227.637 120.697 227.67 120.371 227.768 120.078 227.931 119.817 228.126 119.621 228.387 119.458 228.68 119.36 229.006 119.328 229.332" style="fill:none;stroke:#000;stroke-linecap:square;stroke-miterlimit:10;stroke-width:2px"/><line x1="119.328" y1="229.332" x2="119.328" y2="278.622" style="fill:none;stroke:#000;stroke-linecap:square;stroke-miterlimit:10;stroke-width:2px"/><polyline points="119.328 278.622 119.36 279.013 119.458 279.404 119.621 279.763 119.817 280.121 120.078 280.415 120.371 280.676 120.73 280.871 121.088 281.034 121.48 281.132 121.871 281.165" style="fill:none;stroke:#000;stroke-linecap:square;stroke-miterlimit:10;stroke-width:2px"/><line x1="121.871" y1="281.197" x2="128.229" y2="281.197" style="fill:none;stroke:#000;stroke-linecap:square;stroke-miterlimit:10;stroke-width:2px"/><polyline points="128.229 281.165 128.653 281.132 129.077 281.067 129.501 280.904 129.892 280.708 130.251 280.48 130.577 280.187 130.871 279.861 131.099 279.502 131.294 279.111 131.458 278.687 131.523 278.263 131.555 277.839" style="fill:none;stroke:#000;stroke-linecap:square;stroke-miterlimit:10;stroke-width:2px"/><line x1="131.588" y1="277.839" x2="131.588" y2="239.862" style="fill:none;stroke:#000;stroke-linecap:square;stroke-miterlimit:10;stroke-width:2px"/><polyline points="133.283 238.167 132.957 238.199 132.631 238.297 132.338 238.46 132.077 238.656 131.881 238.916 131.718 239.21 131.621 239.536 131.588 239.862" style="fill:none;stroke:#000;stroke-linecap:square;stroke-miterlimit:10;stroke-width:2px"/><line x1="133.283" y1="238.134" x2="143.718" y2="238.134" style="fill:none;stroke:#000;stroke-linecap:square;stroke-miterlimit:10;stroke-width:2px"/><polyline points="145.413 239.829 145.381 239.503 145.283 239.21 145.12 238.916 144.892 238.656 144.663 238.46 144.37 238.297 144.044 238.199 143.718 238.167" style="fill:none;stroke:#000;stroke-linecap:square;stroke-miterlimit:10;stroke-width:2px"/><line x1="145.446" y1="239.829" x2="145.381" y2="388.154" style="fill:none;stroke:#000;stroke-linecap:square;stroke-miterlimit:10;stroke-width:2px"/><polyline points="141.533 391.447 141.99 391.479 142.479 391.447 142.935 391.349 143.392 391.186 143.816 390.958 144.174 390.664 144.533 390.338 144.826 389.947 145.055 389.556 145.218 389.099 145.315 388.643 145.348 388.154" style="fill:none;stroke:#000;stroke-linecap:square;stroke-miterlimit:10;stroke-width:2px"/><line x1="141.5" y1="391.479" x2="100.807" y2="385.22" style="fill:none;stroke:#000;stroke-linecap:square;stroke-miterlimit:10;stroke-width:2px"/><polyline points="100.807 385.22 100.35 385.188 99.894 385.22 99.437 385.318 99.014 385.481 98.622 385.742 98.264 386.035 97.97 386.361 97.709 386.752 97.546 387.176 97.416 387.632" style="fill:none;stroke:#000;stroke-linecap:square;stroke-miterlimit:10;stroke-width:2px"/><line x1="97.416" y1="387.632" x2="97.416" y2="393.5" style="fill:none;stroke:#000;stroke-linecap:square;stroke-miterlimit:10;stroke-width:2px"/><polyline points="97.448 393.5 97.481 393.891 97.579 394.283 97.709 394.641 97.905 394.967 98.166 395.261 98.459 395.521 98.785 395.75 99.144 395.913" style="fill:none;stroke:#000;stroke-linecap:square;stroke-miterlimit:10;stroke-width:2px"/><line x1="99.144" y1="395.945" x2="156.76" y2="406.638" style="fill:none;stroke:#000;stroke-linecap:square;stroke-miterlimit:10;stroke-width:2px"/><polyline points="156.76 406.605 157.152 406.67 157.51 406.67 157.902 406.638 158.26 406.54" style="fill:none;stroke:#000;stroke-linecap:square;stroke-miterlimit:10;stroke-width:2px"/><polyline points="158.26 406.572 209.649 392.522 218.225 377.527" style="fill:none;stroke:#000;stroke-linecap:square;stroke-miterlimit:10;stroke-width:2px"/><polyline points="218.192 377.527 218.322 377.233 218.388 376.94 218.42 376.647 218.388 376.353 218.29 376.06 218.159 375.766 217.964 375.538 217.735 375.343 217.507 375.18 217.214 375.049 216.92 374.984 216.594 374.984" style="fill:none;stroke:#000;stroke-linecap:square;stroke-miterlimit:10;stroke-width:2px"/><polyline points="213.399 360.543 212.714 360.869 212.062 361.26 211.442 361.684 210.888 362.173 210.366 362.76 209.91 363.346 209.518 363.998 209.192 364.683 208.932 365.4 208.769 366.117 208.671 366.9 208.638 367.649 208.703 368.399 208.801 369.149 209.029 369.866 209.29 370.583 209.649 371.235 210.04 371.887 210.529 372.474 211.051 373.028 211.638 373.485 212.257 373.908 212.942 374.267 213.627 374.56 214.377 374.788 215.094 374.919 215.844 374.984 216.627 374.951" style="fill:none;stroke:#000;stroke-linecap:square;stroke-miterlimit:10;stroke-width:2px"/><polyline points="213.399 360.543 213.594 360.445 213.757 360.315 213.855 360.152 213.92 359.956 213.953 359.728 213.92 359.532" style="fill:none;stroke:#000;stroke-linecap:square;stroke-miterlimit:10;stroke-width:2px"/><line x1="213.92" y1="359.532" x2="199.932" y2="308.385" style="fill:none;stroke:#000;stroke-linecap:square;stroke-miterlimit:10;stroke-width:2px"/><polyline points="201.139 306.298 200.845 306.396 200.552 306.592 200.323 306.82 200.128 307.081 199.997 307.407 199.899 307.7 199.899 308.059 199.965 308.385" style="fill:none;stroke:#000;stroke-linecap:square;stroke-miterlimit:10;stroke-width:2px"/><line x1="201.139" y1="306.266" x2="298.372" y2="279.698" style="fill:none;stroke:#000;stroke-linecap:square;stroke-miterlimit:10;stroke-width:2px"/><polyline points="300.459 280.871 300.361 280.578 300.166 280.284 299.938 280.056 299.677 279.861 299.351 279.73 299.057 279.632 298.698 279.632 298.372 279.698" style="fill:none;stroke:#000;stroke-linecap:square;stroke-miterlimit:10;stroke-width:2px"/><line x1="300.492" y1="280.871" x2="314.448" y2="332.019" style="fill:none;stroke:#000;stroke-linecap:square;stroke-miterlimit:10;stroke-width:2px"/><polyline points="314.48 332.019 314.545 332.214 314.676 332.377 314.839 332.508 315.035 332.606 315.23 332.638 315.426 332.638" style="fill:none;stroke:#000;stroke-linecap:square;stroke-miterlimit:10;stroke-width:2px"/><polyline points="319.991 346.688 320.643 346.297 321.262 345.873 321.817 345.352 322.338 344.798 322.795 344.211 323.186 343.559 323.512 342.874 323.773 342.157 323.969 341.44 324.067 340.69 324.099 339.94 324.067 339.158 323.936 338.441 323.741 337.691 323.447 336.974 323.121 336.322 322.73 335.67 322.241 335.083 321.719 334.529 321.132 334.04 320.512 333.616 319.828 333.258 319.143 332.964 318.426 332.769 317.676 332.606 316.926 332.54 316.176 332.54 315.426 332.638" style="fill:none;stroke:#000;stroke-linecap:square;stroke-miterlimit:10;stroke-width:2px"/><polyline points="320.023 346.721 319.763 346.851 319.534 347.079 319.339 347.308 319.208 347.568 319.11 347.862 319.078 348.188 319.11 348.481 319.176 348.775 319.306 349.068 319.469 349.296 319.697 349.524 319.926 349.687" style="fill:none;stroke:#000;stroke-linecap:square;stroke-miterlimit:10;stroke-width:2px"/><polyline points="319.926 349.72 334.925 358.261 379.857 345.971" style="fill:none;stroke:#000;stroke-linecap:square;stroke-miterlimit:10;stroke-width:2px"/><polyline points="379.857 345.971 381.357 345.515 382.824 345.026 384.259 344.439 385.694 343.82 387.096 343.135 388.433 342.353 389.77 341.538 391.074 340.69 392.313 339.745 393.519 338.767 394.693 337.756 395.802 336.648 396.878 335.539 397.921 334.366 398.9 333.127 399.813 331.888 400.66 330.584 401.476 329.248 402.225 327.879 402.91 326.477 403.53 325.043 404.084 323.608 404.606 322.141 405.03 320.642 405.388 319.11 405.682 317.577 405.943 316.045 406.106 314.481 406.204 312.948 406.236 311.384" style="fill:none;stroke:#000;stroke-linecap:square;stroke-miterlimit:10;stroke-width:2px"/><line x1="406.269" y1="311.384" x2="406.269" y2="200.547" style="fill:none;stroke:#000;stroke-linecap:square;stroke-miterlimit:10;stroke-width:2px"/><polyline points="406.236 200.547 406.204 198.983 406.106 197.451 405.943 195.886 405.682 194.354 405.388 192.822 405.03 191.289 404.606 189.79 404.084 188.323 403.53 186.889 402.91 185.454 402.225 184.052 401.476 182.683 400.66 181.347 399.813 180.043 398.9 178.804 397.921 177.565 396.878 176.392 395.802 175.283 394.693 174.175 393.519 173.164 392.313 172.186 391.074 171.241 389.77 170.394 388.433 169.579 387.096 168.796 385.694 168.112 384.259 167.492 382.824 166.905 381.357 166.416 379.857 165.96" style="fill:none;stroke:#000;stroke-linecap:square;stroke-miterlimit:10;stroke-width:2px"/><polyline points="379.857 165.927 157.315 105.065 97.155 93.46" style="fill:none;stroke:#000;stroke-linecap:square;stroke-miterlimit:10;stroke-width:2px"/><polyline points="97.155 93.46 96.764 93.362 96.34 93.33 95.949 93.362 95.557 93.428 95.166 93.591 94.84 93.786 94.514 94.047 94.253 94.373 94.057 94.699 93.894 95.09 93.796 95.481 93.764 95.872" style="fill:none;stroke:#000;stroke-linecap:square;stroke-miterlimit:10;stroke-width:2px"/><line x1="93.731" y1="95.872" x2="93.731" y2="144.477" style="fill:none;stroke:#000;stroke-linecap:square;stroke-miterlimit:10;stroke-width:2px"/><polyline points="93.764 144.477 93.796 144.869 93.894 145.26 94.057 145.618 94.253 145.977 94.514 146.27 94.807 146.531 95.166 146.727 95.525 146.89 95.916 146.988 96.307 147.02" style="fill:none;stroke:#000;stroke-linecap:square;stroke-miterlimit:10;stroke-width:2px"/><line x1="96.307" y1="147.053" x2="104.296" y2="147.053" style="fill:none;stroke:#000;stroke-linecap:square;stroke-miterlimit:10;stroke-width:2px"/><polyline points="104.296 147.053 104.622 147.02 104.948 146.922 105.242 146.759 105.502 146.564 105.698 146.303 105.861 146.01 105.959 145.684 105.991 145.358" style="fill:none;stroke:#000;stroke-linecap:square;stroke-miterlimit:10;stroke-width:2px"/><line x1="106.024" y1="145.358" x2="106.024" y2="110.314" style="fill:none;stroke:#000;stroke-linecap:square;stroke-miterlimit:10;stroke-width:2px"/><polyline points="107.981 108.651 107.687 108.619 107.394 108.651 107.1 108.716 106.839 108.847 106.611 109.042 106.415 109.238 106.252 109.466 106.122 109.727 106.057 110.02 106.024 110.314" style="fill:none;stroke:#000;stroke-linecap:square;stroke-miterlimit:10;stroke-width:2px"/><line x1="107.981" y1="108.619" x2="145.674" y2="114.291" style="fill:none;stroke:#000;stroke-linecap:square;stroke-miterlimit:10;stroke-width:2px"/><polyline points="146.033 114.421 145.837 114.356 145.641 114.323" style="fill:none;stroke:#000;stroke-linecap:square;stroke-miterlimit:10;stroke-width:2px"/><line x1="146.065" y1="114.389" x2="376.727" y2="177.467" style="fill:none;stroke:#000;stroke-linecap:square;stroke-miterlimit:10;stroke-width:2px"/><polyline points="394.302 200.547 394.269 199.243 394.172 197.972 393.976 196.668 393.748 195.397 393.422 194.126 393.03 192.887 392.606 191.681 392.085 190.474 391.498 189.333 390.846 188.193 390.161 187.117 389.411 186.041 388.596 185.03 387.715 184.085 386.802 183.172 385.824 182.292 384.813 181.477 383.77 180.727 382.661 180.043 381.52 179.391 380.346 178.837 379.172 178.315 377.933 177.859 376.694 177.5" style="fill:none;stroke:#000;stroke-linecap:square;stroke-miterlimit:10;stroke-width:2px"/><line x1="394.302" y1="200.547" x2="394.302" y2="311.384" style="fill:none;stroke:#000;stroke-linecap:square;stroke-miterlimit:10;stroke-width:2px"/><polyline points="376.694 334.431 377.933 334.073 379.172 333.616 380.346 333.095 381.52 332.54 382.661 331.888 383.77 331.204 384.813 330.454 385.824 329.639 386.802 328.759 387.715 327.846 388.596 326.901 389.411 325.89 390.161 324.814 390.846 323.739 391.498 322.598 392.085 321.457 392.606 320.251 393.03 319.044 393.422 317.806 393.748 316.534 393.976 315.263 394.172 313.959 394.269 312.688 394.302 311.384" style="fill:none;stroke:#000;stroke-linecap:square;stroke-miterlimit:10;stroke-width:2px"/><line x1="376.727" y1="334.431" x2="340.37" y2="344.374" style="fill:none;stroke:#000;stroke-linecap:square;stroke-miterlimit:10;stroke-width:2px"/><polyline points="336.066 340.918 336.066 341.375 336.164 341.831 336.294 342.255 336.457 342.679 336.718 343.07 337.012 343.428 337.338 343.722 337.696 343.983 338.12 344.211 338.544 344.341 339.001 344.439 339.457 344.472 339.914 344.439 340.338 344.341" style="fill:none;stroke:#000;stroke-linecap:square;stroke-miterlimit:10;stroke-width:2px"/><polyline points="336.033 340.918 336.066 339.81 336.033 338.702 335.903 337.593 335.74 336.485 335.512 335.376 335.218 334.301 334.86 333.258 334.436 332.214 333.979 331.236 333.425 330.258 332.838 329.28 332.218 328.4 331.501 327.52 330.784 326.673 330.001 325.89 329.153 325.14 328.273 324.456 327.393 323.804 326.447 323.217 325.469 322.695" style="fill:none;stroke:#000;stroke-linecap:square;stroke-miterlimit:10;stroke-width:2px"/><polyline points="323.741 320.544 323.871 321 324.099 321.424 324.36 321.815 324.686 322.141 325.045 322.435 325.469 322.695" style="fill:none;stroke:#000;stroke-linecap:square;stroke-miterlimit:10;stroke-width:2px"/><line x1="323.708" y1="320.544" x2="309.296" y2="267.832" style="fill:none;stroke:#000;stroke-linecap:square;stroke-miterlimit:10;stroke-width:2px"/><polyline points="309.263 267.864 309.133 267.44 308.937 267.049 308.676 266.658 308.383 266.332 308.057 266.039 307.698 265.81 307.274 265.615 306.85 265.452 306.426 265.387 305.97 265.354 305.546 265.387 305.122 265.484" style="fill:none;stroke:#000;stroke-linecap:square;stroke-miterlimit:10;stroke-width:2px"/><line x1="305.122" y1="265.452" x2="188.096" y2="297.431" style="fill:none;stroke:#000;stroke-linecap:square;stroke-miterlimit:10;stroke-width:2px"/><polyline points="188.128 297.464 187.704 297.594 187.313 297.79 186.922 298.051 186.596 298.344 186.302 298.67 186.074 299.029 185.878 299.452 185.715 299.876 185.65 300.3 185.618 300.756 185.65 301.18 185.748 301.604" style="fill:none;stroke:#000;stroke-linecap:square;stroke-miterlimit:10;stroke-width:2px"/><line x1="185.715" y1="301.637" x2="200.128" y2="354.349" style="fill:none;stroke:#000;stroke-linecap:square;stroke-miterlimit:10;stroke-width:2px"/><polyline points="199.704 357.087 199.932 356.664 200.095 356.24 200.193 355.751 200.226 355.294 200.193 354.838 200.095 354.382" style="fill:none;stroke:#000;stroke-linecap:square;stroke-miterlimit:10;stroke-width:2px"/><polyline points="199.704 357.087 199.117 358.065 198.628 359.043 198.171 360.054 197.747 361.097 197.421 362.173 197.16 363.249 196.932 364.324 196.769 365.433 196.704 366.541 196.671 367.649 196.704 368.758 196.802 369.866 196.997 370.974 197.226 372.083 197.519 373.159 197.845 374.202 198.269 375.245 198.726 376.255 199.28 377.233 199.867 378.179" style="fill:none;stroke:#000;stroke-linecap:square;stroke-miterlimit:10;stroke-width:2px"/><polyline points="197.878 383.297 198.334 383.166 198.726 382.938 199.117 382.677 199.443 382.384 199.736 382.025 199.965 381.667 200.16 381.243 200.291 380.787 200.389 380.363 200.389 379.907 200.323 379.45 200.226 378.994 200.062 378.57 199.834 378.179" style="fill:none;stroke:#000;stroke-linecap:square;stroke-miterlimit:10;stroke-width:2px"/></svg>