<svg id="Capa_1" data-name="Capa 1" xmlns="http://www.w3.org/2000/svg" viewBox="0 0 500 500"><rect width="500" height="500" style="fill:none"/><polyline points="143.424 369.084 142.609 369.866 141.859 370.681 141.142 371.529 140.49 372.441 139.903 373.354 139.348 374.332 138.859 375.343 138.403 376.353 138.044 377.396 137.718 378.472 137.457 379.548 137.262 380.656 137.131 381.765 137.066 382.873 137.066 383.981 137.131 385.09 137.262 386.198 137.457 387.306 137.685 388.382 138.011 389.458" style="fill:none;stroke:#000;stroke-linecap:square;stroke-miterlimit:10;stroke-width:2px"/><polyline points="134.751 393.924 135.207 393.891 135.664 393.794 136.088 393.663 136.479 393.435 136.87 393.174 137.196 392.881 137.49 392.522 137.751 392.131 137.914 391.74 138.044 391.284 138.142 390.827 138.142 390.371 138.077 389.914 137.979 389.491" style="fill:none;stroke:#000;stroke-linecap:square;stroke-miterlimit:10;stroke-width:2px"/><line x1="134.751" y1="393.924" x2="104.622" y2="393.924" style="fill:none;stroke:#000;stroke-linecap:square;stroke-miterlimit:10;stroke-width:2px"/><polyline points="101.231 390.534 101.263 390.99 101.361 391.414 101.492 391.838 101.687 392.229 101.916 392.587 102.209 392.946 102.568 393.239 102.926 393.468 103.318 393.663 103.742 393.794 104.166 393.891 104.622 393.924" style="fill:none;stroke:#000;stroke-linecap:square;stroke-miterlimit:10;stroke-width:2px"/><line x1="101.198" y1="390.534" x2="101.198" y2="230.115" style="fill:none;stroke:#000;stroke-linecap:square;stroke-miterlimit:10;stroke-width:2px"/><polyline points="101.198 230.082 101.166 229.658 101.1 229.235 100.937 228.811 100.742 228.42 100.514 228.061 100.22 227.735 99.894 227.442 99.535 227.213 99.144 227.018 98.72 226.855 98.296 226.79 97.872 226.757" style="fill:none;stroke:#000;stroke-linecap:square;stroke-miterlimit:10;stroke-width:2px"/><line x1="97.872" y1="226.757" x2="64.842" y2="226.757" style="fill:none;stroke:#000;stroke-linecap:square;stroke-miterlimit:10;stroke-width:2px"/><polyline points="64.842 226.757 64.515 226.79 64.189 226.887 63.896 227.05 63.635 227.246 63.439 227.507 63.276 227.8 63.179 228.126 63.146 228.452" style="fill:none;stroke:#000;stroke-linecap:square;stroke-miterlimit:10;stroke-width:2px"/><line x1="63.113" y1="228.452" x2="63.113" y2="277.774" style="fill:none;stroke:#000;stroke-linecap:square;stroke-miterlimit:10;stroke-width:2px"/><polyline points="63.146 277.774 63.179 278.165 63.276 278.557 63.439 278.915 63.635 279.274 63.896 279.567 64.189 279.828 64.548 280.024 64.907 280.187 65.298 280.284 65.689 280.317" style="fill:none;stroke:#000;stroke-linecap:square;stroke-miterlimit:10;stroke-width:2px"/><line x1="65.689" y1="280.35" x2="72.048" y2="280.35" style="fill:none;stroke:#000;stroke-linecap:square;stroke-miterlimit:10;stroke-width:2px"/><polyline points="72.048 280.317 72.472 280.284 72.895 280.219 73.319 280.056 73.711 279.861 74.069 279.632 74.395 279.339 74.689 279.013 74.917 278.654 75.113 278.263 75.276 277.839 75.341 277.416 75.374 276.992" style="fill:none;stroke:#000;stroke-linecap:square;stroke-miterlimit:10;stroke-width:2px"/><line x1="75.406" y1="276.992" x2="75.406" y2="239.014" style="fill:none;stroke:#000;stroke-linecap:square;stroke-miterlimit:10;stroke-width:2px"/><polyline points="77.102 237.319 76.776 237.352 76.45 237.449 76.156 237.612 75.895 237.808 75.7 238.069 75.537 238.362 75.439 238.688 75.406 239.014" style="fill:none;stroke:#000;stroke-linecap:square;stroke-miterlimit:10;stroke-width:2px"/><line x1="77.102" y1="237.286" x2="87.536" y2="237.286" style="fill:none;stroke:#000;stroke-linecap:square;stroke-miterlimit:10;stroke-width:2px"/><polyline points="89.231 238.982 89.199 238.656 89.101 238.362 88.938 238.069 88.71 237.808 88.482 237.612 88.188 237.449 87.862 237.352 87.536 237.319" style="fill:none;stroke:#000;stroke-linecap:square;stroke-miterlimit:10;stroke-width:2px"/><line x1="89.231" y1="238.982" x2="89.199" y2="387.306" style="fill:none;stroke:#000;stroke-linecap:square;stroke-miterlimit:10;stroke-width:2px"/><polyline points="85.351 390.599 85.808 390.632 86.297 390.599 86.753 390.501 87.21 390.338 87.634 390.11 87.992 389.817 88.351 389.491 88.645 389.099 88.873 388.708 89.036 388.252 89.134 387.795 89.166 387.306" style="fill:none;stroke:#000;stroke-linecap:square;stroke-miterlimit:10;stroke-width:2px"/><line x1="85.319" y1="390.599" x2="44.625" y2="384.34" style="fill:none;stroke:#000;stroke-linecap:square;stroke-miterlimit:10;stroke-width:2px"/><polyline points="44.625 384.373 44.169 384.34 43.712 384.373 43.256 384.47 42.832 384.633 42.441 384.894 42.082 385.188 41.788 385.514 41.528 385.905 41.365 386.329 41.234 386.785" style="fill:none;stroke:#000;stroke-linecap:square;stroke-miterlimit:10;stroke-width:2px"/><line x1="41.234" y1="386.785" x2="41.234" y2="392.653" style="fill:none;stroke:#000;stroke-linecap:square;stroke-miterlimit:10;stroke-width:2px"/><polyline points="41.267 392.653 41.299 393.044 41.397 393.435 41.528 393.794 41.723 394.12 41.984 394.413 42.278 394.674 42.604 394.902 42.962 395.065" style="fill:none;stroke:#000;stroke-linecap:square;stroke-miterlimit:10;stroke-width:2px"/><line x1="42.962" y1="395.065" x2="100.84" y2="405.855" style="fill:none;stroke:#000;stroke-linecap:square;stroke-miterlimit:10;stroke-width:2px"/><polyline points="100.84 405.823 101.133 405.888 101.459 405.888" style="fill:none;stroke:#000;stroke-linecap:square;stroke-miterlimit:10;stroke-width:2px"/><line x1="101.459" y1="405.888" x2="142.283" y2="405.888" style="fill:none;stroke:#000;stroke-linecap:square;stroke-miterlimit:10;stroke-width:2px"/><polyline points="142.283 405.888 142.739 405.855 143.163 405.757 143.587 405.627 143.979 405.431 144.337 405.203 144.696 404.91" style="fill:none;stroke:#000;stroke-linecap:square;stroke-miterlimit:10;stroke-width:2px"/><line x1="144.696" y1="404.91" x2="155.913" y2="393.696" style="fill:none;stroke:#000;stroke-linecap:square;stroke-miterlimit:10;stroke-width:2px"/><polyline points="155.913 393.696 156.108 393.468 156.239 393.174 156.337 392.913 156.402 392.587 156.402 392.294 156.337 392.001 156.206 391.707 156.043 391.447 155.847 391.251 155.619 391.055 155.326 390.925 155.032 390.827" style="fill:none;stroke:#000;stroke-linecap:square;stroke-miterlimit:10;stroke-width:2px"/><polyline points="155.75 376.027 155 376.158 154.25 376.353 153.532 376.614 152.848 376.94 152.228 377.331 151.609 377.82 151.087 378.342 150.598 378.896 150.141 379.515 149.783 380.2 149.489 380.884 149.261 381.602 149.13 382.351 149.033 383.101 149.033 383.851 149.13 384.601 149.261 385.351 149.522 386.068 149.815 386.785 150.174 387.437 150.598 388.056 151.119 388.61 151.674 389.132 152.261 389.588 152.913 390.012 153.598 390.338 154.282 390.599 155.032 390.795" style="fill:none;stroke:#000;stroke-linecap:square;stroke-miterlimit:10;stroke-width:2px"/><polyline points="155.75 376.027 155.945 375.962 156.141 375.897 156.271 375.734 156.402 375.571 156.467 375.375 156.5 375.18" style="fill:none;stroke:#000;stroke-linecap:square;stroke-miterlimit:10;stroke-width:2px"/><line x1="156.5" y1="375.18" x2="156.5" y2="322.174" style="fill:none;stroke:#000;stroke-linecap:square;stroke-miterlimit:10;stroke-width:2px"/><polyline points="158.195 320.479 157.869 320.511 157.543 320.609 157.25 320.772 156.989 320.968 156.793 321.229 156.63 321.522 156.532 321.848 156.5 322.174" style="fill:none;stroke:#000;stroke-linecap:square;stroke-miterlimit:10;stroke-width:2px"/><line x1="158.195" y1="320.446" x2="259.016" y2="320.446" style="fill:none;stroke:#000;stroke-linecap:square;stroke-miterlimit:10;stroke-width:2px"/><polyline points="260.711 322.174 260.679 321.848 260.581 321.522 260.418 321.229 260.222 320.968 259.961 320.772 259.668 320.609 259.342 320.511 259.016 320.479" style="fill:none;stroke:#000;stroke-linecap:square;stroke-miterlimit:10;stroke-width:2px"/><line x1="260.711" y1="322.174" x2="260.711" y2="375.18" style="fill:none;stroke:#000;stroke-linecap:square;stroke-miterlimit:10;stroke-width:2px"/><polyline points="260.744 375.18 260.777 375.375 260.842 375.571 260.972 375.734 261.103 375.897 261.298 375.962 261.494 376.027" style="fill:none;stroke:#000;stroke-linecap:square;stroke-miterlimit:10;stroke-width:2px"/><polyline points="262.179 390.795 262.929 390.599 263.613 390.338 264.298 390.012 264.95 389.588 265.537 389.132 266.092 388.61 266.613 388.056 267.037 387.437 267.396 386.785 267.689 386.068 267.95 385.351 268.081 384.601 268.178 383.851 268.178 383.101 268.081 382.351 267.95 381.602 267.722 380.884 267.428 380.2 267.07 379.515 266.613 378.896 266.124 378.342 265.602 377.82 264.983 377.331 264.363 376.94 263.679 376.614 262.961 376.353 262.211 376.158 261.461 376.027" style="fill:none;stroke:#000;stroke-linecap:square;stroke-miterlimit:10;stroke-width:2px"/><polyline points="262.211 390.827 261.918 390.925 261.624 391.055 261.396 391.251 261.2 391.447 261.037 391.707 260.907 392.001 260.842 392.294 260.842 392.587 260.907 392.913 261.005 393.174 261.135 393.468 261.331 393.696" style="fill:none;stroke:#000;stroke-linecap:square;stroke-miterlimit:10;stroke-width:2px"/><line x1="261.331" y1="393.696" x2="272.548" y2="404.91" style="fill:none;stroke:#000;stroke-linecap:square;stroke-miterlimit:10;stroke-width:2px"/><polyline points="272.548 404.91 272.906 405.203 273.265 405.431 273.656 405.627 274.08 405.757 274.504 405.855 274.961 405.888" style="fill:none;stroke:#000;stroke-linecap:square;stroke-miterlimit:10;stroke-width:2px"/><line x1="274.961" y1="405.888" x2="411.192" y2="405.888" style="fill:none;stroke:#000;stroke-linecap:square;stroke-miterlimit:10;stroke-width:2px"/><polyline points="411.192 405.888 413.116 405.855 415.007 405.757 416.931 405.562 418.822 405.301 420.714 405.008 422.605 404.616 424.463 404.128 426.289 403.606 428.115 403.019 429.909 402.335 431.67 401.617 433.43 400.802 435.126 399.955 436.789 399.009 438.452 398.032 440.049 396.988 441.615 395.88 443.147 394.706 444.614 393.5 446.049 392.196 447.419 390.892 448.756 389.491 450.027 388.056 451.234 386.589 452.408 385.057 453.516 383.525 454.56 381.895 455.57 380.265 456.483 378.603 457.331 376.875 458.146 375.147 458.864 373.354 459.548 371.561 460.135 369.736 460.657 367.91 461.146 366.052 461.537 364.161 461.831 362.271 462.092 360.38 462.287 358.456 462.385 356.566 462.418 354.642" style="fill:none;stroke:#000;stroke-linecap:square;stroke-miterlimit:10;stroke-width:2px"/><line x1="462.45" y1="354.642" x2="462.45" y2="242.144" style="fill:none;stroke:#000;stroke-linecap:square;stroke-miterlimit:10;stroke-width:2px"/><polyline points="462.418 242.144 462.385 240.188 462.255 238.232 462.092 236.276 461.831 234.32 461.472 232.364 461.081 230.441 460.592 228.55 460.038 226.659 459.385 224.801 458.701 222.976 457.918 221.15 457.103 219.39 456.19 217.629 455.212 215.934 454.168 214.272 453.06 212.642 451.918 211.044 450.679 209.512 449.408 208.013 448.071 206.578 446.669 205.177 445.234 203.873 443.734 202.569 442.202 201.362 440.636 200.189 439.006 199.113 437.311 198.07 435.615 197.092 433.887 196.179 432.093 195.364 430.3 194.582 428.441 193.897 426.583 193.278 424.692 192.724" style="fill:none;stroke:#000;stroke-linecap:square;stroke-miterlimit:10;stroke-width:2px"/><line x1="424.692" y1="192.691" x2="92.329" y2="101.806" style="fill:none;stroke:#000;stroke-linecap:square;stroke-miterlimit:10;stroke-width:2px"/><polyline points="92.329 101.838 92.166 101.773 91.971 101.74" style="fill:none;stroke:#000;stroke-linecap:square;stroke-miterlimit:10;stroke-width:2px"/><line x1="91.938" y1="101.708" x2="41.495" y2="94.112" style="fill:none;stroke:#000;stroke-linecap:square;stroke-miterlimit:10;stroke-width:2px"/><polyline points="41.495 94.145 41.006 94.112 40.517 94.145 40.028 94.243 39.571 94.406 39.147 94.634 38.756 94.927 38.43 95.286 38.136 95.677 37.876 96.101 37.713 96.557 37.615 97.013 37.582 97.502" style="fill:none;stroke:#000;stroke-linecap:square;stroke-miterlimit:10;stroke-width:2px"/><line x1="37.55" y1="97.502" x2="37.55" y2="143.63" style="fill:none;stroke:#000;stroke-linecap:square;stroke-miterlimit:10;stroke-width:2px"/><polyline points="37.582 143.63 37.615 144.021 37.713 144.412 37.876 144.771 38.071 145.129 38.332 145.423 38.626 145.684 38.984 145.879 39.343 146.042 39.734 146.14 40.125 146.173" style="fill:none;stroke:#000;stroke-linecap:square;stroke-miterlimit:10;stroke-width:2px"/><line x1="40.125" y1="146.205" x2="48.114" y2="146.205" style="fill:none;stroke:#000;stroke-linecap:square;stroke-miterlimit:10;stroke-width:2px"/><polyline points="48.114 146.173 48.44 146.14 48.766 146.042 49.06 145.879 49.321 145.684 49.516 145.423 49.679 145.129 49.777 144.803 49.81 144.477" style="fill:none;stroke:#000;stroke-linecap:square;stroke-miterlimit:10;stroke-width:2px"/><line x1="49.842" y1="144.477" x2="49.842" y2="109.466" style="fill:none;stroke:#000;stroke-linecap:square;stroke-miterlimit:10;stroke-width:2px"/><polyline points="51.799 107.804 51.505 107.771 51.212 107.804 50.918 107.869 50.658 107.999 50.429 108.195 50.234 108.39 50.071 108.619 49.94 108.879 49.875 109.173 49.842 109.466" style="fill:none;stroke:#000;stroke-linecap:square;stroke-miterlimit:10;stroke-width:2px"/><line x1="51.799" y1="107.771" x2="87.699" y2="113.183" style="fill:none;stroke:#000;stroke-linecap:square;stroke-miterlimit:10;stroke-width:2px"/><polyline points="91.612 114.03 90.634 113.769 89.655 113.574 88.677 113.378 87.699 113.215" style="fill:none;stroke:#000;stroke-linecap:square;stroke-miterlimit:10;stroke-width:2px"/><line x1="91.612" y1="113.997" x2="421.561" y2="204.231" style="fill:none;stroke:#000;stroke-linecap:square;stroke-miterlimit:10;stroke-width:2px"/><polyline points="450.484 242.144 450.451 240.449 450.321 238.721 450.158 237.026 449.897 235.363 449.571 233.668 449.147 232.005 448.69 230.375 448.136 228.746 447.517 227.181 446.832 225.616 446.082 224.084 445.267 222.584 444.386 221.117 443.441 219.683 442.43 218.314 441.354 216.977 440.245 215.673 439.071 214.467 437.832 213.261 436.561 212.153 435.224 211.077 433.854 210.066 432.419 209.088 430.985 208.208 429.485 207.393 427.952 206.611 426.387 205.926 424.822 205.307 423.192 204.753 421.561 204.264" style="fill:none;stroke:#000;stroke-linecap:square;stroke-miterlimit:10;stroke-width:2px"/><line x1="450.484" y1="242.144" x2="450.484" y2="354.642" style="fill:none;stroke:#000;stroke-linecap:square;stroke-miterlimit:10;stroke-width:2px"/><polyline points="411.192 393.924 412.921 393.891 414.616 393.761 416.312 393.598 418.007 393.337 419.703 392.979 421.366 392.587 422.996 392.099 424.626 391.544 426.224 390.925 427.789 390.24 429.322 389.491 430.854 388.676 432.289 387.763 433.724 386.818 435.126 385.807 436.463 384.731 437.734 383.59 438.973 382.417 440.147 381.178 441.289 379.907 442.365 378.57 443.375 377.168 444.321 375.734 445.234 374.3 446.049 372.767 446.799 371.235 447.484 369.671 448.103 368.073 448.658 366.443 449.147 364.813 449.538 363.151 449.897 361.456 450.158 359.76 450.321 358.065 450.451 356.37 450.484 354.642" style="fill:none;stroke:#000;stroke-linecap:square;stroke-miterlimit:10;stroke-width:2px"/><line x1="411.192" y1="393.924" x2="282.46" y2="393.924" style="fill:none;stroke:#000;stroke-linecap:square;stroke-miterlimit:10;stroke-width:2px"/><polyline points="279.232 389.491 279.134 389.914 279.069 390.371 279.069 390.827 279.167 391.284 279.297 391.74 279.46 392.131 279.721 392.522 280.015 392.881 280.341 393.174 280.732 393.435 281.123 393.663 281.547 393.794 282.004 393.891 282.46 393.924" style="fill:none;stroke:#000;stroke-linecap:square;stroke-miterlimit:10;stroke-width:2px"/><polyline points="279.2 389.458 279.526 388.382 279.754 387.306 279.949 386.198 280.08 385.09 280.145 383.981 280.145 382.873 280.08 381.765 279.949 380.656 279.754 379.548 279.493 378.472 279.167 377.396 278.808 376.353 278.352 375.343 277.863 374.332 277.308 373.354 276.721 372.441 276.069 371.529 275.352 370.681 274.602 369.866 273.787 369.084" style="fill:none;stroke:#000;stroke-linecap:square;stroke-miterlimit:10;stroke-width:2px"/><polyline points="272.711 366.574 272.743 367.03 272.841 367.486 273.004 367.943 273.232 368.367 273.493 368.758 273.819 369.084" style="fill:none;stroke:#000;stroke-linecap:square;stroke-miterlimit:10;stroke-width:2px"/><line x1="272.678" y1="366.574" x2="272.678" y2="311.905" style="fill:none;stroke:#000;stroke-linecap:square;stroke-miterlimit:10;stroke-width:2px"/><polyline points="272.645 311.905 272.613 311.449 272.515 311.025 272.385 310.601 272.189 310.21 271.961 309.852 271.667 309.493 271.309 309.2 270.95 308.971 270.559 308.776 270.135 308.645 269.711 308.548 269.254 308.515" style="fill:none;stroke:#000;stroke-linecap:square;stroke-miterlimit:10;stroke-width:2px"/><line x1="269.254" y1="308.482" x2="147.957" y2="308.482" style="fill:none;stroke:#000;stroke-linecap:square;stroke-miterlimit:10;stroke-width:2px"/><polyline points="147.957 308.515 147.5 308.548 147.076 308.645 146.652 308.776 146.261 308.971 145.902 309.2 145.544 309.493 145.25 309.852 145.022 310.21 144.826 310.601 144.696 311.025 144.598 311.449 144.565 311.905" style="fill:none;stroke:#000;stroke-linecap:square;stroke-miterlimit:10;stroke-width:2px"/><line x1="144.533" y1="311.905" x2="144.533" y2="366.574" style="fill:none;stroke:#000;stroke-linecap:square;stroke-miterlimit:10;stroke-width:2px"/><polyline points="143.392 369.084 143.718 368.758 143.979 368.367 144.207 367.943 144.37 367.486 144.468 367.03 144.5 366.574" style="fill:none;stroke:#000;stroke-linecap:square;stroke-miterlimit:10;stroke-width:2px"/></svg>