<svg id="Capa_1" data-name="Capa 1" xmlns="http://www.w3.org/2000/svg" viewBox="0 0 500 500"><rect width="500" height="500" style="fill:none"/><line x1="206.421" y1="190.849" x2="206.421" y2="184.362" style="fill:none;stroke:#000;stroke-linecap:square;stroke-miterlimit:10;stroke-width:2px"/><polyline points="206.421 184.362 206.388 183.906 206.29 183.449 206.16 183.026 205.964 182.602 205.703 182.243 205.41 181.885 205.051 181.591 204.693 181.33 204.269 181.135 203.845 181.004 203.388 180.907 202.932 180.874" style="fill:none;stroke:#000;stroke-linecap:square;stroke-miterlimit:10;stroke-width:2px"/><line x1="202.932" y1="180.874" x2="170.129" y2="180.874" style="fill:none;stroke:#000;stroke-linecap:square;stroke-miterlimit:10;stroke-width:2px"/><polyline points="170.129 180.874 169.803 180.907 169.477 181.004 169.184 181.167 168.923 181.396 168.695 181.656 168.532 181.95 168.434 182.276 168.401 182.602" style="fill:none;stroke:#000;stroke-linecap:square;stroke-miterlimit:10;stroke-width:2px"/><line x1="168.369" y1="182.602" x2="168.369" y2="233.13" style="fill:none;stroke:#000;stroke-linecap:square;stroke-miterlimit:10;stroke-width:2px"/><polyline points="168.401 233.13 168.434 233.554 168.532 233.945 168.695 234.304 168.89 234.662 169.151 234.988 169.477 235.249 169.836 235.445 170.195 235.608 170.586 235.705 171.01 235.738" style="fill:none;stroke:#000;stroke-linecap:square;stroke-miterlimit:10;stroke-width:2px"/><line x1="171.01" y1="235.738" x2="177.531" y2="235.738" style="fill:none;stroke:#000;stroke-linecap:square;stroke-miterlimit:10;stroke-width:2px"/><polyline points="177.531 235.738 177.988 235.705 178.411 235.608 178.835 235.477 179.259 235.282 179.618 235.021 179.944 234.727 180.237 234.401 180.498 234.01 180.694 233.619 180.824 233.195 180.922 232.771 180.955 232.315" style="fill:none;stroke:#000;stroke-linecap:square;stroke-miterlimit:10;stroke-width:2px"/><line x1="180.955" y1="232.315" x2="180.955" y2="193.425" style="fill:none;stroke:#000;stroke-linecap:square;stroke-miterlimit:10;stroke-width:2px"/><polyline points="182.683 191.697 182.357 191.73 182.031 191.827 181.737 191.99 181.477 192.218 181.248 192.479 181.085 192.773 180.987 193.099 180.955 193.425" style="fill:none;stroke:#000;stroke-linecap:square;stroke-miterlimit:10;stroke-width:2px"/><line x1="182.683" y1="191.664" x2="193.378" y2="191.664" style="fill:none;stroke:#000;stroke-linecap:square;stroke-miterlimit:10;stroke-width:2px"/><polyline points="195.106 193.425 195.074 193.099 194.976 192.773 194.813 192.479 194.585 192.218 194.324 191.99 194.03 191.827 193.704 191.73 193.378 191.697" style="fill:none;stroke:#000;stroke-linecap:square;stroke-miterlimit:10;stroke-width:2px"/><line x1="195.139" y1="193.425" x2="195.139" y2="322.125" style="fill:none;stroke:#000;stroke-linecap:square;stroke-miterlimit:10;stroke-width:2px"/><polyline points="195.139 322.125 195.171 322.581 195.269 323.038 195.4 323.462 195.595 323.853 195.856 324.244 196.15 324.603 196.508 324.896 196.9 325.157 197.291 325.352 197.715 325.483 198.171 325.58 198.628 325.613" style="fill:none;stroke:#000;stroke-linecap:square;stroke-miterlimit:10;stroke-width:2px"/><line x1="198.628" y1="325.646" x2="253.636" y2="325.646" style="fill:none;stroke:#000;stroke-linecap:square;stroke-miterlimit:10;stroke-width:2px"/><polyline points="256.212 326.787 255.853 326.461 255.462 326.167 255.038 325.939 254.581 325.776 254.125 325.678 253.636 325.646" style="fill:none;stroke:#000;stroke-linecap:square;stroke-miterlimit:10;stroke-width:2px"/><polyline points="256.244 326.754 257.092 327.634 257.972 328.449 258.918 329.232 259.896 329.916 260.94 330.568 261.983 331.155 263.092 331.644 264.233 332.1 265.374 332.459 266.548 332.785 267.722 333.013 268.928 333.176 270.135 333.241 271.341 333.274 272.548 333.209 273.754 333.078 274.961 332.85 276.134 332.589 277.308 332.231 278.45 331.807" style="fill:none;stroke:#000;stroke-linecap:square;stroke-miterlimit:10;stroke-width:2px"/><polyline points="282.036 332.426 281.645 332.133 281.254 331.905 280.797 331.742 280.341 331.611 279.852 331.579 279.363 331.611 278.906 331.676 278.45 331.839" style="fill:none;stroke:#000;stroke-linecap:square;stroke-miterlimit:10;stroke-width:2px"/><line x1="282.036" y1="332.426" x2="337.99" y2="380.999" style="fill:none;stroke:#000;stroke-linecap:square;stroke-miterlimit:10;stroke-width:2px"/><polyline points="337.957 386.312 338.316 385.954 338.609 385.562 338.838 385.106 339.033 384.65 339.131 384.161 339.164 383.672 339.131 383.183 339.033 382.694 338.838 382.237 338.609 381.781 338.316 381.39 337.957 381.031" style="fill:none;stroke:#000;stroke-linecap:square;stroke-miterlimit:10;stroke-width:2px"/><line x1="337.99" y1="386.312" x2="274.798" y2="441.176" style="fill:none;stroke:#000;stroke-linecap:square;stroke-miterlimit:10;stroke-width:2px"/><polyline points="271.993 441.991 272.385 442.024 272.743 442.024 273.135 441.958 273.493 441.893 273.852 441.763 274.178 441.6 274.504 441.404 274.798 441.176" style="fill:none;stroke:#000;stroke-linecap:square;stroke-miterlimit:10;stroke-width:2px"/><line x1="271.993" y1="441.991" x2="149.978" y2="423.605" style="fill:none;stroke:#000;stroke-linecap:square;stroke-miterlimit:10;stroke-width:2px"/><polyline points="149.978 423.605 149.489 423.573 148.967 423.605 148.478 423.703 148.022 423.866 147.598 424.127 147.174 424.42 146.815 424.779 146.522 425.17 146.294 425.594 146.098 426.083 146 426.572 145.968 427.061" style="fill:none;stroke:#000;stroke-linecap:square;stroke-miterlimit:10;stroke-width:2px"/><line x1="145.968" y1="427.061" x2="145.968" y2="432.374" style="fill:none;stroke:#000;stroke-linecap:square;stroke-miterlimit:10;stroke-width:2px"/><polyline points="145.968 432.374 146 432.863 146.098 433.352 146.294 433.809 146.522 434.265 146.815 434.656 147.174 435.015 147.565 435.308 147.989 435.537 148.446 435.7 148.935 435.83" style="fill:none;stroke:#000;stroke-linecap:square;stroke-miterlimit:10;stroke-width:2px"/><line x1="148.935" y1="435.83" x2="275.743" y2="454.965" style="fill:none;stroke:#000;stroke-linecap:square;stroke-miterlimit:10;stroke-width:2px"/><polyline points="275.743 454.965 276.134 454.998 276.493 454.998 276.884 454.933 277.243 454.868 277.602 454.737 277.928 454.574 278.254 454.379 278.547 454.15" style="fill:none;stroke:#000;stroke-linecap:square;stroke-miterlimit:10;stroke-width:2px"/><line x1="278.547" y1="454.15" x2="356.576" y2="386.377" style="fill:none;stroke:#000;stroke-linecap:square;stroke-miterlimit:10;stroke-width:2px"/><polyline points="356.576 386.377 356.934 386.019 357.261 385.595 357.489 385.171 357.684 384.682 357.782 384.193 357.815 383.672 357.782 383.15 357.684 382.661 357.489 382.172 357.261 381.748 356.934 381.325 356.576 380.966" style="fill:none;stroke:#000;stroke-linecap:square;stroke-miterlimit:10;stroke-width:2px"/><line x1="356.576" y1="380.933" x2="280.928" y2="315.247" style="fill:none;stroke:#000;stroke-linecap:square;stroke-miterlimit:10;stroke-width:2px"/><polyline points="280.928 315.247 280.634 315.051 280.341 314.921 280.015 314.823 279.689 314.823 279.363 314.888 279.036 314.986 278.743 315.181 278.515 315.41 278.319 315.67 278.156 315.964" style="fill:none;stroke:#000;stroke-linecap:square;stroke-miterlimit:10;stroke-width:2px"/><polyline points="263.353 314.171 263.483 314.888 263.646 315.605 263.907 316.29 264.2 316.974 264.592 317.594 265.015 318.181 265.505 318.735 266.059 319.224 266.613 319.68 267.265 320.071 267.917 320.397 268.602 320.658 269.32 320.821 270.037 320.951 270.754 321.017 271.504 320.984 272.222 320.919 272.939 320.756 273.624 320.528 274.308 320.234 274.961 319.876 275.548 319.485 276.134 318.996 276.624 318.474 277.113 317.92 277.504 317.3 277.863 316.648 278.123 315.964" style="fill:none;stroke:#000;stroke-linecap:square;stroke-miterlimit:10;stroke-width:2px"/><polyline points="263.287 314.171 263.222 313.975 263.157 313.78 262.994 313.649 262.831 313.519 262.635 313.454 262.44 313.421" style="fill:none;stroke:#000;stroke-linecap:square;stroke-miterlimit:10;stroke-width:2px"/><line x1="262.44" y1="313.389" x2="209.91" y2="313.389" style="fill:none;stroke:#000;stroke-linecap:square;stroke-miterlimit:10;stroke-width:2px"/><polyline points="206.421 309.868 206.453 310.324 206.551 310.781 206.682 311.204 206.877 311.628 207.138 311.987 207.432 312.345 207.79 312.639 208.182 312.9 208.573 313.095 208.997 313.226 209.453 313.323 209.91 313.356" style="fill:none;stroke:#000;stroke-linecap:square;stroke-miterlimit:10;stroke-width:2px"/><line x1="206.421" y1="309.868" x2="206.421" y2="210.115" style="fill:none;stroke:#000;stroke-linecap:square;stroke-miterlimit:10;stroke-width:2px"/><polyline points="209.91 206.627 209.453 206.66 208.997 206.758 208.573 206.888 208.182 207.084 207.79 207.344 207.432 207.638 207.138 207.996 206.877 208.355 206.682 208.779 206.551 209.202 206.453 209.659 206.421 210.115" style="fill:none;stroke:#000;stroke-linecap:square;stroke-miterlimit:10;stroke-width:2px"/><line x1="209.91" y1="206.627" x2="262.44" y2="206.627" style="fill:none;stroke:#000;stroke-linecap:square;stroke-miterlimit:10;stroke-width:2px"/><polyline points="262.44 206.595 262.635 206.562 262.831 206.497 262.994 206.366 263.157 206.236 263.222 206.04 263.287 205.845" style="fill:none;stroke:#000;stroke-linecap:square;stroke-miterlimit:10;stroke-width:2px"/><polyline points="278.123 204.052 277.863 203.367 277.504 202.715 277.113 202.096 276.624 201.542 276.134 201.02 275.548 200.531 274.961 200.14 274.308 199.781 273.624 199.488 272.939 199.26 272.222 199.097 271.504 199.032 270.754 198.999 270.037 199.064 269.32 199.195 268.602 199.358 267.917 199.618 267.265 199.944 266.613 200.336 266.059 200.792 265.505 201.281 265.015 201.835 264.592 202.422 264.2 203.041 263.907 203.726 263.646 204.41 263.483 205.128 263.353 205.845" style="fill:none;stroke:#000;stroke-linecap:square;stroke-miterlimit:10;stroke-width:2px"/><polyline points="278.156 204.019 278.319 204.313 278.515 204.573 278.743 204.802 279.036 204.997 279.363 205.095 279.689 205.16 280.015 205.16 280.341 205.062 280.634 204.932 280.928 204.736" style="fill:none;stroke:#000;stroke-linecap:square;stroke-miterlimit:10;stroke-width:2px"/><line x1="280.928" y1="204.769" x2="356.576" y2="139.05" style="fill:none;stroke:#000;stroke-linecap:square;stroke-miterlimit:10;stroke-width:2px"/><polyline points="356.576 139.05 356.934 138.691 357.261 138.267 357.489 137.844 357.684 137.355 357.782 136.866 357.815 136.344 357.782 135.822 357.684 135.333 357.489 134.844 357.261 134.421 356.934 133.997 356.576 133.638" style="fill:none;stroke:#000;stroke-linecap:square;stroke-miterlimit:10;stroke-width:2px"/><line x1="356.576" y1="133.638" x2="278.091" y2="65.474" style="fill:none;stroke:#000;stroke-linecap:square;stroke-miterlimit:10;stroke-width:2px"/><polyline points="278.091 65.474 277.83 65.278 277.569 65.083 277.276 64.952 276.95 64.822 276.656 64.724 276.33 64.659" style="fill:none;stroke:#000;stroke-linecap:square;stroke-miterlimit:10;stroke-width:2px"/><line x1="276.33" y1="64.659" x2="146.228" y2="45.035" style="fill:none;stroke:#000;stroke-linecap:square;stroke-miterlimit:10;stroke-width:2px"/><polyline points="146.228 45.035 145.739 45.002 145.218 45.035 144.729 45.132 144.272 45.295 143.848 45.556 143.424 45.85 143.066 46.208 142.772 46.599 142.544 47.023 142.348 47.512 142.25 48.001 142.218 48.49" style="fill:none;stroke:#000;stroke-linecap:square;stroke-miterlimit:10;stroke-width:2px"/><line x1="142.185" y1="48.49" x2="142.185" y2="95.726" style="fill:none;stroke:#000;stroke-linecap:square;stroke-miterlimit:10;stroke-width:2px"/><polyline points="142.218 95.726 142.25 96.15 142.348 96.541 142.511 96.899 142.707 97.258 142.968 97.584 143.294 97.845 143.652 98.04 144.011 98.203 144.402 98.301 144.826 98.334" style="fill:none;stroke:#000;stroke-linecap:square;stroke-miterlimit:10;stroke-width:2px"/><line x1="144.826" y1="98.366" x2="153.011" y2="98.366" style="fill:none;stroke:#000;stroke-linecap:square;stroke-miterlimit:10;stroke-width:2px"/><polyline points="153.011 98.334 153.337 98.301 153.663 98.203 153.956 98.04 154.217 97.812 154.445 97.551 154.608 97.258 154.706 96.932 154.739 96.606" style="fill:none;stroke:#000;stroke-linecap:square;stroke-miterlimit:10;stroke-width:2px"/><line x1="154.771" y1="96.606" x2="154.771" y2="60.747" style="fill:none;stroke:#000;stroke-linecap:square;stroke-miterlimit:10;stroke-width:2px"/><polyline points="156.76 59.052 156.467 59.019 156.174 59.052 155.88 59.15 155.619 59.28 155.358 59.443 155.163 59.639 155 59.9 154.869 60.16 154.804 60.454 154.771 60.747" style="fill:none;stroke:#000;stroke-linecap:square;stroke-miterlimit:10;stroke-width:2px"/><line x1="156.76" y1="59.019" x2="270.983" y2="76.232" style="fill:none;stroke:#000;stroke-linecap:square;stroke-miterlimit:10;stroke-width:2px"/><polyline points="272.743 77.047 272.482 76.851 272.222 76.655 271.928 76.525 271.602 76.395 271.309 76.297 270.983 76.232" style="fill:none;stroke:#000;stroke-linecap:square;stroke-miterlimit:10;stroke-width:2px"/><line x1="272.776" y1="77.047" x2="337.99" y2="133.704" style="fill:none;stroke:#000;stroke-linecap:square;stroke-miterlimit:10;stroke-width:2px"/><polyline points="337.957 138.985 338.316 138.626 338.609 138.235 338.838 137.778 339.033 137.322 339.131 136.833 339.164 136.344 339.131 135.855 339.033 135.366 338.838 134.91 338.609 134.453 338.316 134.062 337.957 133.704" style="fill:none;stroke:#000;stroke-linecap:square;stroke-miterlimit:10;stroke-width:2px"/><line x1="337.99" y1="138.985" x2="282.036" y2="187.557" style="fill:none;stroke:#000;stroke-linecap:square;stroke-miterlimit:10;stroke-width:2px"/><polyline points="278.45 188.144 278.906 188.307 279.363 188.372 279.852 188.404 280.341 188.372 280.797 188.241 281.254 188.078 281.645 187.85 282.036 187.557" style="fill:none;stroke:#000;stroke-linecap:square;stroke-miterlimit:10;stroke-width:2px"/><polyline points="278.45 188.209 277.308 187.785 276.134 187.426 274.961 187.166 273.754 186.937 272.548 186.807 271.341 186.742 270.135 186.774 268.928 186.84 267.722 187.003 266.548 187.231 265.374 187.557 264.233 187.915 263.092 188.372 261.983 188.861 260.94 189.448 259.896 190.1 258.918 190.784 257.972 191.566 257.092 192.381 256.244 193.262" style="fill:none;stroke:#000;stroke-linecap:square;stroke-miterlimit:10;stroke-width:2px"/><polyline points="253.636 194.337 254.125 194.305 254.581 194.207 255.038 194.044 255.462 193.816 255.853 193.522 256.212 193.196" style="fill:none;stroke:#000;stroke-linecap:square;stroke-miterlimit:10;stroke-width:2px"/><line x1="253.636" y1="194.37" x2="209.91" y2="194.37" style="fill:none;stroke:#000;stroke-linecap:square;stroke-miterlimit:10;stroke-width:2px"/><polyline points="206.421 190.849 206.453 191.306 206.551 191.762 206.682 192.186 206.877 192.577 207.138 192.968 207.432 193.327 207.79 193.62 208.149 193.881 208.573 194.077 208.997 194.207 209.453 194.305 209.91 194.337" style="fill:none;stroke:#000;stroke-linecap:square;stroke-miterlimit:10;stroke-width:2px"/><polyline points="206.453 311.628 206.486 311.954 206.584 312.28 206.747 312.574 206.975 312.834 207.236 313.063 207.529 313.226 207.856 313.323 208.182 313.356" style="fill:none;stroke:#000;stroke-linecap:square;stroke-miterlimit:10;stroke-width:2px"/></svg>