<svg id="Capa_1" data-name="Capa 1" xmlns="http://www.w3.org/2000/svg" viewBox="0 0 500 500"><rect width="500" height="500" style="fill:none"/><polyline points="142.201 130.199 142.528 130.167 142.854 130.069 143.147 129.906 143.408 129.71 143.604 129.449 143.767 129.156 143.864 128.83 143.897 128.504" style="fill:none;stroke:#000;stroke-linecap:square;stroke-miterlimit:10;stroke-width:2px"/><line x1="142.201" y1="130.232" x2="134.115" y2="130.232" style="fill:none;stroke:#000;stroke-linecap:square;stroke-miterlimit:10;stroke-width:2px"/><polyline points="131.539 127.656 131.572 128.048 131.669 128.439 131.832 128.83 132.028 129.156 132.289 129.482 132.615 129.743 132.941 129.938 133.332 130.101 133.724 130.199 134.115 130.232" style="fill:none;stroke:#000;stroke-linecap:square;stroke-miterlimit:10;stroke-width:2px"/><line x1="131.539" y1="127.656" x2="131.539" y2="78.562" style="fill:none;stroke:#000;stroke-linecap:square;stroke-miterlimit:10;stroke-width:2px"/><polyline points="134.963 76.118 134.571 76.02 134.148 75.987 133.756 76.02 133.365 76.118 132.974 76.248 132.615 76.476 132.322 76.737 132.028 77.03 131.832 77.389 131.669 77.747 131.572 78.171 131.539 78.562" style="fill:none;stroke:#000;stroke-linecap:square;stroke-miterlimit:10;stroke-width:2px"/><line x1="134.995" y1="76.118" x2="365.657" y2="120.582" style="fill:none;stroke:#000;stroke-linecap:square;stroke-miterlimit:10;stroke-width:2px"/><polyline points="368.428 123.973 368.396 123.516 368.298 123.027 368.135 122.604 367.907 122.18 367.646 121.789 367.32 121.463 366.961 121.169 366.537 120.908 366.113 120.745 365.657 120.615" style="fill:none;stroke:#000;stroke-linecap:square;stroke-miterlimit:10;stroke-width:2px"/><line x1="368.461" y1="123.973" x2="368.461" y2="202.699" style="fill:none;stroke:#000;stroke-linecap:square;stroke-miterlimit:10;stroke-width:2px"/><polyline points="364.353 206.057 364.842 206.122 365.363 206.089 365.852 206.024 366.342 205.861 366.765 205.633 367.189 205.34 367.548 204.981 367.841 204.59 368.102 204.166 368.298 203.677 368.396 203.188 368.428 202.699" style="fill:none;stroke:#000;stroke-linecap:square;stroke-miterlimit:10;stroke-width:2px"/><line x1="364.353" y1="206.089" x2="283.031" y2="190.409" style="fill:none;stroke:#000;stroke-linecap:square;stroke-miterlimit:10;stroke-width:2px"/><polyline points="283.031 190.442 282.737 190.409 282.477 190.409 282.216 190.474 281.955 190.572 281.727 190.735 281.498 190.898" style="fill:none;stroke:#000;stroke-linecap:square;stroke-miterlimit:10;stroke-width:2px"/><line x1="281.498" y1="190.866" x2="269.792" y2="202.569" style="fill:none;stroke:#000;stroke-linecap:square;stroke-miterlimit:10;stroke-width:2px"/><polyline points="266.923 201.688 267.021 201.982 267.151 202.275 267.347 202.503 267.543 202.699 267.803 202.862 268.097 202.992 268.39 203.058 268.684 203.058 269.01 202.992 269.271 202.895 269.564 202.764 269.792 202.569" style="fill:none;stroke:#000;stroke-linecap:square;stroke-miterlimit:10;stroke-width:2px"/><polyline points="266.858 201.688 266.695 200.971 266.434 200.254 266.075 199.57 265.684 198.918 265.227 198.298 264.706 197.744 264.119 197.255 263.499 196.799 262.815 196.44 262.13 196.147 261.412 195.918 260.662 195.755 259.88 195.658 259.13 195.658 258.38 195.755 257.63 195.886 256.88 196.114 256.195 196.407 255.511 196.799 254.891 197.222 254.304 197.711 253.782 198.266 253.326 198.885 252.902 199.537 252.576 200.221 252.315 200.906 252.119 201.656 251.989 202.406" style="fill:none;stroke:#000;stroke-linecap:square;stroke-miterlimit:10;stroke-width:2px"/><polyline points="251.109 203.155 251.304 203.123 251.5 203.058 251.663 202.927 251.826 202.797 251.891 202.601 251.956 202.406" style="fill:none;stroke:#000;stroke-linecap:square;stroke-miterlimit:10;stroke-width:2px"/><line x1="251.109" y1="203.188" x2="197.503" y2="203.188" style="fill:none;stroke:#000;stroke-linecap:square;stroke-miterlimit:10;stroke-width:2px"/><polyline points="197.503 203.221 197.177 203.253 196.851 203.351 196.557 203.514 196.296 203.71 196.101 203.97 195.938 204.264 195.84 204.59 195.807 204.916" style="fill:none;stroke:#000;stroke-linecap:square;stroke-miterlimit:10;stroke-width:2px"/><line x1="195.775" y1="204.916" x2="195.775" y2="306.787" style="fill:none;stroke:#000;stroke-linecap:square;stroke-miterlimit:10;stroke-width:2px"/><polyline points="195.807 306.787 195.84 307.113 195.938 307.439 196.101 307.733 196.296 307.993 196.557 308.189 196.851 308.352 197.177 308.45 197.503 308.482" style="fill:none;stroke:#000;stroke-linecap:square;stroke-miterlimit:10;stroke-width:2px"/><line x1="197.503" y1="308.515" x2="251.109" y2="308.515" style="fill:none;stroke:#000;stroke-linecap:square;stroke-miterlimit:10;stroke-width:2px"/><polyline points="251.956 309.297 251.891 309.102 251.826 308.906 251.663 308.776 251.5 308.645 251.304 308.58 251.109 308.548" style="fill:none;stroke:#000;stroke-linecap:square;stroke-miterlimit:10;stroke-width:2px"/><polyline points="251.989 309.297 252.119 310.047 252.315 310.797 252.576 311.481 252.902 312.166 253.326 312.818 253.782 313.437 254.304 313.992 254.891 314.481 255.511 314.904 256.195 315.296 256.88 315.589 257.63 315.817 258.38 315.948 259.13 316.045 259.88 316.045 260.662 315.948 261.412 315.785 262.13 315.556 262.815 315.263 263.499 314.904 264.119 314.448 264.706 313.959 265.227 313.405 265.684 312.785 266.075 312.133 266.434 311.449 266.695 310.732 266.858 310.015" style="fill:none;stroke:#000;stroke-linecap:square;stroke-miterlimit:10;stroke-width:2px"/><polyline points="269.792 309.134 269.564 308.939 269.271 308.808 269.01 308.711 268.684 308.645 268.39 308.645 268.097 308.711 267.803 308.841 267.543 309.004 267.347 309.2 267.151 309.428 267.021 309.721 266.923 310.015" style="fill:none;stroke:#000;stroke-linecap:square;stroke-miterlimit:10;stroke-width:2px"/><line x1="269.792" y1="309.134" x2="281.759" y2="321.098" style="fill:none;stroke:#000;stroke-linecap:square;stroke-miterlimit:10;stroke-width:2px"/><polyline points="281.792 321.066 281.987 321.229 282.216 321.359 282.444 321.457 282.672 321.522" style="fill:none;stroke:#000;stroke-linecap:square;stroke-miterlimit:10;stroke-width:2px"/><line x1="282.672" y1="321.555" x2="365.657" y2="337.561" style="fill:none;stroke:#000;stroke-linecap:square;stroke-miterlimit:10;stroke-width:2px"/><polyline points="368.428 340.951 368.396 340.494 368.298 340.005 368.135 339.582 367.907 339.158 367.646 338.767 367.32 338.441 366.961 338.147 366.537 337.887 366.113 337.724 365.657 337.593" style="fill:none;stroke:#000;stroke-linecap:square;stroke-miterlimit:10;stroke-width:2px"/><line x1="368.461" y1="340.951" x2="368.461" y2="420.59" style="fill:none;stroke:#000;stroke-linecap:square;stroke-miterlimit:10;stroke-width:2px"/><polyline points="364.385 423.948 364.874 424.013 365.363 423.98 365.852 423.915 366.342 423.752 366.798 423.524 367.189 423.23 367.548 422.872 367.874 422.481 368.102 422.057 368.298 421.568 368.396 421.079 368.428 420.59" style="fill:none;stroke:#000;stroke-linecap:square;stroke-miterlimit:10;stroke-width:2px"/><line x1="364.385" y1="424.013" x2="138.06" y2="381.928" style="fill:none;stroke:#000;stroke-linecap:square;stroke-miterlimit:10;stroke-width:2px"/><polyline points="135.289 378.537 135.321 379.026 135.419 379.483 135.582 379.907 135.811 380.33 136.071 380.721 136.397 381.08 136.789 381.373 137.18 381.602 137.637 381.797 138.093 381.895" style="fill:none;stroke:#000;stroke-linecap:square;stroke-miterlimit:10;stroke-width:2px"/><line x1="135.256" y1="378.537" x2="135.256" y2="373.256" style="fill:none;stroke:#000;stroke-linecap:square;stroke-miterlimit:10;stroke-width:2px"/><polyline points="139.332 369.899 138.843 369.833 138.354 369.866 137.865 369.931 137.376 370.094 136.919 370.322 136.528 370.616 136.169 370.974 135.843 371.366 135.615 371.789 135.419 372.278 135.321 372.767 135.289 373.256" style="fill:none;stroke:#000;stroke-linecap:square;stroke-miterlimit:10;stroke-width:2px"/><line x1="139.332" y1="369.866" x2="352.288" y2="409.474" style="fill:none;stroke:#000;stroke-linecap:square;stroke-miterlimit:10;stroke-width:2px"/><polyline points="352.288 409.409 352.777 409.474 353.266 409.441 353.755 409.376 354.244 409.213 354.701 408.985 355.092 408.691 355.451 408.333 355.777 407.942 356.005 407.518 356.201 407.029 356.299 406.54 356.331 406.051" style="fill:none;stroke:#000;stroke-linecap:square;stroke-miterlimit:10;stroke-width:2px"/><line x1="356.364" y1="406.051" x2="356.364" y2="350.926" style="fill:none;stroke:#000;stroke-linecap:square;stroke-miterlimit:10;stroke-width:2px"/><polyline points="356.331 350.926 356.299 350.47 356.201 349.981 356.038 349.557 355.81 349.133 355.549 348.742 355.223 348.416 354.864 348.123 354.44 347.862 354.016 347.699 353.56 347.568" style="fill:none;stroke:#000;stroke-linecap:square;stroke-miterlimit:10;stroke-width:2px"/><line x1="353.56" y1="347.536" x2="276.738" y2="332.736" style="fill:none;stroke:#000;stroke-linecap:square;stroke-miterlimit:10;stroke-width:2px"/><polyline points="275.857 332.247 276.053 332.41 276.281 332.54 276.509 332.638 276.738 332.703" style="fill:none;stroke:#000;stroke-linecap:square;stroke-miterlimit:10;stroke-width:2px"/><line x1="275.825" y1="332.247" x2="270.086" y2="326.51" style="fill:none;stroke:#000;stroke-linecap:square;stroke-miterlimit:10;stroke-width:2px"/><polyline points="270.053 326.51 269.858 326.347 269.629 326.216 269.369 326.118 269.14 326.053 268.879 326.021 268.619 326.053 268.358 326.086 268.097 326.184" style="fill:none;stroke:#000;stroke-linecap:square;stroke-miterlimit:10;stroke-width:2px"/><polyline points="244.522 321.196 245.305 322.076 246.152 322.891 247.033 323.673 247.978 324.391 248.924 325.075 249.967 325.662 251.011 326.216 252.087 326.673 253.195 327.096 254.304 327.455 255.445 327.716 256.619 327.944 257.793 328.074 258.967 328.139 260.141 328.139 261.315 328.042 262.488 327.911 263.662 327.683 264.804 327.422 265.912 327.064 267.021 326.64 268.097 326.151" style="fill:none;stroke:#000;stroke-linecap:square;stroke-miterlimit:10;stroke-width:2px"/><polyline points="244.489 321.229 244.294 321.066 244.098 320.903 243.903 320.805 243.674 320.707 243.413 320.674 243.185 320.642" style="fill:none;stroke:#000;stroke-linecap:square;stroke-miterlimit:10;stroke-width:2px"/><line x1="243.185" y1="320.609" x2="187.166" y2="320.609" style="fill:none;stroke:#000;stroke-linecap:square;stroke-miterlimit:10;stroke-width:2px"/><polyline points="183.743 317.154 183.775 317.61 183.873 318.034 184.004 318.458 184.199 318.849 184.46 319.24 184.754 319.566 185.08 319.859 185.471 320.12 185.862 320.316 186.286 320.446 186.71 320.544 187.166 320.577" style="fill:none;stroke:#000;stroke-linecap:square;stroke-miterlimit:10;stroke-width:2px"/><line x1="183.71" y1="317.154" x2="183.71" y2="224.019" style="fill:none;stroke:#000;stroke-linecap:square;stroke-miterlimit:10;stroke-width:2px"/><polyline points="183.677 224.019 183.645 223.693 183.547 223.367 183.384 223.073 183.188 222.812 182.928 222.617 182.634 222.454 182.308 222.356 181.982 222.324" style="fill:none;stroke:#000;stroke-linecap:square;stroke-miterlimit:10;stroke-width:2px"/><line x1="181.982" y1="222.291" x2="171.482" y2="222.291" style="fill:none;stroke:#000;stroke-linecap:square;stroke-miterlimit:10;stroke-width:2px"/><polyline points="171.482 222.324 171.156 222.356 170.83 222.454 170.537 222.617 170.276 222.812 170.08 223.073 169.917 223.367 169.82 223.693 169.787 224.019" style="fill:none;stroke:#000;stroke-linecap:square;stroke-miterlimit:10;stroke-width:2px"/><line x1="169.754" y1="224.019" x2="169.754" y2="262.388" style="fill:none;stroke:#000;stroke-linecap:square;stroke-miterlimit:10;stroke-width:2px"/><polyline points="166.396 265.745 166.82 265.713 167.276 265.615 167.667 265.484 168.091 265.289 168.45 265.061 168.776 264.767 169.07 264.441 169.298 264.05 169.493 263.659 169.624 263.268 169.722 262.811 169.754 262.388" style="fill:none;stroke:#000;stroke-linecap:square;stroke-miterlimit:10;stroke-width:2px"/><line x1="166.396" y1="265.778" x2="159.972" y2="265.778" style="fill:none;stroke:#000;stroke-linecap:square;stroke-miterlimit:10;stroke-width:2px"/><polyline points="157.396 263.203 157.429 263.594 157.527 263.985 157.69 264.376 157.885 264.702 158.146 265.028 158.472 265.289 158.798 265.484 159.19 265.647 159.581 265.745 159.972 265.778" style="fill:none;stroke:#000;stroke-linecap:square;stroke-miterlimit:10;stroke-width:2px"/><line x1="157.364" y1="263.203" x2="157.364" y2="213.359" style="fill:none;stroke:#000;stroke-linecap:square;stroke-miterlimit:10;stroke-width:2px"/><polyline points="159.092 211.664 158.766 211.696 158.44 211.794 158.146 211.957 157.885 212.153 157.69 212.413 157.527 212.707 157.429 213.033 157.396 213.359" style="fill:none;stroke:#000;stroke-linecap:square;stroke-miterlimit:10;stroke-width:2px"/><line x1="159.092" y1="211.631" x2="182.015" y2="211.631" style="fill:none;stroke:#000;stroke-linecap:square;stroke-miterlimit:10;stroke-width:2px"/><polyline points="182.015 211.599 182.341 211.566 182.667 211.468 182.96 211.305 183.221 211.109 183.417 210.849 183.58 210.555 183.677 210.229 183.71 209.903" style="fill:none;stroke:#000;stroke-linecap:square;stroke-miterlimit:10;stroke-width:2px"/><line x1="183.743" y1="209.903" x2="183.775" y2="194.549" style="fill:none;stroke:#000;stroke-linecap:square;stroke-miterlimit:10;stroke-width:2px"/><polyline points="187.199 191.126 186.743 191.159 186.319 191.257 185.895 191.387 185.503 191.583 185.112 191.844 184.786 192.137 184.493 192.463 184.232 192.822 184.036 193.245 183.906 193.669 183.808 194.093 183.775 194.549" style="fill:none;stroke:#000;stroke-linecap:square;stroke-miterlimit:10;stroke-width:2px"/><line x1="187.199" y1="191.094" x2="243.185" y2="191.094" style="fill:none;stroke:#000;stroke-linecap:square;stroke-miterlimit:10;stroke-width:2px"/><polyline points="243.185 191.061 243.413 191.029 243.674 190.996 243.903 190.898 244.098 190.8 244.294 190.637 244.489 190.474" style="fill:none;stroke:#000;stroke-linecap:square;stroke-miterlimit:10;stroke-width:2px"/><polyline points="268.097 185.552 267.021 185.063 265.912 184.639 264.804 184.281 263.662 184.02 262.488 183.792 261.315 183.661 260.141 183.563 258.967 183.563 257.793 183.629 256.619 183.759 255.445 183.987 254.304 184.248 253.195 184.607 252.087 185.03 251.011 185.487 249.967 186.041 248.924 186.628 247.978 187.312 247.033 188.03 246.152 188.812 245.305 189.627 244.522 190.507" style="fill:none;stroke:#000;stroke-linecap:square;stroke-miterlimit:10;stroke-width:2px"/><polyline points="268.097 185.519 268.358 185.617 268.619 185.65 268.879 185.682 269.14 185.65 269.369 185.585 269.629 185.487 269.858 185.356 270.053 185.193" style="fill:none;stroke:#000;stroke-linecap:square;stroke-miterlimit:10;stroke-width:2px"/><line x1="270.086" y1="185.193" x2="277.488" y2="177.793" style="fill:none;stroke:#000;stroke-linecap:square;stroke-miterlimit:10;stroke-width:2px"/><polyline points="279.02 177.37 278.727 177.337 278.466 177.337 278.205 177.402 277.944 177.5 277.716 177.663 277.488 177.826" style="fill:none;stroke:#000;stroke-linecap:square;stroke-miterlimit:10;stroke-width:2px"/><line x1="279.02" y1="177.337" x2="352.255" y2="191.452" style="fill:none;stroke:#000;stroke-linecap:square;stroke-miterlimit:10;stroke-width:2px"/><polyline points="352.255 191.42 352.744 191.485 353.266 191.452 353.755 191.387 354.244 191.224 354.668 190.996 355.092 190.703 355.451 190.344 355.744 189.953 356.005 189.529 356.201 189.04 356.299 188.551 356.331 188.062" style="fill:none;stroke:#000;stroke-linecap:square;stroke-miterlimit:10;stroke-width:2px"/><line x1="356.364" y1="188.062" x2="356.364" y2="133.948" style="fill:none;stroke:#000;stroke-linecap:square;stroke-miterlimit:10;stroke-width:2px"/><polyline points="356.331 133.948 356.299 133.492 356.201 133.003 356.038 132.579 355.81 132.155 355.549 131.764 355.223 131.438 354.864 131.144 354.44 130.884 354.016 130.721 353.56 130.59" style="fill:none;stroke:#000;stroke-linecap:square;stroke-miterlimit:10;stroke-width:2px"/><polyline points="353.56 130.558 167.178 94.634 145.919 91.406" style="fill:none;stroke:#000;stroke-linecap:square;stroke-miterlimit:10;stroke-width:2px"/><polyline points="145.919 91.472 145.625 91.439 145.332 91.472 145.038 91.537 144.777 91.667 144.549 91.863 144.354 92.058 144.19 92.287 144.06 92.547 143.995 92.841 143.962 93.134" style="fill:none;stroke:#000;stroke-linecap:square;stroke-miterlimit:10;stroke-width:2px"/><line x1="143.93" y1="93.134" x2="143.93" y2="128.504" style="fill:none;stroke:#000;stroke-linecap:square;stroke-miterlimit:10;stroke-width:2px"/></svg>