<svg id="Capa_1" data-name="Capa 1" xmlns="http://www.w3.org/2000/svg" viewBox="0 0 500 500"><rect width="500" height="500" style="fill:none"/><polyline points="158.065 263.3 158.097 263.692 158.195 264.083 158.358 264.474 158.554 264.8 158.815 265.126 159.141 265.387 159.467 265.582 159.858 265.745 160.249 265.843 160.641 265.876" style="fill:none;stroke:#000;stroke-linecap:square;stroke-miterlimit:10;stroke-width:2px"/><line x1="160.641" y1="265.908" x2="167.064" y2="265.908" style="fill:none;stroke:#000;stroke-linecap:square;stroke-miterlimit:10;stroke-width:2px"/><polyline points="167.064 265.876 167.488 265.843 167.945 265.745 168.336 265.615 168.76 265.419 169.118 265.191 169.445 264.898 169.738 264.572 169.966 264.18 170.162 263.789 170.292 263.398 170.39 262.942 170.423 262.518" style="fill:none;stroke:#000;stroke-linecap:square;stroke-miterlimit:10;stroke-width:2px"/><line x1="170.423" y1="262.518" x2="170.423" y2="224.149" style="fill:none;stroke:#000;stroke-linecap:square;stroke-miterlimit:10;stroke-width:2px"/><polyline points="172.151 222.454 171.825 222.487 171.499 222.584 171.205 222.747 170.944 222.943 170.749 223.204 170.586 223.497 170.488 223.823 170.455 224.149" style="fill:none;stroke:#000;stroke-linecap:square;stroke-miterlimit:10;stroke-width:2px"/><line x1="172.151" y1="222.421" x2="182.716" y2="222.421" style="fill:none;stroke:#000;stroke-linecap:square;stroke-miterlimit:10;stroke-width:2px"/><polyline points="184.411 224.117 184.379 223.79 184.281 223.497 184.118 223.204 183.889 222.943 183.661 222.747 183.368 222.584 183.042 222.487 182.716 222.454" style="fill:none;stroke:#000;stroke-linecap:square;stroke-miterlimit:10;stroke-width:2px"/><line x1="184.411" y1="224.117" x2="184.379" y2="373.974" style="fill:none;stroke:#000;stroke-linecap:square;stroke-miterlimit:10;stroke-width:2px"/><polyline points="180.466 377.299 180.955 377.331 181.444 377.299 181.9 377.201 182.357 377.038 182.781 376.81 183.172 376.516 183.531 376.19 183.792 375.799 184.052 375.375 184.216 374.919 184.313 374.463 184.346 373.974" style="fill:none;stroke:#000;stroke-linecap:square;stroke-miterlimit:10;stroke-width:2px"/><line x1="180.466" y1="377.331" x2="139.348" y2="371.007" style="fill:none;stroke:#000;stroke-linecap:square;stroke-miterlimit:10;stroke-width:2px"/><polyline points="139.348 371.007 138.957 370.974 138.566 370.974 138.207 371.04 137.816 371.17 137.457 371.333 137.131 371.529 136.838 371.757 136.577 372.05 136.349 372.376 136.153 372.702 136.022 373.061 135.925 373.452" style="fill:none;stroke:#000;stroke-linecap:square;stroke-miterlimit:10;stroke-width:2px"/><line x1="135.925" y1="373.452" x2="135.925" y2="379.385" style="fill:none;stroke:#000;stroke-linecap:square;stroke-miterlimit:10;stroke-width:2px"/><polyline points="135.925 379.385 135.957 379.776 136.055 380.167 136.185 380.526 136.414 380.885 136.642 381.178 136.968 381.439 137.294 381.667 137.653 381.83" style="fill:none;stroke:#000;stroke-linecap:square;stroke-miterlimit:10;stroke-width:2px"/><polyline points="137.653 381.83 196.476 392.783 210.855 382.906" style="fill:none;stroke:#000;stroke-linecap:square;stroke-miterlimit:10;stroke-width:2px"/><polyline points="210.823 382.873 211.084 382.677 211.279 382.449 211.41 382.188 211.508 381.895 211.573 381.602 211.573 381.276 211.508 380.982 211.377 380.689 211.214 380.461 211.018 380.233 210.79 380.037 210.497 379.907" style="fill:none;stroke:#000;stroke-linecap:square;stroke-miterlimit:10;stroke-width:2px"/><polyline points="213.953 365.367 213.17 365.335 212.421 365.4 211.671 365.53 210.921 365.726 210.236 366.019 209.551 366.345 208.899 366.769 208.312 367.258 207.758 367.78 207.269 368.399 206.845 369.019 206.486 369.703 206.225 370.388 205.997 371.137 205.867 371.887 205.801 372.637 205.834 373.419 205.899 374.169 206.095 374.919 206.323 375.636 206.649 376.321 207.04 377.005 207.497 377.625 207.986 378.179 208.573 378.7 209.16 379.157 209.845 379.548 210.529 379.841" style="fill:none;stroke:#000;stroke-linecap:square;stroke-miterlimit:10;stroke-width:2px"/><polyline points="213.953 365.302 214.149 365.302 214.344 365.237 214.54 365.139 214.67 364.976 214.801 364.813 214.866 364.618" style="fill:none;stroke:#000;stroke-linecap:square;stroke-miterlimit:10;stroke-width:2px"/><line x1="214.866" y1="364.618" x2="224.322" y2="313.666" style="fill:none;stroke:#000;stroke-linecap:square;stroke-miterlimit:10;stroke-width:2px"/><polyline points="228.333 310.927 227.909 310.862 227.452 310.862 226.996 310.927 226.572 311.058 226.148 311.221 225.789 311.449 225.431 311.742 225.105 312.068 224.844 312.427 224.616 312.818 224.452 313.209 224.355 313.666" style="fill:none;stroke:#000;stroke-linecap:square;stroke-miterlimit:10;stroke-width:2px"/><line x1="228.365" y1="310.895" x2="325.11" y2="328.889" style="fill:none;stroke:#000;stroke-linecap:square;stroke-miterlimit:10;stroke-width:2px"/><polyline points="327.816 332.899 327.882 332.475 327.882 332.019 327.816 331.562 327.686 331.139 327.523 330.715 327.295 330.356 327.001 329.998 326.675 329.672 326.317 329.411 325.925 329.183 325.534 329.02 325.077 328.922" style="fill:none;stroke:#000;stroke-linecap:square;stroke-miterlimit:10;stroke-width:2px"/><line x1="327.882" y1="332.899" x2="318.393" y2="383.884" style="fill:none;stroke:#000;stroke-linecap:square;stroke-miterlimit:10;stroke-width:2px"/><polyline points="318.393 383.884 318.393 384.112 318.426 384.307 318.523 384.503 318.654 384.666 318.817 384.764 319.013 384.862" style="fill:none;stroke:#000;stroke-linecap:square;stroke-miterlimit:10;stroke-width:2px"/><polyline points="316.958 399.629 317.741 399.564 318.491 399.466 319.208 399.238 319.926 398.977 320.61 398.618 321.262 398.227 321.849 397.738 322.404 397.217 322.893 396.63 323.317 395.978 323.675 395.293 323.969 394.609 324.197 393.859 324.328 393.109 324.393 392.359 324.36 391.61 324.295 390.827 324.132 390.077 323.871 389.36 323.578 388.676 323.186 388.024 322.73 387.404 322.241 386.817 321.654 386.296 321.067 385.84 320.415 385.448 319.697 385.122 318.98 384.862" style="fill:none;stroke:#000;stroke-linecap:square;stroke-miterlimit:10;stroke-width:2px"/><polyline points="316.958 399.694 316.665 399.727 316.371 399.824 316.111 399.955 315.85 400.118 315.654 400.346 315.491 400.607 315.361 400.9 315.295 401.194 315.295 401.487 315.361 401.78 315.458 402.074 315.589 402.335" style="fill:none;stroke:#000;stroke-linecap:square;stroke-miterlimit:10;stroke-width:2px"/><line x1="315.589" y1="402.367" x2="324.654" y2="415.57" style="fill:none;stroke:#000;stroke-linecap:square;stroke-miterlimit:10;stroke-width:2px"/><polyline points="324.654 415.537 324.947 415.896 325.273 416.222 325.632 416.482 326.023 416.711 326.414 416.874 326.871 416.971" style="fill:none;stroke:#000;stroke-linecap:square;stroke-miterlimit:10;stroke-width:2px"/><line x1="326.871" y1="417.037" x2="363.717" y2="423.882" style="fill:none;stroke:#000;stroke-linecap:square;stroke-miterlimit:10;stroke-width:2px"/><polyline points="363.717 423.85 364.206 423.915 364.695 423.882 365.184 423.817 365.673 423.654 366.13 423.426 366.521 423.133 366.88 422.774 367.206 422.383 367.434 421.959 367.63 421.47 367.727 420.981 367.76 420.492" style="fill:none;stroke:#000;stroke-linecap:square;stroke-miterlimit:10;stroke-width:2px"/><line x1="367.793" y1="420.492" x2="367.793" y2="123.842" style="fill:none;stroke:#000;stroke-linecap:square;stroke-miterlimit:10;stroke-width:2px"/><polyline points="367.76 123.842 367.727 123.386 367.63 122.897 367.466 122.473 367.238 122.049 366.977 121.658 366.651 121.332 366.293 121.039 365.869 120.778 365.445 120.615 364.988 120.485" style="fill:none;stroke:#000;stroke-linecap:square;stroke-miterlimit:10;stroke-width:2px"/><line x1="364.988" y1="120.419" x2="135.631" y2="76.215" style="fill:none;stroke:#000;stroke-linecap:square;stroke-miterlimit:10;stroke-width:2px"/><polyline points="135.631 76.215 135.24 76.118 134.816 76.085 134.425 76.118 134.033 76.215 133.642 76.346 133.283 76.574 132.99 76.835 132.697 77.128 132.501 77.487 132.338 77.845 132.24 78.269 132.207 78.66" style="fill:none;stroke:#000;stroke-linecap:square;stroke-miterlimit:10;stroke-width:2px"/><line x1="132.207" y1="78.66" x2="132.207" y2="127.787" style="fill:none;stroke:#000;stroke-linecap:square;stroke-miterlimit:10;stroke-width:2px"/><polyline points="132.207 127.787 132.24 128.178 132.338 128.569 132.501 128.96 132.697 129.286 132.957 129.612 133.283 129.873 133.61 130.069 134.001 130.232 134.392 130.33 134.783 130.362" style="fill:none;stroke:#000;stroke-linecap:square;stroke-miterlimit:10;stroke-width:2px"/><line x1="134.783" y1="130.362" x2="142.87" y2="130.362" style="fill:none;stroke:#000;stroke-linecap:square;stroke-miterlimit:10;stroke-width:2px"/><polyline points="142.87 130.33 143.196 130.297 143.522 130.199 143.816 130.036 144.076 129.841 144.272 129.58 144.435 129.286 144.533 128.96 144.565 128.634" style="fill:none;stroke:#000;stroke-linecap:square;stroke-miterlimit:10;stroke-width:2px"/><line x1="144.598" y1="128.634" x2="144.598" y2="93.232" style="fill:none;stroke:#000;stroke-linecap:square;stroke-miterlimit:10;stroke-width:2px"/><polyline points="146.587 91.569 146.294 91.537 146 91.569 145.707 91.635 145.446 91.765 145.218 91.961 145.022 92.156 144.859 92.384 144.729 92.645 144.663 92.939 144.631 93.232" style="fill:none;stroke:#000;stroke-linecap:square;stroke-miterlimit:10;stroke-width:2px"/><polyline points="146.587 91.537 167.847 94.732 352.891 130.427" style="fill:none;stroke:#000;stroke-linecap:square;stroke-miterlimit:10;stroke-width:2px"/><polyline points="355.663 133.818 355.63 133.361 355.532 132.872 355.369 132.448 355.141 132.025 354.88 131.633 354.554 131.308 354.195 131.014 353.772 130.753 353.348 130.59 352.891 130.46" style="fill:none;stroke:#000;stroke-linecap:square;stroke-miterlimit:10;stroke-width:2px"/><line x1="355.695" y1="133.818" x2="355.695" y2="405.92" style="fill:none;stroke:#000;stroke-linecap:square;stroke-miterlimit:10;stroke-width:2px"/><polyline points="351.62 409.278 352.109 409.343 352.598 409.311 353.087 409.246 353.576 409.083 354.032 408.854 354.424 408.561 354.782 408.202 355.108 407.811 355.337 407.387 355.532 406.898 355.63 406.409 355.663 405.92" style="fill:none;stroke:#000;stroke-linecap:square;stroke-miterlimit:10;stroke-width:2px"/><line x1="351.62" y1="409.343" x2="336.522" y2="406.54" style="fill:none;stroke:#000;stroke-linecap:square;stroke-miterlimit:10;stroke-width:2px"/><polyline points="334.142 401.487 333.947 401.911 333.816 402.335 333.718 402.791 333.718 403.247 333.784 403.704 333.881 404.16 334.044 404.584 334.273 404.975 334.566 405.366 334.892 405.692 335.251 405.953 335.642 406.181 336.066 406.377 336.522 406.475" style="fill:none;stroke:#000;stroke-linecap:square;stroke-miterlimit:10;stroke-width:2px"/><polyline points="334.11 401.454 334.631 400.444 335.055 399.433 335.446 398.357 335.773 397.282 336.066 396.206 336.262 395.098 336.392 393.989 336.49 392.848 336.49 391.74 336.425 390.599 336.327 389.491 336.131 388.382 335.903 387.274 335.577 386.198 335.218 385.155 334.794 384.112 334.305 383.101 333.751 382.091 333.164 381.145 332.512 380.233" style="fill:none;stroke:#000;stroke-linecap:square;stroke-miterlimit:10;stroke-width:2px"/><polyline points="331.892 377.527 331.827 377.983 331.827 378.472 331.925 378.929 332.055 379.385 332.251 379.809 332.512 380.2" style="fill:none;stroke:#000;stroke-linecap:square;stroke-miterlimit:10;stroke-width:2px"/><line x1="331.86" y1="377.527" x2="341.968" y2="323.217" style="fill:none;stroke:#000;stroke-linecap:square;stroke-miterlimit:10;stroke-width:2px"/><polyline points="341.935 323.217 342 322.793 342 322.337 341.935 321.881 341.805 321.457 341.642 321.033 341.414 320.674 341.12 320.316 340.794 319.99 340.435 319.729 340.044 319.501 339.653 319.338 339.196 319.24" style="fill:none;stroke:#000;stroke-linecap:square;stroke-miterlimit:10;stroke-width:2px"/><line x1="339.196" y1="319.207" x2="218.681" y2="296.779" style="fill:none;stroke:#000;stroke-linecap:square;stroke-miterlimit:10;stroke-width:2px"/><polyline points="218.681 296.845 218.257 296.779 217.801 296.779 217.344 296.845 216.92 296.975 216.496 297.138 216.138 297.366 215.779 297.66 215.453 297.986 215.192 298.344 214.964 298.735 214.801 299.127 214.703 299.583" style="fill:none;stroke:#000;stroke-linecap:square;stroke-miterlimit:10;stroke-width:2px"/><line x1="214.67" y1="299.55" x2="205.019" y2="351.415" style="fill:none;stroke:#000;stroke-linecap:square;stroke-miterlimit:10;stroke-width:2px"/><polyline points="196.476 350.633 196.508 351.154 196.606 351.676 196.769 352.197 196.997 352.654 197.258 353.11 197.584 353.534 197.976 353.893 198.4 354.219 198.856 354.479 199.345 354.708 199.867 354.838 200.389 354.903 200.91 354.936 201.432 354.871 201.954 354.773 202.475 354.61 202.932 354.349 203.388 354.056 203.78 353.73 204.138 353.338 204.432 352.882 204.693 352.426 204.888 351.937 205.019 351.415" style="fill:none;stroke:#000;stroke-linecap:square;stroke-miterlimit:10;stroke-width:2px"/><line x1="196.476" y1="350.633" x2="196.508" y2="215.152" style="fill:none;stroke:#000;stroke-linecap:square;stroke-miterlimit:10;stroke-width:2px"/><polyline points="196.476 215.152 196.443 214.728 196.345 214.272 196.215 213.88 196.019 213.489 195.791 213.098 195.497 212.772 195.171 212.479 194.813 212.251 194.389 212.055 193.998 211.925 193.541 211.827 193.117 211.794" style="fill:none;stroke:#000;stroke-linecap:square;stroke-miterlimit:10;stroke-width:2px"/><line x1="193.117" y1="211.762" x2="159.76" y2="211.762" style="fill:none;stroke:#000;stroke-linecap:square;stroke-miterlimit:10;stroke-width:2px"/><polyline points="159.76 211.794 159.434 211.827 159.108 211.925 158.815 212.087 158.554 212.283 158.358 212.544 158.195 212.837 158.097 213.163 158.065 213.489" style="fill:none;stroke:#000;stroke-linecap:square;stroke-miterlimit:10;stroke-width:2px"/><line x1="158.032" y1="213.489" x2="158.032" y2="263.3" style="fill:none;stroke:#000;stroke-linecap:square;stroke-miterlimit:10;stroke-width:2px"/></svg>