<svg id="Capa_1" data-name="Capa 1" xmlns="http://www.w3.org/2000/svg" viewBox="0 0 500 500"><rect width="500" height="500" style="fill:none"/><line x1="218.42" y1="386.451" x2="243.299" y2="364.859" style="fill:none;stroke:#000;stroke-linecap:square;stroke-miterlimit:10;stroke-width:2px"/><polyline points="243.267 364.826 243.43 364.663 243.56 364.5 243.691 364.304 243.756 364.109 243.821 363.88 243.854 363.685" style="fill:none;stroke:#000;stroke-linecap:square;stroke-miterlimit:10;stroke-width:2px"/><line x1="243.886" y1="363.685" x2="245.06" y2="346.952" style="fill:none;stroke:#000;stroke-linecap:square;stroke-miterlimit:10;stroke-width:2px"/><polyline points="245.027 346.985 245.027 346.659 244.962 346.365 244.832 346.072 244.669 345.844 244.473 345.615 244.245 345.419 243.951 345.289 243.658 345.191 243.365 345.159 243.071 345.191 242.778 345.256 242.484 345.387" style="fill:none;stroke:#000;stroke-linecap:square;stroke-miterlimit:10;stroke-width:2px"/><polyline points="233.224 333.612 232.735 334.199 232.311 334.819 231.952 335.504 231.659 336.189 231.43 336.939 231.267 337.689 231.202 338.44 231.202 339.222 231.3 339.973 231.463 340.723 231.691 341.44 231.985 342.125 232.376 342.81 232.832 343.43 233.322 344.017 233.876 344.539 234.495 344.995 235.148 345.387 235.832 345.713 236.55 345.974 237.3 346.17 238.05 346.268 238.799 346.3 239.582 346.268 240.332 346.137 241.049 345.941 241.767 345.648 242.451 345.322" style="fill:none;stroke:#000;stroke-linecap:square;stroke-miterlimit:10;stroke-width:2px"/><polyline points="233.224 333.58 233.354 333.417 233.419 333.221 233.452 332.993 233.419 332.797 233.354 332.601 233.256 332.438" style="fill:none;stroke:#000;stroke-linecap:square;stroke-miterlimit:10;stroke-width:2px"/><line x1="233.256" y1="332.438" x2="198.139" y2="291.961" style="fill:none;stroke:#000;stroke-linecap:square;stroke-miterlimit:10;stroke-width:2px"/><polyline points="198.334 289.547 198.106 289.776 197.91 290.069 197.813 290.363 197.747 290.689 197.747 291.048 197.845 291.341 197.976 291.668 198.171 291.928" style="fill:none;stroke:#000;stroke-linecap:square;stroke-miterlimit:10;stroke-width:2px"/><line x1="198.302" y1="289.515" x2="275.221" y2="222.684" style="fill:none;stroke:#000;stroke-linecap:square;stroke-miterlimit:10;stroke-width:2px"/><polyline points="277.634 222.879 277.406 222.651 277.113 222.455 276.819 222.358 276.493 222.292 276.134 222.292 275.841 222.39 275.515 222.521 275.254 222.716" style="fill:none;stroke:#000;stroke-linecap:square;stroke-miterlimit:10;stroke-width:2px"/><line x1="277.667" y1="222.879" x2="312.785" y2="263.356" style="fill:none;stroke:#000;stroke-linecap:square;stroke-miterlimit:10;stroke-width:2px"/><polyline points="312.785 263.324 312.948 263.454 313.143 263.552 313.339 263.617 313.535 263.617 313.73 263.552 313.926 263.454" style="fill:none;stroke:#000;stroke-linecap:square;stroke-miterlimit:10;stroke-width:2px"/><polyline points="324.23 274.283 324.654 273.663 325.045 272.978 325.338 272.293 325.567 271.576 325.697 270.826 325.795 270.043 325.795 269.293 325.697 268.542 325.534 267.792 325.306 267.042 325.012 266.357 324.654 265.672 324.197 265.053 323.708 264.465 323.154 263.944 322.534 263.487 321.882 263.096 321.197 262.737 320.48 262.476 319.763 262.313 319.013 262.182 318.23 262.15 317.48 262.182 316.73 262.313 315.98 262.508 315.263 262.769 314.578 263.096 313.926 263.52" style="fill:none;stroke:#000;stroke-linecap:square;stroke-miterlimit:10;stroke-width:2px"/><polyline points="324.262 274.316 324.099 274.577 323.969 274.87 323.904 275.164 323.904 275.457 323.969 275.751 324.067 276.044 324.197 276.305 324.393 276.566 324.621 276.762 324.882 276.892 325.175 276.99 325.469 277.055" style="fill:none;stroke:#000;stroke-linecap:square;stroke-miterlimit:10;stroke-width:2px"/><line x1="325.501" y1="277.055" x2="342.196" y2="278.23" style="fill:none;stroke:#000;stroke-linecap:square;stroke-miterlimit:10;stroke-width:2px"/><polyline points="342.164 278.23 342.392 278.23 342.62 278.197 342.816 278.132 343.044 278.066 343.24 277.936 343.403 277.806" style="fill:none;stroke:#000;stroke-linecap:square;stroke-miterlimit:10;stroke-width:2px"/><line x1="343.435" y1="277.838" x2="365.999" y2="258.203" style="fill:none;stroke:#000;stroke-linecap:square;stroke-miterlimit:10;stroke-width:2px"/><polyline points="365.999 258.203 366.358 257.844 366.684 257.453 366.912 256.996 367.108 256.54 367.206 256.018 367.238 255.528 367.206 255.039 367.108 254.517 366.912 254.061 366.684 253.604 366.358 253.213 365.999 252.854" style="fill:none;stroke:#000;stroke-linecap:square;stroke-miterlimit:10;stroke-width:2px"/><polyline points="365.999 252.821 267.95 167.594 194.682 103.927" style="fill:none;stroke:#000;stroke-linecap:square;stroke-miterlimit:10;stroke-width:2px"/><polyline points="194.682 103.927 194.324 103.666 193.932 103.438 193.541 103.275 193.085 103.177" style="fill:none;stroke:#000;stroke-linecap:square;stroke-miterlimit:10;stroke-width:2px"/><line x1="193.085" y1="103.144" x2="136.218" y2="92.185" style="fill:none;stroke:#000;stroke-linecap:square;stroke-miterlimit:10;stroke-width:2px"/><polyline points="136.218 92.185 135.827 92.087 135.403 92.055 135.012 92.087 134.62 92.185 134.229 92.316 133.87 92.544 133.577 92.805 133.283 93.098 133.088 93.457 132.925 93.816 132.827 94.24 132.794 94.631" style="fill:none;stroke:#000;stroke-linecap:square;stroke-miterlimit:10;stroke-width:2px"/><line x1="132.762" y1="94.631" x2="132.762" y2="143.752" style="fill:none;stroke:#000;stroke-linecap:square;stroke-miterlimit:10;stroke-width:2px"/><polyline points="132.794 143.752 132.827 144.143 132.925 144.535 133.088 144.926 133.283 145.252 133.544 145.578 133.87 145.839 134.196 146.035 134.588 146.198 134.979 146.296 135.37 146.329" style="fill:none;stroke:#000;stroke-linecap:square;stroke-miterlimit:10;stroke-width:2px"/><line x1="135.37" y1="146.361" x2="143.457" y2="146.361" style="fill:none;stroke:#000;stroke-linecap:square;stroke-miterlimit:10;stroke-width:2px"/><polyline points="143.457 146.329 143.783 146.296 144.109 146.198 144.402 146.035 144.663 145.839 144.859 145.578 145.022 145.285 145.12 144.959 145.152 144.632" style="fill:none;stroke:#000;stroke-linecap:square;stroke-miterlimit:10;stroke-width:2px"/><line x1="145.152" y1="144.632" x2="145.152" y2="109.211" style="fill:none;stroke:#000;stroke-linecap:square;stroke-miterlimit:10;stroke-width:2px"/><polyline points="147.141 107.548 146.848 107.515 146.555 107.548 146.261 107.613 146 107.743 145.772 107.939 145.576 108.135 145.413 108.363 145.283 108.624 145.218 108.917 145.185 109.211" style="fill:none;stroke:#000;stroke-linecap:square;stroke-miterlimit:10;stroke-width:2px"/><line x1="147.141" y1="107.515" x2="186.335" y2="113.419" style="fill:none;stroke:#000;stroke-linecap:square;stroke-miterlimit:10;stroke-width:2px"/><polyline points="188.063 114.267 187.802 114.071 187.541 113.875 187.248 113.745 186.954 113.614 186.628 113.516 186.335 113.451" style="fill:none;stroke:#000;stroke-linecap:square;stroke-miterlimit:10;stroke-width:2px"/><polyline points="188.096 114.234 260.027 176.727 347.739 252.952" style="fill:none;stroke:#000;stroke-linecap:square;stroke-miterlimit:10;stroke-width:2px"/><polyline points="347.739 258.073 348.065 257.714 348.359 257.355 348.587 256.931 348.75 256.474 348.848 256.018 348.88 255.528 348.848 255.039 348.75 254.583 348.587 254.126 348.359 253.702 348.065 253.343 347.739 252.984" style="fill:none;stroke:#000;stroke-linecap:square;stroke-miterlimit:10;stroke-width:2px"/><line x1="347.739" y1="258.073" x2="337.696" y2="266.814" style="fill:none;stroke:#000;stroke-linecap:square;stroke-miterlimit:10;stroke-width:2px"/><polyline points="337.696 266.814 337.468 265.672 337.207 264.531 336.849 263.389 336.457 262.28 335.968 261.204 335.446 260.16 334.827 259.149 334.175 258.203 333.457 257.257 332.707 256.377 331.86 255.528 331.012 254.746 330.099 253.996 329.121 253.343 328.143 252.723 327.099 252.136 326.023 251.647 324.947 251.223 323.838 250.864 322.697 250.538 321.523 250.31 320.382 250.147 319.208 250.082 318.034 250.049" style="fill:none;stroke:#000;stroke-linecap:square;stroke-miterlimit:10;stroke-width:2px"/><polyline points="316.73 249.397 316.893 249.56 317.089 249.723 317.317 249.821 317.545 249.918 317.773 249.984 318.034 249.984" style="fill:none;stroke:#000;stroke-linecap:square;stroke-miterlimit:10;stroke-width:2px"/><line x1="316.697" y1="249.429" x2="278.873" y2="205.821" style="fill:none;stroke:#000;stroke-linecap:square;stroke-miterlimit:10;stroke-width:2px"/><polyline points="278.841 205.821 278.613 205.593 278.319 205.397 278.026 205.299 277.7 205.234 277.341 205.234 277.047 205.332 276.721 205.462 276.461 205.658" style="fill:none;stroke:#000;stroke-linecap:square;stroke-miterlimit:10;stroke-width:2px"/><line x1="276.428" y1="205.625" x2="199.867" y2="272.163" style="fill:none;stroke:#000;stroke-linecap:square;stroke-miterlimit:10;stroke-width:2px"/><polyline points="197.03 270.858 197.063 271.184 197.16 271.478 197.291 271.772 197.487 272.032 197.747 272.228 198.008 272.391 198.334 272.522 198.66 272.554 198.954 272.522 199.28 272.456 199.573 272.326 199.834 272.13" style="fill:none;stroke:#000;stroke-linecap:square;stroke-miterlimit:10;stroke-width:2px"/><line x1="197.03" y1="270.858" x2="197.03" y2="229.533" style="fill:none;stroke:#000;stroke-linecap:square;stroke-miterlimit:10;stroke-width:2px"/><polyline points="196.997 229.533 196.965 229.207 196.867 228.881 196.704 228.587 196.508 228.326 196.247 228.131 195.954 227.968 195.628 227.87 195.302 227.837" style="fill:none;stroke:#000;stroke-linecap:square;stroke-miterlimit:10;stroke-width:2px"/><line x1="195.302" y1="227.804" x2="160.315" y2="227.804" style="fill:none;stroke:#000;stroke-linecap:square;stroke-miterlimit:10;stroke-width:2px"/><polyline points="160.315 227.837 159.989 227.87 159.662 227.968 159.369 228.131 159.108 228.326 158.913 228.587 158.75 228.881 158.652 229.207 158.619 229.533" style="fill:none;stroke:#000;stroke-linecap:square;stroke-miterlimit:10;stroke-width:2px"/><line x1="158.619" y1="229.533" x2="158.619" y2="279.371" style="fill:none;stroke:#000;stroke-linecap:square;stroke-miterlimit:10;stroke-width:2px"/><polyline points="158.619 279.371 158.652 279.763 158.75 280.154 158.913 280.545 159.108 280.871 159.369 281.198 159.695 281.459 160.021 281.654 160.412 281.817 160.804 281.915 161.195 281.948" style="fill:none;stroke:#000;stroke-linecap:square;stroke-miterlimit:10;stroke-width:2px"/><line x1="161.195" y1="281.948" x2="166.803" y2="281.948" style="fill:none;stroke:#000;stroke-linecap:square;stroke-miterlimit:10;stroke-width:2px"/><polyline points="166.836 281.915 167.26 281.98 167.716 282.013 168.173 281.98 168.597 281.883 169.021 281.72 169.445 281.491 169.803 281.23 170.129 280.937 170.423 280.578 170.651 280.187 170.847 279.795 170.977 279.339" style="fill:none;stroke:#000;stroke-linecap:square;stroke-miterlimit:10;stroke-width:2px"/><line x1="171.01" y1="279.371" x2="171.01" y2="240.166" style="fill:none;stroke:#000;stroke-linecap:square;stroke-miterlimit:10;stroke-width:2px"/><polyline points="172.738 238.47 172.412 238.503 172.086 238.601 171.792 238.764 171.531 238.959 171.336 239.22 171.173 239.514 171.075 239.84 171.042 240.166" style="fill:none;stroke:#000;stroke-linecap:square;stroke-miterlimit:10;stroke-width:2px"/><line x1="172.738" y1="238.437" x2="183.27" y2="238.437" style="fill:none;stroke:#000;stroke-linecap:square;stroke-miterlimit:10;stroke-width:2px"/><polyline points="184.965 240.134 184.933 239.807 184.835 239.514 184.672 239.22 184.444 238.959 184.216 238.764 183.922 238.601 183.596 238.503 183.27 238.47" style="fill:none;stroke:#000;stroke-linecap:square;stroke-miterlimit:10;stroke-width:2px"/><line x1="184.998" y1="240.134" x2="184.998" y2="332.242" style="fill:none;stroke:#000;stroke-linecap:square;stroke-miterlimit:10;stroke-width:2px"/><polyline points="185.031 332.242 185.063 332.666 185.161 333.123 185.292 333.514 185.487 333.906 185.715 334.297 186.009 334.623 186.335 334.917 186.694 335.145 187.117 335.341 187.509 335.471 187.965 335.569 188.389 335.602" style="fill:none;stroke:#000;stroke-linecap:square;stroke-miterlimit:10;stroke-width:2px"/><line x1="188.389" y1="335.602" x2="193.639" y2="335.602" style="fill:none;stroke:#000;stroke-linecap:square;stroke-miterlimit:10;stroke-width:2px"/><polyline points="193.639 335.602 194.063 335.569 194.519 335.471 194.911 335.341 195.334 335.145 195.693 334.917 196.019 334.623 196.313 334.297 196.541 333.906 196.737 333.514 196.867 333.123 196.965 332.666 196.997 332.242" style="fill:none;stroke:#000;stroke-linecap:square;stroke-miterlimit:10;stroke-width:2px"/><line x1="197.03" y1="332.242" x2="197.03" y2="313.749" style="fill:none;stroke:#000;stroke-linecap:square;stroke-miterlimit:10;stroke-width:2px"/><polyline points="199.997 312.64 199.769 312.412 199.476 312.216 199.149 312.118 198.791 312.053 198.465 312.085 198.139 312.151 197.813 312.314 197.552 312.509 197.323 312.77 197.16 313.097 197.063 313.423 197.03 313.749" style="fill:none;stroke:#000;stroke-linecap:square;stroke-miterlimit:10;stroke-width:2px"/><line x1="200.03" y1="312.607" x2="218.942" y2="334.395" style="fill:none;stroke:#000;stroke-linecap:square;stroke-miterlimit:10;stroke-width:2px"/><polyline points="219.301 335.765 219.333 335.504 219.333 335.276 219.268 335.047 219.17 334.819 219.072 334.591 218.909 334.395" style="fill:none;stroke:#000;stroke-linecap:square;stroke-miterlimit:10;stroke-width:2px"/><polyline points="219.333 335.765 219.203 336.939 219.105 338.113 219.105 339.288 219.17 340.462 219.301 341.636 219.529 342.778 219.79 343.919 220.148 345.061 220.54 346.17 221.029 347.246 221.55 348.29 222.17 349.301 222.822 350.247 223.539 351.193 224.289 352.073 225.137 352.921 225.985 353.704 226.898 354.454 227.876 355.107 228.854 355.726 229.898 356.313 230.974 356.803 232.05 357.227 233.159 357.585" style="fill:none;stroke:#000;stroke-linecap:square;stroke-miterlimit:10;stroke-width:2px"/><line x1="233.191" y1="357.618" x2="191.487" y2="393.855" style="fill:none;stroke:#000;stroke-linecap:square;stroke-miterlimit:10;stroke-width:2px"/><polyline points="188.748 394.605 189.107 394.638 189.498 394.638 189.857 394.573 190.215 394.507 190.541 394.377 190.867 394.214 191.193 394.051 191.487 393.822" style="fill:none;stroke:#000;stroke-linecap:square;stroke-miterlimit:10;stroke-width:2px"/><line x1="188.78" y1="394.638" x2="139.903" y2="387.136" style="fill:none;stroke:#000;stroke-linecap:square;stroke-miterlimit:10;stroke-width:2px"/><polyline points="139.903 387.136 139.511 387.103 139.12 387.103 138.761 387.169 138.37 387.299 138.011 387.462 137.685 387.658 137.392 387.886 137.131 388.18 136.903 388.506 136.707 388.832 136.577 389.191 136.479 389.582" style="fill:none;stroke:#000;stroke-linecap:square;stroke-miterlimit:10;stroke-width:2px"/><line x1="136.479" y1="389.582" x2="136.479" y2="395.518" style="fill:none;stroke:#000;stroke-linecap:square;stroke-miterlimit:10;stroke-width:2px"/><polyline points="136.479 395.518 136.512 395.91 136.609 396.301 136.74 396.66 136.968 397.019 137.196 397.312 137.522 397.573 137.848 397.802 138.207 397.965" style="fill:none;stroke:#000;stroke-linecap:square;stroke-miterlimit:10;stroke-width:2px"/><line x1="138.207" y1="397.965" x2="191.78" y2="407.913" style="fill:none;stroke:#000;stroke-linecap:square;stroke-miterlimit:10;stroke-width:2px"/><polyline points="191.78 407.88 192.172 407.945 192.53 407.945 192.922 407.913 193.28 407.815 193.639 407.717 193.998 407.554 194.291 407.358 194.617 407.13" style="fill:none;stroke:#000;stroke-linecap:square;stroke-miterlimit:10;stroke-width:2px"/><line x1="194.617" y1="407.162" x2="243.821" y2="364.402" style="fill:none;stroke:#000;stroke-linecap:square;stroke-miterlimit:10;stroke-width:2px"/></svg>