<svg id="Capa_1" data-name="Capa 1" xmlns="http://www.w3.org/2000/svg" viewBox="0 0 500 500"><rect width="500" height="500" style="fill:none"/><polyline points="179.52 72.075 179.488 71.684 179.39 71.293 179.259 70.934 179.031 70.576 178.803 70.282 178.477 70.022 178.151 69.793 177.792 69.63" style="fill:none;stroke:#000;stroke-linecap:square;stroke-miterlimit:10;stroke-width:2px"/><line x1="177.792" y1="69.63" x2="120.012" y2="58.482" style="fill:none;stroke:#000;stroke-linecap:square;stroke-miterlimit:10;stroke-width:2px"/><polyline points="120.012 58.482 119.621 58.384 119.197 58.351 118.806 58.384 118.415 58.482 118.023 58.612 117.665 58.84 117.371 59.101 117.078 59.394 116.882 59.753 116.719 60.112 116.621 60.535 116.589 60.927" style="fill:none;stroke:#000;stroke-linecap:square;stroke-miterlimit:10;stroke-width:2px"/><line x1="116.556" y1="60.927" x2="116.556" y2="110.02" style="fill:none;stroke:#000;stroke-linecap:square;stroke-miterlimit:10;stroke-width:2px"/><polyline points="116.589 110.02 116.621 110.412 116.719 110.803 116.882 111.194 117.078 111.52 117.339 111.846 117.665 112.107 117.991 112.302 118.382 112.465 118.773 112.563 119.165 112.596" style="fill:none;stroke:#000;stroke-linecap:square;stroke-miterlimit:10;stroke-width:2px"/><line x1="119.165" y1="112.628" x2="127.251" y2="112.628" style="fill:none;stroke:#000;stroke-linecap:square;stroke-miterlimit:10;stroke-width:2px"/><polyline points="127.251 112.596 127.577 112.563 127.903 112.465 128.197 112.302 128.458 112.107 128.653 111.846 128.816 111.553 128.914 111.227 128.947 110.901" style="fill:none;stroke:#000;stroke-linecap:square;stroke-miterlimit:10;stroke-width:2px"/><line x1="128.979" y1="110.901" x2="128.979" y2="75.498" style="fill:none;stroke:#000;stroke-linecap:square;stroke-miterlimit:10;stroke-width:2px"/><polyline points="130.936 73.836 130.642 73.803 130.349 73.836 130.055 73.901 129.795 74.031 129.566 74.227 129.371 74.422 129.208 74.651 129.077 74.911 129.012 75.205 128.979 75.498" style="fill:none;stroke:#000;stroke-linecap:square;stroke-miterlimit:10;stroke-width:2px"/><line x1="130.936" y1="73.803" x2="166.64" y2="79.182" style="fill:none;stroke:#000;stroke-linecap:square;stroke-miterlimit:10;stroke-width:2px"/><polyline points="168.695 81.073 168.597 80.714 168.434 80.388 168.206 80.095 167.945 79.801 167.651 79.573 167.325 79.41 166.999 79.28 166.64 79.214" style="fill:none;stroke:#000;stroke-linecap:square;stroke-miterlimit:10;stroke-width:2px"/><line x1="168.727" y1="81.073" x2="168.727" y2="192.3" style="fill:none;stroke:#000;stroke-linecap:square;stroke-miterlimit:10;stroke-width:2px"/><polyline points="166.999 193.995 167.325 193.963 167.651 193.865 167.945 193.702 168.206 193.506 168.401 193.245 168.564 192.952 168.662 192.626 168.695 192.3" style="fill:none;stroke:#000;stroke-linecap:square;stroke-miterlimit:10;stroke-width:2px"/><line x1="166.999" y1="194.028" x2="144.142" y2="194.028" style="fill:none;stroke:#000;stroke-linecap:square;stroke-miterlimit:10;stroke-width:2px"/><polyline points="144.142 194.06 143.816 194.093 143.489 194.191 143.196 194.354 142.935 194.549 142.74 194.81 142.576 195.103 142.479 195.43 142.446 195.755" style="fill:none;stroke:#000;stroke-linecap:square;stroke-miterlimit:10;stroke-width:2px"/><line x1="142.413" y1="195.755" x2="142.413" y2="245.567" style="fill:none;stroke:#000;stroke-linecap:square;stroke-miterlimit:10;stroke-width:2px"/><polyline points="142.413 245.567 142.446 245.958 142.544 246.349 142.707 246.74 142.903 247.066 143.163 247.392 143.489 247.653 143.816 247.848 144.207 248.011 144.598 248.109 144.989 248.142" style="fill:none;stroke:#000;stroke-linecap:square;stroke-miterlimit:10;stroke-width:2px"/><line x1="144.989" y1="248.142" x2="151.413" y2="248.142" style="fill:none;stroke:#000;stroke-linecap:square;stroke-miterlimit:10;stroke-width:2px"/><polyline points="151.413 248.142 151.837 248.109 152.293 248.011 152.685 247.881 153.109 247.685 153.467 247.457 153.793 247.164 154.087 246.838 154.315 246.447 154.511 246.056 154.641 245.664 154.739 245.208 154.771 244.784" style="fill:none;stroke:#000;stroke-linecap:square;stroke-miterlimit:10;stroke-width:2px"/><line x1="154.804" y1="244.784" x2="154.804" y2="206.383" style="fill:none;stroke:#000;stroke-linecap:square;stroke-miterlimit:10;stroke-width:2px"/><polyline points="156.532 204.688 156.206 204.72 155.88 204.818 155.587 204.981 155.326 205.177 155.13 205.437 154.967 205.731 154.869 206.057 154.837 206.383" style="fill:none;stroke:#000;stroke-linecap:square;stroke-miterlimit:10;stroke-width:2px"/><line x1="156.532" y1="204.655" x2="167.064" y2="204.655" style="fill:none;stroke:#000;stroke-linecap:square;stroke-miterlimit:10;stroke-width:2px"/><polyline points="168.76 206.35 168.727 206.024 168.629 205.731 168.466 205.437 168.238 205.177 168.01 204.981 167.716 204.818 167.39 204.72 167.064 204.688" style="fill:none;stroke:#000;stroke-linecap:square;stroke-miterlimit:10;stroke-width:2px"/><line x1="168.792" y1="206.35" x2="168.792" y2="315.23" style="fill:none;stroke:#000;stroke-linecap:square;stroke-miterlimit:10;stroke-width:2px"/><polyline points="168.825 315.23 168.858 315.654 168.955 316.111 169.086 316.502 169.282 316.926 169.51 317.284 169.803 317.61 170.129 317.903 170.521 318.132 170.912 318.327 171.303 318.458 171.76 318.555 172.184 318.588" style="fill:none;stroke:#000;stroke-linecap:square;stroke-miterlimit:10;stroke-width:2px"/><line x1="172.184" y1="318.621" x2="177.498" y2="318.621" style="fill:none;stroke:#000;stroke-linecap:square;stroke-miterlimit:10;stroke-width:2px"/><polyline points="177.498 318.588 177.922 318.555 178.379 318.458 178.77 318.327 179.194 318.132 179.553 317.903 179.879 317.61 180.172 317.284 180.401 316.893 180.596 316.502 180.727 316.111 180.824 315.654 180.857 315.23" style="fill:none;stroke:#000;stroke-linecap:square;stroke-miterlimit:10;stroke-width:2px"/><line x1="180.89" y1="315.23" x2="180.89" y2="162.602" style="fill:none;stroke:#000;stroke-linecap:square;stroke-miterlimit:10;stroke-width:2px"/><polyline points="187.281 161.135 187.02 160.712 186.694 160.32 186.335 159.962 185.911 159.701 185.455 159.473 184.998 159.343 184.509 159.245 183.987 159.245 183.498 159.343 183.009 159.473 182.553 159.701 182.161 159.995 181.77 160.32 181.477 160.712 181.216 161.135 181.053 161.624 180.922 162.113 180.89 162.602" style="fill:none;stroke:#000;stroke-linecap:square;stroke-miterlimit:10;stroke-width:2px"/><polyline points="187.346 161.135 189.041 164.591 190.835 168.014 192.661 171.372 194.585 174.729 196.541 178.054 198.595 181.314 200.682 184.574 202.834 187.769 205.051 190.931 207.334 194.028 209.682 197.092 212.062 200.124 214.507 203.09 217.018 206.024 219.561 208.925 222.17 211.762 224.844 214.532 227.583 217.271 230.354 219.944 233.159 222.584 236.028 225.16 238.963 227.67 241.897 230.147 244.93 232.56 247.962 234.907 251.092 237.189 254.223 239.438 257.418 241.622 260.614 243.708 263.907 245.762 267.2 247.751 270.526 249.707 273.917 251.565 277.308 253.358 280.765 255.085 284.254 256.748 287.743 258.378 291.264 259.91 294.851 261.377 298.438 262.779 302.057 264.115 305.709 265.387" style="fill:none;stroke:#000;stroke-linecap:square;stroke-miterlimit:10;stroke-width:2px"/><polyline points="349.924 415.668 351.554 413.549 353.152 411.364 354.685 409.148 356.152 406.866 357.554 404.551 358.891 402.204 360.163 399.824 361.369 397.412 362.478 394.967 363.554 392.49 364.532 389.98 365.477 387.437 366.325 384.862 367.075 382.286 367.793 379.678 368.412 377.07 368.966 374.43 369.456 371.757 369.879 369.084 370.205 366.411 370.466 363.737 370.629 361.032 370.727 358.326 370.76 355.653 370.695 352.947 370.597 350.242 370.368 347.568 370.108 344.863 369.749 342.19 369.325 339.517 368.836 336.876 368.249 334.236 367.597 331.628 366.88 329.02 366.064 326.444 365.184 323.902 364.238 321.359 363.228 318.849 362.152 316.404 361.01 313.959 359.771 311.547 358.5 309.167 357.13 306.852 355.728 304.538 354.228 302.289 352.696 300.072 351.065 297.92 349.402 295.801 347.674 293.715 345.881 291.694 344.055 289.738 342.164 287.815 340.207 285.957 338.185 284.131 336.131 282.371 334.044 280.708 331.892 279.046 329.708 277.481 327.458 275.981 325.175 274.547 322.86 273.145 320.513 271.841 318.1 270.602 315.687 269.429 313.241 268.321 310.73 267.277 308.22 266.299 305.676 265.419" style="fill:none;stroke:#000;stroke-linecap:square;stroke-miterlimit:10;stroke-width:2px"/><polyline points="346.924 414.983 347.055 415.276 347.185 415.57 347.413 415.798 347.641 415.993 347.935 416.156 348.228 416.254 348.522 416.287 348.848 416.254 349.141 416.189 349.435 416.059 349.696 415.863 349.924 415.635" style="fill:none;stroke:#000;stroke-linecap:square;stroke-miterlimit:10;stroke-width:2px"/><polyline points="346.891 415.016 346.631 413.972 346.272 412.929 345.881 411.886 345.392 410.908 344.902 409.93 344.316 408.985 343.696 408.072 343.044 407.224 342.327 406.377 341.544 405.594 340.729 404.845 339.881 404.128" style="fill:none;stroke:#000;stroke-linecap:square;stroke-miterlimit:10;stroke-width:2px"/><line x1="339.881" y1="404.128" x2="339.881" y2="345.547" style="fill:none;stroke:#000;stroke-linecap:square;stroke-miterlimit:10;stroke-width:2px"/><polyline points="339.848 345.547 339.816 345.221 339.718 344.895 339.555 344.602 339.359 344.341 339.098 344.146 338.805 343.983 338.479 343.885 338.153 343.852" style="fill:none;stroke:#000;stroke-linecap:square;stroke-miterlimit:10;stroke-width:2px"/><line x1="338.153" y1="343.852" x2="212.127" y2="343.852" style="fill:none;stroke:#000;stroke-linecap:square;stroke-miterlimit:10;stroke-width:2px"/><polyline points="212.127 343.852 211.801 343.885 211.475 343.983 211.181 344.146 210.921 344.341 210.725 344.602 210.562 344.895 210.464 345.221 210.432 345.547" style="fill:none;stroke:#000;stroke-linecap:square;stroke-miterlimit:10;stroke-width:2px"/><line x1="210.399" y1="345.547" x2="210.399" y2="403.28" style="fill:none;stroke:#000;stroke-linecap:square;stroke-miterlimit:10;stroke-width:2px"/><polyline points="209.779 404.584 209.942 404.388 210.105 404.193 210.203 403.997 210.301 403.769 210.334 403.508 210.366 403.28" style="fill:none;stroke:#000;stroke-linecap:square;stroke-miterlimit:10;stroke-width:2px"/><polyline points="209.812 404.649 209.029 405.334 208.312 406.051 207.595 406.833 206.943 407.616 206.356 408.463 205.769 409.311 205.247 410.224 204.791 411.136 204.367 412.082 204.008 413.06 203.682 414.038 203.421 415.016" style="fill:none;stroke:#000;stroke-linecap:square;stroke-miterlimit:10;stroke-width:2px"/><polyline points="200.389 415.635 200.617 415.863 200.878 416.059 201.171 416.189 201.465 416.254 201.791 416.287 202.084 416.254 202.378 416.156 202.671 415.993 202.899 415.798 203.128 415.57 203.258 415.276 203.388 414.983" style="fill:none;stroke:#000;stroke-linecap:square;stroke-miterlimit:10;stroke-width:2px"/><polyline points="179.911 364.487 180.172 367.03 180.498 369.54 180.89 372.05 181.346 374.56 181.9 377.038 182.487 379.515 183.139 381.96 183.857 384.405 184.639 386.818 185.487 389.23 186.4 391.577 187.378 393.924 188.422 396.239 189.498 398.553 190.672 400.802 191.878 403.052 193.182 405.236 194.487 407.387 195.889 409.539 197.356 411.625 198.856 413.646 200.389 415.668" style="fill:none;stroke:#000;stroke-linecap:square;stroke-miterlimit:10;stroke-width:2px"/><polyline points="179.879 364.487 179.781 364.031 179.683 363.607 179.488 363.216 179.259 362.825 178.966 362.499 178.64 362.173 178.281 361.912 177.89 361.716 177.466 361.553 177.042 361.456" style="fill:none;stroke:#000;stroke-linecap:square;stroke-miterlimit:10;stroke-width:2px"/><line x1="177.042" y1="361.456" x2="123.73" y2="353.273" style="fill:none;stroke:#000;stroke-linecap:square;stroke-miterlimit:10;stroke-width:2px"/><polyline points="123.697 353.273 123.306 353.241 122.915 353.241 122.556 353.306 122.165 353.436 121.806 353.599 121.48 353.795 121.186 354.023 120.925 354.316 120.697 354.642 120.502 354.968 120.371 355.327 120.273 355.718" style="fill:none;stroke:#000;stroke-linecap:square;stroke-miterlimit:10;stroke-width:2px"/><line x1="120.273" y1="355.718" x2="120.273" y2="361.651" style="fill:none;stroke:#000;stroke-linecap:square;stroke-miterlimit:10;stroke-width:2px"/><polyline points="120.306 361.651 120.339 362.042 120.436 362.434 120.567 362.792 120.795 363.151 121.023 363.444 121.349 363.705 121.675 363.933 122.034 364.096" style="fill:none;stroke:#000;stroke-linecap:square;stroke-miterlimit:10;stroke-width:2px"/><line x1="122.034" y1="364.096" x2="165.793" y2="372.246" style="fill:none;stroke:#000;stroke-linecap:square;stroke-miterlimit:10;stroke-width:2px"/><polyline points="168.466 374.984 168.401 374.593 168.238 374.202 168.042 373.843 167.814 373.517 167.553 373.191 167.26 372.93 166.934 372.702 166.575 372.507 166.184 372.376 165.793 372.278" style="fill:none;stroke:#000;stroke-linecap:square;stroke-miterlimit:10;stroke-width:2px"/><polyline points="168.532 374.952 169.053 377.722 169.673 380.493 170.325 383.232 171.075 385.97 171.89 388.676 172.77 391.349 173.749 394.022 174.76 396.662 175.868 399.27 177.009 401.846 178.248 404.388 179.553 406.898 180.89 409.376 182.324 411.821 183.792 414.201 185.357 416.58 186.955 418.895 188.65 421.177 190.378 423.426 192.139 425.61 193.998 427.762 195.889 429.848 197.845 431.902 199.834 433.89 201.888 435.814 204.008 437.704 206.16 439.53 208.345 441.323" style="fill:none;stroke:#000;stroke-linecap:square;stroke-miterlimit:10;stroke-width:2px"/><polyline points="208.345 441.29 208.606 441.453 208.899 441.584 209.192 441.649 209.486 441.649 209.779 441.584 210.073 441.486 210.366 441.355 210.595 441.16" style="fill:none;stroke:#000;stroke-linecap:square;stroke-miterlimit:10;stroke-width:2px"/><line x1="210.627" y1="441.192" x2="221.877" y2="429.913" style="fill:none;stroke:#000;stroke-linecap:square;stroke-miterlimit:10;stroke-width:2px"/><polyline points="221.877 429.913 222.072 429.685 222.203 429.392 222.3 429.131 222.366 428.805 222.366 428.511 222.3 428.218 222.17 427.925 222.007 427.664 221.811 427.468 221.583 427.273 221.29 427.142 220.996 427.045" style="fill:none;stroke:#000;stroke-linecap:square;stroke-miterlimit:10;stroke-width:2px"/><polyline points="221.713 412.114 220.964 412.245 220.214 412.44 219.529 412.701 218.844 413.027 218.192 413.451 217.572 413.907 217.018 414.429 216.529 415.016 216.105 415.635 215.714 416.319 215.42 417.004 215.192 417.754 215.062 418.504 214.964 419.253 214.964 420.003 215.062 420.786 215.225 421.535 215.453 422.252 215.746 422.937 216.105 423.622 216.562 424.241 217.051 424.828 217.605 425.349 218.225 425.806 218.877 426.197 219.561 426.556 220.279 426.816 220.996 426.979" style="fill:none;stroke:#000;stroke-linecap:square;stroke-miterlimit:10;stroke-width:2px"/><polyline points="221.746 412.082 221.942 412.016 222.137 411.951 222.268 411.788 222.398 411.625 222.463 411.43 222.496 411.234" style="fill:none;stroke:#000;stroke-linecap:square;stroke-miterlimit:10;stroke-width:2px"/><line x1="222.496" y1="411.234" x2="222.496" y2="357.642" style="fill:none;stroke:#000;stroke-linecap:square;stroke-miterlimit:10;stroke-width:2px"/><polyline points="224.224 355.946 223.898 355.979 223.572 356.077 223.279 356.24 223.018 356.435 222.822 356.696 222.659 356.99 222.561 357.316 222.529 357.642" style="fill:none;stroke:#000;stroke-linecap:square;stroke-miterlimit:10;stroke-width:2px"/><line x1="224.224" y1="355.914" x2="326.088" y2="355.914" style="fill:none;stroke:#000;stroke-linecap:square;stroke-miterlimit:10;stroke-width:2px"/><polyline points="327.784 357.642 327.751 357.316 327.653 356.99 327.49 356.696 327.295 356.435 327.034 356.24 326.74 356.077 326.414 355.979 326.088 355.946" style="fill:none;stroke:#000;stroke-linecap:square;stroke-miterlimit:10;stroke-width:2px"/><line x1="327.816" y1="357.642" x2="327.816" y2="411.234" style="fill:none;stroke:#000;stroke-linecap:square;stroke-miterlimit:10;stroke-width:2px"/><polyline points="327.816 411.234 327.849 411.43 327.914 411.625 328.045 411.788 328.175 411.951 328.371 412.016 328.566 412.082" style="fill:none;stroke:#000;stroke-linecap:square;stroke-miterlimit:10;stroke-width:2px"/><polyline points="329.316 426.979 330.034 426.816 330.751 426.556 331.436 426.197 332.088 425.806 332.707 425.349 333.262 424.828 333.751 424.241 334.207 423.622 334.566 422.937 334.86 422.252 335.088 421.535 335.251 420.786 335.349 420.003 335.349 419.253 335.251 418.504 335.12 417.754 334.892 417.004 334.599 416.319 334.207 415.635 333.784 415.016 333.294 414.429 332.74 413.907 332.121 413.451 331.468 413.027 330.784 412.701 330.099 412.44 329.349 412.245 328.599 412.114" style="fill:none;stroke:#000;stroke-linecap:square;stroke-miterlimit:10;stroke-width:2px"/><polyline points="329.316 427.045 329.023 427.142 328.729 427.273 328.501 427.468 328.306 427.664 328.143 427.925 328.012 428.218 327.947 428.511 327.947 428.805 328.012 429.131 328.11 429.392 328.24 429.685 328.436 429.913" style="fill:none;stroke:#000;stroke-linecap:square;stroke-miterlimit:10;stroke-width:2px"/><line x1="328.403" y1="429.913" x2="339.685" y2="441.192" style="fill:none;stroke:#000;stroke-linecap:square;stroke-miterlimit:10;stroke-width:2px"/><polyline points="339.685 441.16 339.914 441.355 340.207 441.486 340.501 441.584 340.794 441.649 341.087 441.649 341.381 441.584 341.674 441.453 341.935 441.29" style="fill:none;stroke:#000;stroke-linecap:square;stroke-miterlimit:10;stroke-width:2px"/><polyline points="341.968 441.323 344.218 439.465 346.435 437.607 348.62 435.651 350.706 433.629 352.793 431.576 354.782 429.457 356.739 427.305 358.597 425.056 360.423 422.807 362.217 420.492 363.912 418.112 365.543 415.7 367.108 413.255 368.608 410.745 370.042 408.235 371.412 405.66 372.716 403.052 373.955 400.411 375.097 397.738 376.205 395.032 377.216 392.294 378.129 389.523 379.009 386.752 379.792 383.949 380.509 381.113 381.129 378.277 381.683 375.408 382.172 372.539 382.596 369.671 382.922 366.769 383.15 363.868 383.346 360.934 383.411 358.033 383.444 355.131 383.379 352.197 383.248 349.296 383.02 346.395 382.727 343.494 382.335 340.592 381.879 337.724 381.357 334.855 380.738 332.019 380.053 329.183 379.303 326.379 378.455 323.576 377.542 320.805 376.564 318.066 375.52 315.361 374.379 312.655 373.173 310.015 371.901 307.407 370.564 304.799 369.162 302.256 367.662 299.746 366.13 297.268 364.499 294.856 362.836 292.476 361.108 290.129 359.282 287.847 357.424 285.598 355.5 283.414 353.511 281.295 351.489 279.209 349.402 277.187 347.25 275.199 345.033 273.308 342.783 271.45 340.501 269.657 338.153 267.929 335.74 266.267 333.327 264.669 330.849 263.137 328.338 261.67 325.762 260.269 323.186 258.965 320.545 257.693 317.871 256.52 315.198 255.379 312.459 254.368 309.72 253.39" style="fill:none;stroke:#000;stroke-linecap:square;stroke-miterlimit:10;stroke-width:2px"/><line x1="179.52" y1="72.075" x2="179.52" y2="72.075" style="fill:none;stroke:#000;stroke-linecap:square;stroke-miterlimit:10;stroke-width:2px"/><polyline points="179.553 72.075 179.585 75.922 179.716 79.736 179.911 83.583 180.172 87.429 180.531 91.243 180.955 95.058 181.444 98.872 182.031 102.686 182.683 106.467 183.4 110.249 184.216 113.997 185.096 117.746 186.042 121.463 187.052 125.179 188.161 128.863 189.335 132.514 190.606 136.165 191.911 139.751 193.313 143.336 194.78 146.89 196.313 150.41 197.943 153.898 199.606 157.354 201.367 160.777 203.193 164.167 205.051 167.525 207.008 170.85 209.029 174.11 211.116 177.337 213.268 180.532 215.486 183.661 217.735 186.758 220.083 189.822 222.463 192.822 224.942 195.788 227.452 198.689 230.028 201.558 232.637 204.362 235.343 207.1 238.082 209.806 240.854 212.446 243.723 215.021 246.625 217.564 249.56 220.009 252.56 222.421 255.592 224.768 258.69 227.05 261.82 229.267 265.016 231.419 268.244 233.538 271.504 235.559 274.798 237.515 278.156 239.405 281.515 241.231 284.938 242.991 288.395 244.686 291.884 246.316 295.405 247.881 298.927 249.348 302.514 250.75 306.1 252.086 309.752 253.358" style="fill:none;stroke:#000;stroke-linecap:square;stroke-miterlimit:10;stroke-width:2px"/></svg>