<?xml version="1.0" encoding="UTF-8"?>
<svg id="Capa_2" data-name="Capa 2" xmlns="http://www.w3.org/2000/svg" viewBox="0 0 257.94 13.86">
  <defs>
    <style>
      .cls-1 {
        fill: none;
        stroke: #000;
        stroke-linecap: round;
        stroke-linejoin: round;
        stroke-width: .72px;
      }
    </style>
  </defs>
  <g id="Capa_2-2" data-name="Capa 2">
    <path class="cls-1" d="m100.44,2.73c0-.18-.15-.33-.33-.33"/>
    <line class="cls-1" x1="100.44" y1="2.76" x2="100.44" y2="13.2"/>
    <path class="cls-1" d="m100.44,13.17c0,.18.15.33.33.33"/>
    <line class="cls-1" x1="100.74" y1="13.5" x2="115.5" y2="13.5"/>
    <path class="cls-1" d="m115.53,13.5c.17,0,.31-.13.33-.3"/>
    <line class="cls-1" x1="115.86" y1="13.2" x2="116.88" y2="2.7"/>
    <path class="cls-1" d="m117.27,2.4c-.17,0-.31.13-.33.3"/>
    <polyline class="cls-1" points="117.24 2.4 156.06 2.4 177.66 2.4"/>
    <path class="cls-1" d="m178.02,2.73c0-.18-.15-.33-.33-.33"/>
    <line class="cls-1" x1="177.96" y1="2.76" x2="177.96" y2="13.2"/>
    <path class="cls-1" d="m178.02,13.17c0,.18.15.33.33.33"/>
    <line class="cls-1" x1="178.32" y1="13.5" x2="193.08" y2="13.5"/>
    <path class="cls-1" d="m193.11,13.5c.17,0,.31-.13.33-.3"/>
    <line class="cls-1" x1="193.44" y1="13.2" x2="194.46" y2="2.7"/>
    <path class="cls-1" d="m194.85,2.4c-.17,0-.31.13-.33.3"/>
    <line class="cls-1" x1="194.82" y1="2.4" x2="230.94" y2="2.4"/>
    <path class="cls-1" d="m231.3,2.76c0-.09-.02-.19-.08-.25-.06-.07-.15-.11-.24-.11"/>
    <line class="cls-1" x1="231.3" y1="2.76" x2="230.4" y2="11.22"/>
    <path class="cls-1" d="m230.13,11.46c.17,0,.31-.13.33-.3"/>
    <line class="cls-1" x1="230.1" y1="11.52" x2="226.68" y2="11.52"/>
    <path class="cls-1" d="m226.71,11.46c-.18,0-.33.15-.33.33"/>
    <line class="cls-1" x1="226.38" y1="11.82" x2="226.38" y2="13.2"/>
    <path class="cls-1" d="m226.38,13.17c0,.18.15.33.33.33"/>
    <line class="cls-1" x1="226.68" y1="13.5" x2="242.82" y2="13.5"/>
    <path class="cls-1" d="m242.87,13.48c.1-.96-.57-1.84-1.52-1.99"/>
    <path class="cls-1" d="m241.34,11.52s-.03,0-.05,0"/>
    <line class="cls-1" x1="241.26" y1="11.52" x2="232.8" y2="11.52"/>
    <path class="cls-1" d="m232.5,11.16c0,.09.02.19.08.25.06.07.15.11.24.11"/>
    <line class="cls-1" x1="232.44" y1="11.16" x2="232.62" y2="9.6"/>
    <path class="cls-1" d="m232.95,9.3c-.17,0-.31.13-.33.3"/>
    <line class="cls-1" x1="232.92" y1="9.3" x2="236.7" y2="9.3"/>
    <path class="cls-1" d="m236.73,9.3c.98,0,1.77-.79,1.77-1.77"/>
    <line class="cls-1" x1="238.5" y1="7.56" x2="233.16" y2="7.56"/>
    <path class="cls-1" d="m232.86,7.14c0,.09.02.19.08.25.06.07.15.11.24.11"/>
    <line class="cls-1" x1="232.86" y1="7.2" x2="233.28" y2="2.7"/>
    <path class="cls-1" d="m233.67,2.4c-.17,0-.31.13-.33.3"/>
    <line class="cls-1" x1="233.64" y1="2.4" x2="255.24" y2="2.4"/>
    <path class="cls-1" d="m255.6,2.73c0-.18-.15-.33-.33-.33"/>
    <line class="cls-1" x1="255.54" y1="2.76" x2="255.54" y2="8.28"/>
    <path class="cls-1" d="m255.57,8.28c1.11,0,2.01-.9,2.01-2.01"/>
    <line class="cls-1" x1="257.58" y1=".72" x2="257.58" y2="6.3"/>
    <path class="cls-1" d="m257.58.69c0-.18-.15-.33-.33-.33"/>
    <polyline class="cls-1" points="257.22 .42 231.84 .42 193.02 .42"/>
    <path class="cls-1" d="m193.05.36c-.17,0-.31.13-.33.3"/>
    <line class="cls-1" x1="192.66" y1=".72" x2="191.64" y2="11.22"/>
    <path class="cls-1" d="m191.31,11.46c.17,0,.31-.13.33-.3"/>
    <line class="cls-1" x1="191.28" y1="11.52" x2="180.3" y2="11.52"/>
    <path class="cls-1" d="m180,11.13c0,.18.15.33.33.33"/>
    <line class="cls-1" x1="180" y1="11.16" x2="180" y2=".72"/>
    <path class="cls-1" d="m180,.69c0-.18-.15-.33-.33-.33"/>
    <polyline class="cls-1" points="179.64 .42 154.26 .42 115.44 .42"/>
    <path class="cls-1" d="m115.47.36c-.17,0-.31.13-.33.3"/>
    <line class="cls-1" x1="115.08" y1=".72" x2="114.06" y2="11.22"/>
    <path class="cls-1" d="m113.73,11.46c.17,0,.31-.13.33-.3"/>
    <line class="cls-1" x1="113.7" y1="11.52" x2="102.72" y2="11.52"/>
    <path class="cls-1" d="m102.42,11.13c0,.18.15.33.33.33"/>
    <line class="cls-1" x1="102.42" y1="11.16" x2="102.42" y2=".72"/>
    <path class="cls-1" d="m102.42.69c0-.18-.15-.33-.33-.33"/>
    <polyline class="cls-1" points="102.06 .42 76.62 .42 37.8 .42"/>
    <path class="cls-1" d="m37.83.36c-.17,0-.31.13-.33.3"/>
    <line class="cls-1" x1="37.44" y1=".72" x2="36.42" y2="11.22"/>
    <path class="cls-1" d="m36.09,11.46c.17,0,.31-.13.33-.3"/>
    <line class="cls-1" x1="36.06" y1="11.52" x2="23.28" y2="11.52"/>
    <path class="cls-1" d="m23.31,11.46c-.12,0-.23.06-.29.17"/>
    <path class="cls-1" d="m22.77,11.82c.12,0,.23-.06.29-.17"/>
    <polyline class="cls-1" points="22.74 11.82 20.34 11.82 18.54 11.82 18.36 11.52"/>
    <line class="cls-1" x1="18.3" y1="11.58" x2="18.3" y2="11.58"/>
    <polyline class="cls-1" points="18.24 11.52 18 11.82 16.92 11.82 16.68 11.52"/>
    <line class="cls-1" x1="16.62" y1="11.58" x2="16.62" y2="11.58"/>
    <polyline class="cls-1" points="16.56 11.52 16.32 11.82 13.68 11.82 12.24 11.82"/>
    <path class="cls-1" d="m11.94,11.49c0,.18.15.33.33.33"/>
    <line class="cls-1" x1="11.88" y1="11.52" x2="11.88" y2="9.84"/>
    <path class="cls-1" d="m11.94,9.81c0-.18-.15-.33-.33-.33"/>
    <line class="cls-1" x1="11.58" y1="9.54" x2=".36" y2="9.54"/>
    <line class="cls-1" x1=".36" y1="11.4" x2="9.72" y2="11.4"/>
    <path class="cls-1" d="m10.08,11.73c0-.18-.15-.33-.33-.33"/>
    <line class="cls-1" x1="10.02" y1="11.76" x2="10.02" y2="13.2"/>
    <path class="cls-1" d="m10.08,13.17c0,.18.15.33.33.33"/>
    <line class="cls-1" x1="10.38" y1="13.5" x2="37.86" y2="13.5"/>
    <path class="cls-1" d="m37.89,13.5c.17,0,.31-.13.33-.3"/>
    <line class="cls-1" x1="38.22" y1="13.2" x2="39.24" y2="2.7"/>
    <path class="cls-1" d="m39.63,2.4c-.17,0-.31.13-.33.3"/>
    <polyline class="cls-1" points="39.6 2.4 78.42 2.4 100.08 2.4"/>
  </g>
</svg>