<?xml version="1.0" encoding="UTF-8"?>
<svg id="Capa_2" data-name="Capa 2" xmlns="http://www.w3.org/2000/svg" viewBox="0 0 258.24 13.86">
  <defs>
    <style>
      .cls-1 {
        fill: none;
        stroke: #000;
        stroke-linecap: round;
        stroke-linejoin: round;
        stroke-width: .72px;
      }
    </style>
  </defs>
  <g id="Capa_1-2" data-name="Capa 1">
    <g>
      <line class="cls-1" x1="257.88" y1=".72" x2="257.88" y2="6.3"/>
      <path class="cls-1" d="m257.88.69c0-.18-.15-.33-.33-.33"/>
      <line class="cls-1" x1="257.52" y1=".42" x2="232.14" y2=".42"/>
      <path class="cls-1" d="m232.17.36c-.17,0-.31.13-.33.3"/>
      <line class="cls-1" x1="231.78" y1=".72" x2="230.7" y2="11.22"/>
      <path class="cls-1" d="m230.43,11.46c.17,0,.31-.13.33-.3"/>
      <line class="cls-1" x1="230.4" y1="11.52" x2="219.42" y2="11.52"/>
      <path class="cls-1" d="m219.12,11.13c0,.18.15.33.33.33"/>
      <line class="cls-1" x1="219.06" y1="11.16" x2="219.06" y2=".72"/>
      <path class="cls-1" d="m219.12.69c0-.18-.15-.33-.33-.33"/>
      <line class="cls-1" x1="218.76" y1=".42" x2="193.32" y2=".42"/>
      <path class="cls-1" d="m193.35.36c-.17,0-.31.13-.33.3"/>
      <line class="cls-1" x1="192.96" y1=".72" x2="191.94" y2="11.22"/>
      <path class="cls-1" d="m191.61,11.46c.17,0,.31-.13.33-.3"/>
      <line class="cls-1" x1="191.58" y1="11.52" x2="180.6" y2="11.52"/>
      <path class="cls-1" d="m180.3,11.13c0,.18.15.33.33.33"/>
      <line class="cls-1" x1="180.3" y1="11.16" x2="180.3" y2=".72"/>
      <path class="cls-1" d="m180.3.69c0-.18-.15-.33-.33-.33"/>
      <line class="cls-1" x1="179.94" y1=".42" x2="154.56" y2=".42"/>
      <path class="cls-1" d="m154.59.36c-.17,0-.31.13-.33.3"/>
      <line class="cls-1" x1="154.2" y1=".72" x2="153.18" y2="11.22"/>
      <path class="cls-1" d="m152.85,11.46c.17,0,.31-.13.33-.3"/>
      <line class="cls-1" x1="152.82" y1="11.52" x2="141.84" y2="11.52"/>
      <path class="cls-1" d="m141.54,11.13c0,.18.15.33.33.33"/>
      <line class="cls-1" x1="141.54" y1="11.16" x2="141.54" y2=".72"/>
      <path class="cls-1" d="m141.54.69c0-.18-.15-.33-.33-.33"/>
      <line class="cls-1" x1="141.18" y1=".42" x2="115.74" y2=".42"/>
      <path class="cls-1" d="m115.77.36c-.17,0-.31.13-.33.3"/>
      <line class="cls-1" x1="115.38" y1=".72" x2="114.36" y2="11.22"/>
      <path class="cls-1" d="m114.03,11.46c.17,0,.31-.13.33-.3"/>
      <line class="cls-1" x1="114" y1="11.52" x2="103.02" y2="11.52"/>
      <path class="cls-1" d="m102.72,11.13c0,.18.15.33.33.33"/>
      <line class="cls-1" x1="102.72" y1="11.16" x2="102.72" y2=".72"/>
      <path class="cls-1" d="m102.72.69c0-.18-.15-.33-.33-.33"/>
      <line class="cls-1" x1="102.36" y1=".42" x2="76.92" y2=".42"/>
      <path class="cls-1" d="m76.95.36c-.17,0-.31.13-.33.3"/>
      <line class="cls-1" x1="76.62" y1=".72" x2="75.54" y2="11.22"/>
      <path class="cls-1" d="m75.27,11.46c.17,0,.31-.13.33-.3"/>
      <line class="cls-1" x1="75.24" y1="11.52" x2="64.2" y2="11.52"/>
      <path class="cls-1" d="m63.9,11.13c0,.18.15.33.33.33"/>
      <line class="cls-1" x1="63.84" y1="11.16" x2="63.84" y2=".72"/>
      <path class="cls-1" d="m63.9.69c0-.18-.15-.33-.33-.33"/>
      <line class="cls-1" x1="63.54" y1=".42" x2="38.1" y2=".42"/>
      <path class="cls-1" d="m38.13.36c-.17,0-.31.13-.33.3"/>
      <line class="cls-1" x1="37.74" y1=".72" x2="36.72" y2="11.22"/>
      <path class="cls-1" d="m36.39,11.46c.17,0,.31-.13.33-.3"/>
      <line class="cls-1" x1="36.36" y1="11.52" x2="23.58" y2="11.52"/>
      <path class="cls-1" d="m23.61,11.46c-.12,0-.23.06-.29.17"/>
      <path class="cls-1" d="m23.07,11.82c.12,0,.23-.06.29-.17"/>
      <polyline class="cls-1" points="23.04 11.82 20.64 11.82 18.84 11.82 18.66 11.52"/>
      <line class="cls-1" x1="18.6" y1="11.58" x2="18.6" y2="11.58"/>
      <polyline class="cls-1" points="18.54 11.52 18.3 11.82 17.22 11.82 16.98 11.52"/>
      <line class="cls-1" x1="16.92" y1="11.58" x2="16.92" y2="11.58"/>
      <polyline class="cls-1" points="16.86 11.52 16.62 11.82 13.98 11.82 12.54 11.82"/>
      <path class="cls-1" d="m12.24,11.49c0,.18.15.33.33.33"/>
      <line class="cls-1" x1="12.18" y1="11.52" x2="12.18" y2="9.84"/>
      <path class="cls-1" d="m12.24,9.81c0-.18-.15-.33-.33-.33"/>
      <line class="cls-1" x1="11.88" y1="9.48" x2=".66" y2="9.48"/>
      <path class="cls-1" d="m.69,9.48c-.18,0-.33.15-.33.33"/>
      <line class="cls-1" x1=".36" y1="9.84" x2=".36" y2="11.16"/>
      <path class="cls-1" d="m.38,11.11c.05.14.19.24.34.23"/>
      <line class="cls-1" x1=".66" y1="11.4" x2="10.02" y2="11.4"/>
      <path class="cls-1" d="m10.38,11.67c0-.18-.15-.33-.33-.33"/>
      <line class="cls-1" x1="10.32" y1="11.7" x2="10.32" y2="13.14"/>
      <path class="cls-1" d="m10.38,13.11c0,.18.15.33.33.33"/>
      <line class="cls-1" x1="10.68" y1="13.5" x2="38.16" y2="13.5"/>
      <path class="cls-1" d="m38.19,13.44c.17,0,.31-.13.33-.3"/>
      <line class="cls-1" x1="38.52" y1="13.2" x2="39.54" y2="2.7"/>
      <path class="cls-1" d="m39.93,2.4c-.17,0-.31.13-.33.3"/>
      <line class="cls-1" x1="39.9" y1="2.4" x2="61.56" y2="2.4"/>
      <path class="cls-1" d="m61.92,2.73c0-.18-.15-.33-.33-.33"/>
      <line class="cls-1" x1="61.86" y1="2.76" x2="61.86" y2="13.14"/>
      <path class="cls-1" d="m61.92,13.11c0,.18.15.33.33.33"/>
      <line class="cls-1" x1="62.22" y1="13.5" x2="77.04" y2="13.5"/>
      <path class="cls-1" d="m77.07,13.44c.17,0,.31-.13.33-.3"/>
      <line class="cls-1" x1="77.34" y1="13.2" x2="78.42" y2="2.7"/>
      <path class="cls-1" d="m78.75,2.4c-.17,0-.31.13-.33.3"/>
      <line class="cls-1" x1="78.72" y1="2.4" x2="100.38" y2="2.4"/>
      <path class="cls-1" d="m100.74,2.73c0-.18-.15-.33-.33-.33"/>
      <line class="cls-1" x1="100.74" y1="2.76" x2="100.74" y2="13.14"/>
      <path class="cls-1" d="m100.74,13.11c0,.18.15.33.33.33"/>
      <line class="cls-1" x1="101.04" y1="13.5" x2="115.8" y2="13.5"/>
      <path class="cls-1" d="m115.83,13.44c.17,0,.31-.13.33-.3"/>
      <line class="cls-1" x1="116.16" y1="13.2" x2="117.18" y2="2.7"/>
      <path class="cls-1" d="m117.57,2.4c-.17,0-.31.13-.33.3"/>
      <line class="cls-1" x1="117.54" y1="2.4" x2="139.2" y2="2.4"/>
      <path class="cls-1" d="m139.56,2.73c0-.18-.15-.33-.33-.33"/>
      <line class="cls-1" x1="139.5" y1="2.76" x2="139.5" y2="13.14"/>
      <path class="cls-1" d="m139.56,13.11c0,.18.15.33.33.33"/>
      <line class="cls-1" x1="139.86" y1="13.5" x2="154.62" y2="13.5"/>
      <path class="cls-1" d="m154.65,13.44c.17,0,.31-.13.33-.3"/>
      <line class="cls-1" x1="154.98" y1="13.2" x2="156" y2="2.7"/>
      <path class="cls-1" d="m156.39,2.4c-.17,0-.31.13-.33.3"/>
      <line class="cls-1" x1="156.36" y1="2.4" x2="177.96" y2="2.4"/>
      <path class="cls-1" d="m178.32,2.73c0-.18-.15-.33-.33-.33"/>
      <line class="cls-1" x1="178.26" y1="2.76" x2="178.26" y2="13.14"/>
      <path class="cls-1" d="m178.32,13.11c0,.18.15.33.33.33"/>
      <line class="cls-1" x1="178.62" y1="13.5" x2="193.38" y2="13.5"/>
      <path class="cls-1" d="m193.41,13.44c.17,0,.31-.13.33-.3"/>
      <line class="cls-1" x1="193.74" y1="13.2" x2="194.76" y2="2.7"/>
      <path class="cls-1" d="m195.15,2.4c-.17,0-.31.13-.33.3"/>
      <line class="cls-1" x1="195.12" y1="2.4" x2="216.78" y2="2.4"/>
      <path class="cls-1" d="m217.14,2.73c0-.18-.15-.33-.33-.33"/>
      <line class="cls-1" x1="217.08" y1="2.76" x2="217.08" y2="13.14"/>
      <path class="cls-1" d="m217.14,13.11c0,.18.15.33.33.33"/>
      <polyline class="cls-1" points="217.44 13.5 231.6 13.5 243.36 13.5 243.36 13.32"/>
      <path class="cls-1" d="m243.42,13.29c0-.98-.79-1.77-1.77-1.77"/>
      <line class="cls-1" x1="241.62" y1="11.52" x2="233.1" y2="11.52"/>
      <path class="cls-1" d="m232.8,11.16c0,.09.02.19.08.25.06.07.15.11.24.11"/>
      <line class="cls-1" x1="232.74" y1="11.16" x2="232.92" y2="9.6"/>
      <path class="cls-1" d="m233.25,9.3c-.17,0-.31.13-.33.3"/>
      <line class="cls-1" x1="233.22" y1="9.3" x2="237" y2="9.3"/>
      <path class="cls-1" d="m237.03,9.24c.98,0,1.77-.79,1.77-1.77"/>
      <line class="cls-1" x1="238.8" y1="7.5" x2="233.46" y2="7.5"/>
      <path class="cls-1" d="m233.16,7.14c0,.09.02.19.08.25s.15.11.24.11"/>
      <line class="cls-1" x1="233.16" y1="7.14" x2="233.58" y2="2.7"/>
      <path class="cls-1" d="m233.97,2.4c-.17,0-.31.13-.33.3"/>
      <line class="cls-1" x1="233.94" y1="2.4" x2="255.54" y2="2.4"/>
      <path class="cls-1" d="m255.9,2.73c0-.18-.15-.33-.33-.33"/>
      <line class="cls-1" x1="255.84" y1="2.76" x2="255.84" y2="8.28"/>
      <path class="cls-1" d="m255.87,8.28c1.11,0,2.01-.9,2.01-2.01"/>
    </g>
  </g>
</svg>