<svg id="Capa_2" data-name="Capa 2" xmlns="http://www.w3.org/2000/svg" viewBox="0 0 20.488 1.706"><defs><style>.cls-1{fill:none;stroke:#000;stroke-linecap:round;stroke-linejoin:round;stroke-width:0.05px;}</style></defs><g id="POLYLINE"><polygon class="cls-1" points="1.099 1.305 0.31 1.305 0.309 1.305 0.307 1.305 0.305 1.305 0.303 1.305 0.301 1.306 0.299 1.306 0.297 1.307 0.295 1.307 0.293 1.308 0.291 1.309 0.289 1.309 0.287 1.31 0.285 1.312 0.283 1.313 0.281 1.314 0.279 1.315 0.278 1.317 0.276 1.319 0.274 1.32 0.272 1.322 0.271 1.324 0.269 1.326 0.268 1.329 0.267 1.331 0.265 1.334 0.264 1.337 0.264 1.34 0.263 1.343 0.262 1.346 0.262 1.349 0.261 1.353 0.261 1.356 0.261 1.364 0.26 1.371 0.259 1.378 0.258 1.385 0.256 1.391 0.253 1.398 0.251 1.403 0.248 1.409 0.245 1.414 0.241 1.419 0.238 1.424 0.234 1.429 0.23 1.433 0.226 1.437 0.221 1.441 0.217 1.444 0.212 1.447 0.207 1.45 0.202 1.453 0.198 1.456 0.193 1.458 0.188 1.46 0.183 1.462 0.178 1.464 0.173 1.465 0.168 1.466 0.164 1.468 0.159 1.468 0.155 1.469 0.15 1.469 0.146 1.47 0.142 1.47 0.137 1.47 0.133 1.469 0.128 1.469 0.122 1.468 0.117 1.467 0.112 1.466 0.107 1.464 0.102 1.462 0.097 1.46 0.092 1.458 0.087 1.456 0.082 1.453 0.078 1.45 0.073 1.447 0.069 1.444 0.064 1.44 0.06 1.436 0.056 1.432 0.052 1.428 0.048 1.423 0.045 1.419 0.042 1.414 0.039 1.408 0.036 1.403 0.034 1.397 0.031 1.391 0.029 1.385 0.028 1.379 0.027 1.372 0.026 1.365 0.025 1.358 0.025 1.351 0.025 1.169 0.025 1.167 0.025 1.164 0.026 1.162 0.026 1.159 0.027 1.157 0.027 1.154 0.028 1.152 0.029 1.149 0.03 1.147 0.031 1.145 0.032 1.143 0.034 1.141 0.035 1.139 0.037 1.137 0.038 1.135 0.04 1.133 0.042 1.131 0.044 1.13 0.046 1.128 0.048 1.127 0.05 1.125 0.052 1.124 0.054 1.123 0.056 1.122 0.059 1.121 0.061 1.12 0.064 1.12 0.066 1.119 0.069 1.119 0.071 1.118 0.074 1.118 0.076 1.118 0.912 1.118 0.914 1.118 0.917 1.118 0.919 1.117 0.922 1.117 0.924 1.116 0.927 1.116 0.929 1.115 0.932 1.114 0.934 1.113 0.936 1.112 0.938 1.111 0.94 1.109 0.942 1.108 0.944 1.106 0.946 1.105 0.948 1.103 0.95 1.101 0.951 1.099 0.953 1.097 0.954 1.095 0.956 1.093 0.957 1.091 0.958 1.089 0.959 1.087 0.96 1.084 0.961 1.082 0.961 1.079 0.962 1.077 0.962 1.074 0.963 1.072 0.963 1.069 0.963 1.067 0.963 0.076 0.963 0.074 0.963 0.071 0.964 0.069 0.964 0.066 0.965 0.064 0.965 0.061 0.966 0.059 0.967 0.056 0.968 0.054 0.969 0.052 0.971 0.05 0.972 0.048 0.973 0.046 0.975 0.044 0.976 0.042 0.978 0.04 0.98 0.038 0.982 0.037 0.984 0.035 0.986 0.034 0.988 0.032 0.99 0.031 0.992 0.03 0.995 0.029 0.997 0.028 0.999 0.027 1.002 0.027 1.004 0.026 1.007 0.026 1.009 0.025 1.012 0.025 1.015 0.025 2.726 0.025 2.728 0.025 2.731 0.025 2.734 0.026 2.736 0.026 2.739 0.027 2.741 0.027 2.744 0.028 2.746 0.029 2.748 0.03 2.75 0.031 2.752 0.032 2.755 0.034 2.757 0.035 2.759 0.037 2.76 0.038 2.762 0.04 2.764 0.042 2.766 0.044 2.767 0.046 2.768 0.048 2.77 0.05 2.771 0.052 2.772 0.054 2.773 0.056 2.774 0.059 2.775 0.061 2.776 0.064 2.776 0.066 2.777 0.069 2.777 0.071 2.777 0.074 2.777 0.076 2.777 0.864 2.777 0.867 2.778 0.87 2.778 0.872 2.778 0.875 2.779 0.877 2.78 0.88 2.78 0.882 2.781 0.884 2.782 0.887 2.784 0.889 2.785 0.891 2.786 0.893 2.788 0.895 2.789 0.897 2.791 0.899 2.792 0.901 2.794 0.902 2.796 0.904 2.798 0.906 2.8 0.907 2.802 0.908 2.804 0.91 2.806 0.911 2.809 0.912 2.811 0.913 2.813 0.913 2.816 0.914 2.818 0.915 2.821 0.915 2.823 0.916 2.826 0.916 2.829 0.916 4.54 0.916 4.543 0.916 4.545 0.916 4.548 0.915 4.55 0.915 4.553 0.914 4.555 0.913 4.558 0.913 4.56 0.912 4.562 0.911 4.565 0.91 4.567 0.908 4.569 0.907 4.571 0.906 4.573 0.904 4.575 0.902 4.576 0.901 4.578 0.899 4.58 0.897 4.581 0.895 4.583 0.893 4.584 0.891 4.585 0.889 4.586 0.887 4.587 0.884 4.588 0.882 4.589 0.88 4.59 0.877 4.59 0.875 4.591 0.872 4.591 0.87 4.591 0.867 4.592 0.864 4.592 0.076 4.592 0.074 4.592 0.071 4.593 0.069 4.593 0.066 4.594 0.064 4.594 0.061 4.595 0.059 4.596 0.056 4.597 0.054 4.598 0.052 4.6 0.05 4.601 0.048 4.602 0.046 4.604 0.044 4.605 0.042 4.607 0.04 4.609 0.038 4.611 0.037 4.613 0.035 4.615 0.034 4.617 0.032 4.619 0.031 4.621 0.03 4.623 0.029 4.626 0.028 4.628 0.027 4.631 0.027 4.633 0.026 4.636 0.026 4.638 0.025 4.641 0.025 4.643 0.025 6.355 0.025 6.357 0.025 6.36 0.025 6.363 0.026 6.365 0.026 6.368 0.027 6.37 0.027 6.372 0.028 6.375 0.029 6.377 0.03 6.379 0.031 6.381 0.032 6.384 0.034 6.386 0.035 6.388 0.037 6.389 0.038 6.391 0.04 6.393 0.042 6.394 0.044 6.396 0.046 6.397 0.048 6.399 0.05 6.4 0.052 6.401 0.054 6.402 0.056 6.403 0.059 6.404 0.061 6.405 0.064 6.405 0.066 6.406 0.069 6.406 0.071 6.406 0.074 6.406 0.076 6.406 0.864 6.406 0.867 6.407 0.87 6.407 0.872 6.407 0.875 6.408 0.877 6.409 0.88 6.409 0.882 6.41 0.884 6.411 0.887 6.413 0.889 6.414 0.891 6.415 0.893 6.417 0.895 6.418 0.897 6.42 0.899 6.421 0.901 6.423 0.902 6.425 0.904 6.427 0.906 6.429 0.907 6.431 0.908 6.433 0.91 6.435 0.911 6.438 0.912 6.44 0.913 6.442 0.913 6.445 0.914 6.447 0.915 6.45 0.915 6.452 0.916 6.455 0.916 6.458 0.916 8.169 0.916 8.172 0.916 8.175 0.916 8.177 0.915 8.18 0.915 8.182 0.914 8.185 0.913 8.187 0.913 8.189 0.912 8.192 0.911 8.194 0.91 8.196 0.908 8.198 0.907 8.2 0.906 8.202 0.904 8.204 0.902 8.206 0.901 8.207 0.899 8.209 0.897 8.211 0.895 8.212 0.893 8.213 0.891 8.215 0.889 8.216 0.887 8.217 0.884 8.218 0.882 8.219 0.88 8.219 0.877 8.22 0.875 8.22 0.872 8.221 0.87 8.221 0.867 8.221 0.864 8.221 0.076 8.221 0.074 8.221 0.071 8.222 0.069 8.222 0.066 8.223 0.064 8.223 0.061 8.224 0.059 8.225 0.056 8.226 0.054 8.227 0.052 8.229 0.05 8.23 0.048 8.231 0.046 8.233 0.044 8.234 0.042 8.236 0.04 8.238 0.038 8.24 0.037 8.242 0.035 8.244 0.034 8.246 0.032 8.248 0.031 8.25 0.03 8.252 0.029 8.255 0.028 8.257 0.027 8.26 0.027 8.262 0.026 8.265 0.026 8.267 0.025 8.27 0.025 8.272 0.025 9.984 0.025 9.986 0.025 9.989 0.025 9.992 0.026 9.994 0.026 9.997 0.027 9.999 0.027 10.001 0.028 10.004 0.029 10.006 0.03 10.008 0.031 10.01 0.032 10.013 0.034 10.015 0.035 10.016 0.037 10.018 0.038 10.02 0.04 10.022 0.042 10.023 0.044 10.025 0.046 10.026 0.048 10.028 0.05 10.029 0.052 10.03 0.054 10.031 0.056 10.032 0.059 10.033 0.061 10.034 0.064 10.034 0.066 10.035 0.069 10.035 0.071 10.035 0.074 10.035 0.076 10.035 0.864 10.035 0.867 10.035 0.87 10.035 0.872 10.036 0.875 10.036 0.877 10.037 0.88 10.038 0.882 10.039 0.884 10.04 0.887 10.041 0.889 10.042 0.891 10.043 0.893 10.045 0.895 10.046 0.897 10.048 0.899 10.05 0.901 10.051 0.902 10.053 0.904 10.055 0.906 10.057 0.907 10.059 0.908 10.062 0.91 10.064 0.911 10.066 0.912 10.068 0.913 10.071 0.913 10.073 0.914 10.076 0.915 10.078 0.915 10.081 0.916 10.083 0.916 10.086 0.916 11.798 0.916 11.801 0.916 11.803 0.916 11.806 0.915 11.808 0.915 11.811 0.914 11.813 0.913 11.816 0.913 11.818 0.912 11.82 0.911 11.823 0.91 11.825 0.908 11.827 0.907 11.829 0.906 11.831 0.904 11.833 0.902 11.834 0.901 11.836 0.899 11.838 0.897 11.839 0.895 11.841 0.893 11.842 0.891 11.843 0.889 11.844 0.887 11.845 0.884 11.846 0.882 11.847 0.88 11.848 0.877 11.848 0.875 11.849 0.872 11.849 0.87 11.849 0.867 11.849 0.864 11.85 0.076 11.85 0.074 11.85 0.071 11.851 0.069 11.851 0.066 11.852 0.064 11.852 0.061 11.853 0.059 11.854 0.056 11.855 0.054 11.856 0.052 11.857 0.05 11.859 0.048 11.86 0.046 11.862 0.044 11.863 0.042 11.865 0.04 11.867 0.038 11.869 0.037 11.871 0.035 11.873 0.034 11.875 0.032 11.877 0.031 11.879 0.03 11.881 0.029 11.884 0.028 11.886 0.027 11.889 0.027 11.891 0.026 11.894 0.026 11.896 0.025 11.899 0.025 11.901 0.025 13.613 0.025 13.615 0.025 13.618 0.025 13.621 0.026 13.623 0.026 13.626 0.027 13.628 0.027 13.63 0.028 13.633 0.029 13.635 0.03 13.637 0.031 13.639 0.032 13.642 0.034 13.644 0.035 13.645 0.037 13.647 0.038 13.649 0.04 13.651 0.042 13.652 0.044 13.654 0.046 13.655 0.048 13.657 0.05 13.658 0.052 13.659 0.054 13.66 0.056 13.661 0.059 13.662 0.061 13.663 0.064 13.663 0.066 13.664 0.069 13.664 0.071 13.664 0.074 13.664 0.076 13.664 0.864 13.664 0.867 13.664 0.87 13.665 0.872 13.665 0.875 13.666 0.877 13.667 0.88 13.667 0.882 13.668 0.884 13.669 0.887 13.67 0.889 13.672 0.891 13.673 0.893 13.674 0.895 13.676 0.897 13.678 0.899 13.679 0.901 13.681 0.902 13.683 0.904 13.685 0.906 13.687 0.907 13.689 0.908 13.691 0.91 13.693 0.911 13.696 0.912 13.698 0.913 13.7 0.913 13.703 0.914 13.705 0.915 13.708 0.915 13.71 0.916 13.713 0.916 13.716 0.916 15.428 0.916 15.43 0.916 15.433 0.916 15.435 0.915 15.438 0.915 15.44 0.914 15.443 0.913 15.445 0.913 15.448 0.912 15.45 0.911 15.452 0.91 15.454 0.908 15.456 0.907 15.458 0.906 15.46 0.904 15.462 0.902 15.464 0.901 15.466 0.899 15.467 0.897 15.469 0.895 15.47 0.893 15.472 0.891 15.473 0.889 15.474 0.887 15.475 0.884 15.476 0.882 15.477 0.88 15.477 0.877 15.478 0.875 15.478 0.872 15.479 0.87 15.479 0.867 15.479 0.864 15.48 0.076 15.48 0.074 15.48 0.071 15.48 0.069 15.481 0.066 15.481 0.064 15.482 0.061 15.483 0.059 15.484 0.056 15.485 0.054 15.486 0.052 15.487 0.05 15.488 0.048 15.49 0.046 15.491 0.044 15.493 0.042 15.495 0.04 15.497 0.038 15.498 0.037 15.5 0.035 15.502 0.034 15.504 0.032 15.507 0.031 15.509 0.03 15.511 0.029 15.513 0.028 15.516 0.027 15.518 0.027 15.521 0.026 15.523 0.026 15.526 0.025 15.528 0.025 15.531 0.025 17.242 0.025 17.245 0.025 17.248 0.025 17.25 0.026 17.253 0.026 17.255 0.027 17.258 0.027 17.26 0.028 17.262 0.029 17.265 0.03 17.267 0.031 17.269 0.032 17.271 0.034 17.273 0.035 17.275 0.037 17.277 0.038 17.279 0.04 17.28 0.042 17.282 0.044 17.284 0.046 17.285 0.048 17.286 0.05 17.288 0.052 17.289 0.054 17.29 0.056 17.291 0.059 17.291 0.061 17.292 0.064 17.293 0.066 17.293 0.069 17.294 0.071 17.294 0.074 17.294 0.076 17.294 0.864 17.294 0.867 17.294 0.87 17.295 0.872 17.295 0.875 17.296 0.877 17.296 0.88 17.297 0.882 17.298 0.884 17.299 0.887 17.3 0.889 17.301 0.891 17.303 0.893 17.304 0.895 17.306 0.897 17.307 0.899 17.309 0.901 17.311 0.902 17.313 0.904 17.315 0.906 17.317 0.907 17.319 0.908 17.321 0.91 17.323 0.911 17.325 0.912 17.328 0.913 17.33 0.913 17.332 0.914 17.335 0.915 17.337 0.915 17.34 0.916 17.343 0.916 17.345 0.916 19.03 0.916 19.033 0.916 19.036 0.916 19.038 0.916 19.041 0.917 19.043 0.917 19.046 0.918 19.048 0.919 19.05 0.92 19.053 0.921 19.055 0.922 19.057 0.923 19.059 0.924 19.061 0.926 19.063 0.927 19.065 0.929 19.067 0.931 19.068 0.933 19.07 0.934 19.072 0.936 19.073 0.938 19.074 0.94 19.076 0.943 19.077 0.945 19.078 0.947 19.079 0.949 19.079 0.952 19.08 0.954 19.081 0.957 19.081 0.959 19.082 0.962 19.082 0.964 19.082 0.967 19.082 1.042 19.082 1.045 19.082 1.048 19.081 1.05 19.081 1.053 19.08 1.055 19.079 1.058 19.079 1.06 19.078 1.062 19.077 1.065 19.076 1.067 19.074 1.069 19.073 1.071 19.072 1.073 19.07 1.075 19.068 1.077 19.067 1.079 19.065 1.08 19.063 1.082 19.061 1.084 19.059 1.085 19.057 1.086 19.055 1.088 19.053 1.089 19.05 1.09 19.048 1.091 19.046 1.091 19.043 1.092 19.041 1.093 19.038 1.093 19.036 1.093 19.033 1.094 19.03 1.094 18.214 1.094 18.212 1.094 18.209 1.094 18.207 1.094 18.204 1.095 18.202 1.095 18.199 1.096 18.197 1.097 18.194 1.098 18.192 1.099 18.19 1.1 18.188 1.101 18.186 1.103 18.184 1.104 18.182 1.105 18.18 1.107 18.178 1.109 18.176 1.111 18.175 1.112 18.173 1.114 18.172 1.116 18.17 1.118 18.169 1.121 18.168 1.123 18.167 1.125 18.166 1.127 18.165 1.13 18.165 1.132 18.164 1.135 18.164 1.137 18.163 1.14 18.163 1.142 18.163 1.145 18.163 1.443 18.163 1.445 18.163 1.448 18.163 1.451 18.164 1.453 18.164 1.456 18.165 1.458 18.166 1.461 18.167 1.463 18.168 1.465 18.169 1.467 18.17 1.469 18.172 1.472 18.173 1.474 18.175 1.476 18.176 1.477 18.178 1.479 18.18 1.481 18.182 1.483 18.184 1.484 18.186 1.485 18.188 1.487 18.19 1.488 18.192 1.489 18.194 1.49 18.197 1.491 18.199 1.492 18.201 1.493 18.204 1.493 18.206 1.494 18.209 1.494 18.212 1.494 18.214 1.494 19.91 1.5 20.411 1.494 20.414 1.494 20.417 1.494 20.419 1.495 20.422 1.495 20.424 1.496 20.427 1.496 20.429 1.497 20.431 1.498 20.434 1.499 20.436 1.5 20.438 1.502 20.44 1.503 20.442 1.504 20.444 1.506 20.446 1.508 20.448 1.509 20.449 1.511 20.451 1.513 20.453 1.515 20.454 1.517 20.455 1.519 20.457 1.521 20.458 1.523 20.459 1.526 20.46 1.528 20.461 1.53 20.461 1.533 20.462 1.535 20.462 1.538 20.463 1.54 20.463 1.543 20.463 1.546 20.463 1.63 20.463 1.632 20.462 1.635 20.462 1.638 20.462 1.64 20.461 1.643 20.46 1.645 20.46 1.647 20.459 1.65 20.458 1.652 20.456 1.654 20.455 1.656 20.454 1.658 20.452 1.66 20.451 1.662 20.449 1.664 20.448 1.666 20.446 1.668 20.444 1.669 20.442 1.671 20.44 1.672 20.438 1.674 20.436 1.675 20.433 1.676 20.431 1.677 20.429 1.678 20.426 1.679 20.424 1.679 20.422 1.68 20.419 1.681 20.416 1.681 20.414 1.681 20.411 1.681 18.027 1.681 18.025 1.681 18.022 1.681 18.02 1.681 18.017 1.68 18.015 1.68 18.012 1.679 18.01 1.678 18.007 1.677 18.005 1.676 18.003 1.675 18.001 1.674 17.999 1.672 17.997 1.671 17.995 1.669 17.993 1.668 17.991 1.666 17.989 1.664 17.988 1.662 17.986 1.66 17.985 1.658 17.983 1.656 17.982 1.654 17.981 1.652 17.98 1.65 17.979 1.647 17.978 1.645 17.978 1.643 17.977 1.64 17.977 1.638 17.976 1.635 17.976 1.632 17.976 1.63 17.976 1.154 17.976 1.151 17.976 1.149 17.975 1.146 17.975 1.144 17.974 1.141 17.974 1.139 17.973 1.136 17.972 1.134 17.971 1.132 17.97 1.13 17.969 1.127 17.967 1.125 17.966 1.123 17.964 1.121 17.963 1.12 17.961 1.118 17.959 1.116 17.957 1.114 17.955 1.113 17.953 1.111 17.951 1.11 17.949 1.109 17.947 1.108 17.945 1.107 17.942 1.106 17.94 1.105 17.938 1.104 17.935 1.104 17.932 1.103 17.93 1.103 17.927 1.103 17.925 1.103 17.158 1.103 17.155 1.103 17.153 1.103 17.15 1.103 17.147 1.102 17.145 1.102 17.143 1.101 17.14 1.1 17.138 1.099 17.136 1.098 17.133 1.097 17.131 1.096 17.129 1.095 17.127 1.093 17.125 1.092 17.123 1.09 17.121 1.088 17.12 1.086 17.118 1.085 17.117 1.083 17.115 1.081 17.114 1.079 17.113 1.076 17.111 1.074 17.11 1.072 17.11 1.07 17.109 1.067 17.108 1.065 17.107 1.062 17.107 1.06 17.107 1.057 17.106 1.055 17.106 1.052 17.106 0.265 17.106 0.262 17.105 0.259 17.105 0.257 17.105 0.254 17.104 0.252 17.103 0.249 17.103 0.247 17.102 0.245 17.101 0.242 17.1 0.24 17.098 0.238 17.097 0.236 17.095 0.234 17.094 0.232 17.092 0.23 17.091 0.228 17.089 0.226 17.087 0.225 17.085 0.223 17.083 0.222 17.081 0.221 17.079 0.219 17.077 0.218 17.074 0.217 17.072 0.216 17.07 0.215 17.067 0.215 17.065 0.214 17.062 0.214 17.06 0.213 17.057 0.213 17.054 0.213 15.717 0.213 15.715 0.213 15.712 0.213 15.71 0.214 15.707 0.214 15.705 0.215 15.702 0.215 15.7 0.216 15.697 0.217 15.695 0.218 15.693 0.219 15.691 0.221 15.689 0.222 15.687 0.223 15.685 0.225 15.683 0.226 15.681 0.228 15.679 0.23 15.678 0.232 15.676 0.234 15.675 0.236 15.673 0.238 15.672 0.24 15.671 0.242 15.67 0.245 15.669 0.247 15.668 0.249 15.668 0.252 15.667 0.254 15.667 0.257 15.666 0.259 15.666 0.262 15.666 0.265 15.666 1.051 15.666 1.054 15.666 1.056 15.665 1.059 15.665 1.062 15.664 1.064 15.664 1.066 15.663 1.069 15.662 1.071 15.661 1.073 15.66 1.076 15.658 1.078 15.657 1.08 15.656 1.082 15.654 1.084 15.653 1.086 15.651 1.088 15.649 1.089 15.647 1.091 15.645 1.092 15.643 1.094 15.641 1.095 15.639 1.096 15.637 1.098 15.634 1.099 15.632 1.099 15.63 1.1 15.627 1.101 15.625 1.102 15.622 1.102 15.62 1.102 15.617 1.103 15.614 1.103 13.529 1.103 13.526 1.103 13.524 1.102 13.521 1.102 13.518 1.102 13.516 1.101 13.514 1.1 13.511 1.1 13.509 1.099 13.507 1.098 13.504 1.096 13.502 1.095 13.5 1.094 13.498 1.092 13.496 1.091 13.494 1.089 13.492 1.088 13.491 1.086 13.489 1.084 13.488 1.082 13.486 1.08 13.485 1.078 13.484 1.076 13.483 1.074 13.481 1.071 13.481 1.069 13.48 1.067 13.479 1.064 13.478 1.062 13.478 1.059 13.478 1.057 13.478 1.054 13.477 1.051 13.477 0.265 13.477 0.262 13.477 0.259 13.477 0.257 13.476 0.254 13.476 0.252 13.475 0.249 13.474 0.247 13.473 0.245 13.472 0.242 13.471 0.24 13.47 0.238 13.469 0.236 13.467 0.234 13.466 0.232 13.464 0.23 13.462 0.228 13.461 0.226 13.459 0.225 13.457 0.223 13.455 0.222 13.453 0.221 13.45 0.219 13.448 0.218 13.446 0.217 13.444 0.216 13.441 0.215 13.439 0.215 13.436 0.214 13.434 0.214 13.431 0.213 13.429 0.213 13.426 0.213 12.088 0.213 12.086 0.213 12.083 0.213 12.081 0.214 12.078 0.214 12.076 0.215 12.073 0.215 12.071 0.216 12.068 0.217 12.066 0.218 12.064 0.219 12.062 0.221 12.06 0.222 12.058 0.223 12.056 0.225 12.054 0.226 12.052 0.228 12.05 0.23 12.049 0.232 12.047 0.234 12.046 0.236 12.044 0.238 12.043 0.24 12.042 0.242 12.041 0.245 12.04 0.247 12.039 0.249 12.039 0.252 12.038 0.254 12.038 0.257 12.037 0.259 12.037 0.262 12.037 0.265 12.038 1.051 12.037 1.054 12.037 1.056 12.037 1.059 12.036 1.062 12.036 1.064 12.035 1.067 12.034 1.069 12.034 1.071 12.032 1.074 12.031 1.076 12.03 1.078 12.029 1.08 12.027 1.082 12.026 1.084 12.024 1.086 12.022 1.088 12.021 1.089 12.019 1.091 12.017 1.092 12.015 1.094 12.013 1.095 12.011 1.096 12.008 1.098 12.006 1.099 12.004 1.1 12.001 1.1 11.999 1.101 11.997 1.102 11.994 1.102 11.991 1.102 11.989 1.103 11.986 1.103 10.086 1.102 10.083 1.103 10.081 1.103 10.078 1.103 10.076 1.104 10.073 1.104 10.071 1.105 10.068 1.106 10.066 1.107 10.064 1.108 10.062 1.109 10.059 1.11 10.057 1.111 10.055 1.113 10.053 1.114 10.051 1.116 10.05 1.118 10.048 1.119 10.046 1.121 10.045 1.123 10.043 1.125 10.042 1.127 10.041 1.129 10.04 1.132 10.039 1.134 10.038 1.136 10.037 1.139 10.036 1.141 10.036 1.144 10.035 1.146 10.035 1.149 10.035 1.151 10.035 1.154 10.035 1.333 10.035 1.335 10.035 1.338 10.035 1.341 10.036 1.343 10.036 1.346 10.037 1.348 10.038 1.35 10.039 1.353 10.04 1.355 10.041 1.357 10.042 1.359 10.043 1.361 10.045 1.363 10.046 1.365 10.048 1.367 10.05 1.369 10.051 1.371 10.053 1.372 10.055 1.374 10.057 1.375 10.059 1.377 10.062 1.378 10.064 1.379 10.066 1.38 10.068 1.381 10.071 1.382 10.073 1.383 10.076 1.383 10.078 1.384 10.081 1.384 10.083 1.384 10.086 1.384 10.311 1.384 10.314 1.384 10.316 1.384 10.319 1.385 10.321 1.385 10.324 1.386 10.326 1.386 10.329 1.387 10.331 1.388 10.333 1.389 10.336 1.39 10.338 1.392 10.34 1.393 10.342 1.394 10.344 1.396 10.346 1.398 10.347 1.399 10.349 1.401 10.351 1.403 10.352 1.405 10.354 1.407 10.355 1.409 10.356 1.411 10.357 1.413 10.358 1.416 10.359 1.418 10.36 1.42 10.361 1.423 10.361 1.425 10.362 1.428 10.362 1.43 10.362 1.433 10.362 1.436 10.362 1.63 10.362 1.632 10.362 1.635 10.362 1.638 10.361 1.64 10.361 1.643 10.36 1.645 10.359 1.647 10.358 1.65 10.357 1.652 10.356 1.654 10.355 1.656 10.354 1.658 10.352 1.66 10.351 1.662 10.349 1.664 10.347 1.666 10.346 1.668 10.344 1.669 10.342 1.671 10.34 1.672 10.338 1.674 10.336 1.675 10.333 1.676 10.331 1.677 10.329 1.678 10.326 1.679 10.324 1.679 10.321 1.68 10.319 1.68 10.316 1.681 10.314 1.681 10.311 1.681 9.642 1.681 9.639 1.681 9.637 1.681 9.634 1.68 9.632 1.68 9.629 1.679 9.627 1.679 9.624 1.678 9.622 1.677 9.62 1.676 9.618 1.675 9.615 1.674 9.613 1.672 9.611 1.671 9.609 1.669 9.607 1.668 9.606 1.666 9.604 1.664 9.602 1.662 9.601 1.66 9.599 1.658 9.598 1.656 9.597 1.654 9.596 1.652 9.595 1.65 9.594 1.647 9.593 1.645 9.592 1.643 9.592 1.64 9.591 1.638 9.591 1.635 9.591 1.632 9.591 1.63 9.591 1.436 9.591 1.433 9.591 1.43 9.591 1.428 9.592 1.425 9.592 1.423 9.593 1.42 9.594 1.418 9.595 1.416 9.596 1.413 9.597 1.411 9.598 1.409 9.599 1.407 9.601 1.405 9.602 1.403 9.604 1.401 9.606 1.399 9.607 1.398 9.609 1.396 9.611 1.394 9.613 1.393 9.615 1.392 9.618 1.39 9.62 1.389 9.622 1.388 9.624 1.387 9.627 1.386 9.629 1.386 9.632 1.385 9.634 1.385 9.637 1.384 9.639 1.384 9.642 1.384 9.797 1.384 9.799 1.384 9.802 1.384 9.804 1.384 9.807 1.383 9.809 1.383 9.812 1.382 9.814 1.381 9.817 1.38 9.819 1.379 9.821 1.378 9.823 1.377 9.825 1.375 9.827 1.374 9.829 1.372 9.831 1.371 9.833 1.369 9.835 1.367 9.836 1.365 9.838 1.363 9.839 1.361 9.84 1.359 9.842 1.357 9.843 1.355 9.844 1.353 9.845 1.35 9.846 1.348 9.846 1.346 9.847 1.343 9.847 1.341 9.848 1.338 9.848 1.335 9.848 1.333 9.848 0.984 9.848 0.983 9.848 0.982 9.848 0.981 9.847 0.98 9.847 0.978 9.847 0.976 9.846 0.974 9.845 0.973 9.845 0.971 9.844 0.969 9.842 0.966 9.84 0.962 9.835 0.955 9.831 0.948 9.828 0.944 9.828 0.942 9.827 0.94 9.826 0.938 9.825 0.935 9.824 0.933 9.824 0.931 9.823 0.928 9.823 0.926 9.823 0.923 9.823 0.92 9.823 0.917 9.823 0.914 9.823 0.912 9.824 0.909 9.824 0.907 9.825 0.904 9.826 0.902 9.827 0.9 9.828 0.897 9.828 0.895 9.831 0.891 9.833 0.888 9.835 0.884 9.84 0.877 9.842 0.874 9.844 0.871 9.845 0.869 9.845 0.867 9.846 0.865 9.847 0.863 9.847 0.862 9.847 0.86 9.848 0.859 9.848 0.858 9.848 0.857 9.848 0.856 9.848 0.742 9.848 0.741 9.848 0.74 9.848 0.739 9.847 0.738 9.847 0.736 9.847 0.734 9.846 0.732 9.845 0.73 9.845 0.729 9.844 0.727 9.842 0.724 9.84 0.72 9.835 0.713 9.833 0.71 9.831 0.706 9.828 0.702 9.828 0.7 9.827 0.697 9.826 0.695 9.825 0.693 9.824 0.69 9.824 0.688 9.823 0.685 9.823 0.682 9.823 0.679 9.823 0.676 9.823 0.673 9.823 0.67 9.823 0.668 9.824 0.665 9.824 0.663 9.825 0.66 9.826 0.658 9.827 0.656 9.828 0.654 9.828 0.652 9.831 0.648 9.833 0.644 9.835 0.641 9.84 0.634 9.842 0.631 9.844 0.628 9.845 0.626 9.845 0.625 9.846 0.623 9.847 0.621 9.847 0.619 9.847 0.618 9.847 0.618 9.848 0.617 9.848 0.616 9.848 0.615 9.848 0.614 9.848 0.265 9.848 0.262 9.847 0.259 9.847 0.257 9.847 0.254 9.846 0.252 9.845 0.249 9.845 0.247 9.844 0.245 9.843 0.242 9.842 0.24 9.84 0.238 9.839 0.236 9.838 0.234 9.836 0.232 9.834 0.23 9.833 0.228 9.831 0.226 9.829 0.225 9.827 0.223 9.825 0.222 9.823 0.221 9.821 0.219 9.819 0.218 9.816 0.217 9.814 0.216 9.812 0.215 9.809 0.215 9.807 0.214 9.804 0.214 9.802 0.213 9.799 0.213 9.796 0.213 8.459 0.213 8.457 0.213 8.454 0.213 8.452 0.214 8.449 0.214 8.447 0.215 8.444 0.215 8.442 0.216 8.439 0.217 8.437 0.218 8.435 0.219 8.433 0.221 8.431 0.222 8.429 0.223 8.427 0.225 8.425 0.226 8.423 0.228 8.421 0.23 8.42 0.232 8.418 0.234 8.417 0.236 8.415 0.238 8.414 0.24 8.413 0.242 8.412 0.245 8.411 0.247 8.41 0.249 8.41 0.252 8.409 0.254 8.409 0.257 8.408 0.259 8.408 0.262 8.408 0.265 8.408 1.051 8.408 1.054 8.408 1.057 8.407 1.059 8.407 1.062 8.406 1.064 8.406 1.067 8.405 1.069 8.404 1.071 8.403 1.074 8.402 1.076 8.4 1.078 8.399 1.08 8.398 1.082 8.396 1.084 8.395 1.086 8.393 1.088 8.391 1.089 8.389 1.091 8.387 1.092 8.385 1.094 8.383 1.095 8.381 1.096 8.379 1.098 8.377 1.099 8.374 1.1 8.372 1.1 8.369 1.101 8.367 1.102 8.364 1.102 8.362 1.102 8.359 1.103 8.357 1.103 6.27 1.103 6.267 1.103 6.264 1.102 6.262 1.102 6.259 1.102 6.257 1.101 6.254 1.1 6.252 1.099 6.25 1.099 6.247 1.098 6.245 1.096 6.243 1.095 6.241 1.094 6.239 1.092 6.237 1.091 6.235 1.089 6.233 1.088 6.232 1.086 6.23 1.084 6.228 1.082 6.227 1.08 6.226 1.078 6.224 1.076 6.223 1.073 6.222 1.071 6.221 1.069 6.22 1.066 6.22 1.064 6.219 1.062 6.219 1.059 6.218 1.056 6.218 1.054 6.218 1.051 6.219 0.265 6.219 0.262 6.218 0.259 6.218 0.257 6.218 0.254 6.217 0.252 6.216 0.249 6.216 0.247 6.215 0.245 6.214 0.242 6.213 0.24 6.211 0.238 6.21 0.236 6.209 0.234 6.207 0.232 6.205 0.23 6.204 0.228 6.202 0.226 6.2 0.225 6.198 0.223 6.196 0.222 6.194 0.221 6.192 0.219 6.19 0.218 6.187 0.217 6.185 0.216 6.183 0.215 6.18 0.215 6.178 0.214 6.175 0.214 6.173 0.213 6.17 0.213 6.167 0.213 4.83 0.213 4.828 0.213 4.825 0.213 4.823 0.214 4.82 0.214 4.818 0.215 4.815 0.215 4.813 0.216 4.81 0.217 4.808 0.218 4.806 0.219 4.804 0.221 4.802 0.222 4.8 0.223 4.798 0.225 4.796 0.226 4.794 0.228 4.792 0.23 4.791 0.232 4.789 0.234 4.788 0.236 4.786 0.238 4.785 0.24 4.784 0.242 4.783 0.245 4.782 0.247 4.781 0.249 4.781 0.252 4.78 0.254 4.78 0.257 4.779 0.259 4.779 0.262 4.779 0.265 4.78 1.051 4.78 1.054 4.779 1.057 4.779 1.059 4.779 1.062 4.778 1.064 4.777 1.067 4.776 1.069 4.776 1.071 4.775 1.074 4.773 1.076 4.772 1.078 4.771 1.08 4.769 1.082 4.768 1.084 4.766 1.086 4.765 1.088 4.763 1.089 4.761 1.091 4.759 1.092 4.757 1.094 4.755 1.095 4.753 1.096 4.75 1.098 4.748 1.099 4.746 1.1 4.744 1.1 4.741 1.101 4.739 1.102 4.736 1.102 4.733 1.102 4.731 1.103 4.728 1.103 2.641 1.103 2.639 1.103 2.636 1.102 2.633 1.102 2.631 1.102 2.628 1.101 2.626 1.1 2.624 1.1 2.621 1.099 2.619 1.098 2.617 1.096 2.615 1.095 2.612 1.094 2.61 1.092 2.609 1.091 2.607 1.089 2.605 1.088 2.603 1.086 2.602 1.084 2.6 1.082 2.599 1.08 2.597 1.078 2.596 1.076 2.595 1.074 2.594 1.071 2.593 1.069 2.592 1.067 2.591 1.064 2.591 1.062 2.59 1.059 2.59 1.056 2.59 1.054 2.59 1.051 2.59 0.265 2.59 0.262 2.59 0.259 2.589 0.257 2.589 0.254 2.588 0.252 2.587 0.249 2.587 0.247 2.586 0.245 2.585 0.242 2.584 0.24 2.582 0.238 2.581 0.236 2.58 0.234 2.578 0.232 2.576 0.23 2.575 0.228 2.573 0.226 2.571 0.225 2.569 0.223 2.567 0.222 2.565 0.221 2.563 0.219 2.561 0.218 2.558 0.217 2.556 0.216 2.554 0.215 2.551 0.215 2.549 0.214 2.546 0.214 2.544 0.213 2.541 0.213 2.538 0.213 1.201 0.213 1.199 0.213 1.196 0.213 1.194 0.214 1.191 0.214 1.189 0.215 1.186 0.215 1.184 0.216 1.181 0.217 1.179 0.218 1.177 0.219 1.175 0.221 1.173 0.222 1.171 0.223 1.169 0.225 1.167 0.226 1.165 0.228 1.163 0.23 1.162 0.232 1.16 0.234 1.159 0.236 1.157 0.238 1.156 0.24 1.155 0.242 1.154 0.245 1.153 0.247 1.152 0.249 1.152 0.252 1.151 0.254 1.151 0.257 1.15 0.259 1.15 0.262 1.15 0.265 1.15 1.253 1.15 1.256 1.15 1.259 1.149 1.261 1.149 1.264 1.148 1.266 1.148 1.269 1.147 1.271 1.146 1.273 1.145 1.276 1.144 1.278 1.143 1.28 1.141 1.282 1.14 1.284 1.138 1.286 1.137 1.288 1.135 1.29 1.133 1.291 1.131 1.293 1.129 1.295 1.127 1.296 1.125 1.297 1.123 1.299 1.121 1.3 1.119 1.301 1.116 1.302 1.114 1.303 1.111 1.303 1.109 1.304 1.106 1.304 1.104 1.305 1.101 1.305 1.099 1.305"/></g></svg>