<svg id="Capa_2" data-name="Capa 2" xmlns="http://www.w3.org/2000/svg" viewBox="0 0 20.318 1.648"><defs><style>.cls-1{fill:none;stroke:#000;stroke-linecap:round;stroke-linejoin:round;stroke-width:0.05px;}</style></defs><g id="POLYLINE"><polygon class="cls-1" points="2.041 0.025 2.045 0.025 2.049 0.025 18.291 0.025 18.295 0.025 18.298 0.025 18.302 0.026 18.306 0.026 18.31 0.027 18.314 0.028 18.317 0.029 18.321 0.031 18.325 0.032 18.328 0.034 18.331 0.036 18.335 0.038 18.338 0.04 18.341 0.042 18.344 0.045 18.347 0.048 18.784 0.463 18.785 0.464 18.786 0.465 18.787 0.466 18.788 0.467 18.789 0.468 18.789 0.469 18.79 0.47 18.791 0.471 18.791 0.472 18.792 0.473 18.792 0.474 18.793 0.475 18.793 0.476 18.793 0.478 18.794 0.479 18.794 0.48 18.794 0.481 18.794 0.482 18.794 0.483 18.795 0.485 18.795 0.486 18.795 0.487 18.794 0.488 18.794 0.489 18.794 0.49 18.794 0.492 18.794 0.493 18.794 0.494 18.793 0.495 18.793 0.496 18.792 0.498 18.792 0.499 18.791 0.5 18.79 0.503 18.79 0.504 18.789 0.505 18.788 0.506 18.788 0.506 18.787 0.507 18.786 0.508 18.785 0.509 18.784 0.51 18.784 0.511 18.783 0.512 18.782 0.512 18.781 0.513 18.78 0.514 18.779 0.514 18.778 0.515 18.777 0.515 18.776 0.516 18.774 0.517 18.773 0.517 18.772 0.517 18.771 0.518 18.77 0.518 18.769 0.518 18.767 0.519 18.766 0.519 18.765 0.519 18.763 0.519 18.762 0.519 18.467 0.519 18.463 0.519 18.459 0.519 18.455 0.518 18.451 0.517 18.447 0.517 18.444 0.516 18.44 0.514 18.436 0.513 18.433 0.511 18.429 0.51 18.426 0.508 18.423 0.506 18.42 0.504 18.417 0.501 18.414 0.499 18.411 0.496 18.25 0.337 18.247 0.335 18.244 0.332 18.241 0.33 18.238 0.328 18.235 0.326 18.232 0.324 18.228 0.322 18.225 0.32 18.221 0.319 18.217 0.318 18.214 0.317 18.21 0.316 18.206 0.315 18.202 0.315 18.198 0.314 18.194 0.314 17.747 0.314 17.744 0.314 17.741 0.315 17.738 0.315 17.734 0.316 17.731 0.316 17.728 0.317 17.725 0.318 17.722 0.32 17.719 0.321 17.716 0.322 17.714 0.324 17.711 0.326 17.708 0.327 17.706 0.329 17.703 0.331 17.701 0.334 17.699 0.336 17.697 0.338 17.695 0.341 17.693 0.343 17.691 0.346 17.69 0.349 17.688 0.351 17.687 0.354 17.686 0.357 17.685 0.36 17.684 0.364 17.683 0.367 17.683 0.37 17.682 0.373 17.682 0.376 17.682 0.38 17.682 1.273 17.682 1.276 17.682 1.28 17.683 1.283 17.683 1.286 17.684 1.289 17.685 1.293 17.686 1.296 17.687 1.299 17.688 1.301 17.69 1.304 17.691 1.307 17.693 1.31 17.695 1.312 17.697 1.315 17.699 1.317 17.701 1.319 17.703 1.322 17.706 1.324 17.708 1.326 17.711 1.327 17.714 1.329 17.716 1.331 17.719 1.332 17.722 1.333 17.725 1.335 17.728 1.336 17.731 1.336 17.734 1.337 17.738 1.338 17.741 1.338 17.744 1.338 17.747 1.339 20.26 1.339 20.262 1.339 20.263 1.339 20.265 1.339 20.267 1.339 20.268 1.34 20.27 1.34 20.271 1.341 20.273 1.341 20.274 1.342 20.276 1.342 20.277 1.343 20.278 1.344 20.28 1.345 20.281 1.346 20.282 1.347 20.283 1.348 20.284 1.349 20.285 1.35 20.286 1.352 20.287 1.353 20.288 1.354 20.289 1.356 20.289 1.357 20.29 1.359 20.291 1.36 20.291 1.362 20.292 1.363 20.292 1.365 20.292 1.366 20.293 1.368 20.293 1.37 20.293 1.371 20.293 1.587 20.293 1.589 20.293 1.59 20.292 1.592 20.292 1.594 20.292 1.595 20.291 1.597 20.291 1.598 20.29 1.6 20.289 1.601 20.289 1.603 20.288 1.604 20.287 1.605 20.286 1.607 20.285 1.608 20.284 1.609 20.283 1.61 20.282 1.611 20.281 1.612 20.28 1.613 20.278 1.614 20.277 1.615 20.276 1.616 20.274 1.617 20.273 1.617 20.271 1.618 20.27 1.618 20.268 1.619 20.267 1.619 20.265 1.619 20.263 1.62 20.262 1.62 20.26 1.62 17.493 1.62 17.49 1.62 17.487 1.619 17.483 1.619 17.48 1.618 17.477 1.618 17.474 1.617 17.471 1.616 17.468 1.615 17.465 1.613 17.462 1.612 17.459 1.61 17.457 1.609 17.454 1.607 17.452 1.605 17.449 1.603 17.447 1.601 17.445 1.598 17.443 1.596 17.441 1.593 17.439 1.591 17.437 1.588 17.436 1.586 17.434 1.583 17.433 1.58 17.432 1.577 17.431 1.574 17.43 1.571 17.429 1.568 17.429 1.564 17.428 1.561 17.428 1.558 17.428 1.554 17.428 0.38 17.428 0.377 17.428 0.374 17.427 0.37 17.427 0.367 17.426 0.364 17.425 0.361 17.424 0.358 17.423 0.355 17.421 0.352 17.42 0.349 17.418 0.346 17.417 0.344 17.415 0.341 17.413 0.339 17.411 0.336 17.409 0.334 17.406 0.332 17.404 0.33 17.402 0.328 17.399 0.326 17.396 0.324 17.394 0.323 17.391 0.321 17.388 0.32 17.385 0.319 17.382 0.318 17.379 0.317 17.376 0.316 17.372 0.315 17.369 0.315 17.366 0.315 17.362 0.315 10.495 0.315 10.492 0.315 10.488 0.315 10.485 0.315 10.482 0.316 10.479 0.317 10.475 0.318 10.472 0.319 10.469 0.32 10.467 0.321 10.464 0.323 10.461 0.324 10.458 0.326 10.456 0.328 10.453 0.33 10.451 0.332 10.449 0.334 10.446 0.336 10.444 0.339 10.442 0.341 10.441 0.344 10.439 0.346 10.437 0.349 10.436 0.352 10.435 0.355 10.433 0.358 10.432 0.361 10.432 0.364 10.431 0.367 10.43 0.37 10.43 0.374 10.43 0.377 10.429 0.38 10.429 1.557 10.429 1.561 10.429 1.564 10.429 1.567 10.428 1.57 10.427 1.574 10.427 1.577 10.425 1.58 10.424 1.583 10.423 1.586 10.422 1.588 10.42 1.591 10.418 1.594 10.416 1.596 10.414 1.599 10.412 1.601 10.41 1.603 10.408 1.606 10.406 1.608 10.403 1.61 10.401 1.611 10.398 1.613 10.395 1.615 10.392 1.616 10.389 1.618 10.386 1.619 10.383 1.62 10.38 1.621 10.377 1.621 10.374 1.622 10.371 1.622 10.367 1.623 10.364 1.623 10.225 1.623 10.222 1.623 10.219 1.622 10.215 1.622 10.212 1.621 10.209 1.621 10.206 1.62 10.203 1.619 10.2 1.618 10.197 1.616 10.194 1.615 10.191 1.613 10.189 1.611 10.186 1.61 10.184 1.608 10.181 1.606 10.179 1.603 10.177 1.601 10.175 1.599 10.173 1.596 10.171 1.594 10.169 1.591 10.168 1.588 10.166 1.586 10.165 1.583 10.164 1.58 10.163 1.577 10.162 1.574 10.161 1.57 10.161 1.567 10.16 1.564 10.16 1.561 10.16 1.557 10.16 0.38 10.16 0.377 10.159 0.374 10.159 0.37 10.158 0.367 10.158 0.364 10.157 0.361 10.156 0.358 10.155 0.355 10.153 0.352 10.152 0.349 10.15 0.346 10.149 0.344 10.147 0.341 10.145 0.339 10.143 0.336 10.141 0.334 10.138 0.332 10.136 0.33 10.133 0.328 10.131 0.326 10.128 0.324 10.126 0.323 10.123 0.321 10.12 0.32 10.117 0.319 10.114 0.318 10.111 0.317 10.108 0.316 10.104 0.315 10.101 0.315 10.098 0.315 10.094 0.315 3.246 0.315 3.243 0.315 3.239 0.315 3.236 0.315 3.233 0.316 3.23 0.317 3.226 0.318 3.223 0.319 3.22 0.32 3.218 0.321 3.215 0.323 3.212 0.324 3.209 0.326 3.207 0.328 3.204 0.33 3.202 0.332 3.2 0.334 3.197 0.336 3.195 0.339 3.193 0.341 3.192 0.344 3.19 0.346 3.188 0.349 3.187 0.352 3.186 0.355 3.184 0.358 3.183 0.361 3.182 0.364 3.182 0.367 3.181 0.37 3.181 0.374 3.18 0.377 3.18 0.38 3.18 1.545 3.18 1.549 3.18 1.552 3.18 1.555 3.179 1.559 3.178 1.562 3.177 1.565 3.176 1.568 3.175 1.571 3.174 1.574 3.172 1.577 3.171 1.579 3.169 1.582 3.167 1.585 3.165 1.587 3.163 1.589 3.161 1.592 3.159 1.594 3.157 1.596 3.154 1.598 3.152 1.6 3.149 1.601 3.146 1.603 3.143 1.604 3.14 1.606 3.137 1.607 3.134 1.608 3.131 1.609 3.128 1.61 3.125 1.61 3.122 1.611 3.118 1.611 3.115 1.611 2.959 1.611 2.956 1.611 2.952 1.611 2.949 1.61 2.946 1.61 2.943 1.609 2.94 1.608 2.937 1.607 2.934 1.606 2.931 1.604 2.928 1.603 2.925 1.601 2.922 1.6 2.92 1.598 2.917 1.596 2.915 1.594 2.913 1.592 2.911 1.589 2.909 1.587 2.907 1.585 2.905 1.582 2.903 1.579 2.901 1.577 2.9 1.574 2.899 1.571 2.898 1.568 2.896 1.565 2.896 1.562 2.895 1.559 2.894 1.555 2.894 1.552 2.894 1.549 2.894 1.545 2.894 0.38 2.893 0.377 2.893 0.374 2.893 0.37 2.892 0.367 2.891 0.364 2.891 0.361 2.89 0.358 2.888 0.355 2.887 0.352 2.886 0.349 2.884 0.346 2.882 0.344 2.881 0.341 2.879 0.339 2.877 0.336 2.874 0.334 2.872 0.332 2.87 0.33 2.867 0.328 2.865 0.326 2.862 0.324 2.859 0.323 2.856 0.321 2.854 0.32 2.851 0.319 2.848 0.318 2.844 0.317 2.841 0.316 2.838 0.315 2.835 0.315 2.831 0.315 2.828 0.315 2.146 0.315 2.142 0.315 2.138 0.315 2.134 0.316 2.13 0.316 2.127 0.317 2.123 0.318 2.119 0.32 2.116 0.321 2.112 0.323 2.109 0.324 2.106 0.326 2.102 0.328 2.099 0.331 2.096 0.333 2.093 0.336 2.091 0.339 1.693 0.764 1.69 0.767 1.687 0.769 1.684 0.772 1.681 0.774 1.678 0.776 1.674 0.778 1.671 0.78 1.668 0.782 1.664 0.783 1.66 0.784 1.657 0.785 1.653 0.786 1.649 0.787 1.645 0.788 1.641 0.788 1.638 0.788 0.379 0.788 0.376 0.788 0.373 0.788 0.369 0.789 0.366 0.789 0.363 0.79 0.36 0.791 0.357 0.792 0.354 0.793 0.351 0.794 0.348 0.796 0.345 0.797 0.343 0.799 0.34 0.801 0.338 0.803 0.335 0.805 0.333 0.807 0.331 0.809 0.329 0.812 0.327 0.814 0.325 0.817 0.323 0.819 0.322 0.822 0.32 0.825 0.319 0.828 0.318 0.831 0.317 0.834 0.316 0.837 0.315 0.84 0.315 0.843 0.314 0.847 0.314 0.85 0.314 0.853 0.314 1.104 0.314 1.11 0.313 1.117 0.312 1.124 0.311 1.13 0.31 1.136 0.308 1.143 0.306 1.149 0.304 1.155 0.301 1.16 0.298 1.166 0.295 1.172 0.292 1.177 0.288 1.182 0.284 1.187 0.28 1.192 0.276 1.196 0.271 1.201 0.266 1.205 0.261 1.209 0.256 1.212 0.251 1.216 0.245 1.219 0.24 1.222 0.234 1.224 0.228 1.227 0.222 1.229 0.216 1.23 0.209 1.232 0.203 1.233 0.196 1.234 0.19 1.234 0.183 1.235 0.156 1.235 0.149 1.234 0.143 1.234 0.136 1.233 0.13 1.232 0.123 1.23 0.117 1.229 0.111 1.227 0.105 1.224 0.099 1.222 0.094 1.219 0.088 1.216 0.083 1.212 0.078 1.209 0.073 1.205 0.068 1.201 0.063 1.196 0.059 1.192 0.055 1.187 0.051 1.182 0.047 1.177 0.044 1.172 0.041 1.166 0.038 1.16 0.035 1.155 0.033 1.149 0.031 1.143 0.029 1.136 0.028 1.13 0.027 1.124 0.026 1.117 0.025 1.11 0.025 1.104 0.025 0.587 0.025 0.584 0.025 0.58 0.026 0.577 0.026 0.574 0.027 0.571 0.028 0.568 0.029 0.565 0.03 0.562 0.031 0.559 0.033 0.556 0.034 0.553 0.036 0.55 0.038 0.548 0.04 0.545 0.042 0.543 0.044 0.541 0.046 0.539 0.049 0.537 0.051 0.535 0.054 0.533 0.057 0.531 0.059 0.529 0.062 0.528 0.065 0.527 0.068 0.526 0.071 0.525 0.074 0.524 0.077 0.523 0.081 0.522 0.084 0.522 0.087 0.522 0.09 0.522 1.506 0.522 1.51 0.521 1.514 0.521 1.518 0.521 1.522 0.52 1.526 0.519 1.529 0.518 1.533 0.517 1.537 0.515 1.54 0.514 1.543 0.512 1.547 0.51 1.55 0.508 1.553 0.506 1.556 0.503 1.559 0.501 1.562 0.498 1.993 0.049 1.996 0.046 1.999 0.043 2.002 0.041 2.005 0.039 2.008 0.036 2.012 0.035 2.015 0.033 2.019 0.031 2.022 0.03 2.026 0.028 2.029 0.027 2.033 0.027 2.037 0.026 2.041 0.025"/></g></svg>