<svg id="Capa_2" data-name="Capa 2" xmlns="http://www.w3.org/2000/svg" viewBox="0 0 20.318 0.922"><defs><style>.cls-1{fill:none;stroke:#000;stroke-linecap:round;stroke-linejoin:round;stroke-width:0.05px;}</style></defs><g id="POLYLINE"><polygon class="cls-1" points="18.941 0.049 19.109 0.306 19.11 0.308 19.11 0.309 19.111 0.31 19.112 0.312 19.112 0.313 19.113 0.314 19.113 0.315 19.114 0.317 19.114 0.32 19.115 0.322 19.115 0.324 19.115 0.325 19.115 0.326 19.115 0.328 19.115 0.329 19.115 0.331 19.115 0.332 19.115 0.333 19.114 0.336 19.114 0.339 19.113 0.341 19.112 0.344 19.111 0.347 19.109 0.349 19.108 0.351 19.106 0.354 19.105 0.356 19.103 0.358 19.101 0.36 19.1 0.361 19.098 0.362 19.096 0.364 19.094 0.365 19.092 0.366 19.091 0.367 19.09 0.367 19.088 0.368 19.085 0.369 19.084 0.37 19.083 0.37 19.079 0.371 19.076 0.371 19.073 0.372 19.069 0.372 18.459 0.372 18.453 0.372 18.447 0.372 18.442 0.373 18.436 0.374 18.43 0.375 18.425 0.377 18.42 0.379 18.415 0.381 18.409 0.383 18.404 0.386 18.4 0.388 18.395 0.391 18.391 0.395 18.386 0.398 18.382 0.402 18.378 0.405 18.374 0.409 18.371 0.414 18.367 0.418 18.364 0.422 18.361 0.427 18.358 0.432 18.356 0.437 18.353 0.442 18.351 0.447 18.35 0.452 18.348 0.458 18.347 0.463 18.346 0.469 18.345 0.475 18.345 0.481 18.344 0.486 18.344 0.564 18.345 0.57 18.345 0.576 18.346 0.582 18.347 0.587 18.348 0.593 18.35 0.598 18.351 0.604 18.353 0.609 18.356 0.614 18.358 0.619 18.361 0.624 18.364 0.628 18.367 0.633 18.371 0.637 18.374 0.641 18.378 0.645 18.382 0.649 18.386 0.653 18.391 0.656 18.395 0.659 18.4 0.662 18.404 0.665 18.409 0.668 18.415 0.67 18.42 0.672 18.425 0.674 18.43 0.675 18.436 0.676 18.442 0.677 18.447 0.678 18.453 0.679 18.459 0.679 20.211 0.679 20.215 0.679 20.219 0.679 20.223 0.68 20.227 0.68 20.231 0.681 20.235 0.683 20.239 0.684 20.243 0.685 20.246 0.687 20.25 0.689 20.253 0.691 20.257 0.693 20.26 0.695 20.263 0.698 20.266 0.7 20.269 0.703 20.271 0.706 20.274 0.709 20.276 0.712 20.279 0.715 20.281 0.718 20.283 0.722 20.285 0.725 20.286 0.729 20.288 0.733 20.289 0.736 20.29 0.74 20.291 0.744 20.292 0.748 20.292 0.752 20.293 0.757 20.293 0.761 20.293 0.816 20.293 0.82 20.292 0.824 20.292 0.828 20.291 0.832 20.29 0.836 20.289 0.84 20.288 0.844 20.286 0.847 20.285 0.851 20.283 0.855 20.281 0.858 20.279 0.861 20.276 0.864 20.274 0.868 20.271 0.871 20.269 0.873 20.266 0.876 20.263 0.879 20.26 0.881 20.257 0.883 20.253 0.886 20.25 0.888 20.246 0.889 20.243 0.891 20.239 0.892 20.235 0.894 20.231 0.895 20.227 0.896 20.223 0.896 20.219 0.897 20.215 0.897 20.211 0.897 18.142 0.897 18.14 0.897 18.138 0.897 18.137 0.897 18.135 0.897 18.134 0.896 18.132 0.896 18.13 0.895 18.129 0.895 18.128 0.894 18.126 0.893 18.125 0.893 18.123 0.892 18.122 0.891 18.121 0.89 18.12 0.889 18.119 0.888 18.117 0.887 18.116 0.885 18.115 0.884 18.115 0.883 18.114 0.882 18.113 0.88 18.112 0.879 18.112 0.877 18.111 0.876 18.11 0.874 18.11 0.873 18.11 0.871 18.109 0.869 18.109 0.868 18.109 0.866 18.109 0.864 18.109 0.674 18.109 0.673 18.109 0.672 18.109 0.671 18.109 0.671 18.109 0.67 18.108 0.669 18.108 0.667 18.108 0.667 18.107 0.666 18.107 0.664 18.106 0.663 18.106 0.663 18.106 0.662 18.105 0.661 18.104 0.66 18.103 0.658 18.102 0.657 18.101 0.656 18.099 0.654 18.098 0.653 18.096 0.652 18.095 0.651 18.093 0.65 18.091 0.649 18.089 0.648 18.087 0.647 18.085 0.646 18.083 0.645 18.081 0.645 18.079 0.644 18.077 0.643 18.075 0.643 18.07 0.642 18.065 0.642 18.06 0.641 0.086 0.641 0.083 0.641 0.08 0.641 0.077 0.64 0.074 0.64 0.071 0.639 0.068 0.638 0.065 0.636 0.063 0.635 0.06 0.633 0.057 0.632 0.055 0.63 0.052 0.627 0.05 0.625 0.047 0.623 0.045 0.62 0.043 0.617 0.041 0.615 0.039 0.612 0.037 0.608 0.036 0.605 0.034 0.602 0.032 0.599 0.031 0.595 0.03 0.591 0.029 0.588 0.028 0.584 0.027 0.58 0.026 0.576 0.026 0.572 0.025 0.568 0.025 0.564 0.025 0.56 0.025 0.485 0.025 0.481 0.025 0.477 0.026 0.473 0.027 0.469 0.028 0.465 0.029 0.461 0.03 0.457 0.031 0.454 0.033 0.45 0.035 0.446 0.037 0.443 0.039 0.44 0.041 0.436 0.044 0.433 0.046 0.43 0.049 0.427 0.052 0.425 0.055 0.422 0.058 0.42 0.061 0.417 0.064 0.415 0.068 0.413 0.071 0.412 0.075 0.41 0.079 0.408 0.083 0.407 0.086 0.406 0.09 0.405 0.094 0.404 0.099 0.404 0.103 0.404 0.107 0.403 1.511 0.403 1.515 0.403 1.518 0.403 1.522 0.402 1.526 0.402 1.529 0.401 1.533 0.399 1.536 0.398 1.54 0.396 1.543 0.394 1.546 0.392 1.549 0.39 1.552 0.388 1.555 0.385 1.557 0.382 1.56 0.379 1.562 0.376 1.779 0.049 1.781 0.047 1.782 0.045 1.783 0.043 1.785 0.042 1.786 0.04 1.787 0.039 1.789 0.037 1.79 0.036 1.792 0.035 1.794 0.034 1.795 0.033 1.797 0.032 1.798 0.031 1.8 0.03 1.802 0.029 1.804 0.028 1.805 0.027 1.807 0.027 1.809 0.026 1.811 0.026 1.812 0.026 1.814 0.025 1.816 0.025 1.818 0.025 1.82 0.025 1.821 0.025 1.823 0.025 1.825 0.026 1.827 0.026 1.828 0.026 1.83 0.027 1.832 0.028 1.928 0.068 1.954 0.077 1.981 0.086 2.038 0.102 2.101 0.116 2.171 0.126 2.249 0.133 2.337 0.135 2.424 0.133 2.502 0.127 2.571 0.116 2.633 0.103 2.69 0.087 2.716 0.078 2.742 0.068 2.838 0.028 2.839 0.027 2.841 0.027 2.843 0.026 2.845 0.026 2.846 0.026 2.848 0.025 2.85 0.025 2.852 0.025 2.853 0.025 2.855 0.025 2.857 0.026 2.859 0.026 2.86 0.026 2.862 0.027 2.864 0.028 2.866 0.028 2.867 0.029 2.869 0.03 2.871 0.031 2.872 0.032 2.874 0.033 2.876 0.034 2.877 0.035 2.879 0.036 2.88 0.038 2.882 0.039 2.883 0.041 2.885 0.042 2.886 0.044 2.887 0.045 2.888 0.047 2.89 0.049 3.102 0.376 3.104 0.38 3.107 0.383 3.109 0.385 3.112 0.388 3.115 0.39 3.118 0.393 3.121 0.395 3.124 0.397 3.127 0.398 3.131 0.4 3.134 0.401 3.138 0.402 3.141 0.403 3.145 0.403 3.149 0.404 3.153 0.404 3.804 0.404 3.808 0.404 3.812 0.403 3.815 0.403 3.819 0.402 3.823 0.401 3.826 0.4 3.829 0.398 3.833 0.397 3.836 0.395 3.839 0.393 3.842 0.39 3.845 0.388 3.848 0.385 3.85 0.383 3.853 0.38 3.855 0.377 4.072 0.049 4.074 0.047 4.075 0.045 4.076 0.043 4.078 0.042 4.079 0.04 4.08 0.039 4.082 0.037 4.083 0.036 4.085 0.035 4.087 0.034 4.088 0.033 4.09 0.032 4.092 0.031 4.093 0.03 4.095 0.029 4.097 0.028 4.098 0.027 4.1 0.027 4.102 0.026 4.104 0.026 4.106 0.026 4.107 0.025 4.109 0.025 4.111 0.025 4.113 0.025 4.114 0.025 4.116 0.025 4.118 0.026 4.12 0.026 4.121 0.026 4.123 0.027 4.125 0.028 4.221 0.068 4.248 0.077 4.274 0.086 4.331 0.102 4.394 0.116 4.464 0.126 4.542 0.133 4.63 0.135 4.717 0.133 4.795 0.127 4.864 0.116 4.926 0.103 4.983 0.087 5.009 0.078 5.035 0.068 5.131 0.028 5.132 0.027 5.134 0.027 5.136 0.026 5.138 0.026 5.139 0.026 5.141 0.025 5.143 0.025 5.145 0.025 5.146 0.025 5.148 0.025 5.15 0.026 5.152 0.026 5.154 0.026 5.155 0.027 5.157 0.028 5.159 0.028 5.16 0.029 5.162 0.03 5.164 0.031 5.166 0.032 5.167 0.033 5.169 0.034 5.17 0.035 5.172 0.036 5.173 0.038 5.175 0.039 5.176 0.041 5.178 0.042 5.179 0.044 5.18 0.045 5.182 0.047 5.183 0.049 5.395 0.376 5.397 0.38 5.4 0.383 5.402 0.385 5.405 0.388 5.408 0.39 5.411 0.393 5.414 0.395 5.417 0.397 5.42 0.398 5.424 0.4 5.427 0.401 5.431 0.402 5.434 0.403 5.438 0.403 5.442 0.404 5.446 0.404 6.097 0.404 6.101 0.404 6.105 0.403 6.108 0.403 6.112 0.402 6.116 0.401 6.119 0.4 6.123 0.398 6.126 0.397 6.129 0.395 6.132 0.393 6.135 0.39 6.138 0.388 6.141 0.385 6.143 0.383 6.146 0.38 6.148 0.377 6.366 0.049 6.367 0.047 6.368 0.045 6.369 0.043 6.371 0.042 6.372 0.04 6.374 0.039 6.375 0.037 6.377 0.036 6.378 0.035 6.38 0.034 6.381 0.033 6.383 0.032 6.385 0.031 6.386 0.03 6.388 0.029 6.39 0.028 6.392 0.027 6.393 0.027 6.395 0.026 6.397 0.026 6.399 0.026 6.4 0.025 6.402 0.025 6.404 0.025 6.406 0.025 6.408 0.025 6.409 0.025 6.411 0.026 6.413 0.026 6.415 0.026 6.416 0.027 6.418 0.028 6.515 0.068 6.541 0.077 6.567 0.086 6.624 0.102 6.687 0.116 6.757 0.126 6.836 0.133 6.923 0.135 7.01 0.133 7.088 0.127 7.157 0.116 7.22 0.103 7.276 0.087 7.302 0.078 7.328 0.068 7.424 0.028 7.426 0.027 7.427 0.027 7.429 0.026 7.431 0.026 7.432 0.026 7.434 0.025 7.436 0.025 7.438 0.025 7.44 0.025 7.441 0.025 7.443 0.026 7.445 0.026 7.447 0.026 7.448 0.027 7.45 0.028 7.452 0.028 7.454 0.029 7.455 0.03 7.457 0.031 7.459 0.032 7.46 0.033 7.462 0.034 7.463 0.035 7.465 0.036 7.467 0.038 7.468 0.039 7.469 0.041 7.471 0.042 7.472 0.044 7.473 0.045 7.475 0.047 7.476 0.049 7.688 0.376 7.69 0.38 7.693 0.383 7.695 0.385 7.698 0.388 7.701 0.39 7.704 0.393 7.707 0.395 7.71 0.397 7.713 0.398 7.717 0.4 7.72 0.401 7.724 0.402 7.728 0.403 7.731 0.403 7.735 0.404 7.739 0.404 8.39 0.404 8.394 0.404 8.398 0.403 8.401 0.403 8.405 0.402 8.409 0.401 8.412 0.4 8.416 0.398 8.419 0.397 8.422 0.395 8.425 0.393 8.428 0.39 8.431 0.388 8.434 0.385 8.436 0.383 8.439 0.38 8.441 0.377 8.659 0.049 8.66 0.047 8.661 0.045 8.662 0.043 8.664 0.042 8.665 0.04 8.667 0.039 8.668 0.037 8.67 0.036 8.671 0.035 8.673 0.034 8.674 0.033 8.676 0.032 8.678 0.031 8.679 0.03 8.681 0.029 8.683 0.028 8.685 0.027 8.686 0.027 8.688 0.026 8.69 0.026 8.692 0.026 8.694 0.025 8.695 0.025 8.697 0.025 8.699 0.025 8.701 0.025 8.702 0.025 8.704 0.026 8.706 0.026 8.708 0.026 8.709 0.027 8.711 0.028 8.808 0.068 8.834 0.077 8.86 0.086 8.917 0.102 8.98 0.116 9.05 0.126 9.129 0.133 9.216 0.135 9.303 0.133 9.381 0.127 9.45 0.116 9.513 0.103 9.569 0.087 9.595 0.078 9.621 0.068 9.717 0.028 9.719 0.027 9.72 0.027 9.722 0.026 9.724 0.026 9.726 0.026 9.727 0.025 9.729 0.025 9.731 0.025 9.733 0.025 9.734 0.025 9.736 0.026 9.738 0.026 9.74 0.026 9.741 0.027 9.743 0.028 9.745 0.028 9.747 0.029 9.748 0.03 9.75 0.031 9.752 0.032 9.753 0.033 9.755 0.034 9.757 0.035 9.758 0.036 9.76 0.038 9.761 0.039 9.763 0.041 9.764 0.042 9.765 0.044 9.767 0.045 9.768 0.047 9.769 0.049 9.981 0.376 9.984 0.38 9.986 0.383 9.988 0.385 9.991 0.388 9.994 0.39 9.997 0.393 10 0.395 10.003 0.397 10.006 0.398 10.01 0.4 10.013 0.401 10.017 0.402 10.021 0.403 10.024 0.403 10.028 0.404 10.032 0.404 10.683 0.404 10.687 0.404 10.691 0.403 10.695 0.403 10.698 0.402 10.702 0.401 10.705 0.4 10.709 0.398 10.712 0.397 10.715 0.395 10.718 0.393 10.721 0.39 10.724 0.388 10.727 0.385 10.73 0.383 10.732 0.38 10.734 0.377 10.952 0.049 10.953 0.047 10.954 0.045 10.956 0.043 10.957 0.042 10.958 0.04 10.96 0.039 10.961 0.037 10.963 0.036 10.964 0.035 10.966 0.034 10.968 0.033 10.969 0.032 10.971 0.031 10.973 0.03 10.974 0.029 10.976 0.028 10.978 0.027 10.98 0.027 10.981 0.026 10.983 0.026 10.985 0.026 10.987 0.025 10.988 0.025 10.99 0.025 10.992 0.025 10.994 0.025 10.996 0.025 10.997 0.026 10.999 0.026 11.001 0.026 11.002 0.027 11.004 0.028 11.101 0.068 11.127 0.077 11.153 0.086 11.211 0.102 11.274 0.116 11.344 0.126 11.422 0.133 11.51 0.135 11.597 0.133 11.674 0.127 11.743 0.116 11.806 0.103 11.862 0.087 11.889 0.078 11.914 0.068 12.01 0.028 12.012 0.027 12.014 0.027 12.015 0.026 12.017 0.026 12.019 0.026 12.02 0.025 12.022 0.025 12.024 0.025 12.026 0.025 12.028 0.025 12.029 0.026 12.031 0.026 12.033 0.026 12.035 0.027 12.036 0.028 12.038 0.028 12.04 0.029 12.042 0.03 12.043 0.031 12.045 0.032 12.046 0.033 12.048 0.034 12.05 0.035 12.051 0.036 12.053 0.038 12.054 0.039 12.056 0.041 12.057 0.042 12.058 0.044 12.06 0.045 12.061 0.047 12.062 0.049 12.274 0.376 12.277 0.38 12.279 0.383 12.282 0.385 12.284 0.388 12.287 0.39 12.29 0.393 12.293 0.395 12.296 0.397 12.3 0.398 12.303 0.4 12.307 0.401 12.31 0.402 12.314 0.403 12.317 0.403 12.321 0.404 12.325 0.404 12.976 0.404 12.98 0.404 12.984 0.403 12.988 0.403 12.991 0.402 12.995 0.401 12.998 0.4 13.002 0.398 13.005 0.397 13.008 0.395 13.012 0.393 13.015 0.39 13.017 0.388 13.02 0.385 13.023 0.383 13.025 0.38 13.027 0.377 13.245 0.049 13.246 0.047 13.247 0.045 13.249 0.043 13.25 0.042 13.251 0.04 13.253 0.039 13.254 0.037 13.256 0.036 13.257 0.035 13.259 0.034 13.261 0.033 13.262 0.032 13.264 0.031 13.266 0.03 13.267 0.029 13.269 0.028 13.271 0.027 13.273 0.027 13.274 0.026 13.276 0.026 13.278 0.026 13.28 0.025 13.282 0.025 13.283 0.025 13.285 0.025 13.287 0.025 13.289 0.025 13.29 0.026 13.292 0.026 13.294 0.026 13.296 0.027 13.297 0.028 13.394 0.068 13.42 0.077 13.447 0.086 13.504 0.102 13.567 0.116 13.637 0.126 13.715 0.133 13.803 0.135 13.89 0.133 13.967 0.127 14.037 0.116 14.099 0.103 14.155 0.087 14.182 0.078 14.208 0.068 14.303 0.028 14.305 0.027 14.307 0.027 14.308 0.026 14.31 0.026 14.312 0.026 14.314 0.025 14.315 0.025 14.317 0.025 14.319 0.025 14.321 0.025 14.322 0.026 14.324 0.026 14.326 0.026 14.328 0.027 14.329 0.028 14.331 0.028 14.333 0.029 14.335 0.03 14.336 0.031 14.338 0.032 14.34 0.033 14.341 0.034 14.343 0.035 14.344 0.036 14.346 0.038 14.347 0.039 14.349 0.041 14.35 0.042 14.351 0.044 14.353 0.045 14.354 0.047 14.355 0.049 14.568 0.376 14.57 0.38 14.572 0.383 14.575 0.385 14.577 0.388 14.58 0.39 14.583 0.393 14.586 0.395 14.589 0.397 14.593 0.398 14.596 0.4 14.6 0.401 14.603 0.402 14.607 0.403 14.611 0.403 14.614 0.404 14.618 0.404 15.269 0.404 15.273 0.404 15.277 0.403 15.281 0.403 15.284 0.402 15.288 0.401 15.292 0.4 15.295 0.398 15.298 0.397 15.302 0.395 15.305 0.393 15.308 0.39 15.311 0.388 15.313 0.385 15.316 0.383 15.318 0.38 15.32 0.377 15.538 0.049 15.539 0.047 15.54 0.045 15.542 0.043 15.543 0.042 15.545 0.04 15.546 0.039 15.548 0.037 15.549 0.036 15.551 0.035 15.552 0.034 15.554 0.033 15.555 0.032 15.557 0.031 15.559 0.03 15.561 0.029 15.562 0.028 15.564 0.027 15.566 0.027 15.568 0.026 15.569 0.026 15.571 0.026 15.573 0.025 15.575 0.025 15.576 0.025 15.578 0.025 15.58 0.025 15.582 0.025 15.584 0.026 15.585 0.026 15.587 0.026 15.589 0.027 15.59 0.028 15.687 0.068 15.713 0.077 15.74 0.086 15.797 0.102 15.86 0.116 15.93 0.126 16.008 0.133 16.096 0.135 16.183 0.133 16.26 0.127 16.33 0.116 16.392 0.103 16.449 0.087 16.475 0.078 16.501 0.068 16.596 0.028 16.598 0.027 16.6 0.027 16.601 0.026 16.603 0.026 16.605 0.026 16.607 0.025 16.608 0.025 16.61 0.025 16.612 0.025 16.614 0.025 16.616 0.026 16.617 0.026 16.619 0.026 16.621 0.027 16.623 0.028 16.624 0.028 16.626 0.029 16.628 0.03 16.629 0.031 16.631 0.032 16.633 0.033 16.634 0.034 16.636 0.035 16.637 0.036 16.639 0.038 16.64 0.039 16.642 0.041 16.643 0.042 16.645 0.044 16.646 0.045 16.647 0.047 16.648 0.049 16.861 0.376 16.863 0.38 16.865 0.383 16.868 0.385 16.87 0.388 16.873 0.39 16.876 0.393 16.879 0.395 16.882 0.397 16.886 0.398 16.889 0.4 16.893 0.401 16.896 0.402 16.9 0.403 16.904 0.403 16.907 0.404 16.911 0.404 17.563 0.404 17.566 0.404 17.57 0.403 17.574 0.403 17.578 0.402 17.581 0.401 17.585 0.4 17.588 0.398 17.591 0.397 17.595 0.395 17.598 0.393 17.601 0.39 17.604 0.388 17.606 0.385 17.609 0.383 17.611 0.38 17.613 0.377 17.831 0.049 17.832 0.047 17.834 0.045 17.835 0.043 17.836 0.042 17.838 0.04 17.839 0.039 17.841 0.037 17.842 0.036 17.844 0.035 17.845 0.034 17.847 0.033 17.849 0.032 17.85 0.031 17.852 0.03 17.854 0.029 17.855 0.028 17.857 0.027 17.859 0.027 17.861 0.026 17.862 0.026 17.864 0.026 17.866 0.025 17.868 0.025 17.87 0.025 17.871 0.025 17.873 0.025 17.875 0.025 17.877 0.026 17.878 0.026 17.88 0.026 17.882 0.027 17.883 0.028 17.98 0.068 18.006 0.077 18.033 0.086 18.09 0.102 18.153 0.116 18.223 0.126 18.301 0.133 18.389 0.135 18.476 0.133 18.553 0.127 18.623 0.116 18.685 0.103 18.742 0.087 18.768 0.078 18.794 0.068 18.889 0.028 18.891 0.027 18.893 0.027 18.895 0.026 18.896 0.026 18.898 0.026 18.9 0.025 18.902 0.025 18.903 0.025 18.905 0.025 18.907 0.025 18.909 0.026 18.91 0.026 18.912 0.026 18.914 0.027 18.916 0.028 18.917 0.028 18.919 0.029 18.921 0.03 18.923 0.031 18.924 0.032 18.926 0.033 18.927 0.034 18.929 0.035 18.931 0.036 18.932 0.038 18.934 0.039 18.935 0.041 18.936 0.042 18.938 0.044 18.939 0.045 18.94 0.047 18.941 0.049"/></g></svg>