<svg id="Capa_2" data-name="Capa 2" xmlns="http://www.w3.org/2000/svg" viewBox="0 0 20.318 1.789"><defs><style>.cls-1{fill:none;stroke:#000;stroke-linecap:round;stroke-linejoin:round;stroke-width:0.05px;}</style></defs><g id="POLYLINE"><polygon class="cls-1" points="3.214 0.31 3.214 0.584 3.214 0.585 3.214 0.587 3.215 0.589 3.215 0.591 3.215 0.592 3.216 0.594 3.216 0.596 3.217 0.597 3.218 0.6 3.219 0.604 3.221 0.607 3.223 0.61 3.225 0.613 3.227 0.616 3.231 0.622 3.241 0.634 3.246 0.64 3.251 0.647 3.256 0.654 3.258 0.658 3.26 0.662 3.262 0.666 3.264 0.67 3.265 0.674 3.267 0.679 3.268 0.683 3.269 0.688 3.269 0.693 3.27 0.699 3.27 0.704 3.269 0.709 3.269 0.714 3.268 0.719 3.266 0.723 3.265 0.727 3.263 0.732 3.262 0.736 3.26 0.74 3.257 0.743 3.255 0.747 3.253 0.751 3.248 0.757 3.242 0.764 3.232 0.776 3.227 0.783 3.225 0.786 3.223 0.789 3.221 0.792 3.219 0.795 3.218 0.798 3.217 0.801 3.216 0.803 3.216 0.805 3.215 0.806 3.215 0.808 3.215 0.81 3.214 0.812 3.214 0.813 3.214 0.815 3.214 1.086 3.214 1.088 3.214 1.089 3.215 1.091 3.215 1.093 3.215 1.094 3.216 1.096 3.216 1.097 3.217 1.099 3.217 1.1 3.218 1.102 3.219 1.105 3.221 1.108 3.223 1.11 3.225 1.113 3.227 1.116 3.232 1.121 3.242 1.132 3.247 1.138 3.252 1.145 3.254 1.148 3.257 1.152 3.259 1.155 3.261 1.159 3.263 1.163 3.265 1.167 3.266 1.172 3.267 1.176 3.268 1.181 3.269 1.186 3.269 1.192 3.27 1.197 3.269 1.204 3.269 1.209 3.268 1.215 3.267 1.22 3.266 1.226 3.265 1.23 3.263 1.235 3.261 1.239 3.259 1.244 3.257 1.248 3.254 1.251 3.252 1.255 3.247 1.262 3.242 1.269 3.232 1.281 3.227 1.287 3.225 1.29 3.223 1.293 3.221 1.296 3.219 1.299 3.218 1.302 3.217 1.304 3.217 1.306 3.216 1.307 3.216 1.309 3.215 1.311 3.215 1.313 3.215 1.314 3.214 1.316 3.214 1.318 3.214 1.32 3.214 1.589 3.214 1.598 3.213 1.607 3.212 1.616 3.211 1.624 3.209 1.633 3.206 1.641 3.204 1.649 3.2 1.657 3.197 1.665 3.193 1.672 3.189 1.68 3.184 1.687 3.179 1.694 3.174 1.7 3.169 1.707 3.163 1.713 3.157 1.718 3.151 1.724 3.144 1.729 3.137 1.734 3.13 1.739 3.123 1.743 3.115 1.747 3.107 1.75 3.1 1.753 3.091 1.756 3.083 1.758 3.075 1.76 3.066 1.762 3.057 1.763 3.048 1.764 3.039 1.764 0.078 1.764 0.075 1.764 0.072 1.763 0.07 1.763 0.067 1.763 0.065 1.762 0.062 1.761 0.06 1.761 0.057 1.76 0.055 1.759 0.053 1.757 0.05 1.756 0.048 1.755 0.046 1.753 0.044 1.752 0.042 1.75 0.041 1.748 0.039 1.747 0.037 1.745 0.036 1.743 0.034 1.741 0.033 1.739 0.031 1.736 0.03 1.734 0.029 1.732 0.028 1.729 0.027 1.727 0.027 1.724 0.026 1.722 0.026 1.719 0.025 1.717 0.025 1.714 0.025 1.711 0.025 1.579 0.025 1.577 0.025 1.574 0.026 1.571 0.026 1.569 0.027 1.566 0.027 1.564 0.028 1.561 0.029 1.559 0.03 1.557 0.031 1.554 0.033 1.552 0.034 1.55 0.036 1.548 0.037 1.546 0.039 1.544 0.041 1.542 0.042 1.541 0.044 1.539 0.046 1.537 0.048 1.536 0.05 1.535 0.053 1.533 0.055 1.532 0.057 1.531 0.06 1.53 0.062 1.529 0.065 1.529 0.067 1.528 0.07 1.528 0.072 1.527 0.075 1.527 0.078 1.527 2.929 1.527 2.931 1.527 2.934 1.527 2.937 1.527 2.939 1.526 2.942 1.526 2.944 1.525 2.947 1.524 2.949 1.523 2.951 1.522 2.954 1.521 2.956 1.52 2.958 1.518 2.96 1.517 2.962 1.516 2.964 1.514 2.966 1.512 2.967 1.511 2.969 1.509 2.971 1.507 2.972 1.505 2.974 1.503 2.975 1.501 2.976 1.498 2.977 1.496 2.978 1.494 2.979 1.492 2.979 1.489 2.98 1.487 2.981 1.484 2.981 1.482 2.981 1.479 2.981 1.477 2.981 0.31 2.981 0.308 2.981 0.305 2.981 0.303 2.98 0.3 2.979 0.297 2.979 0.295 2.978 0.292 2.977 0.29 2.976 0.288 2.975 0.286 2.974 0.283 2.972 0.281 2.971 0.279 2.969 0.277 2.967 0.275 2.966 0.273 2.964 0.272 2.962 0.27 2.96 0.268 2.958 0.267 2.956 0.266 2.954 0.264 2.951 0.263 2.949 0.262 2.947 0.261 2.944 0.26 2.942 0.26 2.939 0.259 2.937 0.259 2.934 0.258 2.931 0.258 2.929 0.258 2.214 0.258 2.212 0.258 2.209 0.258 2.207 0.259 2.204 0.259 2.202 0.26 2.199 0.26 2.197 0.261 2.194 0.262 2.192 0.263 2.19 0.264 2.188 0.266 2.186 0.267 2.183 0.269 2.181 0.27 2.18 0.272 2.178 0.274 1.922 0.529 1.92 0.531 1.918 0.533 1.915 0.535 1.913 0.537 1.91 0.538 1.908 0.54 1.905 0.541 1.902 0.542 1.899 0.543 1.896 0.544 1.893 0.545 1.891 0.545 1.888 0.546 1.884 0.546 1.881 0.547 1.878 0.547 1.542 0.547 1.539 0.547 1.537 0.547 1.535 0.546 1.533 0.546 1.53 0.546 1.528 0.545 1.526 0.545 1.524 0.544 1.522 0.544 1.52 0.543 1.518 0.542 1.516 0.541 1.515 0.54 1.513 0.539 1.511 0.538 1.51 0.537 1.508 0.536 1.507 0.535 1.505 0.534 1.504 0.532 1.502 0.531 1.501 0.53 1.5 0.528 1.499 0.527 1.498 0.525 1.496 0.524 1.495 0.522 1.494 0.521 1.493 0.517 1.491 0.514 1.49 0.511 1.489 0.507 1.488 0.504 1.487 0.5 1.487 0.498 1.487 0.496 1.487 0.494 1.487 0.493 1.487 0.489 1.487 0.487 1.488 0.485 1.488 0.484 1.488 0.482 1.489 0.48 1.489 0.478 1.49 0.477 1.491 0.475 1.491 0.473 1.492 0.472 1.493 0.47 1.494 0.468 1.495 0.467 1.496 0.465 1.497 0.464 1.498 0.462 1.499 0.461 1.501 0.459 1.919 0.04 1.921 0.039 1.923 0.037 1.925 0.035 1.927 0.034 1.929 0.033 1.931 0.031 1.933 0.03 1.936 0.029 1.938 0.028 1.941 0.027 1.943 0.027 1.946 0.026 1.948 0.026 1.951 0.025 1.953 0.025 1.956 0.025 9.563 0.025 9.566 0.025 9.569 0.025 9.571 0.026 9.574 0.026 9.576 0.027 9.579 0.027 9.581 0.028 9.584 0.029 9.586 0.03 9.588 0.031 9.591 0.032 9.593 0.034 9.595 0.035 9.597 0.037 9.599 0.039 9.601 0.04 10.07 0.51 10.072 0.511 10.074 0.513 10.076 0.515 10.078 0.516 10.08 0.518 10.083 0.519 10.085 0.52 10.087 0.521 10.09 0.522 10.092 0.523 10.095 0.523 10.097 0.524 10.1 0.524 10.102 0.525 10.105 0.525 10.107 0.525 10.11 0.525 10.112 0.525 10.115 0.524 10.117 0.524 10.12 0.523 10.122 0.523 10.124 0.522 10.127 0.521 10.129 0.52 10.132 0.519 10.134 0.518 10.136 0.516 10.138 0.515 10.14 0.513 10.142 0.511 10.144 0.51 10.613 0.04 10.615 0.039 10.617 0.037 10.619 0.035 10.621 0.034 10.623 0.032 10.626 0.031 10.628 0.03 10.63 0.029 10.633 0.028 10.635 0.027 10.638 0.027 10.64 0.026 10.643 0.026 10.645 0.025 10.648 0.025 10.651 0.025 18.254 0.025 18.257 0.025 18.26 0.025 18.262 0.026 18.265 0.026 18.267 0.027 18.27 0.027 18.272 0.028 18.275 0.029 18.277 0.03 18.279 0.031 18.282 0.032 18.284 0.034 18.286 0.035 18.288 0.037 18.29 0.039 18.292 0.04 18.783 0.531 18.784 0.533 18.786 0.535 18.789 0.536 18.791 0.538 18.793 0.539 18.795 0.54 18.798 0.542 18.8 0.543 18.802 0.544 18.805 0.544 18.807 0.545 18.81 0.546 18.812 0.546 18.815 0.546 18.818 0.547 18.82 0.547 20.118 0.547 20.127 0.547 20.136 0.548 20.145 0.549 20.153 0.55 20.162 0.552 20.17 0.555 20.178 0.557 20.186 0.56 20.194 0.564 20.201 0.568 20.209 0.572 20.216 0.577 20.222 0.581 20.229 0.587 20.235 0.592 20.241 0.598 20.247 0.604 20.253 0.61 20.258 0.617 20.263 0.624 20.267 0.631 20.272 0.638 20.275 0.646 20.279 0.653 20.282 0.661 20.285 0.67 20.287 0.678 20.289 0.686 20.291 0.695 20.292 0.704 20.292 0.712 20.293 0.721 20.293 1.447 20.293 1.45 20.292 1.452 20.292 1.455 20.292 1.458 20.291 1.46 20.29 1.463 20.29 1.465 20.289 1.468 20.288 1.47 20.286 1.473 20.285 1.475 20.284 1.477 20.282 1.479 20.281 1.481 20.279 1.483 20.277 1.485 20.276 1.487 20.274 1.489 20.272 1.49 20.27 1.492 20.267 1.493 20.265 1.494 20.263 1.496 20.261 1.497 20.258 1.498 20.256 1.498 20.253 1.499 20.251 1.5 20.248 1.5 20.246 1.501 20.243 1.501 20.24 1.501 20.112 1.501 20.109 1.501 20.107 1.501 20.104 1.5 20.102 1.5 20.099 1.499 20.097 1.499 20.094 1.498 20.092 1.497 20.089 1.496 20.087 1.494 20.085 1.493 20.083 1.492 20.081 1.49 20.079 1.489 20.077 1.487 20.075 1.485 20.073 1.483 20.072 1.481 20.07 1.479 20.069 1.477 20.067 1.475 20.066 1.473 20.065 1.47 20.064 1.468 20.063 1.465 20.062 1.463 20.061 1.46 20.061 1.458 20.06 1.455 20.06 1.452 20.06 1.449 20.06 1.447 20.06 0.823 20.06 0.821 20.059 0.819 20.059 0.817 20.059 0.815 20.058 0.812 20.058 0.81 20.057 0.808 20.056 0.806 20.055 0.804 20.054 0.803 20.053 0.801 20.052 0.799 20.051 0.797 20.05 0.796 20.048 0.794 20.047 0.792 20.045 0.791 20.044 0.79 20.042 0.788 20.04 0.787 20.039 0.786 20.037 0.785 20.035 0.784 20.033 0.783 20.031 0.782 20.029 0.782 20.027 0.781 20.025 0.781 20.023 0.78 20.021 0.78 20.018 0.78 20.016 0.78 18.724 0.78 18.721 0.78 18.719 0.779 18.716 0.779 18.714 0.779 18.711 0.778 18.709 0.777 18.706 0.777 18.704 0.776 18.701 0.775 18.699 0.773 18.697 0.772 18.695 0.771 18.692 0.769 18.69 0.768 18.688 0.766 18.686 0.764 18.196 0.274 18.194 0.272 18.192 0.27 18.19 0.268 18.188 0.267 18.185 0.266 18.183 0.264 18.181 0.263 18.178 0.262 18.176 0.261 18.174 0.26 18.171 0.26 18.169 0.259 18.166 0.259 18.163 0.258 18.161 0.258 18.158 0.258 16.841 0.258 16.839 0.258 16.836 0.258 16.833 0.259 16.831 0.259 16.828 0.26 16.826 0.26 16.823 0.261 16.821 0.262 16.819 0.263 16.816 0.264 16.814 0.265 16.812 0.267 16.81 0.268 16.808 0.27 16.806 0.271 16.804 0.273 16.802 0.275 16.801 0.277 16.799 0.278 16.798 0.28 16.796 0.283 16.795 0.285 16.794 0.287 16.793 0.289 16.792 0.291 16.791 0.294 16.79 0.296 16.79 0.299 16.789 0.301 16.789 0.304 16.789 0.306 16.789 0.309 16.789 1.711 16.789 1.714 16.788 1.717 16.788 1.719 16.788 1.722 16.787 1.725 16.786 1.727 16.786 1.729 16.785 1.732 16.784 1.734 16.782 1.736 16.781 1.739 16.78 1.741 16.778 1.743 16.777 1.745 16.775 1.747 16.773 1.749 16.772 1.75 16.77 1.752 16.768 1.753 16.766 1.755 16.764 1.756 16.761 1.758 16.759 1.759 16.757 1.76 16.754 1.761 16.752 1.762 16.749 1.762 16.747 1.763 16.744 1.763 16.742 1.764 16.739 1.764 16.736 1.764 16.608 1.764 16.605 1.764 16.603 1.764 16.6 1.763 16.598 1.763 16.595 1.762 16.593 1.762 16.59 1.761 16.588 1.76 16.585 1.759 16.583 1.758 16.581 1.756 16.579 1.755 16.577 1.753 16.575 1.752 16.573 1.75 16.571 1.749 16.569 1.747 16.568 1.745 16.566 1.743 16.565 1.741 16.563 1.739 16.562 1.736 16.561 1.734 16.56 1.732 16.559 1.729 16.558 1.727 16.557 1.725 16.557 1.722 16.556 1.719 16.556 1.717 16.556 1.714 16.556 1.711 16.556 0.309 16.556 0.306 16.555 0.304 16.555 0.301 16.555 0.299 16.554 0.296 16.553 0.294 16.553 0.292 16.552 0.289 16.551 0.287 16.549 0.285 16.548 0.283 16.547 0.281 16.545 0.279 16.544 0.277 16.542 0.275 16.541 0.273 16.539 0.271 16.537 0.27 16.535 0.268 16.533 0.267 16.531 0.266 16.529 0.264 16.526 0.263 16.524 0.262 16.522 0.261 16.519 0.26 16.517 0.26 16.514 0.259 16.512 0.259 16.509 0.258 16.506 0.258 16.504 0.258 10.746 0.258 10.744 0.258 10.741 0.258 10.739 0.259 10.736 0.259 10.734 0.26 10.731 0.26 10.729 0.261 10.726 0.262 10.724 0.263 10.722 0.264 10.719 0.266 10.717 0.267 10.715 0.268 10.713 0.27 10.711 0.272 10.709 0.274 10.241 0.746 10.239 0.748 10.237 0.75 10.236 0.752 10.234 0.754 10.233 0.756 10.232 0.758 10.23 0.761 10.229 0.763 10.228 0.765 10.228 0.768 10.227 0.77 10.226 0.773 10.226 0.775 10.226 0.778 10.225 0.781 10.225 0.783 10.225 1.711 10.225 1.714 10.225 1.717 10.225 1.719 10.224 1.722 10.224 1.725 10.223 1.727 10.222 1.729 10.221 1.732 10.22 1.734 10.219 1.736 10.218 1.739 10.216 1.741 10.215 1.743 10.213 1.745 10.212 1.747 10.21 1.748 10.208 1.75 10.206 1.752 10.204 1.753 10.202 1.755 10.2 1.756 10.198 1.758 10.196 1.759 10.193 1.76 10.191 1.761 10.188 1.761 10.186 1.762 10.183 1.763 10.181 1.763 10.178 1.764 10.176 1.764 10.173 1.764 10.041 1.764 10.038 1.764 10.036 1.764 10.033 1.763 10.031 1.763 10.028 1.762 10.025 1.762 10.023 1.761 10.021 1.76 10.018 1.759 10.016 1.758 10.014 1.756 10.012 1.755 10.01 1.753 10.008 1.752 10.006 1.75 10.004 1.749 10.002 1.747 10.001 1.745 9.999 1.743 9.998 1.741 9.996 1.739 9.995 1.736 9.994 1.734 9.993 1.732 9.992 1.729 9.991 1.727 9.99 1.725 9.99 1.722 9.989 1.719 9.989 1.717 9.989 1.714 9.989 1.711 9.988 0.783 9.988 0.78 9.988 0.778 9.988 0.775 9.987 0.773 9.987 0.77 9.986 0.768 9.985 0.765 9.984 0.763 9.983 0.76 9.982 0.758 9.981 0.756 9.98 0.754 9.978 0.752 9.977 0.75 9.975 0.748 9.973 0.746 9.505 0.274 9.503 0.272 9.501 0.27 9.499 0.268 9.497 0.267 9.494 0.266 9.492 0.264 9.49 0.263 9.487 0.262 9.485 0.261 9.483 0.26 9.48 0.26 9.478 0.259 9.475 0.259 9.472 0.258 9.47 0.258 9.467 0.258 3.267 0.258 3.264 0.258 3.261 0.258 3.259 0.259 3.256 0.259 3.254 0.26 3.251 0.26 3.249 0.261 3.246 0.262 3.244 0.263 3.242 0.264 3.24 0.266 3.237 0.267 3.235 0.268 3.233 0.27 3.231 0.272 3.23 0.273 3.228 0.275 3.226 0.277 3.225 0.279 3.223 0.281 3.222 0.283 3.221 0.286 3.219 0.288 3.218 0.29 3.217 0.292 3.217 0.295 3.216 0.297 3.215 0.3 3.215 0.303 3.214 0.305 3.214 0.308 3.214 0.31"/></g></svg>