<svg id="Capa_2" data-name="Capa 2" xmlns="http://www.w3.org/2000/svg" viewBox="0 0 20.447 5.09"><defs><style>.cls-1{fill:none;stroke:#000;stroke-linecap:round;stroke-linejoin:round;stroke-width:0.05px;}</style></defs><g id="POLYLINE"><polygon class="cls-1" points="0.089 4.949 0.092 4.948 0.095 4.948 1.217 4.948 1.22 4.948 1.222 4.948 1.225 4.948 1.227 4.947 1.23 4.947 1.232 4.947 1.234 4.946 1.236 4.945 1.238 4.945 1.24 4.944 1.242 4.943 1.244 4.942 1.246 4.941 1.248 4.94 1.252 4.938 1.255 4.935 1.258 4.933 1.261 4.93 1.263 4.929 1.264 4.927 1.276 4.915 1.287 4.903 1.29 4.9 1.293 4.897 1.296 4.895 1.3 4.892 1.303 4.89 1.305 4.889 1.307 4.888 1.309 4.887 1.311 4.886 1.313 4.885 1.315 4.885 1.317 4.884 1.319 4.883 1.321 4.883 1.323 4.883 1.326 4.882 1.328 4.882 1.331 4.882 1.333 4.882 2.436 4.882 2.44 4.882 2.443 4.881 2.447 4.881 2.45 4.88 2.453 4.879 2.457 4.879 2.46 4.877 2.463 4.876 2.466 4.875 2.469 4.873 2.472 4.872 2.475 4.87 2.477 4.868 2.48 4.866 2.482 4.864 2.485 4.861 2.487 4.859 2.489 4.857 2.491 4.854 2.493 4.851 2.495 4.849 2.497 4.846 2.498 4.843 2.499 4.84 2.501 4.837 2.502 4.833 2.503 4.83 2.503 4.827 2.504 4.823 2.504 4.82 2.505 4.816 2.505 4.813 2.505 4.672 2.505 4.669 2.505 4.665 2.504 4.662 2.504 4.658 2.503 4.655 2.502 4.652 2.501 4.649 2.5 4.645 2.498 4.642 2.497 4.639 2.495 4.637 2.494 4.634 2.492 4.631 2.49 4.628 2.488 4.626 2.486 4.624 2.484 4.621 2.481 4.619 2.479 4.617 2.476 4.615 2.474 4.613 2.471 4.612 2.468 4.61 2.465 4.609 2.462 4.608 2.459 4.607 2.456 4.606 2.453 4.605 2.45 4.604 2.447 4.604 2.443 4.604 2.44 4.603 1.597 4.603 1.594 4.603 1.59 4.603 1.587 4.603 1.583 4.602 1.58 4.601 1.577 4.6 1.574 4.599 1.571 4.598 1.568 4.597 1.565 4.595 1.562 4.594 1.559 4.592 1.556 4.59 1.554 4.588 1.551 4.586 1.549 4.584 1.546 4.582 1.544 4.579 1.542 4.577 1.54 4.574 1.539 4.571 1.537 4.569 1.535 4.566 1.534 4.563 1.533 4.56 1.532 4.557 1.531 4.554 1.53 4.55 1.529 4.547 1.529 4.544 1.529 4.54 1.529 4.537 1.529 4.444 1.529 4.443 1.529 4.442 1.529 4.441 1.529 4.44 1.529 4.44 1.529 4.439 1.53 4.438 1.53 4.437 1.531 4.436 1.531 4.435 1.531 4.434 1.532 4.433 1.532 4.433 1.533 4.432 1.534 4.431 1.534 4.431 1.535 4.43 1.536 4.429 1.536 4.429 1.537 4.428 1.538 4.428 1.539 4.427 1.54 4.427 1.54 4.426 1.541 4.426 1.542 4.426 1.543 4.425 1.544 4.425 1.545 4.425 1.546 4.425 1.547 4.425 1.548 4.425 2.648 4.425 2.652 4.425 2.657 4.424 2.661 4.424 2.666 4.423 2.67 4.422 2.675 4.42 2.679 4.419 2.683 4.417 2.687 4.415 2.691 4.413 2.695 4.41 2.699 4.408 2.703 4.405 2.706 4.402 2.709 4.399 2.712 4.395 6.408 0.144 6.421 0.13 6.434 0.116 6.448 0.104 6.463 0.093 6.478 0.082 6.494 0.073 6.51 0.064 6.526 0.056 6.543 0.049 6.56 0.043 6.577 0.038 6.594 0.034 6.612 0.031 6.629 0.029 6.647 0.027 6.665 0.027 6.683 0.027 6.7 0.029 6.718 0.031 6.736 0.034 6.753 0.038 6.77 0.043 6.787 0.049 6.804 0.056 6.82 0.064 6.836 0.073 6.852 0.082 6.867 0.093 6.881 0.104 6.896 0.117 6.909 0.13 6.922 0.144 10.613 4.399 10.616 4.402 10.618 4.405 10.621 4.407 10.625 4.41 10.628 4.412 10.631 4.414 10.635 4.416 10.638 4.418 10.642 4.42 10.645 4.421 10.649 4.422 10.653 4.423 10.657 4.424 10.661 4.424 10.665 4.425 10.669 4.425 11.796 4.425 11.8 4.425 11.804 4.424 11.808 4.424 11.812 4.423 11.816 4.422 11.82 4.421 11.823 4.42 11.827 4.418 11.831 4.416 11.834 4.414 11.838 4.412 11.841 4.41 11.844 4.408 11.847 4.405 11.85 4.402 11.853 4.399 15.549 0.142 15.562 0.128 15.576 0.115 15.59 0.102 15.604 0.091 15.62 0.08 15.635 0.071 15.651 0.062 15.667 0.054 15.684 0.047 15.701 0.041 15.718 0.036 15.736 0.032 15.753 0.029 15.771 0.027 15.788 0.025 15.806 0.025 15.824 0.025 15.842 0.027 15.859 0.029 15.877 0.032 15.894 0.036 15.911 0.042 15.928 0.047 15.945 0.054 15.961 0.062 15.977 0.071 15.993 0.08 16.008 0.091 16.023 0.102 16.037 0.115 16.05 0.128 16.063 0.142 19.75 4.392 19.756 4.398 19.76 4.405 19.765 4.412 19.769 4.419 19.773 4.426 19.777 4.433 19.78 4.441 19.783 4.448 19.786 4.456 19.788 4.464 19.79 4.472 19.792 4.48 19.793 4.488 19.794 4.497 19.795 4.505 19.795 4.513 19.795 4.653 19.795 4.656 19.795 4.659 19.795 4.661 19.796 4.664 19.797 4.667 19.797 4.67 19.798 4.673 19.799 4.675 19.8 4.678 19.802 4.681 19.803 4.683 19.804 4.685 19.806 4.688 19.808 4.69 19.81 4.692 19.811 4.694 19.813 4.696 19.815 4.698 19.818 4.7 19.82 4.701 19.822 4.703 19.824 4.704 19.827 4.706 19.829 4.707 19.832 4.708 19.835 4.709 19.837 4.71 19.84 4.71 19.843 4.711 19.846 4.711 19.849 4.711 19.852 4.711 20.172 4.711 20.175 4.711 20.179 4.711 20.182 4.711 20.185 4.71 20.191 4.709 20.198 4.707 20.204 4.705 20.21 4.703 20.215 4.701 20.22 4.699 20.22 4.699 20.22 4.699 20.22 4.699 20.22 4.699 20.22 4.699 20.22 4.699 20.22 4.699 20.22 4.699 20.22 4.699 20.22 4.699 20.22 4.699 20.22 4.699 20.22 4.699 20.22 4.699 20.22 4.699 20.22 4.699 20.22 4.699 20.22 4.699 20.22 4.699 20.22 4.699 20.22 4.699 20.22 4.699 20.22 4.699 20.22 4.699 20.22 4.699 20.22 4.699 20.22 4.699 20.22 4.699 20.22 4.699 20.22 4.699 20.22 4.699 20.22 4.699 20.22 4.699 20.22 4.699 20.22 4.699 20.22 4.699 20.22 4.699 20.22 4.699 20.22 4.699 20.22 4.699 20.22 4.699 20.22 4.699 20.22 4.699 20.22 4.699 20.22 4.699 20.22 4.699 20.22 4.699 20.22 4.699 20.22 4.699 20.22 4.699 20.22 4.699 20.22 4.699 20.22 4.699 20.22 4.699 20.22 4.699 20.22 4.699 20.22 4.699 20.22 4.699 20.22 4.699 20.22 4.699 20.22 4.699 20.22 4.699 20.22 4.699 20.22 4.699 20.22 4.699 20.22 4.699 20.22 4.699 20.22 4.699 20.22 4.699 20.22 4.699 20.22 4.699 20.22 4.699 20.22 4.699 20.22 4.699 20.22 4.699 20.22 4.699 20.22 4.699 20.22 4.699 20.22 4.699 20.22 4.699 20.22 4.699 20.22 4.699 20.22 4.699 20.22 4.699 20.22 4.699 20.22 4.699 20.22 4.699 20.22 4.699 20.22 4.699 20.22 4.699 20.22 4.699 20.22 4.699 20.22 4.699 20.22 4.699 20.22 4.699 20.22 4.699 20.22 4.699 20.22 4.699 20.22 4.699 20.22 4.699 20.22 4.699 20.22 4.699 20.22 4.699 20.22 4.699 20.22 4.699 20.22 4.699 20.22 4.699 20.22 4.699 20.22 4.699 20.22 4.699 20.22 4.699 20.22 4.699 20.22 4.699 20.22 4.699 20.22 4.699 20.22 4.699 20.22 4.699 20.22 4.699 20.22 4.699 20.22 4.699 20.22 4.699 20.22 4.699 20.22 4.699 20.22 4.699 20.22 4.699 20.22 4.699 20.22 4.699 20.22 4.699 20.22 4.699 20.22 4.699 20.22 4.699 20.22 4.699 20.22 4.699 20.22 4.699 20.22 4.699 20.22 4.699 20.22 4.699 20.22 4.699 20.22 4.699 20.22 4.699 20.22 4.699 20.22 4.699 20.22 4.699 20.22 4.699 20.22 4.699 20.22 4.699 20.22 4.699 20.22 4.699 20.22 4.699 20.22 4.699 20.22 4.699 20.22 4.699 20.22 4.699 20.22 4.699 20.22 4.699 20.22 4.699 20.22 4.699 20.22 4.699 20.22 4.699 20.22 4.699 20.22 4.699 20.22 4.699 20.22 4.699 20.22 4.699 20.22 4.699 20.22 4.699 20.22 4.699 20.22 4.699 20.22 4.699 20.22 4.699 20.22 4.699 20.22 4.699 20.22 4.699 20.22 4.699 20.22 4.699 20.22 4.699 20.22 4.699 20.22 4.699 20.22 4.699 20.22 4.699 20.22 4.699 20.22 4.699 20.22 4.699 20.22 4.699 20.22 4.699 20.22 4.699 20.22 4.699 20.22 4.699 20.22 4.699 20.22 4.699 20.22 4.699 20.22 4.699 20.22 4.699 20.22 4.699 20.22 4.699 20.22 4.699 20.22 4.699 20.22 4.699 20.22 4.699 20.22 4.699 20.22 4.699 20.22 4.699 20.22 4.699 20.22 4.699 20.22 4.699 20.22 4.699 20.22 4.699 20.22 4.699 20.22 4.699 20.22 4.699 20.22 4.699 20.22 4.699 20.22 4.699 20.22 4.699 20.22 4.699 20.22 4.699 20.22 4.699 20.22 4.699 20.22 4.699 20.22 4.699 20.22 4.699 20.22 4.699 20.22 4.699 20.22 4.699 20.22 4.699 20.22 4.699 20.22 4.699 20.22 4.699 20.22 4.699 20.22 4.699 20.22 4.699 20.22 4.699 20.22 4.699 20.22 4.699 20.22 4.699 20.22 4.699 20.22 4.699 20.22 4.699 20.22 4.699 20.22 4.699 20.22 4.699 20.22 4.699 20.22 4.699 20.22 4.699 20.22 4.699 20.22 4.699 20.22 4.699 20.22 4.699 20.22 4.699 20.22 4.699 20.22 4.699 20.22 4.699 20.22 4.699 20.22 4.699 20.22 4.699 20.22 4.699 20.22 4.699 20.22 4.699 20.22 4.699 20.22 4.699 20.22 4.699 20.22 4.699 20.22 4.699 20.22 4.699 20.22 4.699 20.22 4.699 20.22 4.699 20.22 4.699 20.22 4.699 20.22 4.699 20.22 4.699 20.22 4.699 20.22 4.699 20.22 4.699 20.22 4.699 20.22 4.699 20.22 4.699 20.22 4.699 20.22 4.699 20.22 4.699 20.22 4.699 20.22 4.699 20.22 4.699 20.22 4.699 20.22 4.699 20.22 4.699 20.22 4.699 20.22 4.699 20.22 4.699 20.22 4.699 20.22 4.699 20.22 4.699 20.22 4.699 20.22 4.699 20.22 4.699 20.22 4.699 20.22 4.699 20.22 4.699 20.22 4.699 20.22 4.699 20.22 4.699 20.22 4.699 20.22 4.699 20.22 4.699 20.22 4.699 20.22 4.699 20.22 4.699 20.22 4.699 20.22 4.699 20.22 4.699 20.22 4.699 20.22 4.699 20.22 4.699 20.22 4.699 20.22 4.699 20.22 4.699 20.22 4.699 20.22 4.699 20.22 4.699 20.22 4.699 20.22 4.699 20.22 4.699 20.22 4.699 20.22 4.699 20.22 4.699 20.22 4.699 20.22 4.699 20.22 4.699 20.22 4.699 20.22 4.699 20.22 4.699 20.22 4.699 20.22 4.699 20.22 4.699 20.22 4.699 20.22 4.699 20.22 4.699 20.22 4.699 20.22 4.699 20.22 4.699 20.22 4.699 20.22 4.699 20.22 4.699 20.22 4.699 20.22 4.699 20.22 4.699 20.22 4.699 20.22 4.699 20.22 4.699 20.22 4.699 20.22 4.699 20.22 4.699 20.22 4.699 20.22 4.699 20.22 4.699 20.22 4.699 20.22 4.699 20.22 4.699 20.22 4.699 20.22 4.699 20.22 4.699 20.22 4.699 20.22 4.699 20.22 4.699 20.22 4.699 20.22 4.699 20.22 4.699 20.22 4.699 20.22 4.699 20.22 4.699 20.22 4.699 20.22 4.699 20.22 4.699 20.22 4.699 20.22 4.699 20.22 4.699 20.22 4.699 20.22 4.699 20.22 4.699 20.22 4.699 20.22 4.699 20.22 4.699 20.22 4.699 20.22 4.699 20.22 4.699 20.22 4.699 20.22 4.699 20.22 4.699 20.22 4.699 20.22 4.699 20.22 4.699 20.22 4.699 20.22 4.699 20.22 4.699 20.22 4.699 20.22 4.699 20.22 4.699 20.22 4.699 20.22 4.699 20.22 4.699 20.22 4.699 20.22 4.699 20.22 4.699 20.22 4.699 20.22 4.699 20.22 4.699 20.22 4.699 20.22 4.699 20.22 4.699 20.22 4.699 20.22 4.699 20.22 4.699 20.22 4.699 20.22 4.699 20.22 4.699 20.22 4.699 20.22 4.699 20.22 4.699 20.22 4.699 20.22 4.699 20.22 4.699 20.22 4.699 20.22 4.699 20.22 4.699 20.22 4.699 20.22 4.699 20.22 4.699 20.22 4.699 20.22 4.699 20.22 4.699 20.22 4.699 20.22 4.699 20.22 4.699 20.22 4.699 20.22 4.699 20.22 4.699 20.22 4.699 20.22 4.699 20.22 4.699 20.22 4.699 20.22 4.699 20.22 4.699 20.22 4.699 20.22 4.699 20.22 4.699 20.22 4.699 20.22 4.699 20.22 4.699 20.22 4.699 20.22 4.699 20.22 4.699 20.22 4.699 20.22 4.699 20.22 4.699 20.22 4.699 20.22 4.699 20.22 4.699 20.22 4.699 20.22 4.699 20.22 4.699 20.22 4.699 20.22 4.699 20.22 4.699 20.22 4.699 20.22 4.699 20.22 4.699 20.22 4.699 20.22 4.699 20.22 4.699 20.22 4.699 20.22 4.699 20.22 4.699 20.22 4.699 20.22 4.699 20.22 4.699 20.22 4.699 20.22 4.699 20.22 4.699 20.22 4.699 20.22 4.699 20.22 4.699 20.22 4.699 20.22 4.699 20.22 4.699 20.22 4.699 20.22 4.699 20.22 4.699 20.22 4.699 20.22 4.699 20.22 4.699 20.22 4.699 20.22 4.699 20.22 4.699 20.22 4.699 20.22 4.699 20.22 4.699 20.22 4.699 20.22 4.699 20.22 4.699 20.22 4.699 20.22 4.699 20.22 4.699 20.22 4.699 20.22 4.699 20.22 4.699 20.22 4.699 20.22 4.699 20.22 4.699 20.22 4.699 20.22 4.699 20.22 4.699 20.22 4.699 20.22 4.699 20.22 4.699 20.22 4.699 20.22 4.699 20.22 4.699 20.22 4.699 20.22 4.699 20.22 4.699 20.22 4.699 20.22 4.699 20.22 4.699 20.22 4.699 20.22 4.699 20.22 4.699 20.22 4.699 20.22 4.699 20.22 4.699 20.22 4.699 20.22 4.699 20.22 4.699 20.22 4.699 20.22 4.699 20.22 4.699 20.22 4.699 20.22 4.699 20.22 4.699 20.22 4.699 20.22 4.699 20.22 4.699 20.22 4.699 20.22 4.699 20.22 4.699 20.22 4.699 20.22 4.699 20.22 4.699 20.22 4.699 20.22 4.699 20.22 4.699 20.22 4.699 20.22 4.699 20.22 4.699 20.22 4.699 20.22 4.699 20.22 4.699 20.22 4.699 20.22 4.699 20.22 4.699 20.22 4.699 20.22 4.699 20.22 4.699 20.22 4.699 20.22 4.699 20.22 4.699 20.22 4.699 20.22 4.699 20.22 4.699 20.22 4.699 20.22 4.699 20.22 4.699 20.22 4.699 20.22 4.699 20.22 4.699 20.22 4.699 20.22 4.699 20.22 4.699 20.22 4.699 20.22 4.699 20.22 4.699 20.22 4.699 20.22 4.699 20.22 4.699 20.22 4.699 20.22 4.699 20.22 4.699 20.22 4.699 20.22 4.699 20.22 4.699 20.22 4.699 20.22 4.699 20.22 4.699 20.22 4.699 20.22 4.699 20.22 4.699 20.22 4.699 20.22 4.699 20.22 4.699 20.22 4.699 20.22 4.699 20.22 4.699 20.22 4.699 20.22 4.699 20.22 4.699 20.22 4.699 20.22 4.699 20.22 4.699 20.22 4.699 20.22 4.699 20.22 4.699 20.22 4.699 20.22 4.699 20.22 4.699 20.22 4.699 20.22 4.699 20.22 4.699 20.22 4.699 20.22 4.699 20.22 4.699 20.22 4.699 20.22 4.699 20.22 4.699 20.22 4.699 20.22 4.699 20.22 4.699 20.22 4.699 20.22 4.699 20.22 4.699 20.22 4.699 20.22 4.699 20.22 4.699 20.22 4.699 20.22 4.699 20.22 4.699 20.22 4.699 20.22 4.699 20.22 4.699 20.22 4.699 20.22 4.699 20.22 4.699 20.22 4.699 20.22 4.699 20.22 4.699 20.22 4.699 20.22 4.699 20.22 4.699 20.22 4.699 20.22 4.699 20.22 4.699 20.22 4.699 20.22 4.699 20.22 4.699 20.22 4.699 20.22 4.699 20.22 4.699 20.22 4.699 20.22 4.699 20.22 4.699 20.22 4.699 20.22 4.699 20.22 4.699 20.22 4.699 20.22 4.699 20.22 4.699 20.22 4.699 20.22 4.699 20.22 4.699 20.22 4.699 20.22 4.699 20.22 4.699 20.22 4.699 20.22 4.699 20.22 4.699 20.22 4.699 20.22 4.699 20.22 4.699 20.22 4.699 20.22 4.699 20.22 4.699 20.22 4.699 20.22 4.699 20.22 4.699 20.22 4.699 20.22 4.699 20.22 4.699 20.22 4.699 20.22 4.699 20.22 4.699 20.22 4.699 20.22 4.699 20.22 4.699 20.22 4.699 20.22 4.699 20.22 4.699 20.22 4.699 20.22 4.699 20.22 4.699 20.22 4.699 20.22 4.699 20.22 4.699 20.22 4.699 20.22 4.699 20.22 4.699 20.22 4.699 20.22 4.699 20.22 4.699 20.22 4.699 20.22 4.699 20.22 4.699 20.22 4.699 20.22 4.699 20.22 4.699 20.22 4.699 20.22 4.699 20.22 4.699 20.22 4.699 20.22 4.699 20.22 4.699 20.22 4.699 20.22 4.699 20.22 4.699 20.22 4.699 20.22 4.699 20.22 4.699 20.22 4.699 20.22 4.699 20.22 4.699 20.22 4.699 20.22 4.699 20.22 4.699 20.22 4.699 20.22 4.699 20.22 4.699 20.22 4.699 20.22 4.699 20.22 4.699 20.22 4.699 20.22 4.699 20.22 4.699 20.22 4.699 20.22 4.699 20.22 4.699 20.22 4.699 20.22 4.699 20.22 4.699 20.22 4.699 20.22 4.699 20.22 4.699 20.22 4.699 20.22 4.699 20.22 4.699 20.22 4.699 20.22 4.699 20.22 4.699 20.22 4.699 20.22 4.699 20.22 4.699 20.22 4.699 20.22 4.699 20.22 4.699 20.22 4.699 20.22 4.699 20.22 4.699 20.22 4.699 20.22 4.699 20.22 4.699 20.22 4.699 20.22 4.699 20.22 4.699 20.22 4.699 20.22 4.699 20.22 4.699 20.22 4.699 20.22 4.699 20.22 4.699 20.22 4.699 20.22 4.699 20.22 4.699 20.22 4.699 20.22 4.699 20.22 4.699 20.22 4.699 20.22 4.699 20.22 4.699 20.22 4.699 20.22 4.699 20.22 4.699 20.22 4.699 20.22 4.699 20.22 4.699 20.22 4.699 20.22 4.699 20.22 4.699 20.22 4.699 20.22 4.699 20.22 4.699 20.22 4.699 20.22 4.699 20.22 4.699 20.22 4.699 20.22 4.699 20.22 4.699 20.22 4.699 20.22 4.699 20.22 4.699 20.22 4.699 20.22 4.699 20.22 4.699 20.22 4.699 20.22 4.699 20.22 4.699 20.22 4.699 20.22 4.699 20.22 4.699 20.22 4.699 20.22 4.699 20.22 4.699 20.22 4.699 20.22 4.699 20.22 4.699 20.22 4.699 20.22 4.699 20.22 4.699 20.22 4.699 20.22 4.699 20.22 4.699 20.22 4.699 20.22 4.699 20.22 4.699 20.22 4.699 20.22 4.699 20.22 4.699 20.22 4.699 20.22 4.699 20.22 4.699 20.22 4.699 20.22 4.699 20.22 4.699 20.22 4.699 20.22 4.699 20.22 4.699 20.22 4.699 20.22 4.699 20.22 4.699 20.22 4.699 20.22 4.699 20.22 4.699 20.22 4.699 20.22 4.699 20.22 4.699 20.22 4.699 20.22 4.699 20.22 4.699 20.22 4.699 20.22 4.699 20.22 4.699 20.22 4.699 20.22 4.699 20.22 4.699 20.22 4.699 20.22 4.699 20.22 4.699 20.22 4.699 20.22 4.699 20.22 4.699 20.22 4.699 20.22 4.699 20.22 4.699 20.22 4.699 20.22 4.699 20.22 4.699 20.22 4.699 20.22 4.699 20.22 4.699 20.22 4.699 20.22 4.699 20.22 4.699 20.22 4.699 20.22 4.699 20.22 4.699 20.22 4.699 20.22 4.699 20.22 4.699 20.22 4.699 20.22 4.699 20.22 4.699 20.22 4.699 20.22 4.699 20.22 4.699 20.22 4.699 20.22 4.699 20.22 4.699 20.22 4.699 20.22 4.699 20.22 4.699 20.22 4.699 20.22 4.699 20.22 4.699 20.22 4.699 20.22 4.699 20.22 4.699 20.22 4.699 20.22 4.699 20.22 4.699 20.22 4.699 20.22 4.699 20.22 4.699 20.22 4.699 20.22 4.699 20.22 4.699 20.22 4.699 20.22 4.699 20.22 4.699 20.22 4.699 20.22 4.699 20.22 4.699 20.22 4.699 20.22 4.699 20.22 4.699 20.22 4.699 20.22 4.699 20.22 4.699 20.22 4.699 20.22 4.699 20.22 4.699 20.22 4.699 20.22 4.699 20.22 4.699 20.22 4.699 20.22 4.699 20.22 4.699 20.22 4.699 20.22 4.699 20.22 4.699 20.22 4.699 20.22 4.699 20.22 4.699 20.22 4.699 20.22 4.699 20.22 4.699 20.22 4.699 20.22 4.699 20.22 4.699 20.22 4.699 20.22 4.699 20.22 4.699 20.22 4.699 20.22 4.699 20.22 4.699 20.22 4.699 20.22 4.699 20.22 4.699 20.22 4.699 20.22 4.699 20.22 4.699 20.22 4.699 20.22 4.699 20.22 4.699 20.22 4.699 20.22 4.699 20.22 4.699 20.22 4.699 20.22 4.699 20.22 4.699 20.22 4.699 20.22 4.699 20.22 4.699 20.22 4.699 20.22 4.699 20.22 4.699 20.22 4.699 20.22 4.699 20.22 4.699 20.22 4.699 20.22 4.699 20.22 4.699 20.22 4.699 20.22 4.699 20.22 4.699 20.22 4.699 20.22 4.699 20.22 4.699 20.22 4.699 20.22 4.699 20.22 4.699 20.22 4.699 20.22 4.699 20.22 4.699 20.22 4.699 20.22 4.699 20.22 4.699 20.22 4.699 20.22 4.699 20.22 4.699 20.22 4.699 20.22 4.699 20.22 4.699 20.22 4.699 20.22 4.699 20.22 4.699 20.22 4.699 20.22 4.699 20.22 4.699 20.22 4.699 20.22 4.699 20.22 4.699 20.22 4.699 20.22 4.699 20.22 4.699 20.22 4.699 20.22 4.699 20.22 4.699 20.22 4.699 20.22 4.699 20.22 4.699 20.22 4.699 20.22 4.699 20.22 4.699 20.22 4.699 20.22 4.699 20.22 4.699 20.22 4.699 20.22 4.699 20.22 4.699 20.22 4.699 20.22 4.699 20.22 4.699 20.22 4.699 20.22 4.699 20.22 4.699 20.22 4.699 20.22 4.699 20.22 4.699 20.22 4.699 20.22 4.699 20.22 4.699 20.22 4.698 20.221 4.698 20.223 4.696 20.226 4.694 20.23 4.692 20.234 4.688 20.238 4.684 20.24 4.682 20.242 4.68 20.243 4.678 20.245 4.675 20.246 4.673 20.248 4.671 20.25 4.667 20.254 4.659 20.258 4.65 20.259 4.648 20.26 4.647 20.261 4.645 20.263 4.643 20.264 4.641 20.266 4.639 20.267 4.638 20.269 4.636 20.271 4.635 20.272 4.634 20.273 4.634 20.275 4.632 20.278 4.631 20.28 4.63 20.283 4.629 20.286 4.629 20.29 4.628 20.293 4.627 20.297 4.627 20.301 4.627 20.305 4.627 20.372 4.627 20.374 4.627 20.377 4.627 20.379 4.627 20.382 4.628 20.384 4.629 20.386 4.629 20.389 4.63 20.391 4.631 20.393 4.632 20.395 4.634 20.397 4.635 20.399 4.636 20.401 4.638 20.403 4.64 20.405 4.641 20.407 4.643 20.409 4.645 20.41 4.647 20.412 4.649 20.413 4.652 20.415 4.654 20.416 4.656 20.417 4.659 20.418 4.661 20.419 4.664 20.42 4.666 20.42 4.669 20.421 4.672 20.421 4.675 20.422 4.678 20.422 4.68 20.422 4.683 20.422 4.792 20.422 4.796 20.422 4.799 20.421 4.803 20.421 4.806 20.42 4.809 20.419 4.813 20.418 4.816 20.417 4.819 20.415 4.822 20.414 4.825 20.412 4.828 20.41 4.831 20.408 4.833 20.406 4.836 20.404 4.838 20.402 4.841 20.4 4.843 20.397 4.845 20.394 4.847 20.392 4.849 20.389 4.851 20.386 4.853 20.383 4.854 20.38 4.856 20.377 4.857 20.374 4.858 20.371 4.859 20.367 4.86 20.364 4.86 20.36 4.861 20.357 4.861 20.353 4.861 19.668 4.861 19.665 4.861 19.661 4.861 19.658 4.86 19.655 4.86 19.651 4.859 19.648 4.858 19.645 4.857 19.642 4.856 19.639 4.854 19.636 4.853 19.633 4.851 19.63 4.849 19.627 4.847 19.625 4.845 19.622 4.843 19.62 4.841 19.618 4.838 19.615 4.836 19.613 4.833 19.611 4.831 19.61 4.828 19.608 4.825 19.606 4.822 19.605 4.819 19.604 4.816 19.603 4.813 19.602 4.809 19.601 4.806 19.6 4.803 19.6 4.799 19.6 4.796 19.6 4.792 19.6 4.536 19.599 4.53 19.599 4.525 19.598 4.519 19.597 4.513 19.596 4.508 19.595 4.502 19.593 4.497 19.591 4.491 19.589 4.486 19.587 4.481 19.584 4.476 19.581 4.471 19.578 4.466 19.575 4.461 19.571 4.457 19.567 4.452 15.923 0.258 15.917 0.252 15.911 0.246 15.904 0.24 15.898 0.235 15.891 0.23 15.884 0.226 15.877 0.222 15.869 0.219 15.862 0.215 15.854 0.213 15.846 0.211 15.839 0.209 15.831 0.207 15.823 0.206 15.815 0.206 15.807 0.205 15.799 0.206 15.791 0.206 15.783 0.207 15.775 0.209 15.767 0.211 15.759 0.213 15.752 0.215 15.744 0.219 15.737 0.222 15.73 0.226 15.723 0.23 15.716 0.235 15.709 0.24 15.703 0.246 15.697 0.252 15.691 0.258 11.939 4.578 11.937 4.581 11.934 4.583 11.931 4.586 11.928 4.589 11.924 4.591 11.921 4.593 11.917 4.595 11.914 4.597 11.91 4.598 11.906 4.6 11.903 4.601 11.899 4.602 11.895 4.602 11.891 4.603 11.887 4.603 11.883 4.603 11.379 4.603 11.376 4.604 11.373 4.604 11.369 4.604 11.366 4.605 11.363 4.606 11.36 4.607 11.357 4.608 11.355 4.609 11.352 4.61 11.349 4.612 11.346 4.613 11.344 4.615 11.341 4.617 11.339 4.619 11.337 4.621 11.334 4.624 11.332 4.626 11.33 4.628 11.329 4.631 11.327 4.634 11.325 4.637 11.324 4.639 11.322 4.642 11.321 4.645 11.32 4.649 11.319 4.652 11.318 4.655 11.317 4.658 11.317 4.662 11.316 4.665 11.316 4.669 11.316 4.672 11.316 4.865 11.316 4.866 11.316 4.868 11.316 4.869 11.317 4.871 11.317 4.872 11.317 4.874 11.318 4.875 11.318 4.876 11.319 4.878 11.32 4.879 11.32 4.88 11.321 4.881 11.322 4.882 11.323 4.884 11.324 4.885 11.325 4.886 11.326 4.887 11.327 4.888 11.328 4.888 11.329 4.889 11.33 4.89 11.331 4.891 11.333 4.891 11.334 4.892 11.335 4.892 11.337 4.893 11.338 4.893 11.339 4.894 11.341 4.894 11.342 4.894 11.344 4.894 11.345 4.894 11.43 4.894 11.432 4.894 11.434 4.894 11.436 4.895 11.438 4.895 11.44 4.895 11.442 4.896 11.444 4.897 11.446 4.897 11.447 4.898 11.449 4.899 11.451 4.9 11.452 4.901 11.454 4.902 11.455 4.903 11.457 4.904 11.458 4.906 11.459 4.907 11.461 4.909 11.462 4.91 11.463 4.912 11.464 4.913 11.465 4.915 11.466 4.916 11.467 4.918 11.467 4.92 11.468 4.922 11.468 4.924 11.469 4.926 11.469 4.928 11.469 4.929 11.47 4.931 11.47 4.933 11.47 5.021 11.47 5.023 11.469 5.025 11.469 5.027 11.469 5.029 11.468 5.031 11.468 5.033 11.467 5.035 11.467 5.036 11.466 5.038 11.465 5.04 11.464 5.041 11.463 5.043 11.462 5.045 11.461 5.046 11.459 5.048 11.458 5.049 11.457 5.05 11.455 5.051 11.454 5.053 11.452 5.054 11.451 5.055 11.449 5.056 11.447 5.057 11.446 5.057 11.444 5.058 11.442 5.059 11.44 5.059 11.438 5.06 11.436 5.06 11.434 5.06 11.432 5.06 11.43 5.06 11.035 5.06 11.033 5.06 11.031 5.06 11.029 5.06 11.027 5.06 11.026 5.059 11.024 5.059 11.022 5.058 11.02 5.057 11.018 5.057 11.017 5.056 11.015 5.055 11.013 5.054 11.012 5.053 11.01 5.051 11.009 5.05 11.008 5.049 11.006 5.048 11.005 5.046 11.004 5.045 11.003 5.043 11.002 5.041 11.001 5.04 11 5.038 10.999 5.036 10.998 5.035 10.998 5.033 10.997 5.031 10.997 5.029 10.996 5.027 10.996 5.025 10.996 5.023 10.996 5.021 10.996 4.933 10.996 4.931 10.996 4.929 10.996 4.928 10.997 4.926 10.997 4.924 10.998 4.922 10.998 4.92 10.999 4.918 11 4.916 11.001 4.915 11.002 4.913 11.003 4.912 11.004 4.91 11.005 4.909 11.006 4.907 11.007 4.906 11.009 4.904 11.01 4.903 11.012 4.902 11.013 4.901 11.015 4.9 11.017 4.899 11.018 4.898 11.02 4.897 11.022 4.897 11.024 4.896 11.025 4.895 11.027 4.895 11.029 4.895 11.031 4.894 11.033 4.894 11.035 4.894 11.12 4.894 11.122 4.894 11.123 4.894 11.125 4.894 11.126 4.894 11.128 4.893 11.129 4.893 11.13 4.892 11.132 4.892 11.133 4.891 11.134 4.891 11.136 4.89 11.137 4.889 11.138 4.888 11.139 4.888 11.14 4.887 11.141 4.886 11.142 4.885 11.143 4.884 11.144 4.882 11.145 4.881 11.146 4.88 11.146 4.879 11.147 4.878 11.147 4.876 11.148 4.875 11.148 4.874 11.149 4.872 11.149 4.871 11.149 4.869 11.15 4.868 11.15 4.866 11.15 4.865 11.15 4.672 11.15 4.669 11.149 4.665 11.149 4.662 11.148 4.658 11.148 4.655 11.147 4.652 11.146 4.649 11.144 4.645 11.143 4.642 11.142 4.639 11.14 4.637 11.138 4.634 11.136 4.631 11.134 4.629 11.132 4.626 11.13 4.624 11.127 4.621 11.125 4.619 11.122 4.617 11.12 4.615 11.117 4.613 11.114 4.612 11.111 4.61 11.108 4.609 11.105 4.608 11.102 4.607 11.098 4.606 11.095 4.605 11.092 4.604 11.088 4.604 11.085 4.604 11.081 4.603 10.581 4.603 10.577 4.603 10.573 4.603 10.569 4.602 10.565 4.602 10.562 4.601 10.558 4.6 10.554 4.598 10.551 4.597 10.547 4.595 10.544 4.593 10.541 4.591 10.538 4.588 10.535 4.586 10.532 4.583 10.529 4.581 10.526 4.578 6.78 0.258 6.774 0.252 6.768 0.246 6.762 0.241 6.755 0.235 6.748 0.231 6.741 0.226 6.734 0.222 6.727 0.219 6.719 0.216 6.712 0.213 6.704 0.211 6.696 0.209 6.688 0.208 6.68 0.206 6.672 0.206 6.664 0.206 6.656 0.206 6.648 0.206 6.64 0.208 6.633 0.209 6.625 0.211 6.617 0.213 6.609 0.216 6.602 0.219 6.595 0.222 6.587 0.226 6.58 0.231 6.574 0.235 6.567 0.24 6.561 0.246 6.554 0.252 6.549 0.258 2.713 4.672 2.71 4.676 2.707 4.679 2.705 4.683 2.702 4.687 2.7 4.691 2.698 4.695 2.696 4.7 2.694 4.704 2.693 4.708 2.691 4.713 2.69 4.717 2.689 4.722 2.689 4.727 2.688 4.731 2.688 4.736 2.688 4.741 2.688 4.992 2.688 4.996 2.687 5 2.687 5.003 2.686 5.007 2.685 5.01 2.684 5.014 2.683 5.017 2.681 5.02 2.68 5.024 2.678 5.027 2.676 5.03 2.674 5.033 2.672 5.036 2.67 5.038 2.667 5.041 2.665 5.043 2.662 5.046 2.659 5.048 2.656 5.05 2.653 5.052 2.65 5.054 2.647 5.056 2.643 5.057 2.64 5.059 2.636 5.06 2.632 5.061 2.629 5.062 2.625 5.063 2.621 5.064 2.617 5.064 2.613 5.064 2.609 5.065 0.05 5.065 0.049 5.065 0.048 5.064 0.047 5.064 0.046 5.064 0.045 5.064 0.044 5.064 0.043 5.064 0.042 5.063 0.041 5.063 0.04 5.063 0.04 5.062 0.039 5.062 0.038 5.061 0.037 5.061 0.037 5.06 0.036 5.06 0.035 5.059 0.035 5.058 0.034 5.058 0.033 5.057 0.033 5.056 0.032 5.055 0.032 5.055 0.031 5.054 0.03 5.052 0.029 5.05 0.028 5.048 0.028 5.046 0.027 5.044 0.026 5.042 0.026 5.04 0.026 5.038 0.025 5.035 0.025 5.033 0.025 5.03 0.025 5.028 0.025 5.023 0.026 5.017 0.027 5.012 0.028 5.006 0.03 5.001 0.031 4.996 0.034 4.99 0.036 4.985 0.039 4.98 0.041 4.978 0.043 4.975 0.045 4.973 0.046 4.971 0.048 4.969 0.051 4.966 0.053 4.964 0.055 4.963 0.057 4.961 0.06 4.959 0.062 4.957 0.065 4.956 0.067 4.955 0.07 4.953 0.073 4.952 0.076 4.951 0.079 4.95 0.082 4.95 0.085 4.949 0.089 4.949"/></g></svg>