<?xml version="1.0" encoding="UTF-8" standalone="no"?>
<svg
   id="Capa_2"
   data-name="Capa 2"
   viewBox="0 0 20.56134 5.14"
   version="1.1"
   sodipodi:docname="matriz2_h.svg"
   width="20.56134"
   height="5.1399999"
   inkscape:version="1.3.2 (091e20e, 2023-11-25, custom)"
   xmlns:inkscape="http://www.inkscape.org/namespaces/inkscape"
   xmlns:sodipodi="http://sodipodi.sourceforge.net/DTD/sodipodi-0.dtd"
   xmlns="http://www.w3.org/2000/svg"
   xmlns:svg="http://www.w3.org/2000/svg">
  <sodipodi:namedview
     id="namedview2"
     pagecolor="#ffffff"
     bordercolor="#000000"
     borderopacity="0.25"
     inkscape:showpageshadow="2"
     inkscape:pageopacity="0.0"
     inkscape:pagecheckerboard="0"
     inkscape:deskcolor="#d1d1d1"
     showgrid="false"
     inkscape:zoom="32"
     inkscape:cx="20.203125"
     inkscape:cy="8.828125"
     inkscape:window-width="2560"
     inkscape:window-height="1369"
     inkscape:window-x="-8"
     inkscape:window-y="-8"
     inkscape:window-maximized="1"
     inkscape:current-layer="g2" />
  <defs
     id="defs1">
    <style
       id="style1">
      .cls-1 {
        fill: none;
        stroke: #000;
        stroke-linecap: round;
        stroke-linejoin: round;
        stroke-width: .1px;
      }
    </style>
  </defs>
  <g
     id="Capa_1-2"
     data-name="Capa 1">
    <g
       id="g2">
      <polyline
         class="cls-1"
         points="19.58 4.31 19.58 .11 19.58 .08 19.55 .08 19.55 .05 19.52 .05 3.26 .05 3.23 .05 3.23 .08 3.23 .11 3.2 .11 3.2 4.25 3.2 4.28 3.2 4.31 3.17 4.31 1.46 4.31 1.43 4.31 1.43 4.34 1.43 4.37 1.43 4.43 1.43 4.46 1.43 4.49 1.46 4.49 2.3 4.49 2.33 4.49 2.33 4.52 2.33 4.55 2.33 4.85 2.33 4.88 2.3 4.91 .62 4.91 .59 4.91 .26 4.91 .08 4.91 .05 4.91 .05 4.94 .05 5.03 .05 5.06 .08 5.09 2.33 5.09 2.48 5.09 2.51 5.06 2.51 5.03 2.51 4.55 2.51 4.52 2.54 4.52 2.54 4.49 2.57 4.49 3.35 4.49 3.38 4.49 3.38 4.46 3.38 4.43 3.38 .29 3.41 .26 3.41 .23 3.44 .23 10.43 .23 10.46 .23 10.46 .26 10.49 .26 10.49 .29 10.49 4.73 10.49 4.76 10.46 4.76 10.46 4.79 10.43 4.79 10.22 4.79 10.19 4.79 10.16 4.79 10.16 4.82 10.16 5.03 10.16 5.06 10.19 5.06 10.19 5.09 10.22 5.09 10.88 5.09 10.91 5.09 10.91 5.06 10.94 5.06 10.94 5.03 10.94 4.82 10.91 4.79 10.88 4.79 10.7 4.79 10.7 4.76 10.67 4.76 10.67 4.73 10.67 .29 10.67 .26 10.7 .26 10.7 .23 19.34 .23 19.37 .23 19.37 .26 19.4 .26 19.4 .29 19.4 4.64 19.4 4.67 19.43 4.67 19.46 4.67 20.27 4.67 20.27 4.76 20.27 4.79 20.3 4.79 20.3 4.82 20.3 4.85 20.33 4.85 20.33 4.88 20.36 4.88 20.39 4.88"
         id="polyline1" />
      <rect
         style="fill:#000000;stroke-width:0.05;stroke-dasharray:none"
         id="rect15"
         width="1.016466"
         height="0.088388346"
         x="19.544874"
         y="4.3089318" />
      <rect
         style="fill:#000000;stroke-width:0.0556776;stroke-dasharray:none"
         id="rect16"
         width="0.088388346"
         height="0.51375729"
         x="20.472952"
         y="4.3199806" />
      <rect
         style="fill:#000000;stroke-width:0.0592349;stroke-dasharray:none"
         id="rect17"
         width="0.11048543"
         height="0.11048543"
         x="20.423231"
         y="4.7784953" />
    </g>
  </g>
</svg>
