<?xml version="1.0" encoding="UTF-8"?>
<svg id="Capa_2" data-name="Capa 2" xmlns="http://www.w3.org/2000/svg" viewBox="0 0 20.51 3.68">
  <defs>
    <style>
      .cls-1 {
        fill: none;
        stroke: #000;
        stroke-miterlimit: 10;
        stroke-width: .05px;
      }
    </style>
  </defs>
  <g id="Capa_1-2" data-name="Capa 1">
    <g>
      <polyline class="cls-1" points="10.64 2.61 10.64 3.32 10.64 3.36 10.67 3.36 10.7 3.36 10.85 3.36 10.88 3.36 10.91 3.39 10.91 3.42 10.91 3.59 10.91 3.62 10.88 3.65 10.85 3.65 10.19 3.65 10.16 3.65 10.13 3.62 10.13 3.59 10.13 3.42 10.13 3.39 10.16 3.36 10.19 3.36 10.41 3.36 10.44 3.36 10.47 3.36 10.47 3.32 10.47 2.73"/>
      <polyline class="cls-1" points="4.38 3.06 3.03 3.06 2.54 3.06 2.51 3.09 2.51 3.12 2.48 3.12 2.48 3.59 2.48 3.62 2.48 3.65 2.45 3.65 2.33 3.65 .05 3.65 .03 3.65 .03 3.62 .03 3.59 .03 3.54 .03 3.51 .03 3.48 .05 3.48 .23 3.48 .56 3.48 .59 3.51 .59 3.48 2.28 3.48 2.3 3.48 2.3 3.45 2.33 3.45 2.33 3.42 2.33 3.12 2.3 3.09 2.28 3.06 1.44 3.06 1.41 3.06 1.41 3.03 1.41 2.93 1.41 2.9 1.44 2.9 1.44 2.87 4.38 2.87"/>
      <path class="cls-1" d="m3.55,3.06h0"/>
      <polyline class="cls-1" points="20.36 3.45 20.39 3.45 20.42 3.45 20.45 3.45 20.45 3.42 20.48 3.39 20.48 3.36 20.48 3.15 20.48 3.12 20.48 3.09 20.45 3.09 19.61 3.09 19.58 3.09 19.55 3.09 19.55 3.06"/>
      <polyline class="cls-1" points="17.84 3.06 19.34 3.06 19.34 3.09 19.37 3.09 19.37 3.12 19.37 3.2 19.37 3.23 19.41 3.23 19.41 3.26 19.44 3.26 20.25 3.26 20.25 3.36 20.28 3.36 20.28 3.39 20.28 3.42 20.3 3.45 20.33 3.45 20.36 3.45"/>
      <path class="cls-1" d="m9.06,2.88c.6-.32.91-1,.77-1.66-.15-.66-.72-1.15-1.4-1.19-.68-.04-1.3.38-1.52,1.03"/>
      <path class="cls-1" d="m8.35,2.87c.68,0,1.25-.51,1.33-1.19.07-.68-.37-1.3-1.04-1.45-.67-.15-1.33.23-1.55.88"/>
      <path class="cls-1" d="m4.36,2.87c1.15,0,2.18-.74,2.54-1.83"/>
      <path class="cls-1" d="m4.36,3.06c1.23,0,2.32-.78,2.72-1.95"/>
      <line class="cls-1" x1="19.55" y1="3.06" x2="19.55" y2="2.93"/>
      <path class="cls-1" d="m19.53,2.92s-.02-.04-.05-.04"/>
      <path class="cls-1" d="m13.77,2.88c.6-.32.91-1,.77-1.66-.15-.66-.72-1.15-1.4-1.19-.68-.04-1.3.38-1.52,1.03"/>
      <path class="cls-1" d="m13.06,2.87c.68,0,1.25-.51,1.33-1.19.07-.68-.37-1.3-1.04-1.45-.67-.15-1.33.23-1.55.88"/>
      <path class="cls-1" d="m9.07,2.87c1.15,0,2.18-.74,2.54-1.83"/>
      <path class="cls-1" d="m9.07,3.06c.48,0,.96-.12,1.38-.35"/>
      <path class="cls-1" d="m10.63,2.59c.54-.35.95-.88,1.16-1.49"/>
      <path class="cls-1" d="m18.48,2.88c.6-.32.91-1,.77-1.66-.15-.66-.72-1.15-1.4-1.19-.68-.04-1.3.38-1.52,1.03"/>
      <path class="cls-1" d="m17.77,2.87c.68,0,1.25-.51,1.33-1.19.07-.68-.37-1.3-1.04-1.45s-1.33.23-1.55.88"/>
      <path class="cls-1" d="m13.78,2.87c1.15,0,2.18-.74,2.54-1.83"/>
      <line class="cls-1" x1="8.36" y1="2.87" x2="8.36" y2="3.03"/>
      <line class="cls-1" x1="9.08" y1="3.06" x2="8.42" y2="3.06"/>
      <path class="cls-1" d="m8.36,3.01s.02.04.04.04"/>
      <line class="cls-1" x1="13.07" y1="2.87" x2="13.07" y2="3.03"/>
      <path class="cls-1" d="m13.07,3.01s.02.04.05.04"/>
      <line class="cls-1" x1="13.13" y1="3.06" x2="13.79" y2="3.06"/>
      <path class="cls-1" d="m13.78,3.06c1.23,0,2.32-.78,2.72-1.95"/>
      <line class="cls-1" x1="17.78" y1="2.87" x2="17.78" y2="3.03"/>
      <path class="cls-1" d="m17.78,3.01s.02.04.05.04"/>
      <line class="cls-1" x1="18.5" y1="2.87" x2="19.5" y2="2.87"/>
    </g>
  </g>
</svg>