<?xml version="1.0" encoding="UTF-8" standalone="no"?>
<svg
   id="Capa_2"
   data-name="Capa 2"
   viewBox="0 0 20.540001 1.8200001"
   version="1.1"
   sodipodi:docname="matrix13_i.svg"
   width="20.540001"
   height="1.8200001"
   inkscape:version="1.3.2 (091e20e, 2023-11-25, custom)"
   xmlns:inkscape="http://www.inkscape.org/namespaces/inkscape"
   xmlns:sodipodi="http://sodipodi.sourceforge.net/DTD/sodipodi-0.dtd"
   xmlns="http://www.w3.org/2000/svg"
   xmlns:svg="http://www.w3.org/2000/svg">
  <sodipodi:namedview
     id="namedview43"
     pagecolor="#ffffff"
     bordercolor="#000000"
     borderopacity="0.25"
     inkscape:showpageshadow="2"
     inkscape:pageopacity="0.0"
     inkscape:pagecheckerboard="0"
     inkscape:deskcolor="#d1d1d1"
     showgrid="false"
     inkscape:zoom="52.877419"
     inkscape:cx="19.375"
     inkscape:cy="0.89830405"
     inkscape:window-width="2560"
     inkscape:window-height="1369"
     inkscape:window-x="-8"
     inkscape:window-y="-8"
     inkscape:window-maximized="1"
     inkscape:current-layer="Capa_2" />
  <defs
     id="defs1">
    <style
       id="style1">
      .cls-1 {
        fill: none;
        stroke: #000;
        stroke-linecap: round;
        stroke-linejoin: round;
        stroke-width: .05px;
      }
    </style>
  </defs>
  <g
     id="Capa_1-2"
     data-name="Capa 1"
     transform="translate(-0.005,0.005)">
    <g
       id="g43">
      <polyline
         class="cls-1"
         points="19.55 1.01 19.55 1.16 19.55 1.19 19.58 1.19 19.58 1.22 19.61 1.22 20.46 1.22 20.49 1.22 20.52 1.25 20.52 1.46 20.52 1.49 20.49 1.49 20.49 1.52 20.49 1.55 20.46 1.55 20.46 1.58 20.43 1.58 20.39 1.58"
         id="polyline1" />
      <polyline
         class="cls-1"
         points="19.38 1.19 19.38 1.34 19.41 1.34 19.41 1.37 19.44 1.37 20.28 1.37 20.28 1.46 20.28 1.49 20.28 1.52 20.3 1.55 20.33 1.58 20.36 1.58 20.39 1.58"
         id="polyline2" />
      <polyline
         class="cls-1"
         points="10.77 .23 10.61 .23 10.61 .26 10.58 .26 10.58 .29 10.58 1.43 10.58 1.46 10.61 1.49 10.8 1.49 10.83 1.49 10.86 1.52 10.86 1.73 10.86 1.76 10.83 1.76 10.8 1.79 10.11 1.79 10.11 1.76 10.08 1.76 10.08 1.73 10.08 1.52 10.08 1.49 10.11 1.49 10.35 1.49 10.38 1.49 10.38 1.46 10.41 1.46 10.41 1.43 10.41 .29 10.41 .26 10.38 .26 10.38 .23 10.35 .23 10.2 .23"
         id="polyline3" />
      <polyline
         class="cls-1"
         points="2.52 1.25 2.52 1.73 2.52 1.76 2.49 1.76 2.46 1.79 2.33 1.79 .08 1.79 .05 1.79 .05 1.76 .03 1.76 .03 1.73 .03 1.64 .03 1.61 .05 1.61 .08 1.61 .24 1.61 .57 1.61 .6 1.61 .63 1.61 2.28 1.61 2.3 1.61 2.3 1.58 2.33 1.58 2.33 1.55 2.33 1.25 2.33 1.22 2.3 1.22 2.3 1.19 2.28 1.19 1.47 1.19 1.44 1.19 1.41 1.16 1.41 1.13 1.41 1.07 1.41 1.04 1.44 1.01 1.47 1.01"
         id="polyline4" />
      <polyline
         class="cls-1"
         points="2.16 1.01 2.46 1.01 2.49 1.01 2.49 1.04 2.52 1.04 2.52 1.07 2.52 1.49"
         id="polyline5" />
      <path
         class="cls-1"
         d="M 1.44,0.97 C 2.03,0.94 2.55,0.57 2.78,0.02"
         id="path5" />
      <path
         class="cls-1"
         d="M 2.13,1.01 C 2.47,0.84 2.74,0.57 2.91,0.24"
         id="path6" />
      <path
         class="cls-1"
         d="M 3.59,0.05 C 3.83,0.63 4.39,1 5.02,1"
         id="path7" />
      <path
         class="cls-1"
         d="M 3.48,0.23 C 3.77,0.81 4.37,1.18 5.02,1.18"
         id="path8" />
      <path
         class="cls-1"
         d="m 8.65,1.01 c 0.62,0 1.19,-0.38 1.43,-0.95"
         id="path9" />
      <path
         class="cls-1"
         d="M 8.65,1.19 C 9.3,1.19 9.9,0.82 10.19,0.24"
         id="path10" />
      <path
         class="cls-1"
         d="m 18.14,0.05 c 0.24,0.57 0.78,0.94 1.4,0.95"
         id="path11" />
      <path
         class="cls-1"
         d="m 18.03,0.23 c 0.26,0.52 0.76,0.87 1.33,0.94"
         id="path12" />
      <line
         class="cls-1"
         x1="3.5999999"
         y1="0.050000001"
         x2="2.8199999"
         y2="0.050000001"
         id="line12" />
      <line
         class="cls-1"
         x1="3.48"
         y1="0.23"
         x2="2.9100001"
         y2="0.23"
         id="line13" />
      <line
         class="cls-1"
         x1="10.08"
         y1="0.050000001"
         x2="10.89"
         y2="0.050000001"
         id="line14" />
      <path
         class="cls-1"
         d="M 10.85,0.05 C 11.09,0.63 11.65,1 12.28,1"
         id="path14" />
      <path
         class="cls-1"
         d="m 10.74,0.23 c 0.29,0.58 0.89,0.95 1.54,0.95"
         id="path15" />
      <path
         class="cls-1"
         d="m 15.94,1.01 c 0.62,0 1.19,-0.38 1.43,-0.95"
         id="path16" />
      <path
         class="cls-1"
         d="m 15.94,1.19 c 0.65,0 1.25,-0.37 1.54,-0.95"
         id="path17" />
      <line
         class="cls-1"
         x1="17.360001"
         y1="0.050000001"
         x2="18.18"
         y2="0.050000001"
         id="line17" />
      <line
         class="cls-1"
         x1="17.49"
         y1="0.23"
         x2="18.049999"
         y2="0.23"
         id="line18" />
      <line
         class="cls-1"
         x1="5.04"
         y1="1.01"
         x2="8.6700001"
         y2="1.01"
         id="line19" />
      <line
         class="cls-1"
         x1="5.04"
         y1="1.1900001"
         x2="8.6700001"
         y2="1.1900001"
         id="line20" />
      <line
         class="cls-1"
         x1="12.3"
         y1="1.01"
         x2="15.96"
         y2="1.01"
         id="line21" />
      <line
         class="cls-1"
         x1="12.3"
         y1="1.1900001"
         x2="15.96"
         y2="1.1900001"
         id="line22" />
    </g>
  </g>
</svg>
