<?xml version="1.0" encoding="UTF-8"?>
<svg id="Capa_2" data-name="Capa 2" xmlns="http://www.w3.org/2000/svg" viewBox="0 0 38.75 1.64">
  <defs>
    <style>
      .cls-1 {
        fill: none;
        stroke: #000;
        stroke-linecap: round;
        stroke-linejoin: round;
        stroke-width: .05px;
      }
    </style>
  </defs>
  <g id="Capa_1-2" data-name="Capa 1">
    <g>
      <polyline class="cls-1" points="19.37 1.14 19.37 1.08 19.37 1.05 19.34 1.05 19.34 1.02 10.7 1.02 10.67 1.02 10.67 1.05 10.64 1.05 10.64 1.08 10.64 1.29 10.64 1.32 10.67 1.32 10.7 1.32 10.85 1.32 10.88 1.32 10.88 1.35 10.91 1.35 10.91 1.38 10.91 1.59 10.91 1.61 10.88 1.61 10.85 1.61 10.19 1.61 10.16 1.61 10.13 1.61 10.13 1.59 10.13 1.38 10.13 1.35 10.16 1.35 10.16 1.32 10.19 1.32 10.41 1.32 10.44 1.32 10.47 1.32 10.47 1.29 10.47 1.08 10.47 1.05 10.44 1.05 10.44 1.02 10.41 1.02 5.81 1.02"/>
      <polyline class="cls-1" points="4.82 .86 4.82 .99 4.82 1.02 4.79 1.02 4.76 1.02 3.8 1.02"/>
      <polyline class="cls-1" points="2.78 .86 2.78 .99 2.78 1.02 2.75 1.02 2.54 1.02 2.54 1.05 2.51 1.05 2.51 1.08 2.48 1.08 2.48 1.59 2.48 1.61 2.45 1.61 2.33 1.61 .05 1.61 .03 1.61 .03 1.59 .03 1.5 .03 1.47 .05 1.44 .23 1.44 .56 1.44 .59 1.47 .59 1.44 2.28 1.44 2.3 1.44 2.3 1.41 2.33 1.41 2.33 1.08 2.3 1.05 2.28 1.05 2.28 1.02 1.44 1.02 1.41 1.02 1.41 .99 1.41 .89 1.41 .86 1.44 .86 2.39 .86"/>
      <line class="cls-1" x1="3.8" y1=".86" x2="4.44" y2=".86"/>
      <polyline class="cls-1" points="5.81 .86 6.47 .86 19.5 .86 19.53 .86 19.55 .86 19.55 .89 19.55 1.02 19.55 1.05 19.58 1.05 19.61 1.05 20.45 1.05 20.48 1.08 20.48 1.11 20.48 1.32 20.48 1.35 20.48 1.38 20.45 1.38 20.45 1.41 20.42 1.41 20.39 1.41 20.36 1.44"/>
      <polyline class="cls-1" points="19.37 1.14 19.37 1.17 19.37 1.2 19.41 1.2 19.41 1.23 19.44 1.23 20.25 1.23 20.25 1.32 20.28 1.32 20.28 1.35 20.28 1.38 20.3 1.41 20.33 1.41 20.36 1.41 20.36 1.44"/>
      <path class="cls-1" d="m3.26.43c-.04-.21-.2-.37-.4-.4-.21-.04-.41.06-.51.24-.1.18-.08.41.05.57"/>
      <path class="cls-1" d="m3.08.46c-.03-.16-.18-.28-.35-.26-.17.02-.29.16-.28.33,0,.17.15.3.31.3"/>
      <path class="cls-1" d="m3.3.43c.04.24.25.41.49.41"/>
      <path class="cls-1" d="m3.13.46c.06.32.34.56.66.56"/>
      <path class="cls-1" d="m5.3.43c-.04-.21-.2-.37-.4-.4-.21-.04-.41.06-.51.24-.1.18-.08.41.05.57"/>
      <path class="cls-1" d="m5.12.46c-.03-.16-.18-.28-.35-.26-.17.02-.29.16-.28.33,0,.17.15.3.31.3"/>
      <path class="cls-1" d="m5.31.43c.04.24.25.41.49.41"/>
      <path class="cls-1" d="m5.14.46c.06.32.34.56.66.56"/>
      <polyline class="cls-1" points="37.58 1.14 37.58 1.08 37.58 1.05 37.55 1.05 37.55 1.02 28.91 1.02 28.88 1.05 28.85 1.05 28.85 1.08 28.85 1.29 28.88 1.29 28.88 1.32 28.91 1.32 29.09 1.32 29.12 1.35 29.12 1.38 29.12 1.59 29.12 1.61 29.09 1.61 28.41 1.61 28.37 1.61 28.37 1.59 28.34 1.59 28.34 1.38 28.34 1.35 28.37 1.35 28.37 1.32 28.41 1.32 28.64 1.32 28.67 1.32 28.67 1.29 28.67 1.08 28.67 1.05 28.64 1.05 28.64 1.02 24.05 1.02"/>
      <polyline class="cls-1" points="23.03 .86 23.03 .99 23.03 1.02 23 1.02 22.01 1.02"/>
      <polyline class="cls-1" points="21.03 .86 21.03 .99 21 .99 21 1.02 20.97 1.02 20.75 1.02 20.75 1.05 20.72 1.05 20.72 1.08 20.72 1.59 20.69 1.61 20.66 1.61 20.54 1.61 18.29 1.61 18.26 1.61 18.23 1.61 18.23 1.59 18.23 1.5 18.23 1.47 18.26 1.47 18.26 1.44 18.29 1.44 18.44 1.44 18.78 1.44 18.8 1.47 18.83 1.44 20.48 1.44 20.51 1.44 20.54 1.41 20.54 1.08 20.54 1.05 20.51 1.05 20.51 1.02 20.48 1.02 19.67 1.02 19.64 1.02 19.61 1.02 19.61 .99 19.61 .89 19.61 .86 19.64 .86 19.67 .86 20.63 .86"/>
      <line class="cls-1" x1="22.01" y1=".86" x2="22.64" y2=".86"/>
      <polyline class="cls-1" points="24.05 .86 24.69 .86 37.73 .86 37.76 .86 37.76 .89 37.76 1.02 37.79 1.02 37.79 1.05 37.82 1.05 38.66 1.05 38.69 1.05 38.69 1.08 38.72 1.08 38.72 1.11 38.72 1.32 38.69 1.35 38.69 1.38 38.66 1.41 38.63 1.41 38.6 1.41 38.6 1.44"/>
      <polyline class="cls-1" points="37.58 1.14 37.58 1.17 37.58 1.2 37.61 1.2 37.61 1.23 37.64 1.23 38.48 1.23 38.48 1.32 38.48 1.35 38.48 1.38 38.51 1.38 38.51 1.41 38.54 1.41 38.57 1.41 38.6 1.44"/>
      <path class="cls-1" d="m21.5.43c-.04-.21-.2-.37-.4-.4-.21-.04-.41.06-.51.24-.1.18-.08.41.05.57"/>
      <path class="cls-1" d="m21.32.46c-.03-.16-.18-.28-.35-.26-.17.02-.29.16-.28.33,0,.17.15.3.31.3"/>
      <path class="cls-1" d="m21.51.43c.04.24.25.41.49.41"/>
      <path class="cls-1" d="m21.34.46c.06.32.34.56.66.56"/>
      <path class="cls-1" d="m23.51.43c-.04-.21-.2-.37-.4-.4-.21-.04-.41.06-.51.24-.1.18-.08.41.05.57"/>
      <path class="cls-1" d="m23.33.46c-.03-.16-.18-.28-.35-.26-.17.02-.29.16-.28.33,0,.17.15.3.31.3"/>
      <path class="cls-1" d="m23.55.43c.04.24.25.41.49.41"/>
      <path class="cls-1" d="m23.38.46c.06.32.34.56.66.56"/>
    </g>
  </g>
</svg>