<?xml version="1.0" encoding="UTF-8"?>
<svg id="Capa_2" data-name="Capa 2" xmlns="http://www.w3.org/2000/svg" viewBox="0 0 20.51 3.68">
  <defs>
    <style>
      .cls-1 {
        fill: none;
        stroke: #000;
        stroke-miterlimit: 10;
        stroke-width: .05px;
      }
    </style>
  </defs>
  <g id="Capa_1-2" data-name="Capa 1">
    <g>
      <polyline class="cls-1" points="17.78 2.91 17.78 3.03 17.78 3.06 17.75 3.06 17.75 3.08 10.7 3.08 10.67 3.08 10.64 3.08 10.64 3.11 10.64 3.32 10.64 3.35 10.67 3.35 10.7 3.35 10.85 3.35 10.88 3.35 10.88 3.38 10.91 3.38 10.91 3.41 10.91 3.63 10.91 3.66 10.88 3.66 10.85 3.66 10.19 3.66 10.16 3.66 10.13 3.66 10.13 3.63 10.13 3.41 10.13 3.38 10.16 3.38 10.16 3.35 10.19 3.35 10.41 3.35 10.44 3.35 10.47 3.35 10.47 3.32 10.47 3.11 10.47 3.08 10.44 3.08 10.41 3.08 8.28 3.08"/>
      <polyline class="cls-1" points="4.28 2.91 4.28 3.03 4.28 3.06 4.25 3.06 4.25 3.08 4.22 3.08 3.03 3.08 2.54 3.08 2.51 3.08 2.51 3.11 2.48 3.11 2.48 3.63 2.48 3.66 2.45 3.66 2.33 3.66 .05 3.66 .03 3.66 .03 3.63 .03 3.54 .03 3.5 .05 3.5 .05 3.47 .23 3.47 .56 3.47 .59 3.5 .59 3.47 2.28 3.47 2.3 3.47 2.3 3.44 2.33 3.44 2.33 3.11 2.3 3.11 2.3 3.08 2.28 3.08 1.44 3.08 1.44 3.06 1.41 3.06 1.41 3.03 1.41 2.94 1.41 2.91 1.44 2.91 2.57 2.91"/>
      <line class="cls-1" x1="8.28" y1="2.91" x2="17.06" y2="2.91"/>
      <path class="cls-1" d="m1.39,1.78c.51.69,1.31,1.09,2.16,1.09"/>
      <path class="cls-1" d="m1.39,2.07c.32.36.72.64,1.17.81"/>
      <path class="cls-1" d="m3.55,3.06h0"/>
      <path class="cls-1" d="m5.71,1.06C5.49.41,4.87,0,4.19.03s-1.25.52-1.4,1.19c-.15.66.17,1.35.77,1.66"/>
      <path class="cls-1" d="m5.54,1.11c-.22-.65-.89-1.02-1.55-.88-.67.15-1.11.77-1.04,1.45s.65,1.19,1.33,1.19"/>
      <path class="cls-1" d="m5.72,1.05c.37,1.09,1.39,1.83,2.54,1.83"/>
      <path class="cls-1" d="m5.54,1.1c.39,1.17,1.49,1.95,2.72,1.95"/>
      <line class="cls-1" x1="1.41" y1="2.1" x2="1.41" y2="1.79"/>
      <polyline class="cls-1" points="20.36 3.47 20.39 3.47 20.42 3.47 20.42 3.44 20.45 3.44 20.45 3.41 20.48 3.41 20.48 3.38 20.48 3.35 20.48 3.14 20.48 3.11 20.45 3.11 19.61 3.11 19.58 3.08 19.55 3.08 19.55 3.06"/>
      <polyline class="cls-1" points="19.37 3.11 19.37 3.2 19.37 3.23 19.41 3.26 19.44 3.26 20.25 3.26 20.25 3.35 20.28 3.38 20.28 3.41 20.3 3.44 20.33 3.47 20.36 3.47"/>
      <path class="cls-1" d="m19.21,1.06c-.22-.64-.84-1.07-1.52-1.03s-1.25.52-1.4,1.19c-.15.66.17,1.35.77,1.66"/>
      <path class="cls-1" d="m19.04,1.11c-.22-.65-.89-1.02-1.55-.88-.67.15-1.11.77-1.04,1.45s.65,1.19,1.33,1.19"/>
      <path class="cls-1" d="m19.22,1.05c.08.23.18.44.31.64"/>
      <path class="cls-1" d="m19.53,1.72s0-.02,0-.03"/>
      <path class="cls-1" d="m19.04,1.1c.08.22.18.44.31.63"/>
      <path class="cls-1" d="m19.37,1.78s0-.02,0-.02"/>
      <line class="cls-1" x1="19.55" y1="3.06" x2="19.55" y2="1.73"/>
      <line class="cls-1" x1="19.37" y1="3.11" x2="19.37" y2="1.79"/>
    </g>
  </g>
</svg>