<?xml version="1.0" encoding="UTF-8"?>
<svg id="Capa_2" data-name="Capa 2" xmlns="http://www.w3.org/2000/svg" viewBox="0 0 21.29 3.89">
  <defs>
    <style>
      .cls-1 {
        fill: none;
        stroke: #000;
        stroke-miterlimit: 10;
        stroke-width: .05px;
      }
    </style>
  </defs>
  <g id="Capa_1-2" data-name="Capa 1">
    <g>
      <line class="cls-1" x1="17.04" y1="3.08" x2="17.54" y2="3.08"/>
      <polyline class="cls-1" points="19.79 3.29 20.45 3.29 20.48 3.29 20.48 3.32 20.48 3.53 20.48 3.57 20.48 3.6 20.45 3.63 20.42 3.66 20.39 3.66 20.36 3.66"/>
      <polyline class="cls-1" points="19.79 3.44 20.25 3.44 20.25 3.53 20.25 3.57 20.28 3.57 20.28 3.6 20.28 3.63 20.3 3.63 20.3 3.66 20.33 3.66 20.36 3.66"/>
      <polyline class="cls-1" points="5.01 .26 3.42 3 3.39 3.08 3.36 3.08 3.36 3.11 3.36 3.2 3.36 3.23 3.36 3.26 3.32 3.26 2.54 3.26 2.51 3.26 2.51 3.29 2.48 3.29 2.48 3.32 2.48 3.8 2.48 3.83 2.45 3.83 2.45 3.86 2.3 3.86 .05 3.86 .03 3.83 .03 3.8 .03 3.72 .03 3.69 .05 3.69 .23 3.69 .57 3.69 .6 3.69 2.28 3.69 2.3 3.66 2.3 3.63 2.3 3.32 2.3 3.29 2.3 3.26 2.28 3.26 1.44 3.26 1.41 3.26 1.41 3.23 1.41 3.2 1.41 3.14 1.41 3.11 1.41 3.08 1.44 3.08 3 3.08 3.14 3.08 3.17 3.08 3.17 3.05 4.92 .08"/>
      <polyline class="cls-1" points="6.72 .11 5.04 3.03 5.04 3.05 5.04 3.08 5.07 3.08 5.1 3.08 5.28 3.08"/>
      <polyline class="cls-1" points="5.28 3.26 4.79 3.26 4.76 3.26 4.76 3.23 4.76 3.2 4.76 3.17"/>
      <path class="cls-1" d="m4.93.03s-.03,0-.04.02"/>
      <path class="cls-1" d="m6.71.09s0-.03,0-.05c0-.01-.02-.02-.04-.02"/>
      <line class="cls-1" x1="4.76" y1="3.14" x2="6.42" y2=".29"/>
      <path class="cls-1" d="m6.38.27s0-.03,0-.05c0-.01-.02-.02-.04-.02"/>
      <line class="cls-1" x1="4.95" y1=".05" x2="6.69" y2=".05"/>
      <line class="cls-1" x1="5.07" y1=".23" x2="6.36" y2=".23"/>
      <path class="cls-1" d="m5.05.2s-.03,0-.04.02"/>
      <path class="cls-1" d="m4.74,3.14s0,.01,0,.02"/>
      <polyline class="cls-1" points="19.55 .26 17.91 3.08 17.91 3.11 17.91 3.2 17.91 3.23 17.91 3.26 17.88 3.26 17.04 3.26"/>
      <polyline class="cls-1" points="17.54 3.08 17.7 3.08 17.73 3.08 17.73 3.05 19.47 .08"/>
      <polyline class="cls-1" points="19.5 .05 21.2 .05 21.23 .05 21.26 .08 21.26 .11 19.64 2.94 19.47 3.2 19.47 3.23 19.47 3.26 19.5 3.29 19.53 3.29 19.79 3.29"/>
      <polyline class="cls-1" points="19.79 3.44 19.23 3.44 19.2 3.44 19.2 3.41 19.2 3.35"/>
      <path class="cls-1" d="m19.48.03s-.03,0-.04.02"/>
      <polyline class="cls-1" points="19.2 3.32 19.44 2.94 20.94 .29"/>
      <path class="cls-1" d="m20.93.27s0-.03,0-.05c0-.01-.02-.02-.04-.02"/>
      <line class="cls-1" x1="19.58" y1=".23" x2="20.91" y2=".23"/>
      <path class="cls-1" d="m19.57.2s-.03,0-.04.02"/>
      <path class="cls-1" d="m19.17,3.32s0,.01,0,.02"/>
      <polyline class="cls-1" points="12.26 .26 10.64 3.08 10.64 3.5 10.64 3.53 10.67 3.57 10.86 3.57 10.89 3.57 10.89 3.6 10.92 3.6 10.92 3.8 10.92 3.83 10.89 3.83 10.89 3.86 10.86 3.86 10.2 3.86 10.17 3.86 10.17 3.83 10.14 3.83 10.14 3.8 10.14 3.6 10.14 3.57 10.17 3.57 10.2 3.57 10.41 3.57 10.44 3.57 10.44 3.53 10.47 3.53 10.47 3.5 10.47 3.32 10.47 3.29 10.44 3.26 10.41 3.26 9.03 3.26"/>
      <polyline class="cls-1" points="9.03 3.08 10.41 3.08 10.44 3.08 10.44 3.05 12.17 .08"/>
      <polyline class="cls-1" points="13.98 .11 12.29 3.03 12.29 3.05 12.32 3.08 12.35 3.08 13.82 3.08"/>
      <polyline class="cls-1" points="13.82 3.26 12.05 3.26 12.03 3.26 12.03 3.23 12.03 3.2 12.03 3.17 12.03 3.14 13.67 .29"/>
      <path class="cls-1" d="m12.19.03s-.03,0-.04.02"/>
      <path class="cls-1" d="m13.97.09s0-.03,0-.05c0-.01-.02-.02-.04-.02"/>
      <path class="cls-1" d="m13.64.27s0-.03,0-.05c0-.01-.02-.02-.04-.02"/>
      <line class="cls-1" x1="12.2" y1=".05" x2="13.95" y2=".05"/>
      <line class="cls-1" x1="12.32" y1=".23" x2="13.61" y2=".23"/>
      <path class="cls-1" d="m12.31.2s-.03,0-.04.02"/>
      <line class="cls-1" x1="8.91" y1="3.08" x2="9.03" y2="3.08"/>
      <polyline class="cls-1" points="9.11 1.73 7.82 1.73 7.79 1.73 7.79 1.76 7.76 1.76 7.04 3 7.01 3.08 7.01 3.11 7.01 3.2 7.01 3.23 6.98 3.23 6.98 3.26 6.95 3.26 5.28 3.26"/>
      <polyline class="cls-1" points="5.28 3.08 6.63 3.08 6.78 3.08 6.8 3.08 6.8 3.05 7.67 1.58 7.7 1.58 7.7 1.55 9.45 1.55 9.45 1.58 9.48 1.58 9.48 1.61 9.48 1.64 8.67 3.03 8.67 3.05 8.7 3.08 8.73 3.08 8.91 3.08"/>
      <polyline class="cls-1" points="8.91 3.26 8.45 3.26 8.42 3.26 8.39 3.26 8.39 3.23 8.39 3.2 8.39 3.17"/>
      <line class="cls-1" x1="8.39" y1="3.14" x2="9.17" y2="1.82"/>
      <path class="cls-1" d="m9.14,1.8s0-.03,0-.05c0-.01-.02-.02-.04-.02"/>
      <path class="cls-1" d="m8.4,3.14s0,.01,0,.02"/>
      <line class="cls-1" x1="9.03" y1="3.26" x2="8.91" y2="3.26"/>
      <line class="cls-1" x1="16.2" y1="3.08" x2="17.04" y2="3.08"/>
      <polyline class="cls-1" points="16.41 1.73 15.08 1.73 15.05 1.73 15.05 1.76 14.33 3 14.28 3.08 14.28 3.11 14.28 3.2 14.28 3.23 14.25 3.26 14.22 3.26 13.82 3.26"/>
      <polyline class="cls-1" points="13.82 3.08 13.89 3.08 14.04 3.08 14.07 3.08 14.1 3.05 14.94 1.58 14.97 1.58 14.97 1.55 15 1.55 16.7 1.55 16.73 1.58 16.73 1.61 16.76 1.61 16.73 1.64 15.95 3.03 15.95 3.05 15.95 3.08 15.98 3.08 16.2 3.08"/>
      <polyline class="cls-1" points="16.2 3.26 15.72 3.26 15.69 3.26 15.69 3.23 15.66 3.23 15.66 3.2 15.66 3.17"/>
      <line class="cls-1" x1="15.69" y1="3.14" x2="16.44" y2="1.82"/>
      <path class="cls-1" d="m16.43,1.8s0-.03,0-.05c0-.01-.02-.02-.04-.02"/>
      <path class="cls-1" d="m15.66,3.14s0,.01,0,.02"/>
      <line class="cls-1" x1="17.04" y1="3.26" x2="16.2" y2="3.26"/>
    </g>
  </g>
</svg>