<?xml version="1.0" encoding="UTF-8"?>
<svg id="Capa_2" data-name="Capa 2" xmlns="http://www.w3.org/2000/svg" viewBox="0 0 38.75 3.86">
  <defs>
    <style>
      .cls-1 {
        fill: none;
        stroke: #000;
        stroke-linecap: round;
        stroke-linejoin: round;
        stroke-width: .05px;
      }
    </style>
  </defs>
  <g id="Capa_1-2" data-name="Capa 1">
    <g>
      <polyline class="cls-1" points="12.26 .23 10.64 3.05 10.64 3.08 10.64 3.51 10.64 3.54 10.67 3.54 10.86 3.54 10.89 3.57 10.92 3.6 10.92 3.8 10.89 3.83 10.86 3.83 10.2 3.83 10.17 3.83 10.14 3.83 10.14 3.8 10.14 3.6 10.14 3.57 10.17 3.57 10.17 3.54 10.2 3.54 10.41 3.54 10.44 3.54 10.47 3.54 10.47 3.51 10.47 3.3 10.47 3.26 10.44 3.26 10.41 3.26 3 3.26 2.54 3.26 2.51 3.26 2.51 3.3 2.48 3.3 2.48 3.8 2.48 3.83 2.45 3.83 2.3 3.83 .05 3.83 .03 3.83 .03 3.8 .03 3.72 .03 3.69 .05 3.69 .05 3.66 .23 3.66 .57 3.66 .57 3.69 .6 3.66 2.28 3.66 2.3 3.66 2.3 3.63 2.3 3.3 2.3 3.26 2.28 3.26 1.44 3.26 1.41 3.26 1.41 3.23 1.41 3.2 1.41 3.11 1.41 3.08 1.44 3.08 3 3.08 10.41 3.08 10.44 3.08 10.44 3.05 12.17 .05"/>
      <polyline class="cls-1" points="13.98 .11 12.29 3 12.29 3.03 12.29 3.05 12.32 3.05 12.32 3.08 12.35 3.08 19.5 3.08 19.53 3.08 19.55 3.08 19.55 3.11 19.55 3.23 19.55 3.26 19.58 3.26 19.58 3.3 20.45 3.3 20.48 3.3 20.48 3.33 20.48 3.54 20.48 3.57 20.48 3.6 20.45 3.6 20.45 3.63 20.42 3.63 20.42 3.66 20.39 3.66 20.36 3.66"/>
      <polyline class="cls-1" points="13.67 .3 12.03 3.14 12.03 3.2 12.03 3.23 12.05 3.23 12.05 3.26 19.32 3.26 19.35 3.26 19.38 3.26 19.38 3.3 19.38 3.42 19.38 3.45 19.41 3.45 19.44 3.45 20.25 3.45 20.25 3.54 20.25 3.57 20.28 3.57 20.28 3.6 20.3 3.63 20.33 3.66 20.36 3.66"/>
      <path class="cls-1" d="m12.19.03s-.03,0-.04.02"/>
      <path class="cls-1" d="m13.97.09s0-.03,0-.05c0-.01-.02-.02-.04-.02"/>
      <path class="cls-1" d="m13.64.27s0-.03,0-.04c0-.01-.02-.02-.04-.02"/>
      <line class="cls-1" x1="12.2" y1=".05" x2="13.95" y2=".05"/>
      <line class="cls-1" x1="12.32" y1=".23" x2="13.61" y2=".23"/>
      <path class="cls-1" d="m12.31.2s-.03,0-.04.02"/>
      <polyline class="cls-1" points="30.51 .23 28.85 3.05 28.85 3.08 28.85 3.51 28.85 3.54 28.89 3.54 28.92 3.54 29.07 3.54 29.1 3.54 29.1 3.57 29.13 3.57 29.13 3.6 29.13 3.8 29.13 3.83 29.1 3.83 29.07 3.83 28.41 3.83 28.38 3.83 28.35 3.83 28.35 3.8 28.35 3.6 28.35 3.57 28.38 3.57 28.41 3.54 28.64 3.54 28.67 3.54 28.67 3.51 28.67 3.3 28.67 3.26 28.64 3.26 21.23 3.26 20.76 3.26 20.73 3.26 20.73 3.3 20.73 3.8 20.7 3.83 20.67 3.83 20.54 3.83 18.26 3.83 18.23 3.83 18.23 3.8 18.23 3.72 18.23 3.69 18.26 3.69 18.26 3.66 18.45 3.66 18.78 3.66 18.8 3.69 18.83 3.66 20.48 3.66 20.51 3.66 20.54 3.63 20.54 3.3 20.51 3.3 20.51 3.26 20.48 3.26 19.67 3.26 19.64 3.26 19.64 3.23 19.61 3.23 19.61 3.2 19.61 3.11 19.61 3.08 19.64 3.08 19.67 3.08 21.23 3.08 28.61 3.08 28.64 3.08 28.64 3.05 28.67 3.05 30.39 .05"/>
      <polyline class="cls-1" points="32.19 .11 30.54 3 30.54 3.03 30.51 3.03 30.54 3.05 30.54 3.08 30.57 3.08 37.73 3.08 37.76 3.08 37.76 3.11 37.76 3.23 37.76 3.26 37.79 3.26 37.79 3.3 37.82 3.3 38.67 3.3 38.7 3.3 38.7 3.33 38.73 3.33 38.73 3.54 38.7 3.57 38.7 3.6 38.67 3.63 38.64 3.66 38.6 3.66"/>
      <polyline class="cls-1" points="30.23 3.14 30.23 3.2 30.23 3.23 30.26 3.23 30.26 3.26 30.29 3.26 37.55 3.26 37.58 3.26 37.58 3.3 37.58 3.42 37.61 3.42 37.61 3.45 37.64 3.45 38.48 3.45 38.48 3.54 38.48 3.57 38.48 3.6 38.51 3.6 38.51 3.63 38.54 3.63 38.54 3.66 38.57 3.66 38.6 3.66"/>
      <path class="cls-1" d="m30.43.03s-.03,0-.04.02"/>
      <path class="cls-1" d="m32.18.09s0-.03,0-.05c0-.01-.02-.02-.04-.02"/>
      <line class="cls-1" x1="30.23" y1="3.14" x2="31.89" y2=".3"/>
      <path class="cls-1" d="m31.88.27s0-.03,0-.04c0-.01-.02-.02-.04-.02"/>
      <line class="cls-1" x1="30.45" y1=".05" x2="32.16" y2=".05"/>
      <line class="cls-1" x1="30.54" y1=".23" x2="31.85" y2=".23"/>
      <path class="cls-1" d="m30.52.2s-.03,0-.04.02"/>
      <path class="cls-1" d="m30.24,3.11s0,.01,0,.02"/>
    </g>
  </g>
</svg>