<?xml version="1.0" encoding="UTF-8"?>
<svg id="Capa_2" data-name="Capa 2" xmlns="http://www.w3.org/2000/svg" viewBox="0 0 43.24 3.87">
  <defs>
    <style>
      .cls-1 {
        fill: none;
        stroke: #000;
        stroke-linecap: round;
        stroke-linejoin: round;
        stroke-width: .1px;
      }
    </style>
  </defs>
  <g id="_0" data-name="0">
    <g>
      <g id="LINE">
        <line class="cls-1" x1="20.62" y1="2.17" x2="22.43" y2=".08"/>
      </g>
      <g id="LWPOLYLINE">
        <path class="cls-1" d="m22.87.99s-.1-.05-.14,0c-.02.02-.03.05-.03.08v2.04c0,.06.04.1.1.1h.36c.06,0,.1.04.1.1v.43c0,.06-.04.1-.1.1h-1.43c-.06,0-.1-.04-.1-.1v-.43c0-.06.04-.1.1-.1h.49c.06,0,.1-.04.1-.1V1.06c0-.06-.04-.1-.1-.1-.03,0-.06.01-.08.03l-1.24,1.42c-.09.1-.22.16-.36.16H5.38c-.06,0-.1.04-.1.1v1.04c0,.06-.04.1-.1.1H.15c-.06,0-.1-.04-.1-.1v-.18c0-.06.04-.1.1-.1h1.05l.05.03.05-.03h3.51c.06,0,.1-.04.1-.1v-.66c0-.06-.04-.1-.1-.1h-1.74c-.06,0-.1-.04-.1-.1v-.18c0-.06.04-.1.1-.1h.69s4.8,0,4.8,0h11.99s.06-.01.08-.03L22.43.08s0,0,0,0c.04-.04.11-.03.14,0l1.81,2.08s.05.03.08.03h16.65c.06,0,.1.04.1.1v.23c0,.06.04.1.1.1h1.78c.06,0,.1.04.1.1v.43c0,.14-.11.25-.25.25h0c-.14,0-.25-.11-.25-.25v-.18h-1.73c-.06,0-.1-.04-.1-.1v-.2c0-.06-.04-.1-.1-.1h-16.29c-.14,0-.27-.06-.36-.16l-1.24-1.42"/>
      </g>
    </g>
  </g>
</svg>