<?xml version="1.0" encoding="UTF-8"?>
<svg id="Capa_2" data-name="Capa 2" xmlns="http://www.w3.org/2000/svg" viewBox="0 0 38.75 1.79">
  <defs>
    <style>
      .cls-1 {
        fill: none;
        stroke: #000;
        stroke-linecap: round;
        stroke-linejoin: round;
        stroke-width: .05px;
      }
    </style>
  </defs>
  <g id="Capa_1-2" data-name="Capa 1">
    <g>
      <polyline class="cls-1" points="8.67 .98 19.53 .98 19.55 .98 19.55 1.01 19.55 1.04 19.55 1.13 19.55 1.16 19.58 1.16 19.58 1.19 19.61 1.19 20.46 1.19 20.49 1.19 20.49 1.22 20.52 1.22 20.52 1.44 20.52 1.47 20.49 1.5 20.49 1.53 20.46 1.53 20.46 1.55 20.43 1.55 20.39 1.55"/>
      <polyline class="cls-1" points="8.67 1.16 10.35 1.16 10.38 1.16 10.38 1.19 10.41 1.19 10.41 1.22 10.41 1.41 10.41 1.44 10.38 1.44 10.38 1.47 10.35 1.47 10.11 1.47 10.08 1.47 10.08 1.5 10.08 1.7 10.08 1.73 10.11 1.76 10.8 1.76 10.83 1.76 10.83 1.73 10.86 1.73 10.86 1.7 10.86 1.5 10.83 1.5 10.83 1.47 10.8 1.47 10.61 1.47 10.58 1.47 10.58 1.44 10.58 1.41 10.58 1.22 10.58 1.19 10.58 1.16 10.61 1.16 19.35 1.16 19.38 1.16 19.38 1.19 19.38 1.22 19.38 1.31 19.41 1.31 19.41 1.34 19.44 1.34 20.28 1.34 20.28 1.44 20.28 1.47 20.28 1.5 20.3 1.53 20.33 1.55 20.36 1.55 20.39 1.55"/>
      <polyline class="cls-1" points="2.52 1.22 2.52 1.7 2.52 1.73 2.49 1.73 2.49 1.76 2.46 1.76 2.33 1.76 .08 1.76 .05 1.76 .05 1.73 .03 1.73 .03 1.7 .03 1.61 .03 1.58 .05 1.58 .08 1.58 .24 1.58 .57 1.58 .6 1.58 .63 1.58 2.28 1.58 2.3 1.58 2.3 1.55 2.33 1.55 2.33 1.53 2.33 1.22 2.33 1.19 2.3 1.19 2.3 1.16 2.28 1.16 1.47 1.16 1.44 1.16 1.41 1.16 1.41 1.13 1.41 1.04 1.41 1.01 1.44 1.01 1.44 .98 1.47 .98"/>
      <polyline class="cls-1" points="2.16 .98 2.46 .98 2.49 .98 2.49 1.01 2.52 1.01 2.52 1.04 2.52 1.47"/>
      <path class="cls-1" d="m1.44.98c.59-.03,1.11-.4,1.34-.95"/>
      <path class="cls-1" d="m2.13.99c.34-.17.61-.44.78-.77"/>
      <path class="cls-1" d="m3.59.03c.24.58.8.95,1.43.95s1.19-.38,1.43-.95"/>
      <path class="cls-1" d="m3.48.21c.29.58.89.95,1.54.95s1.25-.37,1.54-.95"/>
      <path class="cls-1" d="m7.22.03c.24.58.8.95,1.43.95"/>
      <path class="cls-1" d="m7.11.21c.29.58.89.95,1.54.95"/>
      <line class="cls-1" x1="3.6" y1=".03" x2="2.82" y2=".03"/>
      <line class="cls-1" x1="3.48" y1=".2" x2="2.91" y2=".2"/>
      <line class="cls-1" x1="6.45" y1=".03" x2="7.26" y2=".03"/>
      <line class="cls-1" x1="6.57" y1=".2" x2="7.14" y2=".2"/>
      <path class="cls-1" d="m12.26.98s.01,0,.02,0"/>
      <path class="cls-1" d="m12.26,1.16s.01,0,.02,0"/>
      <polyline class="cls-1" points="26.88 .98 37.74 .98 37.77 .98 37.77 1.01 37.8 1.01 37.8 1.04 37.8 1.13 37.8 1.16 37.8 1.19 37.83 1.19 38.67 1.19 38.7 1.19 38.73 1.19 38.73 1.22 38.73 1.44 38.73 1.47 38.73 1.5 38.7 1.5 38.7 1.53 38.67 1.55 38.64 1.55 38.61 1.55"/>
      <polyline class="cls-1" points="26.88 1.16 28.55 1.16 28.58 1.16 28.61 1.16 28.61 1.19 28.61 1.22 28.61 1.41 28.61 1.44 28.58 1.47 28.55 1.47 28.35 1.47 28.32 1.47 28.29 1.5 28.29 1.7 28.29 1.73 28.32 1.73 28.32 1.76 28.35 1.76 29.01 1.76 29.04 1.76 29.04 1.73 29.07 1.73 29.07 1.7 29.07 1.5 29.07 1.47 29.04 1.47 29.01 1.47 28.86 1.47 28.83 1.47 28.8 1.44 28.8 1.41 28.8 1.22 28.8 1.19 28.83 1.16 28.86 1.16 37.55 1.16 37.58 1.16 37.58 1.19 37.61 1.19 37.61 1.22 37.61 1.31 37.61 1.34 37.64 1.34 38.49 1.34 38.49 1.44 38.49 1.47 38.49 1.5 38.52 1.5 38.52 1.53 38.55 1.55 38.58 1.55 38.61 1.55"/>
      <polyline class="cls-1" points="20.73 1.22 20.73 1.7 20.73 1.73 20.7 1.76 20.55 1.76 18.3 1.76 18.27 1.76 18.27 1.73 18.24 1.73 18.24 1.7 18.24 1.61 18.27 1.61 18.27 1.58 18.3 1.58 18.48 1.58 18.78 1.58 18.8 1.58 18.83 1.58 20.52 1.58 20.55 1.55 20.55 1.53 20.55 1.22 20.55 1.19 20.55 1.16 20.52 1.16 19.68 1.16 19.64 1.16 19.64 1.13 19.61 1.13 19.61 1.04 19.61 1.01 19.64 1.01 19.64 .98 19.68 .98"/>
      <polyline class="cls-1" points="20.36 .98 20.7 .98 20.73 1.01 20.73 1.04 20.73 1.47"/>
      <path class="cls-1" d="m19.65.98c.59-.03,1.11-.4,1.34-.95"/>
      <path class="cls-1" d="m20.34.99c.34-.17.61-.44.78-.77"/>
      <path class="cls-1" d="m21.8.03c.24.58.8.95,1.43.95s1.19-.38,1.43-.95"/>
      <path class="cls-1" d="m21.69.21c.29.58.89.95,1.54.95s1.25-.37,1.54-.95"/>
      <path class="cls-1" d="m25.43.03c.24.58.8.95,1.43.95"/>
      <path class="cls-1" d="m25.32.21c.29.58.89.95,1.54.95"/>
      <line class="cls-1" x1="21.8" y1=".03" x2="21.03" y2=".03"/>
      <line class="cls-1" x1="21.72" y1=".2" x2="21.14" y2=".2"/>
      <line class="cls-1" x1="24.66" y1=".03" x2="25.47" y2=".03"/>
      <line class="cls-1" x1="24.78" y1=".2" x2="25.35" y2=".2"/>
      <path class="cls-1" d="m30.5.98s.01,0,.02,0"/>
      <path class="cls-1" d="m30.5,1.16s.01,0,.02,0"/>
    </g>
  </g>
</svg>