<?xml version="1.0" encoding="UTF-8"?>
<svg id="Capa_2" data-name="Capa 2" xmlns="http://www.w3.org/2000/svg" viewBox="0 0 38.75 1.78">
  <defs>
    <style>
      .cls-1 {
        fill: none;
        stroke: #000;
        stroke-linecap: round;
        stroke-linejoin: round;
        stroke-width: .05px;
      }
    </style>
  </defs>
  <g id="Capa_1-2" data-name="Capa 1">
    <g>
      <polyline class="cls-1" points="5.04 1.01 19.53 1.01 19.55 1.01 19.55 1.04 19.55 1.16 19.55 1.19 19.58 1.19 19.58 1.22 19.61 1.22 20.46 1.22 20.49 1.22 20.52 1.25 20.52 1.46 20.52 1.49 20.49 1.49 20.49 1.52 20.49 1.55 20.46 1.55 20.43 1.58 20.39 1.58"/>
      <polyline class="cls-1" points="5.04 1.19 10.35 1.19 10.38 1.19 10.41 1.22 10.41 1.43 10.41 1.46 10.38 1.46 10.35 1.49 10.11 1.49 10.08 1.49 10.08 1.52 10.08 1.73 10.08 1.76 10.11 1.76 10.8 1.76 10.83 1.76 10.86 1.73 10.86 1.52 10.83 1.49 10.8 1.49 10.61 1.49 10.61 1.46 10.58 1.46 10.58 1.43 10.58 1.22 10.58 1.19 10.61 1.19 19.35 1.19 19.38 1.19 19.38 1.22 19.38 1.34 19.41 1.34 19.41 1.37 19.44 1.37 20.28 1.37 20.28 1.46 20.28 1.49 20.28 1.52 20.3 1.55 20.33 1.55 20.33 1.58 20.36 1.58 20.39 1.58"/>
      <polyline class="cls-1" points="2.52 1.22 2.52 1.73 2.52 1.76 2.49 1.76 2.46 1.76 2.33 1.76 .08 1.76 .05 1.76 .03 1.76 .03 1.73 .03 1.64 .03 1.61 .05 1.61 .08 1.61 .24 1.61 .57 1.61 .6 1.61 .63 1.61 2.28 1.61 2.3 1.58 2.33 1.58 2.33 1.55 2.33 1.22 2.3 1.19 2.28 1.19 1.47 1.19 1.44 1.19 1.44 1.16 1.41 1.16 1.41 1.13 1.41 1.04 1.41 1.01 1.44 1.01 1.47 1.01"/>
      <polyline class="cls-1" points="2.16 1.01 2.46 1.01 2.49 1.01 2.52 1.04 2.52 1.49"/>
      <path class="cls-1" d="m1.44.97c.59-.03,1.11-.4,1.34-.95"/>
      <path class="cls-1" d="m2.13,1.01c.34-.17.61-.44.78-.77"/>
      <path class="cls-1" d="m3.59.05c.24.58.8.95,1.43.95"/>
      <path class="cls-1" d="m3.48.23c.29.58.89.95,1.54.95"/>
      <path class="cls-1" d="m8.63,1.01s.01,0,.02,0"/>
      <path class="cls-1" d="m8.64,1.19s0,0,.01,0"/>
      <line class="cls-1" x1="3.6" y1=".05" x2="2.82" y2=".05"/>
      <line class="cls-1" x1="3.48" y1=".23" x2="2.91" y2=".23"/>
      <path class="cls-1" d="m12.26,1.01s.01,0,.02,0"/>
      <path class="cls-1" d="m12.26,1.19s.01,0,.02,0"/>
      <polyline class="cls-1" points="23.25 1.01 37.74 1.01 37.77 1.01 37.77 1.04 37.8 1.04 37.8 1.16 37.8 1.19 37.83 1.22 38.67 1.22 38.7 1.22 38.73 1.22 38.73 1.25 38.73 1.46 38.73 1.49 38.7 1.52 38.7 1.55 38.67 1.55 38.64 1.58 38.61 1.58"/>
      <polyline class="cls-1" points="23.25 1.19 28.55 1.19 28.58 1.19 28.61 1.19 28.61 1.22 28.61 1.43 28.61 1.46 28.58 1.46 28.58 1.49 28.55 1.49 28.35 1.49 28.32 1.49 28.29 1.49 28.29 1.52 28.29 1.73 28.29 1.76 28.32 1.76 28.35 1.76 29.01 1.76 29.04 1.76 29.07 1.76 29.07 1.73 29.07 1.52 29.07 1.49 29.04 1.49 29.01 1.49 28.86 1.49 28.83 1.49 28.83 1.46 28.8 1.46 28.8 1.43 28.8 1.22 28.8 1.19 28.83 1.19 28.86 1.19 37.55 1.19 37.58 1.19 37.61 1.22 37.61 1.34 37.61 1.37 37.64 1.37 38.49 1.37 38.49 1.46 38.49 1.49 38.52 1.52 38.52 1.55 38.55 1.55 38.58 1.58 38.61 1.58"/>
      <polyline class="cls-1" points="20.73 1.22 20.73 1.73 20.73 1.76 20.7 1.76 20.55 1.76 18.3 1.76 18.27 1.76 18.24 1.73 18.24 1.64 18.27 1.61 18.3 1.61 18.48 1.61 18.78 1.61 18.8 1.61 18.83 1.61 20.52 1.61 20.52 1.58 20.55 1.58 20.55 1.55 20.55 1.22 20.55 1.19 20.52 1.19 19.68 1.19 19.64 1.19 19.64 1.16 19.61 1.16 19.61 1.13 19.61 1.04 19.64 1.04 19.64 1.01 19.68 1.01"/>
      <polyline class="cls-1" points="20.36 1.01 20.7 1.01 20.73 1.01 20.73 1.04 20.73 1.49"/>
      <path class="cls-1" d="m19.65.97c.59-.03,1.11-.4,1.34-.95"/>
      <path class="cls-1" d="m20.34,1.01c.34-.17.61-.44.78-.77"/>
      <path class="cls-1" d="m21.8.05c.24.58.8.95,1.43.95"/>
      <path class="cls-1" d="m21.69.23c.29.58.89.95,1.54.95"/>
      <path class="cls-1" d="m26.84,1.01s.01,0,.02,0"/>
      <path class="cls-1" d="m26.85,1.19s0,0,.01,0"/>
      <line class="cls-1" x1="21.8" y1=".05" x2="21.03" y2=".05"/>
      <line class="cls-1" x1="21.72" y1=".23" x2="21.14" y2=".23"/>
      <path class="cls-1" d="m30.5,1.01s.01,0,.02,0"/>
      <path class="cls-1" d="m30.5,1.19s.01,0,.02,0"/>
    </g>
  </g>
</svg>