<?xml version="1.0" encoding="UTF-8"?>
<svg id="Capa_2" data-name="Capa 2" xmlns="http://www.w3.org/2000/svg" viewBox="0 0 20.51 3.86">
  <defs>
    <style>
      .cls-1 {
        fill: none;
        stroke: #000;
        stroke-miterlimit: 10;
        stroke-width: .05px;
      }
    </style>
  </defs>
  <g id="Capa_1-2" data-name="Capa 1">
    <g>
      <polyline class="cls-1" points="6.29 3.05 7.79 3.05 16.23 3.05"/>
      <polyline class="cls-1" points="19.79 3.27 20.45 3.27 20.48 3.27 20.48 3.3 20.48 3.33 20.48 3.51 20.48 3.54 20.48 3.57 20.45 3.6 20.42 3.63 20.39 3.63 20.36 3.63"/>
      <polyline class="cls-1" points="19.79 3.45 20.25 3.45 20.25 3.51 20.25 3.54 20.28 3.57 20.28 3.6 20.3 3.6 20.3 3.63 20.33 3.63 20.36 3.63"/>
      <polyline class="cls-1" points="6.03 .24 4.32 3.21 4.29 3.24 4.26 3.24 2.54 3.24 2.51 3.24 2.51 3.27 2.48 3.27 2.48 3.3 2.48 3.78 2.48 3.8 2.45 3.84 2.3 3.84 .05 3.84 .03 3.84 .03 3.8 .03 3.78 .03 3.69 .03 3.66 .05 3.66 .23 3.66 .57 3.66 .6 3.66 2.28 3.66 2.3 3.66 2.3 3.63 2.3 3.6 2.3 3.3 2.3 3.27 2.3 3.24 2.28 3.24 1.44 3.24 1.41 3.24 1.41 3.21 1.41 3.12 1.41 3.09 1.41 3.05 1.44 3.05 4.01 3.05 4.17 3.05 4.2 3.05 4.2 3.03 5.94 .05"/>
      <polyline class="cls-1" points="7.73 .09 6.05 3 6.05 3.03 6.05 3.05 6.08 3.05 6.11 3.05 6.29 3.05"/>
      <polyline class="cls-1" points="6.29 3.24 5.82 3.24 5.79 3.24 5.79 3.21 5.79 3.15"/>
      <path class="cls-1" d="m5.95.03s-.03,0-.04.02"/>
      <path class="cls-1" d="m7.73.09s0-.03,0-.04c0-.01-.02-.02-.04-.02"/>
      <line class="cls-1" x1="5.79" y1="3.12" x2="7.44" y2=".27"/>
      <path class="cls-1" d="m7.4.27s0-.03,0-.05c0-.01-.02-.02-.04-.02"/>
      <line class="cls-1" x1="5.97" y1=".03" x2="7.7" y2=".03"/>
      <line class="cls-1" x1="6.08" y1=".21" x2="7.38" y2=".21"/>
      <path class="cls-1" d="m6.07.21s-.03,0-.04.02"/>
      <path class="cls-1" d="m5.76,3.11s0,.01,0,.02"/>
      <polyline class="cls-1" points="16.23 3.24 10.67 3.24 10.64 3.27 10.64 3.3 10.64 3.48 10.64 3.51 10.64 3.54 10.67 3.54 10.86 3.54 10.89 3.54 10.89 3.57 10.92 3.57 10.92 3.6 10.92 3.78 10.92 3.8 10.89 3.8 10.89 3.84 10.86 3.84 10.2 3.84 10.17 3.84 10.14 3.8 10.14 3.78 10.14 3.6 10.14 3.57 10.14 3.54 10.17 3.54 10.2 3.54 10.41 3.54 10.44 3.54 10.44 3.51 10.47 3.51 10.47 3.48 10.47 3.3 10.47 3.27 10.44 3.27 10.44 3.24 10.41 3.24 9.54 3.24 6.29 3.24"/>
      <polyline class="cls-1" points="16.23 3.05 16.67 3.05 16.7 3.05 16.7 3.03 16.7 3 15.03 .09"/>
      <polyline class="cls-1" points="16.73 .24 18.48 3.21 18.48 3.24 18.51 3.24 19.35 3.24 19.38 3.24 19.38 3.27 19.41 3.27 19.41 3.3 19.41 3.39 19.41 3.42 19.44 3.42 19.44 3.45 19.79 3.45"/>
      <polyline class="cls-1" points="19.79 3.27 19.61 3.27 19.58 3.27 19.58 3.24 19.58 3.21"/>
      <polyline class="cls-1" points="19.53 3.05 18.6 3.05 18.57 3.05 18.57 3.03 16.85 .05"/>
      <polyline class="cls-1" points="16.23 3.24 16.98 3.24 17.01 3.24 17.01 3.21 17.04 3.21 17.04 3.18 17.01 3.18 15.35 .27"/>
      <path class="cls-1" d="m16.82.05s-.02-.02-.04-.02"/>
      <path class="cls-1" d="m15.07.03s-.03,0-.04.02c0,.01,0,.03,0,.04"/>
      <path class="cls-1" d="m15.37.21s-.03,0-.04.02c0,.01,0,.03,0,.05"/>
      <line class="cls-1" x1="16.79" y1=".03" x2="15.08" y2=".03"/>
      <line class="cls-1" x1="16.7" y1=".21" x2="15.39" y2=".21"/>
      <path class="cls-1" d="m16.73.23s-.02-.02-.04-.02"/>
      <path class="cls-1" d="m19.55,3.1s-.02-.05-.04-.05"/>
      <line class="cls-1" x1="19.58" y1="3.21" x2="19.58" y2="3.12"/>
    </g>
  </g>
</svg>