<?xml version="1.0" encoding="UTF-8"?>
<svg id="Capa_2" data-name="Capa 2" xmlns="http://www.w3.org/2000/svg" viewBox="0 0 38.75 3.86">
  <defs>
    <style>
      .cls-1 {
        fill: none;
        stroke: #000;
        stroke-linecap: round;
        stroke-linejoin: round;
        stroke-width: .05px;
      }
    </style>
  </defs>
  <g id="Capa_1-2" data-name="Capa 1">
    <g>
      <polyline class="cls-1" points="3.03 3.24 2.54 3.24 2.51 3.24 2.51 3.27 2.48 3.27 2.48 3.3 2.48 3.78 2.48 3.8 2.45 3.83 2.3 3.83 .05 3.83 .03 3.83 .03 3.8 .03 3.78 .03 3.69 .03 3.66 .05 3.66 .23 3.66 .57 3.66 .6 3.66 2.28 3.66 2.3 3.66 2.3 3.63 2.3 3.6 2.3 3.3 2.3 3.27 2.3 3.24 2.28 3.24 1.44 3.24 1.41 3.24 1.41 3.21 1.41 3.11 1.41 3.08 1.41 3.05 1.44 3.05 3.03 3.05"/>
      <polyline class="cls-1" points="9.72 3.05 19.5 3.05 19.53 3.05 19.53 3.08 19.55 3.08 19.55 3.11 19.55 3.21 19.55 3.24 19.55 3.27 19.58 3.27 20.45 3.27 20.48 3.27 20.48 3.3 20.48 3.51 20.48 3.54 20.48 3.57 20.45 3.6 20.42 3.63 20.39 3.63 20.36 3.63"/>
      <polyline class="cls-1" points="19.38 3.3 19.38 3.39 19.38 3.42 19.41 3.42 19.44 3.42 20.25 3.42 20.25 3.51 20.25 3.54 20.28 3.57 20.28 3.6 20.3 3.6 20.3 3.63 20.33 3.63 20.36 3.63"/>
      <line class="cls-1" x1="5.28" y1="3.05" x2="5.36" y2="3.05"/>
      <polyline class="cls-1" points="5.01 .24 3.42 2.97 3.39 3.05 3.36 3.05 3.36 3.08 3.36 3.21 3.36 3.24 3.32 3.24 3.03 3.24"/>
      <polyline class="cls-1" points="3.03 3.05 3.14 3.05 3.17 3.05 3.17 3.03 4.92 .05"/>
      <polyline class="cls-1" points="6.72 .08 5.04 3 5.04 3.03 5.04 3.05 5.07 3.05 5.1 3.05 5.28 3.05"/>
      <polyline class="cls-1" points="5.28 3.24 4.79 3.24 4.76 3.24 4.76 3.21 4.76 3.14"/>
      <path class="cls-1" d="m4.93.03s-.03,0-.04.02"/>
      <path class="cls-1" d="m6.71.09s0-.03,0-.04c0-.01-.02-.02-.04-.02"/>
      <line class="cls-1" x1="4.76" y1="3.11" x2="6.42" y2=".27"/>
      <path class="cls-1" d="m6.38.24s0-.03,0-.04c0-.01-.02-.02-.04-.02"/>
      <line class="cls-1" x1="4.95" y1=".03" x2="6.69" y2=".03"/>
      <line class="cls-1" x1="5.07" y1=".21" x2="6.36" y2=".21"/>
      <path class="cls-1" d="m5.05.17s-.03,0-.04.02"/>
      <path class="cls-1" d="m4.74,3.11s0,.01,0,.02"/>
      <line class="cls-1" x1="5.76" y1="3.05" x2="9.72" y2="3.05"/>
      <line class="cls-1" x1="5.76" y1="3.24" x2="5.28" y2="3.24"/>
      <line class="cls-1" x1="5.36" y1="3.05" x2="5.76" y2="3.05"/>
      <polyline class="cls-1" points="19.38 3.3 19.38 3.27 19.35 3.27 19.35 3.24 19.32 3.24 10.67 3.24 10.64 3.24 10.64 3.27 10.64 3.3 10.64 3.48 10.64 3.51 10.64 3.54 10.67 3.54 10.86 3.54 10.89 3.54 10.89 3.57 10.92 3.57 10.92 3.78 10.92 3.8 10.89 3.8 10.89 3.83 10.86 3.83 10.2 3.83 10.17 3.83 10.14 3.8 10.14 3.78 10.14 3.57 10.14 3.54 10.17 3.54 10.2 3.54 10.41 3.54 10.44 3.54 10.44 3.51 10.47 3.51 10.47 3.48 10.47 3.3 10.47 3.27 10.44 3.27 10.44 3.24 10.41 3.24 5.76 3.24"/>
      <polyline class="cls-1" points="21.23 3.24 20.76 3.24 20.73 3.24 20.73 3.27 20.73 3.3 20.73 3.78 20.73 3.8 20.7 3.8 20.7 3.83 20.67 3.83 20.54 3.83 18.26 3.83 18.23 3.8 18.23 3.78 18.23 3.69 18.23 3.66 18.26 3.66 18.45 3.66 18.78 3.66 18.8 3.66 18.83 3.66 20.48 3.66 20.51 3.66 20.51 3.63 20.54 3.63 20.54 3.6 20.54 3.3 20.54 3.27 20.51 3.27 20.51 3.24 20.48 3.24 19.67 3.24 19.64 3.24 19.61 3.24 19.61 3.21 19.61 3.11 19.61 3.08 19.64 3.08 19.64 3.05 19.67 3.05 21.23 3.05"/>
      <polyline class="cls-1" points="27.92 3.05 37.73 3.05 37.76 3.08 37.76 3.11 37.76 3.21 37.76 3.24 37.79 3.24 37.79 3.27 37.82 3.27 38.67 3.27 38.7 3.27 38.7 3.3 38.73 3.3 38.73 3.51 38.7 3.54 38.7 3.57 38.7 3.6 38.67 3.6 38.67 3.63 38.64 3.63 38.6 3.63"/>
      <polyline class="cls-1" points="37.58 3.3 37.58 3.39 37.61 3.42 37.64 3.42 38.48 3.42 38.48 3.51 38.48 3.54 38.48 3.57 38.51 3.6 38.54 3.63 38.57 3.63 38.6 3.63"/>
      <line class="cls-1" x1="23.48" y1="3.05" x2="23.6" y2="3.05"/>
      <polyline class="cls-1" points="23.22 .24 21.63 2.97 21.6 3.05 21.6 3.08 21.6 3.21 21.57 3.21 21.57 3.24 21.54 3.24 21.23 3.24"/>
      <polyline class="cls-1" points="21.23 3.05 21.35 3.05 21.39 3.05 21.39 3.03 23.13 .05"/>
      <polyline class="cls-1" points="24.92 .08 23.28 3 23.25 3 23.25 3.03 23.28 3.03 23.28 3.05 23.3 3.05 23.48 3.05"/>
      <polyline class="cls-1" points="23.48 3.24 23.04 3.24 23.01 3.24 22.98 3.24 22.98 3.21 22.98 3.14"/>
      <path class="cls-1" d="m23.14.03s-.03,0-.04.02"/>
      <path class="cls-1" d="m24.92.09s0-.03,0-.04c0-.01-.02-.02-.04-.02"/>
      <line class="cls-1" x1="22.98" y1="3.11" x2="24.63" y2=".27"/>
      <path class="cls-1" d="m24.62.24s0-.03,0-.04c0-.01-.02-.02-.04-.02"/>
      <line class="cls-1" x1="23.16" y1=".03" x2="24.89" y2=".03"/>
      <line class="cls-1" x1="23.28" y1=".21" x2="24.6" y2=".21"/>
      <path class="cls-1" d="m23.26.17s-.03,0-.04.02"/>
      <path class="cls-1" d="m22.98,3.11s0,.01,0,.02"/>
      <line class="cls-1" x1="23.97" y1="3.05" x2="27.92" y2="3.05"/>
      <line class="cls-1" x1="23.97" y1="3.24" x2="23.48" y2="3.24"/>
      <line class="cls-1" x1="23.6" y1="3.05" x2="23.97" y2="3.05"/>
      <polyline class="cls-1" points="37.58 3.3 37.58 3.27 37.58 3.24 37.55 3.24 28.92 3.24 28.89 3.24 28.85 3.27 28.85 3.3 28.85 3.48 28.85 3.51 28.89 3.51 28.89 3.54 28.92 3.54 29.07 3.54 29.1 3.54 29.13 3.54 29.13 3.57 29.13 3.78 29.13 3.8 29.1 3.8 29.1 3.83 29.07 3.83 28.41 3.83 28.38 3.83 28.38 3.8 28.35 3.8 28.35 3.78 28.35 3.57 28.38 3.54 28.41 3.54 28.64 3.54 28.67 3.51 28.67 3.48 28.67 3.3 28.67 3.27 28.64 3.24 23.97 3.24"/>
    </g>
  </g>
</svg>