<?xml version="1.0" encoding="UTF-8"?>
<svg id="Capa_2" data-name="Capa 2" xmlns="http://www.w3.org/2000/svg" viewBox="0 0 14.83 1.75">
  <defs>
    <style>
      .cls-1 {
        fill: none;
        stroke: #000;
        stroke-linecap: round;
        stroke-linejoin: round;
        stroke-width: .1px;
      }
    </style>
  </defs>
  <g id="Capa_1-2" data-name="Capa 1">
    <g>
      <polyline class="cls-1" points="13.79 .05 13.82 .05 13.82 .08 13.82 .95 13.82 1.1 13.85 1.13 13.88 1.13 14.72 1.13 14.75 1.13 14.75 1.16 14.78 1.16 14.78 1.19 14.78 1.4 14.75 1.43 14.75 1.46 14.72 1.49 14.69 1.49 14.66 1.52"/>
      <polyline class="cls-1" points="13.79 .05 3.26 .05 3.23 .05 3.23 .08 3.2 .08 3.2 .89 3.2 .92 3.17 .95 1.46 .95 1.43 .95 1.43 .98 1.43 1.07 1.43 1.1 1.46 1.1 1.46 1.13 2.3 1.13 2.33 1.13 2.33 1.16 2.33 1.49 2.33 1.52 2.3 1.52 .62 1.52 .62 1.55 .59 1.52 .26 1.52 .08 1.52 .05 1.52 .05 1.55 .05 1.58 .05 1.67 .05 1.7 .08 1.7 2.33 1.7 2.48 1.7 2.51 1.7 2.51 1.67 2.51 1.16 2.54 1.13 2.57 1.13 3.35 1.13 3.35 1.1 3.38 1.1 3.38 1.07 3.38 .26 3.41 .26 3.41 .23 3.44 .23 8.42 .23 8.45 .23 8.45 .26 8.45 1.37 8.45 1.4 8.42 1.4 8.18 1.4 8.15 1.4 8.15 1.43 8.15 1.46 8.15 1.67 8.15 1.7 8.18 1.7 8.87 1.7 8.9 1.7 8.9 1.67 8.9 1.46 8.9 1.43 8.9 1.4 8.87 1.4 8.69 1.4 8.66 1.4 8.63 1.37 8.63 .26 8.66 .26 8.66 .23 8.69 .23 13.61 .23 13.64 .23 13.64 .26 13.64 1.25 13.64 1.28 13.67 1.28 13.67 1.31 13.7 1.31 14.54 1.31 14.54 1.4 14.54 1.43 14.54 1.46 14.57 1.46 14.57 1.49 14.6 1.49 14.63 1.52 14.66 1.52"/>
    </g>
  </g>
</svg>