<?xml version="1.0" encoding="UTF-8"?>
<svg id="Capa_2" data-name="Capa 2" xmlns="http://www.w3.org/2000/svg" viewBox="0 0 38.75 3.86">
  <defs>
    <style>
      .cls-1 {
        fill: none;
        stroke: #000;
        stroke-linecap: round;
        stroke-linejoin: round;
        stroke-width: .05px;
      }
    </style>
  </defs>
  <g id="Capa_1-2" data-name="Capa 1">
    <g>
      <polyline class="cls-1" points="17.19 3.08 19.5 3.08 19.53 3.08 19.55 3.08 19.55 3.11 19.55 3.24 19.55 3.27 19.58 3.27 20.45 3.27 20.45 3.3 20.48 3.3 20.48 3.33 20.48 3.54 20.48 3.57 20.48 3.6 20.45 3.6 20.45 3.63 20.42 3.63 20.42 3.66 20.39 3.66 20.36 3.66"/>
      <polyline class="cls-1" points="17.19 3.27 19.32 3.27 19.35 3.27 19.38 3.27 19.38 3.3 19.38 3.39 19.38 3.42 19.38 3.45 19.41 3.45 19.44 3.45 20.25 3.45 20.25 3.54 20.28 3.57 20.28 3.6 20.3 3.63 20.33 3.66 20.36 3.66"/>
      <polyline class="cls-1" points="5.28 3.08 6.78 3.08 17.19 3.08"/>
      <polyline class="cls-1" points="3.03 3.08 3.14 3.08 3.17 3.05 3.17 3.03 3.17 3 1.5 .11"/>
      <polyline class="cls-1" points="3.2 .24 4.95 3.24 4.98 3.27 8.51 3.27 10.41 3.27 10.44 3.27 10.47 3.27 10.47 3.3 10.47 3.51 10.47 3.54 10.44 3.54 10.41 3.54 10.2 3.54 10.17 3.54 10.17 3.57 10.14 3.57 10.14 3.6 10.14 3.8 10.14 3.83 10.17 3.83 10.2 3.83 10.86 3.83 10.89 3.83 10.92 3.8 10.92 3.6 10.92 3.57 10.89 3.57 10.89 3.54 10.86 3.54 10.67 3.54 10.64 3.54 10.64 3.51 10.64 3.3 10.64 3.27 10.67 3.27 17.19 3.27"/>
      <polyline class="cls-1" points="5.28 3.08 5.1 3.08 5.07 3.08 5.07 3.05 5.04 3.05 3.32 .05"/>
      <polyline class="cls-1" points="3.03 3.08 1.44 3.08 1.41 3.08 1.41 3.11 1.41 3.2 1.41 3.24 1.44 3.27 2.28 3.27 2.3 3.27 2.3 3.3 2.3 3.63 2.3 3.66 2.28 3.66 .6 3.66 .57 3.69 .57 3.66 .23 3.66 .05 3.66 .03 3.69 .03 3.72 .03 3.8 .03 3.83 .05 3.83 2.3 3.83 2.45 3.83 2.48 3.83 2.48 3.8 2.48 3.3 2.51 3.27 2.54 3.27 3.45 3.27 3.48 3.27 3.48 3.24 3.51 3.24 3.51 3.2 3.48 3.17 1.82 .3"/>
      <path class="cls-1" d="m3.29.05s-.02-.02-.04-.02"/>
      <path class="cls-1" d="m1.54.03s-.03,0-.04.02c0,.01,0,.03,0,.04"/>
      <path class="cls-1" d="m1.84.2s-.03,0-.04.02c0,.01,0,.03,0,.04"/>
      <line class="cls-1" x1="3.26" y1=".03" x2="1.55" y2=".03"/>
      <line class="cls-1" x1="3.17" y1=".2" x2="1.86" y2=".2"/>
      <path class="cls-1" d="m3.2.23s-.02-.02-.04-.02"/>
      <polyline class="cls-1" points="35.39 3.08 37.73 3.08 37.76 3.08 37.76 3.11 37.76 3.24 37.76 3.27 37.79 3.27 37.82 3.27 38.67 3.27 38.7 3.3 38.7 3.33 38.73 3.33 38.73 3.54 38.7 3.54 38.7 3.57 38.7 3.6 38.67 3.63 38.64 3.66 38.6 3.66"/>
      <polyline class="cls-1" points="35.39 3.27 37.55 3.27 37.58 3.27 37.58 3.3 37.58 3.39 37.58 3.42 37.61 3.42 37.61 3.45 37.64 3.45 38.48 3.45 38.48 3.54 38.48 3.57 38.48 3.6 38.51 3.6 38.51 3.63 38.54 3.63 38.54 3.66 38.57 3.66 38.6 3.66"/>
      <polyline class="cls-1" points="23.48 3.08 24.98 3.08 35.39 3.08"/>
      <polyline class="cls-1" points="21.23 3.08 21.35 3.08 21.39 3.08 21.39 3.05 21.42 3.05 21.42 3.03 21.39 3 19.73 .11"/>
      <polyline class="cls-1" points="21.45 .24 23.16 3.24 23.19 3.24 23.19 3.27 26.73 3.27 28.64 3.27 28.67 3.27 28.67 3.3 28.67 3.51 28.67 3.54 28.64 3.54 28.41 3.54 28.38 3.54 28.38 3.57 28.35 3.57 28.35 3.6 28.35 3.8 28.35 3.83 28.38 3.83 28.41 3.83 29.07 3.83 29.1 3.83 29.13 3.83 29.13 3.8 29.13 3.6 29.13 3.57 29.1 3.57 29.1 3.54 29.07 3.54 28.92 3.54 28.89 3.54 28.85 3.54 28.85 3.51 28.85 3.3 28.85 3.27 28.89 3.27 28.92 3.27 35.39 3.27"/>
      <polyline class="cls-1" points="23.48 3.08 23.3 3.08 23.28 3.08 23.28 3.05 21.54 .05"/>
      <polyline class="cls-1" points="21.23 3.08 19.67 3.08 19.64 3.08 19.61 3.08 19.61 3.11 19.61 3.2 19.61 3.24 19.64 3.24 19.64 3.27 19.67 3.27 20.48 3.27 20.51 3.27 20.54 3.3 20.54 3.63 20.51 3.66 20.48 3.66 18.83 3.66 18.8 3.69 18.78 3.66 18.45 3.66 18.26 3.66 18.26 3.69 18.23 3.69 18.23 3.72 18.23 3.8 18.23 3.83 18.26 3.83 20.54 3.83 20.67 3.83 20.7 3.83 20.73 3.8 20.73 3.3 20.73 3.27 20.76 3.27 21.66 3.27 21.69 3.27 21.69 3.24 21.72 3.24 21.72 3.2 21.72 3.17 20.04 .3"/>
      <path class="cls-1" d="m21.53.05s-.02-.02-.04-.02"/>
      <path class="cls-1" d="m19.75.03s-.03,0-.04.02c0,.01,0,.03,0,.04"/>
      <path class="cls-1" d="m20.05.2s-.03,0-.04.02c0,.01,0,.03,0,.04"/>
      <line class="cls-1" x1="21.51" y1=".03" x2="19.76" y2=".03"/>
      <line class="cls-1" x1="21.39" y1=".2" x2="20.07" y2=".2"/>
      <path class="cls-1" d="m21.41.23s-.02-.02-.04-.02"/>
    </g>
  </g>
</svg>