<?xml version="1.0" encoding="UTF-8"?>
<svg id="Capa_2" data-name="Capa 2" xmlns="http://www.w3.org/2000/svg" viewBox="0 0 20.51 3.71">
  <defs>
    <style>
      .cls-1 {
        fill: none;
        stroke: #000;
        stroke-miterlimit: 10;
        stroke-width: .05px;
      }
    </style>
  </defs>
  <g id="Capa_1-2" data-name="Capa 1">
    <g>
      <polyline class="cls-1" points="19.5 2.91 19.5 2.91 19.53 2.91 19.55 2.91 19.55 2.94 19.55 2.97 19.55 3.06 19.55 3.08 19.58 3.08 19.58 3.11 19.61 3.11 20.45 3.11 20.48 3.11 20.48 3.14 20.48 3.35 20.48 3.38 20.48 3.41 20.45 3.44 20.42 3.47 20.39 3.47 20.36 3.47"/>
      <polyline class="cls-1" points="19.37 3.08 19.37 3.23 19.37 3.26 19.41 3.26 19.44 3.26 20.25 3.26 20.25 3.35 20.28 3.38 20.28 3.41 20.28 3.44 20.3 3.44 20.3 3.47 20.33 3.47 20.36 3.47"/>
      <polyline class="cls-1" points="15.5 2.91 15.5 3.03 15.5 3.06 15.5 3.08 15.47 3.08 10.7 3.08 10.67 3.08 10.64 3.11 10.64 3.14 10.64 3.32 10.64 3.35 10.67 3.35 10.67 3.38 10.7 3.38 10.85 3.38 10.88 3.38 10.91 3.38 10.91 3.41 10.91 3.63 10.91 3.66 10.88 3.66 10.88 3.69 10.85 3.69 10.19 3.69 10.16 3.69 10.16 3.66 10.13 3.66 10.13 3.63 10.13 3.41 10.13 3.38 10.16 3.38 10.19 3.38 10.41 3.38 10.44 3.38 10.44 3.35 10.47 3.35 10.47 3.32 10.47 3.08"/>
      <polyline class="cls-1" points="6.56 2.91 6.56 3.03 6.56 3.06 6.53 3.06 6.53 3.08 6.5 3.08 3.03 3.08 2.54 3.08 2.51 3.08 2.51 3.11 2.48 3.14 2.48 3.63 2.48 3.66 2.45 3.69 2.33 3.69 .05 3.69 .05 3.66 .03 3.66 .03 3.63 .03 3.54 .03 3.51 .05 3.51 .23 3.51 .56 3.51 .59 3.51 2.28 3.51 2.3 3.47 2.33 3.44 2.33 3.14 2.33 3.11 2.3 3.11 2.3 3.08 2.28 3.08 1.44 3.08 1.41 3.08 1.41 3.06 1.41 3.03 1.41 2.97 1.41 2.94 1.41 2.91 1.44 2.91 5.84 2.91"/>
      <line class="cls-1" x1="10.55" y1="2.91" x2="14.78" y2="2.91"/>
      <path class="cls-1" d="m7.99,1.06C7.77.41,7.15,0,6.47.03s-1.25.52-1.4,1.19c-.15.66.17,1.35.77,1.66"/>
      <path class="cls-1" d="m7.82,1.11c-.22-.65-.89-1.02-1.55-.88-.67.15-1.11.77-1.04,1.45.07.68.65,1.19,1.33,1.19"/>
      <path class="cls-1" d="m8,1.05c.37,1.09,1.39,1.83,2.54,1.83"/>
      <path class="cls-1" d="m7.82,1.1c.38,1.14,1.43,1.91,2.63,1.95"/>
      <path class="cls-1" d="m16.93,1.06c-.22-.64-.84-1.07-1.52-1.03s-1.25.52-1.4,1.19c-.15.66.17,1.35.77,1.66"/>
      <path class="cls-1" d="m16.76,1.11c-.22-.65-.89-1.02-1.55-.88-.67.15-1.11.77-1.04,1.45s.65,1.19,1.33,1.19"/>
      <path class="cls-1" d="m16.94,1.05c.37,1.09,1.39,1.83,2.54,1.83"/>
      <path class="cls-1" d="m16.76,1.1c.38,1.12,1.4,1.89,2.58,1.95"/>
    </g>
  </g>
</svg>