<?xml version="1.0" encoding="UTF-8"?>
<svg id="Capa_2" data-name="Capa 2" xmlns="http://www.w3.org/2000/svg" viewBox="0 0 20.51 3.86">
  <defs>
    <style>
      .cls-1 {
        fill: none;
        stroke: #000;
        stroke-miterlimit: 10;
        stroke-width: .05px;
      }
    </style>
  </defs>
  <g id="Capa_1-2" data-name="Capa 1">
    <g>
      <polyline class="cls-1" points="5.28 3.05 6.78 3.05 17.25 3.05"/>
      <polyline class="cls-1" points="19.79 3.26 20.45 3.26 20.48 3.29 20.48 3.32 20.48 3.51 20.48 3.54 20.48 3.57 20.45 3.6 20.42 3.63 20.39 3.63 20.36 3.63"/>
      <polyline class="cls-1" points="19.79 3.45 20.25 3.45 20.25 3.51 20.25 3.54 20.28 3.57 20.28 3.6 20.3 3.6 20.3 3.63 20.33 3.63 20.36 3.63"/>
      <polyline class="cls-1" points="5.01 .23 3.42 3 3.39 3.05 3.36 3.08 3.36 3.2 3.36 3.23 3.32 3.23 2.54 3.23 2.51 3.23 2.51 3.26 2.48 3.26 2.48 3.29 2.48 3.78 2.48 3.8 2.48 3.83 2.45 3.83 2.3 3.83 .05 3.83 .03 3.83 .03 3.8 .03 3.78 .03 3.72 .03 3.69 .03 3.66 .05 3.66 .23 3.66 .57 3.66 .6 3.66 2.28 3.66 2.3 3.66 2.3 3.63 2.3 3.6 2.3 3.29 2.3 3.26 2.3 3.23 2.28 3.23 1.44 3.23 1.41 3.23 1.41 3.2 1.41 3.11 1.41 3.08 1.44 3.05 3 3.05 3.14 3.05 3.17 3.05 4.92 .05"/>
      <polyline class="cls-1" points="6.72 .08 5.04 3 5.04 3.03 5.04 3.05 5.07 3.05 5.1 3.05 5.28 3.05"/>
      <polyline class="cls-1" points="5.28 3.23 4.79 3.23 4.76 3.23 4.76 3.2 4.76 3.14"/>
      <path class="cls-1" d="m4.93.03s-.03,0-.04.02"/>
      <path class="cls-1" d="m6.71.09s0-.03,0-.05c0-.01-.02-.02-.04-.02"/>
      <line class="cls-1" x1="4.76" y1="3.11" x2="6.42" y2=".26"/>
      <path class="cls-1" d="m6.38.27s0-.03,0-.05c0-.01-.02-.02-.04-.02"/>
      <line class="cls-1" x1="4.95" y1=".03" x2="6.69" y2=".03"/>
      <line class="cls-1" x1="5.07" y1=".2" x2="6.36" y2=".2"/>
      <path class="cls-1" d="m5.05.2s-.03,0-.04.02"/>
      <path class="cls-1" d="m4.74,3.11s0,.01,0,.02"/>
      <polyline class="cls-1" points="17.25 3.23 10.67 3.23 10.64 3.26 10.64 3.29 10.64 3.48 10.64 3.51 10.64 3.54 10.67 3.54 10.86 3.54 10.89 3.54 10.89 3.57 10.92 3.57 10.92 3.6 10.92 3.78 10.92 3.8 10.89 3.8 10.89 3.83 10.86 3.83 10.2 3.83 10.17 3.83 10.14 3.83 10.14 3.8 10.14 3.78 10.14 3.6 10.14 3.57 10.14 3.54 10.17 3.54 10.2 3.54 10.41 3.54 10.44 3.54 10.47 3.51 10.47 3.48 10.47 3.29 10.47 3.26 10.44 3.26 10.44 3.23 10.41 3.23 8.51 3.23 5.28 3.23"/>
      <polyline class="cls-1" points="17.25 3.05 17.7 3.05 17.73 3.05 17.73 3.03 17.73 3 16.04 .08"/>
      <polyline class="cls-1" points="17.76 .23 19.41 3.05 19.41 3.08 19.41 3.38 19.41 3.41 19.44 3.41 19.44 3.45 19.79 3.45"/>
      <polyline class="cls-1" points="19.79 3.26 19.61 3.26 19.58 3.26 19.58 3.23 19.58 3.2 19.58 3.05 19.58 3.03 17.88 .05"/>
      <polyline class="cls-1" points="17.25 3.23 18 3.23 18.03 3.23 18.03 3.2 18.05 3.2 18.05 3.17 18.03 3.17 16.38 .26"/>
      <path class="cls-1" d="m17.84.05s-.02-.02-.04-.02"/>
      <path class="cls-1" d="m16.09.03s-.03,0-.04.02c0,.01,0,.03,0,.05"/>
      <path class="cls-1" d="m16.39.2s-.03,0-.04.02c0,.01,0,.03,0,.05"/>
      <line class="cls-1" x1="17.82" y1=".03" x2="16.1" y2=".03"/>
      <line class="cls-1" x1="17.73" y1=".2" x2="16.41" y2=".2"/>
      <path class="cls-1" d="m17.75.23s-.02-.02-.04-.02"/>
    </g>
  </g>
</svg>