<?xml version="1.0" encoding="UTF-8"?>
<svg id="Capa_2" data-name="Capa 2" xmlns="http://www.w3.org/2000/svg" viewBox="0 0 38.75 1.64">
  <defs>
    <style>
      .cls-1 {
        fill: none;
        stroke: #000;
        stroke-linecap: round;
        stroke-linejoin: round;
        stroke-width: .05px;
      }
    </style>
  </defs>
  <g id="Capa_1-2" data-name="Capa 1">
    <g>
      <polyline class="cls-1" points="19.55 .9 19.55 1.02 19.55 1.05 19.58 1.05 19.58 1.08 19.61 1.08 20.45 1.08 20.48 1.08 20.48 1.1 20.48 1.32 20.48 1.35 20.48 1.38 20.45 1.38 20.45 1.41 20.42 1.41 20.42 1.44 20.39 1.44 20.36 1.44"/>
      <polyline class="cls-1" points="19.25 .87 19.25 .9 19.41 1.19 19.41 1.22 19.44 1.22 19.47 1.22 20.25 1.22 20.25 1.32 20.28 1.35 20.28 1.38 20.3 1.41 20.33 1.44 20.36 1.44"/>
      <line class="cls-1" x1="19.25" y1=".9" x2="19.25" y2=".9"/>
      <line class="cls-1" x1="19.25" y1=".87" x2="19.25" y2=".78"/>
      <polyline class="cls-1" points="18.05 1.05 15.05 1.05 15.03 1.05 15 1.02 15 .99 15 .87"/>
      <polyline class="cls-1" points="13.97 1.05 10.97 1.05 10.94 1.05 10.94 1.02 10.91 .99 10.91 .87"/>
      <polyline class="cls-1" points="9.92 1.05 9.78 1.05 9.75 1.05 9.72 1.08 9.72 1.29 9.72 1.32 9.75 1.32 9.78 1.35 9.92 1.35 9.95 1.35 9.98 1.35 9.98 1.38 9.98 1.59 9.98 1.62 9.95 1.62 9.92 1.62 9.26 1.62 9.23 1.62 9.2 1.62 9.2 1.59 9.2 1.38 9.2 1.35 9.23 1.35 9.26 1.35 9.5 1.35 9.5 1.32 9.53 1.32 9.53 1.29 9.53 1.08 9.53 1.05 9.5 1.05 6.92 1.05 6.89 1.05 6.89 1.02 6.86 1.02 6.86 .99 6.86 .87"/>
      <polyline class="cls-1" points="5.84 1.05 2.75 1.05 2.54 1.05 2.51 1.05 2.51 1.08 2.48 1.08 2.48 1.59 2.48 1.62 2.45 1.62 2.33 1.62 .05 1.62 .03 1.62 .03 1.59 .03 1.5 .03 1.47 .05 1.47 .05 1.44 .23 1.44 .56 1.44 .59 1.47 .59 1.44 2.28 1.44 2.3 1.44 2.3 1.41 2.33 1.41 2.33 .78"/>
      <polyline class="cls-1" points="1.79 1.05 1.44 1.05 1.41 1.02 1.41 .99 1.41 .9 1.41 .87 1.44 .87 1.82 .87"/>
      <line class="cls-1" x1="3.17" y1=".87" x2="5.84" y2=".87"/>
      <line class="cls-1" x1="7.25" y1=".87" x2="9.92" y2=".87"/>
      <line class="cls-1" x1="11.3" y1=".87" x2="13.97" y2=".87"/>
      <line class="cls-1" x1="15.38" y1=".87" x2="18.05" y2=".87"/>
      <path class="cls-1" d="m3.15.84c.14-.16.16-.38.05-.57S2.89,0,2.69.03c-.21.04-.37.2-.4.4"/>
      <path class="cls-1" d="m2.77.84c.15,0,.29-.11.31-.26.02-.15-.06-.3-.21-.35-.15-.05-.31.02-.38.15"/>
      <path class="cls-1" d="m19.41.84c.14-.16.16-.38.05-.57s-.31-.28-.51-.24c-.21.04-.37.2-.4.4"/>
      <path class="cls-1" d="m19.23.76c.11-.09.15-.24.09-.37-.05-.13-.19-.21-.33-.19-.14.02-.25.12-.28.26"/>
      <path class="cls-1" d="m1.78.84c.24,0,.45-.17.49-.41"/>
      <path class="cls-1" d="m1.78,1.02c.2,0,.39-.09.52-.25"/>
      <line class="cls-1" x1="2.48" y1=".81" x2="2.48" y2=".38"/>
      <line class="cls-1" x1="2.78" y1=".87" x2="2.54" y2=".87"/>
      <path class="cls-1" d="m2.48.79s.02.05.05.05"/>
      <path class="cls-1" d="m18.04.84c.24,0,.45-.17.49-.41"/>
      <path class="cls-1" d="m18.04,1.02c.33,0,.61-.23.66-.56"/>
      <path class="cls-1" d="m19.53.88s-.02-.04-.05-.04"/>
      <line class="cls-1" x1="19.44" y1=".87" x2="19.5" y2=".87"/>
      <line class="cls-1" x1="19.25" y1=".9" x2="19.41" y2="1.19"/>
      <path class="cls-1" d="m11.28.84c.14-.16.16-.38.05-.57-.1-.18-.31-.28-.51-.24-.21.04-.37.2-.4.4"/>
      <path class="cls-1" d="m10.91.83c.17,0,.3-.14.31-.3,0-.17-.12-.31-.28-.33s-.32.09-.34.26"/>
      <path class="cls-1" d="m9.91.84c.24,0,.45-.17.49-.41"/>
      <path class="cls-1" d="m9.91,1.02c.33,0,.61-.23.66-.56"/>
      <path class="cls-1" d="m7.23.84c.14-.16.16-.38.05-.57S6.97,0,6.77.03c-.21.04-.37.2-.4.4"/>
      <path class="cls-1" d="m6.86.83c.17,0,.3-.14.31-.3,0-.17-.12-.31-.28-.33s-.32.09-.34.26"/>
      <path class="cls-1" d="m5.83.84c.24,0,.45-.17.49-.41"/>
      <path class="cls-1" d="m5.83,1.02c.33,0,.61-.23.66-.56"/>
      <path class="cls-1" d="m15.36.84c.14-.16.16-.38.05-.57s-.31-.28-.51-.24c-.21.04-.37.2-.4.4"/>
      <path class="cls-1" d="m14.99.83c.17,0,.3-.14.31-.3s-.12-.31-.28-.33-.32.09-.34.26"/>
      <path class="cls-1" d="m13.96.84c.24,0,.45-.17.49-.41"/>
      <path class="cls-1" d="m13.96,1.02c.33,0,.61-.23.66-.56"/>
      <polyline class="cls-1" points="37.76 .9 37.76 1.02 37.79 1.05 37.82 1.08 38.66 1.08 38.69 1.08 38.72 1.1 38.72 1.32 38.72 1.35 38.69 1.35 38.69 1.38 38.66 1.41 38.63 1.44 38.6 1.44"/>
      <polyline class="cls-1" points="37.47 .78 37.47 .87 37.47 .9 37.5 .9 37.64 1.19 37.64 1.22 37.67 1.22 38.48 1.22 38.48 1.32 38.48 1.35 38.48 1.38 38.51 1.38 38.51 1.41 38.54 1.41 38.54 1.44 38.57 1.44 38.6 1.44"/>
      <polyline class="cls-1" points="36.26 1.05 33.26 1.05 33.23 1.05 33.23 1.02 33.2 1.02 33.2 .99 33.2 .87"/>
      <polyline class="cls-1" points="32.22 1.05 29.19 1.05 29.16 1.02 29.16 .99 29.16 .87"/>
      <polyline class="cls-1" points="28.13 1.05 27.98 1.05 27.95 1.05 27.95 1.08 27.92 1.08 27.92 1.29 27.95 1.32 27.98 1.32 27.98 1.35 28.16 1.35 28.19 1.35 28.19 1.38 28.19 1.59 28.19 1.62 28.16 1.62 27.47 1.62 27.44 1.62 27.44 1.59 27.44 1.38 27.44 1.35 27.47 1.35 27.72 1.35 27.72 1.32 27.75 1.32 27.75 1.29 27.78 1.29 27.78 1.08 27.75 1.08 27.75 1.05 27.72 1.05 25.13 1.05 25.1 1.05 25.1 1.02 25.07 1.02 25.07 .99 25.07 .87"/>
      <polyline class="cls-1" points="24.08 1.05 20.97 1.05 20.75 1.05 20.72 1.05 20.72 1.08 20.72 1.59 20.72 1.62 20.69 1.62 20.66 1.62 20.54 1.62 18.29 1.62 18.26 1.62 18.23 1.62 18.23 1.59 18.23 1.5 18.23 1.47 18.26 1.47 18.26 1.44 18.29 1.44 18.44 1.44 18.78 1.44 18.8 1.47 18.83 1.44 20.48 1.44 20.51 1.44 20.54 1.44 20.54 1.41 20.54 .78"/>
      <polyline class="cls-1" points="20 1.05 19.67 1.05 19.64 1.05 19.64 1.02 19.61 1.02 19.61 .99 19.61 .9 19.64 .87 19.67 .87 20.03 .87"/>
      <line class="cls-1" x1="21.38" y1=".87" x2="24.08" y2=".87"/>
      <line class="cls-1" x1="25.47" y1=".87" x2="28.13" y2=".87"/>
      <line class="cls-1" x1="29.51" y1=".87" x2="32.22" y2=".87"/>
      <line class="cls-1" x1="33.59" y1=".87" x2="36.26" y2=".87"/>
      <path class="cls-1" d="m21.39.84c.14-.16.16-.38.05-.57s-.31-.28-.51-.24c-.21.04-.37.2-.4.4"/>
      <path class="cls-1" d="m21.01.84c.15,0,.29-.11.31-.26.02-.15-.06-.3-.21-.35-.15-.05-.31.02-.38.15"/>
      <path class="cls-1" d="m37.62.84c.14-.16.16-.38.05-.57-.1-.18-.31-.28-.51-.24-.21.04-.37.2-.4.4"/>
      <path class="cls-1" d="m37.44.76c.11-.09.15-.24.09-.37-.05-.13-.19-.21-.33-.19-.14.02-.25.12-.28.26"/>
      <path class="cls-1" d="m19.99.84c.24,0,.45-.17.49-.41"/>
      <path class="cls-1" d="m19.99,1.02c.2,0,.39-.09.52-.25"/>
      <line class="cls-1" x1="20.72" y1=".81" x2="20.72" y2=".38"/>
      <line class="cls-1" x1="21.03" y1=".87" x2="20.75" y2=".87"/>
      <path class="cls-1" d="m20.69.79s.02.05.05.05"/>
      <path class="cls-1" d="m36.25.84c.24,0,.45-.17.49-.41"/>
      <path class="cls-1" d="m36.25,1.02c.33,0,.61-.23.66-.56"/>
      <path class="cls-1" d="m37.76.88s-.02-.04-.05-.04"/>
      <line class="cls-1" x1="37.64" y1=".87" x2="37.73" y2=".87"/>
      <line class="cls-1" x1="37.5" y1=".9" x2="37.64" y2="1.19"/>
      <path class="cls-1" d="m29.49.84c.14-.16.16-.38.05-.57s-.31-.28-.51-.24c-.21.04-.37.2-.4.4"/>
      <path class="cls-1" d="m29.12.83c.17,0,.3-.14.31-.3s-.12-.31-.28-.33-.32.09-.34.26"/>
      <path class="cls-1" d="m28.12.84c.24,0,.45-.17.49-.41"/>
      <path class="cls-1" d="m28.12,1.02c.33,0,.61-.23.66-.56"/>
      <path class="cls-1" d="m25.44.84c.14-.16.16-.38.05-.57s-.31-.28-.51-.24c-.21.04-.37.2-.4.4"/>
      <path class="cls-1" d="m25.07.83c.17,0,.3-.14.31-.3,0-.17-.12-.31-.28-.33-.16-.02-.32.09-.34.26"/>
      <path class="cls-1" d="m24.07.84c.24,0,.45-.17.49-.41"/>
      <path class="cls-1" d="m24.07,1.02c.33,0,.61-.23.66-.56"/>
      <path class="cls-1" d="m33.57.84c.14-.16.16-.38.05-.57s-.31-.28-.51-.24c-.21.04-.37.2-.4.4"/>
      <path class="cls-1" d="m33.2.83c.17,0,.3-.14.31-.3,0-.17-.12-.31-.28-.33s-.32.09-.34.26"/>
      <path class="cls-1" d="m32.2.84c.24,0,.45-.17.49-.41"/>
      <path class="cls-1" d="m32.2,1.02c.33,0,.61-.23.66-.56"/>
    </g>
  </g>
</svg>