<?xml version="1.0" encoding="UTF-8"?>
<svg id="Capa_2" data-name="Capa 2" xmlns="http://www.w3.org/2000/svg" viewBox="0 0 39.5 3.89">
  <defs>
    <style>
      .cls-1 {
        fill: none;
        stroke: #000;
        stroke-linecap: round;
        stroke-linejoin: round;
        stroke-width: .05px;
      }
    </style>
  </defs>
  <g id="Capa_1-2" data-name="Capa 1">
    <g>
      <polyline class="cls-1" points="5.28 3.08 6.78 3.08 9.8 3.08"/>
      <line class="cls-1" x1="13.7" y1="3.08" x2="17.54" y2="3.08"/>
      <polyline class="cls-1" points="19.79 3.3 20.45 3.3 20.48 3.3 20.48 3.33 20.48 3.54 20.48 3.57 20.48 3.6 20.45 3.63 20.42 3.66 20.39 3.66 20.36 3.66"/>
      <polyline class="cls-1" points="19.79 3.45 20.25 3.45 20.25 3.54 20.25 3.57 20.28 3.57 20.28 3.6 20.28 3.63 20.3 3.63 20.3 3.66 20.33 3.66 20.36 3.66"/>
      <polyline class="cls-1" points="5.01 .27 3.42 3 3.39 3.08 3.36 3.08 3.36 3.12 3.36 3.21 3.36 3.24 3.36 3.27 3.32 3.27 2.54 3.27 2.51 3.27 2.51 3.3 2.48 3.3 2.48 3.33 2.48 3.8 2.48 3.83 2.45 3.83 2.45 3.87 2.3 3.87 .05 3.87 .03 3.83 .03 3.8 .03 3.72 .03 3.69 .05 3.69 .23 3.69 .57 3.69 .6 3.69 2.28 3.69 2.3 3.66 2.3 3.63 2.3 3.33 2.3 3.3 2.3 3.27 2.28 3.27 1.44 3.27 1.41 3.27 1.41 3.24 1.41 3.21 1.41 3.15 1.41 3.12 1.41 3.08 1.44 3.08 3 3.08 3.14 3.08 3.17 3.08 3.17 3.05 4.92 .08"/>
      <polyline class="cls-1" points="6.72 .12 5.04 3.03 5.04 3.05 5.04 3.08 5.07 3.08 5.1 3.08 5.28 3.08"/>
      <polyline class="cls-1" points="5.28 3.27 4.79 3.27 4.76 3.27 4.76 3.24 4.76 3.21 4.76 3.18"/>
      <path class="cls-1" d="m4.93.03s-.03,0-.04.02"/>
      <path class="cls-1" d="m6.71.09s0-.03,0-.04c0-.01-.02-.02-.04-.02"/>
      <line class="cls-1" x1="4.76" y1="3.15" x2="6.42" y2=".3"/>
      <path class="cls-1" d="m6.38.27s0-.03,0-.04c0-.01-.02-.02-.04-.02"/>
      <line class="cls-1" x1="4.95" y1=".05" x2="6.69" y2=".05"/>
      <line class="cls-1" x1="5.07" y1=".24" x2="6.36" y2=".24"/>
      <path class="cls-1" d="m5.05.21s-.03,0-.04.02"/>
      <path class="cls-1" d="m4.74,3.14s0,.01,0,.02"/>
      <polyline class="cls-1" points="19.55 .27 17.91 3.08 17.91 3.12 17.91 3.21 17.91 3.24 17.91 3.27 17.88 3.27 13.7 3.27"/>
      <polyline class="cls-1" points="9.8 3.27 8.51 3.27 5.28 3.27"/>
      <polyline class="cls-1" points="17.54 3.08 17.7 3.08 17.73 3.08 17.73 3.05 19.47 .08"/>
      <polyline class="cls-1" points="19.5 .05 21.2 .05 21.23 .05 21.26 .05 21.26 .08 21.26 .12 19.64 2.94 19.47 3.21 19.47 3.24 19.47 3.27 19.5 3.3 19.53 3.3 19.79 3.3"/>
      <polyline class="cls-1" points="19.79 3.45 19.23 3.45 19.2 3.45 19.2 3.42 19.2 3.36"/>
      <path class="cls-1" d="m19.48.03s-.03,0-.04.02"/>
      <polyline class="cls-1" points="19.2 3.33 19.44 2.94 20.94 .3"/>
      <path class="cls-1" d="m20.93.27s0-.03,0-.04c0-.01-.02-.02-.04-.02"/>
      <line class="cls-1" x1="19.58" y1=".24" x2="20.91" y2=".24"/>
      <path class="cls-1" d="m19.57.21s-.03,0-.04.02"/>
      <path class="cls-1" d="m19.17,3.32s0,.01,0,.02"/>
      <polyline class="cls-1" points="12.26 .27 10.64 3.08 10.64 3.51 10.64 3.54 10.67 3.57 10.86 3.57 10.89 3.57 10.89 3.6 10.92 3.6 10.92 3.8 10.92 3.83 10.89 3.83 10.89 3.87 10.86 3.87 10.2 3.87 10.17 3.87 10.17 3.83 10.14 3.83 10.14 3.8 10.14 3.6 10.14 3.57 10.17 3.57 10.2 3.57 10.41 3.57 10.44 3.57 10.44 3.54 10.47 3.54 10.47 3.51 10.47 3.33 10.47 3.3 10.44 3.27 10.41 3.27 9.8 3.27"/>
      <polyline class="cls-1" points="9.8 3.08 10.41 3.08 10.44 3.08 10.44 3.05 12.17 .08"/>
      <polyline class="cls-1" points="13.98 .12 12.29 3.03 12.29 3.05 12.32 3.08 12.35 3.08 13.7 3.08"/>
      <polyline class="cls-1" points="13.7 3.27 12.05 3.27 12.03 3.27 12.03 3.24 12.03 3.21 12.03 3.18 12.03 3.15 13.67 .3"/>
      <path class="cls-1" d="m12.19.03s-.03,0-.04.02"/>
      <path class="cls-1" d="m13.97.09s0-.03,0-.04c0-.01-.02-.02-.04-.02"/>
      <path class="cls-1" d="m13.64.27s0-.03,0-.04c0-.01-.02-.02-.04-.02"/>
      <line class="cls-1" x1="12.2" y1=".05" x2="13.95" y2=".05"/>
      <line class="cls-1" x1="12.32" y1=".24" x2="13.61" y2=".24"/>
      <path class="cls-1" d="m12.31.21s-.03,0-.04.02"/>
      <polyline class="cls-1" points="23.48 3.08 24.98 3.08 28.01 3.08"/>
      <line class="cls-1" x1="31.92" y1="3.08" x2="35.76" y2="3.08"/>
      <polyline class="cls-1" points="38.01 3.3 38.67 3.3 38.7 3.3 38.7 3.33 38.73 3.33 38.73 3.54 38.7 3.57 38.7 3.6 38.7 3.63 38.67 3.63 38.67 3.66 38.64 3.66 38.6 3.66"/>
      <polyline class="cls-1" points="38.01 3.45 38.48 3.45 38.48 3.54 38.48 3.57 38.48 3.6 38.51 3.63 38.54 3.66 38.57 3.66 38.6 3.66"/>
      <polyline class="cls-1" points="23.22 .27 21.63 3 21.6 3.08 21.6 3.12 21.6 3.21 21.6 3.24 21.57 3.24 21.57 3.27 21.54 3.27 20.76 3.27 20.73 3.27 20.73 3.3 20.73 3.33 20.73 3.8 20.73 3.83 20.7 3.83 20.7 3.87 20.67 3.87 20.54 3.87 18.26 3.87 18.26 3.83 18.23 3.83 18.23 3.8 18.23 3.72 18.23 3.69 18.26 3.69 18.45 3.69 18.78 3.69 18.8 3.69 18.83 3.69 20.48 3.69 20.51 3.69 20.51 3.66 20.54 3.66 20.54 3.63 20.54 3.33 20.54 3.3 20.51 3.3 20.51 3.27 20.48 3.27 19.67 3.27 19.64 3.27 19.61 3.24 19.61 3.21 19.61 3.15 19.61 3.12 19.64 3.08 19.67 3.08 21.2 3.08 21.35 3.08 21.39 3.08 21.39 3.05 23.13 .08"/>
      <polyline class="cls-1" points="24.92 .12 23.28 3.03 23.25 3.03 23.25 3.05 23.28 3.05 23.28 3.08 23.3 3.08 23.48 3.08"/>
      <polyline class="cls-1" points="23.48 3.27 23.04 3.27 23.01 3.27 22.98 3.27 22.98 3.24 22.98 3.21 22.98 3.18"/>
      <path class="cls-1" d="m23.14.03s-.03,0-.04.02"/>
      <path class="cls-1" d="m24.92.09s0-.03,0-.04c0-.01-.02-.02-.04-.02"/>
      <line class="cls-1" x1="22.98" y1="3.15" x2="24.63" y2=".3"/>
      <path class="cls-1" d="m24.62.27s0-.03,0-.04c0-.01-.02-.02-.04-.02"/>
      <line class="cls-1" x1="23.16" y1=".05" x2="24.89" y2=".05"/>
      <line class="cls-1" x1="23.28" y1=".24" x2="24.6" y2=".24"/>
      <path class="cls-1" d="m23.26.21s-.03,0-.04.02"/>
      <path class="cls-1" d="m22.98,3.14s0,.01,0,.02"/>
      <polyline class="cls-1" points="37.76 .27 36.14 3.08 36.14 3.12 36.14 3.21 36.14 3.24 36.11 3.24 36.11 3.27 36.08 3.27 31.92 3.27"/>
      <polyline class="cls-1" points="28.01 3.27 26.73 3.27 23.48 3.27"/>
      <polyline class="cls-1" points="35.76 3.08 35.91 3.08 35.94 3.08 35.94 3.05 37.67 .08"/>
      <polyline class="cls-1" points="37.7 .05 39.45 .05 39.48 .05 39.48 .08 39.48 .12 37.85 2.94 37.67 3.21 37.67 3.24 37.67 3.27 37.7 3.27 37.7 3.3 37.73 3.3 38.01 3.3"/>
      <polyline class="cls-1" points="38.01 3.45 37.47 3.45 37.44 3.45 37.41 3.45 37.41 3.42 37.41 3.36"/>
      <path class="cls-1" d="m37.69.03s-.03,0-.04.02"/>
      <polyline class="cls-1" points="37.41 3.33 37.64 2.94 39.17 .3"/>
      <path class="cls-1" d="m39.14.27s0-.03,0-.04c0-.01-.02-.02-.04-.02"/>
      <line class="cls-1" x1="37.82" y1=".24" x2="39.11" y2=".24"/>
      <path class="cls-1" d="m37.81.21s-.03,0-.04.02"/>
      <path class="cls-1" d="m37.41,3.32s0,.01,0,.02"/>
      <polyline class="cls-1" points="30.51 .27 28.85 3.08 28.85 3.51 28.85 3.54 28.89 3.54 28.89 3.57 28.92 3.57 29.07 3.57 29.1 3.57 29.13 3.57 29.13 3.6 29.13 3.8 29.13 3.83 29.1 3.83 29.1 3.87 29.07 3.87 28.41 3.87 28.38 3.87 28.38 3.83 28.35 3.83 28.35 3.8 28.35 3.6 28.38 3.57 28.41 3.57 28.64 3.57 28.64 3.54 28.67 3.54 28.67 3.51 28.67 3.33 28.67 3.3 28.67 3.27 28.64 3.27 28.01 3.27"/>
      <polyline class="cls-1" points="28.01 3.08 28.61 3.08 28.64 3.08 28.67 3.05 30.39 .08"/>
      <polyline class="cls-1" points="32.19 .12 30.54 3.03 30.51 3.05 30.54 3.05 30.54 3.08 30.57 3.08 31.92 3.08"/>
      <polyline class="cls-1" points="31.92 3.27 30.29 3.27 30.26 3.27 30.23 3.24 30.23 3.21 30.23 3.18 30.23 3.15 31.89 .3"/>
      <path class="cls-1" d="m30.43.03s-.03,0-.04.02"/>
      <path class="cls-1" d="m32.18.09s0-.03,0-.04c0-.01-.02-.02-.04-.02"/>
      <path class="cls-1" d="m31.88.27s0-.03,0-.04c0-.01-.02-.02-.04-.02"/>
      <line class="cls-1" x1="30.45" y1=".05" x2="32.16" y2=".05"/>
      <line class="cls-1" x1="30.54" y1=".24" x2="31.85" y2=".24"/>
      <path class="cls-1" d="m30.52.21s-.03,0-.04.02"/>
    </g>
  </g>
</svg>