<?xml version="1.0" encoding="UTF-8"?>
<svg id="Capa_2" data-name="Capa 2" xmlns="http://www.w3.org/2000/svg" viewBox="0 0 20.51 3.86">
  <defs>
    <style>
      .cls-1 {
        fill: none;
        stroke: #000;
        stroke-miterlimit: 10;
        stroke-width: .05px;
      }
    </style>
  </defs>
  <g id="Capa_1-2" data-name="Capa 1">
    <g>
      <polyline class="cls-1" points="19.79 3.27 20.45 3.27 20.45 3.3 20.48 3.3 20.48 3.33 20.48 3.54 20.48 3.57 20.48 3.6 20.45 3.6 20.45 3.63 20.42 3.63 20.39 3.66 20.36 3.66"/>
      <polyline class="cls-1" points="19.79 3.45 20.25 3.45 20.25 3.54 20.28 3.57 20.28 3.6 20.3 3.63 20.33 3.63 20.36 3.66"/>
      <polyline class="cls-1" points="3.03 3.09 3.14 3.09 3.17 3.06 3.17 3.03 3.17 3 2.39 1.62 2.36 1.62 2.39 1.59 2.39 1.56 2.42 1.56 4.17 1.56 4.2 1.56 4.2 1.59 5.04 3.06 5.07 3.06 5.07 3.09 5.1 3.09 5.28 3.09"/>
      <polyline class="cls-1" points="17.57 3.09 17.7 3.09 17.73 3.06 17.73 3.03 17.73 3 16.95 1.62 16.92 1.62 16.92 1.59 16.95 1.59 16.95 1.56 16.98 1.56 18.69 1.56 18.72 1.56 18.75 1.59 19.58 3.03 19.58 3.06 19.58 3.24 19.58 3.27 19.61 3.27 19.79 3.27"/>
      <polyline class="cls-1" points="16.26 3.27 18 3.27 18.03 3.27 18.03 3.24 18.05 3.21 18.03 3.21 18.03 3.18 17.25 1.8 17.25 1.77 17.25 1.74 17.28 1.74 18.6 1.74 18.63 1.74 18.63 1.77 19.41 3.09 19.41 3.12"/>
      <polyline class="cls-1" points="19.41 3.12 19.41 3.39 19.41 3.41 19.41 3.45 19.44 3.45 19.79 3.45"/>
      <polyline class="cls-1" points="13.92 3.09 12.35 3.09 12.32 3.09 12.32 3.06 12.29 3.06 10.58 .06 10.55 .06 10.55 .03 10.53 .03 8.82 .03 8.79 .06 8.79 .09 8.76 .09 8.79 .12 10.44 3 10.44 3.03 10.47 3.03 10.44 3.06 10.44 3.09 10.41 3.09 9 3.09"/>
      <polyline class="cls-1" points="3.03 3.09 1.44 3.09 1.41 3.09 1.41 3.12 1.41 3.21 1.41 3.24 1.44 3.27 2.28 3.27 2.3 3.27 2.3 3.3 2.3 3.63 2.3 3.66 2.28 3.66 .6 3.66 .57 3.69 .57 3.66 .23 3.66 .05 3.66 .03 3.69 .03 3.72 .03 3.8 .03 3.84 .05 3.84 2.3 3.84 2.45 3.84 2.48 3.84 2.48 3.8 2.48 3.3 2.51 3.27 2.54 3.27 3.45 3.27 3.48 3.27 3.48 3.24 3.51 3.24 3.51 3.21 3.48 3.18 2.7 1.8 2.7 1.77 2.7 1.74 2.73 1.74 4.04 1.74 4.07 1.74 4.07 1.77 4.95 3.24 4.98 3.27 6.66 3.27"/>
      <polyline class="cls-1" points="9 3.27 10.41 3.27 10.44 3.27 10.47 3.27 10.47 3.3 10.47 3.51 10.47 3.54 10.44 3.54 10.41 3.54 10.2 3.54 10.17 3.54 10.17 3.57 10.14 3.57 10.14 3.6 10.14 3.8 10.14 3.84 10.17 3.84 10.2 3.84 10.86 3.84 10.89 3.84 10.89 3.8 10.92 3.8 10.92 3.6 10.92 3.57 10.89 3.57 10.89 3.54 10.86 3.54 10.67 3.54 10.64 3.54 10.64 3.51 10.64 3 10.64 2.97 9.08 .3 9.08 .27 9.08 .24 9.11 .24 9.11 .21 10.44 .21 10.47 .24 12.2 3.24 12.23 3.24 12.23 3.27 13.92 3.27"/>
      <polyline class="cls-1" points="5.28 3.09 6.78 3.09 6.8 3.06 6.8 3.03 6.8 3 6.03 1.62 6.03 1.59 6.03 1.56 6.05 1.56 7.79 1.56 7.82 1.56 7.82 1.59 8.67 3.06 8.7 3.06 8.7 3.09 8.73 3.09 9 3.09"/>
      <polyline class="cls-1" points="6.66 3.27 7.07 3.27 7.11 3.27 7.11 3.24 7.14 3.24 7.14 3.21 7.14 3.18 6.32 1.8 6.32 1.77 6.32 1.74 6.36 1.74 7.67 1.74 7.7 1.74 7.7 1.77 7.73 1.77 8.57 3.24 8.61 3.27 9 3.27"/>
      <polyline class="cls-1" points="13.92 3.09 14.04 3.09 14.07 3.09 14.07 3.06 14.1 3.06 14.1 3.03 14.07 3 13.29 1.62 13.29 1.59 13.32 1.56 15.05 1.56 15.08 1.56 15.08 1.59 15.92 3.06 15.95 3.06 15.95 3.09 15.98 3.09 17.57 3.09"/>
      <polyline class="cls-1" points="13.92 3.27 14.33 3.27 14.36 3.27 14.36 3.24 14.39 3.24 14.39 3.21 14.39 3.18 13.58 1.8 13.58 1.77 13.61 1.74 13.64 1.74 14.94 1.74 14.97 1.74 15 1.77 15.83 3.24 15.86 3.24 15.86 3.27 16.26 3.27"/>
    </g>
  </g>
</svg>