<?xml version="1.0" encoding="UTF-8"?>
<svg id="Capa_2" data-name="Capa 2" xmlns="http://www.w3.org/2000/svg" viewBox="0 0 38.75 1.64">
  <defs>
    <style>
      .cls-1 {
        fill: none;
        stroke: #000;
        stroke-linecap: round;
        stroke-linejoin: round;
        stroke-width: .05px;
      }
    </style>
  </defs>
  <g id="Capa_1-2" data-name="Capa 1">
    <g>
      <polyline class="cls-1" points="19.55 .89 19.55 1.02 19.55 1.05 19.58 1.05 19.61 1.08 20.45 1.08 20.48 1.08 20.48 1.11 20.48 1.32 20.48 1.35 20.48 1.38 20.45 1.38 20.45 1.41 20.42 1.41 20.42 1.44 20.39 1.44 20.36 1.44"/>
      <polyline class="cls-1" points="19.25 .86 19.25 .89 19.41 1.2 19.44 1.23 19.47 1.23 20.25 1.23 20.25 1.32 20.28 1.35 20.28 1.38 20.3 1.41 20.33 1.44 20.36 1.44"/>
      <line class="cls-1" x1="19.25" y1=".89" x2="19.25" y2=".89"/>
      <line class="cls-1" x1="19.25" y1=".86" x2="19.25" y2=".78"/>
      <polyline class="cls-1" points="18.05 1.05 17.06 1.05 17.03 1.05 17.03 1.02 17.03 .99 17.03 .86"/>
      <polyline class="cls-1" points="16.01 1.05 10.7 1.05 10.67 1.05 10.64 1.05 10.64 1.08 10.64 1.29 10.64 1.32 10.67 1.32 10.7 1.32 10.85 1.32 10.88 1.32 10.88 1.35 10.91 1.35 10.91 1.38 10.91 1.59 10.91 1.61 10.88 1.61 10.85 1.61 10.19 1.61 10.16 1.61 10.13 1.61 10.13 1.59 10.13 1.38 10.13 1.35 10.16 1.35 10.16 1.32 10.19 1.32 10.41 1.32 10.44 1.32 10.47 1.32 10.47 1.29 10.47 1.08 10.47 1.05 10.44 1.05 10.41 1.05 2.75 1.05 2.54 1.05 2.51 1.05 2.51 1.08 2.48 1.08 2.48 1.59 2.48 1.61 2.45 1.61 2.33 1.61 .05 1.61 .03 1.61 .03 1.59 .03 1.5 .03 1.47 .05 1.47 .05 1.44 .23 1.44 .56 1.44 .59 1.47 .59 1.44 2.28 1.44 2.3 1.44 2.3 1.41 2.33 1.41 2.33 1.08 2.3 1.08 2.3 1.05 2.28 1.05 1.44 1.05 1.41 1.02 1.41 .99 1.41 .89 1.41 .86 1.44 .86 1.82 .86 11.3 .86 15.38 .86 16.01 .86"/>
      <line class="cls-1" x1="17.39" y1=".86" x2="18.05" y2=".86"/>
      <path class="cls-1" d="m19.41.84c.14-.16.16-.38.05-.57-.1-.18-.31-.28-.51-.24-.21.04-.37.2-.4.4"/>
      <path class="cls-1" d="m19.23.76c.11-.09.15-.24.09-.37-.05-.13-.19-.21-.33-.19-.14.02-.25.12-.28.26"/>
      <path class="cls-1" d="m18.04.84c.24,0,.45-.17.49-.41"/>
      <path class="cls-1" d="m18.04,1.02c.33,0,.61-.23.66-.56"/>
      <path class="cls-1" d="m19.53.88s-.02-.05-.05-.05"/>
      <line class="cls-1" x1="19.44" y1=".86" x2="19.5" y2=".86"/>
      <path class="cls-1" d="m17.37.84c.14-.16.16-.38.05-.57-.1-.18-.31-.28-.51-.24-.21.04-.37.2-.4.4"/>
      <path class="cls-1" d="m17,.83c.17,0,.3-.14.31-.3s-.12-.31-.28-.33c-.16-.02-.32.09-.34.26"/>
      <path class="cls-1" d="m16,.84c.24,0,.45-.17.49-.41"/>
      <path class="cls-1" d="m16,1.02c.33,0,.61-.23.66-.56"/>
      <polyline class="cls-1" points="37.76 .89 37.76 1.02 37.79 1.05 37.82 1.05 37.82 1.08 38.66 1.08 38.69 1.08 38.72 1.08 38.72 1.11 38.72 1.32 38.72 1.35 38.69 1.35 38.69 1.38 38.66 1.41 38.63 1.44 38.6 1.44"/>
      <polyline class="cls-1" points="37.47 .78 37.47 .86 37.47 .89 37.5 .89 37.64 1.2 37.64 1.23 37.67 1.23 38.48 1.23 38.48 1.32 38.48 1.35 38.48 1.38 38.51 1.38 38.51 1.41 38.54 1.41 38.54 1.44 38.57 1.44 38.6 1.44"/>
      <polyline class="cls-1" points="36.26 1.05 35.3 1.05 35.28 1.05 35.28 1.02 35.25 1.02 35.25 .99 35.25 .86"/>
      <polyline class="cls-1" points="34.22 1.05 28.91 1.05 28.88 1.05 28.88 1.08 28.85 1.08 28.85 1.29 28.88 1.32 28.91 1.32 29.09 1.32 29.09 1.35 29.12 1.35 29.12 1.38 29.12 1.59 29.12 1.61 29.09 1.61 28.41 1.61 28.37 1.61 28.37 1.59 28.34 1.59 28.34 1.38 28.37 1.35 28.41 1.32 28.64 1.32 28.67 1.32 28.67 1.29 28.67 1.08 28.67 1.05 28.64 1.05 20.97 1.05 20.75 1.05 20.72 1.05 20.72 1.08 20.72 1.59 20.72 1.61 20.69 1.61 20.66 1.61 20.54 1.61 18.29 1.61 18.26 1.61 18.23 1.61 18.23 1.59 18.23 1.5 18.23 1.47 18.26 1.47 18.26 1.44 18.29 1.44 18.44 1.44 18.78 1.44 18.8 1.47 18.83 1.44 20.48 1.44 20.51 1.44 20.54 1.44 20.54 1.41 20.54 1.08 20.51 1.05 20.48 1.05 19.67 1.05 19.64 1.05 19.64 1.02 19.61 1.02 19.61 .99 19.61 .89 19.64 .86 19.67 .86 20.03 .86 29.51 .86 33.59 .86 34.22 .86"/>
      <line class="cls-1" x1="35.63" y1=".86" x2="36.26" y2=".86"/>
      <path class="cls-1" d="m37.62.84c.14-.16.16-.38.05-.57-.1-.18-.31-.28-.51-.24-.21.04-.37.2-.4.4"/>
      <path class="cls-1" d="m37.44.76c.11-.09.15-.24.09-.37-.05-.13-.19-.21-.33-.19-.14.02-.25.12-.28.26"/>
      <path class="cls-1" d="m36.25.84c.24,0,.45-.17.49-.41"/>
      <path class="cls-1" d="m36.25,1.02c.33,0,.61-.23.66-.56"/>
      <path class="cls-1" d="m37.76.88s-.02-.05-.05-.05"/>
      <line class="cls-1" x1="37.64" y1=".86" x2="37.73" y2=".86"/>
      <path class="cls-1" d="m35.61.84c.14-.16.16-.38.05-.57-.1-.18-.31-.28-.51-.24-.21.04-.37.2-.4.4"/>
      <path class="cls-1" d="m35.24.83c.17,0,.3-.14.31-.3s-.12-.31-.28-.33c-.16-.02-.32.09-.34.26"/>
      <path class="cls-1" d="m34.21.84c.24,0,.45-.17.49-.41"/>
      <path class="cls-1" d="m34.21,1.02c.33,0,.61-.23.66-.56"/>
    </g>
  </g>
</svg>