<?xml version="1.0" encoding="UTF-8"?>
<svg id="Capa_2" data-name="Capa 2" xmlns="http://www.w3.org/2000/svg" viewBox="0 0 43.24 3.87">
  <defs>
    <style>
      .cls-1 {
        fill: none;
        stroke: #000;
        stroke-linecap: round;
        stroke-linejoin: round;
        stroke-width: .1px;
      }
    </style>
  </defs>
  <g id="_0" data-name="0">
    <g>
      <g id="LWPOLYLINE">
        <path class="cls-1" d="m8.55,2.2h9.59s.06-.01.08-.03L20.03.08s0,0,0,0c.04-.04.11-.03.14,0l1.81,2.08s.05.03.08.03h.88s.06-.01.08-.03L24.83.08s0,0,0,0c.04-.04.11-.03.14,0l1.81,2.08s.05.03.08.03h10.47s.06-.01.08-.03l1.81-2.08s0,0,0,0c.04-.04.11-.03.14,0l1.81,2.09s.02.04.02.07v.29c0,.06.04.1.1.1h1.78c.06,0,.1.04.1.1v.43c0,.14-.11.25-.25.25h0c-.14,0-.25-.11-.25-.25v-.18h-1.73c-.06,0-.1-.04-.1-.1v-.47s0-.05-.02-.07l-1.54-1.77-1.6,1.84c-.09.1-.22.16-.36.16h-10.47c-.14,0-.27-.06-.36-.16l-1.6-1.84-1.6,1.84c-.09.1-.22.16-.36.16h-.41c-.06,0-.1.04-.1.1v.41c0,.06.04.1.1.1h.36c.06,0,.1.04.1.1v.43c0,.06-.04.1-.1.1h-1.43c-.06,0-.1-.04-.1-.1v-.43c0-.06.04-.1.1-.1h.49c.06,0,.1-.04.1-.1v-.42s-.03-.09-.08-.1c-.11-.02-.2-.07-.27-.16l-1.6-1.84-1.6,1.84c-.09.1-.22.16-.36.16h-9.59s-.88,0-.88,0c-.14,0-.27-.06-.36-.16l-1.6-1.84-1.27,1.47s-.03.11,0,.14c.02.02.04.02.07.02h1.58c.06,0,.1.04.1.1v.18c0,.06-.04.1-.1.1h-.72c-.06,0-.1.04-.1.1v1.04c0,.06-.04.1-.1.1H.15c-.06,0-.1-.04-.1-.1v-.18c0-.06.04-.1.1-.1h1.05l.05.03.05-.03h3.51c.06,0,.1-.04.1-.1v-.66c0-.06-.04-.1-.1-.1h-1.74c-.06,0-.1-.04-.1-.1v-.18c0-.06.04-.1.1-.1h.69s.06-.01.08-.03L5.64.08s0,0,0,0c.04-.04.11-.03.14,0l1.81,2.08s.05.03.08.03h.88Z"/>
      </g>
      <g id="LINE">
        <line class="cls-1" x1="19.13" y1="1.13" x2="20.03" y2=".08"/>
      </g>
      <g id="LINE-2" data-name="LINE">
        <line class="cls-1" x1="20.18" y1=".08" x2="21.09" y2="1.13"/>
      </g>
    </g>
  </g>
</svg>