<?xml version="1.0" encoding="UTF-8"?>
<svg id="Capa_2" data-name="Capa 2" xmlns="http://www.w3.org/2000/svg" viewBox="0 0 20.51 3.89">
  <defs>
    <style>
      .cls-1 {
        fill: none;
        stroke: #000;
        stroke-miterlimit: 10;
        stroke-width: .05px;
      }
    </style>
  </defs>
  <g id="Capa_1-2" data-name="Capa 1">
    <g>
      <polyline class="cls-1" points="19.79 3.29 20.45 3.29 20.48 3.29 20.48 3.32 20.48 3.54 20.48 3.57 20.48 3.6 20.45 3.63 20.42 3.66 20.39 3.66 20.36 3.66"/>
      <polyline class="cls-1" points="19.79 3.44 20.25 3.44 20.25 3.54 20.25 3.57 20.28 3.6 20.28 3.63 20.3 3.63 20.3 3.66 20.33 3.66 20.36 3.66"/>
      <polyline class="cls-1" points="3.57 3.26 2.54 3.26 2.51 3.26 2.51 3.29 2.48 3.29 2.48 3.32 2.48 3.8 2.48 3.83 2.45 3.83 2.45 3.86 2.3 3.86 .05 3.86 .03 3.83 .03 3.8 .03 3.72 .03 3.69 .05 3.69 .23 3.69 .57 3.69 .6 3.69 2.28 3.69 2.3 3.69 2.3 3.66 2.3 3.63 2.3 3.32 2.3 3.29 2.3 3.26 2.28 3.26 1.44 3.26 1.41 3.26 1.41 3.23 1.41 3.2 1.41 3.14 1.41 3.11 1.41 3.08 1.44 3.08 3.57 3.08 3.98 3.08 4.01 3.08 4.01 3.05 4.04 3.05 4.04 3.03 2.36 .11"/>
      <polyline class="cls-1" points="4.07 .26 5.79 3.23 5.79 3.26 5.82 3.26 7.26 3.26 7.29 3.26 7.29 3.23 7.32 3.23 7.32 3.2 7.29 3.2 6.51 1.82 6.51 1.79 6.51 1.76 6.54 1.76 6.54 1.73 7.86 1.73 7.86 1.76 7.89 1.76 8.76 3.23 8.76 3.26 8.79 3.26 9.8 3.26"/>
      <polyline class="cls-1" points="17.04 3.26 17.33 3.26 17.36 3.26 17.36 3.23 17.88 2.39 17.91 2.36 19.23 2.36 19.26 2.39 19.26 2.42 19.26 2.45 18.83 3.2 18.83 3.23 18.83 3.26 18.86 3.26 19.35 3.26 19.38 3.26 19.38 3.29 19.41 3.29 19.41 3.32 19.41 3.41 19.41 3.44 19.44 3.44 19.79 3.44"/>
      <polyline class="cls-1" points="4.17 .08 5.91 3.05 5.91 3.08 5.94 3.08 6.78 3.08"/>
      <polyline class="cls-1" points="3.57 3.26 4.29 3.26 4.32 3.26 4.35 3.26 4.35 3.23 4.35 3.2 2.67 .29"/>
      <path class="cls-1" d="m4.16.05s-.02-.02-.04-.02"/>
      <path class="cls-1" d="m2.38.03s-.03,0-.04.02c0,.01,0,.03,0,.05"/>
      <path class="cls-1" d="m2.71.2s-.03,0-.04.02c0,.01,0,.03,0,.05"/>
      <line class="cls-1" x1="4.14" y1=".05" x2="2.39" y2=".05"/>
      <line class="cls-1" x1="4.01" y1=".23" x2="2.73" y2=".23"/>
      <path class="cls-1" d="m4.04.23s-.02-.02-.04-.02"/>
      <polyline class="cls-1" points="6.78 3.08 6.95 3.08 6.98 3.08 6.98 3.05 6.98 3.03 6.2 1.64 6.17 1.64 6.17 1.61 6.17 1.58 6.2 1.58 6.23 1.58 6.23 1.55 7.95 1.55 7.98 1.58 8.01 1.58 8.85 3.05 8.85 3.08 8.88 3.08 9.89 3.08"/>
      <polyline class="cls-1" points="11.94 .26 10.64 2.48 10.64 3.5 10.64 3.54 10.64 3.57 10.67 3.57 10.86 3.57 10.89 3.57 10.89 3.6 10.92 3.6 10.92 3.8 10.92 3.83 10.89 3.83 10.89 3.86 10.86 3.86 10.2 3.86 10.17 3.86 10.17 3.83 10.14 3.83 10.14 3.8 10.14 3.6 10.14 3.57 10.17 3.57 10.2 3.57 10.41 3.57 10.44 3.57 10.44 3.54 10.47 3.54 10.47 3.5 10.47 2.97 10.47 2.94 10.44 2.94 10.41 2.94 10.38 2.94 10.2 3.23 10.2 3.26 10.17 3.26 9.8 3.26"/>
      <polyline class="cls-1" points="9.89 3.08 10.04 3.08 10.07 3.08 10.11 3.08 10.11 3.05 11.82 .08"/>
      <polyline class="cls-1" points="13.61 .11 11.97 3.03 11.97 3.05 11.97 3.08 12 3.08 14.76 3.08"/>
      <polyline class="cls-1" points="14.76 3.26 11.73 3.26 11.7 3.26 11.7 3.23 11.67 3.23 11.67 3.2 11.67 3.17"/>
      <path class="cls-1" d="m11.86.03s-.03,0-.04.02"/>
      <path class="cls-1" d="m13.61.09s0-.03,0-.05c0-.01-.02-.02-.04-.02"/>
      <line class="cls-1" x1="11.67" y1="3.14" x2="13.32" y2=".29"/>
      <path class="cls-1" d="m13.31.27s0-.03,0-.05c0-.01-.02-.02-.04-.02"/>
      <line class="cls-1" x1="11.88" y1=".05" x2="13.58" y2=".05"/>
      <line class="cls-1" x1="11.97" y1=".23" x2="13.29" y2=".23"/>
      <path class="cls-1" d="m11.95.2s-.03,0-.04.02"/>
      <path class="cls-1" d="m11.67,3.14s0,.01,0,.02"/>
      <polyline class="cls-1" points="14.76 3.08 14.94 3.08 14.97 3.08 14.97 3.05 15 3.05 14.97 3.03 14.19 1.64 14.19 1.61 14.19 1.58 14.22 1.58 14.22 1.55 15.95 1.55 15.95 1.58 15.98 1.58 16.82 3.05 16.82 3.08 16.85 3.08 16.89 3.08 17.04 3.08"/>
      <polyline class="cls-1" points="14.76 3.26 15.23 3.26 15.26 3.26 15.29 3.23 15.29 3.2 14.48 1.82 14.48 1.79 14.48 1.76 14.51 1.76 14.51 1.73 14.54 1.73 15.83 1.73 15.86 1.76 15.89 1.76 16.73 3.23 16.73 3.26 16.76 3.26 17.04 3.26"/>
      <polyline class="cls-1" points="19.79 3.29 19.61 3.29 19.58 3.26 19.58 3.23 19.58 3.14 19.58 3.11 19.55 3.11 19.55 3.08 19.53 3.08 19.17 3.08 19.14 3.08 19.14 3.05 19.14 3.03 19.55 2.28 19.58 2.25 19.58 2.22 19.55 2.22 19.55 2.19 19.53 2.19 17.82 2.19 17.79 2.19 17.79 2.22 17.76 2.22 17.28 3.05 17.28 3.08 17.25 3.08 17.04 3.08"/>
    </g>
  </g>
</svg>