<?xml version="1.0" encoding="UTF-8" standalone="no"?>
<svg
   id="Capa_2"
   data-name="Capa 2"
   viewBox="0 0 20.5 1.6387905"
   version="1.1"
   sodipodi:docname="matrix9_n.svg"
   width="20.5"
   height="1.6387905"
   inkscape:version="1.3.2 (091e20e, 2023-11-25, custom)"
   xmlns:inkscape="http://www.inkscape.org/namespaces/inkscape"
   xmlns:sodipodi="http://sodipodi.sourceforge.net/DTD/sodipodi-0.dtd"
   xmlns="http://www.w3.org/2000/svg"
   xmlns:svg="http://www.w3.org/2000/svg">
  <sodipodi:namedview
     id="namedview47"
     pagecolor="#ffffff"
     bordercolor="#000000"
     borderopacity="0.25"
     inkscape:showpageshadow="2"
     inkscape:pageopacity="0.0"
     inkscape:pagecheckerboard="0"
     inkscape:deskcolor="#d1d1d1"
     showgrid="false"
     inkscape:zoom="52.877419"
     inkscape:cx="22.457601"
     inkscape:cy="0.82265739"
     inkscape:window-width="2560"
     inkscape:window-height="1369"
     inkscape:window-x="-8"
     inkscape:window-y="-8"
     inkscape:window-maximized="1"
     inkscape:current-layer="g47" />
  <defs
     id="defs1">
    <style
       id="style1">
      .cls-1 {
        fill: none;
        stroke: #000;
        stroke-linecap: round;
        stroke-linejoin: round;
        stroke-width: .05px;
      }
    </style>
  </defs>
  <g
     id="Capa_1-2"
     data-name="Capa 1"
     transform="translate(-0.005,0.00379047)">
    <g
       id="g47">
      <line
         class="cls-1"
         x1="3.1700001"
         y1="0.87"
         x2="3.8299999"
         y2="0.87"
         id="line1" />
      <line
         class="cls-1"
         x1="5.2199998"
         y1="0.87"
         x2="5.8400002"
         y2="0.87"
         id="line2" />
      <line
         class="cls-1"
         x1="7.25"
         y1="0.87"
         x2="7.8800001"
         y2="0.87"
         id="line3" />
      <polyline
         class="cls-1"
         points="9.26 .87 13.34 .87 19.5 .87 19.53 .87 19.55 .87 19.55 .9 19.55 1.02 19.55 1.05 19.58 1.05 19.58 1.08 19.61 1.08 20.45 1.08 20.48 1.08 20.48 1.11 20.48 1.31 20.48 1.34 20.48 1.37 20.45 1.4 20.42 1.4 20.42 1.43 20.39 1.43 20.36 1.43"
         id="polyline3" />
      <polyline
         class="cls-1"
         points="8.91 .87 8.91 .99 8.91 1.02 8.91 1.05 8.94 1.05 10.41 1.05 10.44 1.05 10.47 1.05 10.47 1.08 10.47 1.28 10.47 1.31 10.44 1.31 10.44 1.34 10.41 1.34 10.19 1.34 10.16 1.34 10.13 1.34 10.13 1.37 10.13 1.58 10.13 1.61 10.16 1.61 10.19 1.61 10.85 1.61 10.88 1.61 10.91 1.61 10.91 1.58 10.91 1.37 10.91 1.34 10.88 1.34 10.85 1.34 10.7 1.34 10.67 1.34 10.67 1.31 10.64 1.31 10.64 1.28 10.64 1.08 10.64 1.05 10.67 1.05 10.7 1.05 19.34 1.05 19.37 1.05 19.37 1.08 19.37 1.19 19.37 1.22 19.41 1.22 19.44 1.22 20.25 1.22 20.25 1.31 20.28 1.34 20.28 1.37 20.28 1.4 20.3 1.4 20.33 1.43 20.36 1.43"
         id="polyline4" />
      <polyline
         class="cls-1"
         points="7.88 1.05 6.92 1.05 6.89 1.05 6.89 1.02 6.86 1.02 6.86 .99 6.86 .87"
         id="polyline5" />
      <polyline
         class="cls-1"
         points="5.84 1.05 4.88 1.05 4.85 1.05 4.85 1.02 4.82 1.02 4.82 .99 4.82 .87"
         id="polyline6" />
      <polyline
         class="cls-1"
         points="3.83 1.05 2.75 1.05 2.54 1.05 2.51 1.05 2.51 1.08 2.48 1.08 2.48 1.58 2.48 1.61 2.45 1.61 2.33 1.61 .05 1.61 .03 1.61 .03 1.58 .03 1.49 .03 1.46 .05 1.46 .23 1.46 .56 1.46 .59 1.46 2.28 1.46 2.28 1.43 2.3 1.43 2.3 1.4 2.33 1.4 2.33 .77"
         id="polyline7" />
      <polyline
         class="cls-1"
         points="1.79 1.05 1.44 1.05 1.41 1.02 1.41 .99 1.41 .9 1.41 .87 1.44 .87 1.82 .87"
         id="polyline8" />
      <path
         class="cls-1"
         d="M 3.15,0.84 C 3.29,0.68 3.31,0.46 3.2,0.27 3.1,0.09 2.89,-0.01 2.69,0.03 2.48,0.07 2.32,0.23 2.29,0.43"
         id="path8" />
      <path
         class="cls-1"
         d="M 2.77,0.83 C 2.92,0.83 3.06,0.72 3.08,0.57 3.1,0.42 3.02,0.27 2.87,0.22 2.72,0.17 2.56,0.24 2.49,0.37"
         id="path9" />
      <path
         class="cls-1"
         d="m 1.78,0.83 c 0.24,0 0.45,-0.17 0.49,-0.41"
         id="path10" />
      <path
         class="cls-1"
         d="m 1.78,1.02 c 0.2,0 0.39,-0.09 0.52,-0.25"
         id="path11" />
      <line
         class="cls-1"
         x1="2.48"
         y1="0.80000001"
         x2="2.48"
         y2="0.38"
         id="line11" />
      <line
         class="cls-1"
         x1="2.78"
         y1="0.87"
         x2="2.54"
         y2="0.87"
         id="line12" />
      <path
         class="cls-1"
         d="m 2.48,0.79 c 0,0 0.02,0.04 0.05,0.04"
         id="path12" />
      <path
         class="cls-1"
         d="M 5.19,0.84 C 5.33,0.68 5.35,0.46 5.24,0.27 5.14,0.09 4.93,-0.01 4.73,0.03 4.52,0.07 4.36,0.23 4.33,0.43"
         id="path13" />
      <path
         class="cls-1"
         d="m 4.82,0.83 c 0.17,0 0.3,-0.14 0.31,-0.3 C 5.13,0.36 5.01,0.22 4.85,0.2 4.69,0.18 4.53,0.29 4.51,0.46"
         id="path14" />
      <path
         class="cls-1"
         d="m 3.82,0.83 c 0.24,0 0.45,-0.17 0.49,-0.41"
         id="path15" />
      <path
         class="cls-1"
         d="m 3.82,1.02 c 0.33,0 0.61,-0.23 0.66,-0.56"
         id="path16" />
      <path
         class="cls-1"
         d="M 7.23,0.84 C 7.37,0.68 7.39,0.46 7.28,0.27 7.18,0.09 6.97,-0.01 6.77,0.03 6.56,0.07 6.4,0.23 6.37,0.43"
         id="path17" />
      <path
         class="cls-1"
         d="m 6.86,0.83 c 0.17,0 0.3,-0.14 0.31,-0.3 C 7.17,0.36 7.05,0.22 6.89,0.2 6.73,0.18 6.57,0.29 6.55,0.46"
         id="path18" />
      <path
         class="cls-1"
         d="m 5.83,0.83 c 0.24,0 0.45,-0.17 0.49,-0.41"
         id="path19" />
      <path
         class="cls-1"
         d="m 5.83,1.02 c 0.33,0 0.61,-0.23 0.66,-0.56"
         id="path20" />
      <path
         class="cls-1"
         d="M 9.24,0.84 C 9.38,0.68 9.4,0.46 9.29,0.27 9.19,0.09 8.98,-0.01 8.78,0.03 8.57,0.07 8.41,0.23 8.38,0.43"
         id="path21" />
      <path
         class="cls-1"
         d="m 8.87,0.83 c 0.17,0 0.3,-0.14 0.31,-0.3 C 9.19,0.37 9.06,0.22 8.9,0.2 8.74,0.18 8.58,0.29 8.56,0.46"
         id="path22" />
      <path
         class="cls-1"
         d="m 7.87,0.83 c 0.24,0 0.45,-0.17 0.49,-0.41"
         id="path23" />
      <path
         class="cls-1"
         d="M 7.87,1.02 C 8.2,1.02 8.48,0.79 8.53,0.46"
         id="path24" />
    </g>
  </g>
</svg>
