<?xml version="1.0" encoding="UTF-8"?>
<svg id="Capa_2" data-name="Capa 2" xmlns="http://www.w3.org/2000/svg" viewBox="0 0 20.51 3.68">
  <defs>
    <style>
      .cls-1 {
        fill: none;
        stroke: #000;
        stroke-miterlimit: 10;
        stroke-width: .05px;
      }
    </style>
  </defs>
  <g id="Capa_1-2" data-name="Capa 1">
    <g>
      <polyline class="cls-1" points="19.5 2.91 19.5 2.91 19.53 2.91 19.55 2.91 19.55 2.94 19.55 3.06 19.55 3.08 19.58 3.08 19.58 3.11 19.61 3.11 20.45 3.11 20.48 3.11 20.48 3.14 20.48 3.35 20.48 3.38 20.48 3.41 20.45 3.41 20.45 3.44 20.42 3.44 20.42 3.47 20.39 3.47 20.36 3.47"/>
      <polyline class="cls-1" points="11.54 3.08 19.34 3.08 19.37 3.08 19.37 3.11 19.37 3.23 19.41 3.26 19.44 3.26 20.25 3.26 20.25 3.35 20.28 3.38 20.28 3.41 20.3 3.44 20.33 3.47 20.36 3.47"/>
      <polyline class="cls-1" points="11.36 3.08 11.09 3.08 11.06 3.08 11.03 3.06 11.03 3.03 11.03 2.91"/>
      <polyline class="cls-1" points="11.54 3.08 11.54 3.32 11.54 3.35 11.57 3.35 11.6 3.35 11.78 3.35 11.78 3.38 11.81 3.38 11.81 3.41 11.81 3.63 11.81 3.66 11.78 3.66 11.09 3.66 11.06 3.66 11.03 3.63 11.03 3.41 11.06 3.38 11.09 3.38 11.09 3.35 11.33 3.35 11.36 3.35 11.36 3.32 11.36 3.08"/>
      <polyline class="cls-1" points="7.04 3.08 3.03 3.08 2.54 3.08 2.51 3.08 2.51 3.11 2.48 3.11 2.48 3.63 2.48 3.66 2.45 3.66 2.33 3.66 .05 3.66 .03 3.66 .03 3.63 .03 3.54 .03 3.5 .05 3.5 .05 3.47 .23 3.47 .56 3.47 .59 3.5 .59 3.47 2.28 3.47 2.3 3.47 2.3 3.44 2.33 3.44 2.33 3.11 2.3 3.11 2.3 3.08 2.28 3.08 1.44 3.08 1.41 3.06 1.41 3.03 1.41 2.94 1.41 2.91 1.44 2.91 7.04 2.91"/>
      <line class="cls-1" x1="11.75" y1="2.91" x2="19.5" y2="2.91"/>
      <path class="cls-1" d="m11.73,2.88c.6-.32.91-1,.77-1.66-.15-.66-.72-1.15-1.4-1.19-.68-.04-1.3.38-1.52,1.03"/>
      <path class="cls-1" d="m11.02,2.88c.68,0,1.25-.51,1.33-1.19.07-.68-.37-1.3-1.04-1.45-.67-.15-1.33.23-1.55.88"/>
      <path class="cls-1" d="m7.03,2.88c1.15,0,2.18-.74,2.54-1.83"/>
      <path class="cls-1" d="m7.03,3.06c1.23,0,2.32-.78,2.72-1.95"/>
    </g>
  </g>
</svg>