<?xml version="1.0" encoding="UTF-8" standalone="no"?>
<svg
   id="Capa_2"
   data-name="Capa 2"
   viewBox="0 0 20.5 1.6687162"
   version="1.1"
   sodipodi:docname="matrix9_d.svg"
   width="20.5"
   height="1.6687162"
   inkscape:version="1.3.2 (091e20e, 2023-11-25, custom)"
   xmlns:inkscape="http://www.inkscape.org/namespaces/inkscape"
   xmlns:sodipodi="http://sodipodi.sourceforge.net/DTD/sodipodi-0.dtd"
   xmlns="http://www.w3.org/2000/svg"
   xmlns:svg="http://www.w3.org/2000/svg">
  <sodipodi:namedview
     id="namedview45"
     pagecolor="#ffffff"
     bordercolor="#000000"
     borderopacity="0.25"
     inkscape:showpageshadow="2"
     inkscape:pageopacity="0.0"
     inkscape:pagecheckerboard="0"
     inkscape:deskcolor="#d1d1d1"
     showgrid="false"
     inkscape:zoom="52.877419"
     inkscape:cx="22.419778"
     inkscape:cy="0.84156906"
     inkscape:window-width="2560"
     inkscape:window-height="1369"
     inkscape:window-x="-8"
     inkscape:window-y="-8"
     inkscape:window-maximized="1"
     inkscape:current-layer="g45" />
  <defs
     id="defs1">
    <style
       id="style1">
      .cls-1 {
        fill: none;
        stroke: #000;
        stroke-linecap: round;
        stroke-linejoin: round;
        stroke-width: .05px;
      }
    </style>
  </defs>
  <g
     id="Capa_1-2"
     data-name="Capa 1"
     transform="translate(-0.005,0.00371618)">
    <g
       id="g45">
      <polyline
         class="cls-1"
         points="19.37 1.14 19.37 1.08 19.37 1.05 19.34 1.05 10.7 1.05 10.67 1.05 10.64 1.05 10.64 1.08 10.64 1.29 10.64 1.32 10.67 1.32 10.67 1.35 10.7 1.35 10.85 1.35 10.88 1.35 10.91 1.35 10.91 1.38 10.91 1.59 10.91 1.61 10.88 1.61 10.88 1.64 10.85 1.64 10.19 1.64 10.16 1.64 10.16 1.61 10.13 1.61 10.13 1.59 10.13 1.38 10.13 1.35 10.16 1.35 10.19 1.35 10.41 1.35 10.44 1.35 10.44 1.32 10.47 1.32 10.47 1.29 10.47 1.08 10.47 1.05 10.44 1.05 10.41 1.05 9.89 1.05"
         id="polyline1" />
      <polyline
         class="cls-1"
         points="8.87 .86 8.87 .99 8.87 1.02 8.87 1.05 8.84 1.05 7.85 1.05"
         id="polyline2" />
      <polyline
         class="cls-1"
         points="6.86 .86 6.86 .99 6.86 1.02 6.83 1.02 6.83 1.05 6.8 1.05 5.81 1.05"
         id="polyline3" />
      <polyline
         class="cls-1"
         points="4.82 .86 4.82 .99 4.82 1.02 4.79 1.02 4.79 1.05 4.76 1.05 3.8 1.05"
         id="polyline4" />
      <polyline
         class="cls-1"
         points="2.78 .86 2.78 .99 2.78 1.02 2.78 1.05 2.75 1.05 2.54 1.05 2.51 1.05 2.51 1.08 2.48 1.08 2.48 1.59 2.48 1.61 2.45 1.61 2.45 1.64 2.33 1.64 .05 1.64 .05 1.61 .03 1.61 .03 1.59 .03 1.5 .03 1.47 .05 1.47 .23 1.47 .56 1.47 .59 1.47 2.28 1.47 2.28 1.44 2.3 1.44 2.33 1.41 2.33 1.08 2.3 1.08 2.3 1.05 2.28 1.05 1.44 1.05 1.41 1.05 1.41 1.02 1.41 .99 1.41 .92 1.41 .89 1.41 .86 1.44 .86 2.39 .86"
         id="polyline5" />
      <line
         class="cls-1"
         x1="3.8"
         y1="0.86000001"
         x2="4.4400001"
         y2="0.86000001"
         id="line5" />
      <line
         class="cls-1"
         x1="5.8099999"
         y1="0.86000001"
         x2="6.4699998"
         y2="0.86000001"
         id="line6" />
      <line
         class="cls-1"
         x1="7.8499999"
         y1="0.86000001"
         x2="8.5100002"
         y2="0.86000001"
         id="line7" />
      <polyline
         class="cls-1"
         points="9.89 .86 10.53 .86 19.5 .86 19.53 .86 19.55 .86 19.55 .89 19.55 .92 19.55 1.02 19.55 1.05 19.58 1.05 19.58 1.08 19.61 1.08 20.45 1.08 20.48 1.08 20.48 1.11 20.48 1.32 20.48 1.35 20.48 1.38 20.45 1.41 20.42 1.41 20.42 1.44 20.39 1.44 20.36 1.44"
         id="polyline7" />
      <polyline
         class="cls-1"
         points="19.37 1.14 19.37 1.2 19.37 1.23 19.41 1.23 19.44 1.23 20.25 1.23 20.25 1.32 20.28 1.35 20.28 1.38 20.28 1.41 20.3 1.41 20.33 1.44 20.36 1.44"
         id="polyline8" />
      <path
         class="cls-1"
         d="M 3.26,0.43 C 3.22,0.22 3.06,0.06 2.86,0.03 2.65,-0.01 2.45,0.09 2.35,0.27 2.25,0.45 2.27,0.68 2.4,0.84"
         id="path8" />
      <path
         class="cls-1"
         d="M 3.08,0.46 C 3.05,0.3 2.9,0.18 2.73,0.2 2.56,0.22 2.44,0.36 2.45,0.53 c 0,0.17 0.15,0.3 0.31,0.3"
         id="path9" />
      <path
         class="cls-1"
         d="M 3.3,0.43 C 3.34,0.67 3.55,0.84 3.79,0.84"
         id="path10" />
      <path
         class="cls-1"
         d="M 3.13,0.46 C 3.19,0.78 3.47,1.02 3.79,1.02"
         id="path11" />
      <path
         class="cls-1"
         d="M 5.3,0.43 C 5.26,0.22 5.1,0.06 4.9,0.03 4.69,-0.01 4.49,0.09 4.39,0.27 4.29,0.45 4.31,0.68 4.44,0.84"
         id="path12" />
      <path
         class="cls-1"
         d="M 5.12,0.46 C 5.09,0.3 4.94,0.18 4.77,0.2 4.6,0.22 4.48,0.36 4.49,0.53 c 0,0.17 0.15,0.3 0.31,0.3"
         id="path13" />
      <path
         class="cls-1"
         d="M 5.31,0.43 C 5.35,0.67 5.56,0.84 5.8,0.84"
         id="path14" />
      <path
         class="cls-1"
         d="M 5.14,0.46 C 5.2,0.78 5.48,1.02 5.8,1.02"
         id="path15" />
      <path
         class="cls-1"
         d="M 7.34,0.43 C 7.3,0.22 7.14,0.06 6.94,0.03 6.73,-0.01 6.53,0.09 6.43,0.27 6.33,0.45 6.35,0.68 6.48,0.84"
         id="path16" />
      <path
         class="cls-1"
         d="M 7.16,0.46 C 7.13,0.3 6.98,0.18 6.81,0.2 6.64,0.22 6.52,0.36 6.53,0.53 c 0,0.17 0.15,0.3 0.31,0.3"
         id="path17" />
      <path
         class="cls-1"
         d="M 7.35,0.43 C 7.39,0.67 7.6,0.84 7.84,0.84"
         id="path18" />
      <path
         class="cls-1"
         d="M 7.18,0.46 C 7.24,0.78 7.52,1.02 7.84,1.02"
         id="path19" />
      <path
         class="cls-1"
         d="M 9.35,0.43 C 9.31,0.22 9.15,0.06 8.95,0.03 8.74,-0.01 8.54,0.09 8.44,0.27 8.34,0.45 8.36,0.68 8.49,0.84"
         id="path20" />
      <path
         class="cls-1"
         d="M 9.17,0.46 C 9.14,0.3 8.99,0.18 8.82,0.2 8.65,0.22 8.53,0.36 8.54,0.53 c 0,0.17 0.15,0.3 0.31,0.3"
         id="path21" />
      <path
         class="cls-1"
         d="M 9.39,0.43 C 9.43,0.67 9.64,0.84 9.88,0.84"
         id="path22" />
      <path
         class="cls-1"
         d="M 9.22,0.46 C 9.28,0.78 9.56,1.02 9.88,1.02"
         id="path23" />
    </g>
  </g>
</svg>
