<?xml version="1.0" encoding="UTF-8"?>
<svg id="Capa_2" data-name="Capa 2" xmlns="http://www.w3.org/2000/svg" viewBox="0 0 20.51 3.71">
  <defs>
    <style>
      .cls-1 {
        fill: none;
        stroke: #000;
        stroke-miterlimit: 10;
        stroke-width: .05px;
      }
    </style>
  </defs>
  <g id="Capa_1-2" data-name="Capa 1">
    <g>
      <polyline class="cls-1" points="19.5 2.91 19.5 2.91 19.53 2.91 19.53 2.94 19.55 2.94 19.55 2.97 19.55 3.06 19.55 3.08 19.58 3.11 19.61 3.11 20.45 3.11 20.48 3.11 20.48 3.14 20.48 3.17 20.48 3.35 20.48 3.38 20.48 3.41 20.45 3.44 20.42 3.47 20.39 3.47 20.36 3.47"/>
      <polyline class="cls-1" points="18.98 3.08 19.34 3.08 19.34 3.11 19.37 3.11 19.37 3.14 19.37 3.23 19.37 3.26 19.41 3.26 19.41 3.29 19.44 3.29 20.25 3.29 20.25 3.35 20.28 3.38 20.28 3.41 20.28 3.44 20.3 3.44 20.3 3.47 20.33 3.47 20.36 3.47"/>
      <polyline class="cls-1" points="15.08 2.91 15.08 3.06 15.05 3.06 15.05 3.08 15.03 3.08 12.89 3.08"/>
      <polyline class="cls-1" points="10.64 1.88 10.64 3.32 10.64 3.35 10.67 3.38 10.7 3.38 10.85 3.38 10.88 3.38 10.91 3.41 10.91 3.44 10.91 3.63 10.91 3.66 10.88 3.69 10.85 3.69 10.19 3.69 10.16 3.69 10.13 3.66 10.13 3.63 10.13 3.44 10.13 3.41 10.16 3.38 10.19 3.38 10.41 3.38 10.44 3.38 10.47 3.35 10.47 3.32 10.47 1.58"/>
      <polyline class="cls-1" points="2.94 2.91 2.94 3.06 2.91 3.06 2.91 3.08 2.88 3.08 2.54 3.08 2.51 3.08 2.51 3.11 2.51 3.14 2.48 3.14 2.48 3.63 2.48 3.66 2.48 3.69 2.45 3.69 2.33 3.69 .05 3.69 .03 3.69 .03 3.66 .03 3.63 .03 3.57 .03 3.54 .03 3.5 .05 3.5 .23 3.5 .56 3.5 .59 3.5 2.28 3.5 2.3 3.5 2.3 3.47 2.33 3.47 2.33 3.44 2.33 3.14 2.3 3.11 2.3 3.08 2.28 3.08 1.44 3.08 1.41 3.08 1.41 3.06 1.41 2.97 1.41 2.94 1.44 2.94 1.44 2.91 2.22 2.91"/>
      <line class="cls-1" x1="19.07" y1="2.91" x2="19.5" y2="2.91"/>
      <path class="cls-1" d="m4.36,1.06C4.14.41,3.52,0,2.84.03c-.68.04-1.25.52-1.4,1.19-.15.66.17,1.35.77,1.66"/>
      <path class="cls-1" d="m4.19,1.11c-.22-.65-.89-1.02-1.55-.88-.67.15-1.11.77-1.04,1.45.07.68.65,1.19,1.33,1.19"/>
      <path class="cls-1" d="m4.37,1.08c.37,1.09,1.39,1.83,2.54,1.83"/>
      <path class="cls-1" d="m4.19,1.13c.38,1.14,1.43,1.91,2.63,1.95"/>
      <path class="cls-1" d="m10.42,1.06C10.2.41,9.58,0,8.9.03c-.68.04-1.25.52-1.4,1.19-.15.66.17,1.35.77,1.66"/>
      <path class="cls-1" d="m10.25,1.11c-.22-.65-.89-1.02-1.55-.88-.67.15-1.11.77-1.04,1.45.07.68.65,1.19,1.33,1.19"/>
      <path class="cls-1" d="m10.43,1.08c.37,1.09,1.39,1.83,2.54,1.83"/>
      <path class="cls-1" d="m10.25,1.13c.05.15.12.3.19.44"/>
      <path class="cls-1" d="m10.63,1.87c.52.74,1.36,1.19,2.26,1.22"/>
      <path class="cls-1" d="m16.51,1.06c-.22-.64-.84-1.07-1.52-1.03-.68.04-1.25.52-1.4,1.19-.15.66.17,1.35.77,1.66"/>
      <path class="cls-1" d="m16.34,1.11c-.22-.65-.89-1.02-1.55-.88-.67.15-1.11.77-1.04,1.45.07.68.65,1.19,1.33,1.19"/>
      <path class="cls-1" d="m16.52,1.08c.37,1.09,1.39,1.83,2.54,1.83"/>
      <path class="cls-1" d="m16.34,1.13c.38,1.14,1.43,1.91,2.63,1.95"/>
      <line class="cls-1" x1="6.92" y1="2.91" x2="8.28" y2="2.91"/>
      <line class="cls-1" x1="9" y1="2.91" x2="9" y2="3.06"/>
      <path class="cls-1" d="m8.92,3.08s.02,0,.03-.01c0,0,.01-.02.01-.03"/>
      <line class="cls-1" x1="12.98" y1="2.91" x2="14.36" y2="2.91"/>
      <line class="cls-1" x1="6.83" y1="3.08" x2="8.94" y2="3.08"/>
    </g>
  </g>
</svg>