<?xml version="1.0" encoding="UTF-8" standalone="no"?>
<svg
   id="Capa_2"
   data-name="Capa 2"
   viewBox="0 0 20.5 3.8501273"
   version="1.1"
   sodipodi:docname="matrix11_o.svg"
   width="20.5"
   height="3.8501272"
   inkscape:version="1.3.2 (091e20e, 2023-11-25, custom)"
   xmlns:inkscape="http://www.inkscape.org/namespaces/inkscape"
   xmlns:sodipodi="http://sodipodi.sourceforge.net/DTD/sodipodi-0.dtd"
   xmlns="http://www.w3.org/2000/svg"
   xmlns:svg="http://www.w3.org/2000/svg">
  <sodipodi:namedview
     id="namedview19"
     pagecolor="#ffffff"
     bordercolor="#000000"
     borderopacity="0.25"
     inkscape:showpageshadow="2"
     inkscape:pageopacity="0.0"
     inkscape:pagecheckerboard="0"
     inkscape:deskcolor="#d1d1d1"
     showgrid="false"
     inkscape:zoom="52.877419"
     inkscape:cx="19.375"
     inkscape:cy="1.9384456"
     inkscape:window-width="2560"
     inkscape:window-height="1369"
     inkscape:window-x="-8"
     inkscape:window-y="-8"
     inkscape:window-maximized="1"
     inkscape:current-layer="Capa_2" />
  <defs
     id="defs1">
    <style
       id="style1">
      .cls-1 {
        fill: none;
        stroke: #000;
        stroke-linecap: round;
        stroke-linejoin: round;
        stroke-width: .05px;
      }
    </style>
  </defs>
  <g
     id="Capa_1-2"
     data-name="Capa 1"
     transform="translate(-0.005,-0.00487281)">
    <g
       id="g19">
      <polyline
         class="cls-1"
         points="17.19 3.08 19.5 3.08 19.53 3.08 19.55 3.08 19.55 3.11 19.55 3.24 19.55 3.27 19.58 3.27 20.45 3.27 20.45 3.3 20.48 3.3 20.48 3.33 20.48 3.54 20.48 3.57 20.48 3.6 20.45 3.6 20.45 3.63 20.42 3.63 20.42 3.66 20.39 3.66 20.36 3.66"
         id="polyline1" />
      <polyline
         class="cls-1"
         points="17.19 3.27 19.32 3.27 19.35 3.27 19.38 3.27 19.38 3.3 19.38 3.39 19.38 3.42 19.38 3.45 19.41 3.45 19.44 3.45 20.25 3.45 20.25 3.54 20.28 3.57 20.28 3.6 20.3 3.63 20.33 3.66 20.36 3.66"
         id="polyline2" />
      <polyline
         class="cls-1"
         points="5.28 3.08 6.78 3.08 17.19 3.08"
         id="polyline3" />
      <polyline
         class="cls-1"
         points="3.03 3.08 3.14 3.08 3.17 3.05 3.17 3.03 3.17 3 1.5 .11"
         id="polyline4" />
      <polyline
         class="cls-1"
         points="3.2 .24 4.95 3.24 4.98 3.27 8.51 3.27 10.41 3.27 10.44 3.27 10.47 3.27 10.47 3.3 10.47 3.51 10.47 3.54 10.44 3.54 10.41 3.54 10.2 3.54 10.17 3.54 10.17 3.57 10.14 3.57 10.14 3.6 10.14 3.8 10.14 3.83 10.17 3.83 10.2 3.83 10.86 3.83 10.89 3.83 10.92 3.8 10.92 3.6 10.92 3.57 10.89 3.57 10.89 3.54 10.86 3.54 10.67 3.54 10.64 3.54 10.64 3.51 10.64 3.3 10.64 3.27 10.67 3.27 17.19 3.27"
         id="polyline5" />
      <polyline
         class="cls-1"
         points="5.28 3.08 5.1 3.08 5.07 3.08 5.07 3.05 5.04 3.05 3.32 .05"
         id="polyline6" />
      <polyline
         class="cls-1"
         points="3.03 3.08 1.44 3.08 1.41 3.08 1.41 3.11 1.41 3.2 1.41 3.24 1.44 3.27 2.28 3.27 2.3 3.27 2.3 3.3 2.3 3.63 2.3 3.66 2.28 3.66 .6 3.66 .57 3.69 .57 3.66 .23 3.66 .05 3.66 .03 3.69 .03 3.72 .03 3.8 .03 3.83 .05 3.83 2.3 3.83 2.45 3.83 2.48 3.83 2.48 3.8 2.48 3.3 2.51 3.27 2.54 3.27 3.45 3.27 3.48 3.27 3.48 3.24 3.51 3.24 3.51 3.2 3.48 3.17 1.82 .3"
         id="polyline7" />
      <path
         class="cls-1"
         d="m 3.29,0.05 c 0,0 -0.02,-0.02 -0.04,-0.02"
         id="path7" />
      <path
         class="cls-1"
         d="m 1.54,0.03 c 0,0 -0.03,0 -0.04,0.02 0,0.01 0,0.03 0,0.04"
         id="path8" />
      <path
         class="cls-1"
         d="m 1.84,0.2 c 0,0 -0.03,0 -0.04,0.02 0,0.01 0,0.03 0,0.04"
         id="path9" />
      <line
         class="cls-1"
         x1="3.26"
         y1="0.029999999"
         x2="1.55"
         y2="0.029999999"
         id="line9" />
      <line
         class="cls-1"
         x1="3.1700001"
         y1="0.2"
         x2="1.86"
         y2="0.2"
         id="line10" />
      <path
         class="cls-1"
         d="m 3.2,0.23 c 0,0 -0.02,-0.02 -0.04,-0.02"
         id="path10" />
    </g>
  </g>
</svg>
