<?xml version="1.0" encoding="UTF-8" standalone="no"?>
<svg
   id="Capa_2"
   data-name="Capa 2"
   viewBox="0 0 20.5 3.8501273"
   version="1.1"
   sodipodi:docname="matrix11_k.svg"
   width="20.5"
   height="3.8501272"
   inkscape:version="1.3.2 (091e20e, 2023-11-25, custom)"
   xmlns:inkscape="http://www.inkscape.org/namespaces/inkscape"
   xmlns:sodipodi="http://sodipodi.sourceforge.net/DTD/sodipodi-0.dtd"
   xmlns="http://www.w3.org/2000/svg"
   xmlns:svg="http://www.w3.org/2000/svg">
  <sodipodi:namedview
     id="namedview13"
     pagecolor="#ffffff"
     bordercolor="#000000"
     borderopacity="0.25"
     inkscape:showpageshadow="2"
     inkscape:pageopacity="0.0"
     inkscape:pagecheckerboard="0"
     inkscape:deskcolor="#d1d1d1"
     showgrid="false"
     inkscape:zoom="52.877419"
     inkscape:cx="19.375"
     inkscape:cy="1.9384456"
     inkscape:window-width="2560"
     inkscape:window-height="1369"
     inkscape:window-x="-8"
     inkscape:window-y="-8"
     inkscape:window-maximized="1"
     inkscape:current-layer="Capa_2" />
  <defs
     id="defs1">
    <style
       id="style1">
      .cls-1 {
        fill: none;
        stroke: #000;
        stroke-linecap: round;
        stroke-linejoin: round;
        stroke-width: .05px;
      }
    </style>
  </defs>
  <g
     id="Capa_1-2"
     data-name="Capa 1"
     transform="translate(-0.005,-0.00487281)">
    <g
       id="g13">
      <polyline
         class="cls-1"
         points="14.22 3.05 19.5 3.05 19.53 3.05 19.53 3.08 19.55 3.08 19.55 3.11 19.55 3.23 19.55 3.26 19.58 3.26 20.45 3.26 20.48 3.29 20.48 3.33 20.48 3.51 20.48 3.54 20.48 3.57 20.45 3.6 20.42 3.63 20.39 3.63 20.36 3.63"
         id="polyline1" />
      <polyline
         class="cls-1"
         points="10.47 .23 12.2 3.23 12.23 3.23 19.32 3.23 19.35 3.23 19.35 3.26 19.38 3.26 19.38 3.29 19.38 3.39 19.38 3.42 19.41 3.42 19.41 3.45 19.44 3.45 20.25 3.45 20.25 3.51 20.25 3.54 20.28 3.57 20.28 3.6 20.3 3.6 20.3 3.63 20.33 3.63 20.36 3.63"
         id="polyline2" />
      <polyline
         class="cls-1"
         points="14.22 3.05 12.35 3.05 12.32 3.05 12.29 3.05 10.58 .05"
         id="polyline3" />
      <polyline
         class="cls-1"
         points="8.79 .11 10.44 3 10.47 3.03 10.44 3.03 10.44 3.05 10.41 3.05 3 3.05 1.44 3.05 1.41 3.08 1.41 3.11 1.41 3.2 1.41 3.23 1.44 3.23 2.28 3.23 2.3 3.26 2.3 3.29 2.3 3.6 2.3 3.63 2.3 3.66 2.28 3.66 .6 3.66 .57 3.69 .57 3.66 .23 3.66 .05 3.66 .03 3.66 .03 3.69 .03 3.72 .03 3.77 .03 3.8 .03 3.83 .05 3.83 2.3 3.83 2.45 3.83 2.48 3.83 2.48 3.8 2.48 3.78 2.48 3.29 2.48 3.26 2.51 3.26 2.51 3.23 2.54 3.23 3 3.23 10.41 3.23 10.44 3.23 10.44 3.26 10.47 3.26 10.47 3.29 10.47 3.48 10.47 3.51 10.44 3.54 10.41 3.54 10.2 3.54 10.17 3.54 10.14 3.54 10.14 3.57 10.14 3.6 10.14 3.78 10.14 3.8 10.14 3.83 10.17 3.83 10.2 3.83 10.86 3.83 10.89 3.83 10.89 3.8 10.92 3.8 10.92 3.78 10.92 3.6 10.92 3.57 10.89 3.57 10.89 3.54 10.86 3.54 10.67 3.54 10.64 3.54 10.64 3.51 10.64 3.48 10.64 3 10.64 2.97 9.08 .26"
         id="polyline4" />
      <path
         class="cls-1"
         d="m 10.55,0.05 c 0,0 -0.02,-0.02 -0.04,-0.02"
         id="path4" />
      <path
         class="cls-1"
         d="m 8.8,0.03 c 0,0 -0.03,0 -0.04,0.02 0,0.01 0,0.03 0,0.05"
         id="path5" />
      <path
         class="cls-1"
         d="m 9.1,0.2 c 0,0 -0.03,0 -0.04,0.02 0,0.01 0,0.03 0,0.04"
         id="path6" />
      <line
         class="cls-1"
         x1="10.53"
         y1="0.029999999"
         x2="8.8199997"
         y2="0.029999999"
         id="line6" />
      <line
         class="cls-1"
         x1="10.44"
         y1="0.2"
         x2="9.1099997"
         y2="0.2"
         id="line7" />
      <path
         class="cls-1"
         d="m 10.46,0.23 c 0,0 -0.02,-0.02 -0.04,-0.02"
         id="path7" />
    </g>
  </g>
</svg>
