<?xml version="1.0" encoding="UTF-8"?>
<svg id="Capa_2" data-name="Capa 2" xmlns="http://www.w3.org/2000/svg" viewBox="0 0 43.24 3.48">
  <defs>
    <style>
      .cls-1 {
        fill: none;
        stroke: #000;
        stroke-linecap: round;
        stroke-linejoin: round;
        stroke-width: .1px;
      }
    </style>
  </defs>
  <g id="_0" data-name="0">
    <g>
      <g id="LWPOLYLINE">
        <path class="cls-1" d="m41.11,1.81c.06,0,.1.04.1.1v.23c0,.06.04.1.1.1h1.78c.06,0,.1.04.1.1v.43c0,.14-.11.25-.25.25h0c-.14,0-.25-.11-.25-.25v-.18h-1.75c-.06,0-.1-.04-.1-.1v-.2c0-.06-.04-.1-.1-.1h-18.2c-.06,0-.1.04-.1.1v.41c0,.06.04.1.1.1h.36c.06,0,.1.04.1.1v.43c0,.06-.04.1-.1.1h-1.43c-.06,0-.1-.04-.1-.1v-.43c0-.06.04-.1.1-.1h.49c.06,0,.1-.04.1-.1v-.41c0-.06-.04-.1-.1-.1H6.36s-.98,0-.98,0c-.06,0-.1.04-.1.1v1.04c0,.06-.04.1-.1.1H.15c-.06,0-.1-.04-.1-.1v-.18c0-.06.04-.1.1-.1h1.05l.05.03.05-.03h3.51c.06,0,.1-.04.1-.1v-.66c0-.06-.04-.1-.1-.1h-1.74c-.06,0-.1-.04-.1-.1v-.18c0-.06.04-.1.1-.1h2.02"/>
      </g>
      <g id="LWPOLYLINE-2" data-name="LWPOLYLINE">
        <line class="cls-1" x1="5.88" y1="1.81" x2="5.91" y2="1.81"/>
      </g>
      <g id="LWPOLYLINE-3" data-name="LWPOLYLINE">
        <line class="cls-1" x1="6.71" y1="1.81" x2="39.33" y2="1.81"/>
      </g>
      <g id="LWPOLYLINE-4" data-name="LWPOLYLINE">
        <line class="cls-1" x1="40.12" y1="1.81" x2="40.16" y2="1.81"/>
      </g>
      <g id="LWPOLYLINE-5" data-name="LWPOLYLINE">
        <line class="cls-1" x1="40.96" y1="1.81" x2="41.11" y2="1.81"/>
      </g>
      <g id="ARC">
        <path class="cls-1" d="m6.71,1.81c.38-.45.33-1.13-.12-1.51s-1.13-.33-1.51.12c-.34.4-.34.99,0,1.39"/>
      </g>
      <g id="CIRCLE">
        <circle class="cls-1" cx="5.89" cy="1.12" r=".69"/>
      </g>
      <g id="ARC-2" data-name="ARC">
        <path class="cls-1" d="m40.96,1.81c.38-.45.33-1.13-.12-1.51s-1.13-.33-1.51.12c-.34.4-.34.99,0,1.39"/>
      </g>
      <g id="CIRCLE-2" data-name="CIRCLE">
        <circle class="cls-1" cx="40.14" cy="1.12" r=".69"/>
      </g>
    </g>
  </g>
</svg>