<?xml version="1.0" encoding="UTF-8"?>
<svg id="Capa_2" data-name="Capa 2" xmlns="http://www.w3.org/2000/svg" viewBox="0 0 20.51 3.71">
  <defs>
    <style>
      .cls-1 {
        fill: none;
        stroke: #000;
        stroke-miterlimit: 10;
        stroke-width: .05px;
      }
    </style>
  </defs>
  <g id="Capa_1-2" data-name="Capa 1">
    <g>
      <polyline class="cls-1" points="17.78 2.91 17.78 3.03 17.78 3.06 17.75 3.08 17.06 3.08"/>
      <polyline class="cls-1" points="13.07 2.91 13.07 3.03 13.07 3.06 13.07 3.08 13.04 3.08 10.7 3.08 10.67 3.08 10.64 3.08 10.64 3.11 10.64 3.32 10.64 3.35 10.67 3.35 10.67 3.38 10.7 3.38 10.85 3.38 10.88 3.38 10.91 3.38 10.91 3.42 10.91 3.63 10.91 3.66 10.88 3.66 10.88 3.69 10.85 3.69 10.19 3.69 10.16 3.69 10.16 3.66 10.13 3.66 10.13 3.63 10.13 3.42 10.13 3.38 10.16 3.38 10.19 3.38 10.41 3.38 10.44 3.38 10.44 3.35 10.47 3.35 10.47 3.32 10.47 3.11 10.47 3.08 10.44 3.08 10.41 3.08 3.66 3.08 3.03 3.08 2.54 3.08 2.51 3.08 2.51 3.11 2.48 3.11 2.48 3.63 2.48 3.66 2.45 3.66 2.45 3.69 2.33 3.69 .05 3.69 .05 3.66 .03 3.66 .03 3.63 .03 3.54 .03 3.51 .05 3.51 .23 3.51 .56 3.51 .59 3.51 2.28 3.51 2.28 3.48 2.3 3.48 2.33 3.45 2.33 3.11 2.3 3.11 2.3 3.08 2.28 3.08 1.44 3.08 1.41 3.08 1.41 3.06 1.41 3.03 1.41 2.97 1.41 2.94 1.41 2.91 1.44 2.91 2.57 2.91"/>
      <line class="cls-1" x1="3.56" y1="2.91" x2="12.35" y2="2.91"/>
      <path class="cls-1" d="m1.39,1.78c.51.69,1.31,1.09,2.16,1.09"/>
      <path class="cls-1" d="m1.39,2.07c.32.36.72.64,1.17.81"/>
      <path class="cls-1" d="m3.55,3.06h0"/>
      <line class="cls-1" x1="1.41" y1="2.1" x2="1.41" y2="1.82"/>
      <polyline class="cls-1" points="20.36 3.48 20.39 3.48 20.42 3.48 20.42 3.45 20.45 3.45 20.48 3.42 20.48 3.38 20.48 3.35 20.48 3.14 20.48 3.11 20.45 3.11 19.61 3.11 19.58 3.11 19.58 3.08 19.55 3.08 19.55 3.06"/>
      <polyline class="cls-1" points="19.37 3.11 19.37 3.23 19.37 3.26 19.41 3.26 19.44 3.26 20.25 3.26 20.25 3.35 20.28 3.38 20.28 3.42 20.28 3.45 20.3 3.45 20.33 3.48 20.36 3.48"/>
      <path class="cls-1" d="m19.21,1.06c-.22-.64-.84-1.07-1.52-1.03s-1.25.52-1.4,1.19c-.15.66.17,1.35.77,1.66"/>
      <path class="cls-1" d="m19.04,1.11c-.22-.65-.89-1.02-1.55-.88-.67.15-1.11.77-1.04,1.45.07.68.65,1.19,1.33,1.19"/>
      <path class="cls-1" d="m19.22,1.05c.08.23.18.44.31.64"/>
      <path class="cls-1" d="m19.53,1.72s0-.02,0-.03"/>
      <path class="cls-1" d="m19.04,1.1c.08.22.18.44.31.63"/>
      <path class="cls-1" d="m19.37,1.78s0-.02,0-.02"/>
      <line class="cls-1" x1="19.55" y1="3.06" x2="19.55" y2="1.73"/>
      <line class="cls-1" x1="19.37" y1="3.11" x2="19.37" y2="1.79"/>
      <path class="cls-1" d="m14.5,1.06C14.28.41,13.66,0,12.98.03s-1.25.52-1.4,1.19c-.15.66.17,1.35.77,1.66"/>
      <path class="cls-1" d="m14.33,1.11c-.22-.65-.89-1.02-1.55-.88-.67.15-1.11.77-1.04,1.45.07.68.65,1.19,1.33,1.19"/>
      <path class="cls-1" d="m14.51,1.05c.37,1.09,1.39,1.83,2.54,1.83"/>
      <path class="cls-1" d="m14.33,1.1c.39,1.17,1.49,1.95,2.72,1.95"/>
    </g>
  </g>
</svg>