<?xml version="1.0" encoding="UTF-8"?>
<svg id="Capa_2" data-name="Capa 2" xmlns="http://www.w3.org/2000/svg" viewBox="0 0 38.75 1.79">
  <defs>
    <style>
      .cls-1 {
        fill: none;
        stroke: #000;
        stroke-linecap: round;
        stroke-linejoin: round;
        stroke-width: .05px;
      }
    </style>
  </defs>
  <g id="Capa_1-2" data-name="Capa 1">
    <g>
      <polyline class="cls-1" points="19.55 .99 19.55 1.14 19.55 1.17 19.58 1.17 19.58 1.2 19.61 1.2 20.46 1.2 20.49 1.2 20.52 1.23 20.52 1.44 20.52 1.47 20.49 1.47 20.49 1.5 20.49 1.53 20.46 1.53 20.43 1.55 20.39 1.55"/>
      <polyline class="cls-1" points="19.38 1.14 19.38 1.32 19.41 1.32 19.41 1.35 19.44 1.35 20.28 1.35 20.28 1.44 20.28 1.47 20.28 1.5 20.3 1.53 20.33 1.53 20.33 1.55 20.36 1.55 20.39 1.55"/>
      <polyline class="cls-1" points="12.3 1.17 10.61 1.17 10.58 1.17 10.58 1.2 10.58 1.41 10.58 1.44 10.61 1.44 10.61 1.47 10.8 1.47 10.83 1.47 10.86 1.5 10.86 1.71 10.83 1.74 10.8 1.74 10.8 1.77 10.11 1.77 10.11 1.74 10.08 1.74 10.08 1.71 10.08 1.5 10.08 1.47 10.11 1.47 10.35 1.47 10.38 1.44 10.41 1.44 10.41 1.41 10.41 1.2 10.38 1.17 10.35 1.17 2.55 1.17 2.52 1.17 2.52 1.2 2.52 1.47"/>
      <polyline class="cls-1" points="2.52 1.2 2.52 1.71 2.52 1.74 2.49 1.74 2.46 1.74 2.46 1.77 2.33 1.77 .08 1.77 .05 1.74 .03 1.74 .03 1.71 .03 1.61 .03 1.58 .05 1.58 .08 1.58 .24 1.58 .57 1.58 .6 1.58 .63 1.58 2.28 1.58 2.3 1.58 2.3 1.55 2.33 1.55 2.33 1.52 2.33 1.2 2.3 1.17 2.28 1.17 1.47 1.17 1.44 1.17 1.41 1.14 1.41 1.11 1.41 1.05 1.41 1.02 1.44 .99 1.47 .99"/>
      <path class="cls-1" d="m18.14.03c.24.57.78.94,1.4.95"/>
      <path class="cls-1" d="m18.03.21c.26.52.76.87,1.33.94"/>
      <path class="cls-1" d="m12.28.99c.62,0,1.19-.38,1.43-.95"/>
      <path class="cls-1" d="m12.28,1.17c.65,0,1.25-.37,1.54-.95"/>
      <line class="cls-1" x1="13.74" y1=".03" x2="14.52" y2=".03"/>
      <line class="cls-1" x1="13.86" y1=".21" x2="14.43" y2=".21"/>
      <path class="cls-1" d="m14.51.03c.24.58.8.95,1.43.95s1.19-.38,1.43-.95"/>
      <path class="cls-1" d="m14.4.21c.29.58.89.95,1.54.95s1.25-.37,1.54-.95"/>
      <line class="cls-1" x1="17.36" y1=".03" x2="18.18" y2=".03"/>
      <line class="cls-1" x1="17.49" y1=".21" x2="18.05" y2=".21"/>
      <line class="cls-1" x1="1.47" y1=".99" x2="12.3" y2=".99"/>
      <polyline class="cls-1" points="37.8 .99 37.8 1.14 37.8 1.17 37.83 1.2 38.67 1.2 38.7 1.2 38.73 1.2 38.73 1.23 38.73 1.44 38.73 1.47 38.7 1.5 38.7 1.53 38.67 1.53 38.64 1.55 38.61 1.55"/>
      <polyline class="cls-1" points="37.61 1.14 37.61 1.32 37.61 1.35 37.64 1.35 38.49 1.35 38.49 1.44 38.49 1.47 38.52 1.5 38.52 1.53 38.55 1.53 38.58 1.55 38.61 1.55"/>
      <polyline class="cls-1" points="30.54 1.17 28.86 1.17 28.83 1.17 28.8 1.17 28.8 1.2 28.8 1.41 28.8 1.44 28.83 1.44 28.83 1.47 28.86 1.47 29.01 1.47 29.04 1.47 29.07 1.47 29.07 1.5 29.07 1.71 29.07 1.74 29.04 1.74 29.01 1.77 28.35 1.77 28.32 1.74 28.29 1.74 28.29 1.71 28.29 1.5 28.29 1.47 28.32 1.47 28.35 1.47 28.55 1.47 28.58 1.47 28.58 1.44 28.61 1.44 28.61 1.41 28.61 1.2 28.61 1.17 28.58 1.17 28.55 1.17 20.79 1.17 20.76 1.17 20.73 1.17 20.73 1.2 20.73 1.47"/>
      <polyline class="cls-1" points="20.73 1.2 20.73 1.71 20.73 1.74 20.7 1.74 20.7 1.77 20.55 1.77 18.3 1.77 18.3 1.74 18.27 1.74 18.24 1.71 18.24 1.61 18.27 1.58 18.3 1.58 18.48 1.58 18.78 1.58 18.8 1.58 18.83 1.58 20.52 1.58 20.52 1.55 20.55 1.55 20.55 1.53 20.55 1.2 20.55 1.17 20.52 1.17 19.68 1.17 19.64 1.17 19.64 1.14 19.61 1.14 19.61 1.11 19.61 1.05 19.61 1.02 19.64 1.02 19.64 .99 19.68 .99"/>
      <path class="cls-1" d="m36.38.03c.24.57.78.94,1.4.95"/>
      <path class="cls-1" d="m36.27.21c.26.52.76.87,1.33.94"/>
      <path class="cls-1" d="m30.52.99c.62,0,1.19-.38,1.43-.95"/>
      <path class="cls-1" d="m30.52,1.17c.65,0,1.25-.37,1.54-.95"/>
      <line class="cls-1" x1="31.95" y1=".03" x2="32.76" y2=".03"/>
      <line class="cls-1" x1="32.07" y1=".21" x2="32.64" y2=".21"/>
      <path class="cls-1" d="m32.72.03c.24.58.8.95,1.43.95s1.19-.38,1.43-.95"/>
      <path class="cls-1" d="m32.61.21c.29.58.89.95,1.54.95s1.25-.37,1.54-.95"/>
      <line class="cls-1" x1="35.61" y1=".03" x2="36.39" y2=".03"/>
      <line class="cls-1" x1="35.7" y1=".21" x2="36.27" y2=".21"/>
      <line class="cls-1" x1="19.68" y1=".99" x2="30.54" y2=".99"/>
    </g>
  </g>
</svg>