<?xml version="1.0" encoding="UTF-8"?>
<svg id="Capa_2" data-name="Capa 2" xmlns="http://www.w3.org/2000/svg" viewBox="0 0 38.75 2.15">
  <defs>
    <style>
      .cls-1 {
        fill: none;
        stroke: #000;
        stroke-linecap: round;
        stroke-linejoin: round;
        stroke-width: .05px;
      }
    </style>
  </defs>
  <g id="Capa_1-2" data-name="Capa 1">
    <g>
      <polyline class="cls-1" points="15.05 1.37 19.53 1.37 19.55 1.37 19.55 1.4 19.55 1.52 19.58 1.55 19.61 1.55 20.46 1.55 20.49 1.55 20.49 1.58 20.52 1.58 20.52 1.61 20.52 1.82 20.49 1.85 20.49 1.88 20.46 1.91 20.43 1.91 20.39 1.94"/>
      <polyline class="cls-1" points="14.97 1.55 19.35 1.55 19.38 1.55 19.38 1.58 19.38 1.67 19.38 1.7 19.41 1.7 19.41 1.73 19.44 1.73 20.28 1.73 20.28 1.82 20.28 1.85 20.28 1.88 20.3 1.88 20.3 1.91 20.33 1.91 20.36 1.94 20.39 1.94"/>
      <polyline class="cls-1" points="11.22 .23 10.61 .23 10.58 .23 10.58 .26 10.58 1.79 10.58 1.82 10.61 1.82 10.8 1.82 10.83 1.82 10.83 1.85 10.86 1.85 10.86 1.88 10.86 2.09 10.83 2.09 10.83 2.12 10.8 2.12 10.11 2.12 10.08 2.12 10.08 2.09 10.08 1.88 10.08 1.85 10.11 1.82 10.35 1.82 10.38 1.82 10.41 1.79 10.41 .26 10.41 .23 10.38 .23 10.35 .23 9.75 .23"/>
      <polyline class="cls-1" points="5.94 1.55 2.55 1.55 2.52 1.55 2.52 1.58 2.52 2.09 2.49 2.12 2.46 2.12 2.33 2.12 .08 2.12 .05 2.12 .03 2.12 .03 2.09 .03 2 .03 1.97 .05 1.97 .05 1.94 .08 1.94 .24 1.94 .57 1.94 .6 1.97 .63 1.94 2.28 1.94 2.3 1.94 2.33 1.91 2.33 1.58 2.33 1.55 2.3 1.55 2.28 1.55 1.47 1.55 1.44 1.55 1.44 1.52 1.41 1.52 1.41 1.49 1.41 1.4 1.41 1.37 1.44 1.37 1.47 1.37"/>
      <path class="cls-1" d="m11.28.03c1.07.85,2.39,1.32,3.76,1.32"/>
      <path class="cls-1" d="m11.22.2c1.09.85,2.43,1.32,3.82,1.32"/>
      <line class="cls-1" x1="11.28" y1=".05" x2="9.69" y2=".05"/>
      <path class="cls-1" d="m5.92,1.34c1.36,0,2.69-.46,3.76-1.32"/>
      <path class="cls-1" d="m5.92,1.52c1.38,0,2.73-.46,3.82-1.32"/>
      <line class="cls-1" x1="5.94" y1="1.37" x2="1.47" y2="1.37"/>
      <polyline class="cls-1" points="33.27 1.37 37.74 1.37 37.77 1.37 37.8 1.4 37.8 1.52 37.8 1.55 37.83 1.55 38.67 1.55 38.7 1.55 38.7 1.58 38.73 1.58 38.73 1.61 38.73 1.82 38.73 1.85 38.7 1.88 38.7 1.91 38.67 1.91 38.64 1.91 38.64 1.94 38.61 1.94"/>
      <polyline class="cls-1" points="33.18 1.55 37.55 1.55 37.58 1.55 37.61 1.55 37.61 1.58 37.61 1.67 37.61 1.7 37.61 1.73 37.64 1.73 38.49 1.73 38.49 1.82 38.49 1.85 38.52 1.88 38.52 1.91 38.55 1.91 38.58 1.91 38.58 1.94 38.61 1.94"/>
      <polyline class="cls-1" points="29.46 .23 28.86 .23 28.83 .23 28.8 .23 28.8 .26 28.8 1.79 28.8 1.82 28.83 1.82 28.86 1.82 29.01 1.82 29.04 1.82 29.04 1.85 29.07 1.85 29.07 1.88 29.07 2.09 29.07 2.12 29.04 2.12 29.01 2.12 28.35 2.12 28.32 2.12 28.29 2.09 28.29 1.88 28.29 1.85 28.32 1.85 28.32 1.82 28.35 1.82 28.55 1.82 28.58 1.82 28.61 1.82 28.61 1.79 28.61 .26 28.61 .23 28.58 .23 28.55 .23 27.99 .23"/>
      <polyline class="cls-1" points="24.14 1.55 20.79 1.55 20.76 1.55 20.73 1.55 20.73 1.58 20.73 2.09 20.73 2.12 20.7 2.12 20.55 2.12 18.3 2.12 18.27 2.12 18.27 2.09 18.24 2.09 18.24 2 18.24 1.97 18.27 1.97 18.27 1.94 18.3 1.94 18.48 1.94 18.78 1.94 18.8 1.97 18.83 1.94 20.52 1.94 20.55 1.94 20.55 1.91 20.55 1.58 20.55 1.55 20.52 1.55 19.68 1.55 19.64 1.52 19.64 1.49 19.61 1.49 19.61 1.4 19.64 1.4 19.64 1.37 19.68 1.37"/>
      <path class="cls-1" d="m29.49.03c1.07.85,2.39,1.32,3.76,1.32"/>
      <path class="cls-1" d="m29.43.2c1.09.85,2.43,1.32,3.82,1.32"/>
      <line class="cls-1" x1="29.52" y1=".05" x2="27.89" y2=".05"/>
      <path class="cls-1" d="m24.13,1.34c1.36,0,2.69-.46,3.76-1.32"/>
      <path class="cls-1" d="m24.13,1.52c1.38,0,2.73-.46,3.82-1.32"/>
      <line class="cls-1" x1="24.14" y1="1.37" x2="19.68" y2="1.37"/>
    </g>
  </g>
</svg>