<?xml version="1.0" encoding="UTF-8"?>
<svg id="Capa_2" data-name="Capa 2" xmlns="http://www.w3.org/2000/svg" viewBox="0 0 20.51 3.86">
  <defs>
    <style>
      .cls-1 {
        fill: none;
        stroke: #000;
        stroke-miterlimit: 10;
        stroke-width: .05px;
      }
    </style>
  </defs>
  <g id="Capa_1-2" data-name="Capa 1">
    <g>
      <line class="cls-1" x1="17.04" y1="3.05" x2="17.54" y2="3.05"/>
      <polyline class="cls-1" points="19.79 3.26 20.45 3.26 20.48 3.26 20.48 3.29 20.48 3.5 20.48 3.53 20.48 3.56 20.45 3.59 20.42 3.62 20.39 3.62 20.36 3.62"/>
      <polyline class="cls-1" points="19.79 3.41 20.25 3.41 20.25 3.5 20.25 3.53 20.28 3.56 20.28 3.59 20.3 3.59 20.3 3.62 20.33 3.62 20.36 3.62"/>
      <polyline class="cls-1" points="5.48 1.7 4.17 1.7 4.17 1.73 4.14 1.73 3.42 2.96 3.39 3.05 3.36 3.05 3.36 3.08 3.36 3.17 3.36 3.2 3.36 3.23 3.32 3.23 2.54 3.23 2.51 3.23 2.51 3.26 2.48 3.26 2.48 3.29 2.48 3.77 2.48 3.8 2.45 3.8 2.45 3.83 2.3 3.83 .05 3.83 .03 3.8 .03 3.77 .03 3.68 .03 3.65 .05 3.65 .23 3.65 .57 3.65 .6 3.65 2.28 3.65 2.3 3.65 2.3 3.62 2.3 3.59 2.3 3.29 2.3 3.26 2.3 3.23 2.28 3.23 1.44 3.23 1.41 3.23 1.41 3.2 1.41 3.17 1.41 3.11 1.41 3.08 1.41 3.05 1.44 3.05 3 3.05 3.14 3.05 3.17 3.05 3.17 3.02 4.01 1.55 4.04 1.55 4.07 1.55 5.79 1.55 5.82 1.55 5.85 1.55 5.85 1.58 5.85 1.61 5.04 2.99 5.04 3.03 5.04 3.05 5.07 3.05 5.1 3.05 5.28 3.05"/>
      <polyline class="cls-1" points="5.28 3.23 4.79 3.23 4.76 3.23 4.76 3.2 4.76 3.17 4.76 3.14"/>
      <line class="cls-1" x1="4.76" y1="3.11" x2="5.51" y2="1.79"/>
      <path class="cls-1" d="m5.51,1.77s0-.03,0-.04c0-.01-.02-.02-.04-.02"/>
      <path class="cls-1" d="m4.74,3.11s0,.01,0,.02"/>
      <polyline class="cls-1" points="20.04 1.7 18.72 1.7 18.72 1.73 18.69 1.73 17.91 3.05 17.91 3.08 17.91 3.17 17.91 3.2 17.91 3.23 17.88 3.23 17.04 3.23"/>
      <polyline class="cls-1" points="17.54 3.05 17.7 3.05 17.73 3.05 17.73 3.03 18.57 1.55 18.6 1.55 18.63 1.55 20.33 1.55 20.36 1.55 20.39 1.55 20.39 1.58 20.39 1.61 19.64 2.9 19.47 3.17 19.47 3.2 19.47 3.23 19.5 3.26 19.53 3.26 19.79 3.26"/>
      <polyline class="cls-1" points="19.79 3.41 19.23 3.41 19.2 3.41 19.2 3.39 19.2 3.32"/>
      <polyline class="cls-1" points="19.2 3.29 19.44 2.9 20.07 1.79"/>
      <path class="cls-1" d="m20.06,1.77s0-.03,0-.04c0-.01-.02-.02-.04-.02"/>
      <path class="cls-1" d="m19.17,3.29s0,.01,0,.02"/>
      <polyline class="cls-1" points="9.03 3.05 10.41 3.05 10.44 3.05 10.44 3.03 12.17 .05 12.17 .03 12.2 .03 13.95 .03 13.98 .03 13.98 .05 13.98 .08 12.29 2.99 12.29 3.03 12.32 3.05 12.35 3.05 13.82 3.05"/>
      <polyline class="cls-1" points="13.82 3.23 12.05 3.23 12.03 3.23 12.03 3.2 12.03 3.17 12.03 3.14 12.03 3.11 13.67 .26 13.67 .23 13.64 .2 13.61 .2 12.32 .2 12.29 .2 12.26 .2 12.26 .23 10.64 3.05 10.64 3.08 10.64 3.47 10.64 3.5 10.64 3.53 10.67 3.53 10.86 3.53 10.89 3.53 10.89 3.56 10.92 3.56 10.92 3.78 10.92 3.8 10.89 3.8 10.89 3.83 10.86 3.83 10.2 3.83 10.17 3.83 10.17 3.8 10.14 3.8 10.14 3.78 10.14 3.56 10.14 3.53 10.17 3.53 10.2 3.53 10.41 3.53 10.44 3.53 10.44 3.5 10.47 3.5 10.47 3.47 10.47 3.29 10.47 3.26 10.44 3.26 10.44 3.23 10.41 3.23 9.03 3.23"/>
      <line class="cls-1" x1="8.91" y1="3.05" x2="9.03" y2="3.05"/>
      <polyline class="cls-1" points="9.11 1.7 7.82 1.7 7.79 1.7 7.79 1.73 7.76 1.73 7.04 2.96 7.01 3.05 7.01 3.08 7.01 3.17 7.01 3.2 6.98 3.2 6.98 3.23 6.95 3.23 5.28 3.23"/>
      <polyline class="cls-1" points="5.28 3.05 6.63 3.05 6.78 3.05 6.8 3.05 6.8 3.03 7.67 1.55 7.7 1.55 9.45 1.55 9.48 1.55 9.48 1.58 9.48 1.61 8.67 2.99 8.67 3.03 8.7 3.05 8.73 3.05 8.91 3.05"/>
      <polyline class="cls-1" points="8.91 3.23 8.45 3.23 8.42 3.23 8.39 3.23 8.39 3.2 8.39 3.17 8.39 3.14"/>
      <line class="cls-1" x1="8.39" y1="3.11" x2="9.17" y2="1.79"/>
      <path class="cls-1" d="m9.14,1.77s0-.03,0-.04c0-.01-.02-.02-.04-.02"/>
      <path class="cls-1" d="m8.4,3.11s0,.01,0,.02"/>
      <line class="cls-1" x1="9.03" y1="3.23" x2="8.91" y2="3.23"/>
      <line class="cls-1" x1="16.2" y1="3.05" x2="17.04" y2="3.05"/>
      <polyline class="cls-1" points="16.41 1.7 15.08 1.7 15.05 1.73 14.33 2.96 14.28 3.05 14.28 3.08 14.28 3.17 14.28 3.2 14.28 3.23 14.25 3.23 14.22 3.23 13.82 3.23"/>
      <polyline class="cls-1" points="13.82 3.05 13.89 3.05 14.04 3.05 14.07 3.05 14.1 3.05 14.1 3.03 14.94 1.55 14.97 1.55 15 1.55 16.7 1.55 16.73 1.55 16.73 1.58 16.76 1.58 16.73 1.61 15.95 2.99 15.95 3.03 15.95 3.05 15.98 3.05 16.2 3.05"/>
      <polyline class="cls-1" points="16.2 3.23 15.72 3.23 15.69 3.23 15.69 3.2 15.66 3.2 15.66 3.17 15.66 3.14"/>
      <line class="cls-1" x1="15.69" y1="3.11" x2="16.44" y2="1.79"/>
      <path class="cls-1" d="m16.43,1.77s0-.03,0-.04c0-.01-.02-.02-.04-.02"/>
      <path class="cls-1" d="m15.66,3.11s0,.01,0,.02"/>
      <line class="cls-1" x1="17.04" y1="3.23" x2="16.2" y2="3.23"/>
    </g>
  </g>
</svg>