<?xml version="1.0" encoding="UTF-8"?>
<svg id="Capa_2" data-name="Capa 2" xmlns="http://www.w3.org/2000/svg" viewBox="0 0 20.51 3.86">
  <defs>
    <style>
      .cls-1 {
        fill: none;
        stroke: #000;
        stroke-linecap: round;
        stroke-linejoin: round;
        stroke-width: .05px;
      }
    </style>
  </defs>
  <g id="Capa_1-2" data-name="Capa 1">
    <g>
      <polyline class="cls-1" points="17.19 3.08 19.5 3.08 19.53 3.08 19.55 3.08 19.55 3.11 19.55 3.24 19.55 3.27 19.58 3.27 20.45 3.27 20.45 3.3 20.48 3.3 20.48 3.33 20.48 3.54 20.48 3.57 20.48 3.6 20.45 3.6 20.45 3.63 20.42 3.63 20.42 3.66 20.39 3.66 20.36 3.66"/>
      <polyline class="cls-1" points="17.19 3.27 19.32 3.27 19.35 3.27 19.38 3.27 19.38 3.3 19.38 3.39 19.38 3.42 19.38 3.45 19.41 3.45 19.44 3.45 20.25 3.45 20.25 3.54 20.28 3.57 20.28 3.6 20.3 3.63 20.33 3.66 20.36 3.66"/>
      <polyline class="cls-1" points="5.28 3.08 6.78 3.08 17.19 3.08"/>
      <polyline class="cls-1" points="3.03 3.08 3.14 3.08 3.17 3.05 3.17 3.03 3.17 3 1.5 .11"/>
      <polyline class="cls-1" points="3.2 .24 4.95 3.24 4.98 3.27 8.51 3.27 10.41 3.27 10.44 3.27 10.47 3.27 10.47 3.3 10.47 3.51 10.47 3.54 10.44 3.54 10.41 3.54 10.2 3.54 10.17 3.54 10.17 3.57 10.14 3.57 10.14 3.6 10.14 3.8 10.14 3.83 10.17 3.83 10.2 3.83 10.86 3.83 10.89 3.83 10.92 3.8 10.92 3.6 10.92 3.57 10.89 3.57 10.89 3.54 10.86 3.54 10.67 3.54 10.64 3.54 10.64 3.51 10.64 3.3 10.64 3.27 10.67 3.27 17.19 3.27"/>
      <polyline class="cls-1" points="5.28 3.08 5.1 3.08 5.07 3.08 5.07 3.05 5.04 3.05 3.32 .05"/>
      <polyline class="cls-1" points="3.03 3.08 1.44 3.08 1.41 3.08 1.41 3.11 1.41 3.2 1.41 3.24 1.44 3.27 2.28 3.27 2.3 3.27 2.3 3.3 2.3 3.63 2.3 3.66 2.28 3.66 .6 3.66 .57 3.69 .57 3.66 .23 3.66 .05 3.66 .03 3.69 .03 3.72 .03 3.8 .03 3.83 .05 3.83 2.3 3.83 2.45 3.83 2.48 3.83 2.48 3.8 2.48 3.3 2.51 3.27 2.54 3.27 3.45 3.27 3.48 3.27 3.48 3.24 3.51 3.24 3.51 3.2 3.48 3.17 1.82 .3"/>
      <path class="cls-1" d="m3.29.05s-.02-.02-.04-.02"/>
      <path class="cls-1" d="m1.54.03s-.03,0-.04.02c0,.01,0,.03,0,.04"/>
      <path class="cls-1" d="m1.84.2s-.03,0-.04.02c0,.01,0,.03,0,.04"/>
      <line class="cls-1" x1="3.26" y1=".03" x2="1.55" y2=".03"/>
      <line class="cls-1" x1="3.17" y1=".2" x2="1.86" y2=".2"/>
      <path class="cls-1" d="m3.2.23s-.02-.02-.04-.02"/>
    </g>
  </g>
</svg>