<?xml version="1.0" encoding="UTF-8"?>
<svg id="Capa_2" data-name="Capa 2" xmlns="http://www.w3.org/2000/svg" viewBox="0 0 38.75 1.78">
  <defs>
    <style>
      .cls-1 {
        fill: none;
        stroke: #000;
        stroke-linecap: round;
        stroke-linejoin: round;
        stroke-width: .05px;
      }
    </style>
  </defs>
  <g id="Capa_1-2" data-name="Capa 1">
    <g>
      <polyline class="cls-1" points="19.55 .98 19.55 1.13 19.55 1.16 19.58 1.16 19.58 1.19 19.61 1.19 20.46 1.19 20.49 1.19 20.49 1.22 20.52 1.22 20.52 1.25 20.52 1.43 20.52 1.46 20.49 1.49 20.49 1.52 20.46 1.52 20.46 1.55 20.43 1.55 20.39 1.55"/>
      <polyline class="cls-1" points="19.38 1.16 19.38 1.31 19.41 1.34 19.44 1.34 19.44 1.37 20.28 1.37 20.28 1.43 20.28 1.46 20.28 1.49 20.3 1.52 20.33 1.55 20.36 1.55 20.39 1.55"/>
      <polyline class="cls-1" points="15.96 1.16 10.61 1.16 10.58 1.19 10.58 1.22 10.58 1.4 10.58 1.43 10.58 1.46 10.61 1.46 10.8 1.46 10.83 1.46 10.83 1.49 10.86 1.49 10.86 1.7 10.86 1.73 10.83 1.73 10.83 1.76 10.8 1.76 10.11 1.76 10.08 1.73 10.08 1.7 10.08 1.49 10.08 1.46 10.11 1.46 10.35 1.46 10.38 1.46 10.38 1.43 10.41 1.43 10.41 1.4 10.41 1.22 10.41 1.19 10.38 1.19 10.38 1.16 10.35 1.16 5.04 1.16"/>
      <polyline class="cls-1" points="2.52 1.22 2.52 1.7 2.52 1.73 2.49 1.73 2.49 1.76 2.46 1.76 2.33 1.76 .08 1.76 .05 1.76 .05 1.73 .03 1.73 .03 1.7 .03 1.61 .03 1.58 .05 1.58 .08 1.58 .24 1.58 .57 1.58 .6 1.58 .63 1.58 2.28 1.58 2.3 1.58 2.3 1.55 2.33 1.55 2.33 1.52 2.33 1.22 2.33 1.19 2.3 1.19 2.3 1.16 2.28 1.16 1.47 1.16 1.44 1.16 1.41 1.16 1.41 1.13 1.41 1.04 1.41 1.01 1.44 1.01 1.44 .98 1.47 .98"/>
      <polyline class="cls-1" points="2.16 .98 2.46 .98 2.49 .98 2.49 1.01 2.52 1.01 2.52 1.04 2.52 1.46"/>
      <path class="cls-1" d="m1.44.97c.59-.03,1.11-.4,1.34-.95"/>
      <path class="cls-1" d="m2.13.98c.34-.17.61-.44.78-.77"/>
      <path class="cls-1" d="m3.59.03c.24.58.8.95,1.43.95"/>
      <path class="cls-1" d="m3.48.2c.29.58.89.95,1.54.95"/>
      <path class="cls-1" d="m18.14.03c.24.57.78.94,1.4.95"/>
      <path class="cls-1" d="m18.03.2c.26.52.76.87,1.33.94"/>
      <line class="cls-1" x1="3.6" y1=".05" x2="2.82" y2=".05"/>
      <line class="cls-1" x1="3.48" y1=".2" x2="2.91" y2=".2"/>
      <path class="cls-1" d="m15.94.98c.62,0,1.19-.38,1.43-.95"/>
      <path class="cls-1" d="m15.94,1.16c.65,0,1.25-.37,1.54-.95"/>
      <line class="cls-1" x1="17.36" y1=".05" x2="18.18" y2=".05"/>
      <line class="cls-1" x1="17.49" y1=".2" x2="18.05" y2=".2"/>
      <line class="cls-1" x1="5.04" y1=".98" x2="15.96" y2=".98"/>
      <polyline class="cls-1" points="37.8 .98 37.8 1.13 37.8 1.16 37.8 1.19 37.83 1.19 38.67 1.19 38.7 1.19 38.73 1.19 38.73 1.22 38.73 1.25 38.73 1.43 38.73 1.46 38.73 1.49 38.7 1.49 38.7 1.52 38.67 1.55 38.64 1.55 38.61 1.55"/>
      <polyline class="cls-1" points="37.61 1.16 37.61 1.31 37.61 1.34 37.64 1.34 37.64 1.37 38.49 1.37 38.49 1.43 38.49 1.46 38.49 1.49 38.52 1.49 38.52 1.52 38.55 1.55 38.58 1.55 38.61 1.55"/>
      <polyline class="cls-1" points="34.17 1.16 28.86 1.16 28.83 1.16 28.83 1.19 28.8 1.19 28.8 1.22 28.8 1.4 28.8 1.43 28.83 1.46 28.86 1.46 29.01 1.46 29.04 1.46 29.07 1.46 29.07 1.49 29.07 1.7 29.07 1.73 29.04 1.73 29.04 1.76 29.01 1.76 28.35 1.76 28.32 1.76 28.32 1.73 28.29 1.73 28.29 1.7 28.29 1.49 28.32 1.46 28.35 1.46 28.55 1.46 28.58 1.46 28.61 1.43 28.61 1.4 28.61 1.22 28.61 1.19 28.58 1.16 28.55 1.16 23.25 1.16"/>
      <polyline class="cls-1" points="20.73 1.22 20.73 1.7 20.73 1.73 20.7 1.76 20.55 1.76 18.3 1.76 18.27 1.76 18.27 1.73 18.24 1.73 18.24 1.7 18.24 1.61 18.27 1.61 18.27 1.58 18.3 1.58 18.48 1.58 18.78 1.58 18.8 1.58 18.83 1.58 20.52 1.58 20.55 1.55 20.55 1.52 20.55 1.22 20.55 1.19 20.52 1.16 19.68 1.16 19.64 1.16 19.64 1.13 19.61 1.13 19.61 1.04 19.64 1.01 19.64 .98 19.68 .98"/>
      <polyline class="cls-1" points="20.36 .98 20.7 .98 20.73 1.01 20.73 1.04 20.73 1.46"/>
      <path class="cls-1" d="m19.65.97c.59-.03,1.11-.4,1.34-.95"/>
      <path class="cls-1" d="m20.34.98c.34-.17.61-.44.78-.77"/>
      <path class="cls-1" d="m21.8.03c.24.58.8.95,1.43.95"/>
      <path class="cls-1" d="m21.69.2c.29.58.89.95,1.54.95"/>
      <path class="cls-1" d="m36.38.03c.24.57.78.94,1.4.95"/>
      <path class="cls-1" d="m36.27.2c.26.52.76.87,1.33.94"/>
      <line class="cls-1" x1="21.8" y1=".05" x2="21.03" y2=".05"/>
      <line class="cls-1" x1="21.72" y1=".2" x2="21.14" y2=".2"/>
      <path class="cls-1" d="m34.15.98c.62,0,1.19-.38,1.43-.95"/>
      <path class="cls-1" d="m34.15,1.16c.65,0,1.25-.37,1.54-.95"/>
      <line class="cls-1" x1="35.61" y1=".05" x2="36.39" y2=".05"/>
      <line class="cls-1" x1="35.7" y1=".2" x2="36.27" y2=".2"/>
      <line class="cls-1" x1="23.25" y1=".98" x2="34.17" y2=".98"/>
    </g>
  </g>
</svg>