<?xml version="1.0" encoding="UTF-8"?>
<svg id="Capa_2" data-name="Capa 2" xmlns="http://www.w3.org/2000/svg" viewBox="0 0 38.75 1.67">
  <defs>
    <style>
      .cls-1 {
        fill: none;
        stroke: #000;
        stroke-linecap: round;
        stroke-linejoin: round;
        stroke-width: .05px;
      }
    </style>
  </defs>
  <g id="Capa_1-2" data-name="Capa 1">
    <g>
      <polyline class="cls-1" points="19.55 .93 19.55 1.05 19.55 1.08 19.58 1.08 19.61 1.08 20.45 1.08 20.48 1.08 20.48 1.11 20.48 1.14 20.48 1.35 20.48 1.38 20.48 1.41 20.45 1.41 20.45 1.44 20.42 1.44 20.39 1.44 20.36 1.47"/>
      <polyline class="cls-1" points="19.37 1.17 19.37 1.2 19.37 1.23 19.41 1.23 19.41 1.26 19.44 1.26 20.25 1.26 20.25 1.35 20.28 1.35 20.28 1.38 20.28 1.41 20.3 1.44 20.33 1.44 20.36 1.44 20.36 1.47"/>
      <polyline class="cls-1" points="19.04 .87 19.04 1.02 19.04 1.05 19.01 1.05 18.98 1.05 18.03 1.05"/>
      <polyline class="cls-1" points="17 .87 17 1.02 17 1.05 16.97 1.05 15.98 1.05"/>
      <polyline class="cls-1" points="15 .87 15 1.02 14.97 1.05 14.94 1.05 13.94 1.05"/>
      <polyline class="cls-1" points="12.95 .87 12.95 1.02 12.95 1.05 12.92 1.05 12.89 1.05 10.7 1.05 10.67 1.05 10.67 1.08 10.64 1.08 10.64 1.11 10.64 1.32 10.64 1.35 10.67 1.35 10.7 1.35 10.85 1.35 10.88 1.35 10.91 1.38 10.91 1.41 10.91 1.59 10.91 1.62 10.88 1.65 10.85 1.65 10.19 1.65 10.16 1.65 10.13 1.62 10.13 1.59 10.13 1.41 10.13 1.38 10.16 1.35 10.19 1.35 10.41 1.35 10.44 1.35 10.47 1.35 10.47 1.32 10.47 1.11 10.47 1.08 10.44 1.08 10.44 1.05 10.41 1.05 9.89 1.05 2.63 1.05 2.54 1.05 2.51 1.08 2.51 1.11 2.48 1.11 2.48 1.59 2.48 1.62 2.48 1.65 2.45 1.65 2.33 1.65 .05 1.65 .03 1.65 .03 1.62 .03 1.59 .03 1.53 .03 1.5 .03 1.47 .05 1.47 .23 1.47 .56 1.47 .59 1.5 .59 1.47 2.28 1.47 2.3 1.47 2.3 1.44 2.33 1.44 2.33 1.41 2.33 1.11 2.3 1.08 2.28 1.05 1.44 1.05 1.41 1.05 1.41 1.02"/>
      <polyline class="cls-1" points="1.82 .87 2.39 .87 11.94 .87 12.56 .87"/>
      <line class="cls-1" x1="13.94" y1=".87" x2="14.6" y2=".87"/>
      <line class="cls-1" x1="15.98" y1=".87" x2="16.64" y2=".87"/>
      <line class="cls-1" x1="18.03" y1=".87" x2="18.66" y2=".87"/>
      <path class="cls-1" d="m17.48.43c-.04-.21-.2-.37-.4-.4-.21-.04-.41.06-.51.24-.1.18-.08.41.05.57"/>
      <path class="cls-1" d="m17.3.46c-.03-.16-.18-.28-.35-.26s-.29.16-.28.33c0,.17.15.3.31.3"/>
      <path class="cls-1" d="m19.52.53c0-.22-.14-.42-.35-.48s-.44.02-.56.2c-.12.18-.11.43.04.59"/>
      <path class="cls-1" d="m19.34.52c0-.17-.14-.31-.31-.32s-.31.14-.32.31c0,.17.13.32.31.32"/>
      <path class="cls-1" d="m17.52.46c.04.24.25.41.49.41"/>
      <path class="cls-1" d="m17.35.49c.06.32.34.56.66.56"/>
      <line class="cls-1" x1="19.55" y1=".93" x2="19.55" y2=".57"/>
      <line class="cls-1" x1="19.37" y1="1.17" x2="19.37" y2=".54"/>
      <path class="cls-1" d="m1.47.73c.09.09.21.14.34.14"/>
      <path class="cls-1" d="m1.45.73s-.03-.02-.05,0c-.02,0-.03.02-.03.04"/>
      <line class="cls-1" x1="1.41" y1="1.02" x2="1.41" y2=".78"/>
      <path class="cls-1" d="m15.47.43c-.04-.21-.2-.37-.4-.4-.21-.04-.41.06-.51.24-.1.18-.08.41.05.57"/>
      <path class="cls-1" d="m15.29.46c-.03-.16-.18-.28-.35-.26s-.29.16-.28.33c0,.17.15.3.31.3"/>
      <path class="cls-1" d="m15.48.46c.04.24.25.41.49.41"/>
      <path class="cls-1" d="m15.31.49c.06.32.34.56.66.56"/>
      <path class="cls-1" d="m13.43.43c-.04-.21-.2-.37-.4-.4-.21-.04-.41.06-.51.24-.1.18-.08.41.05.57"/>
      <path class="cls-1" d="m13.25.46c-.03-.16-.18-.28-.35-.26s-.29.16-.28.33c0,.17.15.3.31.3"/>
      <path class="cls-1" d="m13.44.46c.04.24.25.41.49.41"/>
      <path class="cls-1" d="m13.27.49c.06.32.34.56.66.56"/>
      <polyline class="cls-1" points="37.76 .93 37.76 1.05 37.79 1.05 37.79 1.08 37.82 1.08 38.66 1.08 38.69 1.08 38.69 1.11 38.72 1.11 38.72 1.14 38.72 1.35 38.69 1.38 38.69 1.41 38.66 1.44 38.63 1.44 38.6 1.44 38.6 1.47"/>
      <polyline class="cls-1" points="37.58 1.17 37.58 1.2 37.61 1.23 37.61 1.26 37.64 1.26 38.48 1.26 38.48 1.35 38.48 1.38 38.48 1.41 38.51 1.41 38.51 1.44 38.54 1.44 38.57 1.44 38.6 1.47"/>
      <polyline class="cls-1" points="37.25 .87 37.25 1.02 37.25 1.05 37.22 1.05 36.23 1.05"/>
      <polyline class="cls-1" points="35.25 .87 35.25 1.02 35.22 1.05 35.19 1.05 34.19 1.05"/>
      <polyline class="cls-1" points="33.2 .87 33.2 1.02 33.2 1.05 33.17 1.05 33.14 1.05 32.19 1.05"/>
      <polyline class="cls-1" points="31.16 .87 31.16 1.02 31.16 1.05 31.13 1.05 28.91 1.05 28.88 1.05 28.88 1.08 28.85 1.08 28.85 1.11 28.85 1.32 28.88 1.32 28.88 1.35 28.91 1.35 29.09 1.35 29.12 1.35 29.12 1.38 29.12 1.41 29.12 1.59 29.12 1.62 29.12 1.65 29.09 1.65 28.41 1.65 28.37 1.65 28.37 1.62 28.34 1.62 28.34 1.59 28.34 1.41 28.34 1.38 28.37 1.38 28.37 1.35 28.41 1.35 28.64 1.35 28.67 1.35 28.67 1.32 28.67 1.11 28.67 1.08 28.64 1.08 28.64 1.05 28.1 1.05 20.84 1.05 20.75 1.05 20.75 1.08 20.72 1.08 20.72 1.11 20.72 1.59 20.72 1.62 20.69 1.62 20.69 1.65 20.66 1.65 20.54 1.65 18.29 1.65 18.26 1.65 18.23 1.62 18.23 1.59 18.23 1.53 18.23 1.5 18.26 1.47 18.29 1.47 18.44 1.47 18.78 1.47 18.8 1.5 18.83 1.47 20.48 1.47 20.51 1.47 20.54 1.44 20.54 1.41 20.54 1.11 20.54 1.08 20.51 1.08 20.51 1.05 20.48 1.05 19.67 1.05 19.64 1.05 19.61 1.05 19.61 1.02"/>
      <polyline class="cls-1" points="20.03 .87 20.63 .87 30.14 .87 30.78 .87"/>
      <line class="cls-1" x1="32.19" y1=".87" x2="32.81" y2=".87"/>
      <line class="cls-1" x1="34.19" y1=".87" x2="34.85" y2=".87"/>
      <line class="cls-1" x1="36.23" y1=".87" x2="36.89" y2=".87"/>
      <path class="cls-1" d="m35.72.43c-.04-.21-.2-.37-.4-.4-.21-.04-.41.06-.51.24-.1.18-.08.41.05.57"/>
      <path class="cls-1" d="m35.54.46c-.03-.16-.18-.28-.35-.26s-.29.16-.28.33c0,.17.15.3.31.3"/>
      <path class="cls-1" d="m37.73.53c0-.22-.14-.42-.35-.48-.21-.06-.44.02-.56.2-.12.18-.11.43.04.59"/>
      <path class="cls-1" d="m37.55.52c0-.17-.14-.31-.31-.32s-.31.14-.32.31c0,.17.13.32.31.32"/>
      <path class="cls-1" d="m35.73.46c.04.24.25.41.49.41"/>
      <path class="cls-1" d="m35.56.49c.06.32.34.56.66.56"/>
      <line class="cls-1" x1="37.76" y1=".93" x2="37.76" y2=".57"/>
      <line class="cls-1" x1="37.58" y1="1.17" x2="37.58" y2=".54"/>
      <path class="cls-1" d="m19.68.73c.09.09.21.14.34.14"/>
      <path class="cls-1" d="m19.69.73s-.03-.02-.05,0c-.02,0-.03.02-.03.04"/>
      <line class="cls-1" x1="19.61" y1="1.02" x2="19.61" y2=".78"/>
      <path class="cls-1" d="m33.68.43c-.04-.21-.2-.37-.4-.4-.21-.04-.41.06-.51.24-.1.18-.08.41.05.57"/>
      <path class="cls-1" d="m33.5.46c-.03-.16-.18-.28-.35-.26s-.29.16-.28.33c0,.17.15.3.31.3"/>
      <path class="cls-1" d="m33.69.46c.04.24.25.41.49.41"/>
      <path class="cls-1" d="m33.52.49c.06.32.34.56.66.56"/>
      <path class="cls-1" d="m31.64.43c-.04-.21-.2-.37-.4-.4-.21-.04-.41.06-.51.24-.1.18-.08.41.05.57"/>
      <path class="cls-1" d="m31.46.46c-.03-.16-.18-.28-.35-.26s-.29.16-.28.33.15.3.31.3"/>
      <path class="cls-1" d="m31.68.46c.04.24.25.41.49.41"/>
      <path class="cls-1" d="m31.51.49c.06.32.34.56.66.56"/>
    </g>
  </g>
</svg>