<?xml version="1.0" encoding="UTF-8"?>
<svg id="Capa_2" data-name="Capa 2" xmlns="http://www.w3.org/2000/svg" viewBox="0 0 23.99 3.6">
  <defs>
    <style>
      .cls-1 {
        fill: none;
        stroke: #000;
        stroke-linecap: round;
        stroke-linejoin: round;
        stroke-width: .1px;
      }
    </style>
  </defs>
  <g id="_0" data-name="0">
    <g id="LWPOLYLINE">
      <path class="cls-1" d="m19.54.05h2.32c.06,0,.1.04.1.1v1.78s0,.33,0,.33c0,.06.04.1.1.1h1.78c.06,0,.1.04.1.1v.43c0,.14-.11.25-.25.25h0c-.14,0-.25-.11-.25-.25v-.18h-1.75c-.06,0-.1-.04-.1-.1V.53c0-.06-.04-.1-.1-.1h-1.94s-12.33,0-12.33,0c-.06,0-.1.04-.1.1v1.68c0,.06-.04.1-.1.1h-1.64c-.06,0-.1.04-.1.1v1.04c0,.06-.04.1-.1.1H.15c-.06,0-.1-.04-.1-.1v-.18c0-.06.04-.1.1-.1h1.05l.05.03.05-.03h3.51c.06,0,.1-.04.1-.1v-.66c0-.06-.04-.1-.1-.1h-1.74c-.06,0-.1-.04-.1-.1v-.18c0-.06.04-.1.1-.1h3.58c.06,0,.1-.04.1-.1V.15c0-.06.04-.1.1-.1h12.7Z"/>
    </g>
  </g>
</svg>