<?xml version="1.0" encoding="UTF-8"?>
<svg id="Capa_2" data-name="Capa 2" xmlns="http://www.w3.org/2000/svg" viewBox="0 0 20.51 3.71">
  <defs>
    <style>
      .cls-1 {
        fill: none;
        stroke: #000;
        stroke-miterlimit: 10;
        stroke-width: .05px;
      }
    </style>
  </defs>
  <g id="Capa_1-2" data-name="Capa 1">
    <g>
      <polyline class="cls-1" points="19.55 2.67 19.55 3.06 19.55 3.09 19.58 3.09 19.58 3.12 19.61 3.12 20.45 3.12 20.48 3.12 20.48 3.14 20.48 3.36 20.48 3.39 20.48 3.42 20.45 3.45 20.42 3.48 20.39 3.48 20.36 3.48"/>
      <polyline class="cls-1" points="19.37 2.94 19.37 3.24 19.37 3.27 19.41 3.27 19.44 3.27 20.25 3.27 20.25 3.36 20.28 3.39 20.28 3.42 20.28 3.45 20.3 3.45 20.3 3.48 20.33 3.48 20.36 3.48"/>
      <polyline class="cls-1" points="4.19 2.91 4.19 3.03 4.19 3.06 4.22 3.06 4.22 3.09 4.25 3.09 4.91 3.09 10.41 3.09 10.44 3.09 10.47 3.09 10.47 3.12 10.47 3.14 10.47 3.33 10.47 3.36 10.44 3.36 10.44 3.39 10.41 3.39 10.19 3.39 10.16 3.39 10.13 3.39 10.13 3.42 10.13 3.63 10.13 3.66 10.16 3.66 10.16 3.69 10.19 3.69 10.85 3.69 10.88 3.69 10.88 3.66 10.91 3.66 10.91 3.63 10.91 3.42 10.91 3.39 10.88 3.39 10.85 3.39 10.7 3.39 10.67 3.39 10.67 3.36 10.64 3.36 10.64 3.33 10.64 3.14 10.64 3.12 10.67 3.09 10.7 3.09 18.41 3.09"/>
      <polyline class="cls-1" points="1.58 2.73 1.58 2.85 1.58 2.88 1.58 2.91 1.61 2.91 2.45 2.91 2.48 2.91 2.48 2.94 2.48 2.97 2.48 3.63 2.48 3.66 2.45 3.69 2.33 3.69 .05 3.69 .05 3.66 .03 3.66 .03 3.63 .03 3.54 .03 3.5 .05 3.5 .23 3.5 .56 3.5 .59 3.5 2.28 3.5 2.3 3.48 2.33 3.45 2.33 3.14 2.33 3.12 2.3 3.12 2.3 3.09 2.28 3.09 1.44 3.09 1.41 3.09 1.41 3.06 1.41 3.03 1.41 2.64"/>
      <line class="cls-1" x1="4.91" y1="2.91" x2="18.41" y2="2.91"/>
      <path class="cls-1" d="m4.89,2.88c.6-.32.91-1,.77-1.66-.15-.66-.72-1.15-1.4-1.19-.68-.04-1.3.38-1.52,1.03"/>
      <path class="cls-1" d="m4.18,2.88c.68,0,1.25-.51,1.33-1.19.07-.68-.37-1.3-1.04-1.45-.67-.15-1.33.23-1.55.88"/>
      <path class="cls-1" d="m1.38,2.6c.64-.32,1.13-.87,1.36-1.55"/>
      <path class="cls-1" d="m1.56,2.71c.64-.35,1.12-.92,1.35-1.6"/>
      <path class="cls-1" d="m18.4,2.88c.39,0,.77-.08,1.13-.25"/>
      <path class="cls-1" d="m18.4,3.06c.32,0,.64-.05.95-.16"/>
    </g>
  </g>
</svg>