<?xml version="1.0" encoding="UTF-8"?>
<svg id="Capa_2" data-name="Capa 2" xmlns="http://www.w3.org/2000/svg" viewBox="0 0 39.5 3.86">
  <defs>
    <style>
      .cls-1 {
        fill: none;
        stroke: #000;
        stroke-linecap: round;
        stroke-linejoin: round;
        stroke-width: .05px;
      }
    </style>
  </defs>
  <g id="Capa_1-2" data-name="Capa 1">
    <g>
      <polyline class="cls-1" points="5.28 3.08 6.78 3.08 17.54 3.08"/>
      <polyline class="cls-1" points="19.79 3.26 20.45 3.26 20.45 3.3 20.48 3.3 20.48 3.33 20.48 3.54 20.48 3.57 20.48 3.6 20.45 3.6 20.45 3.63 20.42 3.63 20.39 3.66 20.36 3.66"/>
      <polyline class="cls-1" points="19.79 3.45 20.25 3.45 20.25 3.54 20.28 3.57 20.28 3.6 20.3 3.63 20.33 3.63 20.36 3.66"/>
      <polyline class="cls-1" points="5.01 .23 3.42 3 3.39 3.08 3.36 3.08 3.36 3.2 3.36 3.23 3.32 3.23 3.32 3.26 2.54 3.26 2.51 3.26 2.48 3.3 2.48 3.8 2.48 3.83 2.45 3.83 2.3 3.83 .05 3.83 .03 3.83 .03 3.8 .03 3.72 .03 3.69 .03 3.66 .05 3.66 .23 3.66 .57 3.66 .57 3.69 .6 3.66 2.28 3.66 2.3 3.66 2.3 3.63 2.3 3.3 2.3 3.26 2.28 3.26 1.44 3.26 1.44 3.23 1.41 3.23 1.41 3.2 1.41 3.11 1.41 3.08 1.44 3.08 3 3.08"/>
      <polyline class="cls-1" points="3 3.08 3.14 3.08 3.17 3.05 4.92 .05"/>
      <polyline class="cls-1" points="6.72 .11 5.04 3 5.04 3.03 5.04 3.05 5.07 3.05 5.07 3.08 5.1 3.08 5.28 3.08"/>
      <polyline class="cls-1" points="5.28 3.26 4.79 3.26 4.79 3.23 4.76 3.23 4.76 3.2 4.76 3.14"/>
      <path class="cls-1" d="m4.93.03s-.03,0-.04.02"/>
      <path class="cls-1" d="m6.71.09s0-.03,0-.05c0-.01-.02-.02-.04-.02"/>
      <line class="cls-1" x1="4.76" y1="3.11" x2="6.42" y2=".3"/>
      <path class="cls-1" d="m6.38.27s0-.03,0-.04c0-.01-.02-.02-.04-.02"/>
      <line class="cls-1" x1="4.95" y1=".03" x2="6.69" y2=".03"/>
      <line class="cls-1" x1="5.07" y1=".2" x2="6.36" y2=".2"/>
      <path class="cls-1" d="m5.05.2s-.03,0-.04.02"/>
      <path class="cls-1" d="m4.74,3.11s0,.01,0,.02"/>
      <polyline class="cls-1" points="19.55 .23 17.91 3.08 17.91 3.2 17.91 3.23 17.88 3.23 17.88 3.26 10.67 3.26 10.64 3.26 10.64 3.3 10.64 3.51 10.64 3.54 10.67 3.54 10.86 3.54 10.89 3.54 10.89 3.57 10.92 3.57 10.92 3.6 10.92 3.8 10.89 3.8 10.89 3.83 10.86 3.83 10.2 3.83 10.17 3.83 10.14 3.83 10.14 3.8 10.14 3.6 10.14 3.57 10.17 3.57 10.17 3.54 10.2 3.54 10.41 3.54 10.44 3.54 10.47 3.54 10.47 3.51 10.47 3.3 10.47 3.26 10.44 3.26 10.41 3.26 8.51 3.26 5.28 3.26"/>
      <polyline class="cls-1" points="17.54 3.08 17.7 3.08 17.7 3.05 17.73 3.05 19.47 .05"/>
      <polyline class="cls-1" points="21.26 .11 19.64 2.94 19.47 3.2 19.47 3.23 19.47 3.26 19.5 3.26 19.53 3.26 19.79 3.26"/>
      <polyline class="cls-1" points="19.79 3.45 19.23 3.45 19.2 3.45 19.2 3.42 19.2 3.39 19.2 3.36"/>
      <path class="cls-1" d="m19.48.03s-.03,0-.04.02"/>
      <path class="cls-1" d="m21.23.09s0-.03,0-.05c0-.01-.02-.02-.04-.02"/>
      <polyline class="cls-1" points="19.2 3.33 19.44 2.94 20.94 .3"/>
      <path class="cls-1" d="m20.93.27s0-.03,0-.04c0-.01-.02-.02-.04-.02"/>
      <line class="cls-1" x1="19.5" y1=".03" x2="21.2" y2=".03"/>
      <line class="cls-1" x1="19.58" y1=".2" x2="20.91" y2=".2"/>
      <path class="cls-1" d="m19.57.2s-.03,0-.04.02"/>
      <path class="cls-1" d="m19.17,3.32s0,.01,0,.02"/>
      <polyline class="cls-1" points="23.48 3.08 24.98 3.08 35.76 3.08"/>
      <polyline class="cls-1" points="38.01 3.26 38.67 3.26 38.7 3.26 38.7 3.3 38.7 3.33 38.73 3.33 38.73 3.54 38.7 3.54 38.7 3.57 38.7 3.6 38.67 3.63 38.64 3.63 38.6 3.66"/>
      <polyline class="cls-1" points="38.01 3.45 38.48 3.45 38.48 3.54 38.48 3.57 38.48 3.6 38.51 3.6 38.51 3.63 38.54 3.63 38.57 3.66 38.6 3.66"/>
      <polyline class="cls-1" points="23.22 .23 21.63 3 21.6 3.08 21.6 3.2 21.6 3.23 21.57 3.23 21.54 3.26 20.76 3.26 20.73 3.26 20.73 3.3 20.73 3.8 20.7 3.8 20.7 3.83 20.67 3.83 20.54 3.83 18.26 3.83 18.23 3.83 18.23 3.8 18.23 3.72 18.23 3.69 18.26 3.66 18.45 3.66 18.78 3.66 18.8 3.69 18.83 3.66 20.48 3.66 20.51 3.66 20.51 3.63 20.54 3.63 20.54 3.3 20.51 3.26 20.48 3.26 19.67 3.26 19.64 3.26 19.64 3.23 19.61 3.23 19.61 3.2 19.61 3.11 19.61 3.08 19.64 3.08 19.67 3.08 21.2 3.08 21.35 3.08 21.39 3.08 21.39 3.05 23.13 .05"/>
      <polyline class="cls-1" points="24.92 .11 23.28 3 23.25 3.03 23.25 3.05 23.28 3.05 23.28 3.08 23.3 3.08 23.48 3.08"/>
      <polyline class="cls-1" points="23.48 3.26 23.04 3.26 23.01 3.26 23.01 3.23 22.98 3.23 22.98 3.2 22.98 3.14"/>
      <path class="cls-1" d="m23.14.03s-.03,0-.04.02"/>
      <path class="cls-1" d="m24.92.09s0-.03,0-.05c0-.01-.02-.02-.04-.02"/>
      <line class="cls-1" x1="22.98" y1="3.11" x2="24.63" y2=".3"/>
      <path class="cls-1" d="m24.62.27s0-.03,0-.04c0-.01-.02-.02-.04-.02"/>
      <line class="cls-1" x1="23.16" y1=".03" x2="24.89" y2=".03"/>
      <line class="cls-1" x1="23.28" y1=".2" x2="24.6" y2=".2"/>
      <path class="cls-1" d="m23.26.2s-.03,0-.04.02"/>
      <path class="cls-1" d="m22.98,3.11s0,.01,0,.02"/>
      <polyline class="cls-1" points="37.76 .23 36.14 3.08 36.14 3.2 36.11 3.23 36.08 3.23 36.08 3.26 28.92 3.26 28.89 3.26 28.85 3.26 28.85 3.3 28.85 3.51 28.85 3.54 28.89 3.54 28.92 3.54 29.07 3.54 29.1 3.54 29.1 3.57 29.13 3.57 29.13 3.6 29.13 3.8 29.13 3.83 29.1 3.83 29.07 3.83 28.41 3.83 28.38 3.83 28.35 3.8 28.35 3.6 28.35 3.57 28.38 3.57 28.38 3.54 28.41 3.54 28.64 3.54 28.67 3.54 28.67 3.51 28.67 3.3 28.67 3.26 28.64 3.26 26.73 3.26 23.48 3.26"/>
      <polyline class="cls-1" points="35.76 3.08 35.91 3.08 35.94 3.08 35.94 3.05 37.67 .05"/>
      <polyline class="cls-1" points="39.48 .11 37.85 2.94 37.67 3.2 37.67 3.23 37.7 3.26 37.73 3.26 38.01 3.26"/>
      <polyline class="cls-1" points="38.01 3.45 37.47 3.45 37.44 3.45 37.41 3.42 37.41 3.39 37.41 3.36"/>
      <path class="cls-1" d="m37.69.03s-.03,0-.04.02"/>
      <path class="cls-1" d="m39.47.09s0-.03,0-.05c0-.01-.02-.02-.04-.02"/>
      <polyline class="cls-1" points="37.41 3.33 37.64 2.94 39.17 .3"/>
      <path class="cls-1" d="m39.14.27s0-.03,0-.04c0-.01-.02-.02-.04-.02"/>
      <line class="cls-1" x1="37.7" y1=".03" x2="39.45" y2=".03"/>
      <line class="cls-1" x1="37.82" y1=".2" x2="39.11" y2=".2"/>
      <path class="cls-1" d="m37.81.2s-.03,0-.04.02"/>
      <path class="cls-1" d="m37.41,3.32s0,.01,0,.02"/>
    </g>
  </g>
</svg>