<?xml version="1.0" encoding="UTF-8" standalone="no"?>
<svg
   id="Capa_2"
   data-name="Capa 2"
   viewBox="0 0 21.280001 3.8901271"
   version="1.1"
   sodipodi:docname="matrix11_i.svg"
   width="21.280001"
   height="3.8901272"
   inkscape:version="1.3.2 (091e20e, 2023-11-25, custom)"
   xmlns:inkscape="http://www.inkscape.org/namespaces/inkscape"
   xmlns:sodipodi="http://sodipodi.sourceforge.net/DTD/sodipodi-0.dtd"
   xmlns="http://www.w3.org/2000/svg"
   xmlns:svg="http://www.w3.org/2000/svg">
  <sodipodi:namedview
     id="namedview45"
     pagecolor="#ffffff"
     bordercolor="#000000"
     borderopacity="0.25"
     inkscape:showpageshadow="2"
     inkscape:pageopacity="0.0"
     inkscape:pagecheckerboard="0"
     inkscape:deskcolor="#d1d1d1"
     showgrid="false"
     inkscape:zoom="51.873418"
     inkscape:cx="19.75"
     inkscape:cy="1.9374085"
     inkscape:window-width="2560"
     inkscape:window-height="1369"
     inkscape:window-x="-8"
     inkscape:window-y="-8"
     inkscape:window-maximized="1"
     inkscape:current-layer="Capa_2" />
  <defs
     id="defs1">
    <style
       id="style1">
      .cls-1 {
        fill: none;
        stroke: #000;
        stroke-linecap: round;
        stroke-linejoin: round;
        stroke-width: .05px;
      }
    </style>
  </defs>
  <g
     id="Capa_1-2"
     data-name="Capa 1"
     transform="translate(-0.005,-0.00487281)">
    <g
       id="g45">
      <polyline
         class="cls-1"
         points="5.28 3.08 6.78 3.08 9.8 3.08"
         id="polyline1" />
      <line
         class="cls-1"
         x1="13.7"
         y1="3.0799999"
         x2="17.540001"
         y2="3.0799999"
         id="line1" />
      <polyline
         class="cls-1"
         points="19.79 3.3 20.45 3.3 20.48 3.3 20.48 3.33 20.48 3.54 20.48 3.57 20.48 3.6 20.45 3.63 20.42 3.66 20.39 3.66 20.36 3.66"
         id="polyline2" />
      <polyline
         class="cls-1"
         points="19.79 3.45 20.25 3.45 20.25 3.54 20.25 3.57 20.28 3.57 20.28 3.6 20.28 3.63 20.3 3.63 20.3 3.66 20.33 3.66 20.36 3.66"
         id="polyline3" />
      <polyline
         class="cls-1"
         points="5.01 .27 3.42 3 3.39 3.08 3.36 3.08 3.36 3.12 3.36 3.21 3.36 3.24 3.36 3.27 3.32 3.27 2.54 3.27 2.51 3.27 2.51 3.3 2.48 3.3 2.48 3.33 2.48 3.8 2.48 3.83 2.45 3.83 2.45 3.87 2.3 3.87 .05 3.87 .03 3.83 .03 3.8 .03 3.72 .03 3.69 .05 3.69 .23 3.69 .57 3.69 .6 3.69 2.28 3.69 2.3 3.66 2.3 3.63 2.3 3.33 2.3 3.3 2.3 3.27 2.28 3.27 1.44 3.27 1.41 3.27 1.41 3.24 1.41 3.21 1.41 3.15 1.41 3.12 1.41 3.08 1.44 3.08 3 3.08 3.14 3.08 3.17 3.08 3.17 3.05 4.92 .08"
         id="polyline4" />
      <polyline
         class="cls-1"
         points="6.72 .12 5.04 3.03 5.04 3.05 5.04 3.08 5.07 3.08 5.1 3.08 5.28 3.08"
         id="polyline5" />
      <polyline
         class="cls-1"
         points="5.28 3.27 4.79 3.27 4.76 3.27 4.76 3.24 4.76 3.21 4.76 3.18"
         id="polyline6" />
      <path
         class="cls-1"
         d="m 4.93,0.03 c 0,0 -0.03,0 -0.04,0.02"
         id="path6" />
      <path
         class="cls-1"
         d="m 6.71,0.09 c 0,0 0,-0.03 0,-0.04 0,-0.01 -0.02,-0.02 -0.04,-0.02"
         id="path7" />
      <line
         class="cls-1"
         x1="4.7600002"
         y1="3.1500001"
         x2="6.4200001"
         y2="0.30000001"
         id="line7" />
      <path
         class="cls-1"
         d="m 6.38,0.27 c 0,0 0,-0.03 0,-0.04 0,-0.01 -0.02,-0.02 -0.04,-0.02"
         id="path8" />
      <line
         class="cls-1"
         x1="4.9499998"
         y1="0.050000001"
         x2="6.6900001"
         y2="0.050000001"
         id="line8" />
      <line
         class="cls-1"
         x1="5.0700002"
         y1="0.23999999"
         x2="6.3600001"
         y2="0.23999999"
         id="line9" />
      <path
         class="cls-1"
         d="m 5.05,0.21 c 0,0 -0.03,0 -0.04,0.02"
         id="path9" />
      <path
         class="cls-1"
         d="m 4.74,3.14 c 0,0 0,0.01 0,0.02"
         id="path10" />
      <polyline
         class="cls-1"
         points="19.55 .27 17.91 3.08 17.91 3.12 17.91 3.21 17.91 3.24 17.91 3.27 17.88 3.27 13.7 3.27"
         id="polyline10" />
      <polyline
         class="cls-1"
         points="9.8 3.27 8.51 3.27 5.28 3.27"
         id="polyline11" />
      <polyline
         class="cls-1"
         points="17.54 3.08 17.7 3.08 17.73 3.08 17.73 3.05 19.47 .08"
         id="polyline12" />
      <polyline
         class="cls-1"
         points="19.5 .05 21.2 .05 21.23 .05 21.26 .05 21.26 .08 21.26 .12 19.64 2.94 19.47 3.21 19.47 3.24 19.47 3.27 19.5 3.3 19.53 3.3 19.79 3.3"
         id="polyline13" />
      <polyline
         class="cls-1"
         points="19.79 3.45 19.23 3.45 19.2 3.45 19.2 3.42 19.2 3.36"
         id="polyline14" />
      <path
         class="cls-1"
         d="m 19.48,0.03 c 0,0 -0.03,0 -0.04,0.02"
         id="path14" />
      <polyline
         class="cls-1"
         points="19.2 3.33 19.44 2.94 20.94 .3"
         id="polyline15" />
      <path
         class="cls-1"
         d="m 20.93,0.27 c 0,0 0,-0.03 0,-0.04 0,-0.01 -0.02,-0.02 -0.04,-0.02"
         id="path15" />
      <line
         class="cls-1"
         x1="19.58"
         y1="0.23999999"
         x2="20.91"
         y2="0.23999999"
         id="line15" />
      <path
         class="cls-1"
         d="m 19.57,0.21 c 0,0 -0.03,0 -0.04,0.02"
         id="path16" />
      <path
         class="cls-1"
         d="m 19.17,3.32 c 0,0 0,0.01 0,0.02"
         id="path17" />
      <polyline
         class="cls-1"
         points="12.26 .27 10.64 3.08 10.64 3.51 10.64 3.54 10.67 3.57 10.86 3.57 10.89 3.57 10.89 3.6 10.92 3.6 10.92 3.8 10.92 3.83 10.89 3.83 10.89 3.87 10.86 3.87 10.2 3.87 10.17 3.87 10.17 3.83 10.14 3.83 10.14 3.8 10.14 3.6 10.14 3.57 10.17 3.57 10.2 3.57 10.41 3.57 10.44 3.57 10.44 3.54 10.47 3.54 10.47 3.51 10.47 3.33 10.47 3.3 10.44 3.27 10.41 3.27 9.8 3.27"
         id="polyline17" />
      <polyline
         class="cls-1"
         points="9.8 3.08 10.41 3.08 10.44 3.08 10.44 3.05 12.17 .08"
         id="polyline18" />
      <polyline
         class="cls-1"
         points="13.98 .12 12.29 3.03 12.29 3.05 12.32 3.08 12.35 3.08 13.7 3.08"
         id="polyline19" />
      <polyline
         class="cls-1"
         points="13.7 3.27 12.05 3.27 12.03 3.27 12.03 3.24 12.03 3.21 12.03 3.18 12.03 3.15 13.67 .3"
         id="polyline20" />
      <path
         class="cls-1"
         d="m 12.19,0.03 c 0,0 -0.03,0 -0.04,0.02"
         id="path20" />
      <path
         class="cls-1"
         d="m 13.97,0.09 c 0,0 0,-0.03 0,-0.04 0,-0.01 -0.02,-0.02 -0.04,-0.02"
         id="path21" />
      <path
         class="cls-1"
         d="m 13.64,0.27 c 0,0 0,-0.03 0,-0.04 0,-0.01 -0.02,-0.02 -0.04,-0.02"
         id="path22" />
      <line
         class="cls-1"
         x1="12.2"
         y1="0.050000001"
         x2="13.95"
         y2="0.050000001"
         id="line22" />
      <line
         class="cls-1"
         x1="12.32"
         y1="0.23999999"
         x2="13.61"
         y2="0.23999999"
         id="line23" />
      <path
         class="cls-1"
         d="m 12.31,0.21 c 0,0 -0.03,0 -0.04,0.02"
         id="path23" />
    </g>
  </g>
</svg>
