<?xml version="1.0" encoding="UTF-8"?>
<svg id="Capa_2" data-name="Capa 2" xmlns="http://www.w3.org/2000/svg" viewBox="0 0 39.5 3.86">
  <defs>
    <style>
      .cls-1 {
        fill: none;
        stroke: #000;
        stroke-linecap: round;
        stroke-linejoin: round;
        stroke-width: .05px;
      }
    </style>
  </defs>
  <g id="Capa_1-2" data-name="Capa 1">
    <g>
      <polyline class="cls-1" points="2.85 3.27 2.54 3.27 2.51 3.27 2.51 3.3 2.48 3.3 2.48 3.8 2.48 3.83 2.45 3.83 2.3 3.83 .05 3.83 .03 3.83 .03 3.8 .03 3.72 .03 3.69 .05 3.69 .05 3.66 .23 3.66 .57 3.66 .57 3.69 .6 3.66 2.28 3.66 2.3 3.66 2.3 3.63 2.3 3.3 2.3 3.27 2.28 3.27 1.44 3.27 1.41 3.27 1.41 3.24 1.41 3.21 1.41 3.11 1.41 3.08 1.44 3.08 2.85 3.08"/>
      <polyline class="cls-1" points="16.95 3.27 15.69 3.27 15.66 3.27 15.66 3.24 15.63 3.24 15.63 3.21 15.66 3.18 17.3 .3"/>
      <polyline class="cls-1" points="19.79 3.3 20.45 3.3 20.48 3.3 20.48 3.33 20.48 3.54 20.48 3.57 20.48 3.6 20.45 3.6 20.45 3.63 20.42 3.63 20.42 3.66 20.39 3.66 20.36 3.66"/>
      <polyline class="cls-1" points="19.79 3.45 20.25 3.45 20.25 3.54 20.25 3.57 20.28 3.57 20.28 3.6 20.3 3.63 20.33 3.66 20.36 3.66"/>
      <polyline class="cls-1" points="19.55 .24 17.82 3.24 17.82 3.27 17.79 3.27 16.95 3.27"/>
      <polyline class="cls-1" points="17.54 3.08 17.7 3.08 17.73 3.05 19.47 .05"/>
      <polyline class="cls-1" points="21.26 .11 19.64 2.94 19.47 3.21 19.47 3.24 19.47 3.27 19.5 3.27 19.5 3.3 19.53 3.3 19.79 3.3"/>
      <polyline class="cls-1" points="19.79 3.45 19.23 3.45 19.2 3.45 19.2 3.42 19.2 3.36"/>
      <path class="cls-1" d="m19.48.03s-.03,0-.04.02"/>
      <path class="cls-1" d="m21.23.09s0-.03,0-.04c0-.01-.02-.02-.04-.02"/>
      <polyline class="cls-1" points="19.2 3.33 19.44 2.94 20.94 .3"/>
      <path class="cls-1" d="m20.93.27s0-.03,0-.04c0-.01-.02-.02-.04-.02"/>
      <line class="cls-1" x1="19.5" y1=".05" x2="21.2" y2=".05"/>
      <line class="cls-1" x1="19.58" y1=".24" x2="20.91" y2=".24"/>
      <path class="cls-1" d="m19.57.21s-.03,0-.04.02"/>
      <path class="cls-1" d="m19.17,3.32s0,.01,0,.02"/>
      <polyline class="cls-1" points="15.92 .24 14.19 3.24 14.19 3.27 14.16 3.27 10.64 3.27 10.61 3.27 10.61 3.3 10.61 3.51 10.61 3.54 10.64 3.54 10.82 3.54 10.82 3.57 10.86 3.57 10.86 3.6 10.86 3.8 10.86 3.83 10.82 3.83 10.14 3.83 10.11 3.83 10.11 3.8 10.11 3.6 10.11 3.57 10.14 3.57 10.14 3.54 10.38 3.54 10.41 3.54 10.44 3.51 10.44 3.3 10.41 3.3 10.41 3.27 10.38 3.27 8.48 3.27 2.85 3.27"/>
      <polyline class="cls-1" points="2.85 3.08 6.78 3.08 14.04 3.08 14.07 3.08 14.07 3.05 14.1 3.05 15.8 .05"/>
      <polyline class="cls-1" points="17.64 .11 15.95 3 15.95 3.03 15.95 3.05 15.95 3.08 15.98 3.08 17.54 3.08"/>
      <path class="cls-1" d="m15.85.03s-.03,0-.04.02"/>
      <path class="cls-1" d="m17.6.09s0-.03,0-.04c0-.01-.02-.02-.04-.02"/>
      <path class="cls-1" d="m17.3.27s0-.03,0-.04c0-.01-.02-.02-.04-.02"/>
      <line class="cls-1" x1="15.86" y1=".05" x2="17.57" y2=".05"/>
      <line class="cls-1" x1="15.95" y1=".24" x2="17.28" y2=".24"/>
      <path class="cls-1" d="m15.94.21s-.03,0-.04.02"/>
      <polyline class="cls-1" points="21.05 3.27 20.76 3.27 20.73 3.27 20.73 3.3 20.73 3.8 20.7 3.83 20.67 3.83 20.54 3.83 18.26 3.83 18.23 3.83 18.23 3.8 18.23 3.72 18.23 3.69 18.26 3.69 18.26 3.66 18.45 3.66 18.78 3.66 18.8 3.69 18.83 3.66 20.48 3.66 20.51 3.66 20.54 3.63 20.54 3.3 20.51 3.3 20.51 3.27 20.48 3.27 19.67 3.27 19.64 3.27 19.64 3.24 19.61 3.24 19.61 3.21 19.61 3.11 19.61 3.08 19.64 3.08 19.67 3.08 21.05 3.08"/>
      <polyline class="cls-1" points="35.19 3.27 33.89 3.27 33.86 3.27 33.86 3.24 33.86 3.21 33.86 3.18 35.54 .3"/>
      <polyline class="cls-1" points="38.01 3.3 38.67 3.3 38.7 3.3 38.7 3.33 38.73 3.33 38.73 3.54 38.7 3.57 38.7 3.6 38.67 3.63 38.64 3.66 38.6 3.66"/>
      <polyline class="cls-1" points="38.01 3.45 38.48 3.45 38.48 3.54 38.48 3.57 38.48 3.6 38.51 3.6 38.51 3.63 38.54 3.63 38.54 3.66 38.57 3.66 38.6 3.66"/>
      <polyline class="cls-1" points="37.76 .24 36.05 3.24 36.03 3.24 36.03 3.27 36 3.27 35.19 3.27"/>
      <polyline class="cls-1" points="35.76 3.08 35.91 3.08 35.94 3.08 35.94 3.05 37.67 .05"/>
      <polyline class="cls-1" points="39.48 .11 37.85 2.94 37.67 3.21 37.67 3.24 37.67 3.27 37.7 3.27 37.73 3.3 38.01 3.3"/>
      <polyline class="cls-1" points="38.01 3.45 37.47 3.45 37.44 3.45 37.41 3.45 37.41 3.42 37.41 3.36"/>
      <path class="cls-1" d="m37.69.03s-.03,0-.04.02"/>
      <path class="cls-1" d="m39.47.09s0-.03,0-.04c0-.01-.02-.02-.04-.02"/>
      <polyline class="cls-1" points="37.41 3.33 37.64 2.94 39.17 .3"/>
      <path class="cls-1" d="m39.14.27s0-.03,0-.04c0-.01-.02-.02-.04-.02"/>
      <line class="cls-1" x1="37.7" y1=".05" x2="39.45" y2=".05"/>
      <line class="cls-1" x1="37.82" y1=".24" x2="39.11" y2=".24"/>
      <path class="cls-1" d="m37.81.21s-.03,0-.04.02"/>
      <path class="cls-1" d="m37.41,3.32s0,.01,0,.02"/>
      <polyline class="cls-1" points="34.14 .24 32.42 3.24 32.39 3.24 32.39 3.27 32.36 3.27 28.85 3.27 28.82 3.27 28.82 3.3 28.82 3.51 28.82 3.54 28.85 3.54 29.04 3.54 29.04 3.57 29.07 3.57 29.1 3.57 29.1 3.6 29.1 3.8 29.1 3.83 29.07 3.83 29.04 3.83 28.38 3.83 28.35 3.83 28.32 3.83 28.32 3.8 28.32 3.6 28.32 3.57 28.35 3.57 28.38 3.54 28.58 3.54 28.61 3.54 28.64 3.54 28.64 3.51 28.64 3.3 28.64 3.27 28.61 3.27 28.58 3.27 26.7 3.27 21.05 3.27"/>
      <polyline class="cls-1" points="21.05 3.08 24.98 3.08 32.28 3.08 32.3 3.08 32.3 3.05 34.04 .05"/>
      <polyline class="cls-1" points="35.85 .11 34.17 3 34.17 3.03 34.17 3.05 34.2 3.08 34.23 3.08 35.76 3.08"/>
      <path class="cls-1" d="m34.06.03s-.03,0-.04.02"/>
      <path class="cls-1" d="m35.81.09s0-.03,0-.04c0-.01-.02-.02-.04-.02"/>
      <path class="cls-1" d="m35.51.27s0-.03,0-.04c0-.01-.02-.02-.04-.02"/>
      <line class="cls-1" x1="34.07" y1=".05" x2="35.79" y2=".05"/>
      <line class="cls-1" x1="34.17" y1=".24" x2="35.48" y2=".24"/>
      <path class="cls-1" d="m34.15.21s-.03,0-.04.02"/>
    </g>
  </g>
</svg>