<?xml version="1.0" encoding="UTF-8"?>
<svg id="Capa_2" data-name="Capa 2" xmlns="http://www.w3.org/2000/svg" viewBox="0 0 55.35 11.25">
  <defs>
    <style>
      .cls-1 {
        fill: none;
        stroke: #000;
        stroke-linecap: round;
        stroke-linejoin: round;
        stroke-width: .1px;
      }
    </style>
  </defs>
  <g id="_0" data-name="0">
    <g>
      <g id="LWPOLYLINE">
        <path class="cls-1" d="m53.32,9.58v.33c0,.06.04.1.1.1h1.78c.06,0,.1.04.1.1v.43c0,.14-.11.25-.25.25h0c-.14,0-.25-.11-.25-.25v-.18h-1.75c-.06,0-.1-.04-.1-.1v-.28"/>
      </g>
      <g id="ARC">
        <path class="cls-1" d="m20.82,1.26c-4.59-2.57-10.4-.92-12.97,3.67-.79,1.42-1.21,3.02-1.21,4.65"/>
      </g>
      <g id="ARC-2" data-name="ARC">
        <path class="cls-1" d="m20.82,1.26c9.98,5.42,21.15,8.28,32.5,8.32"/>
      </g>
      <g id="ARC-3" data-name="ARC">
        <path class="cls-1" d="m20.63,1.61c-4.4-2.46-9.97-.89-12.43,3.52-.76,1.36-1.16,2.9-1.16,4.46"/>
      </g>
      <g id="ARC-4" data-name="ARC">
        <path class="cls-1" d="m20.63,1.61c.51.28,1.03.55,1.55.81"/>
      </g>
      <g id="LWPOLYLINE-2" data-name="LWPOLYLINE">
        <path class="cls-1" d="m38.01,8.2v2.27c0,.06.04.1.1.1h.36c.06,0,.1.04.1.1v.43c0,.06-.04.1-.1.1h-1.43c-.06,0-.1-.04-.1-.1v-.43c0-.06.04-.1.1-.1h.49c.06,0,.1-.04.1-.1v-2.36"/>
      </g>
      <g id="LWPOLYLINE-3" data-name="LWPOLYLINE">
        <line class="cls-1" x1="22.55" y1="9.58" x2="22.55" y2="2.61"/>
      </g>
      <g id="LWPOLYLINE-4" data-name="LWPOLYLINE">
        <path class="cls-1" d="m7.04,9.58v.27s0,0,0,0c0,.06-.04.1-.1.1h-1.56c-.06,0-.1.04-.1.1v1.04c0,.06-.04.1-.1.1H.15c-.06,0-.1-.04-.1-.1v-.18c0-.06.04-.1.1-.1h1.05l.05.03.05-.03h3.51c.06,0,.1-.04.1-.1v-.66c0-.06-.04-.1-.1-.1h-1.74c-.06,0-.1-.04-.1-.1v-.18c0-.06.04-.1.1-.1h3.58"/>
      </g>
      <g id="LWPOLYLINE-5" data-name="LWPOLYLINE">
        <path class="cls-1" d="m22.55,2.61v7.86c0,.06.04.1.1.1h.36c.06,0,.1.04.1.1v.43c0,.06-.04.1-.1.1h-1.43c-.06,0-.1-.04-.1-.1v-.43c0-.06.04-.1.1-.1h.49c.06,0,.1-.04.1-.1V2.42"/>
      </g>
      <g id="ARC-5" data-name="ARC">
        <path class="cls-1" d="m22.55,2.61c4.8,2.41,9.86,4.26,15.08,5.5"/>
      </g>
      <g id="ARC-6" data-name="ARC">
        <path class="cls-1" d="m38.01,8.2c4.9,1.13,9.91,1.73,14.93,1.77"/>
      </g>
    </g>
  </g>
</svg>