<?xml version="1.0" encoding="UTF-8"?>
<svg id="Capa_2" data-name="Capa 2" xmlns="http://www.w3.org/2000/svg" viewBox="0 0 38.75 3.89">
  <defs>
    <style>
      .cls-1 {
        fill: none;
        stroke: #000;
        stroke-linecap: round;
        stroke-linejoin: round;
        stroke-width: .05px;
      }
    </style>
  </defs>
  <g id="Capa_1-2" data-name="Capa 1">
    <g>
      <polyline class="cls-1" points="17.19 3.08 19.5 3.08 19.53 3.08 19.55 3.11 19.55 3.14 19.55 3.23 19.55 3.26 19.58 3.3 20.45 3.3 20.48 3.3 20.48 3.33 20.48 3.54 20.48 3.57 20.48 3.6 20.45 3.63 20.42 3.66 20.39 3.66 20.36 3.66"/>
      <polyline class="cls-1" points="17.19 3.26 19.32 3.26 19.35 3.26 19.38 3.3 19.38 3.33 19.38 3.42 19.38 3.45 19.41 3.45 19.44 3.45 20.25 3.45 20.25 3.54 20.25 3.57 20.28 3.57 20.28 3.6 20.28 3.63 20.3 3.63 20.3 3.66 20.33 3.66 20.36 3.66"/>
      <line class="cls-1" x1="12.35" y1="3.08" x2="17.19" y2="3.08"/>
      <polyline class="cls-1" points="1.82 .3 3.48 3.2 3.51 3.2 3.51 3.23 3.48 3.23 3.48 3.26 3.45 3.26 2.54 3.26 2.51 3.26 2.51 3.3 2.48 3.3 2.48 3.33 2.48 3.8 2.48 3.83 2.45 3.83 2.45 3.86 2.3 3.86 .05 3.86 .03 3.83 .03 3.8 .03 3.72 .03 3.69 .05 3.69 .23 3.69 .57 3.69 .6 3.69 2.28 3.69 2.3 3.66 2.3 3.63 2.3 3.33 2.3 3.3 2.3 3.26 2.28 3.26 1.44 3.26 1.41 3.26 1.41 3.23 1.41 3.2 1.41 3.14 1.41 3.11 1.41 3.08 1.44 3.08 3 3.08 3.14 3.08 3.17 3.08 3.17 3.05 3.17 3.03 1.5 .11"/>
      <polyline class="cls-1" points="6.66 3.08 5.1 3.08 5.07 3.08 5.04 3.05 3.32 .08"/>
      <path class="cls-1" d="m3.29.05s-.02-.02-.04-.02"/>
      <path class="cls-1" d="m1.54.03s-.03,0-.04.02c0,.01,0,.03,0,.05"/>
      <path class="cls-1" d="m1.84.2s-.03,0-.04.02c0,.01,0,.03,0,.04"/>
      <line class="cls-1" x1="3.26" y1=".05" x2="1.55" y2=".05"/>
      <line class="cls-1" x1="3.17" y1=".23" x2="1.86" y2=".23"/>
      <path class="cls-1" d="m3.2.23s-.02-.02-.04-.02"/>
      <polyline class="cls-1" points="6.66 3.08 6.78 3.08 6.8 3.08 6.8 3.05 6.83 3.05 6.83 3.03 6.8 3.03 5.16 .11"/>
      <polyline class="cls-1" points="6.83 .26 8.57 3.23 8.57 3.26 8.61 3.26 10.41 3.26 10.44 3.26 10.47 3.3 10.47 3.33 10.47 3.51 10.47 3.54 10.44 3.54 10.44 3.57 10.41 3.57 10.2 3.57 10.17 3.57 10.14 3.57 10.14 3.6 10.14 3.8 10.14 3.83 10.17 3.83 10.17 3.86 10.2 3.86 10.86 3.86 10.89 3.86 10.89 3.83 10.92 3.83 10.92 3.8 10.92 3.6 10.89 3.6 10.89 3.57 10.86 3.57 10.67 3.57 10.64 3.54 10.64 3.51 10.64 3 10.64 2.97 9.08 .3"/>
      <polyline class="cls-1" points="10.29 3.08 8.73 3.08 8.7 3.08 8.7 3.05 8.67 3.05 6.95 .08"/>
      <polyline class="cls-1" points="3.2 .26 4.95 3.23 4.95 3.26 4.98 3.26 7.07 3.26 7.11 3.26 7.14 3.23 7.14 3.2 5.45 .3"/>
      <path class="cls-1" d="m6.95.05s-.02-.02-.04-.02"/>
      <path class="cls-1" d="m5.17.03s-.03,0-.04.02c0,.01,0,.03,0,.05"/>
      <path class="cls-1" d="m5.47.2s-.03,0-.04.02c0,.01,0,.03,0,.04"/>
      <line class="cls-1" x1="6.92" y1=".05" x2="5.19" y2=".05"/>
      <line class="cls-1" x1="6.8" y1=".23" x2="5.48" y2=".23"/>
      <path class="cls-1" d="m6.83.23s-.02-.02-.04-.02"/>
      <polyline class="cls-1" points="10.29 3.08 10.41 3.08 10.44 3.08 10.47 3.05 10.47 3.03 8.79 .11"/>
      <polyline class="cls-1" points="10.5 .26 12.2 3.23 12.23 3.26 12.26 3.26 17.19 3.26"/>
      <polyline class="cls-1" points="14.22 3.08 12.35 3.08 12.32 3.08 12.32 3.05 10.58 .08"/>
      <path class="cls-1" d="m10.58.05s-.02-.02-.04-.02"/>
      <path class="cls-1" d="m8.8.03s-.03,0-.04.02c0,.01,0,.03,0,.05"/>
      <path class="cls-1" d="m9.13.2s-.03,0-.04.02c0,.01,0,.03,0,.04"/>
      <line class="cls-1" x1="10.55" y1=".05" x2="8.82" y2=".05"/>
      <line class="cls-1" x1="10.44" y1=".23" x2="9.14" y2=".23"/>
      <path class="cls-1" d="m10.46.23s-.02-.02-.04-.02"/>
      <polyline class="cls-1" points="35.39 3.08 37.73 3.08 37.76 3.08 37.76 3.11 37.76 3.14 37.76 3.23 37.76 3.26 37.79 3.26 37.79 3.3 37.82 3.3 38.67 3.3 38.7 3.3 38.7 3.33 38.73 3.33 38.73 3.54 38.7 3.57 38.7 3.6 38.7 3.63 38.67 3.63 38.67 3.66 38.64 3.66 38.6 3.66"/>
      <polyline class="cls-1" points="35.39 3.26 37.55 3.26 37.58 3.26 37.58 3.3 37.58 3.33 37.58 3.42 37.61 3.45 37.64 3.45 38.48 3.45 38.48 3.54 38.48 3.57 38.48 3.6 38.51 3.63 38.54 3.66 38.57 3.66 38.6 3.66"/>
      <line class="cls-1" x1="30.57" y1="3.08" x2="35.39" y2="3.08"/>
      <polyline class="cls-1" points="20.04 .3 21.72 3.2 21.72 3.23 21.72 3.26 21.69 3.26 21.66 3.26 20.76 3.26 20.73 3.26 20.73 3.3 20.73 3.33 20.73 3.8 20.73 3.83 20.7 3.83 20.7 3.86 20.67 3.86 20.54 3.86 18.26 3.86 18.26 3.83 18.23 3.83 18.23 3.8 18.23 3.72 18.23 3.69 18.26 3.69 18.45 3.69 18.78 3.69 18.8 3.69 18.83 3.69 20.48 3.69 20.51 3.69 20.51 3.66 20.54 3.66 20.54 3.63 20.54 3.33 20.54 3.3 20.51 3.3 20.51 3.26 20.48 3.26 19.67 3.26 19.64 3.26 19.61 3.23 19.61 3.2 19.61 3.14 19.61 3.11 19.64 3.08 19.67 3.08 21.2 3.08 21.35 3.08 21.39 3.08 21.39 3.05 21.42 3.05 21.42 3.03 21.39 3.03 19.73 .11"/>
      <polyline class="cls-1" points="24.86 3.08 23.3 3.08 23.28 3.08 23.28 3.05 21.54 .08"/>
      <path class="cls-1" d="m21.53.05s-.02-.02-.04-.02"/>
      <path class="cls-1" d="m19.75.03s-.03,0-.04.02c0,.01,0,.03,0,.05"/>
      <path class="cls-1" d="m20.05.2s-.03,0-.04.02c0,.01,0,.03,0,.04"/>
      <line class="cls-1" x1="21.51" y1=".05" x2="19.76" y2=".05"/>
      <line class="cls-1" x1="21.39" y1=".23" x2="20.07" y2=".23"/>
      <path class="cls-1" d="m21.41.23s-.02-.02-.04-.02"/>
      <polyline class="cls-1" points="24.86 3.08 24.98 3.08 25.01 3.08 25.04 3.05 25.04 3.03 23.36 .11"/>
      <polyline class="cls-1" points="25.07 .26 26.79 3.23 26.82 3.26 26.85 3.26 28.64 3.26 28.67 3.26 28.67 3.3 28.67 3.33 28.67 3.51 28.67 3.54 28.64 3.54 28.64 3.57 28.41 3.57 28.38 3.57 28.35 3.6 28.35 3.8 28.35 3.83 28.38 3.83 28.38 3.86 28.41 3.86 29.07 3.86 29.1 3.86 29.1 3.83 29.13 3.83 29.13 3.8 29.13 3.6 29.13 3.57 29.1 3.57 29.07 3.57 28.92 3.57 28.89 3.57 28.89 3.54 28.85 3.54 28.85 3.51 28.85 3 28.85 2.97 27.32 .3"/>
      <polyline class="cls-1" points="28.53 3.08 26.94 3.08 26.91 3.08 26.91 3.05 25.17 .08"/>
      <polyline class="cls-1" points="21.45 .26 23.16 3.23 23.16 3.26 23.19 3.26 25.32 3.26 25.35 3.26 25.35 3.23 25.35 3.2 23.67 .3"/>
      <path class="cls-1" d="m25.16.05s-.02-.02-.04-.02"/>
      <path class="cls-1" d="m23.38.03s-.03,0-.04.02c0,.01,0,.03,0,.05"/>
      <path class="cls-1" d="m23.71.2s-.03,0-.04.02c0,.01,0,.03,0,.04"/>
      <line class="cls-1" x1="25.14" y1=".05" x2="23.39" y2=".05"/>
      <line class="cls-1" x1="25.01" y1=".23" x2="23.73" y2=".23"/>
      <path class="cls-1" d="m25.04.23s-.02-.02-.04-.02"/>
      <polyline class="cls-1" points="28.53 3.08 28.64 3.08 28.67 3.08 28.67 3.05 28.67 3.03 27 .11"/>
      <polyline class="cls-1" points="28.7 .26 30.45 3.23 30.45 3.26 30.48 3.26 35.39 3.26"/>
      <polyline class="cls-1" points="32.45 3.08 30.57 3.08 30.54 3.08 30.54 3.05 28.79 .08"/>
      <path class="cls-1" d="m28.79.05s-.02-.02-.04-.02"/>
      <path class="cls-1" d="m27.04.03s-.03,0-.04.02c0,.01,0,.03,0,.05"/>
      <path class="cls-1" d="m27.34.2s-.03,0-.04.02c0,.01,0,.03,0,.04"/>
      <line class="cls-1" x1="28.76" y1=".05" x2="27.05" y2=".05"/>
      <line class="cls-1" x1="28.67" y1=".23" x2="27.35" y2=".23"/>
      <path class="cls-1" d="m28.7.23s-.02-.02-.04-.02"/>
    </g>
  </g>
</svg>