<?xml version="1.0" encoding="UTF-8"?>
<svg id="Capa_2" data-name="Capa 2" xmlns="http://www.w3.org/2000/svg" viewBox="0 0 38.75 3.86">
  <defs>
    <style>
      .cls-1 {
        fill: none;
        stroke: #000;
        stroke-linecap: round;
        stroke-linejoin: round;
        stroke-width: .05px;
      }
    </style>
  </defs>
  <g id="Capa_1-2" data-name="Capa 1">
    <g>
      <line class="cls-1" x1="6.95" y1="3.05" x2="17.25" y2="3.05"/>
      <polyline class="cls-1" points="19.79 3.26 20.45 3.26 20.48 3.26 20.48 3.3 20.48 3.33 20.48 3.51 20.48 3.54 20.48 3.57 20.45 3.6 20.42 3.63 20.39 3.63 20.36 3.63"/>
      <polyline class="cls-1" points="19.79 3.45 20.25 3.45 20.25 3.51 20.25 3.54 20.28 3.57 20.28 3.6 20.3 3.6 20.3 3.63 20.33 3.63 20.36 3.63"/>
      <polyline class="cls-1" points="3.03 3.05 3.14 3.05 3.17 3.05 3.17 3.03 3.17 3 1.5 .08"/>
      <polyline class="cls-1" points="6.95 3.05 5.1 3.05 5.07 3.05 5.04 3.05 5.04 3.03 3.32 .05"/>
      <polyline class="cls-1" points="3.03 3.05 1.44 3.05 1.41 3.05 1.41 3.08 1.41 3.11 1.41 3.2 1.41 3.23 1.44 3.23 2.28 3.23 2.3 3.23 2.3 3.26 2.3 3.3 2.3 3.6 2.3 3.63 2.3 3.66 2.28 3.66 .6 3.66 .57 3.66 .23 3.66 .05 3.66 .03 3.66 .03 3.69 .03 3.78 .03 3.8 .03 3.83 .05 3.83 2.3 3.83 2.45 3.83 2.48 3.8 2.48 3.78 2.48 3.3 2.48 3.26 2.51 3.26 2.51 3.23 2.54 3.23 3.45 3.23 3.48 3.23 3.48 3.2 3.51 3.2 3.51 3.17 3.48 3.17 1.82 .26"/>
      <path class="cls-1" d="m3.29.05s-.02-.02-.04-.02"/>
      <path class="cls-1" d="m1.54.03s-.03,0-.04.02c0,.01,0,.03,0,.05"/>
      <path class="cls-1" d="m1.84.2s-.03,0-.04.02c0,.01,0,.03,0,.04"/>
      <line class="cls-1" x1="3.26" y1=".03" x2="1.55" y2=".03"/>
      <line class="cls-1" x1="3.17" y1=".2" x2="1.86" y2=".2"/>
      <path class="cls-1" d="m3.2.23s-.02-.02-.04-.02"/>
      <polyline class="cls-1" points="17.25 3.05 17.7 3.05 17.73 3.05 17.73 3.03 17.73 3 16.04 .08"/>
      <polyline class="cls-1" points="17.76 .23 19.41 3.05 19.41 3.08 19.41 3.39 19.41 3.42 19.44 3.42 19.44 3.45 19.79 3.45"/>
      <polyline class="cls-1" points="19.79 3.26 19.61 3.26 19.58 3.26 19.58 3.23 19.58 3.2 19.58 3.03 17.88 .05"/>
      <polyline class="cls-1" points="3.2 .23 4.95 3.2 4.95 3.23 4.98 3.23 8.51 3.23 10.41 3.23 10.44 3.23 10.44 3.26 10.47 3.26 10.47 3.3 10.47 3.48 10.47 3.51 10.44 3.51 10.44 3.54 10.41 3.54 10.2 3.54 10.17 3.54 10.14 3.54 10.14 3.57 10.14 3.78 10.14 3.8 10.17 3.83 10.2 3.83 10.86 3.83 10.89 3.83 10.89 3.8 10.92 3.8 10.92 3.78 10.92 3.57 10.89 3.57 10.89 3.54 10.86 3.54 10.67 3.54 10.64 3.54 10.64 3.51 10.64 3.48 10.64 3.3 10.64 3.26 10.67 3.23 18 3.23 18.03 3.23 18.03 3.2 18.05 3.2 18.05 3.17 18.03 3.17 16.38 .26"/>
      <path class="cls-1" d="m17.84.05s-.02-.02-.04-.02"/>
      <path class="cls-1" d="m16.09.03s-.03,0-.04.02c0,.01,0,.03,0,.05"/>
      <path class="cls-1" d="m16.39.2s-.03,0-.04.02c0,.01,0,.03,0,.04"/>
      <line class="cls-1" x1="17.82" y1=".03" x2="16.1" y2=".03"/>
      <line class="cls-1" x1="17.73" y1=".2" x2="16.41" y2=".2"/>
      <path class="cls-1" d="m17.75.23s-.02-.02-.04-.02"/>
      <line class="cls-1" x1="25.17" y1="3.05" x2="35.48" y2="3.05"/>
      <polyline class="cls-1" points="38.01 3.26 38.67 3.26 38.7 3.26 38.7 3.3 38.73 3.33 38.73 3.51 38.7 3.54 38.7 3.57 38.7 3.6 38.67 3.6 38.67 3.63 38.64 3.63 38.6 3.63"/>
      <polyline class="cls-1" points="38.01 3.45 38.48 3.45 38.48 3.51 38.48 3.54 38.48 3.57 38.51 3.6 38.54 3.63 38.57 3.63 38.6 3.63"/>
      <polyline class="cls-1" points="21.23 3.05 21.35 3.05 21.39 3.05 21.42 3.03 21.42 3 21.39 3 19.73 .08"/>
      <polyline class="cls-1" points="25.17 3.05 23.3 3.05 23.28 3.05 23.28 3.03 21.54 .05"/>
      <polyline class="cls-1" points="21.23 3.05 19.67 3.05 19.64 3.05 19.64 3.08 19.61 3.08 19.61 3.11 19.61 3.2 19.61 3.23 19.64 3.23 19.67 3.23 20.48 3.23 20.51 3.23 20.51 3.26 20.54 3.26 20.54 3.3 20.54 3.6 20.54 3.63 20.51 3.63 20.51 3.66 20.48 3.66 18.83 3.66 18.8 3.66 18.78 3.66 18.45 3.66 18.26 3.66 18.23 3.66 18.23 3.69 18.23 3.78 18.23 3.8 18.26 3.83 20.54 3.83 20.67 3.83 20.7 3.83 20.7 3.8 20.73 3.8 20.73 3.78 20.73 3.3 20.73 3.26 20.73 3.23 20.76 3.23 21.66 3.23 21.69 3.23 21.72 3.23 21.72 3.2 21.72 3.17 20.04 .26"/>
      <path class="cls-1" d="m21.53.05s-.02-.02-.04-.02"/>
      <path class="cls-1" d="m19.75.03s-.03,0-.04.02c0,.01,0,.03,0,.05"/>
      <path class="cls-1" d="m20.05.2s-.03,0-.04.02c0,.01,0,.03,0,.04"/>
      <line class="cls-1" x1="21.51" y1=".03" x2="19.76" y2=".03"/>
      <line class="cls-1" x1="21.39" y1=".2" x2="20.07" y2=".2"/>
      <path class="cls-1" d="m21.41.23s-.02-.02-.04-.02"/>
      <polyline class="cls-1" points="35.48 3.05 35.91 3.05 35.94 3.05 35.94 3.03 35.97 3.03 35.97 3 35.94 3 34.29 .08"/>
      <polyline class="cls-1" points="35.97 .23 37.61 3.05 37.61 3.08 37.61 3.39 37.61 3.42 37.64 3.42 37.67 3.45 38.01 3.45"/>
      <polyline class="cls-1" points="38.01 3.26 37.85 3.26 37.82 3.26 37.82 3.23 37.79 3.23 37.79 3.2 37.79 3.03 36.08 .05"/>
      <polyline class="cls-1" points="21.45 .23 23.16 3.2 23.16 3.23 23.19 3.23 26.73 3.23 28.64 3.23 28.67 3.26 28.67 3.3 28.67 3.48 28.67 3.51 28.64 3.54 28.41 3.54 28.38 3.54 28.35 3.57 28.35 3.78 28.35 3.8 28.38 3.8 28.38 3.83 28.41 3.83 29.07 3.83 29.1 3.83 29.1 3.8 29.13 3.8 29.13 3.78 29.13 3.57 29.13 3.54 29.1 3.54 29.07 3.54 28.92 3.54 28.89 3.54 28.89 3.51 28.85 3.51 28.85 3.48 28.85 3.3 28.85 3.26 28.89 3.26 28.89 3.23 28.92 3.23 36.2 3.23 36.23 3.23 36.26 3.2 36.26 3.17 34.58 .26"/>
      <path class="cls-1" d="m36.05.05s-.02-.02-.04-.02"/>
      <path class="cls-1" d="m34.3.03s-.03,0-.04.02c0,.01,0,.03,0,.05"/>
      <path class="cls-1" d="m34.6.2s-.03,0-.04.02c0,.01,0,.03,0,.04"/>
      <line class="cls-1" x1="36.03" y1=".03" x2="34.32" y2=".03"/>
      <line class="cls-1" x1="35.94" y1=".2" x2="34.61" y2=".2"/>
      <path class="cls-1" d="m35.96.23s-.02-.02-.04-.02"/>
    </g>
  </g>
</svg>