<?xml version="1.0" encoding="UTF-8" standalone="no"?>
<svg
   id="Capa_2"
   data-name="Capa 2"
   viewBox="0 0 20.5 3.8501273"
   version="1.1"
   sodipodi:docname="matrix11_n.svg"
   width="20.5"
   height="3.8501272"
   inkscape:version="1.3.2 (091e20e, 2023-11-25, custom)"
   xmlns:inkscape="http://www.inkscape.org/namespaces/inkscape"
   xmlns:sodipodi="http://sodipodi.sourceforge.net/DTD/sodipodi-0.dtd"
   xmlns="http://www.w3.org/2000/svg"
   xmlns:svg="http://www.w3.org/2000/svg">
  <sodipodi:namedview
     id="namedview25"
     pagecolor="#ffffff"
     bordercolor="#000000"
     borderopacity="0.25"
     inkscape:showpageshadow="2"
     inkscape:pageopacity="0.0"
     inkscape:pagecheckerboard="0"
     inkscape:deskcolor="#d1d1d1"
     showgrid="false"
     inkscape:zoom="52.877419"
     inkscape:cx="19.375"
     inkscape:cy="1.9384456"
     inkscape:window-width="2560"
     inkscape:window-height="1369"
     inkscape:window-x="-8"
     inkscape:window-y="-8"
     inkscape:window-maximized="1"
     inkscape:current-layer="Capa_2" />
  <defs
     id="defs1">
    <style
       id="style1">
      .cls-1 {
        fill: none;
        stroke: #000;
        stroke-linecap: round;
        stroke-linejoin: round;
        stroke-width: .05px;
      }
    </style>
  </defs>
  <g
     id="Capa_1-2"
     data-name="Capa 1"
     transform="translate(-0.005,-0.00487281)">
    <g
       id="g25">
      <polyline
         class="cls-1"
         points="17.19 3.08 19.5 3.08 19.53 3.08 19.55 3.08 19.55 3.11 19.55 3.23 19.55 3.27 19.58 3.27 19.58 3.3 20.45 3.3 20.48 3.3 20.48 3.33 20.48 3.54 20.48 3.57 20.48 3.6 20.45 3.63 20.42 3.63 20.42 3.66 20.39 3.66 20.36 3.66"
         id="polyline1" />
      <polyline
         class="cls-1"
         points="17.19 3.27 19.32 3.27 19.35 3.27 19.38 3.3 19.38 3.42 19.38 3.45 19.41 3.45 19.44 3.45 20.25 3.45 20.25 3.54 20.25 3.57 20.28 3.57 20.28 3.6 20.28 3.63 20.3 3.63 20.33 3.66 20.36 3.66"
         id="polyline2" />
      <line
         class="cls-1"
         x1="10.58"
         y1="3.0799999"
         x2="17.190001"
         y2="3.0799999"
         id="line2" />
      <polyline
         class="cls-1"
         points="1.82 .3 3.48 3.17 3.51 3.2 3.51 3.23 3.48 3.23 3.48 3.27 3.45 3.27 2.54 3.27 2.51 3.27 2.51 3.3 2.48 3.3 2.48 3.8 2.48 3.83 2.45 3.83 2.3 3.83 .05 3.83 .03 3.83 .03 3.8 .03 3.72 .03 3.69 .05 3.69 .23 3.69 .57 3.69 .6 3.69 2.28 3.69 2.28 3.66 2.3 3.66 2.3 3.63 2.3 3.3 2.3 3.27 2.28 3.27 1.44 3.27 1.41 3.27 1.41 3.23 1.41 3.2 1.41 3.11 1.41 3.08 1.44 3.08 3.03 3.08 3.14 3.08 3.17 3.08 3.17 3.05 3.17 3.03 1.5 .11"
         id="polyline3" />
      <polyline
         class="cls-1"
         points="17.19 3.27 10.67 3.27 10.64 3.27 10.64 3.3 10.64 3.51 10.64 3.54 10.67 3.54 10.67 3.57 10.86 3.57 10.89 3.57 10.92 3.6 10.92 3.8 10.89 3.83 10.86 3.83 10.2 3.83 10.17 3.83 10.14 3.83 10.14 3.8 10.14 3.6 10.14 3.57 10.17 3.57 10.2 3.57 10.41 3.57 10.44 3.57 10.44 3.54 10.47 3.54 10.47 3.51 10.47 3.3 10.44 3.27 10.41 3.27 8.61 3.27 8.57 3.23 6.83 .23"
         id="polyline4" />
      <polyline
         class="cls-1"
         points="3.2 .23 4.95 3.23 4.95 3.27 4.98 3.27 7.07 3.27 7.11 3.27 7.11 3.23 7.14 3.23 7.14 3.2 7.14 3.17 5.45 .3"
         id="polyline5" />
      <polyline
         class="cls-1"
         points="6.66 3.08 5.1 3.08 5.07 3.08 5.04 3.05 3.32 .05"
         id="polyline6" />
      <path
         class="cls-1"
         d="m 3.29,0.05 c 0,0 -0.02,-0.02 -0.04,-0.02"
         id="path6" />
      <path
         class="cls-1"
         d="m 1.54,0.03 c 0,0 -0.03,0 -0.04,0.02 0,0.01 0,0.03 0,0.05"
         id="path7" />
      <path
         class="cls-1"
         d="m 1.84,0.2 c 0,0 -0.03,0 -0.04,0.02 0,0.01 0,0.03 0,0.04"
         id="path8" />
      <line
         class="cls-1"
         x1="3.26"
         y1="0.050000001"
         x2="1.55"
         y2="0.050000001"
         id="line8" />
      <line
         class="cls-1"
         x1="3.1700001"
         y1="0.23"
         x2="1.86"
         y2="0.23"
         id="line9" />
      <path
         class="cls-1"
         d="m 3.2,0.23 c 0,0 -0.02,-0.02 -0.04,-0.02"
         id="path9" />
      <polyline
         class="cls-1"
         points="6.66 3.08 6.78 3.08 6.8 3.08 6.8 3.05 6.83 3.05 6.83 3.03 6.8 3.03 5.16 .11"
         id="polyline9" />
      <polyline
         class="cls-1"
         points="10.58 3.08 8.73 3.08 8.7 3.08 8.7 3.05 8.67 3.05 6.95 .05"
         id="polyline10" />
      <path
         class="cls-1"
         d="m 6.95,0.05 c 0,0 -0.02,-0.02 -0.04,-0.02"
         id="path10" />
      <path
         class="cls-1"
         d="m 5.17,0.03 c 0,0 -0.03,0 -0.04,0.02 0,0.01 0,0.03 0,0.05"
         id="path11" />
      <path
         class="cls-1"
         d="m 5.47,0.2 c 0,0 -0.03,0 -0.04,0.02 0,0.01 0,0.03 0,0.04"
         id="path12" />
      <line
         class="cls-1"
         x1="6.9200001"
         y1="0.050000001"
         x2="5.1900001"
         y2="0.050000001"
         id="line12" />
      <line
         class="cls-1"
         x1="6.8000002"
         y1="0.23"
         x2="5.48"
         y2="0.23"
         id="line13" />
      <path
         class="cls-1"
         d="m 6.83,0.23 c 0,0 -0.02,-0.02 -0.04,-0.02"
         id="path13" />
    </g>
  </g>
</svg>
