<?xml version="1.0" encoding="UTF-8"?>
<svg id="Capa_2" data-name="Capa 2" xmlns="http://www.w3.org/2000/svg" viewBox="0 0 43.24 6.63">
  <defs>
    <style>
      .cls-1 {
        fill: none;
        stroke: #000;
        stroke-linecap: round;
        stroke-linejoin: round;
        stroke-width: .1px;
      }
    </style>
  </defs>
  <g id="_0" data-name="0">
    <g>
      <g id="LWPOLYLINE">
        <path class="cls-1" d="m41.21,5.29c0,.06.04.1.1.1h1.78c.06,0,.1.04.1.1v.43c0,.14-.11.25-.25.25h0c-.14,0-.25-.11-.25-.25v-.18h-1.73c-.06,0-.1-.04-.1-.1v-.2c0-.06-.04-.1-.1-.1h-.23c-.14,0-.27-.06-.36-.16l-1.6-1.84"/>
      </g>
      <g id="LWPOLYLINE-2" data-name="LWPOLYLINE">
        <path class="cls-1" d="m17.8,5.34h-.53c-.14,0-.27-.06-.36-.16l-1.6-1.84"/>
      </g>
      <g id="LWPOLYLINE-3" data-name="LWPOLYLINE">
        <path class="cls-1" d="m12.71,4.97h.64s.06-.01.08-.03l1.81-2.08s0,0,0,0c.04-.04.11-.03.14,0l1.81,2.08s.05.03.08.03h.53"/>
      </g>
      <g id="LINE">
        <line class="cls-1" x1="13.71" y1="5.18" x2="15.31" y2="3.33"/>
      </g>
      <g id="ARC">
        <path class="cls-1" d="m13.35,5.34c.14,0,.27-.06.36-.16"/>
      </g>
      <g id="LINE-2" data-name="LINE">
        <line class="cls-1" x1="12.71" y1="5.34" x2="13.35" y2="5.34"/>
      </g>
      <g id="LWPOLYLINE-4" data-name="LWPOLYLINE">
        <path class="cls-1" d="m12.71,5.34h-.24c-.14,0-.27-.06-.36-.16L8.19.66s-.1-.05-.14,0c0,0,0,0,0,0l-3.6,4.14s-.03.11,0,.14c.02.02.04.02.07.02h1.58c.06,0,.1.04.1.1v.18c0,.06-.04.1-.1.1h-.72c-.06,0-.1.04-.1.1v1.04c0,.06-.04.1-.1.1H.15c-.06,0-.1-.04-.1-.1v-.18c0-.06.04-.1.1-.1h1.05l.05.03.05-.03h3.51c.06,0,.1-.04.1-.1v-.66c0-.06-.04-.1-.1-.1h-1.74c-.06,0-.1-.04-.1-.1v-.18c0-.06.04-.1.1-.1h.69s.06-.01.08-.03l1.81-2.08L8.04.08s0,0,0,0c.04-.04.11-.03.14,0l2.4,2.76,1.81,2.08s.05.03.08.03h.24"/>
      </g>
      <g id="LWPOLYLINE-5" data-name="LWPOLYLINE">
        <path class="cls-1" d="m17.8,4.97h1.98s.1-.02.13-.06l3.16-3.64s0,0,0,0c.04-.04.11-.03.14,0l3.16,3.64s.08.06.13.06h.23"/>
      </g>
      <g id="LWPOLYLINE-6" data-name="LWPOLYLINE">
        <path class="cls-1" d="m17.8,5.34h1.98c.16,0,.31-.07.41-.19l2.95-3.4,2.95,3.4c.1.12.26.19.41.19h.23"/>
      </g>
      <g id="LWPOLYLINE-7" data-name="LWPOLYLINE">
        <path class="cls-1" d="m26.75,4.97h.64s.06-.01.08-.03L31.68.08s0,0,0,0c.04-.04.11-.03.14,0l4.21,4.85s.05.03.08.03h.5s.06-.01.08-.03l1.81-2.08s0,0,0,0c.04-.04.11-.03.14,0l1.81,2.08s.05.03.08.03h.58c.06,0,.1.04.1.1v.23"/>
      </g>
      <g id="LWPOLYLINE-8" data-name="LWPOLYLINE">
        <path class="cls-1" d="m26.75,5.34h.61c.16,0,.31-.07.41-.19l3.9-4.49s0,0,0,0c.04-.04.11-.03.14,0l3.9,4.49c.1.12.26.19.41.19h.43c.16,0,.31-.07.41-.19l1.58-1.82"/>
      </g>
    </g>
  </g>
</svg>