<?xml version="1.0" encoding="UTF-8"?>
<svg id="Capa_2" data-name="Capa 2" xmlns="http://www.w3.org/2000/svg" viewBox="0 0 20.51 3.82">
  <defs>
    <style>
      .cls-1 {
        fill: none;
        stroke: #000;
        stroke-miterlimit: 10;
        stroke-width: .05px;
      }
    </style>
  </defs>
  <g id="Capa_1-2" data-name="Capa 1">
    <g>
      <line class="cls-1" x1="17.04" y1="3.01" x2="17.54" y2="3.01"/>
      <polyline class="cls-1" points="19.79 3.22 20.45 3.22 20.48 3.25 20.48 3.28 20.48 3.49 20.48 3.52 20.48 3.55 20.45 3.55 20.45 3.58 20.42 3.58 20.39 3.58 20.36 3.61"/>
      <polyline class="cls-1" points="19.79 3.4 20.25 3.4 20.25 3.49 20.28 3.52 20.28 3.55 20.3 3.58 20.33 3.58 20.36 3.58 20.36 3.61"/>
      <polyline class="cls-1" points="5.48 1.69 4.17 1.69 4.14 1.69 4.14 1.72 3.42 2.95 3.39 3.04 3.36 3.04 3.36 3.16 3.36 3.19 3.32 3.19 2.54 3.19 2.51 3.22 2.48 3.22 2.48 3.25 2.48 3.73 2.48 3.76 2.48 3.79 2.45 3.79 2.3 3.79 .05 3.79 .03 3.79 .03 3.76 .03 3.73 .03 3.67 .03 3.64 .03 3.61 .05 3.61 .23 3.61 .57 3.61 .57 3.64 .6 3.61 2.28 3.61 2.3 3.61 2.3 3.58 2.3 3.25 2.3 3.22 2.28 3.22 2.28 3.19 1.44 3.19 1.41 3.19 1.41 3.16 1.41 3.07 1.41 3.04 1.44 3.04 1.44 3.01 3 3.01 3.14 3.01 3.17 3.01 4.01 1.54 4.04 1.51 4.07 1.51 5.79 1.51 5.82 1.51 5.85 1.54 5.85 1.57 5.04 2.95 5.04 2.98 5.04 3.01 5.07 3.01 5.1 3.01 5.28 3.01"/>
      <polyline class="cls-1" points="5.28 3.19 4.79 3.19 4.76 3.19 4.76 3.16 4.76 3.1"/>
      <line class="cls-1" x1="4.76" y1="3.07" x2="5.51" y2="1.75"/>
      <path class="cls-1" d="m5.51,1.73s0-.03,0-.04c0-.01-.02-.02-.04-.02"/>
      <path class="cls-1" d="m4.74,3.07s0,.01,0,.02"/>
      <polyline class="cls-1" points="20.04 1.69 18.72 1.69 18.69 1.69 18.69 1.72 17.91 3.04 17.91 3.16 17.91 3.19 17.88 3.19 17.04 3.19"/>
      <polyline class="cls-1" points="17.54 3.01 17.7 3.01 17.73 3.01 18.57 1.54 18.6 1.51 18.63 1.51 20.33 1.51 20.36 1.51 20.36 1.54 20.39 1.54 20.39 1.57 19.64 2.89 19.47 3.16 19.47 3.19 19.47 3.22 19.5 3.22 19.53 3.22 19.79 3.22"/>
      <polyline class="cls-1" points="19.79 3.4 19.23 3.4 19.2 3.4 19.2 3.37 19.2 3.34 19.2 3.28 19.44 2.89 20.07 1.75"/>
      <path class="cls-1" d="m20.06,1.73s0-.03,0-.04c0-.01-.02-.02-.04-.02"/>
      <path class="cls-1" d="m19.17,3.25s0,.01,0,.02"/>
      <polyline class="cls-1" points="9.03 3.01 10.41 3.01 10.44 3.01 11.3 1.54 11.3 1.51 11.33 1.51 13.04 1.51 13.07 1.51 13.1 1.51 13.1 1.54 13.1 1.57 12.29 2.95 12.29 2.98 12.29 3.01 12.32 3.01 12.35 3.01 13.82 3.01"/>
      <polyline class="cls-1" points="13.82 3.19 12.05 3.19 12.03 3.19 12.03 3.16 12.03 3.1 12.03 3.07"/>
      <polyline class="cls-1" points="12.03 3.07 12.8 1.75 12.8 1.72 12.78 1.69 12.75 1.69 11.42 1.69 11.39 1.69 11.39 1.72 10.64 3.01 10.64 3.04 10.64 3.46 10.64 3.49 10.67 3.49 10.86 3.49 10.89 3.49 10.89 3.52 10.92 3.52 10.92 3.55 10.92 3.73 10.92 3.76 10.89 3.76 10.89 3.79 10.86 3.79 10.2 3.79 10.17 3.79 10.14 3.79 10.14 3.76 10.14 3.73 10.14 3.55 10.14 3.52 10.17 3.49 10.2 3.49 10.41 3.49 10.44 3.49 10.47 3.46 10.47 3.25 10.47 3.22 10.44 3.22 10.44 3.19 10.41 3.19 9.03 3.19"/>
      <line class="cls-1" x1="8.91" y1="3.01" x2="9.03" y2="3.01"/>
      <polyline class="cls-1" points="8.64 .19 7.04 2.95 7.01 3.04 7.01 3.16 6.98 3.16 6.98 3.19 6.95 3.19 5.28 3.19"/>
      <polyline class="cls-1" points="5.28 3.01 6.63 3.01 6.78 3.01 6.8 3.01 8.54 .01"/>
      <polyline class="cls-1" points="10.35 .07 8.67 2.95 8.67 2.98 8.67 3.01 8.7 3.01 8.73 3.01 8.91 3.01"/>
      <polyline class="cls-1" points="8.91 3.19 8.45 3.19 8.42 3.19 8.39 3.19 8.39 3.16 8.39 3.1"/>
      <line class="cls-1" x1="8.39" y1="3.07" x2="10.04" y2=".25"/>
      <path class="cls-1" d="m10.01.23s0-.03,0-.04c0-.01-.02-.02-.04-.02"/>
      <line class="cls-1" x1="8.7" y1=".16" x2="9.98" y2=".16"/>
      <path class="cls-1" d="m8.68.16s-.03,0-.04.02"/>
      <path class="cls-1" d="m8.4,3.07s0,.01,0,.02"/>
      <line class="cls-1" x1="9.03" y1="3.19" x2="8.91" y2="3.19"/>
      <line class="cls-1" x1="16.2" y1="3.01" x2="17.04" y2="3.01"/>
      <polyline class="cls-1" points="15.92 .19 14.33 2.95 14.28 3.04 14.28 3.16 14.28 3.19 14.25 3.19 14.22 3.19 13.82 3.19"/>
      <polyline class="cls-1" points="13.82 3.01 13.89 3.01 14.04 3.01 14.07 3.01 14.1 3.01 15.8 .01"/>
      <polyline class="cls-1" points="17.64 .07 15.95 2.95 15.95 2.98 15.95 3.01 15.98 3.01 16.2 3.01"/>
      <polyline class="cls-1" points="16.2 3.19 15.72 3.19 15.69 3.19 15.66 3.16 15.66 3.1"/>
      <line class="cls-1" x1="15.69" y1="3.07" x2="17.3" y2=".25"/>
      <path class="cls-1" d="m17.3.23s0-.03,0-.04c0-.01-.02-.02-.04-.02"/>
      <line class="cls-1" x1="15.95" y1=".16" x2="17.28" y2=".16"/>
      <path class="cls-1" d="m15.94.16s-.03,0-.04.02"/>
      <path class="cls-1" d="m15.66,3.07s0,.01,0,.02"/>
      <line class="cls-1" x1="17.04" y1="3.19" x2="16.2" y2="3.19"/>
    </g>
  </g>
</svg>