<?xml version="1.0" encoding="UTF-8"?>
<svg id="Capa_2" data-name="Capa 2" xmlns="http://www.w3.org/2000/svg" viewBox="0 0 38.75 1.64">
  <defs>
    <style>
      .cls-1 {
        fill: none;
        stroke: #000;
        stroke-linecap: round;
        stroke-linejoin: round;
        stroke-width: .05px;
      }
    </style>
  </defs>
  <g id="Capa_1-2" data-name="Capa 1">
    <g>
      <polyline class="cls-1" points="19.55 .9 19.55 1.02 19.55 1.05 19.58 1.05 19.61 1.05 20.45 1.05 20.48 1.05 20.48 1.08 20.48 1.11 20.48 1.32 20.48 1.35 20.48 1.38 20.45 1.38 20.45 1.41 20.42 1.41 20.39 1.41 20.36 1.44"/>
      <polyline class="cls-1" points="19.37 1.14 19.37 1.17 19.37 1.2 19.41 1.2 19.41 1.23 19.44 1.23 20.25 1.23 20.25 1.32 20.28 1.32 20.28 1.35 20.28 1.38 20.3 1.41 20.33 1.41 20.36 1.41 20.36 1.44"/>
      <polyline class="cls-1" points="19.04 .84 19.04 .99 19.04 1.02 19.01 1.02 18.98 1.02 18.03 1.02"/>
      <polyline class="cls-1" points="15 .84 15 .99 14.97 1.02 14.94 1.02 13.94 1.02"/>
      <polyline class="cls-1" points="6.86 .84 6.86 .99 6.83 1.02 6.8 1.02 5.81 1.02"/>
      <polyline class="cls-1" points="2.78 .84 2.78 .99 2.78 1.02 2.75 1.02 2.54 1.02 2.54 1.05 2.51 1.05 2.51 1.08 2.48 1.08 2.48 1.56 2.48 1.59 2.48 1.62 2.45 1.62 2.33 1.62 .05 1.62 .03 1.62 .03 1.59 .03 1.56 .03 1.5 .03 1.47 .03 1.44 .05 1.44 .23 1.44 .56 1.44 .59 1.47 .59 1.44 2.28 1.44 2.3 1.44 2.3 1.41 2.33 1.41 2.33 1.08 2.3 1.05 2.28 1.05 2.28 1.02 1.44 1.02 1.41 1.02 1.41 .99"/>
      <line class="cls-1" x1="1.82" y1=".84" x2="2.39" y2=".84"/>
      <line class="cls-1" x1="3.8" y1=".84" x2="4.44" y2=".84"/>
      <line class="cls-1" x1="11.94" y1=".84" x2="12.56" y2=".84"/>
      <line class="cls-1" x1="15.98" y1=".84" x2="16.64" y2=".84"/>
      <path class="cls-1" d="m3.26.43c-.04-.21-.2-.37-.4-.4-.21-.04-.41.06-.51.24-.1.18-.08.41.05.57"/>
      <path class="cls-1" d="m3.08.46c-.03-.16-.18-.28-.35-.26-.17.02-.29.16-.28.33,0,.17.15.3.31.3"/>
      <path class="cls-1" d="m19.52.53c0-.22-.14-.42-.35-.48s-.44.02-.56.2c-.12.18-.11.43.04.59"/>
      <path class="cls-1" d="m19.34.52c0-.17-.14-.31-.31-.32-.17,0-.31.14-.32.31,0,.17.13.32.31.32"/>
      <path class="cls-1" d="m3.3.43c.04.24.25.41.49.41"/>
      <path class="cls-1" d="m3.13.46c.06.32.34.56.66.56"/>
      <line class="cls-1" x1="19.55" y1=".9" x2="19.55" y2=".54"/>
      <line class="cls-1" x1="19.37" y1="1.14" x2="19.37" y2=".54"/>
      <path class="cls-1" d="m1.47.7c.09.09.21.14.34.14"/>
      <path class="cls-1" d="m1.45.7s-.03-.02-.05,0c-.02,0-.03.02-.03.04"/>
      <line class="cls-1" x1="1.41" y1=".99" x2="1.41" y2=".75"/>
      <polyline class="cls-1" points="10.91 .84 10.91 .99 10.91 1.02 10.88 1.02 10.7 1.02 10.67 1.02 10.67 1.05 10.64 1.05 10.64 1.08 10.64 1.29 10.64 1.32 10.67 1.32 10.7 1.32 10.85 1.32 10.88 1.32 10.88 1.35 10.91 1.35 10.91 1.38 10.91 1.56 10.91 1.59 10.91 1.62 10.88 1.62 10.85 1.62 10.19 1.62 10.16 1.62 10.13 1.62 10.13 1.59 10.13 1.56 10.13 1.38 10.13 1.35 10.16 1.35 10.16 1.32 10.19 1.32 10.41 1.32 10.44 1.32 10.47 1.32 10.47 1.29 10.47 1.08 10.47 1.05 10.44 1.05 10.44 1.02 10.41 1.02 9.89 1.02"/>
      <line class="cls-1" x1="9.89" y1=".84" x2="10.53" y2=".84"/>
      <path class="cls-1" d="m11.39.43c-.04-.21-.2-.37-.4-.4-.21-.04-.41.06-.51.24-.1.18-.08.41.05.57"/>
      <path class="cls-1" d="m11.21.46c-.03-.16-.18-.28-.35-.26-.17.02-.29.16-.28.33,0,.17.15.3.31.3"/>
      <path class="cls-1" d="m11.43.43c.04.24.25.41.49.41"/>
      <path class="cls-1" d="m11.26.46c.06.32.34.56.66.56"/>
      <path class="cls-1" d="m15.47.43c-.04-.21-.2-.37-.4-.4-.21-.04-.41.06-.51.24-.1.18-.08.41.05.57"/>
      <path class="cls-1" d="m15.29.46c-.03-.16-.18-.28-.35-.26-.17.02-.29.16-.28.33,0,.17.15.3.31.3"/>
      <path class="cls-1" d="m15.48.43c.04.24.25.41.49.41"/>
      <path class="cls-1" d="m15.31.46c.06.32.34.56.66.56"/>
      <path class="cls-1" d="m7.34.43c-.04-.21-.2-.37-.4-.4-.21-.04-.41.06-.51.24-.1.18-.08.41.05.57"/>
      <path class="cls-1" d="m7.16.46c-.03-.16-.18-.28-.35-.26-.17.02-.29.16-.28.33,0,.17.15.3.31.3"/>
      <path class="cls-1" d="m7.35.43c.04.24.25.41.49.41"/>
      <path class="cls-1" d="m7.18.46c.06.32.34.56.66.56"/>
      <path class="cls-1" d="m5.3.43c-.04-.21-.2-.37-.4-.4-.21-.04-.41.06-.51.24-.1.18-.08.41.05.57"/>
      <path class="cls-1" d="m5.12.46c-.03-.16-.18-.28-.35-.26-.17.02-.29.16-.28.33,0,.17.15.3.31.3"/>
      <path class="cls-1" d="m5.31.43c.04.24.25.41.49.41"/>
      <path class="cls-1" d="m5.14.46c.06.32.34.56.66.56"/>
      <path class="cls-1" d="m9.35.43c-.04-.21-.2-.37-.4-.4-.21-.04-.41.06-.51.24-.1.18-.08.41.05.57"/>
      <path class="cls-1" d="m9.17.46c-.03-.16-.18-.28-.35-.26-.17.02-.29.16-.28.33,0,.17.15.3.31.3"/>
      <path class="cls-1" d="m9.39.43c.04.24.25.41.49.41"/>
      <path class="cls-1" d="m9.22.46c.06.32.34.56.66.56"/>
      <path class="cls-1" d="m13.43.43c-.04-.21-.2-.37-.4-.4-.21-.04-.41.06-.51.24-.1.18-.08.41.05.57"/>
      <path class="cls-1" d="m13.25.46c-.03-.16-.18-.28-.35-.26-.17.02-.29.16-.28.33,0,.17.15.3.31.3"/>
      <path class="cls-1" d="m13.44.43c.04.24.25.41.49.41"/>
      <path class="cls-1" d="m13.27.46c.06.32.34.56.66.56"/>
      <path class="cls-1" d="m17.48.43c-.04-.21-.2-.37-.4-.4-.21-.04-.41.06-.51.24-.1.18-.08.41.05.57"/>
      <path class="cls-1" d="m17.3.46c-.03-.16-.18-.28-.35-.26-.17.02-.29.16-.28.33,0,.17.15.3.31.3"/>
      <path class="cls-1" d="m17.52.43c.04.24.25.41.49.41"/>
      <path class="cls-1" d="m17.35.46c.06.32.34.56.66.56"/>
      <line class="cls-1" x1="5.81" y1=".84" x2="6.47" y2=".84"/>
      <line class="cls-1" x1="4.82" y1=".84" x2="4.82" y2=".99"/>
      <line class="cls-1" x1="4.76" y1="1.02" x2="3.8" y2="1.02"/>
      <path class="cls-1" d="m4.75,1.02s.04-.02.04-.05"/>
      <line class="cls-1" x1="7.85" y1="1.02" x2="8.84" y2="1.02"/>
      <line class="cls-1" x1="8.87" y1=".99" x2="8.87" y2=".84"/>
      <path class="cls-1" d="m8.83,1.02s.04-.02.04-.05"/>
      <line class="cls-1" x1="8.51" y1=".84" x2="7.85" y2=".84"/>
      <line class="cls-1" x1="13.94" y1=".84" x2="14.6" y2=".84"/>
      <line class="cls-1" x1="11.94" y1="1.02" x2="12.89" y2="1.02"/>
      <line class="cls-1" x1="12.95" y1=".99" x2="12.95" y2=".84"/>
      <path class="cls-1" d="m12.88,1.02s.05-.02.05-.05"/>
      <line class="cls-1" x1="17" y1=".84" x2="17" y2=".99"/>
      <path class="cls-1" d="m16.96,1.02s.04-.02.04-.05"/>
      <line class="cls-1" x1="16.97" y1="1.02" x2="15.98" y2="1.02"/>
      <line class="cls-1" x1="18.03" y1=".84" x2="18.66" y2=".84"/>
      <polyline class="cls-1" points="37.76 .9 37.76 1.02 37.79 1.02 37.79 1.05 37.82 1.05 38.66 1.05 38.69 1.05 38.69 1.08 38.72 1.08 38.72 1.11 38.72 1.32 38.69 1.35 38.69 1.38 38.66 1.41 38.63 1.41 38.6 1.41 38.6 1.44"/>
      <polyline class="cls-1" points="37.58 1.14 37.58 1.17 37.58 1.2 37.61 1.2 37.61 1.23 37.64 1.23 38.48 1.23 38.48 1.32 38.48 1.35 38.48 1.38 38.51 1.38 38.51 1.41 38.54 1.41 38.57 1.41 38.6 1.44"/>
      <polyline class="cls-1" points="37.25 .84 37.25 .99 37.25 1.02 37.22 1.02 36.23 1.02"/>
      <polyline class="cls-1" points="33.2 .84 33.2 .99 33.2 1.02 33.17 1.02 33.14 1.02 32.19 1.02"/>
      <polyline class="cls-1" points="25.07 .84 25.07 .99 25.07 1.02 25.04 1.02 25.01 1.02 24.05 1.02"/>
      <polyline class="cls-1" points="21.03 .84 21.03 .99 21 .99 21 1.02 20.97 1.02 20.75 1.02 20.75 1.05 20.72 1.05 20.72 1.08 20.72 1.56 20.72 1.59 20.69 1.62 20.66 1.62 20.54 1.62 18.29 1.62 18.26 1.62 18.23 1.62 18.23 1.59 18.23 1.56 18.23 1.5 18.23 1.47 18.26 1.44 18.29 1.44 18.44 1.44 18.78 1.44 18.8 1.47 18.83 1.44 20.48 1.44 20.51 1.44 20.54 1.41 20.54 1.08 20.54 1.05 20.51 1.05 20.51 1.02 20.48 1.02 19.67 1.02 19.64 1.02 19.61 1.02 19.61 .99"/>
      <line class="cls-1" x1="20.03" y1=".84" x2="20.63" y2=".84"/>
      <line class="cls-1" x1="22.01" y1=".84" x2="22.64" y2=".84"/>
      <line class="cls-1" x1="30.14" y1=".84" x2="30.78" y2=".84"/>
      <line class="cls-1" x1="34.19" y1=".84" x2="34.85" y2=".84"/>
      <path class="cls-1" d="m21.5.43c-.04-.21-.2-.37-.4-.4-.21-.04-.41.06-.51.24-.1.18-.08.41.05.57"/>
      <path class="cls-1" d="m21.32.46c-.03-.16-.18-.28-.35-.26-.17.02-.29.16-.28.33,0,.17.15.3.31.3"/>
      <path class="cls-1" d="m37.73.53c0-.22-.14-.42-.35-.48-.21-.06-.44.02-.56.2-.12.18-.11.43.04.59"/>
      <path class="cls-1" d="m37.55.52c0-.17-.14-.31-.31-.32-.17,0-.31.14-.32.31,0,.17.13.32.31.32"/>
      <path class="cls-1" d="m21.51.43c.04.24.25.41.49.41"/>
      <path class="cls-1" d="m21.34.46c.06.32.34.56.66.56"/>
      <line class="cls-1" x1="37.76" y1=".9" x2="37.76" y2=".54"/>
      <line class="cls-1" x1="37.58" y1="1.14" x2="37.58" y2=".54"/>
      <path class="cls-1" d="m19.68.7c.09.09.21.14.34.14"/>
      <path class="cls-1" d="m19.69.7s-.03-.02-.05,0c-.02,0-.03.02-.03.04"/>
      <line class="cls-1" x1="19.61" y1=".99" x2="19.61" y2=".75"/>
      <polyline class="cls-1" points="29.12 .84 29.12 .99 29.12 1.02 29.09 1.02 28.91 1.02 28.88 1.05 28.85 1.05 28.85 1.08 28.85 1.29 28.88 1.29 28.88 1.32 28.91 1.32 29.09 1.32 29.12 1.35 29.12 1.38 29.12 1.56 29.12 1.59 29.12 1.62 29.09 1.62 28.41 1.62 28.37 1.62 28.37 1.59 28.34 1.59 28.34 1.56 28.34 1.38 28.34 1.35 28.37 1.35 28.37 1.32 28.41 1.32 28.64 1.32 28.67 1.32 28.67 1.29 28.67 1.08 28.67 1.05 28.64 1.05 28.64 1.02 28.1 1.02"/>
      <line class="cls-1" x1="28.1" y1=".84" x2="28.76" y2=".84"/>
      <path class="cls-1" d="m29.6.43c-.04-.21-.2-.37-.4-.4-.21-.04-.41.06-.51.24-.1.18-.08.41.05.57"/>
      <path class="cls-1" d="m29.42.46c-.03-.16-.18-.28-.35-.26-.17.02-.29.16-.28.33,0,.17.15.3.31.3"/>
      <path class="cls-1" d="m29.64.43c.04.24.25.41.49.41"/>
      <path class="cls-1" d="m29.47.46c.06.32.34.56.66.56"/>
      <path class="cls-1" d="m33.68.43c-.04-.21-.2-.37-.4-.4-.21-.04-.41.06-.51.24-.1.18-.08.41.05.57"/>
      <path class="cls-1" d="m33.5.46c-.03-.16-.18-.28-.35-.26-.17.02-.29.16-.28.33,0,.17.15.3.31.3"/>
      <path class="cls-1" d="m33.69.43c.04.24.25.41.49.41"/>
      <path class="cls-1" d="m33.52.46c.06.32.34.56.66.56"/>
      <path class="cls-1" d="m25.55.43c-.04-.21-.2-.37-.4-.4-.21-.04-.41.06-.51.24-.1.18-.08.41.05.57"/>
      <path class="cls-1" d="m25.37.46c-.03-.16-.18-.28-.35-.26-.17.02-.29.16-.28.33,0,.17.15.3.31.3"/>
      <path class="cls-1" d="m25.56.43c.04.24.25.41.49.41"/>
      <path class="cls-1" d="m25.39.46c.06.32.34.56.66.56"/>
      <path class="cls-1" d="m23.51.43c-.04-.21-.2-.37-.4-.4-.21-.04-.41.06-.51.24-.1.18-.08.41.05.57"/>
      <path class="cls-1" d="m23.33.46c-.03-.16-.18-.28-.35-.26-.17.02-.29.16-.28.33,0,.17.15.3.31.3"/>
      <path class="cls-1" d="m23.55.43c.04.24.25.41.49.41"/>
      <path class="cls-1" d="m23.38.46c.06.32.34.56.66.56"/>
      <path class="cls-1" d="m27.59.43c-.04-.21-.2-.37-.4-.4-.21-.04-.41.06-.51.24-.1.18-.08.41.05.57"/>
      <path class="cls-1" d="m27.41.46c-.03-.16-.18-.28-.35-.26-.17.02-.29.16-.28.33,0,.17.15.3.31.3"/>
      <path class="cls-1" d="m27.6.43c.04.24.25.41.49.41"/>
      <path class="cls-1" d="m27.43.46c.06.32.34.56.66.56"/>
      <path class="cls-1" d="m31.64.43c-.04-.21-.2-.37-.4-.4-.21-.04-.41.06-.51.24-.1.18-.08.41.05.57"/>
      <path class="cls-1" d="m31.46.46c-.03-.16-.18-.28-.35-.26-.17.02-.29.16-.28.33,0,.17.15.3.31.3"/>
      <path class="cls-1" d="m31.68.43c.04.24.25.41.49.41"/>
      <path class="cls-1" d="m31.51.46c.06.32.34.56.66.56"/>
      <path class="cls-1" d="m35.72.43c-.04-.21-.2-.37-.4-.4-.21-.04-.41.06-.51.24-.1.18-.08.41.05.57"/>
      <path class="cls-1" d="m35.54.46c-.03-.16-.18-.28-.35-.26-.17.02-.29.16-.28.33,0,.17.15.3.31.3"/>
      <path class="cls-1" d="m35.73.43c.04.24.25.41.49.41"/>
      <path class="cls-1" d="m35.56.46c.06.32.34.56.66.56"/>
      <line class="cls-1" x1="24.05" y1=".84" x2="24.69" y2=".84"/>
      <line class="cls-1" x1="23.03" y1=".84" x2="23.03" y2=".99"/>
      <line class="cls-1" x1="23" y1="1.02" x2="22.01" y2="1.02"/>
      <path class="cls-1" d="m22.99,1.02s.04-.02.04-.05"/>
      <line class="cls-1" x1="26.06" y1="1.02" x2="27.05" y2="1.02"/>
      <line class="cls-1" x1="27.11" y1=".99" x2="27.11" y2=".84"/>
      <path class="cls-1" d="m27.04,1.02s.05-.02.05-.05"/>
      <line class="cls-1" x1="26.72" y1=".84" x2="26.06" y2=".84"/>
      <line class="cls-1" x1="32.19" y1=".84" x2="32.81" y2=".84"/>
      <line class="cls-1" x1="30.14" y1="1.02" x2="31.13" y2="1.02"/>
      <line class="cls-1" x1="31.16" y1=".99" x2="31.16" y2=".84"/>
      <path class="cls-1" d="m31.12,1.02s.04-.02.04-.05"/>
      <line class="cls-1" x1="35.25" y1=".84" x2="35.25" y2=".99"/>
      <path class="cls-1" d="m35.17,1.02s.05-.02.05-.05"/>
      <line class="cls-1" x1="35.19" y1="1.02" x2="34.19" y2="1.02"/>
      <line class="cls-1" x1="36.23" y1=".84" x2="36.89" y2=".84"/>
    </g>
  </g>
</svg>