<?xml version="1.0" encoding="UTF-8"?>
<svg id="Capa_2" data-name="Capa 2" xmlns="http://www.w3.org/2000/svg" viewBox="0 0 20.51 3.86">
  <defs>
    <style>
      .cls-1 {
        fill: none;
        stroke: #000;
        stroke-miterlimit: 10;
        stroke-width: .05px;
      }
    </style>
  </defs>
  <g id="Capa_1-2" data-name="Capa 1">
    <g>
      <line class="cls-1" x1="17.04" y1="3.06" x2="17.54" y2="3.06"/>
      <polyline class="cls-1" points="19.79 3.27 20.45 3.27 20.48 3.27 20.48 3.3 20.48 3.33 20.48 3.51 20.48 3.54 20.48 3.57 20.45 3.6 20.42 3.63 20.39 3.63 20.36 3.63"/>
      <polyline class="cls-1" points="19.79 3.45 20.25 3.45 20.25 3.51 20.25 3.54 20.28 3.57 20.28 3.6 20.3 3.6 20.3 3.63 20.33 3.63 20.36 3.63"/>
      <polyline class="cls-1" points="5.01 .24 3.42 3 3.39 3.06 3.36 3.09 3.36 3.21 3.36 3.24 3.32 3.24 2.54 3.24 2.51 3.24 2.51 3.27 2.48 3.27 2.48 3.3 2.48 3.78 2.48 3.81 2.48 3.84 2.45 3.84 2.3 3.84 .05 3.84 .03 3.84 .03 3.81 .03 3.78 .03 3.72 .03 3.69 .03 3.66 .05 3.66 .23 3.66 .57 3.66 .6 3.66 2.28 3.66 2.3 3.66 2.3 3.63 2.3 3.6 2.3 3.3 2.3 3.27 2.3 3.24 2.28 3.24 1.44 3.24 1.41 3.24 1.41 3.21 1.41 3.12 1.41 3.09 1.44 3.06 3 3.06 3.14 3.06 3.17 3.06 3.17 3.03 4.92 .06"/>
      <polyline class="cls-1" points="6.72 .09 5.04 3 5.04 3.03 5.04 3.06 5.07 3.06 5.1 3.06 5.28 3.06"/>
      <polyline class="cls-1" points="5.28 3.24 4.79 3.24 4.76 3.24 4.76 3.21 4.76 3.15"/>
      <path class="cls-1" d="m4.93.03s-.03,0-.04.02"/>
      <path class="cls-1" d="m6.71.09s0-.03,0-.04c0-.01-.02-.02-.04-.02"/>
      <line class="cls-1" x1="4.76" y1="3.12" x2="6.42" y2=".27"/>
      <path class="cls-1" d="m6.38.27s0-.03,0-.04c0-.01-.02-.02-.04-.02"/>
      <line class="cls-1" x1="4.95" y1=".03" x2="6.69" y2=".03"/>
      <line class="cls-1" x1="5.07" y1=".21" x2="6.36" y2=".21"/>
      <path class="cls-1" d="m5.05.21s-.03,0-.04.02"/>
      <path class="cls-1" d="m4.74,3.11s0,.01,0,.02"/>
      <polyline class="cls-1" points="20.04 1.74 18.72 1.74 18.69 1.74 17.91 3.06 17.91 3.09 17.91 3.21 17.91 3.24 17.88 3.24 17.04 3.24"/>
      <polyline class="cls-1" points="17.54 3.06 17.7 3.06 17.73 3.06 17.73 3.03 18.57 1.56 18.6 1.56 18.63 1.56 20.33 1.56 20.36 1.56 20.39 1.59 20.39 1.62 19.64 2.91 19.47 3.21 19.47 3.24 19.47 3.27 19.5 3.27 19.53 3.27 19.79 3.27"/>
      <polyline class="cls-1" points="19.79 3.45 19.23 3.45 19.23 3.42 19.2 3.42 19.2 3.39 19.2 3.33"/>
      <polyline class="cls-1" points="19.2 3.3 19.44 2.91 20.07 1.8"/>
      <path class="cls-1" d="m20.06,1.77s0-.03,0-.04c0-.01-.02-.02-.04-.02"/>
      <path class="cls-1" d="m19.17,3.29s0,.01,0,.02"/>
      <polyline class="cls-1" points="13.82 3.24 12.05 3.24 12.03 3.24 12.03 3.21 12.03 3.15 12.03 3.12 12.8 1.8 12.8 1.77 12.78 1.74 12.75 1.74 11.42 1.74 11.39 1.74 10.64 3.06 10.64 3.09 10.64 3.48 10.64 3.51 10.64 3.54 10.67 3.54 10.86 3.54 10.89 3.54 10.89 3.57 10.92 3.57 10.92 3.6 10.92 3.78 10.92 3.81 10.89 3.81 10.89 3.84 10.86 3.84 10.2 3.84 10.17 3.84 10.14 3.84 10.14 3.81 10.14 3.78 10.14 3.6 10.14 3.57 10.14 3.54 10.17 3.54 10.2 3.54 10.41 3.54 10.44 3.54 10.44 3.51 10.47 3.51 10.47 3.48 10.47 3.3 10.47 3.27 10.44 3.27 10.44 3.24 10.41 3.24 9.03 3.24"/>
      <polyline class="cls-1" points="8.91 3.06 9.03 3.06 10.41 3.06 10.44 3.06 10.44 3.03 11.3 1.56 11.33 1.56 13.04 1.56 13.07 1.56 13.1 1.56 13.1 1.59 13.1 1.62 12.29 3 12.29 3.03 12.29 3.06 12.32 3.06 12.35 3.06 13.82 3.06"/>
      <polyline class="cls-1" points="9.11 1.74 7.82 1.74 7.79 1.74 7.76 1.74 7.04 3 7.01 3.06 7.01 3.09 7.01 3.21 6.98 3.21 6.98 3.24 6.95 3.24 5.28 3.24"/>
      <polyline class="cls-1" points="5.28 3.06 6.63 3.06 6.78 3.06 6.8 3.06 6.8 3.03 7.67 1.56 7.7 1.56 9.45 1.56 9.48 1.56 9.48 1.59 9.48 1.62 8.67 3 8.67 3.03 8.67 3.06 8.7 3.06 8.73 3.06 8.91 3.06"/>
      <polyline class="cls-1" points="8.91 3.24 8.45 3.24 8.42 3.24 8.39 3.24 8.39 3.21 8.39 3.15"/>
      <line class="cls-1" x1="8.39" y1="3.12" x2="9.17" y2="1.8"/>
      <path class="cls-1" d="m9.14,1.77s0-.03,0-.04c0-.01-.02-.02-.04-.02"/>
      <path class="cls-1" d="m8.4,3.11s0,.01,0,.02"/>
      <line class="cls-1" x1="9.03" y1="3.24" x2="8.91" y2="3.24"/>
      <line class="cls-1" x1="16.2" y1="3.06" x2="17.04" y2="3.06"/>
      <polyline class="cls-1" points="15.69 3.12 17.3 .27 17.3 .24 17.3 .21 17.28 .21 15.95 .21 15.92 .21 15.92 .24 14.33 3 14.28 3.06 14.28 3.09 14.28 3.21 14.28 3.24 14.25 3.24 14.22 3.24 13.82 3.24"/>
      <polyline class="cls-1" points="13.82 3.06 13.89 3.06 14.04 3.06 14.07 3.06 14.1 3.06 14.1 3.03 15.8 .06 15.83 .06 15.83 .03 15.86 .03 17.57 .03 17.6 .03 17.6 .06 17.64 .06 17.64 .09 15.95 3 15.95 3.03 15.95 3.06 15.98 3.06 16.2 3.06"/>
      <polyline class="cls-1" points="16.2 3.24 15.72 3.24 15.69 3.24 15.66 3.21 15.66 3.15"/>
      <path class="cls-1" d="m15.66,3.11s0,.01,0,.02"/>
      <line class="cls-1" x1="17.04" y1="3.24" x2="16.2" y2="3.24"/>
    </g>
  </g>
</svg>