<?xml version="1.0" encoding="UTF-8"?>
<svg id="Capa_2" data-name="Capa 2" xmlns="http://www.w3.org/2000/svg" viewBox="0 0 38.75 1.78">
  <defs>
    <style>
      .cls-1 {
        fill: none;
        stroke: #000;
        stroke-linecap: round;
        stroke-linejoin: round;
        stroke-width: .05px;
      }
    </style>
  </defs>
  <g id="Capa_1-2" data-name="Capa 1">
    <g>
      <polyline class="cls-1" points="12.3 .98 19.53 .98 19.53 1.01 19.55 1.01 19.55 1.04 19.55 1.16 19.58 1.16 19.58 1.19 19.61 1.19 20.46 1.19 20.49 1.19 20.49 1.22 20.52 1.22 20.52 1.25 20.52 1.46 20.49 1.49 20.49 1.52 20.46 1.55 20.43 1.55 20.39 1.55"/>
      <polyline class="cls-1" points="12.3 1.16 19.35 1.16 19.38 1.19 19.38 1.22 19.38 1.31 19.41 1.34 19.41 1.37 19.44 1.37 20.28 1.37 20.28 1.46 20.28 1.49 20.28 1.52 20.3 1.52 20.3 1.55 20.33 1.55 20.36 1.55 20.39 1.55"/>
      <polyline class="cls-1" points="10.77 .23 10.61 .23 10.58 .23 10.58 .26 10.58 1.43 10.58 1.46 10.61 1.46 10.8 1.46 10.83 1.46 10.83 1.49 10.86 1.49 10.86 1.52 10.86 1.7 10.86 1.73 10.83 1.73 10.83 1.76 10.8 1.76 10.11 1.76 10.08 1.76 10.08 1.73 10.08 1.7 10.08 1.52 10.08 1.49 10.08 1.46 10.11 1.46 10.35 1.46 10.38 1.46 10.38 1.43 10.41 1.43 10.41 .26 10.38 .23 10.35 .23 10.2 .23"/>
      <polyline class="cls-1" points="2.52 1.22 2.52 1.7 2.52 1.73 2.49 1.73 2.49 1.76 2.46 1.76 2.33 1.76 .08 1.76 .05 1.76 .03 1.73 .03 1.7 .03 1.64 .03 1.61 .05 1.58 .08 1.58 .24 1.58 .57 1.58 .6 1.61 .63 1.58 2.28 1.58 2.3 1.58 2.33 1.55 2.33 1.52 2.33 1.22 2.33 1.19 2.3 1.19 2.3 1.16 2.28 1.16 1.47 1.16 1.44 1.16 1.41 1.16 1.41 1.13 1.41 1.04 1.41 1.01 1.44 1.01 1.44 .98 1.47 .98"/>
      <polyline class="cls-1" points="2.16 .98 2.46 .98 2.49 1.01 2.52 1.01 2.52 1.04 2.52 1.46"/>
      <path class="cls-1" d="m1.44.97c.59-.03,1.11-.4,1.34-.95"/>
      <path class="cls-1" d="m2.13.98c.34-.17.61-.44.78-.77"/>
      <path class="cls-1" d="m3.59.03c.24.58.8.95,1.43.95s1.19-.38,1.43-.95"/>
      <path class="cls-1" d="m3.48.2c.29.58.89.95,1.54.95s1.25-.37,1.54-.95"/>
      <path class="cls-1" d="m7.22.03c.24.58.8.95,1.43.95s1.19-.38,1.43-.95"/>
      <path class="cls-1" d="m7.11.2c.29.58.89.95,1.54.95s1.25-.37,1.54-.95"/>
      <line class="cls-1" x1="3.6" y1=".05" x2="2.82" y2=".05"/>
      <line class="cls-1" x1="3.48" y1=".23" x2="2.91" y2=".23"/>
      <line class="cls-1" x1="6.45" y1=".05" x2="7.26" y2=".05"/>
      <line class="cls-1" x1="6.57" y1=".23" x2="7.14" y2=".23"/>
      <line class="cls-1" x1="10.08" y1=".05" x2="10.89" y2=".05"/>
      <path class="cls-1" d="m10.85.03c.24.58.8.95,1.43.95"/>
      <path class="cls-1" d="m10.74.2c.29.58.89.95,1.54.95"/>
      <polyline class="cls-1" points="30.54 .98 37.74 .98 37.77 1.01 37.8 1.01 37.8 1.04 37.8 1.16 37.8 1.19 37.83 1.19 38.67 1.19 38.7 1.19 38.73 1.22 38.73 1.25 38.73 1.46 38.73 1.49 38.7 1.52 38.7 1.55 38.67 1.55 38.64 1.55 38.61 1.55"/>
      <polyline class="cls-1" points="30.54 1.16 37.55 1.16 37.58 1.16 37.58 1.19 37.61 1.19 37.61 1.22 37.61 1.31 37.61 1.34 37.64 1.37 38.49 1.37 38.49 1.46 38.49 1.49 38.52 1.52 38.52 1.55 38.55 1.55 38.58 1.55 38.61 1.55"/>
      <polyline class="cls-1" points="29.01 .23 28.86 .23 28.83 .23 28.8 .23 28.8 .26 28.8 1.43 28.8 1.46 28.83 1.46 28.86 1.46 29.01 1.46 29.04 1.46 29.07 1.49 29.07 1.52 29.07 1.7 29.07 1.73 29.04 1.76 29.01 1.76 28.35 1.76 28.32 1.76 28.32 1.73 28.29 1.73 28.29 1.7 28.29 1.52 28.29 1.49 28.32 1.49 28.32 1.46 28.35 1.46 28.55 1.46 28.58 1.46 28.61 1.46 28.61 1.43 28.61 .26 28.61 .23 28.58 .23 28.55 .23 28.44 .23"/>
      <polyline class="cls-1" points="20.73 1.22 20.73 1.7 20.73 1.73 20.73 1.76 20.7 1.76 20.55 1.76 18.3 1.76 18.27 1.76 18.27 1.73 18.24 1.73 18.24 1.7 18.24 1.64 18.24 1.61 18.27 1.61 18.27 1.58 18.3 1.58 18.48 1.58 18.78 1.58 18.8 1.61 18.83 1.58 20.52 1.58 20.55 1.58 20.55 1.55 20.55 1.52 20.55 1.22 20.55 1.19 20.52 1.19 20.52 1.16 19.68 1.16 19.64 1.16 19.64 1.13 19.61 1.13 19.61 1.04 19.64 1.01 19.68 .98"/>
      <polyline class="cls-1" points="20.36 .98 20.7 .98 20.7 1.01 20.73 1.01 20.73 1.04 20.73 1.46"/>
      <path class="cls-1" d="m19.65.97c.59-.03,1.11-.4,1.34-.95"/>
      <path class="cls-1" d="m20.34.98c.34-.17.61-.44.78-.77"/>
      <path class="cls-1" d="m21.8.03c.24.58.8.95,1.43.95s1.19-.38,1.43-.95"/>
      <path class="cls-1" d="m21.69.2c.29.58.89.95,1.54.95s1.25-.37,1.54-.95"/>
      <path class="cls-1" d="m25.43.03c.24.58.8.95,1.43.95s1.19-.38,1.43-.95"/>
      <path class="cls-1" d="m25.32.2c.29.58.89.95,1.54.95s1.25-.37,1.54-.95"/>
      <line class="cls-1" x1="21.8" y1=".05" x2="21.03" y2=".05"/>
      <line class="cls-1" x1="21.72" y1=".23" x2="21.14" y2=".23"/>
      <line class="cls-1" x1="24.66" y1=".05" x2="25.47" y2=".05"/>
      <line class="cls-1" x1="24.78" y1=".23" x2="25.35" y2=".23"/>
      <line class="cls-1" x1="28.32" y1=".05" x2="29.1" y2=".05"/>
      <path class="cls-1" d="m29.09.03c.24.58.8.95,1.43.95"/>
      <path class="cls-1" d="m28.98.2c.29.58.89.95,1.54.95"/>
      <path class="cls-1" d="m34.13.98s.03,0,.04,0"/>
      <path class="cls-1" d="m34.13,1.16s.03,0,.05,0"/>
    </g>
  </g>
</svg>