<?xml version="1.0" encoding="UTF-8" standalone="no"?>
<svg
   id="Capa_2"
   data-name="Capa 2"
   viewBox="0 0 11.44 5.11"
   version="1.1"
   sodipodi:docname="matriz2_k.svg"
   inkscape:version="1.3.2 (091e20e, 2023-11-25, custom)"
   xmlns:inkscape="http://www.inkscape.org/namespaces/inkscape"
   xmlns:sodipodi="http://sodipodi.sourceforge.net/DTD/sodipodi-0.dtd"
   xmlns="http://www.w3.org/2000/svg"
   xmlns:svg="http://www.w3.org/2000/svg">
  <sodipodi:namedview
     id="namedview1"
     pagecolor="#ffffff"
     bordercolor="#000000"
     borderopacity="0.25"
     inkscape:showpageshadow="2"
     inkscape:pageopacity="0.0"
     inkscape:pagecheckerboard="0"
     inkscape:deskcolor="#d1d1d1"
     showgrid="false"
     inkscape:zoom="179.1084"
     inkscape:cx="5.7199998"
     inkscape:cy="2.5543191"
     inkscape:window-width="2560"
     inkscape:window-height="1369"
     inkscape:window-x="-8"
     inkscape:window-y="-8"
     inkscape:window-maximized="1"
     inkscape:current-layer="Capa_2" />
  <defs
     id="defs1">
    <style
       id="style1">
      .cls-1 {
        fill: none;
        stroke: #000;
        stroke-linecap: round;
        stroke-linejoin: round;
        stroke-width: .1px;
      }
    </style>
  </defs>
  <g
     id="Capa_1-2"
     data-name="Capa 1">
    <polygon
       class="cls-1"
       points="11.27 4.88 11.24 4.88 11.21 4.88 11.21 4.85 11.18 4.85 11.18 4.82 11.15 4.82 11.15 4.79 11.15 4.76 11.15 4.67 10.31 4.67 10.28 4.67 10.28 4.64 10.25 4.64 10.25 .29 10.25 .26 10.25 .23 10.22 .23 3.44 .23 3.41 .23 3.41 .26 3.38 .26 3.38 .29 3.38 4.43 3.38 4.46 3.38 4.49 3.35 4.49 2.57 4.49 2.54 4.49 2.54 4.52 2.51 4.52 2.51 5.03 2.51 5.06 2.48 5.06 2.33 5.06 .08 5.06 .05 5.06 .05 5.03 .05 4.94 .05 4.91 .08 4.91 .08 4.88 .26 4.88 .59 4.88 .62 4.91 .62 4.88 2.3 4.88 2.33 4.88 2.33 4.85 2.33 4.52 2.33 4.49 2.3 4.49 1.46 4.49 1.43 4.46 1.43 4.43 1.43 4.34 1.43 4.31 1.46 4.31 3.17 4.31 3.2 4.31 3.2 4.28 3.2 4.25 3.2 .11 3.23 .08 3.23 .05 3.26 .05 10.4 .05 10.43 .05 10.43 .08 10.43 .11 10.43 4.31 10.43 4.46 10.43 4.49 10.46 4.49 10.49 4.52 11.33 4.52 11.36 4.52 11.39 4.55 11.39 4.76 11.39 4.79 11.36 4.79 11.36 4.82 11.33 4.85 11.3 4.88 11.27 4.88"
       id="polygon1"
       style="stroke-width:0.05;stroke-dasharray:none" />
  </g>
</svg>
