<?xml version="1.0" encoding="UTF-8"?>
<svg id="Capa_2" data-name="Capa 2" xmlns="http://www.w3.org/2000/svg" viewBox="0 0 43.24 3.6">
  <defs>
    <style>
      .cls-1 {
        fill: none;
        stroke: #000;
        stroke-linecap: round;
        stroke-linejoin: round;
        stroke-width: .1px;
      }
    </style>
  </defs>
  <g id="_0" data-name="0">
    <g id="LWPOLYLINE">
      <path class="cls-1" d="m1.3,3.17h3.51c.06,0,.1-.04.1-.1v-.66c0-.06-.04-.1-.1-.1h-1.74c-.06,0-.1-.04-.1-.1v-.18c0-.06.04-.1.1-.1h3.58c.06,0,.1-.04.1-.1V.15c0-.06.04-.1.1-.1h3.63c.06,0,.1.04.1.1v1.68c0,.06.04.1.1.1h3.63c.06,0,.1-.04.1-.1V.15c0-.06.04-.1.1-.1h3.63c.06,0,.1.04.1.1v1.68c0,.06.04.1.1.1h3.63c.06,0,.1-.04.1-.1V.15c0-.06.04-.1.1-.1h3.63c.06,0,.1.04.1.1v1.68c0,.06.04.1.1.1h3.73s0-1.78,0-1.78c0-.06.04-.1.1-.1h3.63c.06,0,.1.04.1.1v1.78h3.83s0-1.78,0-1.78c0-.06.04-.1.1-.1h3.63c.06,0,.1.04.1.1v1.78"/>
    </g>
    <g id="LWPOLYLINE-2" data-name="LWPOLYLINE">
      <path class="cls-1" d="m41.21,1.93v.33c0,.06.04.1.1.1h1.78c.06,0,.1.04.1.1v.43c0,.14-.11.25-.25.25h0c-.14,0-.25-.11-.25-.25v-.18h-1.75c-.06,0-.1-.04-.1-.1V.53c0-.06-.04-.1-.1-.1h-2.98v1.88s-4.58,0-4.58,0V.43h-3.08v1.88s-4.48,0-4.48,0c-.06,0-.1-.04-.1-.1V.53c0-.06-.04-.1-.1-.1h-2.88c-.06,0-.1.04-.1.1v2.29c0,.06.04.1.1.1h.36c.06,0,.1.04.1.1v.43c0,.06-.04.1-.1.1h-1.43c-.06,0-.1-.04-.1-.1v-.43c0-.06.04-.1.1-.1h.49c.06,0,.1-.04.1-.1v-.41c0-.06-.04-.1-.1-.1h-4.01c-.06,0-.1-.04-.1-.1V.53c0-.06-.04-.1-.1-.1h-2.88c-.06,0-.1.04-.1.1v1.68c0,.06-.04.1-.1.1h-4.38c-.06,0-.1-.04-.1-.1V.53c0-.06-.04-.1-.1-.1h-2.88c-.06,0-.1.04-.1.1v1.68c0,.06-.04.1-.1.1h-1.64c-.06,0-.1.04-.1.1v1.04c0,.06-.04.1-.1.1H.15c-.06,0-.1-.04-.1-.1v-.18c0-.06.04-.1.1-.1h1.05l.05.03.05-.03"/>
    </g>
  </g>
</svg>