<?xml version="1.0" encoding="UTF-8"?>
<svg id="Capa_2" data-name="Capa 2" xmlns="http://www.w3.org/2000/svg" viewBox="0 0 38.75 1.67">
  <defs>
    <style>
      .cls-1 {
        fill: none;
        stroke: #000;
        stroke-linecap: round;
        stroke-linejoin: round;
        stroke-width: .05px;
      }
    </style>
  </defs>
  <g id="Capa_1-2" data-name="Capa 1">
    <g>
      <polyline class="cls-1" points="19.5 .86 19.5 .86 19.53 .86 19.55 .86 19.55 .89 19.55 .92 19.55 1.01 19.55 1.04 19.58 1.04 19.58 1.07 19.61 1.07 20.45 1.07 20.48 1.07 20.48 1.11 20.48 1.32 20.48 1.35 20.48 1.38 20.45 1.41 20.42 1.44 20.39 1.44 20.36 1.44"/>
      <polyline class="cls-1" points="11.94 1.04 19.34 1.04 19.37 1.04 19.37 1.07 19.37 1.11 19.37 1.2 19.37 1.23 19.41 1.23 19.44 1.23 20.25 1.23 20.25 1.32 20.28 1.35 20.28 1.38 20.28 1.41 20.3 1.41 20.3 1.44 20.33 1.44 20.36 1.44"/>
      <polyline class="cls-1" points="10.91 .86 10.91 .98 10.91 1.01 10.88 1.04 10.85 1.04 10.7 1.04 10.67 1.04 10.64 1.07 10.64 1.11 10.64 1.29 10.64 1.32 10.67 1.32 10.67 1.35 10.7 1.35 10.85 1.35 10.88 1.35 10.91 1.35 10.91 1.38 10.91 1.59 10.91 1.61 10.88 1.61 10.88 1.64 10.85 1.64 10.19 1.64 10.16 1.64 10.16 1.61 10.13 1.61 10.13 1.59 10.13 1.38 10.13 1.35 10.16 1.35 10.19 1.35 10.41 1.35 10.44 1.35 10.44 1.32 10.47 1.32 10.47 1.29 10.47 1.11 10.47 1.07 10.47 1.04 10.44 1.04 10.41 1.04 3.03 1.04 2.54 1.04 2.51 1.04 2.51 1.07 2.48 1.11 2.48 1.59 2.48 1.61 2.45 1.61 2.45 1.64 2.33 1.64 .05 1.64 .05 1.61 .03 1.61 .03 1.59 .03 1.5 .03 1.47 .05 1.47 .23 1.47 .56 1.47 .59 1.47 2.28 1.47 2.3 1.44 2.33 1.41 2.33 1.11 2.33 1.07 2.3 1.07 2.3 1.04 2.28 1.04 1.44 1.04 1.41 1.04 1.41 1.01 1.41 .98 1.41 .92 1.41 .89 1.41 .86 1.44 .86 10.53 .86"/>
      <line class="cls-1" x1="11.94" y1=".86" x2="19.5" y2=".86"/>
      <path class="cls-1" d="m11.39.43c-.04-.21-.2-.37-.4-.4-.21-.04-.41.06-.51.24-.1.18-.08.41.05.57"/>
      <path class="cls-1" d="m11.21.46c-.03-.16-.18-.28-.34-.26-.16.02-.29.16-.28.33,0,.17.14.3.31.3"/>
      <path class="cls-1" d="m11.43.43c.04.24.25.41.49.41"/>
      <path class="cls-1" d="m11.26.46c.06.32.34.56.66.56"/>
      <polyline class="cls-1" points="37.73 .86 37.73 .86 37.76 .86 37.76 .89 37.76 .92 37.76 1.01 37.76 1.04 37.79 1.04 37.79 1.07 37.82 1.07 38.66 1.07 38.69 1.07 38.72 1.11 38.72 1.32 38.72 1.35 38.69 1.35 38.69 1.38 38.69 1.41 38.66 1.41 38.66 1.44 38.63 1.44 38.6 1.44"/>
      <polyline class="cls-1" points="30.14 1.04 37.55 1.04 37.58 1.04 37.58 1.07 37.58 1.11 37.58 1.2 37.61 1.2 37.61 1.23 37.64 1.23 38.48 1.23 38.48 1.32 38.48 1.35 38.48 1.38 38.51 1.41 38.54 1.44 38.57 1.44 38.6 1.44"/>
      <polyline class="cls-1" points="29.12 .86 29.12 .98 29.12 1.01 29.12 1.04 29.09 1.04 28.91 1.04 28.88 1.04 28.88 1.07 28.85 1.07 28.85 1.11 28.85 1.29 28.85 1.32 28.88 1.32 28.88 1.35 28.91 1.35 29.09 1.35 29.12 1.35 29.12 1.38 29.12 1.59 29.12 1.61 29.09 1.61 29.09 1.64 28.41 1.64 28.37 1.61 28.34 1.59 28.34 1.38 28.37 1.38 28.37 1.35 28.41 1.35 28.64 1.35 28.67 1.32 28.67 1.29 28.67 1.11 28.67 1.07 28.67 1.04 28.64 1.04 21.23 1.04 20.75 1.04 20.72 1.04 20.72 1.07 20.72 1.11 20.72 1.59 20.72 1.61 20.69 1.61 20.66 1.64 20.54 1.64 18.29 1.64 18.26 1.64 18.26 1.61 18.23 1.61 18.23 1.59 18.23 1.5 18.23 1.47 18.26 1.47 18.29 1.47 18.44 1.47 18.78 1.47 18.8 1.47 18.83 1.47 20.48 1.47 20.51 1.47 20.51 1.44 20.54 1.44 20.54 1.41 20.54 1.11 20.54 1.07 20.51 1.07 20.51 1.04 20.48 1.04 19.67 1.04 19.64 1.04 19.64 1.01 19.61 1.01 19.61 .98 19.61 .92 19.61 .89 19.64 .89 19.64 .86 19.67 .86 28.76 .86"/>
      <line class="cls-1" x1="30.14" y1=".86" x2="37.73" y2=".86"/>
      <path class="cls-1" d="m29.6.43c-.04-.21-.2-.37-.4-.4-.21-.04-.41.06-.51.24-.1.18-.08.41.05.57"/>
      <path class="cls-1" d="m29.42.46c-.03-.16-.18-.28-.34-.26-.16.02-.29.16-.28.33s.14.3.31.3"/>
      <path class="cls-1" d="m29.64.43c.04.24.25.41.49.41"/>
      <path class="cls-1" d="m29.47.46c.06.32.34.56.66.56"/>
    </g>
  </g>
</svg>