<?xml version="1.0" encoding="UTF-8"?>
<svg id="Capa_2" data-name="Capa 2" xmlns="http://www.w3.org/2000/svg" viewBox="0 0 38.75 3.86">
  <defs>
    <style>
      .cls-1 {
        fill: none;
        stroke: #000;
        stroke-linecap: round;
        stroke-linejoin: round;
        stroke-width: .05px;
      }
    </style>
  </defs>
  <g id="Capa_1-2" data-name="Capa 1">
    <g>
      <polyline class="cls-1" points="3.03 3.24 2.54 3.24 2.51 3.24 2.51 3.27 2.48 3.27 2.48 3.3 2.48 3.78 2.48 3.8 2.48 3.83 2.45 3.83 2.3 3.83 .05 3.83 .03 3.83 .03 3.8 .03 3.78 .03 3.72 .03 3.69 .03 3.66 .05 3.66 .23 3.66 .57 3.66 .6 3.66 2.28 3.66 2.3 3.66 2.3 3.63 2.3 3.6 2.3 3.3 2.3 3.27 2.3 3.24 2.28 3.24 1.44 3.24 1.41 3.24 1.41 3.2 1.41 3.11 1.41 3.08 1.44 3.05 3.03 3.05"/>
      <polyline class="cls-1" points="9.72 3.05 19.5 3.05 19.53 3.05 19.53 3.08 19.55 3.08 19.55 3.11 19.55 3.2 19.55 3.24 19.55 3.27 19.58 3.27 20.45 3.27 20.48 3.3 20.48 3.33 20.48 3.51 20.48 3.54 20.48 3.57 20.45 3.6 20.42 3.63 20.39 3.63 20.36 3.63"/>
      <polyline class="cls-1" points="19.38 3.3 19.38 3.39 19.38 3.42 19.41 3.42 19.41 3.45 19.44 3.45 20.25 3.45 20.25 3.51 20.25 3.54 20.28 3.57 20.28 3.6 20.3 3.6 20.3 3.63 20.33 3.63 20.36 3.63"/>
      <line class="cls-1" x1="5.28" y1="3.05" x2="5.36" y2="3.05"/>
      <polyline class="cls-1" points="5.01 .24 3.42 3 3.39 3.05 3.36 3.08 3.36 3.2 3.36 3.24 3.32 3.24 3.03 3.24"/>
      <polyline class="cls-1" points="3.03 3.05 3.14 3.05 3.17 3.05 4.92 .05"/>
      <polyline class="cls-1" points="6.72 .08 5.04 3 5.04 3.03 5.04 3.05 5.07 3.05 5.1 3.05 5.28 3.05"/>
      <polyline class="cls-1" points="5.28 3.24 4.79 3.24 4.76 3.24 4.76 3.2 4.76 3.14"/>
      <path class="cls-1" d="m4.93.03s-.03,0-.04.02"/>
      <path class="cls-1" d="m6.71.09s0-.03,0-.04c0-.01-.02-.02-.04-.02"/>
      <line class="cls-1" x1="4.76" y1="3.11" x2="6.42" y2=".27"/>
      <path class="cls-1" d="m6.38.27s0-.03,0-.04c0-.01-.02-.02-.04-.02"/>
      <line class="cls-1" x1="4.95" y1=".03" x2="6.69" y2=".03"/>
      <line class="cls-1" x1="5.07" y1=".2" x2="6.36" y2=".2"/>
      <path class="cls-1" d="m5.05.2s-.03,0-.04.02"/>
      <path class="cls-1" d="m4.74,3.11s0,.01,0,.02"/>
      <line class="cls-1" x1="8.91" y1="3.05" x2="9.72" y2="3.05"/>
      <polyline class="cls-1" points="8.64 .24 7.04 3 7.01 3.05 7.01 3.08 7.01 3.2 6.98 3.2 6.98 3.24 6.95 3.24 5.28 3.24"/>
      <polyline class="cls-1" points="5.36 3.05 6.78 3.05 6.8 3.05 8.54 .05"/>
      <polyline class="cls-1" points="10.35 .08 8.67 3 8.67 3.03 8.67 3.05 8.7 3.05 8.73 3.05 8.91 3.05"/>
      <path class="cls-1" d="m8.56.03s-.03,0-.04.02"/>
      <path class="cls-1" d="m10.34.09s0-.03,0-.04c0-.01-.02-.02-.04-.02"/>
      <line class="cls-1" x1="8.39" y1="3.11" x2="10.04" y2=".27"/>
      <path class="cls-1" d="m10.01.27s0-.03,0-.04c0-.01-.02-.02-.04-.02"/>
      <line class="cls-1" x1="8.57" y1=".03" x2="10.32" y2=".03"/>
      <line class="cls-1" x1="8.7" y1=".2" x2="9.98" y2=".2"/>
      <path class="cls-1" d="m8.68.2s-.03,0-.04.02"/>
      <path class="cls-1" d="m8.4,3.11s0,.01,0,.02"/>
      <polyline class="cls-1" points="8.39 3.14 8.39 3.2 8.39 3.24 8.42 3.24 8.45 3.24 10.41 3.24 10.44 3.24 10.44 3.27 10.47 3.27 10.47 3.3 10.47 3.48 10.47 3.51 10.44 3.54 10.41 3.54 10.2 3.54 10.17 3.54 10.14 3.54 10.14 3.57 10.14 3.6 10.14 3.78 10.14 3.8 10.14 3.83 10.17 3.83 10.2 3.83 10.86 3.83 10.89 3.83 10.89 3.8 10.92 3.8 10.92 3.78 10.92 3.6 10.92 3.57 10.89 3.57 10.89 3.54 10.86 3.54 10.67 3.54 10.64 3.54 10.64 3.51 10.64 3.48 10.64 3.3 10.64 3.27 10.67 3.24 19.32 3.24 19.35 3.24 19.35 3.27 19.38 3.27 19.38 3.3"/>
      <polyline class="cls-1" points="21.23 3.24 20.76 3.24 20.73 3.24 20.73 3.27 20.73 3.3 20.73 3.78 20.73 3.8 20.7 3.8 20.7 3.83 20.67 3.83 20.54 3.83 18.26 3.83 18.23 3.83 18.23 3.8 18.23 3.78 18.23 3.72 18.23 3.69 18.23 3.66 18.26 3.66 18.45 3.66 18.78 3.66 18.8 3.66 18.83 3.66 20.48 3.66 20.51 3.66 20.51 3.63 20.54 3.63 20.54 3.6 20.54 3.3 20.54 3.27 20.51 3.27 20.51 3.24 20.48 3.24 19.67 3.24 19.64 3.24 19.61 3.24 19.61 3.2 19.61 3.11 19.61 3.08 19.64 3.08 19.64 3.05 19.67 3.05 21.23 3.05"/>
      <polyline class="cls-1" points="27.92 3.05 37.73 3.05 37.73 3.08 37.76 3.08 37.76 3.11 37.76 3.2 37.76 3.24 37.79 3.24 37.79 3.27 37.82 3.27 38.67 3.27 38.7 3.27 38.7 3.3 38.73 3.33 38.73 3.51 38.7 3.54 38.7 3.57 38.7 3.6 38.67 3.6 38.67 3.63 38.64 3.63 38.6 3.63"/>
      <polyline class="cls-1" points="37.58 3.3 37.58 3.39 37.58 3.42 37.61 3.42 37.64 3.45 38.48 3.45 38.48 3.51 38.48 3.54 38.48 3.57 38.51 3.6 38.54 3.63 38.57 3.63 38.6 3.63"/>
      <line class="cls-1" x1="23.48" y1="3.05" x2="23.6" y2="3.05"/>
      <polyline class="cls-1" points="23.22 .24 21.63 3 21.6 3.05 21.6 3.08 21.6 3.2 21.57 3.2 21.57 3.24 21.54 3.24 21.23 3.24"/>
      <polyline class="cls-1" points="21.23 3.05 21.35 3.05 21.39 3.05 23.13 .05"/>
      <polyline class="cls-1" points="24.92 .08 23.28 3 23.25 3 23.25 3.03 23.28 3.05 23.3 3.05 23.48 3.05"/>
      <polyline class="cls-1" points="23.48 3.24 23.04 3.24 23.01 3.24 22.98 3.24 22.98 3.2 22.98 3.14"/>
      <path class="cls-1" d="m23.14.03s-.03,0-.04.02"/>
      <path class="cls-1" d="m24.92.09s0-.03,0-.04c0-.01-.02-.02-.04-.02"/>
      <line class="cls-1" x1="22.98" y1="3.11" x2="24.63" y2=".27"/>
      <path class="cls-1" d="m24.62.27s0-.03,0-.04c0-.01-.02-.02-.04-.02"/>
      <line class="cls-1" x1="23.16" y1=".03" x2="24.89" y2=".03"/>
      <line class="cls-1" x1="23.28" y1=".2" x2="24.6" y2=".2"/>
      <path class="cls-1" d="m23.26.2s-.03,0-.04.02"/>
      <path class="cls-1" d="m22.98,3.11s0,.01,0,.02"/>
      <line class="cls-1" x1="27.11" y1="3.05" x2="27.92" y2="3.05"/>
      <polyline class="cls-1" points="26.88 .24 25.29 3 25.23 3.05 25.23 3.08 25.23 3.2 25.23 3.24 25.2 3.24 25.17 3.24 23.48 3.24"/>
      <polyline class="cls-1" points="23.6 3.05 24.98 3.05 25.01 3.05 25.04 3.05 26.76 .05"/>
      <polyline class="cls-1" points="28.55 .08 26.91 3 26.91 3.03 26.91 3.05 26.94 3.05 27.11 3.05"/>
      <path class="cls-1" d="m26.8.03s-.03,0-.04.02"/>
      <path class="cls-1" d="m28.55.09s0-.03,0-.04c0-.01-.02-.02-.04-.02"/>
      <line class="cls-1" x1="26.6" y1="3.11" x2="28.26" y2=".27"/>
      <path class="cls-1" d="m28.25.27s0-.03,0-.04c0-.01-.02-.02-.04-.02"/>
      <line class="cls-1" x1="26.82" y1=".03" x2="28.53" y2=".03"/>
      <line class="cls-1" x1="26.91" y1=".2" x2="28.23" y2=".2"/>
      <path class="cls-1" d="m26.89.2s-.03,0-.04.02"/>
      <path class="cls-1" d="m26.61,3.11s0,.01,0,.02"/>
      <polyline class="cls-1" points="26.6 3.14 26.6 3.2 26.64 3.24 26.67 3.24 28.64 3.24 28.64 3.27 28.67 3.27 28.67 3.3 28.67 3.48 28.67 3.51 28.67 3.54 28.64 3.54 28.41 3.54 28.38 3.54 28.38 3.57 28.35 3.57 28.35 3.6 28.35 3.78 28.35 3.8 28.38 3.8 28.38 3.83 28.41 3.83 29.07 3.83 29.1 3.83 29.13 3.8 29.13 3.78 29.13 3.6 29.13 3.57 29.1 3.54 29.07 3.54 28.92 3.54 28.89 3.54 28.85 3.51 28.85 3.48 28.85 3.3 28.85 3.27 28.89 3.27 28.89 3.24 28.92 3.24 37.55 3.24 37.58 3.27 37.58 3.3"/>
    </g>
  </g>
</svg>