<?xml version="1.0" encoding="UTF-8"?>
<svg id="Capa_2" data-name="Capa 2" xmlns="http://www.w3.org/2000/svg" viewBox="0 0 20.51 3.68">
  <defs>
    <style>
      .cls-1 {
        fill: none;
        stroke: #000;
        stroke-miterlimit: 10;
        stroke-width: .05px;
      }
    </style>
  </defs>
  <g id="Capa_1-2" data-name="Capa 1">
    <g>
      <polyline class="cls-1" points="13.79 3.09 10.7 3.09 10.67 3.09 10.64 3.09 10.64 3.12 10.64 3.33 10.64 3.36 10.67 3.36 10.7 3.36 10.85 3.36 10.88 3.39 10.91 3.39 10.91 3.42 10.91 3.63 10.91 3.66 10.88 3.66 10.85 3.66 10.19 3.66 10.16 3.66 10.13 3.66 10.13 3.63 10.13 3.42 10.13 3.39 10.16 3.39 10.19 3.36 10.41 3.36 10.44 3.36 10.47 3.36 10.47 3.33 10.47 3.12 10.47 3.09 10.44 3.09 10.41 3.09 3.03 3.09 2.54 3.09 2.51 3.09 2.51 3.12 2.48 3.12 2.48 3.63 2.48 3.66 2.45 3.66 2.33 3.66 .05 3.66 .03 3.66 .03 3.63 .03 3.54 .03 3.51 .05 3.51 .05 3.48 .23 3.48 .56 3.48 .59 3.51 .59 3.48 2.28 3.48 2.3 3.48 2.3 3.45 2.33 3.45 2.33 3.12 2.3 3.12 2.3 3.09 2.28 3.09 1.44 3.09 1.41 3.06 1.41 3.03 1.41 2.94 1.41 2.91 1.44 2.91 13.79 2.91"/>
      <path class="cls-1" d="m3.55,3.06h0"/>
      <polyline class="cls-1" points="20.36 3.48 20.39 3.48 20.42 3.48 20.42 3.45 20.45 3.45 20.45 3.42 20.48 3.42 20.48 3.39 20.48 3.36 20.48 3.15 20.48 3.12 20.45 3.12 19.61 3.12 19.58 3.12 19.58 3.09 19.55 3.09 19.55 3.06"/>
      <polyline class="cls-1" points="17.84 3.09 19.34 3.09 19.37 3.09 19.37 3.12 19.37 3.24 19.41 3.27 19.44 3.27 20.25 3.27 20.25 3.36 20.28 3.39 20.28 3.42 20.3 3.45 20.33 3.48 20.36 3.48"/>
      <line class="cls-1" x1="19.55" y1="3.06" x2="19.55" y2="2.94"/>
      <path class="cls-1" d="m19.53,2.92s-.02-.04-.05-.04"/>
      <path class="cls-1" d="m18.48,2.88c.6-.32.91-1,.77-1.66S18.53.06,17.85.03c-.68-.04-1.3.38-1.52,1.03"/>
      <path class="cls-1" d="m17.77,2.88c.68,0,1.25-.51,1.33-1.19.07-.68-.37-1.3-1.04-1.45-.67-.15-1.33.23-1.55.88"/>
      <path class="cls-1" d="m13.78,2.88c1.15,0,2.18-.74,2.54-1.83"/>
      <path class="cls-1" d="m13.78,3.06c1.23,0,2.32-.78,2.72-1.95"/>
      <line class="cls-1" x1="17.78" y1="2.91" x2="17.78" y2="3.03"/>
      <path class="cls-1" d="m17.78,3.01s.02.04.05.04"/>
      <line class="cls-1" x1="18.5" y1="2.91" x2="19.5" y2="2.91"/>
    </g>
  </g>
</svg>