<?xml version="1.0" encoding="UTF-8"?>
<svg id="Capa_2" data-name="Capa 2" xmlns="http://www.w3.org/2000/svg" viewBox="0 0 43.24 6.63">
  <defs>
    <style>
      .cls-1 {
        fill: none;
        stroke: #000;
        stroke-linecap: round;
        stroke-linejoin: round;
        stroke-width: .1px;
      }
    </style>
  </defs>
  <g id="_0" data-name="0">
    <g id="LWPOLYLINE">
      <path class="cls-1" d="m22.54,5.34c-.06,0-.1.04-.1.1v.41c0,.06.04.1.1.1h.36c.06,0,.1.04.1.1v.43c0,.06-.04.1-.1.1h-1.43c-.06,0-.1-.04-.1-.1v-.43c0-.06.04-.1.1-.1h.49c.06,0,.1-.04.1-.1v-.41c0-.06-.04-.1-.1-.1H5.38c-.06,0-.1.04-.1.1v1.04c0,.06-.04.1-.1.1H.15c-.06,0-.1-.04-.1-.1v-.18c0-.06.04-.1.1-.1h1.05l.05.03.05-.03h3.51c.06,0,.1-.04.1-.1v-.66c0-.06-.04-.1-.1-.1h-1.74c-.06,0-.1-.04-.1-.1v-.18c0-.06.04-.1.1-.1h28.99s.49,0,.49,0c.03,0,.06-.01.08-.03l1.81-2.08L36.82.08s0,0,0,0c.04-.04.11-.03.14,0l2.4,2.76,1.81,2.09s.02.04.02.07v.29c0,.06.04.1.1.1h1.78c.06,0,.1.04.1.1v.43c0,.14-.11.25-.25.25h0c-.14,0-.25-.11-.25-.25v-.18h-1.73c-.06,0-.1-.04-.1-.1v-.47s0-.05-.02-.07l-3.86-4.45s-.1-.05-.14,0c0,0,0,0,0,0l-3.92,4.52c-.09.1-.22.16-.36.16h-10"/>
    </g>
  </g>
</svg>