<?xml version="1.0" encoding="UTF-8"?>
<svg id="Capa_2" data-name="Capa 2" xmlns="http://www.w3.org/2000/svg" viewBox="0 0 11.44 5.11">
  <defs>
    <style>
      .cls-1 {
        fill: none;
        stroke: #000;
        stroke-linecap: round;
        stroke-linejoin: round;
        stroke-width: .1px;
      }
    </style>
  </defs>
  <g id="Capa_1-2" data-name="Capa 1">
    <polygon class="cls-1" points="11.27 4.88 11.24 4.88 11.21 4.88 11.21 4.85 11.18 4.85 11.18 4.82 11.15 4.82 11.15 4.79 11.15 4.76 11.15 4.67 10.31 4.67 10.28 4.67 10.28 4.64 10.25 4.64 10.25 .29 10.25 .26 10.25 .23 10.22 .23 3.44 .23 3.41 .23 3.41 .26 3.38 .26 3.38 .29 3.38 4.43 3.38 4.46 3.38 4.49 3.35 4.49 2.57 4.49 2.54 4.49 2.54 4.52 2.51 4.52 2.51 5.03 2.51 5.06 2.48 5.06 2.33 5.06 .08 5.06 .05 5.06 .05 5.03 .05 4.94 .05 4.91 .08 4.91 .08 4.88 .26 4.88 .59 4.88 .62 4.91 .62 4.88 2.3 4.88 2.33 4.88 2.33 4.85 2.33 4.52 2.33 4.49 2.3 4.49 1.46 4.49 1.43 4.46 1.43 4.43 1.43 4.34 1.43 4.31 1.46 4.31 3.17 4.31 3.2 4.31 3.2 4.28 3.2 4.25 3.2 .11 3.23 .08 3.23 .05 3.26 .05 10.4 .05 10.43 .05 10.43 .08 10.43 .11 10.43 4.31 10.43 4.46 10.43 4.49 10.46 4.49 10.49 4.52 11.33 4.52 11.36 4.52 11.39 4.55 11.39 4.76 11.39 4.79 11.36 4.79 11.36 4.82 11.33 4.85 11.3 4.88 11.27 4.88"/>
  </g>
</svg>