<?xml version="1.0" encoding="UTF-8"?>
<svg id="Capa_2" data-name="Capa 2" xmlns="http://www.w3.org/2000/svg" viewBox="0 0 20.51 3.86">
  <defs>
    <style>
      .cls-1 {
        fill: none;
        stroke: #000;
        stroke-miterlimit: 10;
        stroke-width: .05px;
      }
    </style>
  </defs>
  <g id="Capa_1-2" data-name="Capa 1">
    <g>
      <polyline class="cls-1" points="19.79 3.27 20.45 3.27 20.45 3.3 20.48 3.3 20.48 3.33 20.48 3.54 20.48 3.57 20.48 3.6 20.45 3.6 20.45 3.63 20.42 3.63 20.39 3.66 20.36 3.66"/>
      <polyline class="cls-1" points="19.79 3.45 20.25 3.45 20.25 3.54 20.28 3.57 20.28 3.6 20.3 3.63 20.33 3.63 20.36 3.66"/>
      <polyline class="cls-1" points="1.82 .3 3.48 3.18 3.51 3.18 3.51 3.21 3.51 3.24 3.48 3.24 3.45 3.27 2.54 3.27 2.51 3.27 2.48 3.3 2.48 3.8 2.48 3.83 2.45 3.83 2.3 3.83 .05 3.83 .03 3.83 .03 3.8 .03 3.72 .03 3.69 .03 3.66 .05 3.66 .23 3.66 .57 3.66 .57 3.69 .6 3.66 2.28 3.66 2.3 3.66 2.3 3.63 2.3 3.3 2.3 3.27 2.28 3.27 1.44 3.27 1.44 3.24 1.41 3.24 1.41 3.21 1.41 3.11 1.41 3.08 1.44 3.08 3.03 3.08 3.14 3.08 3.17 3.05 3.17 3.03 3.17 3 1.5 .12"/>
      <polyline class="cls-1" points="5.28 3.08 5.1 3.08 5.07 3.08 5.07 3.05 5.04 3.05 3.32 .05"/>
      <path class="cls-1" d="m3.29.05s-.02-.02-.04-.02"/>
      <path class="cls-1" d="m1.54.03s-.03,0-.04.02c0,.01,0,.03,0,.04"/>
      <path class="cls-1" d="m1.84.21s-.03,0-.04.02c0,.01,0,.03,0,.04"/>
      <line class="cls-1" x1="3.26" y1=".03" x2="1.55" y2=".03"/>
      <line class="cls-1" x1="3.17" y1=".21" x2="1.86" y2=".21"/>
      <path class="cls-1" d="m3.2.23s-.02-.02-.04-.02"/>
      <polyline class="cls-1" points="17.57 3.08 17.7 3.08 17.73 3.05 17.73 3.03 17.73 3 16.04 .12"/>
      <polyline class="cls-1" points="17.76 .24 19.41 3.08 19.41 3.39 19.41 3.42 19.44 3.45 19.79 3.45"/>
      <polyline class="cls-1" points="19.79 3.27 19.61 3.27 19.58 3.27 19.58 3.24 19.58 3.05 19.58 3.03 17.88 .05"/>
      <path class="cls-1" d="m17.84.05s-.02-.02-.04-.02"/>
      <path class="cls-1" d="m16.09.03s-.03,0-.04.02c0,.01,0,.03,0,.04"/>
      <path class="cls-1" d="m16.39.21s-.03,0-.04.02c0,.01,0,.03,0,.04"/>
      <line class="cls-1" x1="17.82" y1=".03" x2="16.1" y2=".03"/>
      <line class="cls-1" x1="17.73" y1=".21" x2="16.41" y2=".21"/>
      <path class="cls-1" d="m17.75.23s-.02-.02-.04-.02"/>
      <polyline class="cls-1" points="10.47 .24 12.2 3.24 12.23 3.24 12.23 3.27 18 3.27 18.03 3.24 18.05 3.21 18.03 3.18 16.38 .3"/>
      <polyline class="cls-1" points="17.57 3.08 12.35 3.08 12.32 3.08 12.32 3.05 12.29 3.05 10.58 .05"/>
      <polyline class="cls-1" points="8.79 .12 10.44 3 10.44 3.03 10.47 3.03 10.44 3.05 10.44 3.08 10.41 3.08 6.78 3.08 5.28 3.08"/>
      <polyline class="cls-1" points="3.2 .24 4.95 3.24 4.98 3.24 4.98 3.27 8.51 3.27 10.41 3.27 10.44 3.27 10.47 3.27 10.47 3.3 10.47 3.51 10.47 3.54 10.44 3.54 10.41 3.54 10.2 3.54 10.17 3.54 10.17 3.57 10.14 3.57 10.14 3.6 10.14 3.8 10.14 3.83 10.17 3.83 10.2 3.83 10.86 3.83 10.89 3.83 10.89 3.8 10.92 3.8 10.92 3.6 10.92 3.57 10.89 3.57 10.89 3.54 10.86 3.54 10.67 3.54 10.64 3.54 10.64 3.51 10.64 3 10.64 2.97 9.08 .3"/>
      <path class="cls-1" d="m10.55.05s-.02-.02-.04-.02"/>
      <path class="cls-1" d="m8.8.03s-.03,0-.04.02c0,.01,0,.03,0,.04"/>
      <path class="cls-1" d="m9.1.21s-.03,0-.04.02c0,.01,0,.03,0,.04"/>
      <line class="cls-1" x1="10.53" y1=".03" x2="8.82" y2=".03"/>
      <line class="cls-1" x1="10.44" y1=".21" x2="9.11" y2=".21"/>
      <path class="cls-1" d="m10.46.23s-.02-.02-.04-.02"/>
    </g>
  </g>
</svg>