<?xml version="1.0" encoding="UTF-8"?>
<svg id="Capa_2" data-name="Capa 2" xmlns="http://www.w3.org/2000/svg" viewBox="0 0 20.51 3.86">
  <defs>
    <style>
      .cls-1 {
        fill: none;
        stroke: #000;
        stroke-miterlimit: 10;
        stroke-width: .05px;
      }
    </style>
  </defs>
  <g id="Capa_1-2" data-name="Capa 1">
    <g>
      <polyline class="cls-1" points="19.79 3.26 20.45 3.26 20.45 3.3 20.48 3.3 20.48 3.33 20.48 3.53 20.48 3.56 20.48 3.59 20.45 3.59 20.45 3.62 20.42 3.62 20.42 3.65 20.39 3.65 20.36 3.65"/>
      <polyline class="cls-1" points="19.79 3.44 20.25 3.44 20.25 3.53 20.28 3.56 20.28 3.59 20.3 3.62 20.33 3.65 20.36 3.65"/>
      <polyline class="cls-1" points="3.03 3.08 3.14 3.08 3.17 3.05 3.17 3.03 3.17 3 2.39 1.61 2.36 1.61 2.39 1.58 2.39 1.55 2.42 1.55 4.17 1.55 4.2 1.55 4.2 1.58 5.04 3.05 5.07 3.05 5.07 3.08 5.1 3.08 5.28 3.08"/>
      <polyline class="cls-1" points="17.57 3.08 17.7 3.08 17.73 3.05 17.73 3.03 17.73 3 16.04 .11 16.04 .08 16.04 .05 16.07 .05 16.1 .03 17.82 .03 17.82 .05 17.85 .05 17.88 .05 19.58 3.03 19.58 3.05 19.58 3.23 19.58 3.26 19.61 3.26 19.79 3.26"/>
      <polyline class="cls-1" points="16.26 3.26 18 3.26 18.03 3.26 18.03 3.23 18.05 3.2 18.03 3.2 18.03 3.17 16.38 .3 16.35 .26 16.38 .23 16.41 .2 17.73 .2 17.73 .23 17.76 .23 19.41 3.08 19.41 3.11"/>
      <polyline class="cls-1" points="19.41 3.11 19.41 3.39 19.41 3.41 19.41 3.44 19.44 3.44 19.79 3.44"/>
      <polyline class="cls-1" points="13.92 3.08 12.35 3.08 12.32 3.08 12.32 3.05 12.29 3.05 11.45 1.58 11.45 1.55 11.42 1.55 9.69 1.55 9.66 1.55 9.66 1.58 9.66 1.61 10.44 3 10.44 3.03 10.47 3.03 10.44 3.05 10.44 3.08 10.41 3.08 9 3.08"/>
      <polyline class="cls-1" points="3.03 3.08 1.44 3.08 1.41 3.08 1.41 3.11 1.41 3.2 1.41 3.23 1.44 3.26 2.28 3.26 2.3 3.26 2.3 3.3 2.3 3.62 2.3 3.65 2.28 3.65 .6 3.65 .57 3.69 .57 3.65 .23 3.65 .05 3.65 .03 3.69 .03 3.72 .03 3.8 .03 3.83 .05 3.83 2.3 3.83 2.45 3.83 2.48 3.83 2.48 3.8 2.48 3.3 2.51 3.26 2.54 3.26 3.45 3.26 3.48 3.26 3.48 3.23 3.51 3.23 3.51 3.2 3.48 3.17 2.7 1.8 2.7 1.76 2.7 1.73 2.73 1.73 4.04 1.73 4.07 1.73 4.07 1.76 4.95 3.23 4.98 3.26 6.66 3.26"/>
      <polyline class="cls-1" points="9 3.26 10.41 3.26 10.44 3.26 10.47 3.26 10.47 3.3 10.47 3.5 10.47 3.53 10.44 3.53 10.41 3.53 10.2 3.53 10.17 3.53 10.17 3.56 10.14 3.56 10.14 3.59 10.14 3.8 10.14 3.83 10.17 3.83 10.2 3.83 10.86 3.83 10.89 3.83 10.89 3.8 10.92 3.8 10.92 3.59 10.92 3.56 10.89 3.56 10.89 3.53 10.86 3.53 10.67 3.53 10.64 3.53 10.64 3.5 10.64 3 10.64 2.97 9.95 1.8 9.95 1.76 9.95 1.73 9.98 1.73 10.01 1.73 11.3 1.73 11.33 1.73 11.33 1.76 11.36 1.76 12.2 3.23 12.23 3.23 12.23 3.26 13.92 3.26"/>
      <polyline class="cls-1" points="5.28 3.08 6.78 3.08 6.8 3.05 6.8 3.03 6.8 3 5.16 .11"/>
      <polyline class="cls-1" points="9 3.08 8.73 3.08 8.7 3.08 8.7 3.05 8.67 3.05 6.95 .05"/>
      <polyline class="cls-1" points="6.66 3.26 7.07 3.26 7.11 3.26 7.11 3.23 7.14 3.23 7.14 3.2 7.14 3.17 5.45 .3"/>
      <path class="cls-1" d="m6.92.05s-.02-.02-.04-.02"/>
      <path class="cls-1" d="m5.17.03s-.03,0-.04.02c0,.01,0,.03,0,.04"/>
      <path class="cls-1" d="m5.47.2s-.03,0-.04.02c0,.01,0,.03,0,.04"/>
      <line class="cls-1" x1="6.89" y1=".03" x2="5.19" y2=".03"/>
      <line class="cls-1" x1="6.8" y1=".2" x2="5.48" y2=".2"/>
      <path class="cls-1" d="m6.83.23s-.02-.02-.04-.02"/>
      <polyline class="cls-1" points="6.83 .23 8.57 3.23 8.61 3.26 9 3.26"/>
      <polyline class="cls-1" points="13.92 3.08 14.04 3.08 14.07 3.08 14.07 3.05 14.1 3.05 14.1 3.03 14.07 3 13.29 1.61 13.29 1.58 13.32 1.55 15.05 1.55 15.08 1.55 15.08 1.58 15.92 3.05 15.95 3.05 15.95 3.08 15.98 3.08 17.57 3.08"/>
      <polyline class="cls-1" points="13.92 3.26 14.33 3.26 14.36 3.26 14.36 3.23 14.39 3.23 14.39 3.2 14.39 3.17 13.58 1.8 13.58 1.76 13.61 1.73 13.64 1.73 14.94 1.73 14.97 1.73 15 1.76 15.83 3.23 15.86 3.23 15.86 3.26 16.26 3.26"/>
    </g>
  </g>
</svg>