<?xml version="1.0" encoding="UTF-8"?>
<svg id="Capa_2" data-name="Capa 2" xmlns="http://www.w3.org/2000/svg" viewBox="0 0 20.51 3.68">
  <defs>
    <style>
      .cls-1 {
        fill: none;
        stroke: #000;
        stroke-miterlimit: 10;
        stroke-width: .05px;
      }
    </style>
  </defs>
  <g id="Capa_1-2" data-name="Capa 1">
    <g>
      <polyline class="cls-1" points="18.5 3.08 10.7 3.08 10.67 3.08 10.64 3.08 10.64 3.11 10.64 3.32 10.64 3.35 10.67 3.35 10.7 3.35 10.85 3.35 10.88 3.39 10.91 3.39 10.91 3.41 10.91 3.63 10.91 3.65 10.88 3.65 10.85 3.65 10.19 3.65 10.16 3.65 10.13 3.65 10.13 3.63 10.13 3.41 10.13 3.39 10.16 3.39 10.19 3.35 10.41 3.35 10.44 3.35 10.47 3.35 10.47 3.32 10.47 3.11 10.47 3.08 10.44 3.08 10.41 3.08 4.31 3.08 4.28 3.06 4.28 3.03 4.28 2.9"/>
      <polyline class="cls-1" points="1.58 2.78 1.58 2.84 1.58 2.88 1.61 2.9 2.45 2.9 2.48 2.9 2.48 2.94 2.48 3.63 2.48 3.65 2.45 3.65 2.33 3.65 .05 3.65 .03 3.65 .03 3.63 .03 3.53 .03 3.51 .05 3.51 .05 3.47 .23 3.47 .56 3.47 .59 3.51 .59 3.47 2.28 3.47 2.3 3.47 2.3 3.45 2.33 3.45 2.33 3.11 2.3 3.11 2.3 3.08 2.28 3.08 1.44 3.08 1.41 3.06 1.41 3.03 1.41 2.66"/>
      <line class="cls-1" x1="5" y1="2.9" x2="18.5" y2="2.9"/>
      <polyline class="cls-1" points="20.36 3.47 20.39 3.47 20.42 3.47 20.42 3.45 20.45 3.45 20.45 3.41 20.48 3.41 20.48 3.39 20.48 3.35 20.48 3.14 20.48 3.11 20.45 3.11 19.61 3.11 19.58 3.11 19.58 3.08 19.55 3.08 19.55 3.06"/>
      <polyline class="cls-1" points="19.37 3.11 19.37 3.23 19.41 3.26 19.44 3.26 20.25 3.26 20.25 3.35 20.28 3.39 20.28 3.41 20.3 3.45 20.33 3.47 20.36 3.47"/>
      <line class="cls-1" x1="19.55" y1="3.06" x2="19.55" y2="2.7"/>
      <line class="cls-1" x1="19.37" y1="3.11" x2="19.37" y2="2.94"/>
      <path class="cls-1" d="m4.98,2.88c.6-.32.91-1,.77-1.66-.15-.66-.72-1.15-1.4-1.19-.68-.04-1.3.38-1.52,1.03"/>
      <path class="cls-1" d="m4.27,2.88c.68,0,1.25-.51,1.33-1.19.07-.68-.37-1.3-1.04-1.45-.67-.15-1.33.23-1.55.88"/>
      <path class="cls-1" d="m1.39,2.63c.68-.31,1.2-.88,1.43-1.59"/>
      <path class="cls-1" d="m1.57,2.75c.67-.34,1.18-.93,1.43-1.64"/>
      <path class="cls-1" d="m18.49,2.88c.36,0,.72-.07,1.05-.21"/>
      <path class="cls-1" d="m18.49,3.06c.3,0,.59-.05.87-.14"/>
    </g>
  </g>
</svg>