<?xml version="1.0" encoding="UTF-8"?>
<svg id="Capa_2" data-name="Capa 2" xmlns="http://www.w3.org/2000/svg" viewBox="0 0 38.8 5.14">
  <defs>
    <style>
      .cls-1 {
        fill: none;
        stroke: #000;
        stroke-linecap: round;
        stroke-linejoin: round;
        stroke-width: .1px;
      }
    </style>
  </defs>
  <g id="Capa_1-2" data-name="Capa 1">
    <polygon class="cls-1" points="38.63 4.88 38.6 4.88 38.57 4.88 38.57 4.85 38.54 4.85 38.51 4.82 38.51 4.79 38.51 4.76 38.51 4.67 37.67 4.67 37.64 4.67 37.61 4.64 37.61 .29 37.61 .26 37.61 .23 37.58 .23 28.94 .23 28.91 .23 28.91 .26 28.88 .26 28.88 .29 28.88 4.73 28.88 4.76 28.91 4.76 28.91 4.79 28.94 4.79 29.12 4.79 29.15 4.79 29.15 4.82 29.15 5.03 29.15 5.06 29.12 5.06 29.12 5.09 28.43 5.09 28.4 5.06 28.37 5.03 28.37 4.82 28.4 4.79 28.43 4.79 28.67 4.79 28.67 4.76 28.7 4.76 28.7 4.73 28.7 .29 28.7 .26 28.67 .23 19.61 .23 19.58 .23 19.58 .26 19.55 .26 19.55 .29 19.55 4.73 19.55 4.76 19.58 4.76 19.58 4.79 19.61 4.79 19.76 4.79 19.79 4.79 19.82 4.79 19.82 4.82 19.82 5.03 19.82 5.06 19.79 5.06 19.79 5.09 19.76 5.09 19.1 5.09 19.07 5.06 19.04 5.06 19.04 5.03 19.04 4.82 19.04 4.79 19.07 4.79 19.1 4.79 19.34 4.79 19.34 4.76 19.37 4.76 19.37 4.73 19.37 .29 19.37 .26 19.34 .23 10.7 .23 10.67 .26 10.67 .29 10.67 4.73 10.67 4.76 10.7 4.76 10.7 4.79 10.88 4.79 10.91 4.79 10.94 4.79 10.94 4.82 10.94 5.03 10.94 5.06 10.91 5.06 10.88 5.09 10.22 5.09 10.19 5.09 10.19 5.06 10.16 5.06 10.16 5.03 10.16 4.82 10.16 4.79 10.19 4.79 10.22 4.79 10.43 4.79 10.46 4.79 10.46 4.76 10.49 4.76 10.49 4.73 10.49 .29 10.49 .26 10.46 .26 10.46 .23 10.43 .23 3.44 .23 3.41 .23 3.41 .26 3.38 .26 3.38 .29 3.38 4.43 3.38 4.46 3.38 4.49 3.35 4.49 2.57 4.49 2.54 4.49 2.54 4.52 2.51 4.52 2.51 5.03 2.51 5.06 2.48 5.06 2.48 5.09 2.33 5.09 .08 5.09 .08 5.06 .05 5.06 .05 5.03 .05 4.94 .05 4.91 .08 4.91 .26 4.91 .59 4.91 .62 4.91 2.3 4.91 2.3 4.88 2.33 4.88 2.33 4.85 2.33 4.52 2.33 4.49 2.3 4.49 1.46 4.49 1.43 4.49 1.43 4.46 1.43 4.43 1.43 4.37 1.43 4.34 1.43 4.31 1.46 4.31 3.17 4.31 3.2 4.31 3.2 4.28 3.2 4.25 3.2 .11 3.23 .11 3.23 .08 3.23 .05 3.26 .05 37.76 .05 37.79 .08 37.79 .11 37.79 4.31 37.79 4.46 37.79 4.49 37.82 4.49 37.82 4.52 37.85 4.52 38.69 4.52 38.72 4.52 38.72 4.55 38.75 4.55 38.75 4.76 38.75 4.79 38.72 4.79 38.72 4.82 38.72 4.85 38.69 4.85 38.66 4.88 38.63 4.88"/>
  </g>
</svg>