<?xml version="1.0" encoding="UTF-8"?>
<svg id="Capa_2" data-name="Capa 2" xmlns="http://www.w3.org/2000/svg" viewBox="0 0 38.75 1.67">
  <defs>
    <style>
      .cls-1 {
        fill: none;
        stroke: #000;
        stroke-linecap: round;
        stroke-linejoin: round;
        stroke-width: .05px;
      }
    </style>
  </defs>
  <g id="Capa_1-2" data-name="Capa 1">
    <g>
      <line class="cls-1" x1="3.17" y1=".86" x2="3.83" y2=".86"/>
      <line class="cls-1" x1="5.22" y1=".86" x2="5.84" y2=".86"/>
      <line class="cls-1" x1="7.25" y1=".86" x2="7.88" y2=".86"/>
      <line class="cls-1" x1="9.26" y1=".86" x2="9.92" y2=".86"/>
      <line class="cls-1" x1="11.3" y1=".86" x2="11.97" y2=".86"/>
      <polyline class="cls-1" points="13.34 .86 19.5 .86 19.53 .86 19.53 .9 19.55 .9 19.55 .93 19.55 1.02 19.55 1.05 19.58 1.08 19.61 1.08 20.45 1.08 20.48 1.08 20.48 1.11 20.48 1.13 20.48 1.31 20.48 1.34 20.48 1.37 20.45 1.4 20.42 1.43 20.39 1.43 20.36 1.43"/>
      <polyline class="cls-1" points="12.95 .86 12.95 1.02 12.98 1.05 13.01 1.05 19.34 1.05 19.34 1.08 19.37 1.08 19.37 1.11 19.37 1.19 19.37 1.22 19.41 1.22 19.41 1.25 19.44 1.25 20.25 1.25 20.25 1.31 20.28 1.34 20.28 1.37 20.28 1.4 20.3 1.4 20.3 1.43 20.33 1.43 20.36 1.43"/>
      <polyline class="cls-1" points="11.97 1.05 10.97 1.05 10.94 1.05 10.94 1.02 10.91 1.02 10.91 .86"/>
      <polyline class="cls-1" points="10.64 .36 10.64 1.28 10.64 1.31 10.64 1.34 10.67 1.34 10.7 1.34 10.85 1.34 10.88 1.34 10.91 1.37 10.91 1.4 10.91 1.58 10.91 1.61 10.88 1.65 10.85 1.65 10.19 1.65 10.16 1.65 10.13 1.61 10.13 1.58 10.13 1.4 10.13 1.37 10.16 1.34 10.19 1.34 10.41 1.34 10.44 1.34 10.47 1.34 10.47 1.31 10.47 1.28 10.47 .77"/>
      <polyline class="cls-1" points="9.92 1.05 8.94 1.05 8.91 1.05 8.91 1.02 8.91 .86"/>
      <polyline class="cls-1" points="7.88 1.05 6.92 1.05 6.89 1.05 6.86 1.05 6.86 1.02 6.86 .86"/>
      <polyline class="cls-1" points="5.84 1.05 4.88 1.05 4.85 1.05 4.82 1.02 4.82 .86"/>
      <polyline class="cls-1" points="3.83 1.05 2.75 1.05 2.54 1.05 2.51 1.05 2.51 1.08 2.51 1.11 2.48 1.11 2.48 1.58 2.48 1.61 2.48 1.65 2.45 1.65 2.33 1.65 .05 1.65 .03 1.65 .03 1.61 .03 1.58 .03 1.52 .03 1.49 .03 1.46 .05 1.46 .23 1.46 .56 1.46 .59 1.49 .59 1.46 2.28 1.46 2.3 1.46 2.3 1.43 2.33 1.43 2.33 1.4 2.33 .8"/>
      <polyline class="cls-1" points="1.79 1.05 1.44 1.05 1.41 1.05 1.41 1.02 1.41 .93 1.41 .9 1.44 .9 1.44 .86 1.82 .86"/>
      <path class="cls-1" d="m3.15.84c.14-.16.16-.38.05-.57-.1-.18-.31-.28-.51-.24-.21.04-.37.2-.4.4"/>
      <path class="cls-1" d="m2.77.83c.15,0,.29-.11.31-.26.02-.15-.06-.3-.21-.35-.15-.05-.31.02-.38.15"/>
      <path class="cls-1" d="m1.78.83c.24,0,.45-.17.49-.41"/>
      <path class="cls-1" d="m1.78,1.02c.2,0,.39-.09.52-.25"/>
      <line class="cls-1" x1="2.48" y1=".83" x2="2.48" y2=".38"/>
      <line class="cls-1" x1="2.78" y1=".86" x2="2.54" y2=".86"/>
      <path class="cls-1" d="m2.48.82s.02.04.05.04"/>
      <path class="cls-1" d="m5.19.84c.14-.16.16-.38.05-.57-.1-.18-.31-.28-.51-.24-.21.04-.37.2-.4.4"/>
      <path class="cls-1" d="m4.82.83c.17,0,.3-.14.31-.3,0-.17-.12-.31-.28-.33-.16-.02-.32.09-.34.26"/>
      <path class="cls-1" d="m3.82.83c.24,0,.45-.17.49-.41"/>
      <path class="cls-1" d="m3.82,1.02c.33,0,.61-.23.66-.56"/>
      <path class="cls-1" d="m7.23.84c.14-.16.16-.38.05-.57-.1-.18-.31-.28-.51-.24-.21.04-.37.2-.4.4"/>
      <path class="cls-1" d="m6.86.83c.17,0,.3-.14.31-.3,0-.17-.12-.31-.28-.33-.16-.02-.32.09-.34.26"/>
      <path class="cls-1" d="m5.83.83c.24,0,.45-.17.49-.41"/>
      <path class="cls-1" d="m5.83,1.02c.33,0,.61-.23.66-.56"/>
      <path class="cls-1" d="m9.24.84c.14-.16.16-.38.05-.57-.1-.18-.31-.28-.51-.24-.21.04-.37.2-.4.4"/>
      <path class="cls-1" d="m8.87.83c.17,0,.3-.14.31-.3s-.12-.31-.28-.33c-.16-.02-.32.09-.34.26"/>
      <path class="cls-1" d="m7.87.83c.24,0,.45-.17.49-.41"/>
      <path class="cls-1" d="m7.87,1.02c.33,0,.61-.23.66-.56"/>
      <path class="cls-1" d="m11.28.84c.14-.16.16-.38.05-.57-.1-.18-.31-.28-.51-.24-.21.04-.37.2-.4.4"/>
      <path class="cls-1" d="m10.91.83c.15,0,.28-.11.3-.26s-.05-.29-.19-.35c-.14-.06-.3,0-.38.12"/>
      <path class="cls-1" d="m9.91.83c.24,0,.45-.17.49-.41"/>
      <path class="cls-1" d="m9.91,1.02c.21,0,.41-.1.54-.27"/>
      <path class="cls-1" d="m13.32.84c.14-.16.16-.38.05-.57-.1-.18-.31-.28-.51-.24-.21.04-.37.2-.4.4"/>
      <path class="cls-1" d="m12.95.83c.17,0,.3-.14.31-.3,0-.17-.12-.31-.28-.33-.16-.02-.32.09-.34.26"/>
      <path class="cls-1" d="m11.95.83c.24,0,.45-.17.49-.41"/>
      <path class="cls-1" d="m11.95,1.02c.33,0,.61-.23.66-.56"/>
      <line class="cls-1" x1="21.38" y1=".86" x2="22.04" y2=".86"/>
      <line class="cls-1" x1="23.42" y1=".86" x2="24.08" y2=".86"/>
      <line class="cls-1" x1="25.47" y1=".86" x2="26.09" y2=".86"/>
      <line class="cls-1" x1="27.5" y1=".86" x2="28.13" y2=".86"/>
      <line class="cls-1" x1="29.51" y1=".86" x2="30.17" y2=".86"/>
      <polyline class="cls-1" points="31.55 .86 37.61 .86 37.64 .9 37.64 .93 37.64 1.02 37.64 1.05 37.67 1.05 37.67 1.08 37.7 1.08 38.66 1.08 38.69 1.08 38.69 1.11 38.72 1.11 38.72 1.13 38.72 1.31 38.72 1.34 38.69 1.37 38.69 1.4 38.66 1.4 38.66 1.43 38.63 1.43 38.6 1.43"/>
      <polyline class="cls-1" points="31.16 .86 31.16 1.02 31.19 1.02 31.19 1.05 31.22 1.05 37.44 1.05 37.47 1.05 37.47 1.08 37.47 1.11 37.47 1.19 37.47 1.22 37.5 1.22 37.5 1.25 37.53 1.25 38.48 1.25 38.48 1.31 38.48 1.34 38.48 1.37 38.51 1.4 38.54 1.43 38.57 1.43 38.6 1.43"/>
      <polyline class="cls-1" points="30.17 1.05 29.19 1.05 29.16 1.05 29.16 1.02 29.16 .86"/>
      <polyline class="cls-1" points="28.85 .36 28.85 1.28 28.85 1.31 28.88 1.31 28.88 1.34 28.91 1.34 29.09 1.34 29.12 1.34 29.12 1.37 29.12 1.4 29.12 1.58 29.12 1.61 29.12 1.65 29.09 1.65 28.41 1.65 28.37 1.65 28.37 1.61 28.34 1.61 28.34 1.58 28.34 1.4 28.34 1.37 28.37 1.37 28.37 1.34 28.41 1.34 28.64 1.34 28.67 1.34 28.67 1.31 28.67 1.28 28.67 .77"/>
      <polyline class="cls-1" points="28.13 1.05 27.17 1.05 27.14 1.05 27.11 1.05 27.11 1.02 27.11 .86"/>
      <polyline class="cls-1" points="26.09 1.05 25.13 1.05 25.1 1.05 25.07 1.02 25.07 .86"/>
      <polyline class="cls-1" points="24.08 1.05 23.09 1.05 23.06 1.05 23.06 1.02 23.06 .86"/>
      <polyline class="cls-1" points="22.04 1.05 20.97 1.05 20.75 1.05 20.72 1.08 20.72 1.11 20.72 1.58 20.72 1.61 20.69 1.61 20.69 1.65 20.66 1.65 20.54 1.65 18.29 1.65 18.26 1.65 18.23 1.61 18.23 1.58 18.23 1.52 18.23 1.49 18.26 1.46 18.29 1.46 18.44 1.46 18.78 1.46 18.8 1.49 18.83 1.46 20.48 1.46 20.51 1.46 20.51 1.43 20.54 1.43 20.54 1.4 20.54 .8"/>
      <polyline class="cls-1" points="20 1.05 19.67 1.05 19.64 1.05 19.61 1.02 19.61 .93 19.61 .9 19.64 .9 19.64 .86 19.67 .86 20.03 .86"/>
      <path class="cls-1" d="m21.39.84c.14-.16.16-.38.05-.57-.1-.18-.31-.28-.51-.24-.21.04-.37.2-.4.4"/>
      <path class="cls-1" d="m21.01.83c.15,0,.29-.11.31-.26.02-.15-.06-.3-.21-.35-.15-.05-.31.02-.38.15"/>
      <path class="cls-1" d="m19.99.83c.24,0,.45-.17.49-.41"/>
      <path class="cls-1" d="m19.99,1.02c.2,0,.39-.09.52-.25"/>
      <line class="cls-1" x1="20.72" y1=".83" x2="20.72" y2=".38"/>
      <line class="cls-1" x1="21.03" y1=".86" x2="20.75" y2=".86"/>
      <path class="cls-1" d="m20.69.82s.02.04.05.04"/>
      <path class="cls-1" d="m23.4.84c.14-.16.16-.38.05-.57-.1-.18-.31-.28-.51-.24-.21.04-.37.2-.4.4"/>
      <path class="cls-1" d="m23.03.83c.17,0,.3-.14.31-.3s-.12-.31-.28-.33c-.16-.02-.32.09-.34.26"/>
      <path class="cls-1" d="m22.03.83c.24,0,.45-.17.49-.41"/>
      <path class="cls-1" d="m22.03,1.02c.33,0,.61-.23.66-.56"/>
      <path class="cls-1" d="m25.44.84c.14-.16.16-.38.05-.57-.1-.18-.31-.28-.51-.24-.21.04-.37.2-.4.4"/>
      <path class="cls-1" d="m25.07.83c.17,0,.3-.14.31-.3,0-.17-.12-.31-.28-.33-.16-.02-.32.09-.34.26"/>
      <path class="cls-1" d="m24.07.83c.24,0,.45-.17.49-.41"/>
      <path class="cls-1" d="m24.07,1.02c.33,0,.61-.23.66-.56"/>
      <path class="cls-1" d="m27.48.84c.14-.16.16-.38.05-.57-.1-.18-.31-.28-.51-.24-.21.04-.37.2-.4.4"/>
      <path class="cls-1" d="m27.11.83c.17,0,.3-.14.31-.3,0-.17-.12-.31-.28-.33-.16-.02-.32.09-.34.26"/>
      <path class="cls-1" d="m26.08.83c.24,0,.45-.17.49-.41"/>
      <path class="cls-1" d="m26.08,1.02c.33,0,.61-.23.66-.56"/>
      <path class="cls-1" d="m29.49.84c.14-.16.16-.38.05-.57-.1-.18-.31-.28-.51-.24-.21.04-.37.2-.4.4"/>
      <path class="cls-1" d="m29.12.83c.15,0,.28-.11.3-.26.03-.15-.05-.29-.19-.35-.14-.06-.3,0-.38.12"/>
      <path class="cls-1" d="m28.12.83c.24,0,.45-.17.49-.41"/>
      <path class="cls-1" d="m28.12,1.02c.21,0,.41-.1.54-.27"/>
      <path class="cls-1" d="m31.53.84c.14-.16.16-.38.05-.57-.1-.18-.31-.28-.51-.24-.21.04-.37.2-.4.4"/>
      <path class="cls-1" d="m31.16.83c.17,0,.3-.14.31-.3,0-.17-.12-.31-.28-.33-.16-.02-.32.09-.34.26"/>
      <path class="cls-1" d="m30.16.83c.24,0,.45-.17.49-.41"/>
      <path class="cls-1" d="m30.16,1.02c.33,0,.61-.23.66-.56"/>
    </g>
  </g>
</svg>