<?xml version="1.0" encoding="UTF-8" standalone="no"?>
<svg
   id="Capa_2"
   data-name="Capa 2"
   viewBox="0 0 20.5 3.86"
   version="1.1"
   sodipodi:docname="matrix11_c.svg"
   width="20.5"
   height="3.8599999"
   inkscape:version="1.3.2 (091e20e, 2023-11-25, custom)"
   xmlns:inkscape="http://www.inkscape.org/namespaces/inkscape"
   xmlns:sodipodi="http://sodipodi.sourceforge.net/DTD/sodipodi-0.dtd"
   xmlns="http://www.w3.org/2000/svg"
   xmlns:svg="http://www.w3.org/2000/svg">
  <sodipodi:namedview
     id="namedview49"
     pagecolor="#ffffff"
     bordercolor="#000000"
     borderopacity="0.25"
     inkscape:showpageshadow="2"
     inkscape:pageopacity="0.0"
     inkscape:pagecheckerboard="0"
     inkscape:deskcolor="#d1d1d1"
     showgrid="false"
     inkscape:zoom="52.877419"
     inkscape:cx="19.375"
     inkscape:cy="1.9384456"
     inkscape:window-width="2560"
     inkscape:window-height="1369"
     inkscape:window-x="-8"
     inkscape:window-y="-8"
     inkscape:window-maximized="1"
     inkscape:current-layer="Capa_2" />
  <defs
     id="defs1">
    <style
       id="style1">
      .cls-1 {
        fill: none;
        stroke: #000;
        stroke-linecap: round;
        stroke-linejoin: round;
        stroke-width: .05px;
      }
    </style>
  </defs>
  <g
     id="Capa_1-2"
     data-name="Capa 1"
     transform="translate(-0.005,0.005)">
    <g
       id="g49">
      <polyline
         class="cls-1"
         points="12.6 3.23 19.32 3.23 19.35 3.23 19.35 3.27 19.38 3.27 19.38 3.3"
         id="polyline1" />
      <polyline
         class="cls-1"
         points="3.03 3.23 2.54 3.23 2.51 3.27 2.48 3.27 2.48 3.3 2.48 3.78 2.48 3.8 2.48 3.83 2.45 3.83 2.3 3.83 .05 3.83 .03 3.83 .03 3.8 .03 3.78 .03 3.72 .03 3.69 .03 3.66 .05 3.66 .23 3.66 .57 3.66 .57 3.69 .6 3.66 2.28 3.66 2.3 3.66 2.3 3.63 2.3 3.3 2.3 3.27 2.28 3.27 2.28 3.23 1.44 3.23 1.41 3.23 1.41 3.2 1.41 3.11 1.41 3.08 1.44 3.08 1.44 3.05 3.03 3.05"
         id="polyline2" />
      <polyline
         class="cls-1"
         points="12.6 3.05 19.5 3.05 19.53 3.05 19.53 3.08 19.55 3.08 19.55 3.11 19.55 3.23 19.55 3.27 19.58 3.27 20.45 3.27 20.48 3.3 20.48 3.33 20.48 3.54 20.48 3.57 20.48 3.6 20.45 3.6 20.45 3.63 20.42 3.63 20.39 3.63 20.36 3.66"
         id="polyline3" />
      <polyline
         class="cls-1"
         points="19.38 3.3 19.38 3.39 19.38 3.42 19.41 3.42 19.41 3.45 19.44 3.45 20.25 3.45 20.25 3.54 20.28 3.57 20.28 3.6 20.3 3.63 20.33 3.63 20.36 3.63 20.36 3.66"
         id="polyline4" />
      <line
         class="cls-1"
         x1="5.2800002"
         y1="3.05"
         x2="5.3600001"
         y2="3.05"
         id="line4" />
      <polyline
         class="cls-1"
         points="5.01 .23 3.42 3 3.39 3.08 3.36 3.08 3.36 3.2 3.36 3.23 3.32 3.23 3.03 3.23"
         id="polyline5" />
      <polyline
         class="cls-1"
         points="3.03 3.05 3.14 3.05 3.17 3.05 4.92 .05"
         id="polyline6" />
      <polyline
         class="cls-1"
         points="6.72 .11 5.04 3 5.04 3.03 5.04 3.05 5.07 3.05 5.1 3.05 5.28 3.05"
         id="polyline7" />
      <polyline
         class="cls-1"
         points="5.28 3.23 4.79 3.23 4.76 3.23 4.76 3.2 4.76 3.14"
         id="polyline8" />
      <path
         class="cls-1"
         d="m 4.93,0.03 c 0,0 -0.03,0 -0.04,0.02"
         id="path8" />
      <path
         class="cls-1"
         d="m 6.71,0.09 c 0,0 0,-0.03 0,-0.05 0,-0.01 -0.02,-0.02 -0.04,-0.02"
         id="path9" />
      <line
         class="cls-1"
         x1="4.7600002"
         y1="3.1099999"
         x2="6.4200001"
         y2="0.30000001"
         id="line9" />
      <path
         class="cls-1"
         d="m 6.38,0.27 c 0,0 0,-0.03 0,-0.04 0,-0.01 -0.02,-0.02 -0.04,-0.02"
         id="path10" />
      <line
         class="cls-1"
         x1="4.9499998"
         y1="0.029999999"
         x2="6.6900001"
         y2="0.029999999"
         id="line10" />
      <line
         class="cls-1"
         x1="5.0700002"
         y1="0.2"
         x2="6.3600001"
         y2="0.2"
         id="line11" />
      <path
         class="cls-1"
         d="m 5.05,0.2 c 0,0 -0.03,0 -0.04,0.02"
         id="path11" />
      <path
         class="cls-1"
         d="m 4.74,3.11 c 0,0 0,0.01 0,0.02"
         id="path12" />
      <line
         class="cls-1"
         x1="8.9099998"
         y1="3.05"
         x2="10.29"
         y2="3.05"
         id="line12" />
      <polyline
         class="cls-1"
         points="8.64 .23 7.04 3 7.01 3.08 7.01 3.2 6.98 3.2 6.98 3.23 6.95 3.23 5.28 3.23"
         id="polyline12" />
      <polyline
         class="cls-1"
         points="5.36 3.05 6.78 3.05 6.8 3.05 8.54 .05"
         id="polyline13" />
      <polyline
         class="cls-1"
         points="10.35 .11 8.67 3 8.67 3.03 8.67 3.05 8.7 3.05 8.73 3.05 8.91 3.05"
         id="polyline14" />
      <path
         class="cls-1"
         d="m 8.56,0.03 c 0,0 -0.03,0 -0.04,0.02"
         id="path14" />
      <path
         class="cls-1"
         d="m 10.34,0.09 c 0,0 0,-0.03 0,-0.05 0,-0.01 -0.02,-0.02 -0.04,-0.02"
         id="path15" />
      <line
         class="cls-1"
         x1="8.3900003"
         y1="3.1099999"
         x2="10.04"
         y2="0.30000001"
         id="line15" />
      <path
         class="cls-1"
         d="m 10.01,0.27 c 0,0 0,-0.03 0,-0.04 0,-0.01 -0.02,-0.02 -0.04,-0.02"
         id="path16" />
      <line
         class="cls-1"
         x1="8.5699997"
         y1="0.029999999"
         x2="10.32"
         y2="0.029999999"
         id="line16" />
      <line
         class="cls-1"
         x1="8.6999998"
         y1="0.2"
         x2="9.9799995"
         y2="0.2"
         id="line17" />
      <path
         class="cls-1"
         d="m 8.68,0.2 c 0,0 -0.03,0 -0.04,0.02"
         id="path17" />
      <path
         class="cls-1"
         d="m 8.4,3.11 c 0,0 0,0.01 0,0.02"
         id="path18" />
      <polyline
         class="cls-1"
         points="12.29 .23 10.64 3.08 10.64 3.51 10.64 3.54 10.67 3.54 10.86 3.54 10.89 3.54 10.89 3.57 10.92 3.57 10.92 3.6 10.92 3.78 10.92 3.8 10.89 3.8 10.89 3.83 10.86 3.83 10.2 3.83 10.17 3.83 10.14 3.83 10.14 3.8 10.14 3.78 10.14 3.6 10.14 3.57 10.17 3.54 10.2 3.54 10.41 3.54 10.44 3.54 10.47 3.51 10.47 3.3 10.47 3.27 10.44 3.27 10.44 3.23 10.41 3.23 8.45 3.23 8.42 3.23 8.39 3.23 8.39 3.2 8.39 3.14"
         id="polyline18" />
      <polyline
         class="cls-1"
         points="10.29 3.05 10.41 3.05 10.44 3.05 10.47 3.05 12.17 .05"
         id="polyline19" />
      <polyline
         class="cls-1"
         points="13.98 .11 12.32 3 12.29 3.03 12.32 3.05 12.35 3.05 12.6 3.08"
         id="polyline20" />
      <polyline
         class="cls-1"
         points="12.6 3.23 12.08 3.23 12.05 3.23 12.03 3.23 12.03 3.2 12.03 3.14"
         id="polyline21" />
      <path
         class="cls-1"
         d="m 12.22,0.03 c 0,0 -0.03,0 -0.04,0.02"
         id="path21" />
      <path
         class="cls-1"
         d="m 13.97,0.09 c 0,0 0,-0.03 0,-0.05 0,-0.01 -0.02,-0.02 -0.04,-0.02"
         id="path22" />
      <line
         class="cls-1"
         x1="12.03"
         y1="3.1099999"
         x2="13.67"
         y2="0.30000001"
         id="line22" />
      <path
         class="cls-1"
         d="m 13.67,0.27 c 0,0 0,-0.03 0,-0.04 0,-0.01 -0.02,-0.02 -0.04,-0.02"
         id="path23" />
      <line
         class="cls-1"
         x1="12.23"
         y1="0.029999999"
         x2="13.95"
         y2="0.029999999"
         id="line23" />
      <line
         class="cls-1"
         x1="12.32"
         y1="0.2"
         x2="13.64"
         y2="0.2"
         id="line24" />
      <path
         class="cls-1"
         d="m 12.31,0.2 c 0,0 -0.03,0 -0.04,0.02"
         id="path24" />
      <path
         class="cls-1"
         d="m 12.03,3.11 c 0,0 0,0.01 0,0.02"
         id="path25" />
    </g>
  </g>
</svg>
