<?xml version="1.0" encoding="UTF-8" standalone="no"?>
<svg
   id="Capa_2"
   data-name="Capa 2"
   viewBox="0 0 20.540001 1.78"
   version="1.1"
   sodipodi:docname="matrix13_d.svg"
   width="20.540001"
   height="1.78"
   inkscape:version="1.3.2 (091e20e, 2023-11-25, custom)"
   xmlns:inkscape="http://www.inkscape.org/namespaces/inkscape"
   xmlns:sodipodi="http://sodipodi.sourceforge.net/DTD/sodipodi-0.dtd"
   xmlns="http://www.w3.org/2000/svg"
   xmlns:svg="http://www.w3.org/2000/svg">
  <sodipodi:namedview
     id="namedview25"
     pagecolor="#ffffff"
     bordercolor="#000000"
     borderopacity="0.25"
     inkscape:showpageshadow="2"
     inkscape:pageopacity="0.0"
     inkscape:pagecheckerboard="0"
     inkscape:deskcolor="#d1d1d1"
     showgrid="false"
     inkscape:zoom="52.877419"
     inkscape:cx="19.375"
     inkscape:cy="0.89830405"
     inkscape:window-width="2560"
     inkscape:window-height="1369"
     inkscape:window-x="-8"
     inkscape:window-y="-8"
     inkscape:window-maximized="1"
     inkscape:current-layer="Capa_2" />
  <defs
     id="defs1">
    <style
       id="style1">
      .cls-1 {
        fill: none;
        stroke: #000;
        stroke-linecap: round;
        stroke-linejoin: round;
        stroke-width: .05px;
      }
    </style>
  </defs>
  <g
     id="Capa_1-2"
     data-name="Capa 1"
     transform="translate(-0.005,-0.005)">
    <g
       id="g25">
      <polyline
         class="cls-1"
         points="8.67 .98 19.53 .98 19.55 .98 19.55 1.01 19.55 1.04 19.55 1.13 19.55 1.16 19.58 1.16 19.58 1.19 19.61 1.19 20.46 1.19 20.49 1.19 20.49 1.22 20.52 1.22 20.52 1.44 20.52 1.47 20.49 1.5 20.49 1.53 20.46 1.53 20.46 1.55 20.43 1.55 20.39 1.55"
         id="polyline1" />
      <polyline
         class="cls-1"
         points="8.67 1.16 10.35 1.16 10.38 1.16 10.38 1.19 10.41 1.19 10.41 1.22 10.41 1.41 10.41 1.44 10.38 1.44 10.38 1.47 10.35 1.47 10.11 1.47 10.08 1.47 10.08 1.5 10.08 1.7 10.08 1.73 10.11 1.76 10.8 1.76 10.83 1.76 10.83 1.73 10.86 1.73 10.86 1.7 10.86 1.5 10.83 1.5 10.83 1.47 10.8 1.47 10.61 1.47 10.58 1.47 10.58 1.44 10.58 1.41 10.58 1.22 10.58 1.19 10.58 1.16 10.61 1.16 19.35 1.16 19.38 1.16 19.38 1.19 19.38 1.22 19.38 1.31 19.41 1.31 19.41 1.34 19.44 1.34 20.28 1.34 20.28 1.44 20.28 1.47 20.28 1.5 20.3 1.53 20.33 1.55 20.36 1.55 20.39 1.55"
         id="polyline2" />
      <polyline
         class="cls-1"
         points="2.52 1.22 2.52 1.7 2.52 1.73 2.49 1.73 2.49 1.76 2.46 1.76 2.33 1.76 .08 1.76 .05 1.76 .05 1.73 .03 1.73 .03 1.7 .03 1.61 .03 1.58 .05 1.58 .08 1.58 .24 1.58 .57 1.58 .6 1.58 .63 1.58 2.28 1.58 2.3 1.58 2.3 1.55 2.33 1.55 2.33 1.53 2.33 1.22 2.33 1.19 2.3 1.19 2.3 1.16 2.28 1.16 1.47 1.16 1.44 1.16 1.41 1.16 1.41 1.13 1.41 1.04 1.41 1.01 1.44 1.01 1.44 .98 1.47 .98"
         id="polyline3" />
      <polyline
         class="cls-1"
         points="2.16 .98 2.46 .98 2.49 .98 2.49 1.01 2.52 1.01 2.52 1.04 2.52 1.47"
         id="polyline4" />
      <path
         class="cls-1"
         d="M 1.44,0.98 C 2.03,0.95 2.55,0.58 2.78,0.03"
         id="path4" />
      <path
         class="cls-1"
         d="M 2.13,0.99 C 2.47,0.82 2.74,0.55 2.91,0.22"
         id="path5" />
      <path
         class="cls-1"
         d="m 3.59,0.03 c 0.24,0.58 0.8,0.95 1.43,0.95 0.63,0 1.19,-0.38 1.43,-0.95"
         id="path6" />
      <path
         class="cls-1"
         d="m 3.48,0.21 c 0.29,0.58 0.89,0.95 1.54,0.95 0.65,0 1.25,-0.37 1.54,-0.95"
         id="path7" />
      <path
         class="cls-1"
         d="m 7.22,0.03 c 0.24,0.58 0.8,0.95 1.43,0.95"
         id="path8" />
      <path
         class="cls-1"
         d="M 7.11,0.21 C 7.4,0.79 8,1.16 8.65,1.16"
         id="path9" />
      <line
         class="cls-1"
         x1="3.5999999"
         y1="0.029999999"
         x2="2.8199999"
         y2="0.029999999"
         id="line9" />
      <line
         class="cls-1"
         x1="3.48"
         y1="0.2"
         x2="2.9100001"
         y2="0.2"
         id="line10" />
      <line
         class="cls-1"
         x1="6.4499998"
         y1="0.029999999"
         x2="7.2600002"
         y2="0.029999999"
         id="line11" />
      <line
         class="cls-1"
         x1="6.5700002"
         y1="0.2"
         x2="7.1399999"
         y2="0.2"
         id="line12" />
      <path
         class="cls-1"
         d="m 12.26,0.98 c 0,0 0.01,0 0.02,0"
         id="path12" />
      <path
         class="cls-1"
         d="m 12.26,1.16 c 0,0 0.01,0 0.02,0"
         id="path13" />
    </g>
  </g>
</svg>
