<?xml version="1.0" encoding="UTF-8"?>
<svg id="Capa_2" data-name="Capa 2" xmlns="http://www.w3.org/2000/svg" viewBox="0 0 38.68 5.14">
  <defs>
    <style>
      .cls-1 {
        fill: none;
        stroke: #000;
        stroke-linecap: round;
        stroke-linejoin: round;
        stroke-width: .1px;
      }
    </style>
  </defs>
  <g id="Capa_1-2" data-name="Capa 1">
    <g>
      <polyline class="cls-1" points="19.58 4.31 19.58 .11 19.58 .08 19.55 .08 19.55 .05 19.52 .05 3.26 .05 3.23 .05 3.23 .08 3.23 .11 3.2 .11 3.2 4.25 3.2 4.28 3.2 4.31 3.17 4.31 1.46 4.31 1.43 4.31 1.43 4.34 1.43 4.37 1.43 4.43 1.43 4.46 1.43 4.49 1.46 4.49 2.3 4.49 2.33 4.49 2.33 4.52 2.33 4.55 2.33 4.85 2.33 4.88 2.3 4.91 .62 4.91 .59 4.91 .26 4.91 .08 4.91 .05 4.91 .05 4.94 .05 5.03 .05 5.06 .08 5.09 2.33 5.09 2.48 5.09 2.51 5.06 2.51 5.03 2.51 4.55 2.51 4.52 2.54 4.52 2.54 4.49 2.57 4.49 3.35 4.49 3.38 4.49 3.38 4.46 3.38 4.43 3.38 .29 3.41 .26 3.41 .23 3.44 .23 10.43 .23 10.46 .23 10.46 .26 10.49 .26 10.49 .29 10.49 4.73 10.49 4.76 10.46 4.76 10.46 4.79 10.43 4.79 10.22 4.79 10.19 4.79 10.16 4.79 10.16 4.82 10.16 5.03 10.16 5.06 10.19 5.06 10.19 5.09 10.22 5.09 10.88 5.09 10.91 5.09 10.91 5.06 10.94 5.06 10.94 5.03 10.94 4.82 10.91 4.79 10.88 4.79 10.7 4.79 10.7 4.76 10.67 4.76 10.67 4.73 10.67 .29 10.67 .26 10.7 .26 10.7 .23 19.34 .23 19.37 .23 19.37 .26 19.4 .26 19.4 .29 19.4 4.64 19.4 4.67 19.43 4.67 19.46 4.67 20.27 4.67 20.27 4.76 20.27 4.79 20.3 4.79 20.3 4.82 20.3 4.85 20.33 4.85 20.33 4.88 20.36 4.88 20.39 4.88"/>
      <polyline class="cls-1" points="37.79 4.31 37.79 .11 37.79 .08 37.76 .08 37.76 .05 21.47 .05 21.44 .08 21.44 .11 21.44 4.25 21.44 4.28 21.41 4.28 21.41 4.31 21.38 4.31 19.7 4.31 19.67 4.31 19.64 4.34 19.64 4.37 19.64 4.43 19.64 4.46 19.67 4.49 19.7 4.49 20.51 4.49 20.54 4.49 20.54 4.52 20.57 4.52 20.57 4.55 20.57 4.85 20.57 4.88 20.54 4.88 20.54 4.91 20.51 4.91 18.86 4.91 18.83 4.91 18.8 4.91 18.47 4.91 18.32 4.91 18.29 4.91 18.26 4.91 18.26 4.94 18.26 5.03 18.26 5.06 18.29 5.06 18.29 5.09 18.32 5.09 20.57 5.09 20.69 5.09 20.72 5.09 20.72 5.06 20.75 5.06 20.75 5.03 20.75 4.55 20.75 4.52 20.75 4.49 20.78 4.49 21.56 4.49 21.59 4.49 21.59 4.46 21.62 4.46 21.62 4.43 21.62 .29 21.62 .26 21.65 .23 28.67 .23 28.67 .26 28.7 .26 28.7 .29 28.7 4.73 28.7 4.76 28.67 4.79 28.43 4.79 28.4 4.79 28.4 4.82 28.37 4.82 28.37 5.03 28.37 5.06 28.4 5.06 28.4 5.09 28.43 5.09 29.12 5.09 29.12 5.06 29.15 5.06 29.15 5.03 29.15 4.82 29.15 4.79 29.12 4.79 28.94 4.79 28.91 4.79 28.91 4.76 28.88 4.76 28.88 4.73 28.88 .29 28.88 .26 28.91 .26 28.91 .23 28.94 .23 37.58 .23 37.61 .26 37.61 .29 37.61 4.64 37.64 4.67 37.67 4.67 38.51 4.67 38.51 4.76 38.51 4.79 38.51 4.82 38.54 4.85 38.57 4.88 38.6 4.88 38.63 4.88"/>
    </g>
  </g>
</svg>