<?xml version="1.0" encoding="UTF-8" standalone="no"?>
<svg
   id="Capa_2"
   data-name="Capa 2"
   viewBox="0 0 20.56 5.14"
   version="1.1"
   sodipodi:docname="matriz2_i.svg"
   inkscape:version="1.3.2 (091e20e, 2023-11-25, custom)"
   xmlns:inkscape="http://www.inkscape.org/namespaces/inkscape"
   xmlns:sodipodi="http://sodipodi.sourceforge.net/DTD/sodipodi-0.dtd"
   xmlns="http://www.w3.org/2000/svg"
   xmlns:svg="http://www.w3.org/2000/svg">
  <sodipodi:namedview
     id="namedview2"
     pagecolor="#ffffff"
     bordercolor="#000000"
     borderopacity="0.25"
     inkscape:showpageshadow="2"
     inkscape:pageopacity="0.0"
     inkscape:pagecheckerboard="0"
     inkscape:deskcolor="#d1d1d1"
     showgrid="false"
     inkscape:zoom="99.659536"
     inkscape:cx="10.28"
     inkscape:cy="2.5737627"
     inkscape:window-width="2560"
     inkscape:window-height="1369"
     inkscape:window-x="-8"
     inkscape:window-y="-8"
     inkscape:window-maximized="1"
     inkscape:current-layer="g2" />
  <defs
     id="defs1">
    <style
       id="style1">
      .cls-1 {
        fill: none;
        stroke: #000;
        stroke-linecap: round;
        stroke-linejoin: round;
        stroke-width: .1px;
      }
    </style>
  </defs>
  <g
     id="Capa_1-2"
     data-name="Capa 1">
    <g
       id="g2">
      <polyline
         class="cls-1"
         points="19.58 4.31 19.58 4.46 19.58 4.49 19.61 4.49 19.61 4.52 19.64 4.52 20.48 4.52 20.51 4.52 20.51 4.55 20.51 4.76 20.51 4.79 20.51 4.82 20.48 4.85 20.45 4.88 20.42 4.88 20.39 4.88"
         id="polyline1"
         style="stroke-width:0.05;stroke-dasharray:none" />
      <polyline
         class="cls-1"
         points="19.58 4.31 19.58 .11 19.58 .08 19.55 .08 19.55 .05 19.52 .05 12.32 .05 12.32 .08 12.29 .08 12.29 .11 12.29 4.28 12.26 4.28 12.26 4.31 12.23 4.31 10.52 4.31 10.49 4.31 10.46 4.31 10.46 4.28 10.46 .11 10.46 .08 10.43 .08 10.43 .05 10.4 .05 3.26 .05 3.26 .08 3.23 .08 3.2 .11 3.2 4.28 3.2 4.31 3.17 4.31 1.46 4.31 1.43 4.31 1.43 4.34 1.43 4.37 1.43 4.43 1.43 4.46 1.43 4.49 1.46 4.49 2.3 4.49 2.33 4.49 2.33 4.52 2.33 4.55 2.33 4.85 2.33 4.88 2.33 4.91 2.3 4.91 .62 4.91 .59 4.91 .26 4.91 .08 4.91 .05 4.91 .05 4.94 .05 5.03 .05 5.06 .08 5.09 2.33 5.09 2.48 5.09 2.51 5.06 2.51 5.03 2.51 4.55 2.51 4.52 2.54 4.52 2.54 4.49 2.57 4.49 3.35 4.49 3.38 4.49 3.38 4.46 3.38 4.43 3.38 .29 3.41 .26 3.41 .23 3.44 .23 10.22 .23 10.25 .23 10.25 .26 10.28 .26 10.28 .29 10.28 4.43 10.28 4.46 10.28 4.49 10.31 4.49 10.34 4.49 11.27 4.49 11.3 4.49 11.3 4.52 11.3 4.55 11.3 4.73 11.3 4.76 11.3 4.79 11.27 4.79 11.03 4.79 11 4.79 11 4.82 10.97 4.82 10.97 5.03 10.97 5.06 11 5.06 11 5.09 11.03 5.09 11.72 5.09 11.72 5.06 11.75 5.06 11.75 5.03 11.75 4.82 11.75 4.79 11.72 4.79 11.54 4.79 11.51 4.79 11.51 4.76 11.48 4.76 11.48 4.73 11.48 4.55 11.48 4.52 11.51 4.52 11.51 4.49 11.54 4.49 12.41 4.49 12.44 4.49 12.44 4.46 12.44 4.43 12.44 .29 12.47 .29 12.47 .26 12.47 .23 12.5 .23 19.34 .23 19.37 .23 19.37 .26 19.4 .26 19.4 .29 19.4 4.64 19.4 4.67 19.43 4.67 19.46 4.67 20.27 4.67 20.27 4.76 20.27 4.79 20.3 4.82 20.3 4.85 20.33 4.85 20.33 4.88 20.36 4.88 20.39 4.88"
         id="polyline2"
         style="stroke-width:0.05;stroke-dasharray:none" />
    </g>
  </g>
</svg>
