<?xml version="1.0" encoding="UTF-8"?>
<svg id="Capa_2" data-name="Capa 2" xmlns="http://www.w3.org/2000/svg" viewBox="0 0 44.12 3.87">
  <defs>
    <style>
      .cls-1 {
        fill: none;
        stroke: #000;
        stroke-linecap: round;
        stroke-linejoin: round;
        stroke-width: .1px;
      }
    </style>
  </defs>
  <g id="_0" data-name="0">
    <g>
      <g id="LWPOLYLINE">
        <path class="cls-1" d="m34.5.57l-1.6,1.84c-.09.1-.22.16-.36.16h-10c-.06,0-.1.04-.1.1v.41c0,.06.04.1.1.1h.36c.06,0,.1.04.1.1v.43c0,.06-.04.1-.1.1h-1.43c-.06,0-.1-.04-.1-.1v-.43c0-.06.04-.1.1-.1h.49c.06,0,.1-.04.1-.1v-.41c0-.06-.04-.1-.1-.1H5.69"/>
      </g>
      <g id="LWPOLYLINE-2" data-name="LWPOLYLINE">
        <path class="cls-1" d="m5.69,2.58h-.31c-.06,0-.1.04-.1.1v1.04c0,.06-.04.1-.1.1H.15c-.06,0-.1-.04-.1-.1v-.18c0-.06.04-.1.1-.1h1.05l.05.03.05-.03h3.51c.06,0,.1-.04.1-.1v-.66c0-.06-.04-.1-.1-.1h-1.74c-.06,0-.1-.04-.1-.1v-.18c0-.06.04-.1.1-.1h2.62"/>
      </g>
      <g id="LWPOLYLINE-3" data-name="LWPOLYLINE">
        <path class="cls-1" d="m5.68,2.2h26.86s.06-.01.08-.03l1.81-2.08"/>
      </g>
      <g id="LWPOLYLINE-4" data-name="LWPOLYLINE">
        <path class="cls-1" d="m34.58.08l1.81,2.08s.05.03.08.03h.88s.06-.01.08-.03l1.81-2.08s0,0,0,0c.04-.04.11-.03.14,0l1.81,2.09s.02.04.02.07v.29c0,.06.04.1.1.1h1.78c.06,0,.1.04.1.1v.43c0,.14-.11.25-.25.25h0c-.14,0-.25-.11-.25-.25v-.18h-1.73c-.06,0-.1-.04-.1-.1v-.33c0-.11-.04-.23-.12-.31l-1.45-1.67"/>
      </g>
      <g id="LWPOLYLINE-5" data-name="LWPOLYLINE">
        <line class="cls-1" x1="41.21" y1="2.35" x2="41.21" y2="2.47"/>
      </g>
      <g id="ARC">
        <path class="cls-1" d="m34.58.08s-.1-.05-.14,0c0,0,0,0,0,0"/>
      </g>
      <g id="LINE">
        <line class="cls-1" x1="34.5" y1=".57" x2="36.1" y2="2.41"/>
      </g>
      <g id="LINE-2" data-name="LINE">
        <line class="cls-1" x1="37.7" y1="2.41" x2="39.3" y2=".57"/>
      </g>
      <g id="ARC-2" data-name="ARC">
        <path class="cls-1" d="m37.34,2.58c.14,0,.27-.06.36-.16"/>
      </g>
      <g id="LINE-3" data-name="LINE">
        <line class="cls-1" x1="36.46" y1="2.58" x2="37.34" y2="2.58"/>
      </g>
      <g id="ARC-3" data-name="ARC">
        <path class="cls-1" d="m36.1,2.41c.09.1.22.16.36.16"/>
      </g>
      <g id="LWPOLYLINE-6" data-name="LWPOLYLINE">
        <path class="cls-1" d="m44.07,2.58h-.31c-.06,0-.1.04-.1.1v1.04c0,.06-.04.1-.1.1h-5.03c-.06,0-.1-.04-.1-.1v-.18c0-.06.04-.1.1-.1h1.05l.05.03.05-.03h3.51c.06,0,.1-.04.1-.1v-.66c0-.06-.04-.1-.1-.1h-1.74c-.06,0-.1-.04-.1-.1v-.18c0-.06.04-.1.1-.1h2.62"/>
      </g>
    </g>
  </g>
</svg>