<?xml version="1.0" encoding="UTF-8"?>
<svg id="Capa_2" data-name="Capa 2" xmlns="http://www.w3.org/2000/svg" viewBox="0 0 21.29 3.86">
  <defs>
    <style>
      .cls-1 {
        fill: none;
        stroke: #000;
        stroke-miterlimit: 10;
        stroke-width: .05px;
      }
    </style>
  </defs>
  <g id="Capa_1-2" data-name="Capa 1">
    <g>
      <line class="cls-1" x1="17.04" y1="3.08" x2="17.54" y2="3.08"/>
      <polyline class="cls-1" points="19.79 3.27 20.45 3.27 20.45 3.3 20.48 3.3 20.48 3.33 20.48 3.53 20.48 3.56 20.48 3.59 20.45 3.59 20.45 3.63 20.42 3.63 20.42 3.66 20.39 3.66 20.36 3.66"/>
      <polyline class="cls-1" points="19.79 3.44 20.25 3.44 20.25 3.53 20.28 3.56 20.28 3.59 20.3 3.63 20.33 3.66 20.36 3.66"/>
      <polyline class="cls-1" points="5.48 1.74 4.17 1.74 4.14 1.74 4.14 1.77 3.42 3 3.39 3.08 3.36 3.08 3.36 3.11 3.36 3.2 3.36 3.24 3.32 3.27 2.54 3.27 2.51 3.27 2.48 3.3 2.48 3.8 2.48 3.83 2.45 3.83 2.3 3.83 .05 3.83 .03 3.83 .03 3.8 .03 3.72 .03 3.69 .05 3.66 .23 3.66 .57 3.66 .57 3.69 .6 3.66 2.28 3.66 2.3 3.66 2.3 3.63 2.3 3.3 2.3 3.27 2.28 3.27 1.44 3.27 1.41 3.24 1.41 3.2 1.41 3.11 1.41 3.08 1.44 3.08 3 3.08 3.14 3.08 3.17 3.05 4.01 1.58 4.04 1.58 4.04 1.55 4.07 1.55 5.79 1.55 5.82 1.55 5.82 1.58 5.85 1.58 5.85 1.61 5.04 3 5.04 3.03 5.04 3.05 5.07 3.05 5.07 3.08 5.1 3.08 5.28 3.08"/>
      <polyline class="cls-1" points="5.28 3.27 4.79 3.27 4.76 3.24 4.76 3.2 4.76 3.14"/>
      <line class="cls-1" x1="4.76" y1="3.11" x2="5.51" y2="1.8"/>
      <path class="cls-1" d="m5.51,1.8s0-.03,0-.04c0-.01-.02-.02-.04-.02"/>
      <path class="cls-1" d="m4.74,3.11s0,.01,0,.02"/>
      <polyline class="cls-1" points="20.91 .2 19.58 .2 19.58 .24 19.55 .24 17.91 3.08 17.91 3.11 17.91 3.2 17.91 3.24 17.88 3.24 17.88 3.27 17.04 3.27"/>
      <polyline class="cls-1" points="17.54 3.08 17.7 3.08 17.7 3.05 17.73 3.05 19.47 .05 19.5 .05 19.5 .03 21.2 .03 21.23 .05 21.26 .05 21.26 .08 21.26 .11 19.64 2.94 19.47 3.2 19.47 3.24 19.47 3.27 19.5 3.27 19.53 3.27 19.79 3.27"/>
      <polyline class="cls-1" points="19.79 3.44 19.23 3.44 19.2 3.44 19.2 3.41 19.2 3.39 19.2 3.36"/>
      <polyline class="cls-1" points="19.2 3.33 19.44 2.94 20.94 .3"/>
      <path class="cls-1" d="m19.17,3.32s0,.01,0,.02"/>
      <polyline class="cls-1" points="9.03 3.08 10.41 3.08 10.44 3.08 10.44 3.05 11.3 1.58 11.3 1.55 11.33 1.55 13.04 1.55 13.07 1.55 13.1 1.58 13.1 1.61 12.29 3 12.29 3.03 12.29 3.05 12.32 3.05 12.32 3.08 12.35 3.08 13.82 3.08"/>
      <polyline class="cls-1" points="13.82 3.27 12.05 3.27 12.05 3.24 12.03 3.24 12.03 3.2 12.03 3.14 12.03 3.11"/>
      <polyline class="cls-1" points="12.03 3.11 12.8 1.8 12.8 1.77 12.78 1.77 12.78 1.74 12.75 1.74 11.42 1.74 11.39 1.74 11.39 1.77 10.64 3.05 10.64 3.08 10.64 3.5 10.64 3.53 10.67 3.53 10.86 3.53 10.89 3.53 10.89 3.56 10.92 3.56 10.92 3.59 10.92 3.8 10.89 3.8 10.89 3.83 10.86 3.83 10.2 3.83 10.17 3.83 10.14 3.83 10.14 3.8 10.14 3.59 10.14 3.56 10.17 3.56 10.17 3.53 10.2 3.53 10.41 3.53 10.44 3.53 10.47 3.53 10.47 3.5 10.47 3.3 10.47 3.27 10.44 3.27 10.41 3.27 9.03 3.27"/>
      <line class="cls-1" x1="8.91" y1="3.08" x2="9.03" y2="3.08"/>
      <polyline class="cls-1" points="8.64 .24 7.04 3 7.01 3.08 7.01 3.11 7.01 3.2 6.98 3.24 6.98 3.27 6.95 3.27 5.28 3.27"/>
      <polyline class="cls-1" points="5.28 3.08 6.63 3.08 6.78 3.08 6.8 3.08 6.8 3.05 8.54 .05"/>
      <polyline class="cls-1" points="10.35 .11 8.67 3 8.67 3.03 8.67 3.05 8.7 3.05 8.7 3.08 8.73 3.08 8.91 3.08"/>
      <polyline class="cls-1" points="8.91 3.27 8.45 3.27 8.42 3.27 8.42 3.24 8.39 3.24 8.39 3.2 8.39 3.14"/>
      <path class="cls-1" d="m8.56.03s-.03,0-.04.02"/>
      <path class="cls-1" d="m10.34.09s0-.03,0-.04c0-.01-.02-.02-.04-.02"/>
      <line class="cls-1" x1="8.39" y1="3.11" x2="10.04" y2=".3"/>
      <path class="cls-1" d="m10.01.27s0-.03,0-.04c0-.01-.02-.02-.04-.02"/>
      <line class="cls-1" x1="8.57" y1=".03" x2="10.32" y2=".03"/>
      <line class="cls-1" x1="8.7" y1=".2" x2="9.98" y2=".2"/>
      <path class="cls-1" d="m8.68.2s-.03,0-.04.02"/>
      <path class="cls-1" d="m8.4,3.11s0,.01,0,.02"/>
      <line class="cls-1" x1="9.03" y1="3.27" x2="8.91" y2="3.27"/>
      <line class="cls-1" x1="16.2" y1="3.08" x2="17.04" y2="3.08"/>
      <polyline class="cls-1" points="16.41 1.74 15.08 1.74 15.05 1.74 15.05 1.77 14.33 3 14.28 3.08 14.28 3.11 14.28 3.2 14.28 3.24 14.25 3.24 14.25 3.27 14.22 3.27 13.82 3.27"/>
      <polyline class="cls-1" points="13.82 3.08 13.89 3.08 14.04 3.08 14.07 3.08 14.07 3.05 14.1 3.05 14.94 1.58 14.94 1.55 14.97 1.55 15 1.55 16.7 1.55 16.73 1.55 16.73 1.58 16.76 1.61 16.73 1.61 15.95 3 15.95 3.03 15.95 3.05 15.98 3.08 16.2 3.08"/>
      <polyline class="cls-1" points="16.2 3.27 15.72 3.27 15.69 3.27 15.69 3.24 15.66 3.24 15.66 3.2 15.66 3.14"/>
      <line class="cls-1" x1="15.69" y1="3.11" x2="16.44" y2="1.8"/>
      <path class="cls-1" d="m16.43,1.8s0-.03,0-.04c0-.01-.02-.02-.04-.02"/>
      <path class="cls-1" d="m15.66,3.11s0,.01,0,.02"/>
      <line class="cls-1" x1="17.04" y1="3.27" x2="16.2" y2="3.27"/>
      <path class="cls-1" d="m20.93.27s0-.03,0-.04c0-.01-.02-.02-.04-.02"/>
    </g>
  </g>
</svg>