<?xml version="1.0" encoding="UTF-8"?>
<svg id="Capa_2" data-name="Capa 2" xmlns="http://www.w3.org/2000/svg" viewBox="0 0 38.75 3.86">
  <defs>
    <style>
      .cls-1 {
        fill: none;
        stroke: #000;
        stroke-linecap: round;
        stroke-linejoin: round;
        stroke-width: .05px;
      }
    </style>
  </defs>
  <g id="Capa_1-2" data-name="Capa 1">
    <g>
      <polyline class="cls-1" points="14.22 3.05 19.5 3.05 19.53 3.05 19.53 3.08 19.55 3.08 19.55 3.11 19.55 3.23 19.55 3.26 19.58 3.26 20.45 3.26 20.48 3.29 20.48 3.33 20.48 3.51 20.48 3.54 20.48 3.57 20.45 3.6 20.42 3.63 20.39 3.63 20.36 3.63"/>
      <polyline class="cls-1" points="10.47 .23 12.2 3.23 12.23 3.23 19.32 3.23 19.35 3.23 19.35 3.26 19.38 3.26 19.38 3.29 19.38 3.39 19.38 3.42 19.41 3.42 19.41 3.45 19.44 3.45 20.25 3.45 20.25 3.51 20.25 3.54 20.28 3.57 20.28 3.6 20.3 3.6 20.3 3.63 20.33 3.63 20.36 3.63"/>
      <polyline class="cls-1" points="14.22 3.05 12.35 3.05 12.32 3.05 12.29 3.05 10.58 .05"/>
      <polyline class="cls-1" points="8.79 .11 10.44 3 10.47 3.03 10.44 3.03 10.44 3.05 10.41 3.05 3 3.05 1.44 3.05 1.41 3.08 1.41 3.11 1.41 3.2 1.41 3.23 1.44 3.23 2.28 3.23 2.3 3.26 2.3 3.29 2.3 3.6 2.3 3.63 2.3 3.66 2.28 3.66 .6 3.66 .57 3.69 .57 3.66 .23 3.66 .05 3.66 .03 3.66 .03 3.69 .03 3.72 .03 3.77 .03 3.8 .03 3.83 .05 3.83 2.3 3.83 2.45 3.83 2.48 3.83 2.48 3.8 2.48 3.78 2.48 3.29 2.48 3.26 2.51 3.26 2.51 3.23 2.54 3.23 3 3.23 10.41 3.23 10.44 3.23 10.44 3.26 10.47 3.26 10.47 3.29 10.47 3.48 10.47 3.51 10.44 3.54 10.41 3.54 10.2 3.54 10.17 3.54 10.14 3.54 10.14 3.57 10.14 3.6 10.14 3.78 10.14 3.8 10.14 3.83 10.17 3.83 10.2 3.83 10.86 3.83 10.89 3.83 10.89 3.8 10.92 3.8 10.92 3.78 10.92 3.6 10.92 3.57 10.89 3.57 10.89 3.54 10.86 3.54 10.67 3.54 10.64 3.54 10.64 3.51 10.64 3.48 10.64 3 10.64 2.97 9.08 .26"/>
      <path class="cls-1" d="m10.55.05s-.02-.02-.04-.02"/>
      <path class="cls-1" d="m8.8.03s-.03,0-.04.02c0,.01,0,.03,0,.05"/>
      <path class="cls-1" d="m9.1.2s-.03,0-.04.02c0,.01,0,.03,0,.04"/>
      <line class="cls-1" x1="10.53" y1=".03" x2="8.82" y2=".03"/>
      <line class="cls-1" x1="10.44" y1=".2" x2="9.11" y2=".2"/>
      <path class="cls-1" d="m10.46.23s-.02-.02-.04-.02"/>
      <polyline class="cls-1" points="32.42 3.05 37.73 3.05 37.73 3.08 37.76 3.08 37.76 3.11 37.76 3.23 37.79 3.26 37.82 3.26 38.67 3.26 38.7 3.26 38.7 3.29 38.73 3.33 38.73 3.51 38.7 3.54 38.7 3.57 38.7 3.6 38.67 3.6 38.67 3.63 38.64 3.63 38.6 3.63"/>
      <polyline class="cls-1" points="28.7 .23 30.42 3.23 30.45 3.23 30.48 3.23 37.55 3.23 37.58 3.26 37.58 3.29 37.58 3.39 37.58 3.42 37.61 3.42 37.61 3.45 37.64 3.45 38.48 3.45 38.48 3.51 38.48 3.54 38.48 3.57 38.51 3.6 38.54 3.63 38.57 3.63 38.6 3.63"/>
      <polyline class="cls-1" points="32.42 3.05 30.57 3.05 30.54 3.05 28.79 .05"/>
      <polyline class="cls-1" points="27 .11 28.67 3 28.67 3.03 28.67 3.05 28.64 3.05 28.61 3.05 21.23 3.05 19.67 3.05 19.64 3.05 19.64 3.08 19.61 3.08 19.61 3.11 19.61 3.2 19.61 3.23 19.64 3.23 19.67 3.23 20.48 3.23 20.51 3.23 20.51 3.26 20.54 3.26 20.54 3.29 20.54 3.6 20.54 3.63 20.51 3.63 20.51 3.66 20.48 3.66 18.83 3.66 18.8 3.69 18.78 3.66 18.45 3.66 18.26 3.66 18.23 3.66 18.23 3.69 18.23 3.72 18.23 3.78 18.23 3.8 18.23 3.83 18.26 3.83 20.54 3.83 20.67 3.83 20.7 3.83 20.7 3.8 20.73 3.8 20.73 3.78 20.73 3.29 20.73 3.26 20.76 3.23 21.23 3.23 28.64 3.23 28.64 3.26 28.67 3.26 28.67 3.29 28.67 3.48 28.67 3.51 28.67 3.54 28.64 3.54 28.41 3.54 28.38 3.54 28.38 3.57 28.35 3.57 28.35 3.6 28.35 3.78 28.35 3.8 28.38 3.8 28.38 3.83 28.41 3.83 29.07 3.83 29.1 3.83 29.13 3.8 29.13 3.78 29.13 3.6 29.13 3.57 29.1 3.54 29.07 3.54 28.92 3.54 28.89 3.54 28.85 3.51 28.85 3.48 28.85 3 28.85 2.97 27.29 .26"/>
      <path class="cls-1" d="m28.79.05s-.02-.02-.04-.02"/>
      <path class="cls-1" d="m27.01.03s-.03,0-.04.02c0,.01,0,.03,0,.05"/>
      <path class="cls-1" d="m27.34.2s-.03,0-.04.02c0,.01,0,.03,0,.04"/>
      <line class="cls-1" x1="28.76" y1=".03" x2="27.03" y2=".03"/>
      <line class="cls-1" x1="28.64" y1=".2" x2="27.35" y2=".2"/>
      <path class="cls-1" d="m28.67.23s-.02-.02-.04-.02"/>
    </g>
  </g>
</svg>