<?xml version="1.0" encoding="UTF-8"?>
<svg id="Capa_2" data-name="Capa 2" xmlns="http://www.w3.org/2000/svg" viewBox="0 0 38.75 1.67">
  <defs>
    <style>
      .cls-1 {
        fill: none;
        stroke: #000;
        stroke-linecap: round;
        stroke-linejoin: round;
        stroke-width: .05px;
      }
    </style>
  </defs>
  <g id="Capa_1-2" data-name="Capa 1">
    <g>
      <polyline class="cls-1" points="19.5 .86 19.5 .86 19.53 .86 19.55 .86 19.55 .89 19.55 .92 19.55 1.02 19.55 1.05 19.58 1.05 19.58 1.08 19.61 1.08 20.45 1.08 20.48 1.08 20.48 1.11 20.48 1.32 20.48 1.35 20.48 1.38 20.45 1.41 20.42 1.41 20.42 1.44 20.39 1.44 20.36 1.44"/>
      <polyline class="cls-1" points="10.91 .86 10.91 .98 10.91 1.02 10.94 1.02 10.94 1.05 10.97 1.05 19.34 1.05 19.37 1.05 19.37 1.08 19.37 1.2 19.37 1.23 19.41 1.23 19.44 1.23 20.25 1.23 20.25 1.32 20.28 1.35 20.28 1.38 20.28 1.41 20.3 1.41 20.33 1.44 20.36 1.44"/>
      <polyline class="cls-1" points="9.92 1.05 9.89 1.05 9.86 1.05 9.83 1.05 9.83 1.08 9.83 1.29 9.83 1.32 9.86 1.32 9.86 1.35 9.89 1.35 10.04 1.35 10.07 1.35 10.1 1.35 10.1 1.38 10.1 1.59 10.1 1.61 10.07 1.61 10.04 1.64 9.38 1.64 9.35 1.61 9.32 1.61 9.32 1.59 9.32 1.38 9.32 1.35 9.35 1.35 9.38 1.35 9.59 1.35 9.62 1.35 9.62 1.32 9.66 1.32 9.66 1.29 9.66 1.08 9.66 1.05 9.62 1.05 9.59 1.05 3.03 1.05 2.54 1.05 2.51 1.05 2.51 1.08 2.48 1.08 2.48 1.59 2.48 1.61 2.45 1.61 2.45 1.64 2.33 1.64 .05 1.64 .05 1.61 .03 1.61 .03 1.59 .03 1.5 .03 1.47 .05 1.47 .23 1.47 .56 1.47 .59 1.47 2.28 1.47 2.28 1.44 2.3 1.44 2.33 1.41 2.33 1.08 2.3 1.08 2.3 1.05 2.28 1.05 1.44 1.05 1.41 1.05 1.41 1.02 1.41 .98 1.41 .92 1.41 .89 1.41 .86 1.44 .86 9.92 .86"/>
      <line class="cls-1" x1="11.3" y1=".86" x2="19.5" y2=".86"/>
      <path class="cls-1" d="m11.28.84c.14-.16.16-.38.05-.57-.1-.18-.31-.28-.51-.24-.21.04-.37.2-.4.4"/>
      <path class="cls-1" d="m10.91.83c.17,0,.3-.14.31-.3,0-.17-.12-.31-.28-.33-.16-.02-.32.09-.34.26"/>
      <path class="cls-1" d="m9.91.84c.24,0,.45-.17.49-.41"/>
      <path class="cls-1" d="m9.91,1.02c.33,0,.61-.23.66-.56"/>
      <polyline class="cls-1" points="37.73 .86 37.73 .86 37.76 .86 37.76 .89 37.76 .92 37.76 1.02 37.76 1.05 37.79 1.05 37.79 1.08 37.82 1.08 38.66 1.08 38.69 1.08 38.72 1.11 38.72 1.32 38.72 1.35 38.69 1.35 38.69 1.38 38.69 1.41 38.66 1.41 38.63 1.44 38.6 1.44"/>
      <polyline class="cls-1" points="29.16 .86 29.16 .98 29.16 1.02 29.16 1.05 29.19 1.05 37.55 1.05 37.58 1.05 37.58 1.08 37.58 1.2 37.61 1.2 37.61 1.23 37.64 1.23 38.48 1.23 38.48 1.32 38.48 1.35 38.48 1.38 38.51 1.41 38.54 1.41 38.54 1.44 38.57 1.44 38.6 1.44"/>
      <polyline class="cls-1" points="28.13 1.05 28.1 1.05 28.07 1.05 28.07 1.08 28.04 1.08 28.04 1.29 28.04 1.32 28.07 1.32 28.1 1.35 28.28 1.35 28.31 1.35 28.31 1.38 28.31 1.59 28.31 1.61 28.28 1.61 28.28 1.64 27.59 1.64 27.59 1.61 27.56 1.61 27.56 1.59 27.53 1.59 27.53 1.38 27.56 1.38 27.56 1.35 27.59 1.35 27.83 1.35 27.83 1.32 27.86 1.32 27.86 1.29 27.86 1.08 27.86 1.05 27.83 1.05 21.23 1.05 20.75 1.05 20.72 1.05 20.72 1.08 20.72 1.59 20.72 1.61 20.69 1.61 20.66 1.61 20.66 1.64 20.54 1.64 18.29 1.64 18.26 1.61 18.23 1.61 18.23 1.59 18.23 1.5 18.23 1.47 18.26 1.47 18.29 1.47 18.44 1.47 18.78 1.47 18.8 1.47 18.83 1.47 20.48 1.47 20.51 1.47 20.51 1.44 20.54 1.44 20.54 1.41 20.54 1.08 20.51 1.05 20.48 1.05 19.67 1.05 19.64 1.05 19.64 1.02 19.61 1.02 19.61 .98 19.61 .92 19.61 .89 19.64 .86 19.67 .86 28.13 .86"/>
      <line class="cls-1" x1="29.51" y1=".86" x2="37.73" y2=".86"/>
      <path class="cls-1" d="m29.49.84c.14-.16.16-.38.05-.57-.1-.18-.31-.28-.51-.24-.21.04-.37.2-.4.4"/>
      <path class="cls-1" d="m29.12.83c.17,0,.3-.14.31-.3s-.12-.31-.28-.33c-.16-.02-.32.09-.34.26"/>
      <path class="cls-1" d="m28.12.84c.24,0,.45-.17.49-.41"/>
      <path class="cls-1" d="m28.12,1.02c.33,0,.61-.23.66-.56"/>
    </g>
  </g>
</svg>