<!DOCTYPE svg PUBLIC "-//W3C//DTD SVG 1.1//EN" "http://www.w3.org/Graphics/SVG/1.1/DTD/svg11.dtd">
<!-- Uploaded to: SVG Repo, www.svgrepo.com, Transformed by: SVG Repo Mixer Tools -->
<svg width="64px" height="64px" viewBox="0 0 24 24" id="Layer_1" data-name="Layer 1" xmlns="http://www.w3.org/2000/svg" fill="#000000">
<g id="SVGRepo_bgCarrier" stroke-width="0"/>
<g id="SVGRepo_tracerCarrier" stroke-linecap="round" stroke-linejoin="round"/>
<g id="SVGRepo_iconCarrier">
<defs>
<style>.cls-1{fill:none;stroke:#020202;stroke-miterlimit:10;stroke-width:1.32;}</style>
</defs>
<path class="cls-1" d="M13,22.5,7.82,17.36a2,2,0,0,1-.59-1.43,2,2,0,0,1,2-2,2,2,0,0,1,1.43.59L12,15.82V6.38a2,2,0,0,1,1.74-2,1.87,1.87,0,0,1,1.51.56,1.83,1.83,0,0,1,.57,1.34V12l5,.72a1.91,1.91,0,0,1,1.64,1.89h0a17.18,17.18,0,0,1-1.82,7.71l-.09.18"/>
<path class="cls-1" d="M7.23,9.14H5.32A3.82,3.82,0,1,1,9.14,5.32"/>
<polyline class="cls-1" points="5.32 6.27 8.18 9.14 5.32 12"/>
</g>
</svg>