<?xml version="1.0" encoding="utf-8"?>
<!-- Generator: Adobe Illustrator 28.0.0, SVG Export Plug-In . SVG Version: 6.00 Build 0)  -->
<svg version="1.1" id="Capa_1" xmlns="http://www.w3.org/2000/svg" xmlns:xlink="http://www.w3.org/1999/xlink" x="0px" y="0px"
	 viewBox="0 0 800 800" style="enable-background:new 0 0 800 800;" xml:space="preserve">
<style type="text/css">
	.st0{fill:none;stroke:#000000;stroke-width:33.3333;stroke-linecap:round;stroke-miterlimit:133.3333;}
	.st1{enable-background:new    ;}
</style>
<g id="SVGRepo_bgCarrier">
</g>
<g id="SVGRepo_tracerCarrier">
</g>
<g id="SVGRepo_iconCarrier">
	<polyline class="st0" points="666.7,433.3 666.7,733.3 66.7,733.3 66.7,133.3 366.7,133.3 	"/>
	<polyline class="st0" points="533.3,66.7 733.3,66.7 733.3,266.7 	"/>
	<line class="st0" x1="400" y1="400" x2="720" y2="80"/>
</g>
<g class="st1">
	<path d="M163.1,664.2c-13.8-7.7-24.7-18.4-32.8-32.1c-8.1-13.8-12.1-29.2-12.1-46.4c0-17.2,4-32.6,12.1-46.2
		c8.1-13.7,19-24.3,32.8-32c13.8-7.7,28.9-11.5,45.4-11.5s31.6,3.8,45.4,11.5c13.8,7.7,24.6,18.3,32.5,32
		c7.9,13.7,11.9,29.1,11.9,46.2c0,17.2-4,32.6-12,46.4s-18.8,24.5-32.5,32.1c-13.7,7.7-28.8,11.5-45.2,11.5S176.9,671.9,163.1,664.2
		z M242.1,622.8c8.4-9.3,12.6-21.7,12.6-37c0-15.5-4.2-27.9-12.6-37.1c-8.4-9.2-19.6-13.9-33.6-13.9c-14.2,0-25.5,4.6-33.9,13.8
		c-8.4,9.2-12.6,21.6-12.6,37.2c0,15.5,4.2,27.9,12.6,37.1c8.4,9.2,19.7,13.9,33.9,13.9C222.5,636.8,233.7,632.1,242.1,622.8z"/>
	<path d="M364,498.5v105c0,10.5,2.6,18.6,7.8,24.2c5.2,5.7,12.8,8.5,22.8,8.5s17.7-2.8,23-8.5c5.3-5.7,8-13.8,8-24.2v-105h42.8
		v104.8c0,15.7-3.3,28.9-10,39.8c-6.7,10.8-15.6,19-26.9,24.5s-23.8,8.2-37.6,8.2c-13.8,0-26.2-2.7-37.1-8.1
		c-10.9-5.4-19.5-13.6-25.9-24.5c-6.3-10.9-9.5-24.2-9.5-39.9V498.5H364z"/>
	<path d="M624.5,498.5v34.2H578V674h-42.8V532.8h-46.5v-34.2H624.5z"/>
</g>
</svg>
