<?xml version="1.0" encoding="utf-8"?>
<!-- Generator: Adobe Illustrator 27.1.0, SVG Export Plug-In . SVG Version: 6.00 Build 0)  -->
<svg version="1.1" id="Capa_1" xmlns="http://www.w3.org/2000/svg" xmlns:xlink="http://www.w3.org/1999/xlink" x="0px" y="0px"
	 viewBox="0 0 24.8 36" style="enable-background:new 0 0 24.8 36;" xml:space="preserve">
<g id="SVGRepo_iconCarrier">
	<path d="M9.3,3.7c-1.7,0-3.1,1.4-3.1,3.1V19l-0.7-0.7L5.2,18c-1.2-1.2-3.1-1.2-4.3,0s-1.2,3.1,0,4.3v0l8.4,8.3l0.1,0l0,0.1
		c1.4,1.1,3.2,1.7,5.1,1.7h1.8c4.7,0,8.4-3.8,8.4-8.4v-8c0-1.7-1.4-3.1-3.1-3.1c-0.4,0-0.9,0.1-1.2,0.3c-0.3-1.4-1.5-2.3-3-2.3
		c-0.8,0-1.5,0.3-2,0.8c-0.6-0.5-1.3-0.8-2-0.8c-0.4,0-0.7,0.1-1,0.2V6.8C12.4,5.1,11,3.7,9.3,3.7z M9.2,5.4c0.6,0,1.2,0.5,1.2,1.1
		v11.7h1.9v-4.4c0-0.6,0.5-1.1,1.1-1.1s1.1,0.5,1.1,1.1v4.4h2.2v-4.4c0-0.6,0.5-1.1,1.1-1.1c0.6,0,1.1,0.5,1.1,1.1v4.4h2.3v-2.2
		c0-0.6,0.5-1.1,1.1-1.1c0.6,0,1.1,0.5,1.1,1.1v8.5c0,3.8-3,6.8-6.8,6.8h-1.9c-1.6,0-3-0.6-4.1-1.4l-8.7-8.5
		c-0.5-0.5-0.6-1.9-0.1-2.4c0.5-0.5,1.5-0.6,2-0.1L8,22.6V6.4C8,5.8,8.6,5.4,9.2,5.4z"/>
</g>
</svg>
