{
	"asset":{
		"generator":"Khronos glTF Blender I/O v3.5.30",
		"version":"2.0"
	},
	"extensionsUsed":[
		"KHR_materials_specular",
		"KHR_materials_ior"
	],
	"scene":0,
	"scenes":[
		{
			"name":"Scene",
			"nodes":[
				0
			]
		}
	],
	"nodes":[
		{
			"mesh":0,
			"name":"cenefas_02",
			"rotation":[
				0,
				-0.08715575188398361,
				0,
				0.9961947202682495
			]
		}
	],
	"materials":[
		{
			"doubleSided":true,
			"extensions":{
				"KHR_materials_specular":{
					"specularColorFactor":[
						0,
						0,
						0
					]
				},
				"KHR_materials_ior":{
					"ior":1.4500000476837158
				}
			},
			"name":"Base",
			"pbrMetallicRoughness":{
				"baseColorFactor":[
					0.800000011920929,
					0.800000011920929,
					0.800000011920929,
					1
				],
				"metallicFactor":0.14076706767082214,
				"roughnessFactor":0.5078125
			}
		},
		{
			"doubleSided":true,
			"extensions":{
				"KHR_materials_specular":{
					"specularColorFactor":[
						0,
						0,
						0
					]
				},
				"KHR_materials_ior":{
					"ior":1.4500000476837158
				}
			},
			"name":"Aluminio",
			"pbrMetallicRoughness":{
				"baseColorFactor":[
					0.41045188903808594,
					0.41045188903808594,
					0.41045188903808594,
					1
				],
				"metallicFactor":0.75,
				"roughnessFactor":0.3499999940395355
			}
		}
	],
	"meshes":[
		{
			"name":"Material_02",
			"primitives":[
				{
					"attributes":{
						"POSITION":0,
						"TEXCOORD_0":1,
						"NORMAL":2
					},
					"indices":3,
					"material":0
				},
				{
					"attributes":{
						"POSITION":4,
						"TEXCOORD_0":5,
						"NORMAL":6
					},
					"indices":7,
					"material":1
				}
			]
		}
	],
	"accessors":[
		{
			"bufferView":0,
			"componentType":5126,
			"count":762,
			"max":[
				0.03661702945828438,
				0.06226327642798424,
				0.2508404552936554
			],
			"min":[
				-0.02288401871919632,
				-0.07905403524637222,
				-0.2510688900947571
			],
			"type":"VEC3"
		},
		{
			"bufferView":1,
			"componentType":5126,
			"count":762,
			"type":"VEC2"
		},
		{
			"bufferView":2,
			"componentType":5126,
			"count":762,
			"type":"VEC3"
		},
		{
			"bufferView":3,
			"componentType":5123,
			"count":1146,
			"type":"SCALAR"
		},
		{
			"bufferView":4,
			"componentType":5126,
			"count":2639,
			"max":[
				0.03661702945828438,
				0.06226327642798424,
				0.2508404552936554
			],
			"min":[
				-0.02288401871919632,
				-0.07905403524637222,
				-0.2510688900947571
			],
			"type":"VEC3"
		},
		{
			"bufferView":5,
			"componentType":5126,
			"count":2639,
			"type":"VEC2"
		},
		{
			"bufferView":6,
			"componentType":5126,
			"count":2639,
			"type":"VEC3"
		},
		{
			"bufferView":7,
			"componentType":5123,
			"count":4398,
			"type":"SCALAR"
		}
	],
	"bufferViews":[
		{
			"buffer":0,
			"byteLength":9144,
			"byteOffset":0,
			"target":34962
		},
		{
			"buffer":0,
			"byteLength":6096,
			"byteOffset":9144,
			"target":34962
		},
		{
			"buffer":0,
			"byteLength":9144,
			"byteOffset":15240,
			"target":34962
		},
		{
			"buffer":0,
			"byteLength":2292,
			"byteOffset":24384,
			"target":34963
		},
		{
			"buffer":0,
			"byteLength":31668,
			"byteOffset":26676,
			"target":34962
		},
		{
			"buffer":0,
			"byteLength":21112,
			"byteOffset":58344,
			"target":34962
		},
		{
			"buffer":0,
			"byteLength":31668,
			"byteOffset":79456,
			"target":34962
		},
		{
			"buffer":0,
			"byteLength":8796,
			"byteOffset":111124,
			"target":34963
		}
	],
	"buffers":[
		{
			"byteLength":119920,
			"uri":"data:application/octet-stream;base64,"
		}
	]
}
