{
	"asset":{
		"generator":"Khronos glTF Blender I/O v3.5.30",
		"version":"2.0"
	},
	"extensionsUsed":[
		"KHR_materials_specular",
		"KHR_materials_ior"
	],
	"scene":0,
	"scenes":[
		{
			"name":"Scene",
			"nodes":[
				0
			]
		}
	],
	"nodes":[
		{
			"mesh":0,
			"name":"cenefas_04"
		}
	],
	"materials":[
		{
			"doubleSided":true,
			"extensions":{
				"KHR_materials_specular":{
					"specularColorFactor":[
						0,
						0,
						0
					]
				},
				"KHR_materials_ior":{
					"ior":1.4500000476837158
				}
			},
			"name":"Base",
			"pbrMetallicRoughness":{
				"baseColorFactor":[
					0.800000011920929,
					0.800000011920929,
					0.800000011920929,
					1
				],
				"metallicFactor":0.14076706767082214,
				"roughnessFactor":0.5078125
			}
		},
		{
			"doubleSided":true,
			"extensions":{
				"KHR_materials_specular":{
					"specularColorFactor":[
						0,
						0,
						0
					]
				},
				"KHR_materials_ior":{
					"ior":1.4500000476837158
				}
			},
			"name":"Aluminio",
			"pbrMetallicRoughness":{
				"baseColorFactor":[
					0.41045188903808594,
					0.41045188903808594,
					0.41045188903808594,
					1
				],
				"metallicFactor":0.75,
				"roughnessFactor":0.3499999940395355
			}
		}
	],
	"meshes":[
		{
			"name":"Material_04",
			"primitives":[
				{
					"attributes":{
						"POSITION":0,
						"TEXCOORD_0":1,
						"NORMAL":2
					},
					"indices":3,
					"material":0
				},
				{
					"attributes":{
						"POSITION":4,
						"TEXCOORD_0":5,
						"NORMAL":6
					},
					"indices":7,
					"material":1
				}
			]
		}
	],
	"accessors":[
		{
			"bufferView":0,
			"componentType":5126,
			"count":268,
			"max":[
				0.02937602624297142,
				0.0666169747710228,
				0.24993710219860077
			],
			"min":[
				-0.028584018349647522,
				-0.07511437684297562,
				-0.25006288290023804
			],
			"type":"VEC3"
		},
		{
			"bufferView":1,
			"componentType":5126,
			"count":268,
			"type":"VEC2"
		},
		{
			"bufferView":2,
			"componentType":5126,
			"count":268,
			"type":"VEC3"
		},
		{
			"bufferView":3,
			"componentType":5123,
			"count":402,
			"type":"SCALAR"
		},
		{
			"bufferView":4,
			"componentType":5126,
			"count":2674,
			"max":[
				0.02937602624297142,
				0.0666169747710228,
				0.24993710219860077
			],
			"min":[
				-0.030125021934509277,
				-0.07511437684297562,
				-0.25006288290023804
			],
			"type":"VEC3"
		},
		{
			"bufferView":5,
			"componentType":5126,
			"count":2674,
			"type":"VEC2"
		},
		{
			"bufferView":6,
			"componentType":5126,
			"count":2674,
			"type":"VEC3"
		},
		{
			"bufferView":7,
			"componentType":5123,
			"count":4758,
			"type":"SCALAR"
		}
	],
	"bufferViews":[
		{
			"buffer":0,
			"byteLength":3216,
			"byteOffset":0,
			"target":34962
		},
		{
			"buffer":0,
			"byteLength":2144,
			"byteOffset":3216,
			"target":34962
		},
		{
			"buffer":0,
			"byteLength":3216,
			"byteOffset":5360,
			"target":34962
		},
		{
			"buffer":0,
			"byteLength":804,
			"byteOffset":8576,
			"target":34963
		},
		{
			"buffer":0,
			"byteLength":32088,
			"byteOffset":9380,
			"target":34962
		},
		{
			"buffer":0,
			"byteLength":21392,
			"byteOffset":41468,
			"target":34962
		},
		{
			"buffer":0,
			"byteLength":32088,
			"byteOffset":62860,
			"target":34962
		},
		{
			"buffer":0,
			"byteLength":9516,
			"byteOffset":94948,
			"target":34963
		}
	],
	"buffers":[
		{
			"byteLength":104464,
			"uri":"data:application/octet-stream;base64,"
		}
	]
}
