{
	"asset":{
		"generator":"Khronos glTF Blender I/O v3.5.30",
		"version":"2.0"
	},
	"extensionsUsed":[
		"KHR_materials_specular",
		"KHR_materials_ior"
	],
	"scene":0,
	"scenes":[
		{
			"name":"Scene",
			"nodes":[
				0
			]
		}
	],
	"nodes":[
		{
			"mesh":0,
			"name":"cenefas_01"
		}
	],
	"materials":[
		{
			"doubleSided":true,
			"extensions":{
				"KHR_materials_specular":{
					"specularColorFactor":[
						0,
						0,
						0
					]
				},
				"KHR_materials_ior":{
					"ior":1.4500000476837158
				}
			},
			"name":"Base",
			"pbrMetallicRoughness":{
				"baseColorFactor":[
					0.800000011920929,
					0.800000011920929,
					0.800000011920929,
					1
				],
				"metallicFactor":0.14076706767082214,
				"roughnessFactor":0.5078125
			}
		},
		{
			"doubleSided":true,
			"extensions":{
				"KHR_materials_specular":{
					"specularColorFactor":[
						0,
						0,
						0
					]
				},
				"KHR_materials_ior":{
					"ior":1.4500000476837158
				}
			},
			"name":"Aluminio",
			"pbrMetallicRoughness":{
				"baseColorFactor":[
					0.41045188903808594,
					0.41045188903808594,
					0.41045188903808594,
					1
				],
				"metallicFactor":0.75,
				"roughnessFactor":0.3499999940395355
			}
		}
	],
	"meshes":[
		{
			"name":"Material_01",
			"primitives":[
				{
					"attributes":{
						"POSITION":0,
						"TEXCOORD_0":1,
						"NORMAL":2
					},
					"indices":3,
					"material":0
				},
				{
					"attributes":{
						"POSITION":4,
						"TEXCOORD_0":5,
						"NORMAL":6
					},
					"indices":7,
					"material":1
				}
			]
		}
	],
	"accessors":[
		{
			"bufferView":0,
			"componentType":5126,
			"count":388,
			"max":[
				0.05865885317325592,
				0.061084527522325516,
				0.24953800439834595
			],
			"min":[
				-0.05622204393148422,
				-0.08075269311666489,
				-0.2490815818309784
			],
			"type":"VEC3"
		},
		{
			"bufferView":1,
			"componentType":5126,
			"count":388,
			"type":"VEC2"
		},
		{
			"bufferView":2,
			"componentType":5126,
			"count":388,
			"type":"VEC3"
		},
		{
			"bufferView":3,
			"componentType":5123,
			"count":582,
			"type":"SCALAR"
		},
		{
			"bufferView":4,
			"componentType":5126,
			"count":2255,
			"max":[
				0.05865885317325592,
				0.061084527522325516,
				0.24953800439834595
			],
			"min":[
				-0.05622204393148422,
				-0.08075269311666489,
				-0.2490815818309784
			],
			"type":"VEC3"
		},
		{
			"bufferView":5,
			"componentType":5126,
			"count":2255,
			"type":"VEC2"
		},
		{
			"bufferView":6,
			"componentType":5126,
			"count":2255,
			"type":"VEC3"
		},
		{
			"bufferView":7,
			"componentType":5123,
			"count":3678,
			"type":"SCALAR"
		}
	],
	"bufferViews":[
		{
			"buffer":0,
			"byteLength":4656,
			"byteOffset":0,
			"target":34962
		},
		{
			"buffer":0,
			"byteLength":3104,
			"byteOffset":4656,
			"target":34962
		},
		{
			"buffer":0,
			"byteLength":4656,
			"byteOffset":7760,
			"target":34962
		},
		{
			"buffer":0,
			"byteLength":1164,
			"byteOffset":12416,
			"target":34963
		},
		{
			"buffer":0,
			"byteLength":27060,
			"byteOffset":13580,
			"target":34962
		},
		{
			"buffer":0,
			"byteLength":18040,
			"byteOffset":40640,
			"target":34962
		},
		{
			"buffer":0,
			"byteLength":27060,
			"byteOffset":58680,
			"target":34962
		},
		{
			"buffer":0,
			"byteLength":7356,
			"byteOffset":85740,
			"target":34963
		}
	],
	"buffers":[
		{
			"byteLength":93096,
			"uri":"data:application/octet-stream;base64,"
		}
	]
}
