{
	"asset":{
		"generator":"Khronos glTF Blender I/O v3.5.30",
		"version":"2.0"
	},
	"extensionsUsed":[
		"KHR_materials_specular",
		"KHR_materials_ior"
	],
	"scene":0,
	"scenes":[
		{
			"name":"Scene",
			"nodes":[
				0
			]
		}
	],
	"nodes":[
		{
			"mesh":0,
			"name":"cenefas_03"
		}
	],
	"materials":[
		{
			"doubleSided":true,
			"extensions":{
				"KHR_materials_specular":{
					"specularColorFactor":[
						0,
						0,
						0
					]
				},
				"KHR_materials_ior":{
					"ior":1.4500000476837158
				}
			},
			"name":"Base",
			"pbrMetallicRoughness":{
				"baseColorFactor":[
					0.800000011920929,
					0.800000011920929,
					0.800000011920929,
					1
				],
				"metallicFactor":0.14076706767082214,
				"roughnessFactor":0.5078125
			}
		},
		{
			"doubleSided":true,
			"extensions":{
				"KHR_materials_specular":{
					"specularColorFactor":[
						0,
						0,
						0
					]
				},
				"KHR_materials_ior":{
					"ior":1.4500000476837158
				}
			},
			"name":"Aluminio",
			"pbrMetallicRoughness":{
				"baseColorFactor":[
					0.41045188903808594,
					0.41045188903808594,
					0.41045188903808594,
					1
				],
				"metallicFactor":0.75,
				"roughnessFactor":0.3499999940395355
			}
		}
	],
	"meshes":[
		{
			"name":"Material_03",
			"primitives":[
				{
					"attributes":{
						"POSITION":0,
						"TEXCOORD_0":1,
						"NORMAL":2
					},
					"indices":3,
					"material":0
				},
				{
					"attributes":{
						"POSITION":4,
						"TEXCOORD_0":5,
						"NORMAL":6
					},
					"indices":7,
					"material":1
				}
			]
		}
	],
	"accessors":[
		{
			"bufferView":0,
			"componentType":5126,
			"count":112,
			"max":[
				0.09687487781047821,
				0.06669839471578598,
				0.255585253238678
			],
			"min":[
				-0.08591988682746887,
				-0.07505183666944504,
				-0.2543903887271881
			],
			"type":"VEC3"
		},
		{
			"bufferView":1,
			"componentType":5126,
			"count":112,
			"type":"VEC2"
		},
		{
			"bufferView":2,
			"componentType":5126,
			"count":112,
			"type":"VEC3"
		},
		{
			"bufferView":3,
			"componentType":5123,
			"count":309,
			"type":"SCALAR"
		},
		{
			"bufferView":4,
			"componentType":5126,
			"count":1506,
			"max":[
				0.09687487781047821,
				0.06669839471578598,
				0.255585253238678
			],
			"min":[
				-0.08740872889757156,
				-0.07505183666944504,
				-0.2545068860054016
			],
			"type":"VEC3"
		},
		{
			"bufferView":5,
			"componentType":5126,
			"count":1506,
			"type":"VEC2"
		},
		{
			"bufferView":6,
			"componentType":5126,
			"count":1506,
			"type":"VEC3"
		},
		{
			"bufferView":7,
			"componentType":5123,
			"count":2241,
			"type":"SCALAR"
		}
	],
	"bufferViews":[
		{
			"buffer":0,
			"byteLength":1344,
			"byteOffset":0,
			"target":34962
		},
		{
			"buffer":0,
			"byteLength":896,
			"byteOffset":1344,
			"target":34962
		},
		{
			"buffer":0,
			"byteLength":1344,
			"byteOffset":2240,
			"target":34962
		},
		{
			"buffer":0,
			"byteLength":618,
			"byteOffset":3584,
			"target":34963
		},
		{
			"buffer":0,
			"byteLength":18072,
			"byteOffset":4204,
			"target":34962
		},
		{
			"buffer":0,
			"byteLength":12048,
			"byteOffset":22276,
			"target":34962
		},
		{
			"buffer":0,
			"byteLength":18072,
			"byteOffset":34324,
			"target":34962
		},
		{
			"buffer":0,
			"byteLength":4482,
			"byteOffset":52396,
			"target":34963
		}
	],
	"buffers":[
		{
			"byteLength":56880,
			"uri":"data:application/octet-stream;base64,"
		}
	]
}
