<svg id="Capa_2" data-name="Capa 2" xmlns="http://www.w3.org/2000/svg" viewBox="0 0 20.318 1.612"><defs><style>.cls-1{fill:none;stroke:#000;stroke-linecap:round;stroke-linejoin:round;stroke-width:0.05px;}</style></defs><g id="POLYLINE"><polygon class="cls-1" points="1.367 0.025 1.371 0.025 1.375 0.025 6.153 0.025 6.157 0.025 6.161 0.025 6.165 0.026 6.169 0.026 6.173 0.027 6.176 0.028 6.18 0.029 6.184 0.03 6.188 0.031 6.191 0.033 6.195 0.034 6.198 0.036 6.202 0.038 6.205 0.04 6.208 0.042 6.212 0.044 6.805 0.489 6.806 0.49 6.808 0.491 6.809 0.492 6.811 0.493 6.812 0.494 6.814 0.495 6.816 0.495 6.817 0.496 6.819 0.496 6.821 0.497 6.822 0.497 6.824 0.498 6.826 0.498 6.827 0.498 6.829 0.498 6.831 0.498 6.833 0.498 6.834 0.498 6.836 0.498 6.838 0.498 6.84 0.497 6.841 0.497 6.843 0.497 6.845 0.496 6.846 0.496 6.848 0.495 6.849 0.494 6.851 0.494 6.853 0.493 6.854 0.492 6.856 0.491 6.857 0.49 7.465 0.052 7.468 0.049 7.472 0.047 7.475 0.045 7.479 0.044 7.482 0.042 7.486 0.04 7.489 0.039 7.493 0.038 7.497 0.036 7.501 0.035 7.504 0.035 7.508 0.034 7.512 0.033 7.516 0.033 7.52 0.033 7.524 0.033 12.329 0.033 12.333 0.033 12.337 0.033 12.341 0.033 12.345 0.034 12.348 0.035 12.352 0.036 12.356 0.037 12.36 0.038 12.363 0.039 12.367 0.04 12.371 0.042 12.374 0.044 12.377 0.046 12.381 0.048 12.384 0.05 12.387 0.052 12.965 0.484 12.967 0.485 12.968 0.486 12.97 0.487 12.971 0.488 12.973 0.489 12.974 0.489 12.976 0.49 12.978 0.491 12.979 0.491 12.981 0.492 12.983 0.492 12.984 0.492 12.986 0.493 12.988 0.493 12.99 0.493 12.991 0.493 12.993 0.493 12.995 0.493 12.997 0.493 12.998 0.493 13 0.492 13.002 0.492 13.003 0.491 13.005 0.491 13.007 0.49 13.008 0.49 13.01 0.489 13.012 0.488 13.013 0.488 13.015 0.487 13.016 0.486 13.018 0.485 13.618 0.059 13.621 0.057 13.624 0.055 13.628 0.053 13.631 0.051 13.635 0.049 13.638 0.048 13.642 0.046 13.646 0.045 13.649 0.044 13.653 0.043 13.657 0.042 13.661 0.042 13.665 0.041 13.669 0.041 13.673 0.04 13.677 0.04 16.106 0.04 17.32 0.04 18.533 0.04 18.555 0.042 18.577 0.045 18.599 0.049 18.621 0.054 18.642 0.06 18.663 0.067 18.684 0.074 18.705 0.083 18.746 0.101 18.777 0.118 18.879 0.187 19.019 0.276 19.067 0.307 19.136 0.35 19.176 0.372 19.178 0.373 19.179 0.374 19.181 0.375 19.182 0.376 19.184 0.377 19.185 0.378 19.186 0.379 19.187 0.381 19.189 0.382 19.19 0.383 19.191 0.384 19.191 0.386 19.192 0.387 19.193 0.389 19.194 0.39 19.194 0.392 19.195 0.393 19.195 0.395 19.196 0.396 19.196 0.398 19.197 0.399 19.197 0.401 19.197 0.402 19.197 0.404 19.197 0.405 19.197 0.407 19.197 0.408 19.197 0.41 19.197 0.412 19.197 0.413 19.196 0.415 19.196 0.416 19.196 0.418 19.195 0.419 19.195 0.421 19.194 0.422 19.194 0.424 19.193 0.425 19.192 0.426 19.191 0.428 19.19 0.429 19.19 0.43 19.189 0.432 19.188 0.433 19.187 0.434 19.186 0.435 19.184 0.436 19.183 0.437 19.182 0.438 19.181 0.439 19.179 0.44 19.178 0.441 19.177 0.442 19.175 0.443 19.174 0.443 19.172 0.444 19.17 0.445 19.169 0.445 19.167 0.445 19.165 0.446 19.164 0.446 19.162 0.446 19.16 0.446 19.158 0.446 18.902 0.446 18.894 0.446 18.886 0.445 18.878 0.444 18.871 0.443 18.863 0.44 18.856 0.438 18.848 0.435 18.841 0.431 18.545 0.272 18.544 0.271 18.543 0.271 18.543 0.271 18.542 0.27 18.54 0.27 18.539 0.27 18.538 0.269 18.537 0.269 18.535 0.269 18.534 0.27 18.533 0.27 18.532 0.27 18.531 0.27 18.529 0.271 18.528 0.271 18.527 0.272 18.526 0.272 18.525 0.273 18.524 0.274 18.523 0.274 18.522 0.275 18.521 0.276 18.521 0.277 18.52 0.278 18.52 0.278 18.519 0.279 18.519 0.28 18.518 0.281 18.518 0.281 18.518 0.282 18.518 0.282 18.517 0.284 18.517 0.284 18.517 0.285 18.517 0.286 18.517 0.286 18.517 0.287 18.517 0.289 18.517 1.359 18.517 1.361 18.517 1.362 18.517 1.364 18.517 1.366 18.518 1.367 18.518 1.369 18.519 1.37 18.519 1.372 18.52 1.373 18.521 1.374 18.521 1.376 18.522 1.377 18.523 1.378 18.524 1.38 18.525 1.381 18.526 1.382 18.527 1.383 18.528 1.384 18.53 1.385 18.531 1.386 18.532 1.387 18.534 1.388 18.535 1.388 18.536 1.389 18.538 1.39 18.539 1.39 18.541 1.39 18.543 1.391 18.544 1.391 18.546 1.391 18.547 1.391 18.549 1.392 19.593 1.392 19.595 1.392 19.596 1.392 19.597 1.392 19.598 1.392 19.6 1.392 19.601 1.393 19.602 1.393 19.603 1.394 19.604 1.394 19.605 1.395 19.606 1.396 19.607 1.396 19.608 1.397 19.609 1.398 19.61 1.399 19.611 1.4 19.612 1.402 19.614 1.404 19.616 1.406 19.617 1.408 19.62 1.413 19.622 1.418 19.627 1.428 19.63 1.432 19.631 1.434 19.633 1.436 19.634 1.438 19.635 1.439 19.635 1.44 19.636 1.44 19.637 1.441 19.638 1.442 19.639 1.442 19.639 1.443 19.64 1.443 19.641 1.443 19.641 1.443 19.642 1.444 19.642 1.444 19.643 1.444 19.643 1.444 19.644 1.444 19.644 1.444 19.644 1.444 19.645 1.444 19.646 1.444 19.646 1.444 19.647 1.444 19.647 1.444 19.648 1.444 19.648 1.444 19.649 1.444 19.649 1.444 19.649 1.444 19.65 1.444 19.65 1.444 19.651 1.443 19.651 1.443 19.652 1.443 19.652 1.443 19.653 1.443 19.653 1.442 19.654 1.442 19.655 1.441 19.656 1.44 19.656 1.44 19.657 1.439 19.658 1.438 19.659 1.436 19.661 1.434 19.662 1.432 19.664 1.428 19.669 1.418 19.672 1.413 19.674 1.408 19.676 1.406 19.677 1.404 19.679 1.402 19.68 1.4 19.681 1.399 19.682 1.398 19.683 1.397 19.684 1.396 19.685 1.396 19.686 1.395 19.687 1.394 19.688 1.394 19.689 1.393 19.69 1.393 19.691 1.392 19.692 1.392 19.693 1.392 19.695 1.392 19.696 1.392 19.697 1.392 20.26 1.392 20.262 1.392 20.264 1.392 20.265 1.392 20.267 1.392 20.268 1.393 20.27 1.393 20.271 1.393 20.273 1.394 20.274 1.395 20.276 1.395 20.277 1.396 20.278 1.397 20.28 1.398 20.281 1.399 20.282 1.4 20.283 1.401 20.284 1.402 20.285 1.403 20.286 1.405 20.287 1.406 20.288 1.407 20.289 1.409 20.29 1.41 20.29 1.411 20.291 1.413 20.291 1.414 20.292 1.416 20.292 1.417 20.292 1.419 20.293 1.421 20.293 1.422 20.293 1.424 20.293 1.555 20.293 1.556 20.293 1.558 20.292 1.559 20.292 1.561 20.292 1.563 20.291 1.564 20.291 1.566 20.29 1.567 20.29 1.569 20.289 1.57 20.288 1.571 20.287 1.573 20.286 1.574 20.285 1.575 20.284 1.576 20.283 1.578 20.282 1.579 20.281 1.58 20.28 1.581 20.278 1.581 20.277 1.582 20.276 1.583 20.274 1.584 20.273 1.584 20.271 1.585 20.27 1.586 20.268 1.586 20.267 1.586 20.265 1.587 20.264 1.587 20.262 1.587 20.26 1.587 18.386 1.587 18.383 1.587 18.379 1.587 18.376 1.586 18.373 1.586 18.37 1.585 18.367 1.584 18.364 1.583 18.361 1.582 18.358 1.581 18.355 1.579 18.352 1.578 18.35 1.576 18.347 1.574 18.345 1.572 18.342 1.57 18.34 1.568 18.338 1.566 18.336 1.563 18.334 1.561 18.332 1.558 18.33 1.556 18.329 1.553 18.327 1.55 18.326 1.547 18.325 1.544 18.324 1.541 18.323 1.538 18.322 1.535 18.322 1.532 18.321 1.529 18.321 1.525 18.321 1.522 18.321 0.321 18.321 0.317 18.32 0.313 18.32 0.309 18.319 0.305 18.318 0.301 18.317 0.297 18.316 0.293 18.314 0.29 18.313 0.286 18.311 0.283 18.309 0.279 18.307 0.276 18.305 0.273 18.302 0.27 18.3 0.267 18.297 0.264 18.294 0.261 18.291 0.259 18.288 0.256 18.285 0.254 18.282 0.252 18.278 0.25 18.275 0.248 18.271 0.246 18.268 0.245 18.264 0.244 18.26 0.243 18.256 0.242 18.252 0.241 18.248 0.24 18.244 0.24 18.24 0.24 13.748 0.24 13.744 0.24 13.74 0.24 13.736 0.241 13.732 0.241 13.728 0.242 13.724 0.243 13.721 0.244 13.717 0.245 13.713 0.246 13.709 0.248 13.706 0.249 13.702 0.251 13.699 0.253 13.695 0.255 13.692 0.257 13.689 0.259 13.019 0.738 13.018 0.739 13.016 0.74 13.015 0.741 13.013 0.742 13.011 0.742 13.01 0.743 13.008 0.744 13.006 0.744 13.005 0.745 13.003 0.745 13.001 0.746 13 0.746 12.998 0.746 12.996 0.746 12.994 0.746 12.993 0.746 12.991 0.746 12.989 0.746 12.988 0.746 12.986 0.746 12.984 0.745 12.982 0.745 12.981 0.745 12.979 0.744 12.977 0.743 12.976 0.743 12.974 0.742 12.973 0.741 12.971 0.74 12.97 0.74 12.968 0.739 12.967 0.738 12.32 0.258 12.317 0.255 12.313 0.253 12.31 0.251 12.306 0.249 12.303 0.248 12.299 0.246 12.296 0.245 12.292 0.243 12.288 0.242 12.285 0.241 12.281 0.24 12.277 0.24 12.273 0.239 12.269 0.239 12.265 0.238 12.261 0.238 10.078 0.238 10.074 0.238 10.07 0.239 10.067 0.239 10.063 0.24 10.06 0.241 10.056 0.242 10.053 0.243 10.049 0.244 10.046 0.246 10.043 0.247 10.04 0.249 10.037 0.251 10.034 0.253 10.031 0.255 10.029 0.257 10.026 0.26 10.024 0.262 10.021 0.265 10.019 0.268 10.017 0.271 10.015 0.274 10.013 0.277 10.012 0.28 10.01 0.283 10.009 0.286 10.008 0.29 10.007 0.293 10.006 0.297 10.006 0.3 10.005 0.304 10.005 0.308 10.005 0.311 10.005 1.554 10.005 1.556 10.004 1.557 10.004 1.559 10.004 1.56 10.004 1.562 10.003 1.564 10.003 1.565 10.002 1.567 10.001 1.568 10.001 1.569 10 1.571 9.999 1.572 9.998 1.573 9.997 1.575 9.996 1.576 9.995 1.577 9.994 1.578 9.993 1.579 9.992 1.58 9.99 1.581 9.989 1.582 9.988 1.582 9.986 1.583 9.985 1.584 9.983 1.584 9.982 1.585 9.98 1.585 9.979 1.586 9.977 1.586 9.975 1.586 9.974 1.586 9.972 1.586 9.864 1.586 9.863 1.586 9.861 1.586 9.859 1.586 9.858 1.586 9.856 1.585 9.855 1.585 9.853 1.584 9.852 1.584 9.85 1.583 9.849 1.582 9.847 1.582 9.846 1.581 9.845 1.58 9.844 1.579 9.842 1.578 9.841 1.577 9.84 1.576 9.839 1.575 9.838 1.573 9.837 1.572 9.837 1.571 9.836 1.569 9.835 1.568 9.834 1.567 9.834 1.565 9.833 1.564 9.833 1.562 9.832 1.56 9.832 1.559 9.832 1.557 9.832 1.556 9.832 1.554 9.832 0.315 9.832 0.312 9.831 0.308 9.831 0.304 9.83 0.301 9.83 0.297 9.829 0.294 9.827 0.29 9.826 0.287 9.825 0.284 9.823 0.28 9.821 0.277 9.819 0.274 9.817 0.272 9.815 0.269 9.813 0.266 9.81 0.264 9.808 0.261 9.805 0.259 9.802 0.257 9.8 0.255 9.797 0.253 9.794 0.251 9.79 0.249 9.787 0.248 9.784 0.247 9.78 0.245 9.777 0.244 9.773 0.244 9.77 0.243 9.766 0.243 9.762 0.242 9.759 0.242 7.575 0.242 7.571 0.242 7.567 0.242 7.563 0.243 7.559 0.243 7.555 0.244 7.551 0.245 7.548 0.246 7.544 0.247 7.54 0.248 7.537 0.25 7.533 0.251 7.529 0.253 7.526 0.255 7.523 0.257 7.519 0.259 7.516 0.261 6.859 0.735 6.857 0.736 6.856 0.737 6.854 0.738 6.853 0.738 6.851 0.739 6.85 0.74 6.848 0.741 6.846 0.741 6.845 0.742 6.843 0.742 6.841 0.742 6.84 0.743 6.838 0.743 6.836 0.743 6.834 0.743 6.833 0.743 6.831 0.743 6.829 0.743 6.827 0.743 6.826 0.743 6.824 0.742 6.822 0.742 6.821 0.741 6.819 0.741 6.817 0.74 6.816 0.74 6.814 0.739 6.812 0.738 6.811 0.737 6.809 0.737 6.808 0.736 6.806 0.735 6.159 0.262 6.156 0.259 6.153 0.257 6.149 0.255 6.146 0.253 6.142 0.252 6.139 0.25 6.135 0.249 6.131 0.247 6.127 0.246 6.124 0.245 6.12 0.244 6.116 0.244 6.112 0.243 6.108 0.243 6.104 0.243 6.1 0.242 1.408 0.242 1.404 0.243 1.4 0.243 1.396 0.243 1.392 0.244 1.388 0.244 1.384 0.245 1.38 0.246 1.377 0.247 1.373 0.249 1.369 0.25 1.366 0.252 1.362 0.253 1.359 0.255 1.355 0.257 1.352 0.259 1.349 0.262 0.772 0.686 0.769 0.688 0.766 0.69 0.762 0.692 0.759 0.694 0.755 0.696 0.752 0.697 0.748 0.699 0.744 0.7 0.741 0.701 0.737 0.702 0.733 0.703 0.729 0.704 0.725 0.704 0.721 0.705 0.717 0.705 0.713 0.705 0.281 0.705 0.277 0.705 0.273 0.706 0.269 0.706 0.265 0.707 0.261 0.708 0.257 0.709 0.253 0.71 0.25 0.712 0.246 0.713 0.243 0.715 0.239 0.717 0.236 0.719 0.233 0.721 0.23 0.724 0.227 0.726 0.224 0.729 0.221 0.732 0.219 0.735 0.216 0.738 0.214 0.741 0.212 0.744 0.21 0.748 0.208 0.751 0.206 0.755 0.205 0.758 0.204 0.762 0.203 0.766 0.202 0.77 0.201 0.774 0.2 0.778 0.2 0.782 0.2 0.786 0.2 1.266 0.2 1.268 0.2 1.27 0.2 1.272 0.199 1.274 0.199 1.276 0.198 1.278 0.198 1.28 0.197 1.281 0.196 1.283 0.195 1.285 0.194 1.287 0.193 1.288 0.192 1.29 0.191 1.291 0.189 1.293 0.188 1.294 0.187 1.296 0.185 1.297 0.184 1.298 0.182 1.299 0.18 1.3 0.179 1.301 0.177 1.302 0.175 1.303 0.173 1.304 0.171 1.304 0.17 1.305 0.168 1.305 0.166 1.306 0.164 1.306 0.162 1.306 0.159 1.306 0.066 1.306 0.064 1.306 0.061 1.306 0.059 1.306 0.057 1.305 0.055 1.305 0.054 1.304 0.052 1.304 0.05 1.303 0.048 1.302 0.046 1.301 0.045 1.3 0.043 1.299 0.041 1.298 0.04 1.297 0.038 1.296 0.037 1.294 0.036 1.293 0.034 1.291 0.033 1.29 0.032 1.288 0.031 1.287 0.03 1.285 0.029 1.283 0.028 1.281 0.027 1.28 0.027 1.278 0.026 1.276 0.026 1.274 0.025 1.272 0.025 1.27 0.025 1.268 0.025 1.266 0.025 0.592 0.025 0.587 0.025 0.583 0.026 0.579 0.027 0.575 0.028 0.571 0.029 0.567 0.03 0.564 0.031 0.56 0.033 0.556 0.035 0.553 0.037 0.549 0.039 0.546 0.041 0.543 0.044 0.54 0.046 0.537 0.049 0.534 0.052 0.531 0.055 0.529 0.058 0.527 0.061 0.524 0.064 0.522 0.068 0.52 0.071 0.518 0.075 0.517 0.078 0.515 0.082 0.514 0.086 0.513 0.09 0.512 0.094 0.511 0.098 0.511 0.102 0.51 0.106 0.51 0.634 0.51 0.638 0.51 0.642 0.51 0.646 0.51 0.65 0.509 0.653 0.508 0.657 0.508 0.661 0.507 0.665 0.506 0.668 0.504 0.672 0.503 0.676 0.501 0.679 0.5 0.683 0.498 0.686 0.496 0.689 0.494 0.693 0.491 1.316 0.044 1.32 0.042 1.323 0.04 1.326 0.038 1.33 0.036 1.333 0.034 1.337 0.033 1.341 0.031 1.344 0.03 1.348 0.029 1.352 0.028 1.356 0.027 1.36 0.026 1.363 0.026 1.367 0.025"/></g></svg>