<?xml version="1.0" encoding="UTF-8"?>
<svg id="Capa_2" data-name="Capa 2" xmlns="http://www.w3.org/2000/svg" viewBox="0 0 20.51 3.68">
  <defs>
    <style>
      .cls-1 {
        fill: none;
        stroke: #000;
        stroke-miterlimit: 10;
        stroke-width: .05px;
      }
    </style>
  </defs>
  <g id="Capa_1-2" data-name="Capa 1">
    <g>
      <polyline class="cls-1" points="19.5 2.87 19.5 2.87 19.53 2.87 19.53 2.9 19.55 2.9 19.55 2.94 19.55 3.06 19.55 3.09 19.58 3.09 19.61 3.09 20.45 3.09 20.48 3.09 20.48 3.12 20.48 3.15 20.48 3.33 20.48 3.36 20.48 3.39 20.45 3.42 20.42 3.45 20.39 3.45 20.36 3.45"/>
      <polyline class="cls-1" points="18.08 2.87 18.08 3.03 18.11 3.06 18.14 3.06 19.34 3.06 19.34 3.09 19.37 3.09 19.37 3.12 19.37 3.2 19.37 3.23 19.41 3.23 19.41 3.26 19.44 3.26 20.25 3.26 20.25 3.33 20.28 3.36 20.28 3.39 20.28 3.42 20.3 3.42 20.3 3.45 20.33 3.45 20.36 3.45"/>
      <polyline class="cls-1" points="12.03 2.87 12.03 3.03 12.03 3.06 12.05 3.06 14.19 3.06"/>
      <polyline class="cls-1" points="10.64 1.37 10.64 3.29 10.64 3.33 10.64 3.36 10.67 3.36 10.7 3.36 10.85 3.36 10.88 3.36 10.91 3.39 10.91 3.42 10.91 3.59 10.91 3.62 10.88 3.65 10.85 3.65 10.19 3.65 10.16 3.65 10.13 3.62 10.13 3.59 10.13 3.42 10.13 3.39 10.16 3.36 10.19 3.36 10.41 3.36 10.44 3.36 10.47 3.36 10.47 3.33 10.47 3.29 10.47 1.7"/>
      <polyline class="cls-1" points="2.48 3.03 2.48 3.59 2.48 3.62 2.48 3.65 2.45 3.65 2.33 3.65 .05 3.65 .03 3.65 .03 3.62 .03 3.59 .03 3.54 .03 3.51 .03 3.48 .05 3.48 .23 3.48 .56 3.48 .59 3.51 .59 3.48 2.28 3.48 2.3 3.48 2.3 3.45 2.33 3.45 2.33 3.42 2.33 3.06"/>
      <polyline class="cls-1" points="2.03 3.06 1.44 3.06 1.41 3.06 1.41 3.03 1.41 2.94 1.41 2.9 1.44 2.9 1.44 2.87 1.94 2.87"/>
      <line class="cls-1" x1="18.8" y1="2.87" x2="19.5" y2="2.87"/>
      <path class="cls-1" d="m18.78,2.88c.6-.32.91-1,.77-1.66S18.83.06,18.15.03c-.68-.04-1.3.38-1.52,1.03"/>
      <path class="cls-1" d="m18.07,2.87c.68,0,1.25-.51,1.33-1.19.07-.68-.37-1.3-1.04-1.45-.67-.15-1.33.23-1.55.88"/>
      <path class="cls-1" d="m14.08,2.87c1.15,0,2.18-.74,2.54-1.83"/>
      <path class="cls-1" d="m14.17,3.05c1.2-.04,2.25-.81,2.63-1.95"/>
      <path class="cls-1" d="m12.72,2.88c.6-.32.91-1,.77-1.66S12.77.06,12.09.03c-.68-.04-1.3.38-1.52,1.03"/>
      <path class="cls-1" d="m12.01,2.87c.68,0,1.25-.51,1.33-1.19.07-.68-.37-1.3-1.04-1.45-.67-.15-1.33.23-1.55.88"/>
      <path class="cls-1" d="m8.02,2.87c1.15,0,2.18-.74,2.54-1.83"/>
      <path class="cls-1" d="m8.11,3.05c.96-.03,1.84-.54,2.35-1.35"/>
      <path class="cls-1" d="m10.63,1.37c.04-.09.07-.17.1-.26"/>
      <path class="cls-1" d="m6.63,2.88c.6-.32.91-1,.77-1.66S6.68.06,6,.03c-.68-.04-1.3.38-1.52,1.03"/>
      <path class="cls-1" d="m5.92,2.87c.68,0,1.25-.51,1.33-1.19.07-.68-.37-1.3-1.04-1.45-.67-.15-1.33.23-1.55.88"/>
      <path class="cls-1" d="m1.93,2.87c1.15,0,2.18-.74,2.54-1.83"/>
      <path class="cls-1" d="m2.02,3.05c.09,0,.19-.01.28-.02"/>
      <path class="cls-1" d="m2.47,3c1.01-.2,1.84-.92,2.17-1.9"/>
      <line class="cls-1" x1="6.66" y1="2.87" x2="8.03" y2="2.87"/>
      <line class="cls-1" x1="5.94" y1="2.87" x2="5.94" y2="3.03"/>
      <path class="cls-1" d="m5.94,3.01s0,.02.01.03c0,0,.02.01.03.01"/>
      <line class="cls-1" x1="12.75" y1="2.87" x2="14.09" y2="2.87"/>
      <line class="cls-1" x1="8.12" y1="3.06" x2="6" y2="3.06"/>
    </g>
  </g>
</svg>