<?xml version="1.0" encoding="UTF-8"?>
<svg id="Capa_2" data-name="Capa 2" xmlns="http://www.w3.org/2000/svg" viewBox="0 0 20.51 3.68">
  <defs>
    <style>
      .cls-1 {
        fill: none;
        stroke: #000;
        stroke-miterlimit: 10;
        stroke-width: .05px;
      }
    </style>
  </defs>
  <g id="Capa_1-2" data-name="Capa 1">
    <g>
      <polyline class="cls-1" points="19.5 2.91 19.5 2.91 19.53 2.91 19.55 2.91 19.55 2.94 19.55 3.06 19.55 3.08 19.58 3.08 19.58 3.11 19.61 3.11 20.45 3.11 20.48 3.11 20.48 3.14 20.48 3.35 20.48 3.38 20.48 3.41 20.45 3.41 20.45 3.44 20.42 3.44 20.42 3.47 20.39 3.47 20.36 3.47"/>
      <polyline class="cls-1" points="12.89 3.08 19.34 3.08 19.37 3.08 19.37 3.11 19.37 3.23 19.41 3.26 19.44 3.26 20.25 3.26 20.25 3.35 20.28 3.38 20.28 3.41 20.3 3.44 20.33 3.47 20.36 3.47"/>
      <polyline class="cls-1" points="10.64 1.97 10.64 3.32 10.64 3.35 10.67 3.35 10.7 3.35 10.85 3.35 10.88 3.35 10.88 3.38 10.91 3.38 10.91 3.41 10.91 3.63 10.91 3.66 10.88 3.66 10.85 3.66 10.19 3.66 10.16 3.66 10.13 3.66 10.13 3.63 10.13 3.41 10.13 3.38 10.16 3.38 10.16 3.35 10.19 3.35 10.41 3.35 10.44 3.35 10.47 3.35 10.47 3.32 10.47 1.7"/>
      <polyline class="cls-1" points="8.91 2.91 8.91 3.03 8.91 3.06 8.87 3.08 8.19 3.08"/>
      <polyline class="cls-1" points="4.19 2.91 4.19 3.03 4.19 3.06 4.16 3.08 3.03 3.08 2.54 3.08 2.51 3.08 2.51 3.11 2.48 3.11 2.48 3.63 2.48 3.66 2.45 3.66 2.33 3.66 .05 3.66 .03 3.66 .03 3.63 .03 3.54 .03 3.5 .05 3.5 .05 3.47 .23 3.47 .56 3.47 .59 3.5 .59 3.47 2.28 3.47 2.3 3.47 2.3 3.44 2.33 3.44 2.33 3.11 2.3 3.11 2.3 3.08 2.28 3.08 1.44 3.08 1.41 3.06 1.41 3.03 1.41 2.94 1.41 2.91 1.44 2.91 3.47 2.91"/>
      <line class="cls-1" x1="12.89" y1="2.91" x2="19.5" y2="2.91"/>
      <path class="cls-1" d="m5.62,1.06C5.4.41,4.78,0,4.1.03s-1.25.52-1.4,1.19c-.15.66.17,1.35.77,1.66"/>
      <path class="cls-1" d="m5.45,1.11c-.22-.65-.89-1.02-1.55-.88-.67.15-1.11.77-1.04,1.45s.65,1.19,1.33,1.19"/>
      <path class="cls-1" d="m5.63,1.05c.37,1.09,1.39,1.83,2.54,1.83"/>
      <path class="cls-1" d="m5.45,1.1c.39,1.17,1.49,1.95,2.72,1.95"/>
      <path class="cls-1" d="m10.33,1.06C10.11.41,9.49,0,8.81.03c-.68.04-1.25.52-1.4,1.19-.15.66.17,1.35.77,1.66"/>
      <path class="cls-1" d="m10.16,1.11c-.22-.65-.89-1.02-1.55-.88-.67.15-1.11.77-1.04,1.45.07.68.65,1.19,1.33,1.19"/>
      <path class="cls-1" d="m10.34,1.05c.37,1.09,1.39,1.83,2.54,1.83"/>
      <path class="cls-1" d="m10.16,1.1c.07.21.16.4.28.59"/>
      <path class="cls-1" d="m10.62,1.95c.54.7,1.38,1.11,2.26,1.11"/>
    </g>
  </g>
</svg>