<?xml version="1.0" encoding="UTF-8"?>
<svg id="Capa_2" data-name="Capa 2" xmlns="http://www.w3.org/2000/svg" viewBox="0 0 20.51 3.86">
  <defs>
    <style>
      .cls-1 {
        fill: none;
        stroke: #000;
        stroke-miterlimit: 10;
        stroke-width: .05px;
      }
    </style>
  </defs>
  <g id="Capa_1-2" data-name="Capa 1">
    <g>
      <polyline class="cls-1" points="19.79 3.27 20.45 3.27 20.45 3.3 20.48 3.3 20.48 3.33 20.48 3.54 20.48 3.57 20.48 3.6 20.45 3.6 20.45 3.63 20.42 3.63 20.42 3.66 20.39 3.66 20.36 3.66"/>
      <polyline class="cls-1" points="19.79 3.44 20.25 3.44 20.25 3.54 20.28 3.57 20.28 3.6 20.3 3.63 20.33 3.66 20.36 3.66"/>
      <polyline class="cls-1" points="1.82 .3 3.48 3.18 3.51 3.21 3.51 3.24 3.48 3.24 3.48 3.27 3.45 3.27 2.54 3.27 2.51 3.27 2.48 3.3 2.48 3.8 2.48 3.83 2.45 3.83 2.3 3.83 .05 3.83 .03 3.83 .03 3.8 .03 3.72 .03 3.69 .05 3.66 .23 3.66 .57 3.66 .57 3.69 .6 3.66 2.28 3.66 2.3 3.66 2.3 3.63 2.3 3.3 2.3 3.27 2.28 3.27 1.44 3.27 1.41 3.24 1.41 3.21 1.41 3.11 1.41 3.08 1.44 3.08 3.03 3.08 3.14 3.08 3.17 3.05 3.17 3.03 3.17 3 1.5 .11"/>
      <polyline class="cls-1" points="5.28 3.08 5.1 3.08 5.07 3.08 5.07 3.05 5.04 3.05 3.32 .05"/>
      <path class="cls-1" d="m3.29.05s-.02-.02-.04-.02"/>
      <path class="cls-1" d="m1.54.03s-.03,0-.04.02c0,.01,0,.03,0,.04"/>
      <path class="cls-1" d="m1.84.21s-.03,0-.04.02c0,.01,0,.03,0,.04"/>
      <line class="cls-1" x1="3.26" y1=".03" x2="1.55" y2=".03"/>
      <line class="cls-1" x1="3.17" y1=".21" x2="1.86" y2=".21"/>
      <path class="cls-1" d="m3.2.23s-.02-.02-.04-.02"/>
      <polyline class="cls-1" points="17.57 3.08 17.7 3.08 17.73 3.05 17.73 3.03 17.73 3 16.95 1.61 16.92 1.61 16.92 1.58 16.95 1.58 16.95 1.55 16.98 1.55 18.69 1.55 18.72 1.55 18.75 1.58 19.58 3.03 19.58 3.05 19.58 3.24 19.58 3.27 19.61 3.27 19.79 3.27"/>
      <polyline class="cls-1" points="16.26 3.27 18 3.27 18.03 3.27 18.03 3.24 18.05 3.21 18.03 3.21 18.03 3.18 17.25 1.8 17.25 1.77 17.25 1.74 17.28 1.74 18.6 1.74 18.63 1.74 18.63 1.77 19.41 3.08 19.41 3.11"/>
      <polyline class="cls-1" points="19.41 3.11 19.41 3.39 19.41 3.41 19.41 3.44 19.44 3.44 19.79 3.44"/>
      <polyline class="cls-1" points="13.92 3.08 12.35 3.08 12.32 3.08 12.32 3.05 12.29 3.05 11.45 1.58 11.45 1.55 11.42 1.55 9.69 1.55 9.66 1.55 9.66 1.58 9.66 1.61 10.44 3 10.44 3.03 10.47 3.03 10.47 3.05 10.44 3.05 10.44 3.08 10.41 3.08 9 3.08"/>
      <polyline class="cls-1" points="3.2 .24 4.95 3.24 4.98 3.27 6.66 3.27"/>
      <polyline class="cls-1" points="9 3.27 10.41 3.27 10.44 3.27 10.47 3.27 10.47 3.3 10.47 3.5 10.47 3.54 10.44 3.54 10.41 3.54 10.2 3.54 10.17 3.54 10.17 3.57 10.14 3.57 10.14 3.6 10.14 3.8 10.14 3.83 10.17 3.83 10.2 3.83 10.86 3.83 10.89 3.83 10.92 3.8 10.92 3.6 10.92 3.57 10.89 3.57 10.89 3.54 10.86 3.54 10.67 3.54 10.64 3.54 10.64 3.5 10.64 3 10.64 2.97 9.95 1.8 9.95 1.77 9.95 1.74 9.98 1.74 10.01 1.74 11.3 1.74 11.33 1.74 11.33 1.77 11.36 1.77 12.2 3.24 12.23 3.24 12.23 3.27 13.92 3.27"/>
      <polyline class="cls-1" points="5.28 3.08 6.78 3.08 6.8 3.05 6.8 3.03 6.8 3 6.03 1.61 6.03 1.58 6.03 1.55 6.05 1.55 7.79 1.55 7.82 1.55 7.82 1.58 8.67 3.05 8.7 3.05 8.7 3.08 8.73 3.08 9 3.08"/>
      <polyline class="cls-1" points="6.66 3.27 7.07 3.27 7.11 3.27 7.11 3.24 7.14 3.24 7.14 3.21 7.14 3.18 6.32 1.8 6.32 1.77 6.32 1.74 6.36 1.74 7.67 1.74 7.7 1.74 7.7 1.77 7.73 1.77 8.57 3.24 8.61 3.27 9 3.27"/>
      <polyline class="cls-1" points="13.92 3.08 14.04 3.08 14.07 3.08 14.07 3.05 14.1 3.05 14.1 3.03 14.07 3 12.42 .11 12.42 .08 12.42 .05 12.45 .05 12.45 .03 14.19 .03 14.19 .05 14.22 .05 15.92 3.05 15.95 3.05 15.95 3.08 15.98 3.08 17.57 3.08"/>
      <polyline class="cls-1" points="13.92 3.27 14.33 3.27 14.36 3.27 14.36 3.24 14.39 3.24 14.39 3.21 14.39 3.18 12.72 .3 12.72 .27 12.72 .24 12.75 .24 12.75 .21 14.07 .21 14.1 .24 14.13 .24 15.83 3.24 15.86 3.24 15.86 3.27 16.26 3.27"/>
    </g>
  </g>
</svg>