<?xml version="1.0" encoding="UTF-8"?>
<svg id="Capa_2" data-name="Capa 2" xmlns="http://www.w3.org/2000/svg" viewBox="0 0 55.35 11.25">
  <defs>
    <style>
      .cls-1 {
        fill: none;
        stroke: #000;
        stroke-linecap: round;
        stroke-linejoin: round;
        stroke-width: .1px;
      }
    </style>
  </defs>
  <g id="_0" data-name="0">
    <g>
      <g id="LWPOLYLINE">
        <path class="cls-1" d="m38.01,4.67v5.8c0,.06.04.1.1.1h.36c.06,0,.1.04.1.1v.43c0,.06-.04.1-.1.1h-1.43c-.06,0-.1-.04-.1-.1v-.43c0-.06.04-.1.1-.1h.49c.06,0,.1-.04.1-.1v-5.8"/>
      </g>
      <g id="LWPOLYLINE-2" data-name="LWPOLYLINE">
        <path class="cls-1" d="m22.55,3.05v7.42c0,.06.04.1.1.1h.36c.06,0,.1.04.1.1v.43c0,.06-.04.1-.1.1h-1.43c-.06,0-.1-.04-.1-.1v-.43c0-.06.04-.1.1-.1h.49c.06,0,.1-.04.1-.1V2.7"/>
      </g>
      <g id="LWPOLYLINE-3" data-name="LWPOLYLINE">
        <path class="cls-1" d="m7.04,9.58v.27s0,0,0,0c0,.06-.04.1-.1.1h-1.56c-.06,0-.1.04-.1.1v1.04c0,.06-.04.1-.1.1H.15c-.06,0-.1-.04-.1-.1v-.18c0-.06.04-.1.1-.1h1.05l.05.03.05-.03h3.51c.06,0,.1-.04.1-.1v-.66c0-.06-.04-.1-.1-.1h-1.74c-.06,0-.1-.04-.1-.1v-.18c0-.06.04-.1.1-.1h3.58"/>
      </g>
      <g id="LWPOLYLINE-4" data-name="LWPOLYLINE">
        <path class="cls-1" d="m53.32,9.58l-1.68-2.57h-2.06c-.13,0-.26-.03-.38-.09-.46-.21-.65-.75-.44-1.21l-.12-.05c-3.26,2.24-7.68,1.64-10.22-1.39h-1.36c-.37,2.11-1.77,3.9-3.73,4.77-3.24,1.42-7.01-.05-8.43-3.29C22.78.93,17.16-1.26,12.34.85c-3.46,1.52-5.7,4.94-5.7,8.73"/>
      </g>
      <g id="LWPOLYLINE-5" data-name="LWPOLYLINE">
        <path class="cls-1" d="m53.32,9.58v.33c0,.06.04.1.1.1h1.78c.06,0,.1.04.1.1v.43c0,.14-.11.25-.25.25h0c-.14,0-.25-.11-.25-.25v-.18h-1.75c-.06,0-.1-.04-.1-.1v-.5s0-.04-.02-.05l-1.5-2.29h-1.85c-.63,0-1.17-.45-1.28-1.06-3.33,1.9-7.53,1.2-10.06-1.67h-.22"/>
      </g>
      <g id="LWPOLYLINE-6" data-name="LWPOLYLINE">
        <path class="cls-1" d="m22.18,2.7C18.37-.62,12.6-.23,9.29,3.58c-1.45,1.66-2.25,3.8-2.25,6.01"/>
      </g>
      <g id="LWPOLYLINE-7" data-name="LWPOLYLINE">
        <path class="cls-1" d="m37.64,4.67h-.25c-.47,2.11-1.92,3.87-3.9,4.73-3.43,1.51-7.44-.06-8.95-3.49-.47-1.07-1.14-2.05-1.98-2.87"/>
      </g>
    </g>
  </g>
</svg>