<?xml version="1.0" encoding="UTF-8"?>
<svg id="Capa_2" data-name="Capa 2" xmlns="http://www.w3.org/2000/svg" viewBox="0 0 20.51 3.68">
  <defs>
    <style>
      .cls-1 {
        fill: none;
        stroke: #000;
        stroke-miterlimit: 10;
        stroke-width: .05px;
      }
    </style>
  </defs>
  <g id="Capa_1-2" data-name="Capa 1">
    <g>
      <polyline class="cls-1" points="19.5 2.9 19.5 2.9 19.53 2.9 19.55 2.9 19.55 2.93 19.55 3.06 19.55 3.09 19.58 3.09 19.61 3.09 20.45 3.09 20.48 3.12 20.48 3.15 20.48 3.36 20.48 3.39 20.48 3.42 20.45 3.42 20.45 3.45 20.42 3.45 20.39 3.48 20.36 3.48"/>
      <polyline class="cls-1" points="18.75 2.9 18.75 3.03 18.75 3.06 18.78 3.06 18.78 3.09 18.8 3.09 19.34 3.09 19.37 3.09 19.37 3.12 19.37 3.2 19.37 3.23 19.41 3.23 19.41 3.26 19.44 3.26 20.25 3.26 20.25 3.36 20.28 3.36 20.28 3.39 20.28 3.42 20.3 3.45 20.33 3.45 20.36 3.48"/>
      <polyline class="cls-1" points="15.83 3.09 14.25 3.09 14.22 3.06 14.19 3.06 14.19 3.03 14.19 2.9"/>
      <polyline class="cls-1" points="9.29 2.25 9.29 3.32 9.29 3.36 9.32 3.36 9.5 3.36 9.53 3.36 9.53 3.39 9.56 3.39 9.56 3.42 9.56 3.62 9.53 3.62 9.53 3.65 9.5 3.65 8.84 3.65 8.81 3.65 8.78 3.65 8.78 3.62 8.78 3.42 8.78 3.39 8.81 3.36 8.84 3.36 9.05 3.36 9.08 3.36 9.11 3.36 9.11 3.32 9.11 2.25"/>
      <polyline class="cls-1" points="4.19 2.9 4.19 3.03 4.19 3.06 4.16 3.06 4.16 3.09 3.03 3.09 2.54 3.09 2.51 3.09 2.51 3.12 2.48 3.12 2.48 3.62 2.48 3.65 2.45 3.65 2.33 3.65 .05 3.65 .03 3.65 .03 3.62 .03 3.54 .03 3.51 .05 3.48 .23 3.48 .56 3.48 .59 3.51 .59 3.48 2.28 3.48 2.3 3.48 2.3 3.45 2.33 3.45 2.33 3.12 2.3 3.12 2.3 3.09 2.28 3.09 1.44 3.09 1.44 3.06 1.41 3.06 1.41 3.03 1.41 2.93 1.41 2.9 1.44 2.9 3.47 2.9"/>
      <line class="cls-1" x1="14.91" y1="2.9" x2="15.83" y2="2.9"/>
      <polyline class="cls-1" points="19.5 2.9 19.44 2.9 19.34 2.9"/>
      <path class="cls-1" d="m9.68,2.47c-.04-.24-.25-.41-.49-.41s-.45.17-.49.41"/>
      <path class="cls-1" d="m9.5,2.5c-.02-.12-.11-.21-.22-.25"/>
      <path class="cls-1" d="m9.11,2.26c-.12.03-.2.13-.23.25"/>
      <path class="cls-1" d="m5.62,1.06C5.4.41,4.78,0,4.1.03c-.68.04-1.25.52-1.4,1.19-.15.66.17,1.35.77,1.66"/>
      <path class="cls-1" d="m5.45,1.11c-.22-.65-.89-1.02-1.55-.88-.67.15-1.11.77-1.04,1.45.07.68.65,1.19,1.33,1.19"/>
      <path class="cls-1" d="m19.32,2.87c.38-.25.55-.72.44-1.16-.12-.44-.5-.76-.95-.79-.45-.03-.88.23-1.06.65"/>
      <path class="cls-1" d="m18.73,2.87c.44,0,.82-.33.88-.77.06-.44-.22-.85-.64-.97-.43-.12-.88.1-1.05.51"/>
      <path class="cls-1" d="m14.88,2.88c.6-.32.91-1,.77-1.66-.15-.66-.72-1.15-1.4-1.19-.68-.04-1.3.38-1.52,1.03"/>
      <path class="cls-1" d="m14.17,2.87c.68,0,1.25-.51,1.33-1.19.07-.68-.37-1.3-1.04-1.45-.67-.15-1.33.23-1.55.88"/>
      <path class="cls-1" d="m5.63,1.05c.37,1.09,1.39,1.83,2.54,1.83"/>
      <path class="cls-1" d="m5.45,1.1c.39,1.17,1.49,1.95,2.72,1.95"/>
      <path class="cls-1" d="m10.18,2.87c1.15,0,2.18-.74,2.54-1.83"/>
      <path class="cls-1" d="m10.18,3.06c1.23,0,2.32-.78,2.72-1.95"/>
      <path class="cls-1" d="m8.17,2.87c.24,0,.45-.17.49-.41"/>
      <path class="cls-1" d="m8.17,3.06c.33,0,.61-.23.66-.56"/>
      <path class="cls-1" d="m9.69,2.47c.04.24.25.41.49.41"/>
      <path class="cls-1" d="m9.52,2.5c.06.32.34.56.66.56"/>
      <path class="cls-1" d="m15.82,2.87c.85,0,1.62-.51,1.95-1.29"/>
      <path class="cls-1" d="m15.82,3.06c.92,0,1.75-.55,2.11-1.4"/>
    </g>
  </g>
</svg>