<?xml version="1.0" encoding="UTF-8" standalone="no"?>
<svg
   id="Capa_2"
   data-name="Capa 2"
   viewBox="0 0 20.540001 2.18"
   version="1.1"
   sodipodi:docname="matrix13_m.svg"
   width="20.540001"
   height="2.1800001"
   inkscape:version="1.3.2 (091e20e, 2023-11-25, custom)"
   xmlns:inkscape="http://www.inkscape.org/namespaces/inkscape"
   xmlns:sodipodi="http://sodipodi.sourceforge.net/DTD/sodipodi-0.dtd"
   xmlns="http://www.w3.org/2000/svg"
   xmlns:svg="http://www.w3.org/2000/svg">
  <sodipodi:namedview
     id="namedview15"
     pagecolor="#ffffff"
     bordercolor="#000000"
     borderopacity="0.25"
     inkscape:showpageshadow="2"
     inkscape:pageopacity="0.0"
     inkscape:pagecheckerboard="0"
     inkscape:deskcolor="#d1d1d1"
     showgrid="false"
     inkscape:zoom="52.877419"
     inkscape:cx="19.375"
     inkscape:cy="1.0874207"
     inkscape:window-width="2560"
     inkscape:window-height="1369"
     inkscape:window-x="-8"
     inkscape:window-y="-8"
     inkscape:window-maximized="1"
     inkscape:current-layer="Capa_2" />
  <defs
     id="defs1">
    <style
       id="style1">
      .cls-1 {
        fill: none;
        stroke: #000;
        stroke-linecap: round;
        stroke-linejoin: round;
        stroke-width: .05px;
      }
    </style>
  </defs>
  <g
     id="Capa_1-2"
     data-name="Capa 1"
     transform="translate(-0.005,0.005)">
    <g
       id="g15">
      <polyline
         class="cls-1"
         points="10.5 1.37 19.53 1.37 19.55 1.37 19.55 1.4 19.55 1.43 19.55 1.52 19.55 1.55 19.58 1.55 19.58 1.58 19.61 1.58 20.46 1.58 20.49 1.58 20.52 1.61 20.52 1.82 20.52 1.85 20.49 1.85 20.49 1.88 20.49 1.91 20.46 1.91 20.43 1.94 20.39 1.94"
         id="polyline1" />
      <polyline
         class="cls-1"
         points="10.41 1.55 10.41 1.79 10.41 1.82 10.38 1.82 10.35 1.85 10.11 1.85 10.08 1.85 10.08 1.88 10.08 2.09 10.08 2.12 10.11 2.12 10.11 2.15 10.8 2.15 10.8 2.12 10.83 2.12 10.86 2.09 10.86 1.88 10.83 1.85 10.8 1.85 10.61 1.85 10.61 1.82 10.58 1.82 10.58 1.79 10.58 1.55 19.35 1.55 19.38 1.55 19.38 1.58 19.38 1.7 19.41 1.7 19.41 1.73 19.44 1.73 20.28 1.73 20.28 1.82 20.28 1.85 20.28 1.88 20.3 1.91 20.33 1.91 20.33 1.94 20.36 1.94 20.39 1.94"
         id="polyline2" />
      <polyline
         class="cls-1"
         points="2.52 1.43 2.52 2.09 2.52 2.12 2.49 2.12 2.46 2.12 2.46 2.15 2.33 2.15 .08 2.15 .05 2.12 .03 2.12 .03 2.09 .03 2 .03 1.97 .05 1.97 .08 1.97 .24 1.97 .57 1.97 .6 1.97 .63 1.97 2.28 1.97 2.3 1.97 2.3 1.94 2.33 1.94 2.33 1.91 2.33 1.58 2.3 1.55 2.28 1.55 1.47 1.55 1.44 1.55 1.41 1.52 1.41 1.49 1.41 1.43 1.41 1.4 1.44 1.37 1.47 1.37"
         id="polyline3" />
      <path
         class="cls-1"
         d="m 7.24,0.39 c 0.97,0.62 2.09,0.95 3.24,0.95"
         id="path3" />
      <path
         class="cls-1"
         d="m 6.72,0.03 c 1.07,0.85 2.39,1.32 3.76,1.32"
         id="path4" />
      <path
         class="cls-1"
         d="m 6.66,0.2 c 1.07,0.83 2.38,1.3 3.73,1.32"
         id="path5" />
      <path
         class="cls-1"
         d="M 1.44,1.34 C 2.78,1.32 4.07,0.86 5.11,0.02"
         id="path6" />
      <path
         class="cls-1"
         d="M 2.49,1.42 C 3.47,1.24 4.39,0.82 5.18,0.21"
         id="path7" />
      <line
         class="cls-1"
         x1="6.7199998"
         y1="0.050000001"
         x2="5.1300001"
         y2="0.050000001"
         id="line7" />
      <line
         class="cls-1"
         x1="6.6599998"
         y1="0.23"
         x2="5.1900001"
         y2="0.23"
         id="line8" />
    </g>
  </g>
</svg>
