<?xml version="1.0" encoding="UTF-8"?>
<svg id="Capa_2" data-name="Capa 2" xmlns="http://www.w3.org/2000/svg" viewBox="0 0 30.11 6.09">
  <defs>
    <style>
      .cls-1 {
        fill: none;
        stroke: #000;
        stroke-linecap: round;
        stroke-linejoin: round;
        stroke-width: .1px;
      }
    </style>
  </defs>
  <g id="_0" data-name="0">
    <g>
      <g id="LWPOLYLINE">
        <line class="cls-1" x1="22.55" y1="4.43" x2="22.55" y2="4.3"/>
      </g>
      <g id="LWPOLYLINE-2" data-name="LWPOLYLINE">
        <path class="cls-1" d="m22.55,4.3v1.02c0,.06.04.1.1.1h.36c.06,0,.1.04.1.1v.43c0,.06-.04.1-.1.1h-1.43c-.06,0-.1-.04-.1-.1v-.43c0-.06.04-.1.1-.1h.49c.06,0,.1-.04.1-.1v-1.09"/>
      </g>
      <g id="LWPOLYLINE-3" data-name="LWPOLYLINE">
        <path class="cls-1" d="m7.02,4.43v.28c0,.06-.04.1-.1.1h-1.54c-.06,0-.1.04-.1.1v1.04c0,.06-.04.1-.1.1H.15c-.06,0-.1-.04-.1-.1v-.18c0-.06.04-.1.1-.1h1.05l.05.03.05-.03h3.51c.06,0,.1-.04.1-.1v-.66c0-.06-.04-.1-.1-.1h-1.74c-.06,0-.1-.04-.1-.1v-.18c0-.06.04-.1.1-.1h3.58"/>
      </g>
      <g id="ARC">
        <path class="cls-1" d="m13.15.61c-2.11-1.18-4.78-.42-5.95,1.69-.36.65-.56,1.39-.56,2.13"/>
      </g>
      <g id="ARC-2" data-name="ARC">
        <path class="cls-1" d="m12.97.93c-1.93-1.08-4.37-.39-5.44,1.54-.33.6-.51,1.27-.51,1.95"/>
      </g>
      <g id="ARC-3" data-name="ARC">
        <path class="cls-1" d="m13.15.61c4.58,2.49,9.71,3.8,14.93,3.82"/>
      </g>
      <g id="ARC-4" data-name="ARC">
        <path class="cls-1" d="m12.97.94c2.88,1.57,5.98,2.68,9.2,3.29"/>
      </g>
      <g id="ARC-5" data-name="ARC">
        <path class="cls-1" d="m22.55,4.3c1.7.31,3.42.47,5.15.5"/>
      </g>
      <g id="LWPOLYLINE-4" data-name="LWPOLYLINE">
        <path class="cls-1" d="m28.08,4.43v.33c0,.06.04.1.1.1h1.78c.06,0,.1.04.1.1v.43c0,.14-.11.25-.25.25h0c-.14,0-.25-.11-.25-.25v-.18h-1.75c-.06,0-.1-.04-.1-.1v-.3"/>
      </g>
    </g>
  </g>
</svg>