<?xml version="1.0" encoding="UTF-8" standalone="no"?>
<svg
   id="Capa_2"
   data-name="Capa 2"
   viewBox="0 0 21.280001 3.8501273"
   version="1.1"
   sodipodi:docname="matrix11_g.svg"
   width="21.280001"
   height="3.8501272"
   inkscape:version="1.3.2 (091e20e, 2023-11-25, custom)"
   xmlns:inkscape="http://www.inkscape.org/namespaces/inkscape"
   xmlns:sodipodi="http://sodipodi.sourceforge.net/DTD/sodipodi-0.dtd"
   xmlns="http://www.w3.org/2000/svg"
   xmlns:svg="http://www.w3.org/2000/svg">
  <sodipodi:namedview
     id="namedview33"
     pagecolor="#ffffff"
     bordercolor="#000000"
     borderopacity="0.25"
     inkscape:showpageshadow="2"
     inkscape:pageopacity="0.0"
     inkscape:pagecheckerboard="0"
     inkscape:deskcolor="#d1d1d1"
     showgrid="false"
     inkscape:zoom="51.873418"
     inkscape:cx="19.75"
     inkscape:cy="1.9374085"
     inkscape:window-width="2560"
     inkscape:window-height="1369"
     inkscape:window-x="-8"
     inkscape:window-y="-8"
     inkscape:window-maximized="1"
     inkscape:current-layer="Capa_2" />
  <defs
     id="defs1">
    <style
       id="style1">
      .cls-1 {
        fill: none;
        stroke: #000;
        stroke-linecap: round;
        stroke-linejoin: round;
        stroke-width: .05px;
      }
    </style>
  </defs>
  <g
     id="Capa_1-2"
     data-name="Capa 1"
     transform="translate(-0.005,-0.00487281)">
    <g
       id="g33">
      <polyline
         class="cls-1"
         points="2.85 3.27 2.54 3.27 2.51 3.27 2.51 3.3 2.48 3.3 2.48 3.8 2.48 3.83 2.45 3.83 2.3 3.83 .05 3.83 .03 3.83 .03 3.8 .03 3.72 .03 3.69 .05 3.69 .05 3.66 .23 3.66 .57 3.66 .57 3.69 .6 3.66 2.28 3.66 2.3 3.66 2.3 3.63 2.3 3.3 2.3 3.27 2.28 3.27 1.44 3.27 1.41 3.27 1.41 3.24 1.41 3.21 1.41 3.11 1.41 3.08 1.44 3.08 2.85 3.08"
         id="polyline1" />
      <polyline
         class="cls-1"
         points="16.95 3.27 15.69 3.27 15.66 3.27 15.66 3.24 15.63 3.24 15.63 3.21 15.66 3.18 17.3 .3"
         id="polyline2" />
      <polyline
         class="cls-1"
         points="19.79 3.3 20.45 3.3 20.48 3.3 20.48 3.33 20.48 3.54 20.48 3.57 20.48 3.6 20.45 3.6 20.45 3.63 20.42 3.63 20.42 3.66 20.39 3.66 20.36 3.66"
         id="polyline3" />
      <polyline
         class="cls-1"
         points="19.79 3.45 20.25 3.45 20.25 3.54 20.25 3.57 20.28 3.57 20.28 3.6 20.3 3.63 20.33 3.66 20.36 3.66"
         id="polyline4" />
      <polyline
         class="cls-1"
         points="19.55 .24 17.82 3.24 17.82 3.27 17.79 3.27 16.95 3.27"
         id="polyline5" />
      <polyline
         class="cls-1"
         points="17.54 3.08 17.7 3.08 17.73 3.05 19.47 .05"
         id="polyline6" />
      <polyline
         class="cls-1"
         points="21.26 .11 19.64 2.94 19.47 3.21 19.47 3.24 19.47 3.27 19.5 3.27 19.5 3.3 19.53 3.3 19.79 3.3"
         id="polyline7" />
      <polyline
         class="cls-1"
         points="19.79 3.45 19.23 3.45 19.2 3.45 19.2 3.42 19.2 3.36"
         id="polyline8" />
      <path
         class="cls-1"
         d="m 19.48,0.03 c 0,0 -0.03,0 -0.04,0.02"
         id="path8" />
      <path
         class="cls-1"
         d="m 21.23,0.09 c 0,0 0,-0.03 0,-0.04 0,-0.01 -0.02,-0.02 -0.04,-0.02"
         id="path9" />
      <polyline
         class="cls-1"
         points="19.2 3.33 19.44 2.94 20.94 .3"
         id="polyline9" />
      <path
         class="cls-1"
         d="m 20.93,0.27 c 0,0 0,-0.03 0,-0.04 0,-0.01 -0.02,-0.02 -0.04,-0.02"
         id="path10" />
      <line
         class="cls-1"
         x1="19.5"
         y1="0.050000001"
         x2="21.200001"
         y2="0.050000001"
         id="line10" />
      <line
         class="cls-1"
         x1="19.58"
         y1="0.23999999"
         x2="20.91"
         y2="0.23999999"
         id="line11" />
      <path
         class="cls-1"
         d="m 19.57,0.21 c 0,0 -0.03,0 -0.04,0.02"
         id="path11" />
      <path
         class="cls-1"
         d="m 19.17,3.32 c 0,0 0,0.01 0,0.02"
         id="path12" />
      <polyline
         class="cls-1"
         points="15.92 .24 14.19 3.24 14.19 3.27 14.16 3.27 10.64 3.27 10.61 3.27 10.61 3.3 10.61 3.51 10.61 3.54 10.64 3.54 10.82 3.54 10.82 3.57 10.86 3.57 10.86 3.6 10.86 3.8 10.86 3.83 10.82 3.83 10.14 3.83 10.11 3.83 10.11 3.8 10.11 3.6 10.11 3.57 10.14 3.57 10.14 3.54 10.38 3.54 10.41 3.54 10.44 3.51 10.44 3.3 10.41 3.3 10.41 3.27 10.38 3.27 8.48 3.27 2.85 3.27"
         id="polyline12" />
      <polyline
         class="cls-1"
         points="2.85 3.08 6.78 3.08 14.04 3.08 14.07 3.08 14.07 3.05 14.1 3.05 15.8 .05"
         id="polyline13" />
      <polyline
         class="cls-1"
         points="17.64 .11 15.95 3 15.95 3.03 15.95 3.05 15.95 3.08 15.98 3.08 17.54 3.08"
         id="polyline14" />
      <path
         class="cls-1"
         d="m 15.85,0.03 c 0,0 -0.03,0 -0.04,0.02"
         id="path14" />
      <path
         class="cls-1"
         d="m 17.6,0.09 c 0,0 0,-0.03 0,-0.04 0,-0.01 -0.02,-0.02 -0.04,-0.02"
         id="path15" />
      <path
         class="cls-1"
         d="m 17.3,0.27 c 0,0 0,-0.03 0,-0.04 0,-0.01 -0.02,-0.02 -0.04,-0.02"
         id="path16" />
      <line
         class="cls-1"
         x1="15.86"
         y1="0.050000001"
         x2="17.57"
         y2="0.050000001"
         id="line16" />
      <line
         class="cls-1"
         x1="15.95"
         y1="0.23999999"
         x2="17.280001"
         y2="0.23999999"
         id="line17" />
      <path
         class="cls-1"
         d="m 15.94,0.21 c 0,0 -0.03,0 -0.04,0.02"
         id="path17" />
    </g>
  </g>
</svg>
