<?xml version="1.0" encoding="UTF-8" standalone="no"?>
<svg
   id="Capa_2"
   data-name="Capa 2"
   viewBox="0 0 23.99 3.6"
   version="1.1"
   sodipodi:docname="matriz2_d.svg"
   inkscape:version="1.3.2 (091e20e, 2023-11-25, custom)"
   xmlns:inkscape="http://www.inkscape.org/namespaces/inkscape"
   xmlns:sodipodi="http://sodipodi.sourceforge.net/DTD/sodipodi-0.dtd"
   xmlns="http://www.w3.org/2000/svg"
   xmlns:svg="http://www.w3.org/2000/svg">
  <sodipodi:namedview
     id="namedview1"
     pagecolor="#ffffff"
     bordercolor="#000000"
     borderopacity="0.25"
     inkscape:showpageshadow="2"
     inkscape:pageopacity="0.0"
     inkscape:pagecheckerboard="0"
     inkscape:deskcolor="#d1d1d1"
     showgrid="false"
     inkscape:zoom="85.410589"
     inkscape:cx="11.995"
     inkscape:cy="1.7972011"
     inkscape:window-width="2560"
     inkscape:window-height="1369"
     inkscape:window-x="-8"
     inkscape:window-y="-8"
     inkscape:window-maximized="1"
     inkscape:current-layer="LWPOLYLINE" />
  <defs
     id="defs1">
    <style
       id="style1">
      .cls-1 {
        fill: none;
        stroke: #000;
        stroke-linecap: round;
        stroke-linejoin: round;
        stroke-width: .1px;
      }
    </style>
  </defs>
  <g
     id="_0"
     data-name="0">
    <g
       id="LWPOLYLINE">
      <path
         class="cls-1"
         d="m 19.540016,0.05000002 h 2.320001 c 0.06,0 0.100001,0.04000001 0.100001,0.10000004 V 1.9300006 c 0,0 0,0.33 0,0.33 0,0.060001 0.03999,0.1 0.09999,0.1 h 1.780002 c 0.06,0 0.09999,0.039999 0.09999,0.1 v 0.4300007 c 0,0.14 -0.109999,0.25 -0.25,0.25 v 0 c -0.14,0 -0.249999,-0.11 -0.249999,-0.25 V 2.7100007 h -1.750002 c -0.06,0 -0.100001,-0.039999 -0.100001,-0.1 V 0.53000015 c 0,-0.0599999 -0.03999,-0.10000003 -0.09999,-0.10000003 h -1.940001 c 0,0 -12.3300102,0 -12.3300102,0 -0.059999,0 -0.099999,0.0400001 -0.099999,0.10000003 V 2.2100006 c 0,0.060001 -0.04,0.1 -0.1,0.1 H 5.3800043 c -0.059999,0 -0.099999,0.039999 -0.099999,0.1 v 1.0400003 c 0,0.06 -0.04,0.1 -0.1,0.1 H 0.15000011 c -0.06000005,0 -0.10000009,-0.04 -0.10000009,-0.1 v -0.18 c 0,-0.060001 0.04000004,-0.1 0.10000009,-0.1 H 1.2000009 l 0.05,0.03 0.05,-0.03 h 3.5100023 c 0.059999,0 0.1,-0.039999 0.1,-0.1 V 2.4100006 c 0,-0.060001 -0.04,-0.1 -0.1,-0.1 H 3.0700025 c -0.059999,0 -0.1000001,-0.039999 -0.1000001,-0.1 V 2.0300005 c 0,-0.06 0.04,-0.1 0.1000001,-0.1 h 3.580003 c 0.059999,0 0.099999,-0.039999 0.099999,-0.1 V 0.15000006 c 0,-0.06000003 0.04,-0.10000004 0.1,-0.10000004 H 19.550016 Z"
         id="path1"
         style="stroke-width:0.05;stroke-dasharray:none" />
    </g>
  </g>
</svg>
