<?xml version="1.0" encoding="UTF-8"?>
<svg id="Capa_2" data-name="Capa 2" xmlns="http://www.w3.org/2000/svg" viewBox="0 0 20.51 3.71">
  <defs>
    <style>
      .cls-1 {
        fill: none;
        stroke: #000;
        stroke-miterlimit: 10;
        stroke-width: .05px;
      }
    </style>
  </defs>
  <g id="Capa_1-2" data-name="Capa 1">
    <g>
      <polyline class="cls-1" points="17.78 2.9 17.78 3.06 17.78 3.09 17.75 3.09 10.7 3.09 10.67 3.09 10.67 3.12 10.64 3.12 10.64 3.15 10.64 3.32 10.64 3.35 10.64 3.38 10.67 3.38 10.7 3.38 10.85 3.38 10.88 3.38 10.91 3.41 10.91 3.44 10.91 3.62 10.91 3.65 10.88 3.68 10.85 3.68 10.19 3.68 10.16 3.68 10.13 3.65 10.13 3.62 10.13 3.44 10.13 3.41 10.16 3.38 10.19 3.38 10.41 3.38 10.44 3.38 10.47 3.38 10.47 3.35 10.47 3.32 10.47 3.15 10.47 3.12 10.44 3.12 10.44 3.09 10.41 3.09 3.66 3.09 3.03 3.09 2.54 3.09 2.51 3.09 2.51 3.12 2.51 3.15 2.48 3.15 2.48 3.62 2.48 3.65 2.48 3.68 2.45 3.68 2.33 3.68 .05 3.68 .03 3.68 .03 3.65 .03 3.62 .03 3.56 .03 3.53 .03 3.5 .05 3.5 .23 3.5 .56 3.5 .59 3.53 .59 3.5 2.28 3.5 2.3 3.5 2.3 3.47 2.33 3.47 2.33 3.44 2.33 3.15 2.3 3.12 2.3 3.09 2.28 3.09 1.44 3.09 1.41 3.09 1.41 3.06 1.41 2.96 1.41 2.93 1.44 2.93 1.44 2.9 2.57 2.9"/>
      <line class="cls-1" x1="3.56" y1="2.9" x2="17.06" y2="2.9"/>
      <path class="cls-1" d="m1.39,1.81c.51.69,1.31,1.09,2.16,1.09"/>
      <path class="cls-1" d="m1.39,2.1c.32.36.72.64,1.17.81"/>
      <path class="cls-1" d="m3.55,3.09h0"/>
      <line class="cls-1" x1="1.41" y1="2.09" x2="1.41" y2="1.82"/>
      <polyline class="cls-1" points="19.55 3.06 19.55 3.09 19.58 3.12 19.61 3.12 20.45 3.12 20.48 3.12 20.48 3.15 20.48 3.17 20.48 3.35 20.48 3.38 20.48 3.41 20.45 3.44 20.42 3.47 20.39 3.47 20.36 3.47"/>
      <polyline class="cls-1" points="19.37 3.15 19.37 3.23 19.37 3.26 19.41 3.26 19.41 3.29 19.44 3.29 20.25 3.29 20.25 3.35 20.28 3.38 20.28 3.41 20.28 3.44 20.3 3.44 20.3 3.47 20.33 3.47 20.36 3.47"/>
      <path class="cls-1" d="m19.21,1.06c-.22-.64-.84-1.07-1.52-1.03-.68.04-1.25.52-1.4,1.19s.17,1.35.77,1.66"/>
      <path class="cls-1" d="m19.04,1.11c-.22-.65-.89-1.02-1.55-.88-.67.15-1.11.77-1.04,1.45s.65,1.19,1.33,1.19"/>
      <path class="cls-1" d="m19.22,1.08c.08.23.18.44.31.64"/>
      <path class="cls-1" d="m19.53,1.72s0-.02,0-.03"/>
      <path class="cls-1" d="m19.04,1.13c.08.22.18.44.31.63"/>
      <path class="cls-1" d="m19.37,1.78s0-.02,0-.02"/>
      <line class="cls-1" x1="19.55" y1="3.06" x2="19.55" y2="1.73"/>
      <line class="cls-1" x1="19.37" y1="3.15" x2="19.37" y2="1.79"/>
    </g>
  </g>
</svg>