<?xml version="1.0" encoding="UTF-8" standalone="no"?>
<svg
   id="Capa_2"
   data-name="Capa 2"
   viewBox="0 0 20.540001 1.79"
   version="1.1"
   sodipodi:docname="matrix13_g.svg"
   width="20.540001"
   height="1.79"
   inkscape:version="1.3.2 (091e20e, 2023-11-25, custom)"
   xmlns:inkscape="http://www.inkscape.org/namespaces/inkscape"
   xmlns:sodipodi="http://sodipodi.sourceforge.net/DTD/sodipodi-0.dtd"
   xmlns="http://www.w3.org/2000/svg"
   xmlns:svg="http://www.w3.org/2000/svg">
  <sodipodi:namedview
     id="namedview21"
     pagecolor="#ffffff"
     bordercolor="#000000"
     borderopacity="0.25"
     inkscape:showpageshadow="2"
     inkscape:pageopacity="0.0"
     inkscape:pagecheckerboard="0"
     inkscape:deskcolor="#d1d1d1"
     showgrid="false"
     inkscape:zoom="52.877419"
     inkscape:cx="19.375"
     inkscape:cy="0.89830405"
     inkscape:window-width="2560"
     inkscape:window-height="1369"
     inkscape:window-x="-8"
     inkscape:window-y="-8"
     inkscape:window-maximized="1"
     inkscape:current-layer="Capa_2" />
  <defs
     id="defs1">
    <style
       id="style1">
      .cls-1 {
        fill: none;
        stroke: #000;
        stroke-linecap: round;
        stroke-linejoin: round;
        stroke-width: .05px;
      }
    </style>
  </defs>
  <g
     id="Capa_1-2"
     data-name="Capa 1"
     transform="translate(-0.005,-0.005)">
    <g
       id="g21">
      <polyline
         class="cls-1"
         points="19.55 .99 19.55 1.14 19.55 1.17 19.58 1.17 19.58 1.2 19.61 1.2 20.46 1.2 20.49 1.2 20.52 1.23 20.52 1.44 20.52 1.47 20.49 1.47 20.49 1.5 20.49 1.53 20.46 1.53 20.43 1.55 20.39 1.55"
         id="polyline1" />
      <polyline
         class="cls-1"
         points="19.38 1.14 19.38 1.32 19.41 1.32 19.41 1.35 19.44 1.35 20.28 1.35 20.28 1.44 20.28 1.47 20.28 1.5 20.3 1.53 20.33 1.53 20.33 1.55 20.36 1.55 20.39 1.55"
         id="polyline2" />
      <polyline
         class="cls-1"
         points="12.3 1.17 10.61 1.17 10.58 1.17 10.58 1.2 10.58 1.41 10.58 1.44 10.61 1.44 10.61 1.47 10.8 1.47 10.83 1.47 10.86 1.5 10.86 1.71 10.83 1.74 10.8 1.74 10.8 1.77 10.11 1.77 10.11 1.74 10.08 1.74 10.08 1.71 10.08 1.5 10.08 1.47 10.11 1.47 10.35 1.47 10.38 1.44 10.41 1.44 10.41 1.41 10.41 1.2 10.38 1.17 10.35 1.17 2.55 1.17 2.52 1.17 2.52 1.2 2.52 1.47"
         id="polyline3" />
      <polyline
         class="cls-1"
         points="2.52 1.2 2.52 1.71 2.52 1.74 2.49 1.74 2.46 1.74 2.46 1.77 2.33 1.77 .08 1.77 .05 1.74 .03 1.74 .03 1.71 .03 1.61 .03 1.58 .05 1.58 .08 1.58 .24 1.58 .57 1.58 .6 1.58 .63 1.58 2.28 1.58 2.3 1.58 2.3 1.55 2.33 1.55 2.33 1.52 2.33 1.2 2.3 1.17 2.28 1.17 1.47 1.17 1.44 1.17 1.41 1.14 1.41 1.11 1.41 1.05 1.41 1.02 1.44 .99 1.47 .99"
         id="polyline4" />
      <path
         class="cls-1"
         d="m 18.14,0.03 c 0.24,0.57 0.78,0.94 1.4,0.95"
         id="path4" />
      <path
         class="cls-1"
         d="m 18.03,0.21 c 0.26,0.52 0.76,0.87 1.33,0.94"
         id="path5" />
      <path
         class="cls-1"
         d="m 12.28,0.99 c 0.62,0 1.19,-0.38 1.43,-0.95"
         id="path6" />
      <path
         class="cls-1"
         d="m 12.28,1.17 c 0.65,0 1.25,-0.37 1.54,-0.95"
         id="path7" />
      <line
         class="cls-1"
         x1="13.74"
         y1="0.029999999"
         x2="14.52"
         y2="0.029999999"
         id="line7" />
      <line
         class="cls-1"
         x1="13.86"
         y1="0.20999999"
         x2="14.43"
         y2="0.20999999"
         id="line8" />
      <path
         class="cls-1"
         d="m 14.51,0.03 c 0.24,0.58 0.8,0.95 1.43,0.95 0.63,0 1.19,-0.38 1.43,-0.95"
         id="path8" />
      <path
         class="cls-1"
         d="m 14.4,0.21 c 0.29,0.58 0.89,0.95 1.54,0.95 0.65,0 1.25,-0.37 1.54,-0.95"
         id="path9" />
      <line
         class="cls-1"
         x1="17.360001"
         y1="0.029999999"
         x2="18.18"
         y2="0.029999999"
         id="line9" />
      <line
         class="cls-1"
         x1="17.49"
         y1="0.20999999"
         x2="18.049999"
         y2="0.20999999"
         id="line10" />
      <line
         class="cls-1"
         x1="1.47"
         y1="0.99000001"
         x2="12.3"
         y2="0.99000001"
         id="line11" />
    </g>
  </g>
</svg>
