<?xml version="1.0" encoding="UTF-8" standalone="no"?>
<svg
   id="Capa_2"
   data-name="Capa 2"
   viewBox="0 0 20.5 3.8501273"
   version="1.1"
   sodipodi:docname="matrix11_l.svg"
   width="20.5"
   height="3.8501272"
   inkscape:version="1.3.2 (091e20e, 2023-11-25, custom)"
   xmlns:inkscape="http://www.inkscape.org/namespaces/inkscape"
   xmlns:sodipodi="http://sodipodi.sourceforge.net/DTD/sodipodi-0.dtd"
   xmlns="http://www.w3.org/2000/svg"
   xmlns:svg="http://www.w3.org/2000/svg">
  <sodipodi:namedview
     id="namedview28"
     pagecolor="#ffffff"
     bordercolor="#000000"
     borderopacity="0.25"
     inkscape:showpageshadow="2"
     inkscape:pageopacity="0.0"
     inkscape:pagecheckerboard="0"
     inkscape:deskcolor="#d1d1d1"
     showgrid="false"
     inkscape:zoom="52.877419"
     inkscape:cx="19.375"
     inkscape:cy="1.9384456"
     inkscape:window-width="2560"
     inkscape:window-height="1369"
     inkscape:window-x="-8"
     inkscape:window-y="-8"
     inkscape:window-maximized="1"
     inkscape:current-layer="Capa_2" />
  <defs
     id="defs1">
    <style
       id="style1">
      .cls-1 {
        fill: none;
        stroke: #000;
        stroke-linecap: round;
        stroke-linejoin: round;
        stroke-width: .05px;
      }
    </style>
  </defs>
  <g
     id="Capa_1-2"
     data-name="Capa 1"
     transform="translate(-0.005,-0.00487281)">
    <g
       id="g28">
      <line
         class="cls-1"
         x1="6.9499998"
         y1="3.05"
         x2="17.25"
         y2="3.05"
         id="line1" />
      <polyline
         class="cls-1"
         points="19.79 3.26 20.45 3.26 20.48 3.26 20.48 3.3 20.48 3.33 20.48 3.51 20.48 3.54 20.48 3.57 20.45 3.6 20.42 3.63 20.39 3.63 20.36 3.63"
         id="polyline1" />
      <polyline
         class="cls-1"
         points="19.79 3.45 20.25 3.45 20.25 3.51 20.25 3.54 20.28 3.57 20.28 3.6 20.3 3.6 20.3 3.63 20.33 3.63 20.36 3.63"
         id="polyline2" />
      <polyline
         class="cls-1"
         points="3.03 3.05 3.14 3.05 3.17 3.05 3.17 3.03 3.17 3 1.5 .08"
         id="polyline3" />
      <polyline
         class="cls-1"
         points="6.95 3.05 5.1 3.05 5.07 3.05 5.04 3.05 5.04 3.03 3.32 .05"
         id="polyline4" />
      <polyline
         class="cls-1"
         points="3.03 3.05 1.44 3.05 1.41 3.05 1.41 3.08 1.41 3.11 1.41 3.2 1.41 3.23 1.44 3.23 2.28 3.23 2.3 3.23 2.3 3.26 2.3 3.3 2.3 3.6 2.3 3.63 2.3 3.66 2.28 3.66 .6 3.66 .57 3.66 .23 3.66 .05 3.66 .03 3.66 .03 3.69 .03 3.78 .03 3.8 .03 3.83 .05 3.83 2.3 3.83 2.45 3.83 2.48 3.8 2.48 3.78 2.48 3.3 2.48 3.26 2.51 3.26 2.51 3.23 2.54 3.23 3.45 3.23 3.48 3.23 3.48 3.2 3.51 3.2 3.51 3.17 3.48 3.17 1.82 .26"
         id="polyline5" />
      <path
         class="cls-1"
         d="m 3.29,0.05 c 0,0 -0.02,-0.02 -0.04,-0.02"
         id="path5" />
      <path
         class="cls-1"
         d="m 1.54,0.03 c 0,0 -0.03,0 -0.04,0.02 0,0.01 0,0.03 0,0.05"
         id="path6" />
      <path
         class="cls-1"
         d="m 1.84,0.2 c 0,0 -0.03,0 -0.04,0.02 0,0.01 0,0.03 0,0.04"
         id="path7" />
      <line
         class="cls-1"
         x1="3.26"
         y1="0.029999999"
         x2="1.55"
         y2="0.029999999"
         id="line7" />
      <line
         class="cls-1"
         x1="3.1700001"
         y1="0.2"
         x2="1.86"
         y2="0.2"
         id="line8" />
      <path
         class="cls-1"
         d="m 3.2,0.23 c 0,0 -0.02,-0.02 -0.04,-0.02"
         id="path8" />
      <polyline
         class="cls-1"
         points="17.25 3.05 17.7 3.05 17.73 3.05 17.73 3.03 17.73 3 16.04 .08"
         id="polyline8" />
      <polyline
         class="cls-1"
         points="17.76 .23 19.41 3.05 19.41 3.08 19.41 3.39 19.41 3.42 19.44 3.42 19.44 3.45 19.79 3.45"
         id="polyline9" />
      <polyline
         class="cls-1"
         points="19.79 3.26 19.61 3.26 19.58 3.26 19.58 3.23 19.58 3.2 19.58 3.03 17.88 .05"
         id="polyline10" />
      <polyline
         class="cls-1"
         points="3.2 .23 4.95 3.2 4.95 3.23 4.98 3.23 8.51 3.23 10.41 3.23 10.44 3.23 10.44 3.26 10.47 3.26 10.47 3.3 10.47 3.48 10.47 3.51 10.44 3.51 10.44 3.54 10.41 3.54 10.2 3.54 10.17 3.54 10.14 3.54 10.14 3.57 10.14 3.78 10.14 3.8 10.17 3.83 10.2 3.83 10.86 3.83 10.89 3.83 10.89 3.8 10.92 3.8 10.92 3.78 10.92 3.57 10.89 3.57 10.89 3.54 10.86 3.54 10.67 3.54 10.64 3.54 10.64 3.51 10.64 3.48 10.64 3.3 10.64 3.26 10.67 3.23 18 3.23 18.03 3.23 18.03 3.2 18.05 3.2 18.05 3.17 18.03 3.17 16.38 .26"
         id="polyline11" />
      <path
         class="cls-1"
         d="m 17.84,0.05 c 0,0 -0.02,-0.02 -0.04,-0.02"
         id="path11" />
      <path
         class="cls-1"
         d="m 16.09,0.03 c 0,0 -0.03,0 -0.04,0.02 0,0.01 0,0.03 0,0.05"
         id="path12" />
      <path
         class="cls-1"
         d="m 16.39,0.2 c 0,0 -0.03,0 -0.04,0.02 0,0.01 0,0.03 0,0.04"
         id="path13" />
      <line
         class="cls-1"
         x1="17.82"
         y1="0.029999999"
         x2="16.1"
         y2="0.029999999"
         id="line13" />
      <line
         class="cls-1"
         x1="17.73"
         y1="0.2"
         x2="16.41"
         y2="0.2"
         id="line14" />
      <path
         class="cls-1"
         d="m 17.75,0.23 c 0,0 -0.02,-0.02 -0.04,-0.02"
         id="path14" />
    </g>
  </g>
</svg>
