<?xml version="1.0" encoding="UTF-8" standalone="no"?>
<svg
   id="Capa_2"
   data-name="Capa 2"
   viewBox="0 0 20.5 1.6787162"
   version="1.1"
   sodipodi:docname="matrix9_g.svg"
   width="20.5"
   height="1.6787162"
   inkscape:version="1.3.2 (091e20e, 2023-11-25, custom)"
   xmlns:inkscape="http://www.inkscape.org/namespaces/inkscape"
   xmlns:sodipodi="http://sodipodi.sourceforge.net/DTD/sodipodi-0.dtd"
   xmlns="http://www.w3.org/2000/svg"
   xmlns:svg="http://www.w3.org/2000/svg">
  <sodipodi:namedview
     id="namedview47"
     pagecolor="#ffffff"
     bordercolor="#000000"
     borderopacity="0.25"
     inkscape:showpageshadow="2"
     inkscape:pageopacity="0.0"
     inkscape:pagecheckerboard="0"
     inkscape:deskcolor="#d1d1d1"
     showgrid="false"
     inkscape:zoom="52.877419"
     inkscape:cx="24.386591"
     inkscape:cy="0.63354075"
     inkscape:window-width="2560"
     inkscape:window-height="1369"
     inkscape:window-x="-8"
     inkscape:window-y="-8"
     inkscape:window-maximized="1"
     inkscape:current-layer="g47" />
  <defs
     id="defs1">
    <style
       id="style1">
      .cls-1 {
        fill: none;
        stroke: #000;
        stroke-linecap: round;
        stroke-linejoin: round;
        stroke-width: .05px;
      }
    </style>
  </defs>
  <g
     id="Capa_1-2"
     data-name="Capa 1"
     transform="translate(-0.005,0.00371618)">
    <g
       id="g47">
      <polyline
         class="cls-1"
         points="19.55 .93 19.55 1.05 19.55 1.08 19.58 1.08 19.61 1.08 20.45 1.08 20.48 1.08 20.48 1.11 20.48 1.14 20.48 1.35 20.48 1.38 20.48 1.41 20.45 1.41 20.45 1.44 20.42 1.44 20.39 1.44 20.36 1.47"
         id="polyline1" />
      <polyline
         class="cls-1"
         points="19.37 1.17 19.37 1.2 19.37 1.23 19.41 1.23 19.41 1.26 19.44 1.26 20.25 1.26 20.25 1.35 20.28 1.35 20.28 1.38 20.28 1.41 20.3 1.44 20.33 1.44 20.36 1.44 20.36 1.47"
         id="polyline2" />
      <polyline
         class="cls-1"
         points="19.04 .87 19.04 1.02 19.04 1.05 19.01 1.05 18.98 1.05 18.03 1.05"
         id="polyline3" />
      <polyline
         class="cls-1"
         points="17 .87 17 1.02 17 1.05 16.97 1.05 15.98 1.05"
         id="polyline4" />
      <polyline
         class="cls-1"
         points="15 .87 15 1.02 14.97 1.05 14.94 1.05 13.94 1.05"
         id="polyline5" />
      <polyline
         class="cls-1"
         points="12.95 .87 12.95 1.02 12.95 1.05 12.92 1.05 12.89 1.05 10.7 1.05 10.67 1.05 10.67 1.08 10.64 1.08 10.64 1.11 10.64 1.32 10.64 1.35 10.67 1.35 10.7 1.35 10.85 1.35 10.88 1.35 10.91 1.38 10.91 1.41 10.91 1.59 10.91 1.62 10.88 1.65 10.85 1.65 10.19 1.65 10.16 1.65 10.13 1.62 10.13 1.59 10.13 1.41 10.13 1.38 10.16 1.35 10.19 1.35 10.41 1.35 10.44 1.35 10.47 1.35 10.47 1.32 10.47 1.11 10.47 1.08 10.44 1.08 10.44 1.05 10.41 1.05 9.89 1.05 2.63 1.05 2.54 1.05 2.51 1.08 2.51 1.11 2.48 1.11 2.48 1.59 2.48 1.62 2.48 1.65 2.45 1.65 2.33 1.65 .05 1.65 .03 1.65 .03 1.62 .03 1.59 .03 1.53 .03 1.5 .03 1.47 .05 1.47 .23 1.47 .56 1.47 .59 1.5 .59 1.47 2.28 1.47 2.3 1.47 2.3 1.44 2.33 1.44 2.33 1.41 2.33 1.11 2.3 1.08 2.28 1.05 1.44 1.05 1.41 1.05 1.41 1.02"
         id="polyline6" />
      <polyline
         class="cls-1"
         points="1.82 .87 2.39 .87 11.94 .87 12.56 .87"
         id="polyline7" />
      <line
         class="cls-1"
         x1="13.94"
         y1="0.87"
         x2="14.6"
         y2="0.87"
         id="line7" />
      <line
         class="cls-1"
         x1="15.98"
         y1="0.87"
         x2="16.639999"
         y2="0.87"
         id="line8" />
      <line
         class="cls-1"
         x1="18.030001"
         y1="0.87"
         x2="18.66"
         y2="0.87"
         id="line9" />
      <path
         class="cls-1"
         d="m 17.48,0.43 c -0.04,-0.21 -0.2,-0.37 -0.4,-0.4 -0.21,-0.04 -0.41,0.06 -0.51,0.24 -0.1,0.18 -0.08,0.41 0.05,0.57"
         id="path9" />
      <path
         class="cls-1"
         d="M 17.3,0.46 C 17.27,0.3 17.12,0.18 16.95,0.2 c -0.17,0.02 -0.29,0.16 -0.28,0.33 0,0.17 0.15,0.3 0.31,0.3"
         id="path10" />
      <path
         class="cls-1"
         d="m 19.52,0.53 c 0,-0.22 -0.14,-0.42 -0.35,-0.48 -0.21,-0.06 -0.44,0.02 -0.56,0.2 -0.12,0.18 -0.11,0.43 0.04,0.59"
         id="path11" />
      <path
         class="cls-1"
         d="m 19.34,0.52 c 0,-0.17 -0.14,-0.31 -0.31,-0.32 -0.17,-0.01 -0.31,0.14 -0.32,0.31 0,0.17 0.13,0.32 0.31,0.32"
         id="path12" />
      <path
         class="cls-1"
         d="m 17.52,0.46 c 0.04,0.24 0.25,0.41 0.49,0.41"
         id="path13" />
      <path
         class="cls-1"
         d="m 17.35,0.49 c 0.06,0.32 0.34,0.56 0.66,0.56"
         id="path14" />
      <line
         class="cls-1"
         x1="19.549999"
         y1="0.93000001"
         x2="19.549999"
         y2="0.56999999"
         id="line14" />
      <line
         class="cls-1"
         x1="19.370001"
         y1="1.17"
         x2="19.370001"
         y2="0.54000002"
         id="line15" />
      <path
         class="cls-1"
         d="M 1.47,0.73 C 1.56,0.82 1.68,0.87 1.81,0.87"
         id="path15" />
      <path
         class="cls-1"
         d="m 1.45,0.73 c 0,0 -0.03,-0.02 -0.05,0 -0.02,0 -0.03,0.02 -0.03,0.04"
         id="path16" />
      <line
         class="cls-1"
         x1="1.41"
         y1="1.02"
         x2="1.41"
         y2="0.77999997"
         id="line16" />
      <path
         class="cls-1"
         d="m 15.47,0.43 c -0.04,-0.21 -0.2,-0.37 -0.4,-0.4 -0.21,-0.04 -0.41,0.06 -0.51,0.24 -0.1,0.18 -0.08,0.41 0.05,0.57"
         id="path17" />
      <path
         class="cls-1"
         d="M 15.29,0.46 C 15.26,0.3 15.11,0.18 14.94,0.2 c -0.17,0.02 -0.29,0.16 -0.28,0.33 0,0.17 0.15,0.3 0.31,0.3"
         id="path18" />
      <path
         class="cls-1"
         d="m 15.48,0.46 c 0.04,0.24 0.25,0.41 0.49,0.41"
         id="path19" />
      <path
         class="cls-1"
         d="m 15.31,0.49 c 0.06,0.32 0.34,0.56 0.66,0.56"
         id="path20" />
      <path
         class="cls-1"
         d="m 13.43,0.43 c -0.04,-0.21 -0.2,-0.37 -0.4,-0.4 -0.21,-0.04 -0.41,0.06 -0.51,0.24 -0.1,0.18 -0.08,0.41 0.05,0.57"
         id="path21" />
      <path
         class="cls-1"
         d="M 13.25,0.46 C 13.22,0.3 13.07,0.18 12.9,0.2 c -0.17,0.02 -0.29,0.16 -0.28,0.33 0,0.17 0.15,0.3 0.31,0.3"
         id="path22" />
      <path
         class="cls-1"
         d="m 13.44,0.46 c 0.04,0.24 0.25,0.41 0.49,0.41"
         id="path23" />
      <path
         class="cls-1"
         d="m 13.27,0.49 c 0.06,0.32 0.34,0.56 0.66,0.56"
         id="path24" />
    </g>
  </g>
</svg>
