<?xml version="1.0" encoding="UTF-8" standalone="no"?>
<svg
   id="Capa_2"
   data-name="Capa 2"
   viewBox="0 0 20.5 1.6456957"
   version="1.1"
   sodipodi:docname="matrix9_h.svg"
   width="20.5"
   height="1.6456957"
   inkscape:version="1.3.2 (091e20e, 2023-11-25, custom)"
   xmlns:inkscape="http://www.inkscape.org/namespaces/inkscape"
   xmlns:sodipodi="http://sodipodi.sourceforge.net/DTD/sodipodi-0.dtd"
   xmlns="http://www.w3.org/2000/svg"
   xmlns:svg="http://www.w3.org/2000/svg">
  <sodipodi:namedview
     id="namedview23"
     pagecolor="#ffffff"
     bordercolor="#000000"
     borderopacity="0.25"
     inkscape:showpageshadow="2"
     inkscape:pageopacity="0.0"
     inkscape:pagecheckerboard="0"
     inkscape:deskcolor="#d1d1d1"
     showgrid="false"
     inkscape:zoom="256"
     inkscape:cx="19.814453"
     inkscape:cy="0.79882812"
     inkscape:window-width="2560"
     inkscape:window-height="1369"
     inkscape:window-x="-8"
     inkscape:window-y="-8"
     inkscape:window-maximized="1"
     inkscape:current-layer="g23" />
  <defs
     id="defs1">
    <style
       id="style1">
      .cls-1 {
        fill: none;
        stroke: #000;
        stroke-linecap: round;
        stroke-linejoin: round;
        stroke-width: .05px;
      }
    </style>
  </defs>
  <g
     id="Capa_1-2"
     data-name="Capa 1"
     transform="translate(-0.005,6.9569568e-4)">
    <g
       id="g23">
      <polyline
         class="cls-1"
         points="19.55 .9 19.55 1.02 19.55 1.05 19.58 1.05 19.58 1.08 19.61 1.08 20.45 1.08 20.48 1.08 20.48 1.11 20.48 1.32 20.48 1.35 20.48 1.38 20.45 1.38 20.45 1.41 20.42 1.41 20.42 1.44 20.39 1.44 20.36 1.44"
         id="polyline1" />
      <polyline
         class="cls-1"
         points="19.37 1.14 19.37 1.2 19.41 1.23 19.44 1.23 20.25 1.23 20.25 1.32 20.28 1.35 20.28 1.38 20.3 1.41 20.33 1.44 20.36 1.44"
         id="polyline2" />
      <polyline
         class="cls-1"
         points="19.04 .87 19.04 .99 19.04 1.02 19.01 1.02 19.01 1.05 18.98 1.05 18.03 1.05"
         id="polyline3" />
      <polyline
         class="cls-1"
         points="17 .87 17 .99 17 1.02 17 1.05 16.97 1.05 10.7 1.05 10.67 1.05 10.64 1.05 10.64 1.08 10.64 1.29 10.64 1.32 10.67 1.32 10.7 1.35 10.85 1.35 10.88 1.35 10.91 1.35 10.91 1.38 10.91 1.59 10.91 1.62 10.88 1.62 10.85 1.62 10.19 1.62 10.16 1.62 10.13 1.62 10.13 1.59 10.13 1.38 10.13 1.35 10.16 1.35 10.19 1.35 10.41 1.35 10.44 1.32 10.47 1.32 10.47 1.29 10.47 1.08 10.47 1.05 10.44 1.05 10.41 1.05 9.89 1.05 2.63 1.05 2.54 1.05 2.51 1.05 2.51 1.08 2.48 1.08 2.48 1.59 2.48 1.62 2.45 1.62 2.33 1.62 .05 1.62 .03 1.62 .03 1.59 .03 1.5 .03 1.47 .05 1.47 .05 1.44 .23 1.44 .56 1.44 .59 1.47 .59 1.44 2.28 1.44 2.3 1.44 2.3 1.41 2.33 1.41 2.33 1.08 2.3 1.08 2.3 1.05 2.28 1.05 1.44 1.05 1.41 1.02 1.41 .99"
         id="polyline4" />
      <polyline
         class="cls-1"
         points="1.82 .87 2.39 .87 15.98 .87 16.64 .87"
         id="polyline5" />
      <line
         class="cls-1"
         x1="18.030001"
         y1="0.87"
         x2="18.66"
         y2="0.87"
         id="line5" />
      <path
         class="cls-1"
         d="M 17.48,0.43 C 17.44,0.22 17.28,0.06 17.08,0.03 16.88,0 16.67,0.09 16.57,0.27 c -0.1,0.18 -0.08,0.41 0.05,0.57"
         id="path5" />
      <path
         class="cls-1"
         d="M 17.3,0.46 C 17.27,0.3 17.12,0.18 16.95,0.2 c -0.17,0.02 -0.29,0.16 -0.28,0.33 0,0.17 0.15,0.3 0.31,0.3"
         id="path6" />
      <path
         class="cls-1"
         d="m 19.52,0.53 c 0,-0.22 -0.14,-0.42 -0.35,-0.48 -0.21,-0.06 -0.44,0.02 -0.56,0.2 -0.12,0.18 -0.11,0.43 0.04,0.59"
         id="path7" />
      <path
         class="cls-1"
         d="m 19.34,0.52 c 0,-0.17 -0.14,-0.31 -0.31,-0.32 -0.17,-0.01 -0.31,0.14 -0.32,0.31 0,0.17 0.13,0.32 0.31,0.32"
         id="path8" />
      <path
         class="cls-1"
         d="m 17.52,0.43 c 0.04,0.24 0.25,0.41 0.49,0.41"
         id="path9" />
      <path
         class="cls-1"
         d="m 17.35,0.46 c 0.06,0.32 0.34,0.56 0.66,0.56"
         id="path10" />
      <line
         class="cls-1"
         x1="19.549999"
         y1="0.89999998"
         x2="19.549999"
         y2="0.54000002"
         id="line10" />
      <line
         class="cls-1"
         x1="19.370001"
         y1="1.14"
         x2="19.370001"
         y2="0.54000002"
         id="line11" />
      <path
         class="cls-1"
         d="M 1.47,0.7 C 1.56,0.79 1.68,0.84 1.81,0.84"
         id="path11" />
      <path
         class="cls-1"
         d="m 1.45,0.7 c 0,0 -0.03,-0.02 -0.05,0 -0.02,0 -0.03,0.02 -0.03,0.04"
         id="path12" />
      <line
         class="cls-1"
         x1="1.41"
         y1="0.99000001"
         x2="1.41"
         y2="0.75"
         id="line12" />
    </g>
  </g>
</svg>
