<?xml version="1.0" encoding="UTF-8" standalone="no"?>
<svg
   id="Capa_2"
   data-name="Capa 2"
   viewBox="0 0 20.540001 1.79"
   version="1.1"
   sodipodi:docname="matrix13_b.svg"
   width="20.540001"
   height="1.79"
   inkscape:version="1.3.2 (091e20e, 2023-11-25, custom)"
   xmlns:inkscape="http://www.inkscape.org/namespaces/inkscape"
   xmlns:sodipodi="http://sodipodi.sourceforge.net/DTD/sodipodi-0.dtd"
   xmlns="http://www.w3.org/2000/svg"
   xmlns:svg="http://www.w3.org/2000/svg">
  <sodipodi:namedview
     id="namedview27"
     pagecolor="#ffffff"
     bordercolor="#000000"
     borderopacity="0.25"
     inkscape:showpageshadow="2"
     inkscape:pageopacity="0.0"
     inkscape:pagecheckerboard="0"
     inkscape:deskcolor="#d1d1d1"
     showgrid="false"
     inkscape:zoom="52.877419"
     inkscape:cx="19.375"
     inkscape:cy="0.89830405"
     inkscape:window-width="2560"
     inkscape:window-height="1369"
     inkscape:window-x="-8"
     inkscape:window-y="-8"
     inkscape:window-maximized="1"
     inkscape:current-layer="Capa_2" />
  <defs
     id="defs1">
    <style
       id="style1">
      .cls-1 {
        fill: none;
        stroke: #000;
        stroke-linecap: round;
        stroke-linejoin: round;
        stroke-width: .05px;
      }
    </style>
  </defs>
  <g
     id="Capa_1-2"
     data-name="Capa 1"
     transform="translate(-0.005,0.005)">
    <g
       id="g27">
      <polyline
         class="cls-1"
         points="19.55 .98 19.55 1.13 19.55 1.16 19.58 1.16 19.58 1.19 19.61 1.19 20.46 1.19 20.49 1.19 20.49 1.22 20.52 1.22 20.52 1.25 20.52 1.43 20.52 1.46 20.49 1.49 20.49 1.52 20.46 1.52 20.46 1.55 20.43 1.55 20.39 1.55"
         id="polyline1" />
      <polyline
         class="cls-1"
         points="19.38 1.16 19.38 1.31 19.41 1.34 19.44 1.34 19.44 1.37 20.28 1.37 20.28 1.43 20.28 1.46 20.28 1.49 20.3 1.52 20.33 1.55 20.36 1.55 20.39 1.55"
         id="polyline2" />
      <polyline
         class="cls-1"
         points="15.96 1.16 10.61 1.16 10.58 1.19 10.58 1.22 10.58 1.4 10.58 1.43 10.58 1.46 10.61 1.46 10.8 1.46 10.83 1.46 10.83 1.49 10.86 1.49 10.86 1.7 10.86 1.73 10.83 1.73 10.83 1.76 10.8 1.76 10.11 1.76 10.08 1.73 10.08 1.7 10.08 1.49 10.08 1.46 10.11 1.46 10.35 1.46 10.38 1.46 10.38 1.43 10.41 1.43 10.41 1.4 10.41 1.22 10.41 1.19 10.38 1.19 10.38 1.16 10.35 1.16 5.04 1.16"
         id="polyline3" />
      <polyline
         class="cls-1"
         points="2.52 1.22 2.52 1.7 2.52 1.73 2.49 1.73 2.49 1.76 2.46 1.76 2.33 1.76 .08 1.76 .05 1.76 .05 1.73 .03 1.73 .03 1.7 .03 1.61 .03 1.58 .05 1.58 .08 1.58 .24 1.58 .57 1.58 .6 1.58 .63 1.58 2.28 1.58 2.3 1.58 2.3 1.55 2.33 1.55 2.33 1.52 2.33 1.22 2.33 1.19 2.3 1.19 2.3 1.16 2.28 1.16 1.47 1.16 1.44 1.16 1.41 1.16 1.41 1.13 1.41 1.04 1.41 1.01 1.44 1.01 1.44 .98 1.47 .98"
         id="polyline4" />
      <polyline
         class="cls-1"
         points="2.16 .98 2.46 .98 2.49 .98 2.49 1.01 2.52 1.01 2.52 1.04 2.52 1.46"
         id="polyline5" />
      <path
         class="cls-1"
         d="M 1.44,0.97 C 2.03,0.94 2.55,0.57 2.78,0.02"
         id="path5" />
      <path
         class="cls-1"
         d="M 2.13,0.98 C 2.47,0.81 2.74,0.54 2.91,0.21"
         id="path6" />
      <path
         class="cls-1"
         d="m 3.59,0.03 c 0.24,0.58 0.8,0.95 1.43,0.95"
         id="path7" />
      <path
         class="cls-1"
         d="M 3.48,0.2 C 3.77,0.78 4.37,1.15 5.02,1.15"
         id="path8" />
      <path
         class="cls-1"
         d="m 18.14,0.03 c 0.24,0.57 0.78,0.94 1.4,0.95"
         id="path9" />
      <path
         class="cls-1"
         d="m 18.03,0.2 c 0.26,0.52 0.76,0.87 1.33,0.94"
         id="path10" />
      <line
         class="cls-1"
         x1="3.5999999"
         y1="0.050000001"
         x2="2.8199999"
         y2="0.050000001"
         id="line10" />
      <line
         class="cls-1"
         x1="3.48"
         y1="0.2"
         x2="2.9100001"
         y2="0.2"
         id="line11" />
      <path
         class="cls-1"
         d="m 15.94,0.98 c 0.62,0 1.19,-0.38 1.43,-0.95"
         id="path11" />
      <path
         class="cls-1"
         d="m 15.94,1.16 c 0.65,0 1.25,-0.37 1.54,-0.95"
         id="path12" />
      <line
         class="cls-1"
         x1="17.360001"
         y1="0.050000001"
         x2="18.18"
         y2="0.050000001"
         id="line12" />
      <line
         class="cls-1"
         x1="17.49"
         y1="0.2"
         x2="18.049999"
         y2="0.2"
         id="line13" />
      <line
         class="cls-1"
         x1="5.04"
         y1="0.98000002"
         x2="15.96"
         y2="0.98000002"
         id="line14" />
    </g>
  </g>
</svg>
