<?xml version="1.0" encoding="UTF-8"?>
<svg id="Capa_2" data-name="Capa 2" xmlns="http://www.w3.org/2000/svg" viewBox="0 0 43.24 7.76">
  <defs>
    <style>
      .cls-1 {
        fill: none;
        stroke: #000;
        stroke-linecap: round;
        stroke-linejoin: round;
        stroke-width: .1px;
      }
    </style>
  </defs>
  <g id="_0" data-name="0">
    <g>
      <g id="LWPOLYLINE">
        <path class="cls-1" d="m41.11,6.1c.06,0,.1.04.1.1v.23c0,.06.04.1.1.1h1.78c.06,0,.1.04.1.1v.43c0,.14-.11.25-.25.25h0c-.14,0-.25-.11-.25-.25v-.18h-1.75c-.06,0-.1-.04-.1-.1v-.2c0-.06-.04-.1-.1-.1h-18.2c-.06,0-.1.04-.1.1v.41c0,.06.04.1.1.1h.36c.06,0,.1.04.1.1v.43c0,.06-.04.1-.1.1h-1.43c-.06,0-.1-.04-.1-.1v-.43c0-.06.04-.1.1-.1h.49c.06,0,.1-.04.1-.1v-.41c0-.06-.04-.1-.1-.1H6.36s-.98,0-.98,0c-.06,0-.1.04-.1.1v1.04c0,.06-.04.1-.1.1H.15c-.06,0-.1-.04-.1-.1v-.18c0-.06.04-.1.1-.1h1.05l.05.03.05-.03h3.51c.06,0,.1-.04.1-.1v-.66c0-.06-.04-.1-.1-.1h-1.74c-.06,0-.1-.04-.1-.1v-.18c0-.06.04-.1.1-.1h4.3"/>
      </g>
      <g id="LWPOLYLINE-2" data-name="LWPOLYLINE">
        <line class="cls-1" x1="10.38" y1="6.1" x2="13.64" y2="6.1"/>
      </g>
      <g id="LWPOLYLINE-3" data-name="LWPOLYLINE">
        <line class="cls-1" x1="14.44" y1="6.1" x2="14.47" y2="6.1"/>
      </g>
      <g id="LWPOLYLINE-4" data-name="LWPOLYLINE">
        <line class="cls-1" x1="15.27" y1="6.1" x2="17.46" y2="6.1"/>
      </g>
      <g id="LWPOLYLINE-5" data-name="LWPOLYLINE">
        <line class="cls-1" x1="19.93" y1="6.1" x2="22.2" y2="6.1"/>
      </g>
      <g id="LWPOLYLINE-6" data-name="LWPOLYLINE">
        <line class="cls-1" x1="23" y1="6.1" x2="23.04" y2="6.1"/>
      </g>
      <g id="LWPOLYLINE-7" data-name="LWPOLYLINE">
        <line class="cls-1" x1="23.83" y1="6.1" x2="27.34" y2="6.1"/>
      </g>
      <g id="LWPOLYLINE-8" data-name="LWPOLYLINE">
        <line class="cls-1" x1="30.36" y1="6.1" x2="34.58" y2="6.1"/>
      </g>
      <g id="LWPOLYLINE-9" data-name="LWPOLYLINE">
        <line class="cls-1" x1="37.06" y1="6.1" x2="39.33" y2="6.1"/>
      </g>
      <g id="LWPOLYLINE-10" data-name="LWPOLYLINE">
        <line class="cls-1" x1="40.12" y1="6.1" x2="40.16" y2="6.1"/>
      </g>
      <g id="LWPOLYLINE-11" data-name="LWPOLYLINE">
        <line class="cls-1" x1="40.96" y1="6.1" x2="41.11" y2="6.1"/>
      </g>
      <g id="ARC">
        <path class="cls-1" d="m15.27,6.1c.38-.45.33-1.13-.12-1.51s-1.13-.33-1.51.12c-.34.4-.34.99,0,1.39"/>
      </g>
      <g id="ARC-2" data-name="ARC">
        <path class="cls-1" d="m23.83,6.1c.38-.45.33-1.13-.12-1.51s-1.13-.33-1.51.12c-.34.4-.34.99,0,1.39"/>
      </g>
      <g id="ARC-3" data-name="ARC">
        <path class="cls-1" d="m40.96,6.1c.38-.45.33-1.13-.12-1.51s-1.13-.33-1.51.12c-.34.4-.34.99,0,1.39"/>
      </g>
      <g id="CIRCLE">
        <circle class="cls-1" cx="14.46" cy="5.4" r=".69"/>
      </g>
      <g id="CIRCLE-2" data-name="CIRCLE">
        <circle class="cls-1" cx="23.02" cy="5.4" r=".69"/>
      </g>
      <g id="CIRCLE-3" data-name="CIRCLE">
        <circle class="cls-1" cx="40.14" cy="5.4" r=".69"/>
      </g>
      <g id="ARC-4" data-name="ARC">
        <path class="cls-1" d="m10.38,6.1c1.57-.83,2.16-2.78,1.33-4.34S8.93-.41,7.36.43s-2.16,2.78-1.33,4.34c.3.56.76,1.03,1.33,1.33"/>
      </g>
      <g id="CIRCLE-4" data-name="CIRCLE">
        <circle class="cls-1" cx="8.87" cy="3.26" r="2.83"/>
      </g>
      <g id="ARC-5" data-name="ARC">
        <path class="cls-1" d="m19.93,6.1c1.02-.68,1.29-2.06.61-3.08-.68-1.02-2.06-1.29-3.08-.61-1.02.68-1.29,2.06-.61,3.08.16.24.37.45.61.61"/>
      </g>
      <g id="CIRCLE-5" data-name="CIRCLE">
        <circle class="cls-1" cx="18.69" cy="4.25" r="1.85"/>
      </g>
      <g id="ARC-6" data-name="ARC">
        <path class="cls-1" d="m37.06,6.1c1.02-.68,1.29-2.06.61-3.08s-2.06-1.29-3.08-.61c-1.02.68-1.29,2.06-.61,3.08.16.24.37.45.61.61"/>
      </g>
      <g id="CIRCLE-6" data-name="CIRCLE">
        <circle class="cls-1" cx="35.82" cy="4.25" r="1.85"/>
      </g>
      <g id="ARC-7" data-name="ARC">
        <path class="cls-1" d="m30.36,6.1c1.57-.83,2.16-2.78,1.33-4.34-.83-1.57-2.78-2.16-4.34-1.33s-2.16,2.78-1.33,4.34c.3.56.76,1.03,1.33,1.33"/>
      </g>
      <g id="CIRCLE-7" data-name="CIRCLE">
        <circle class="cls-1" cx="28.85" cy="3.26" r="2.83"/>
      </g>
    </g>
  </g>
</svg>