<?xml version="1.0" encoding="UTF-8"?>
<svg id="Capa_2" data-name="Capa 2" xmlns="http://www.w3.org/2000/svg" viewBox="0 0 20.51 3.68">
  <defs>
    <style>
      .cls-1 {
        fill: none;
        stroke: #000;
        stroke-miterlimit: 10;
        stroke-width: .05px;
      }
    </style>
  </defs>
  <g id="Capa_1-2" data-name="Capa 1">
    <g>
      <polyline class="cls-1" points="19.55 2.63 19.55 3.05 19.55 3.08 19.58 3.08 19.61 3.08 20.45 3.08 20.48 3.11 20.48 3.14 20.48 3.35 20.48 3.38 20.48 3.41 20.45 3.41 20.45 3.44 20.42 3.44 20.39 3.48 20.36 3.48"/>
      <polyline class="cls-1" points="19.37 2.91 19.37 3.2 19.37 3.23 19.41 3.23 19.41 3.26 19.44 3.26 20.25 3.26 20.25 3.35 20.28 3.35 20.28 3.38 20.28 3.41 20.3 3.44 20.33 3.44 20.36 3.48"/>
      <polyline class="cls-1" points="4.19 2.91 4.19 3.03 4.19 3.05 4.22 3.05 4.25 3.08 4.91 3.08"/>
      <polyline class="cls-1" points="8.91 2.91 8.91 3.03 8.91 3.05 8.94 3.05 8.97 3.08 10.41 3.08 10.44 3.08 10.47 3.08 10.47 3.11 10.47 3.32 10.47 3.35 10.44 3.35 10.41 3.35 10.19 3.35 10.16 3.35 10.16 3.38 10.13 3.38 10.13 3.41 10.13 3.62 10.13 3.66 10.16 3.66 10.19 3.66 10.85 3.66 10.88 3.66 10.91 3.66 10.91 3.62 10.91 3.41 10.91 3.38 10.88 3.38 10.88 3.35 10.85 3.35 10.7 3.35 10.67 3.35 10.64 3.35 10.64 3.32 10.64 3.11 10.64 3.08 10.67 3.08 10.7 3.08 18.41 3.08"/>
      <polyline class="cls-1" points="1.58 2.73 1.58 2.85 1.58 2.87 1.61 2.87 1.61 2.91 2.45 2.91 2.48 2.91 2.48 2.93 2.48 3.62 2.48 3.66 2.45 3.66 2.33 3.66 .05 3.66 .03 3.66 .03 3.62 .03 3.54 .03 3.5 .05 3.48 .23 3.48 .56 3.48 .59 3.5 .59 3.48 2.28 3.48 2.3 3.48 2.3 3.44 2.33 3.44 2.33 3.11 2.3 3.11 2.3 3.08 2.28 3.08 1.44 3.08 1.44 3.05 1.41 3.05 1.41 3.03 1.41 2.6"/>
      <line class="cls-1" x1="9.62" y1="2.91" x2="18.41" y2="2.91"/>
      <path class="cls-1" d="m9.6,2.88c.6-.32.91-1,.77-1.66S9.65.06,8.97.03c-.68-.04-1.3.38-1.52,1.03"/>
      <path class="cls-1" d="m8.89,2.87c.68,0,1.25-.51,1.33-1.19.07-.68-.37-1.3-1.04-1.45-.67-.15-1.33.23-1.55.88"/>
      <path class="cls-1" d="m4.9,2.87c1.15,0,2.18-.74,2.54-1.83"/>
      <path class="cls-1" d="m7.34,1.69c.11-.18.21-.38.28-.59"/>
      <path class="cls-1" d="m4.9,3.05c.99,0,1.92-.52,2.44-1.36"/>
      <path class="cls-1" d="m4.89,2.88c.6-.32.91-1,.77-1.66-.15-.66-.72-1.15-1.4-1.19-.68-.04-1.3.38-1.52,1.03"/>
      <path class="cls-1" d="m4.18,2.87c.68,0,1.25-.51,1.33-1.19.07-.68-.37-1.3-1.04-1.45-.67-.15-1.33.23-1.55.88"/>
      <path class="cls-1" d="m1.38,2.6c.64-.32,1.13-.87,1.36-1.55"/>
      <path class="cls-1" d="m1.56,2.71c.64-.35,1.12-.92,1.35-1.6"/>
      <path class="cls-1" d="m18.4,2.87c.39,0,.77-.08,1.13-.25"/>
      <path class="cls-1" d="m18.4,3.05c.32,0,.64-.05.95-.16"/>
    </g>
  </g>
</svg>