<?xml version="1.0" encoding="UTF-8" standalone="no"?>
<svg
   id="Capa_2"
   data-name="Capa 2"
   viewBox="0 0 20.540001 1.75"
   version="1.1"
   sodipodi:docname="matrix13_a.svg"
   width="20.540001"
   height="1.75"
   inkscape:version="1.3.2 (091e20e, 2023-11-25, custom)"
   xmlns:inkscape="http://www.inkscape.org/namespaces/inkscape"
   xmlns:sodipodi="http://sodipodi.sourceforge.net/DTD/sodipodi-0.dtd"
   xmlns="http://www.w3.org/2000/svg"
   xmlns:svg="http://www.w3.org/2000/svg">
  <sodipodi:namedview
     id="namedview15"
     pagecolor="#ffffff"
     bordercolor="#000000"
     borderopacity="0.25"
     inkscape:showpageshadow="2"
     inkscape:pageopacity="0.0"
     inkscape:pagecheckerboard="0"
     inkscape:deskcolor="#d1d1d1"
     showgrid="false"
     inkscape:zoom="52.877419"
     inkscape:cx="19.375"
     inkscape:cy="0.87939239"
     inkscape:window-width="2560"
     inkscape:window-height="1369"
     inkscape:window-x="-8"
     inkscape:window-y="-8"
     inkscape:window-maximized="1"
     inkscape:current-layer="Capa_2" />
  <defs
     id="defs1">
    <style
       id="style1">
      .cls-1 {
        fill: none;
        stroke: #000;
        stroke-linecap: round;
        stroke-linejoin: round;
        stroke-width: .05px;
      }
    </style>
  </defs>
  <g
     id="Capa_1-2"
     data-name="Capa 1"
     transform="translate(-0.005,-0.005)">
    <g
       id="g15">
      <polyline
         class="cls-1"
         points="12.3 .98 19.53 .98 19.55 .98 19.55 1.01 19.55 1.13 19.55 1.16 19.58 1.16 19.58 1.19 19.61 1.19 20.46 1.19 20.49 1.19 20.52 1.22 20.52 1.44 20.52 1.47 20.49 1.47 20.49 1.5 20.49 1.53 20.46 1.53 20.43 1.55 20.39 1.55"
         id="polyline1" />
      <polyline
         class="cls-1"
         points="12.3 1.16 19.35 1.16 19.38 1.16 19.38 1.19 19.38 1.31 19.41 1.31 19.41 1.34 19.44 1.34 20.28 1.34 20.28 1.44 20.28 1.47 20.28 1.5 20.3 1.53 20.33 1.53 20.33 1.55 20.36 1.55 20.39 1.55"
         id="polyline2" />
      <polyline
         class="cls-1"
         points="10.77 .2 10.61 .2 10.58 .23 10.58 .26 10.58 1.4 10.58 1.44 10.61 1.44 10.61 1.47 10.8 1.47 10.83 1.47 10.86 1.5 10.86 1.7 10.83 1.73 10.8 1.73 10.11 1.73 10.08 1.73 10.08 1.7 10.08 1.5 10.08 1.47 10.11 1.47 10.35 1.47 10.38 1.44 10.41 1.44 10.41 1.4 10.41 .26 10.41 .23 10.38 .23 10.38 .2 10.35 .2 10.2 .2"
         id="polyline3" />
      <polyline
         class="cls-1"
         points="2.52 1.19 2.52 1.7 2.52 1.73 2.49 1.73 2.46 1.73 2.33 1.73 .08 1.73 .05 1.73 .03 1.73 .03 1.7 .03 1.61 .03 1.58 .05 1.58 .08 1.58 .24 1.58 .57 1.58 .6 1.58 .63 1.58 2.28 1.58 2.3 1.58 2.3 1.55 2.33 1.55 2.33 1.53 2.33 1.19 2.3 1.16 2.28 1.16 1.47 1.16 1.44 1.16 1.44 1.13 1.41 1.13 1.41 1.1 1.41 1.01 1.41 .98 1.44 .98 1.47 .98"
         id="polyline4" />
      <polyline
         class="cls-1"
         points="8.67 1.16 2.55 1.16 2.52 1.16 2.52 1.19 2.52 1.47"
         id="polyline5" />
      <path
         class="cls-1"
         d="m 8.65,0.98 c 0.62,0 1.19,-0.38 1.43,-0.95"
         id="path5" />
      <path
         class="cls-1"
         d="M 8.65,1.16 C 9.3,1.16 9.9,0.79 10.19,0.21"
         id="path6" />
      <line
         class="cls-1"
         x1="10.08"
         y1="0.029999999"
         x2="10.89"
         y2="0.029999999"
         id="line6" />
      <path
         class="cls-1"
         d="m 10.85,0.03 c 0.24,0.58 0.8,0.95 1.43,0.95"
         id="path7" />
      <path
         class="cls-1"
         d="m 10.74,0.21 c 0.29,0.58 0.89,0.95 1.54,0.95"
         id="path8" />
      <line
         class="cls-1"
         x1="8.6700001"
         y1="0.98000002"
         x2="1.47"
         y2="0.98000002"
         id="line8" />
    </g>
  </g>
</svg>
