<?xml version="1.0" encoding="UTF-8"?>
<svg id="Capa_2" data-name="Capa 2" xmlns="http://www.w3.org/2000/svg" viewBox="0 0 20.51 3.71">
  <defs>
    <style>
      .cls-1 {
        fill: none;
        stroke: #000;
        stroke-miterlimit: 10;
        stroke-width: .05px;
      }
    </style>
  </defs>
  <g id="Capa_1-2" data-name="Capa 1">
    <g>
      <polyline class="cls-1" points="19.5 2.9 19.5 2.9 19.53 2.9 19.55 2.9 19.55 2.94 19.55 2.97 19.55 3.06 19.55 3.09 19.58 3.09 19.58 3.12 19.61 3.12 20.45 3.12 20.48 3.12 20.48 3.15 20.48 3.36 20.48 3.39 20.48 3.42 20.45 3.45 20.42 3.48 20.39 3.48 20.36 3.48"/>
      <polyline class="cls-1" points="19.37 3.09 19.37 3.23 19.37 3.26 19.41 3.26 19.44 3.26 20.25 3.26 20.25 3.36 20.28 3.39 20.28 3.42 20.28 3.45 20.3 3.45 20.3 3.48 20.33 3.48 20.36 3.48"/>
      <polyline class="cls-1" points="11.63 3.09 10.7 3.09 10.67 3.09 10.64 3.12 10.64 3.15 10.64 3.33 10.64 3.36 10.67 3.39 10.7 3.39 10.85 3.39 10.88 3.39 10.91 3.39 10.91 3.42 10.91 3.62 10.91 3.65 10.88 3.65 10.88 3.69 10.85 3.69 10.19 3.69 10.16 3.69 10.16 3.65 10.13 3.65 10.13 3.62 10.13 3.42 10.13 3.39 10.16 3.39 10.19 3.39 10.41 3.39 10.44 3.39 10.47 3.36 10.47 3.33 10.47 3.15 10.47 3.12 10.44 3.09 10.41 3.09 6.59 3.09"/>
      <polyline class="cls-1" points="2.63 3.09 2.54 3.09 2.51 3.09 2.51 3.12 2.48 3.15 2.48 3.62 2.48 3.65 2.45 3.69 2.33 3.69 .05 3.69 .05 3.65 .03 3.65 .03 3.62 .03 3.54 .03 3.51 .05 3.51 .23 3.51 .56 3.51 .59 3.51 2.28 3.51 2.3 3.51 2.3 3.48 2.33 3.45 2.33 3.15 2.33 3.12 2.3 3.12 2.3 3.09 2.28 3.09 1.44 3.09 1.41 3.09 1.41 3.06 1.41 3.03 1.41 2.97 1.41 2.94 1.41 2.9 1.44 2.9 2.57 2.9"/>
      <line class="cls-1" x1="7.28" y1="2.9" x2="11.51" y2="2.9"/>
      <path class="cls-1" d="m7.26,2.88c.6-.32.91-1,.77-1.66S7.31.06,6.63.03c-.68-.04-1.3.38-1.52,1.03"/>
      <path class="cls-1" d="m6.55,2.87c.68,0,1.25-.51,1.33-1.19.07-.68-.37-1.3-1.04-1.45s-1.33.23-1.55.88"/>
      <path class="cls-1" d="m2.56,2.87c1.15,0,2.18-.74,2.54-1.83"/>
      <path class="cls-1" d="m2.62,3.05c1.2-.04,2.24-.81,2.63-1.95"/>
      <path class="cls-1" d="m16.2,2.88c.6-.32.91-1,.77-1.66S16.25.06,15.57.03c-.68-.04-1.3.38-1.52,1.03"/>
      <path class="cls-1" d="m15.49,2.87c.68,0,1.25-.51,1.33-1.19.07-.68-.37-1.3-1.04-1.45s-1.33.23-1.55.88"/>
      <path class="cls-1" d="m11.5,2.87c1.15,0,2.18-.74,2.54-1.83"/>
      <path class="cls-1" d="m11.63,3.05c1.18-.05,2.21-.83,2.58-1.95"/>
      <line class="cls-1" x1="19.5" y1="2.9" x2="16.22" y2="2.9"/>
      <line class="cls-1" x1="19.37" y1="3.09" x2="15.56" y2="3.09"/>
      <line class="cls-1" x1="15.5" y1="3.03" x2="15.5" y2="2.9"/>
      <path class="cls-1" d="m15.5,3.01s.02.04.05.04"/>
      <path class="cls-1" d="m6.53,3.01s.02.04.05.04"/>
      <line class="cls-1" x1="6.56" y1="2.9" x2="6.56" y2="3.03"/>
    </g>
  </g>
</svg>