<?xml version="1.0" encoding="UTF-8"?>
<svg id="Capa_2" data-name="Capa 2" xmlns="http://www.w3.org/2000/svg" viewBox="0 0 29.71 5.14">
  <defs>
    <style>
      .cls-1 {
        fill: none;
        stroke: #000;
        stroke-linecap: round;
        stroke-linejoin: round;
        stroke-width: .1px;
      }
    </style>
  </defs>
  <g id="Capa_1-2" data-name="Capa 1">
    <polygon class="cls-1" points="29.54 4.88 29.51 4.88 29.48 4.88 29.45 4.85 29.45 4.82 29.42 4.82 29.42 4.79 29.42 4.76 29.42 4.7 28.58 4.7 28.58 4.67 28.55 4.67 28.55 4.64 28.55 .29 28.55 .26 28.52 .26 28.49 .23 19.85 .23 19.85 .26 19.82 .26 19.82 .29 19.82 4.73 19.82 4.76 19.82 4.79 19.85 4.79 20.03 4.79 20.06 4.79 20.06 4.82 20.06 5.03 20.06 5.06 20.06 5.09 20.03 5.09 19.34 5.09 19.31 5.09 19.31 5.06 19.31 5.03 19.31 4.82 19.31 4.79 19.34 4.79 19.58 4.79 19.61 4.79 19.61 4.76 19.64 4.76 19.64 4.73 19.64 .29 19.61 .26 19.58 .23 10.52 .23 10.49 .26 10.46 .29 10.46 4.73 10.46 4.76 10.49 4.76 10.49 4.79 10.52 4.79 10.7 4.79 10.73 4.79 10.73 4.82 10.73 5.03 10.73 5.06 10.73 5.09 10.7 5.09 10.01 5.09 9.98 5.09 9.98 5.06 9.98 5.03 9.98 4.82 9.98 4.79 10.01 4.79 10.25 4.79 10.28 4.79 10.28 4.76 10.28 4.73 10.28 .29 10.28 .26 10.25 .26 10.25 .23 3.44 .23 3.41 .26 3.38 .29 3.38 4.46 3.38 4.49 3.35 4.49 2.57 4.49 2.54 4.49 2.54 4.52 2.51 4.52 2.51 4.55 2.51 5.03 2.51 5.06 2.51 5.09 2.48 5.09 2.33 5.09 .08 5.09 .05 5.09 .05 5.06 .05 5.03 .05 4.94 .05 4.91 .08 4.91 .26 4.91 .59 4.91 .62 4.91 2.3 4.91 2.33 4.91 2.33 4.88 2.33 4.85 2.33 4.55 2.33 4.52 2.33 4.49 2.3 4.49 1.46 4.49 1.43 4.49 1.43 4.46 1.43 4.37 1.43 4.34 1.46 4.31 3.17 4.31 3.2 4.31 3.2 4.28 3.2 .11 3.23 .11 3.23 .08 3.26 .08 3.26 .05 28.67 .05 28.67 .08 28.7 .08 28.73 .11 28.73 4.31 28.73 4.46 28.73 4.49 28.73 4.52 28.76 4.52 29.6 4.52 29.63 4.52 29.66 4.55 29.66 4.58 29.66 4.76 29.66 4.79 29.66 4.82 29.63 4.82 29.63 4.85 29.6 4.88 29.57 4.88 29.54 4.88"/>
  </g>
</svg>