<?xml version="1.0" encoding="UTF-8" standalone="no"?>
<svg
   id="Capa_2"
   data-name="Capa 2"
   viewBox="0 0 14.83 5.11"
   version="1.1"
   sodipodi:docname="matriz2_m.svg"
   inkscape:version="1.3.2 (091e20e, 2023-11-25, custom)"
   xmlns:inkscape="http://www.inkscape.org/namespaces/inkscape"
   xmlns:sodipodi="http://sodipodi.sourceforge.net/DTD/sodipodi-0.dtd"
   xmlns="http://www.w3.org/2000/svg"
   xmlns:svg="http://www.w3.org/2000/svg">
  <sodipodi:namedview
     id="namedview1"
     pagecolor="#ffffff"
     bordercolor="#000000"
     borderopacity="0.25"
     inkscape:showpageshadow="2"
     inkscape:pageopacity="0.0"
     inkscape:pagecheckerboard="0"
     inkscape:deskcolor="#d1d1d1"
     showgrid="false"
     inkscape:zoom="138.16588"
     inkscape:cx="7.415"
     inkscape:cy="2.5585188"
     inkscape:window-width="2560"
     inkscape:window-height="1369"
     inkscape:window-x="-8"
     inkscape:window-y="-8"
     inkscape:window-maximized="1"
     inkscape:current-layer="Capa_1-2" />
  <defs
     id="defs1">
    <style
       id="style1">
      .cls-1 {
        fill: none;
        stroke: #000;
        stroke-linecap: round;
        stroke-linejoin: round;
        stroke-width: .1px;
      }
    </style>
  </defs>
  <g
     id="Capa_1-2"
     data-name="Capa 1">
    <polygon
       class="cls-1"
       points="14.66 4.88 14.63 4.88 14.6 4.85 14.57 4.85 14.57 4.82 14.54 4.82 14.54 4.79 14.54 4.76 14.54 4.67 13.7 4.67 13.67 4.67 13.67 4.64 13.64 4.64 13.64 4.61 13.64 .26 13.64 .23 13.61 .23 8.69 .23 8.66 .23 8.66 .26 8.63 .26 8.63 4.73 8.66 4.76 8.69 4.76 8.87 4.76 8.9 4.79 8.9 4.82 8.9 5.03 8.9 5.06 8.87 5.06 8.18 5.06 8.15 5.06 8.15 5.03 8.15 4.82 8.15 4.79 8.18 4.76 8.42 4.76 8.45 4.76 8.45 4.73 8.45 .26 8.45 .23 8.42 .23 3.44 .23 3.41 .23 3.41 .26 3.38 .26 3.38 4.43 3.38 4.46 3.35 4.49 2.57 4.49 2.54 4.49 2.51 4.52 2.51 5.03 2.51 5.06 2.48 5.06 2.33 5.06 .08 5.06 .05 5.06 .05 5.03 .05 4.94 .05 4.91 .08 4.88 .26 4.88 .59 4.88 .62 4.91 .62 4.88 2.3 4.88 2.33 4.88 2.33 4.85 2.33 4.52 2.33 4.49 2.3 4.49 1.46 4.49 1.46 4.46 1.43 4.46 1.43 4.43 1.43 4.34 1.43 4.31 1.46 4.31 3.17 4.31 3.2 4.28 3.2 4.25 3.2 .11 3.23 .08 3.23 .05 3.26 .05 13.79 .05 13.82 .05 13.82 .08 13.82 .11 13.82 4.31 13.82 4.46 13.85 4.49 13.88 4.49 14.72 4.49 14.75 4.52 14.78 4.52 14.78 4.55 14.78 4.76 14.75 4.79 14.75 4.82 14.72 4.85 14.69 4.85 14.66 4.88"
       id="polygon1"
       style="stroke-width:0.05;stroke-dasharray:none" />
  </g>
</svg>
