<?xml version="1.0" encoding="UTF-8" standalone="no"?>
<svg
   id="Capa_2"
   data-name="Capa 2"
   viewBox="0 0 21.280001 3.8601273"
   version="1.1"
   sodipodi:docname="matrix11_j.svg"
   width="21.280001"
   height="3.8601272"
   inkscape:version="1.3.2 (091e20e, 2023-11-25, custom)"
   xmlns:inkscape="http://www.inkscape.org/namespaces/inkscape"
   xmlns:sodipodi="http://sodipodi.sourceforge.net/DTD/sodipodi-0.dtd"
   xmlns="http://www.w3.org/2000/svg"
   xmlns:svg="http://www.w3.org/2000/svg">
  <sodipodi:namedview
     id="namedview74"
     pagecolor="#ffffff"
     bordercolor="#000000"
     borderopacity="0.25"
     inkscape:showpageshadow="2"
     inkscape:pageopacity="0.0"
     inkscape:pagecheckerboard="0"
     inkscape:deskcolor="#d1d1d1"
     showgrid="false"
     inkscape:zoom="51.873418"
     inkscape:cx="19.75"
     inkscape:cy="1.9374085"
     inkscape:window-width="2560"
     inkscape:window-height="1369"
     inkscape:window-x="-8"
     inkscape:window-y="-8"
     inkscape:window-maximized="1"
     inkscape:current-layer="Capa_2" />
  <defs
     id="defs1">
    <style
       id="style1">
      .cls-1 {
        fill: none;
        stroke: #000;
        stroke-linecap: round;
        stroke-linejoin: round;
        stroke-width: .05px;
      }
    </style>
  </defs>
  <g
     id="Capa_1-2"
     data-name="Capa 1"
     transform="translate(-0.005,-0.00487281)">
    <g
       id="g74">
      <line
         class="cls-1"
         x1="17.040001"
         y1="3.05"
         x2="17.540001"
         y2="3.05"
         id="line1" />
      <polyline
         class="cls-1"
         points="19.79 3.27 20.45 3.27 20.48 3.3 20.48 3.33 20.48 3.51 20.48 3.54 20.48 3.57 20.45 3.6 20.42 3.63 20.39 3.63 20.36 3.63"
         id="polyline1" />
      <polyline
         class="cls-1"
         points="19.79 3.45 20.25 3.45 20.25 3.51 20.25 3.54 20.28 3.57 20.28 3.6 20.3 3.6 20.3 3.63 20.33 3.63 20.36 3.63"
         id="polyline2" />
      <polyline
         class="cls-1"
         points="5.01 .24 3.42 3 3.39 3.05 3.36 3.09 3.36 3.21 3.36 3.24 3.32 3.24 2.54 3.24 2.51 3.24 2.51 3.27 2.48 3.27 2.48 3.3 2.48 3.78 2.48 3.8 2.48 3.84 2.45 3.84 2.3 3.84 .05 3.84 .03 3.84 .03 3.8 .03 3.78 .03 3.72 .03 3.69 .03 3.66 .05 3.66 .23 3.66 .57 3.66 .57 3.69 .6 3.66 2.28 3.66 2.3 3.66 2.3 3.63 2.3 3.6 2.3 3.3 2.3 3.27 2.3 3.24 2.28 3.24 1.44 3.24 1.41 3.24 1.41 3.21 1.41 3.12 1.41 3.09 1.44 3.05 3 3.05 3.14 3.05 3.17 3.05 4.92 .05"
         id="polyline3" />
      <polyline
         class="cls-1"
         points="6.72 .09 5.04 3 5.04 3.03 5.04 3.05 5.07 3.05 5.1 3.05 5.28 3.05"
         id="polyline4" />
      <polyline
         class="cls-1"
         points="5.28 3.24 4.79 3.24 4.76 3.24 4.76 3.21 4.76 3.15"
         id="polyline5" />
      <path
         class="cls-1"
         d="m 4.93,0.03 c 0,0 -0.03,0 -0.04,0.02"
         id="path5" />
      <path
         class="cls-1"
         d="m 6.71,0.09 c 0,0 0,-0.03 0,-0.04 0,-0.01 -0.02,-0.02 -0.04,-0.02"
         id="path6" />
      <line
         class="cls-1"
         x1="4.7600002"
         y1="3.1199999"
         x2="6.4200001"
         y2="0.27000001"
         id="line6" />
      <path
         class="cls-1"
         d="m 6.38,0.27 c 0,0 0,-0.03 0,-0.05 C 6.38,0.21 6.36,0.2 6.34,0.2"
         id="path7" />
      <line
         class="cls-1"
         x1="4.9499998"
         y1="0.029999999"
         x2="6.6900001"
         y2="0.029999999"
         id="line7" />
      <line
         class="cls-1"
         x1="5.0700002"
         y1="0.20999999"
         x2="6.3600001"
         y2="0.20999999"
         id="line8" />
      <path
         class="cls-1"
         d="m 5.05,0.21 c 0,0 -0.03,0 -0.04,0.02"
         id="path8" />
      <path
         class="cls-1"
         d="m 4.74,3.11 c 0,0 0,0.01 0,0.02"
         id="path9" />
      <polyline
         class="cls-1"
         points="19.55 .24 17.91 3.05 17.91 3.09 17.91 3.21 17.91 3.24 17.88 3.24 17.04 3.24"
         id="polyline9" />
      <polyline
         class="cls-1"
         points="17.54 3.05 17.7 3.05 17.73 3.05 19.47 .05"
         id="polyline10" />
      <polyline
         class="cls-1"
         points="19.5 .03 21.2 .03 21.23 .03 21.23 .05 21.26 .05 21.26 .09 19.64 2.91 19.47 3.21 19.47 3.24 19.47 3.27 19.5 3.27 19.53 3.27 19.79 3.27"
         id="polyline11" />
      <polyline
         class="cls-1"
         points="19.79 3.45 19.23 3.45 19.2 3.42 19.2 3.39 19.2 3.33"
         id="polyline12" />
      <path
         class="cls-1"
         d="m 19.48,0.03 c 0,0 -0.03,0 -0.04,0.02"
         id="path12" />
      <polyline
         class="cls-1"
         points="19.2 3.3 19.44 2.91 20.94 .27"
         id="polyline13" />
      <path
         class="cls-1"
         d="m 20.93,0.27 c 0,0 0,-0.03 0,-0.05 0,-0.01 -0.02,-0.02 -0.04,-0.02"
         id="path13" />
      <line
         class="cls-1"
         x1="19.58"
         y1="0.20999999"
         x2="20.91"
         y2="0.20999999"
         id="line13" />
      <path
         class="cls-1"
         d="m 19.57,0.21 c 0,0 -0.03,0 -0.04,0.02"
         id="path14" />
      <path
         class="cls-1"
         d="m 19.17,3.29 c 0,0 0,0.01 0,0.02"
         id="path15" />
      <polyline
         class="cls-1"
         points="12.26 .24 10.64 3.05 10.64 3.09 10.64 3.48 10.64 3.51 10.64 3.54 10.67 3.54 10.86 3.54 10.89 3.54 10.89 3.57 10.92 3.57 10.92 3.6 10.92 3.78 10.92 3.8 10.89 3.8 10.89 3.84 10.86 3.84 10.2 3.84 10.17 3.84 10.14 3.84 10.14 3.8 10.14 3.78 10.14 3.6 10.14 3.57 10.14 3.54 10.17 3.54 10.2 3.54 10.41 3.54 10.44 3.54 10.47 3.51 10.47 3.48 10.47 3.3 10.47 3.27 10.44 3.27 10.44 3.24 10.41 3.24 9.03 3.24"
         id="polyline15" />
      <polyline
         class="cls-1"
         points="9.03 3.05 10.41 3.05 10.44 3.05 12.17 .05"
         id="polyline16" />
      <polyline
         class="cls-1"
         points="13.98 .09 12.29 3 12.29 3.03 12.29 3.05 12.32 3.05 12.35 3.05 13.82 3.05"
         id="polyline17" />
      <polyline
         class="cls-1"
         points="13.82 3.24 12.05 3.24 12.03 3.24 12.03 3.21 12.03 3.15 12.03 3.12 13.67 .27"
         id="polyline18" />
      <path
         class="cls-1"
         d="m 12.19,0.03 c 0,0 -0.03,0 -0.04,0.02"
         id="path18" />
      <path
         class="cls-1"
         d="m 13.97,0.09 c 0,0 0,-0.03 0,-0.04 0,-0.01 -0.02,-0.02 -0.04,-0.02"
         id="path19" />
      <path
         class="cls-1"
         d="m 13.64,0.27 c 0,0 0,-0.03 0,-0.05 0,-0.01 -0.02,-0.02 -0.04,-0.02"
         id="path20" />
      <line
         class="cls-1"
         x1="12.2"
         y1="0.029999999"
         x2="13.95"
         y2="0.029999999"
         id="line20" />
      <line
         class="cls-1"
         x1="12.32"
         y1="0.20999999"
         x2="13.61"
         y2="0.20999999"
         id="line21" />
      <path
         class="cls-1"
         d="m 12.31,0.21 c 0,0 -0.03,0 -0.04,0.02"
         id="path21" />
      <line
         class="cls-1"
         x1="8.9099998"
         y1="3.05"
         x2="9.0299997"
         y2="3.05"
         id="line22" />
      <polyline
         class="cls-1"
         points="8.64 .24 7.04 3 7.01 3.05 7.01 3.09 7.01 3.21 6.98 3.21 6.98 3.24 6.95 3.24 5.28 3.24"
         id="polyline22" />
      <polyline
         class="cls-1"
         points="5.28 3.05 6.63 3.05 6.78 3.05 6.8 3.05 8.54 .05"
         id="polyline23" />
      <polyline
         class="cls-1"
         points="10.35 .09 8.67 3 8.67 3.03 8.67 3.05 8.7 3.05 8.73 3.05 8.91 3.05"
         id="polyline24" />
      <polyline
         class="cls-1"
         points="8.91 3.24 8.45 3.24 8.42 3.24 8.39 3.24 8.39 3.21 8.39 3.15"
         id="polyline25" />
      <path
         class="cls-1"
         d="m 8.56,0.03 c 0,0 -0.03,0 -0.04,0.02"
         id="path25" />
      <path
         class="cls-1"
         d="m 10.34,0.09 c 0,0 0,-0.03 0,-0.04 0,-0.01 -0.02,-0.02 -0.04,-0.02"
         id="path26" />
      <line
         class="cls-1"
         x1="8.3900003"
         y1="3.1199999"
         x2="10.04"
         y2="0.27000001"
         id="line26" />
      <path
         class="cls-1"
         d="m 10.01,0.27 c 0,0 0,-0.03 0,-0.05 C 10.01,0.21 9.99,0.2 9.97,0.2"
         id="path27" />
      <line
         class="cls-1"
         x1="8.5699997"
         y1="0.029999999"
         x2="10.32"
         y2="0.029999999"
         id="line27" />
      <line
         class="cls-1"
         x1="8.6999998"
         y1="0.20999999"
         x2="9.9799995"
         y2="0.20999999"
         id="line28" />
      <path
         class="cls-1"
         d="m 8.68,0.21 c 0,0 -0.03,0 -0.04,0.02"
         id="path28" />
      <path
         class="cls-1"
         d="m 8.4,3.11 c 0,0 0,0.01 0,0.02"
         id="path29" />
      <line
         class="cls-1"
         x1="9.0299997"
         y1="3.24"
         x2="8.9099998"
         y2="3.24"
         id="line29" />
      <line
         class="cls-1"
         x1="16.200001"
         y1="3.05"
         x2="17.040001"
         y2="3.05"
         id="line30" />
      <polyline
         class="cls-1"
         points="15.92 .24 14.33 3 14.28 3.05 14.28 3.09 14.28 3.21 14.28 3.24 14.25 3.24 14.22 3.24 13.82 3.24"
         id="polyline30" />
      <polyline
         class="cls-1"
         points="13.82 3.05 13.89 3.05 14.04 3.05 14.07 3.05 14.1 3.05 15.8 .05"
         id="polyline31" />
      <polyline
         class="cls-1"
         points="17.64 .09 15.95 3 15.95 3.03 15.95 3.05 15.98 3.05 16.2 3.05"
         id="polyline32" />
      <polyline
         class="cls-1"
         points="16.2 3.24 15.72 3.24 15.69 3.24 15.66 3.21 15.66 3.15"
         id="polyline33" />
      <path
         class="cls-1"
         d="m 15.85,0.03 c 0,0 -0.03,0 -0.04,0.02"
         id="path33" />
      <path
         class="cls-1"
         d="m 17.6,0.09 c 0,0 0,-0.03 0,-0.04 0,-0.01 -0.02,-0.02 -0.04,-0.02"
         id="path34" />
      <line
         class="cls-1"
         x1="15.69"
         y1="3.1199999"
         x2="17.299999"
         y2="0.27000001"
         id="line34" />
      <path
         class="cls-1"
         d="m 17.3,0.27 c 0,0 0,-0.03 0,-0.05 0,-0.01 -0.02,-0.02 -0.04,-0.02"
         id="path35" />
      <line
         class="cls-1"
         x1="15.86"
         y1="0.029999999"
         x2="17.57"
         y2="0.029999999"
         id="line35" />
      <line
         class="cls-1"
         x1="15.95"
         y1="0.20999999"
         x2="17.280001"
         y2="0.20999999"
         id="line36" />
      <path
         class="cls-1"
         d="m 15.94,0.21 c 0,0 -0.03,0 -0.04,0.02"
         id="path36" />
      <path
         class="cls-1"
         d="m 15.66,3.11 c 0,0 0,0.01 0,0.02"
         id="path37" />
      <line
         class="cls-1"
         x1="17.040001"
         y1="3.24"
         x2="16.200001"
         y2="3.24"
         id="line37" />
    </g>
  </g>
</svg>
