<?xml version="1.0" encoding="UTF-8"?>
<svg id="Capa_2" data-name="Capa 2" xmlns="http://www.w3.org/2000/svg" viewBox="0 0 20.51 3.68">
  <defs>
    <style>
      .cls-1 {
        fill: none;
        stroke: #000;
        stroke-miterlimit: 10;
        stroke-width: .05px;
      }
    </style>
  </defs>
  <g id="Capa_1-2" data-name="Capa 1">
    <g>
      <polyline class="cls-1" points="5.81 2.87 5.81 3.03 5.81 3.06 5.78 3.06 5.75 3.06 3.03 3.06 2.54 3.06 2.51 3.09 2.51 3.12 2.48 3.12 2.48 3.59 2.48 3.62 2.48 3.65 2.45 3.65 2.33 3.65 .05 3.65 .03 3.65 .03 3.62 .03 3.59 .03 3.54 .03 3.51 .03 3.48 .05 3.48 .23 3.48 .56 3.48 .59 3.51 .59 3.48 2.28 3.48 2.3 3.48 2.3 3.45 2.33 3.45 2.33 3.42 2.33 3.12 2.3 3.09 2.28 3.06 1.44 3.06 1.41 3.06 1.41 3.03 1.41 2.93 1.41 2.9 1.44 2.9 1.44 2.87 2.39 2.87"/>
      <line class="cls-1" x1="3.17" y1="2.87" x2="5.09" y2="2.87"/>
      <polyline class="cls-1" points="19.44 2.87 19.5 2.87 19.53 2.87 19.53 2.9 19.55 2.9 19.55 2.93 19.55 3.06 19.55 3.09 19.58 3.09 19.61 3.09 20.45 3.09 20.48 3.09 20.48 3.12 20.48 3.15 20.48 3.32 20.48 3.35 20.48 3.38 20.45 3.42 20.42 3.45 20.39 3.45 20.36 3.45"/>
      <polyline class="cls-1" points="18.89 3.06 19.34 3.06 19.34 3.09 19.37 3.09 19.37 3.12 19.37 3.2 19.37 3.23 19.41 3.23 19.41 3.26 19.44 3.26 20.25 3.26 20.25 3.32 20.28 3.35 20.28 3.38 20.28 3.42 20.3 3.42 20.3 3.45 20.33 3.45 20.36 3.45"/>
      <path class="cls-1" d="m3.15,2.85c.17-.2.15-.5-.04-.68s-.49-.18-.68,0-.21.48-.04.68"/>
      <path class="cls-1" d="m3.08,2.53c0-.17-.14-.32-.32-.32s-.32.14-.32.32c0,.17.14.32.32.32s.32-.14.32-.32"/>
      <path class="cls-1" d="m7.24,1.06C7.02.41,6.4,0,5.72.03c-.68.04-1.25.52-1.4,1.19-.15.66.17,1.35.77,1.66"/>
      <path class="cls-1" d="m7.07,1.11c-.22-.65-.89-1.02-1.55-.88-.67.15-1.11.77-1.04,1.45.07.68.65,1.19,1.33,1.19"/>
      <path class="cls-1" d="m13.32,2.87c.38-.25.55-.72.44-1.16-.12-.44-.5-.76-.95-.79-.45-.03-.88.23-1.06.65"/>
      <path class="cls-1" d="m12.73,2.87c.44,0,.82-.33.88-.77.06-.44-.22-.85-.64-.97-.43-.12-.88.1-1.05.51"/>
      <path class="cls-1" d="m19.41,2.87c.38-.25.55-.72.44-1.16-.12-.44-.5-.76-.95-.79-.45-.03-.88.23-1.06.65"/>
      <path class="cls-1" d="m18.82,2.87c.44,0,.82-.33.88-.77.06-.44-.22-.85-.64-.97-.43-.12-.88.1-1.05.51"/>
      <path class="cls-1" d="m1.78,2.84c.24,0,.45-.17.49-.41"/>
      <path class="cls-1" d="m1.78,3.03c.33,0,.61-.23.66-.56"/>
      <path class="cls-1" d="m7.25,1.05c.37,1.09,1.39,1.83,2.54,1.83"/>
      <path class="cls-1" d="m7.07,1.1c.39,1.17,1.49,1.95,2.72,1.95"/>
      <path class="cls-1" d="m9.82,2.87c.85,0,1.62-.51,1.95-1.29"/>
      <path class="cls-1" d="m9.82,3.06c.92,0,1.75-.55,2.11-1.4"/>
      <path class="cls-1" d="m15.26,2.44c-.04-.21-.2-.37-.4-.4-.21-.04-.41.06-.51.24-.1.18-.08.41.05.57"/>
      <path class="cls-1" d="m15.08,2.47c-.03-.16-.18-.28-.35-.26-.17.02-.29.16-.28.33,0,.17.15.3.31.3"/>
      <path class="cls-1" d="m15.27,2.44c.04.24.25.41.49.41"/>
      <path class="cls-1" d="m15.1,2.47c.06.32.34.56.66.56"/>
      <path class="cls-1" d="m15.91,2.87c.85,0,1.62-.51,1.95-1.29"/>
      <path class="cls-1" d="m15.91,3.06c.92,0,1.75-.55,2.11-1.4"/>
      <line class="cls-1" x1="15.92" y1="2.87" x2="15.78" y2="2.87"/>
      <line class="cls-1" x1="9.8" y1="2.87" x2="9.83" y2="2.87"/>
      <line class="cls-1" x1="9.8" y1="3.06" x2="9.83" y2="3.06"/>
      <line class="cls-1" x1="12.75" y1="2.87" x2="12.75" y2="3.03"/>
      <path class="cls-1" d="m12.72,3.01s.02.05.04.05"/>
      <line class="cls-1" x1="14.72" y1="3.06" x2="12.78" y2="3.06"/>
      <line class="cls-1" x1="14.78" y1="2.87" x2="14.78" y2="3.03"/>
      <path class="cls-1" d="m14.71,3.06s.04-.02.04-.05"/>
      <line class="cls-1" x1="14.39" y1="2.87" x2="13.31" y2="2.87"/>
      <line class="cls-1" x1="15.78" y1="3.06" x2="15.92" y2="3.06"/>
      <line class="cls-1" x1="18.83" y1="2.87" x2="18.83" y2="3.03"/>
      <path class="cls-1" d="m18.83,3.01s.02.05.04.05"/>
    </g>
  </g>
</svg>