<?xml version="1.0" encoding="UTF-8"?>
<svg id="Capa_2" data-name="Capa 2" xmlns="http://www.w3.org/2000/svg" viewBox="0 0 43.24 6.63">
  <defs>
    <style>
      .cls-1 {
        fill: none;
        stroke: #000;
        stroke-linecap: round;
        stroke-linejoin: round;
        stroke-width: .1px;
      }
    </style>
  </defs>
  <g id="_0" data-name="0">
    <g id="LWPOLYLINE">
      <path class="cls-1" d="m8.55,5.34h-3.17c-.06,0-.1.04-.1.1v1.04c0,.06-.04.1-.1.1H.15c-.06,0-.1-.04-.1-.1v-.18c0-.06.04-.1.1-.1h1.05l.05.03.05-.03h3.51c.06,0,.1-.04.1-.1v-.66c0-.06-.04-.1-.1-.1h-1.74c-.06,0-.1-.04-.1-.1v-.18c0-.06.04-.1.1-.1h5.49s.06-.01.08-.03L12.84.08s0,0,0,0c.04-.04.11-.03.14,0l4.21,4.85s.05.03.08.03h10.47s.06-.01.08-.03L32.03.08s0,0,0,0c.04-.04.11-.03.14,0l4.21,4.85s.05.03.08.03h4.65c.06,0,.1.04.1.1v.23c0,.06.04.1.1.1h1.78c.06,0,.1.04.1.1v.43c0,.14-.11.25-.25.25h0c-.14,0-.25-.11-.25-.25v-.18h-1.73c-.06,0-.1-.04-.1-.1v-.2c0-.06-.04-.1-.1-.1h-4.3c-.14,0-.27-.06-.36-.16l-3.92-4.52s-.1-.05-.14,0c0,0,0,0,0,0l-3.92,4.52c-.09.1-.22.16-.36.16h-5.2c-.06,0-.1.04-.1.1v.41c0,.06.04.1.1.1h.36c.06,0,.1.04.1.1v.43c0,.06-.04.1-.1.1h-1.43c-.06,0-.1-.04-.1-.1v-.43c0-.06.04-.1.1-.1h.49c.06,0,.1-.04.1-.1v-.41c0-.06-.04-.1-.1-.1h-4.69c-.14,0-.27-.06-.36-.16L12.99.66s-.1-.05-.14,0c0,0,0,0,0,0l-3.92,4.52c-.09.1-.22.16-.36.16Z"/>
    </g>
  </g>
</svg>