<?xml version="1.0" encoding="UTF-8"?>
<svg id="Capa_2" data-name="Capa 2" xmlns="http://www.w3.org/2000/svg" viewBox="0 0 26.32 5.11">
  <defs>
    <style>
      .cls-1 {
        fill: none;
        stroke: #000;
        stroke-linecap: round;
        stroke-linejoin: round;
        stroke-width: .1px;
      }
    </style>
  </defs>
  <g id="Capa_1-2" data-name="Capa 1">
    <polygon class="cls-1" points="26.15 4.85 26.12 4.85 26.09 4.85 26.06 4.85 26.06 4.82 26.03 4.79 26.03 4.76 26.03 4.67 25.19 4.67 25.16 4.64 25.16 4.61 25.16 .26 25.13 .26 25.13 .23 25.1 .23 18.11 .23 18.08 .23 18.05 .26 18.05 4.73 18.08 4.73 18.08 4.76 18.11 4.76 18.29 4.76 18.32 4.76 18.32 4.79 18.32 4.82 18.32 5 18.32 5.03 18.32 5.06 18.29 5.06 17.6 5.06 17.57 5.06 17.57 5.03 17.54 5.03 17.54 5 17.54 4.82 17.54 4.79 17.57 4.79 17.57 4.76 17.6 4.76 17.84 4.76 17.87 4.76 17.87 4.73 17.87 .26 17.87 .23 17.84 .23 10.76 .23 10.73 .23 10.73 .26 10.73 4.73 10.73 4.76 10.76 4.76 10.94 4.76 10.97 4.76 10.97 4.79 11 4.79 11 4.82 11 5 11 5.03 10.97 5.03 10.97 5.06 10.94 5.06 10.25 5.06 10.22 5.06 10.22 5.03 10.22 5 10.22 4.82 10.22 4.79 10.22 4.76 10.25 4.76 10.49 4.76 10.52 4.76 10.52 4.73 10.55 4.73 10.55 .26 10.55 .23 10.52 .23 10.49 .23 3.44 .23 3.41 .23 3.41 .26 3.38 .26 3.38 4.43 3.38 4.46 3.35 4.46 2.57 4.46 2.54 4.46 2.54 4.49 2.51 4.49 2.51 4.52 2.51 5 2.51 5.03 2.51 5.06 2.48 5.06 2.33 5.06 .08 5.06 .05 5.06 .05 5.03 .05 5 .05 4.94 .05 4.91 .05 4.88 .08 4.88 .26 4.88 .59 4.88 .62 4.91 .62 4.88 2.3 4.88 2.33 4.88 2.33 4.85 2.33 4.82 2.33 4.52 2.33 4.49 2.3 4.46 1.46 4.46 1.43 4.46 1.43 4.43 1.43 4.34 1.43 4.31 1.46 4.31 1.46 4.28 3.17 4.28 3.2 4.28 3.2 4.25 3.2 .08 3.23 .08 3.23 .05 3.26 .05 25.28 .05 25.31 .05 25.31 .08 25.34 .08 25.34 4.28 25.34 4.46 25.34 4.49 25.37 4.49 26.21 4.49 26.24 4.49 26.24 4.52 26.27 4.52 26.27 4.55 26.27 4.76 26.27 4.79 26.24 4.79 26.24 4.82 26.21 4.85 26.18 4.85 26.15 4.85"/>
  </g>
</svg>