<?xml version="1.0" encoding="UTF-8"?>
<svg id="Capa_2" data-name="Capa 2" xmlns="http://www.w3.org/2000/svg" viewBox="0 0 20.51 3.82">
  <defs>
    <style>
      .cls-1 {
        fill: none;
        stroke: #000;
        stroke-miterlimit: 10;
        stroke-width: .05px;
      }
    </style>
  </defs>
  <g id="Capa_1-2" data-name="Capa 1">
    <g>
      <polyline class="cls-1" points="19.79 3.22 20.45 3.22 20.45 3.25 20.48 3.25 20.48 3.28 20.48 3.49 20.48 3.52 20.48 3.55 20.45 3.55 20.45 3.58 20.42 3.58 20.39 3.61 20.36 3.61"/>
      <polyline class="cls-1" points="19.79 3.4 20.25 3.4 20.25 3.49 20.28 3.52 20.28 3.55 20.3 3.58 20.33 3.58 20.36 3.61"/>
      <polyline class="cls-1" points="3.03 3.04 3.14 3.04 3.14 3.01 3.17 3.01 3.17 2.98 3.17 2.95 2.39 1.57 2.36 1.54 2.39 1.54 2.39 1.51 2.42 1.51 4.17 1.51 4.2 1.51 4.2 1.54 5.04 3.01 5.07 3.01 5.07 3.04 5.1 3.04 5.28 3.04"/>
      <polyline class="cls-1" points="17.57 3.04 17.7 3.04 17.7 3.01 17.73 3.01 17.73 2.98 17.73 2.95 16.95 1.57 16.92 1.57 16.92 1.54 16.95 1.54 16.95 1.51 16.98 1.51 18.69 1.51 18.72 1.51 18.75 1.54 19.58 2.98 19.58 3.01 19.58 3.19 19.58 3.22 19.61 3.22 19.79 3.22"/>
      <polyline class="cls-1" points="16.26 3.22 18 3.22 18.03 3.19 18.05 3.16 18.03 3.13 17.25 1.75 17.25 1.72 17.25 1.69 17.28 1.69 18.6 1.69 18.63 1.69 18.63 1.72 19.41 3.04 19.41 3.34 19.41 3.37 19.44 3.4 19.79 3.4"/>
      <polyline class="cls-1" points="13.92 3.04 12.35 3.04 12.32 3.04 12.32 3.01 12.29 3.01 11.45 1.54 11.45 1.51 11.42 1.51 9.69 1.51 9.66 1.51 9.66 1.54 9.66 1.57 10.44 2.95 10.47 2.98 10.44 3.01 10.41 3.04 9 3.04"/>
      <polyline class="cls-1" points="3.03 3.04 1.44 3.04 1.41 3.04 1.41 3.07 1.41 3.16 1.41 3.19 1.44 3.19 1.44 3.22 2.28 3.22 2.3 3.22 2.3 3.25 2.3 3.58 2.3 3.61 2.28 3.61 .6 3.61 .57 3.64 .57 3.61 .23 3.61 .05 3.61 .03 3.61 .03 3.64 .03 3.67 .03 3.76 .03 3.79 .05 3.79 2.3 3.79 2.45 3.79 2.48 3.79 2.48 3.76 2.48 3.25 2.51 3.22 2.54 3.22 3.45 3.22 3.48 3.19 3.51 3.19 3.51 3.16 3.51 3.13 3.48 3.13 2.7 1.75 2.7 1.72 2.7 1.69 2.73 1.69 4.04 1.69 4.07 1.69 4.07 1.72 4.95 3.19 4.98 3.19 4.98 3.22 6.66 3.22"/>
      <polyline class="cls-1" points="9 3.22 10.41 3.22 10.44 3.22 10.47 3.22 10.47 3.25 10.47 3.46 10.47 3.49 10.44 3.49 10.41 3.49 10.2 3.49 10.17 3.49 10.14 3.52 10.14 3.55 10.14 3.76 10.14 3.79 10.17 3.79 10.2 3.79 10.86 3.79 10.89 3.79 10.89 3.76 10.92 3.76 10.92 3.55 10.92 3.52 10.89 3.52 10.89 3.49 10.86 3.49 10.67 3.49 10.64 3.49 10.64 3.46 10.64 2.95 10.64 2.92 9.95 1.75 9.95 1.72 9.95 1.69 9.98 1.69 10.01 1.69 11.3 1.69 11.33 1.69 11.36 1.72 12.2 3.19 12.23 3.19 12.23 3.22 13.92 3.22"/>
      <polyline class="cls-1" points="5.28 3.04 6.78 3.04 6.78 3.01 6.8 3.01 6.8 2.98 6.8 2.95 5.16 .07"/>
      <polyline class="cls-1" points="9 3.04 8.73 3.04 8.7 3.04 8.7 3.01 8.67 3.01 6.95 .01"/>
      <polyline class="cls-1" points="6.66 3.22 7.07 3.22 7.11 3.22 7.11 3.19 7.14 3.19 7.14 3.16 7.14 3.13 5.45 .25"/>
      <path class="cls-1" d="m5.47.16s-.03,0-.04.02c0,.01,0,.03,0,.05"/>
      <line class="cls-1" x1="6.8" y1=".16" x2="5.48" y2=".16"/>
      <path class="cls-1" d="m6.83.18s-.02-.02-.04-.02"/>
      <polyline class="cls-1" points="6.83 .19 8.57 3.19 8.61 3.19 8.61 3.22 9 3.22"/>
      <polyline class="cls-1" points="13.92 3.04 14.04 3.04 14.07 3.01 14.1 3.01 14.1 2.98 14.1 2.95 14.07 2.95 12.42 .07"/>
      <polyline class="cls-1" points="17.57 3.04 15.98 3.04 15.95 3.01 15.92 3.01 14.22 .01"/>
      <polyline class="cls-1" points="13.92 3.22 14.33 3.22 14.36 3.22 14.36 3.19 14.39 3.19 14.39 3.16 14.39 3.13 12.72 .25"/>
      <path class="cls-1" d="m12.73.16s-.03,0-.04.02c0,.01,0,.03,0,.05"/>
      <line class="cls-1" x1="14.07" y1=".16" x2="12.75" y2=".16"/>
      <path class="cls-1" d="m14.09.18s-.02-.02-.04-.02"/>
      <polyline class="cls-1" points="14.13 .19 15.83 3.19 15.86 3.19 15.86 3.22 16.26 3.22"/>
    </g>
  </g>
</svg>