<?xml version="1.0" encoding="UTF-8" standalone="no"?>
<svg
   id="Capa_2"
   data-name="Capa 2"
   viewBox="0 0 20.540001 1.79"
   version="1.1"
   sodipodi:docname="matrix13_e.svg"
   width="20.540001"
   height="1.79"
   inkscape:version="1.3.2 (091e20e, 2023-11-25, custom)"
   xmlns:inkscape="http://www.inkscape.org/namespaces/inkscape"
   xmlns:sodipodi="http://sodipodi.sourceforge.net/DTD/sodipodi-0.dtd"
   xmlns="http://www.w3.org/2000/svg"
   xmlns:svg="http://www.w3.org/2000/svg">
  <sodipodi:namedview
     id="namedview21"
     pagecolor="#ffffff"
     bordercolor="#000000"
     borderopacity="0.25"
     inkscape:showpageshadow="2"
     inkscape:pageopacity="0.0"
     inkscape:pagecheckerboard="0"
     inkscape:deskcolor="#d1d1d1"
     showgrid="false"
     inkscape:zoom="52.877419"
     inkscape:cx="19.375"
     inkscape:cy="0.89830405"
     inkscape:window-width="2560"
     inkscape:window-height="1369"
     inkscape:window-x="-8"
     inkscape:window-y="-8"
     inkscape:window-maximized="1"
     inkscape:current-layer="Capa_2" />
  <defs
     id="defs1">
    <style
       id="style1">
      .cls-1 {
        fill: none;
        stroke: #000;
        stroke-linecap: round;
        stroke-linejoin: round;
        stroke-width: .05px;
      }
    </style>
  </defs>
  <g
     id="Capa_1-2"
     data-name="Capa 1"
     transform="translate(-0.005,0.005)">
    <g
       id="g21">
      <polyline
         class="cls-1"
         points="5.04 1.01 19.53 1.01 19.55 1.01 19.55 1.04 19.55 1.16 19.55 1.19 19.58 1.19 19.58 1.22 19.61 1.22 20.46 1.22 20.49 1.22 20.52 1.25 20.52 1.46 20.52 1.49 20.49 1.49 20.49 1.52 20.49 1.55 20.46 1.55 20.43 1.58 20.39 1.58"
         id="polyline1" />
      <polyline
         class="cls-1"
         points="5.04 1.19 10.35 1.19 10.38 1.19 10.41 1.22 10.41 1.43 10.41 1.46 10.38 1.46 10.35 1.49 10.11 1.49 10.08 1.49 10.08 1.52 10.08 1.73 10.08 1.76 10.11 1.76 10.8 1.76 10.83 1.76 10.86 1.73 10.86 1.52 10.83 1.49 10.8 1.49 10.61 1.49 10.61 1.46 10.58 1.46 10.58 1.43 10.58 1.22 10.58 1.19 10.61 1.19 19.35 1.19 19.38 1.19 19.38 1.22 19.38 1.34 19.41 1.34 19.41 1.37 19.44 1.37 20.28 1.37 20.28 1.46 20.28 1.49 20.28 1.52 20.3 1.55 20.33 1.55 20.33 1.58 20.36 1.58 20.39 1.58"
         id="polyline2" />
      <polyline
         class="cls-1"
         points="2.52 1.22 2.52 1.73 2.52 1.76 2.49 1.76 2.46 1.76 2.33 1.76 .08 1.76 .05 1.76 .03 1.76 .03 1.73 .03 1.64 .03 1.61 .05 1.61 .08 1.61 .24 1.61 .57 1.61 .6 1.61 .63 1.61 2.28 1.61 2.3 1.58 2.33 1.58 2.33 1.55 2.33 1.22 2.3 1.19 2.28 1.19 1.47 1.19 1.44 1.19 1.44 1.16 1.41 1.16 1.41 1.13 1.41 1.04 1.41 1.01 1.44 1.01 1.47 1.01"
         id="polyline3" />
      <polyline
         class="cls-1"
         points="2.16 1.01 2.46 1.01 2.49 1.01 2.52 1.04 2.52 1.49"
         id="polyline4" />
      <path
         class="cls-1"
         d="M 1.44,0.97 C 2.03,0.94 2.55,0.57 2.78,0.02"
         id="path4" />
      <path
         class="cls-1"
         d="M 2.13,1.01 C 2.47,0.84 2.74,0.57 2.91,0.24"
         id="path5" />
      <path
         class="cls-1"
         d="M 3.59,0.05 C 3.83,0.63 4.39,1 5.02,1"
         id="path6" />
      <path
         class="cls-1"
         d="M 3.48,0.23 C 3.77,0.81 4.37,1.18 5.02,1.18"
         id="path7" />
      <path
         class="cls-1"
         d="m 8.63,1.01 c 0,0 0.01,0 0.02,0"
         id="path8" />
      <path
         class="cls-1"
         d="m 8.64,1.19 c 0,0 0,0 0.01,0"
         id="path9" />
      <line
         class="cls-1"
         x1="3.5999999"
         y1="0.050000001"
         x2="2.8199999"
         y2="0.050000001"
         id="line9" />
      <line
         class="cls-1"
         x1="3.48"
         y1="0.23"
         x2="2.9100001"
         y2="0.23"
         id="line10" />
      <path
         class="cls-1"
         d="m 12.26,1.01 c 0,0 0.01,0 0.02,0"
         id="path10" />
      <path
         class="cls-1"
         d="m 12.26,1.19 c 0,0 0.01,0 0.02,0"
         id="path11" />
    </g>
  </g>
</svg>
