<?xml version="1.0" encoding="UTF-8"?>
<svg id="Capa_2" data-name="Capa 2" xmlns="http://www.w3.org/2000/svg" viewBox="0 0 20.51 3.89">
  <defs>
    <style>
      .cls-1 {
        fill: none;
        stroke: #000;
        stroke-miterlimit: 10;
        stroke-width: .05px;
      }
    </style>
  </defs>
  <g id="Capa_1-2" data-name="Capa 1">
    <g>
      <polyline class="cls-1" points="5.01 .26 3.42 3 3.39 3.08 3.36 3.08 3.36 3.11 3.36 3.2 3.36 3.23 3.36 3.26 3.32 3.26 2.54 3.26 2.51 3.26 2.51 3.29 2.48 3.29 2.48 3.32 2.48 3.8 2.48 3.83 2.45 3.83 2.45 3.86 2.3 3.86 .05 3.86 .03 3.83 .03 3.8 .03 3.72 .03 3.69 .05 3.69 .23 3.69 .57 3.69 .6 3.69 2.28 3.69 2.3 3.66 2.3 3.62 2.3 3.32 2.3 3.29 2.3 3.26 2.28 3.26 1.44 3.26 1.41 3.26 1.41 3.23 1.41 3.2 1.41 3.14 1.41 3.11 1.41 3.08 1.44 3.08 3 3.08 3.14 3.08 3.17 3.08 3.17 3.05 4.92 .08"/>
      <polyline class="cls-1" points="6.72 .11 5.04 3.03 5.04 3.05 5.04 3.08 5.07 3.08 5.1 3.08 5.28 3.08"/>
      <polyline class="cls-1" points="5.28 3.26 4.79 3.26 4.76 3.26 4.76 3.23 4.76 3.2 4.76 3.17"/>
      <path class="cls-1" d="m4.93.03s-.03,0-.04.02"/>
      <path class="cls-1" d="m6.71.09s0-.03,0-.05c0-.01-.02-.02-.04-.02"/>
      <line class="cls-1" x1="4.76" y1="3.14" x2="6.42" y2=".29"/>
      <path class="cls-1" d="m6.38.27s0-.03,0-.05c0-.01-.02-.02-.04-.02"/>
      <line class="cls-1" x1="4.95" y1=".05" x2="6.69" y2=".05"/>
      <line class="cls-1" x1="5.07" y1=".23" x2="6.36" y2=".23"/>
      <path class="cls-1" d="m5.05.2s-.03,0-.04.02"/>
      <path class="cls-1" d="m4.74,3.14s0,.01,0,.02"/>
      <polyline class="cls-1" points="14.1 3.08 14.51 3.08 14.54 3.08 14.57 3.08 14.57 3.05 14.57 3.03 12.89 .11"/>
      <polyline class="cls-1" points="14.6 .26 16.32 3.23 16.35 3.23 16.35 3.26 16.38 3.26 16.98 3.26 17.01 3.26 17.01 3.23 17.85 1.76 17.88 1.76 17.88 1.73 17.91 1.73 19.2 1.73 19.23 1.73 19.23 1.76 19.26 1.76 19.26 1.79 19.26 1.82 18.45 3.2 18.45 3.23 18.45 3.26 18.48 3.26 18.51 3.26 19.35 3.26 19.38 3.26 19.41 3.29 19.41 3.32 19.41 3.41 19.41 3.44 19.44 3.44 20.25 3.44 20.25 3.53 20.25 3.56 20.28 3.56 20.28 3.59 20.28 3.62 20.3 3.62 20.3 3.66 20.33 3.66 20.36 3.66 20.39 3.66 20.42 3.66 20.45 3.62 20.48 3.59 20.48 3.56 20.48 3.53 20.48 3.32 20.48 3.29 20.45 3.29 19.61 3.29 19.58 3.26 19.58 3.23 19.58 3.14 19.58 3.11 19.55 3.11 19.55 3.08 19.53 3.08 18.8 3.08 18.78 3.08 18.78 3.05 18.75 3.05 18.75 3.03 19.55 1.64 19.55 1.61 19.55 1.58 19.53 1.58 19.53 1.55 17.79 1.55 17.79 1.58 17.76 1.58 16.89 3.05 16.89 3.08 16.85 3.08 16.47 3.08 16.44 3.08 16.44 3.05 14.7 .08"/>
      <polyline class="cls-1" points="14.1 3.26 14.85 3.26 14.88 3.26 14.88 3.23 14.88 3.2 13.2 .29"/>
      <path class="cls-1" d="m14.69.05s-.02-.02-.04-.02"/>
      <path class="cls-1" d="m12.94.03s-.03,0-.04.02c0,.01,0,.03,0,.05"/>
      <path class="cls-1" d="m13.24.2s-.03,0-.04.02c0,.01,0,.03,0,.05"/>
      <line class="cls-1" x1="14.67" y1=".05" x2="12.95" y2=".05"/>
      <line class="cls-1" x1="14.57" y1=".23" x2="13.26" y2=".23"/>
      <path class="cls-1" d="m14.6.23s-.02-.02-.04-.02"/>
      <polyline class="cls-1" points="5.28 3.08 7.7 3.08 7.73 3.08 7.76 3.05 7.76 3.03 6.95 1.64 6.95 1.61 6.95 1.58 6.98 1.58 6.98 1.55 7.01 1.55 8.73 1.55 8.76 1.58 9.63 3.05 9.63 3.08 9.66 3.08 10.04 3.08 10.07 3.08 10.07 3.05 10.55 2.22 10.58 2.22 10.58 2.19 10.61 2.19 12.32 2.19 12.35 2.19 12.35 2.22 12.39 2.25 12.35 2.28 11.94 3.03 11.94 3.05 11.94 3.08 11.97 3.08 14.1 3.08"/>
      <polyline class="cls-1" points="5.28 3.26 8.04 3.26 8.07 3.26 8.07 3.23 8.07 3.2 7.26 1.82 7.26 1.79 7.26 1.76 7.29 1.76 7.32 1.73 8.64 1.73 8.64 1.76 8.67 1.76 9.51 3.23 9.54 3.26 9.57 3.26 10.14 3.26 10.17 3.26 10.17 3.23 10.38 2.91 10.41 2.87 10.44 2.87 10.44 2.91 10.47 2.91 10.47 2.94 10.47 3.5 10.47 3.53 10.44 3.53 10.44 3.56 10.41 3.56 10.2 3.56 10.17 3.56 10.14 3.56 10.14 3.59 10.14 3.8 10.14 3.83 10.17 3.83 10.17 3.86 10.2 3.86 10.86 3.86 10.89 3.86 10.89 3.83 10.92 3.83 10.92 3.8 10.92 3.59 10.89 3.59 10.89 3.56 10.86 3.56 10.67 3.56 10.64 3.53 10.64 3.5 10.64 2.45 10.64 2.42 10.67 2.39 10.67 2.36 10.7 2.36 12.03 2.36 12.05 2.39 12.05 2.42 12.05 2.45 11.64 3.2 11.61 3.2 11.61 3.23 11.64 3.23 11.64 3.26 11.67 3.26 14.1 3.26"/>
    </g>
  </g>
</svg>