<?xml version="1.0" encoding="UTF-8" standalone="no"?>
<svg
   id="Capa_2"
   data-name="Capa 2"
   viewBox="0 0 20.5 1.6687905"
   version="1.1"
   sodipodi:docname="matrix9_k.svg"
   width="20.5"
   height="1.6687905"
   inkscape:version="1.3.2 (091e20e, 2023-11-25, custom)"
   xmlns:inkscape="http://www.inkscape.org/namespaces/inkscape"
   xmlns:sodipodi="http://sodipodi.sourceforge.net/DTD/sodipodi-0.dtd"
   xmlns="http://www.w3.org/2000/svg"
   xmlns:svg="http://www.w3.org/2000/svg">
  <sodipodi:namedview
     id="namedview11"
     pagecolor="#ffffff"
     bordercolor="#000000"
     borderopacity="0.25"
     inkscape:showpageshadow="2"
     inkscape:pageopacity="0.0"
     inkscape:pagecheckerboard="0"
     inkscape:deskcolor="#d1d1d1"
     showgrid="false"
     inkscape:zoom="52.877419"
     inkscape:cx="20.358407"
     inkscape:cy="0.84156906"
     inkscape:window-width="2560"
     inkscape:window-height="1369"
     inkscape:window-x="-8"
     inkscape:window-y="-8"
     inkscape:window-maximized="1"
     inkscape:current-layer="g11" />
  <defs
     id="defs1">
    <style
       id="style1">
      .cls-1 {
        fill: none;
        stroke: #000;
        stroke-linecap: round;
        stroke-linejoin: round;
        stroke-width: .05px;
      }
    </style>
  </defs>
  <g
     id="Capa_1-2"
     data-name="Capa 1"
     transform="translate(-0.005,0.00379047)">
    <g
       id="g11">
      <polyline
         class="cls-1"
         points="19.5 .86 19.5 .86 19.53 .86 19.55 .86 19.55 .89 19.55 .92 19.55 1.02 19.55 1.05 19.58 1.05 19.58 1.08 19.61 1.08 20.45 1.08 20.48 1.08 20.48 1.11 20.48 1.32 20.48 1.35 20.48 1.38 20.45 1.41 20.42 1.41 20.42 1.44 20.39 1.44 20.36 1.44"
         id="polyline1" />
      <polyline
         class="cls-1"
         points="10.91 .86 10.91 .98 10.91 1.02 10.94 1.02 10.94 1.05 10.97 1.05 19.34 1.05 19.37 1.05 19.37 1.08 19.37 1.2 19.37 1.23 19.41 1.23 19.44 1.23 20.25 1.23 20.25 1.32 20.28 1.35 20.28 1.38 20.28 1.41 20.3 1.41 20.33 1.44 20.36 1.44"
         id="polyline2" />
      <polyline
         class="cls-1"
         points="9.92 1.05 9.89 1.05 9.86 1.05 9.83 1.05 9.83 1.08 9.83 1.29 9.83 1.32 9.86 1.32 9.86 1.35 9.89 1.35 10.04 1.35 10.07 1.35 10.1 1.35 10.1 1.38 10.1 1.59 10.1 1.61 10.07 1.61 10.04 1.64 9.38 1.64 9.35 1.61 9.32 1.61 9.32 1.59 9.32 1.38 9.32 1.35 9.35 1.35 9.38 1.35 9.59 1.35 9.62 1.35 9.62 1.32 9.66 1.32 9.66 1.29 9.66 1.08 9.66 1.05 9.62 1.05 9.59 1.05 3.03 1.05 2.54 1.05 2.51 1.05 2.51 1.08 2.48 1.08 2.48 1.59 2.48 1.61 2.45 1.61 2.45 1.64 2.33 1.64 .05 1.64 .05 1.61 .03 1.61 .03 1.59 .03 1.5 .03 1.47 .05 1.47 .23 1.47 .56 1.47 .59 1.47 2.28 1.47 2.28 1.44 2.3 1.44 2.33 1.41 2.33 1.08 2.3 1.08 2.3 1.05 2.28 1.05 1.44 1.05 1.41 1.05 1.41 1.02 1.41 .98 1.41 .92 1.41 .89 1.41 .86 1.44 .86 9.92 .86"
         id="polyline3" />
      <line
         class="cls-1"
         x1="11.3"
         y1="0.86000001"
         x2="19.5"
         y2="0.86000001"
         id="line3" />
      <path
         class="cls-1"
         d="m 11.28,0.84 c 0.14,-0.16 0.16,-0.38 0.05,-0.57 -0.1,-0.18 -0.31,-0.28 -0.51,-0.24 -0.21,0.04 -0.37,0.2 -0.4,0.4"
         id="path3" />
      <path
         class="cls-1"
         d="m 10.91,0.83 c 0.17,0 0.3,-0.14 0.31,-0.3 C 11.22,0.36 11.1,0.22 10.94,0.2 10.78,0.18 10.62,0.29 10.6,0.46"
         id="path4" />
      <path
         class="cls-1"
         d="m 9.91,0.84 c 0.24,0 0.45,-0.17 0.49,-0.41"
         id="path5" />
      <path
         class="cls-1"
         d="m 9.91,1.02 c 0.33,0 0.61,-0.23 0.66,-0.56"
         id="path6" />
    </g>
  </g>
</svg>
