<?xml version="1.0" encoding="UTF-8" standalone="no"?>
<svg
   id="Capa_2"
   data-name="Capa 2"
   viewBox="0 0 20.5 1.6687162"
   version="1.1"
   sodipodi:docname="matrix9_a.svg"
   inkscape:version="1.3.2 (091e20e, 2023-11-25, custom)"
   width="20.5"
   height="1.6687162"
   xmlns:inkscape="http://www.inkscape.org/namespaces/inkscape"
   xmlns:sodipodi="http://sodipodi.sourceforge.net/DTD/sodipodi-0.dtd"
   xmlns="http://www.w3.org/2000/svg"
   xmlns:svg="http://www.w3.org/2000/svg">
  <sodipodi:namedview
     id="namedview11"
     pagecolor="#ffffff"
     bordercolor="#000000"
     borderopacity="0.25"
     inkscape:showpageshadow="2"
     inkscape:pageopacity="0.0"
     inkscape:pagecheckerboard="0"
     inkscape:deskcolor="#d1d1d1"
     inkscape:zoom="37.389982"
     inkscape:cx="15.57904"
     inkscape:cy="5.362399"
     inkscape:window-width="2560"
     inkscape:window-height="1369"
     inkscape:window-x="-8"
     inkscape:window-y="-8"
     inkscape:window-maximized="1"
     inkscape:current-layer="Capa_2"
     showgrid="false" />
  <defs
     id="defs1">
    <style
       id="style1">
      .cls-1 {
        fill: none;
        stroke: #000;
        stroke-linecap: round;
        stroke-linejoin: round;
        stroke-width: .05px;
      }
    </style>
  </defs>
  <g
     id="Capa_1-2"
     data-name="Capa 1"
     transform="translate(-0.005,0.00371618)">
    <g
       id="g11">
      <g
         id="g12">
        <polyline
           class="cls-1"
           points="19.5 .86 19.5 .86 19.53 .86 19.55 .86 19.55 .89 19.55 .92 19.55 1.01 19.55 1.04 19.58 1.04 19.58 1.07 19.61 1.07 20.45 1.07 20.48 1.07 20.48 1.11 20.48 1.32 20.48 1.35 20.48 1.38 20.45 1.41 20.42 1.44 20.39 1.44 20.36 1.44"
           id="polyline1" />
        <polyline
           class="cls-1"
           points="11.94 1.04 19.34 1.04 19.37 1.04 19.37 1.07 19.37 1.11 19.37 1.2 19.37 1.23 19.41 1.23 19.44 1.23 20.25 1.23 20.25 1.32 20.28 1.35 20.28 1.38 20.28 1.41 20.3 1.41 20.3 1.44 20.33 1.44 20.36 1.44"
           id="polyline2" />
        <polyline
           class="cls-1"
           points="10.91 .86 10.91 .98 10.91 1.01 10.88 1.04 10.85 1.04 10.7 1.04 10.67 1.04 10.64 1.07 10.64 1.11 10.64 1.29 10.64 1.32 10.67 1.32 10.67 1.35 10.7 1.35 10.85 1.35 10.88 1.35 10.91 1.35 10.91 1.38 10.91 1.59 10.91 1.61 10.88 1.61 10.88 1.64 10.85 1.64 10.19 1.64 10.16 1.64 10.16 1.61 10.13 1.61 10.13 1.59 10.13 1.38 10.13 1.35 10.16 1.35 10.19 1.35 10.41 1.35 10.44 1.35 10.44 1.32 10.47 1.32 10.47 1.29 10.47 1.11 10.47 1.07 10.47 1.04 10.44 1.04 10.41 1.04 3.03 1.04 2.54 1.04 2.51 1.04 2.51 1.07 2.48 1.11 2.48 1.59 2.48 1.61 2.45 1.61 2.45 1.64 2.33 1.64 .05 1.64 .05 1.61 .03 1.61 .03 1.59 .03 1.5 .03 1.47 .05 1.47 .23 1.47 .56 1.47 .59 1.47 2.28 1.47 2.3 1.44 2.33 1.41 2.33 1.11 2.33 1.07 2.3 1.07 2.3 1.04 2.28 1.04 1.44 1.04 1.41 1.04 1.41 1.01 1.41 .98 1.41 .92 1.41 .89 1.41 .86 1.44 .86 10.53 .86"
           id="polyline3" />
        <line
           class="cls-1"
           x1="11.94"
           y1="0.86000001"
           x2="19.5"
           y2="0.86000001"
           id="line3" />
        <path
           class="cls-1"
           d="m 11.39,0.43 c -0.04,-0.21 -0.2,-0.37 -0.4,-0.4 -0.21,-0.04 -0.41,0.06 -0.51,0.24 -0.1,0.18 -0.08,0.41 0.05,0.57"
           id="path3" />
        <path
           class="cls-1"
           d="M 11.21,0.46 C 11.18,0.3 11.03,0.18 10.87,0.2 c -0.16,0.02 -0.29,0.16 -0.28,0.33 0,0.17 0.14,0.3 0.31,0.3"
           id="path4" />
        <path
           class="cls-1"
           d="m 11.43,0.43 c 0.04,0.24 0.25,0.41 0.49,0.41"
           id="path5" />
        <path
           class="cls-1"
           d="m 11.26,0.46 c 0.06,0.32 0.34,0.56 0.66,0.56"
           id="path6" />
      </g>
    </g>
  </g>
</svg>
