<?xml version="1.0" encoding="UTF-8" standalone="no"?>
<svg
   id="Capa_2"
   data-name="Capa 2"
   viewBox="0 0 21.280001 3.86"
   version="1.1"
   sodipodi:docname="matrix11_b.svg"
   width="21.280001"
   height="3.8599999"
   inkscape:version="1.3.2 (091e20e, 2023-11-25, custom)"
   xmlns:inkscape="http://www.inkscape.org/namespaces/inkscape"
   xmlns:sodipodi="http://sodipodi.sourceforge.net/DTD/sodipodi-0.dtd"
   xmlns="http://www.w3.org/2000/svg"
   xmlns:svg="http://www.w3.org/2000/svg">
  <sodipodi:namedview
     id="namedview34"
     pagecolor="#ffffff"
     bordercolor="#000000"
     borderopacity="0.25"
     inkscape:showpageshadow="2"
     inkscape:pageopacity="0.0"
     inkscape:pagecheckerboard="0"
     inkscape:deskcolor="#d1d1d1"
     showgrid="false"
     inkscape:zoom="51.873418"
     inkscape:cx="19.75"
     inkscape:cy="1.9374085"
     inkscape:window-width="2560"
     inkscape:window-height="1369"
     inkscape:window-x="-8"
     inkscape:window-y="-8"
     inkscape:window-maximized="1"
     inkscape:current-layer="Capa_2" />
  <defs
     id="defs1">
    <style
       id="style1">
      .cls-1 {
        fill: none;
        stroke: #000;
        stroke-linecap: round;
        stroke-linejoin: round;
        stroke-width: .05px;
      }
    </style>
  </defs>
  <g
     id="Capa_1-2"
     data-name="Capa 1"
     transform="translate(-0.005,0.005)">
    <g
       id="g34">
      <polyline
         class="cls-1"
         points="5.28 3.08 6.78 3.08 17.54 3.08"
         id="polyline1" />
      <polyline
         class="cls-1"
         points="19.79 3.26 20.45 3.26 20.45 3.3 20.48 3.3 20.48 3.33 20.48 3.54 20.48 3.57 20.48 3.6 20.45 3.6 20.45 3.63 20.42 3.63 20.39 3.66 20.36 3.66"
         id="polyline2" />
      <polyline
         class="cls-1"
         points="19.79 3.45 20.25 3.45 20.25 3.54 20.28 3.57 20.28 3.6 20.3 3.63 20.33 3.63 20.36 3.66"
         id="polyline3" />
      <polyline
         class="cls-1"
         points="5.01 .23 3.42 3 3.39 3.08 3.36 3.08 3.36 3.2 3.36 3.23 3.32 3.23 3.32 3.26 2.54 3.26 2.51 3.26 2.48 3.3 2.48 3.8 2.48 3.83 2.45 3.83 2.3 3.83 .05 3.83 .03 3.83 .03 3.8 .03 3.72 .03 3.69 .03 3.66 .05 3.66 .23 3.66 .57 3.66 .57 3.69 .6 3.66 2.28 3.66 2.3 3.66 2.3 3.63 2.3 3.3 2.3 3.26 2.28 3.26 1.44 3.26 1.44 3.23 1.41 3.23 1.41 3.2 1.41 3.11 1.41 3.08 1.44 3.08 3 3.08"
         id="polyline4" />
      <polyline
         class="cls-1"
         points="3 3.08 3.14 3.08 3.17 3.05 4.92 .05"
         id="polyline5" />
      <polyline
         class="cls-1"
         points="6.72 .11 5.04 3 5.04 3.03 5.04 3.05 5.07 3.05 5.07 3.08 5.1 3.08 5.28 3.08"
         id="polyline6" />
      <polyline
         class="cls-1"
         points="5.28 3.26 4.79 3.26 4.79 3.23 4.76 3.23 4.76 3.2 4.76 3.14"
         id="polyline7" />
      <path
         class="cls-1"
         d="m 4.93,0.03 c 0,0 -0.03,0 -0.04,0.02"
         id="path7" />
      <path
         class="cls-1"
         d="m 6.71,0.09 c 0,0 0,-0.03 0,-0.05 0,-0.01 -0.02,-0.02 -0.04,-0.02"
         id="path8" />
      <line
         class="cls-1"
         x1="4.7600002"
         y1="3.1099999"
         x2="6.4200001"
         y2="0.30000001"
         id="line8" />
      <path
         class="cls-1"
         d="m 6.38,0.27 c 0,0 0,-0.03 0,-0.04 0,-0.01 -0.02,-0.02 -0.04,-0.02"
         id="path9" />
      <line
         class="cls-1"
         x1="4.9499998"
         y1="0.029999999"
         x2="6.6900001"
         y2="0.029999999"
         id="line9" />
      <line
         class="cls-1"
         x1="5.0700002"
         y1="0.2"
         x2="6.3600001"
         y2="0.2"
         id="line10" />
      <path
         class="cls-1"
         d="m 5.05,0.2 c 0,0 -0.03,0 -0.04,0.02"
         id="path10" />
      <path
         class="cls-1"
         d="m 4.74,3.11 c 0,0 0,0.01 0,0.02"
         id="path11" />
      <polyline
         class="cls-1"
         points="19.55 .23 17.91 3.08 17.91 3.2 17.91 3.23 17.88 3.23 17.88 3.26 10.67 3.26 10.64 3.26 10.64 3.3 10.64 3.51 10.64 3.54 10.67 3.54 10.86 3.54 10.89 3.54 10.89 3.57 10.92 3.57 10.92 3.6 10.92 3.8 10.89 3.8 10.89 3.83 10.86 3.83 10.2 3.83 10.17 3.83 10.14 3.83 10.14 3.8 10.14 3.6 10.14 3.57 10.17 3.57 10.17 3.54 10.2 3.54 10.41 3.54 10.44 3.54 10.47 3.54 10.47 3.51 10.47 3.3 10.47 3.26 10.44 3.26 10.41 3.26 8.51 3.26 5.28 3.26"
         id="polyline11" />
      <polyline
         class="cls-1"
         points="17.54 3.08 17.7 3.08 17.7 3.05 17.73 3.05 19.47 .05"
         id="polyline12" />
      <polyline
         class="cls-1"
         points="21.26 .11 19.64 2.94 19.47 3.2 19.47 3.23 19.47 3.26 19.5 3.26 19.53 3.26 19.79 3.26"
         id="polyline13" />
      <polyline
         class="cls-1"
         points="19.79 3.45 19.23 3.45 19.2 3.45 19.2 3.42 19.2 3.39 19.2 3.36"
         id="polyline14" />
      <path
         class="cls-1"
         d="m 19.48,0.03 c 0,0 -0.03,0 -0.04,0.02"
         id="path14" />
      <path
         class="cls-1"
         d="m 21.23,0.09 c 0,0 0,-0.03 0,-0.05 0,-0.01 -0.02,-0.02 -0.04,-0.02"
         id="path15" />
      <polyline
         class="cls-1"
         points="19.2 3.33 19.44 2.94 20.94 .3"
         id="polyline15" />
      <path
         class="cls-1"
         d="m 20.93,0.27 c 0,0 0,-0.03 0,-0.04 0,-0.01 -0.02,-0.02 -0.04,-0.02"
         id="path16" />
      <line
         class="cls-1"
         x1="19.5"
         y1="0.029999999"
         x2="21.200001"
         y2="0.029999999"
         id="line16" />
      <line
         class="cls-1"
         x1="19.58"
         y1="0.2"
         x2="20.91"
         y2="0.2"
         id="line17" />
      <path
         class="cls-1"
         d="m 19.57,0.2 c 0,0 -0.03,0 -0.04,0.02"
         id="path17" />
      <path
         class="cls-1"
         d="m 19.17,3.32 c 0,0 0,0.01 0,0.02"
         id="path18" />
    </g>
  </g>
</svg>
