<?xml version="1.0" encoding="UTF-8" standalone="no"?>
<svg
   id="Capa_2"
   data-name="Capa 2"
   viewBox="0 0 26.32 1.78"
   version="1.1"
   sodipodi:docname="matriz2_g.svg"
   inkscape:version="1.3.2 (091e20e, 2023-11-25, custom)"
   xmlns:inkscape="http://www.inkscape.org/namespaces/inkscape"
   xmlns:sodipodi="http://sodipodi.sourceforge.net/DTD/sodipodi-0.dtd"
   xmlns="http://www.w3.org/2000/svg"
   xmlns:svg="http://www.w3.org/2000/svg">
  <sodipodi:namedview
     id="namedview1"
     pagecolor="#ffffff"
     bordercolor="#000000"
     borderopacity="0.25"
     inkscape:showpageshadow="2"
     inkscape:pageopacity="0.0"
     inkscape:pagecheckerboard="0"
     inkscape:deskcolor="#d1d1d1"
     showgrid="false"
     inkscape:zoom="77.849545"
     inkscape:cx="13.16"
     inkscape:cy="0.89274767"
     inkscape:window-width="2560"
     inkscape:window-height="1369"
     inkscape:window-x="-8"
     inkscape:window-y="-8"
     inkscape:window-maximized="1"
     inkscape:current-layer="Capa_1-2" />
  <defs
     id="defs1">
    <style
       id="style1">
      .cls-1 {
        fill: none;
        stroke: #000;
        stroke-linecap: round;
        stroke-linejoin: round;
        stroke-width: .1px;
      }
    </style>
  </defs>
  <g
     id="Capa_1-2"
     data-name="Capa 1">
    <polygon
       class="cls-1"
       points="26.15 1.52 26.12 1.52 26.09 1.52 26.06 1.49 26.03 1.46 26.03 1.43 26.03 1.4 26.03 1.31 25.19 1.31 25.16 1.31 25.16 1.28 25.16 .29 25.16 .26 25.13 .26 25.13 .23 25.1 .23 18.11 .23 18.08 .23 18.08 .26 18.05 .26 18.05 .29 18.05 1.37 18.05 1.4 18.08 1.4 18.08 1.43 18.11 1.43 18.29 1.43 18.32 1.43 18.32 1.46 18.32 1.67 18.32 1.7 18.29 1.7 18.29 1.73 17.6 1.73 17.57 1.73 17.57 1.7 17.54 1.67 17.54 1.46 17.57 1.46 17.57 1.43 17.6 1.43 17.84 1.43 17.87 1.4 17.87 1.37 17.87 .29 17.87 .26 17.87 .23 17.84 .23 11.39 .23 10.76 .23 10.73 .23 10.73 .26 10.73 .29 10.73 1.37 10.73 1.4 10.76 1.43 10.94 1.43 10.97 1.43 10.97 1.46 11 1.46 11 1.67 10.97 1.7 10.97 1.73 10.94 1.73 10.25 1.73 10.25 1.7 10.22 1.7 10.22 1.67 10.22 1.46 10.22 1.43 10.25 1.43 10.49 1.43 10.52 1.43 10.52 1.4 10.55 1.4 10.55 1.37 10.55 .29 10.55 .26 10.52 .26 10.52 .23 10.49 .23 3.44 .23 3.41 .23 3.41 .26 3.38 .26 3.38 .29 3.38 1.07 3.38 1.1 3.38 1.13 3.35 1.13 2.57 1.13 2.54 1.13 2.54 1.16 2.51 1.16 2.51 1.19 2.51 1.67 2.51 1.7 2.48 1.73 2.33 1.73 .08 1.73 .05 1.7 .05 1.67 .05 1.58 .05 1.55 .08 1.55 .26 1.55 .59 1.55 .62 1.55 2.3 1.55 2.33 1.52 2.33 1.49 2.33 1.19 2.33 1.16 2.33 1.13 2.3 1.13 1.46 1.13 1.43 1.13 1.43 1.1 1.43 1.07 1.43 1.01 1.43 .98 1.43 .95 1.46 .95 3.17 .95 3.2 .95 3.2 .92 3.2 .89 3.2 .11 3.23 .11 3.23 .08 3.23 .05 3.26 .05 11.39 .05 25.28 .05 25.31 .05 25.31 .08 25.34 .11 25.34 .95 25.34 1.1 25.34 1.13 25.34 1.16 25.37 1.16 26.21 1.16 26.24 1.16 26.27 1.16 26.27 1.19 26.27 1.4 26.27 1.43 26.24 1.46 26.24 1.49 26.21 1.49 26.21 1.52 26.18 1.52 26.15 1.52"
       id="polygon1"
       style="stroke-width:0.05;stroke-dasharray:none" />
  </g>
</svg>
