<?xml version="1.0" encoding="UTF-8"?>
<svg id="Capa_2" data-name="Capa 2" xmlns="http://www.w3.org/2000/svg" viewBox="0 0 11.04 15.72">
  <defs>
    <style>
      .cls-1 {
        fill: #706f6f;
      }
    </style>
  </defs>
  <g id="Capa_1-2" data-name="Capa 1">
    <rect class="cls-1" y="13.25" width="11.04" height="2.46"/>
    <g>
      <path class="cls-1" d="m2.13,8.49L9.25.12l.12-.12c.23,0,.46.11.63.31.18.21.27.5.26.8l-.09.1-6.35,7.46-.15.18c-.22.3-.35.65-.38,1.01l-1.17-1.37Zm1.7.19s-.05.06-.08.09-.05.06-.07.09l.15-.18Z"/>
      <path class="cls-1" d="m3.27,9.37s-.12.6-.6,1.42c0,0-.7,1.03.11,1.76,0,0,.36.27.84-.07,0,0,.6-.6-.04-1.83,0-.01-.35-.71-.31-1.27"/>
    </g>
  </g>
</svg>