<?xml version="1.0" encoding="UTF-8"?>
<svg id="Capa_2" data-name="Capa 2" xmlns="http://www.w3.org/2000/svg" viewBox="0 0 10.13 20.25">
  <defs>
    <style>
      .cls-1 {
        fill: none;
        stroke: #706f6f;
        stroke-miterlimit: 3.86;
        stroke-width: .66px;
      }

      .cls-2 {
        fill: #706f6f;
      }
    </style>
  </defs>
  <g id="Capa_1-2" data-name="Capa 1">
    <path class="cls-2" d="m1.47,4.15h7.2v7.89H1.47v-7.89Zm2.57,2.9h.46v-.5h-.46v.5Zm-.26,3.69h.96v-3.53h-.96v3.53Zm1.71-3.62c0,.11.07.2.17.2s.17-.09.17-.2-.08-.2-.17-.2-.17.09-.17.2m-.63,2.27c0,.52.09.98.22,1.33h1.16c.14-.34.23-.81.23-1.33,0-1.06-.36-1.91-.8-1.91s-.8.86-.8,1.91"/>
    <polygon class="cls-2" points="9.54 3.94 .31 3.94 4.92 0 9.54 3.94"/>
    <path class="cls-1" d="m.26,19.07c.39-.52.96-.84,1.6-.84s1.21.33,1.6.84c.39.52.97.84,1.6.84s1.22-.33,1.61-.84c.39-.52.96-.84,1.6-.84s1.21.33,1.6.84M.26,16.58c.39-.52.96-.84,1.6-.84s1.21.33,1.6.84c.39.52.97.84,1.6.84s1.22-.33,1.61-.84c.39-.52.96-.84,1.6-.84s1.21.33,1.6.84M.26,14.09c.39-.52.96-.84,1.6-.84s1.21.33,1.6.84c.39.52.97.84,1.6.84s1.22-.33,1.61-.84c.39-.52.96-.84,1.6-.84s1.21.33,1.6.84"/>
  </g>
</svg>