<?xml version="1.0" encoding="UTF-8"?>
<svg id="Capa_2" data-name="Capa 2" xmlns="http://www.w3.org/2000/svg" xmlns:xlink="http://www.w3.org/1999/xlink" viewBox="0 0 11.69 9.8">
  <defs>
    <style>
      .cls-1 {
        fill: #706f6f;
      }

      .cls-2 {
        clip-path: url(#clippath);
      }

      .cls-3 {
        fill: none;
      }
    </style>
    <clipPath id="clippath">
      <path class="cls-3" d="m7.03,1.45c0,.8.29,1.45.65,1.45s.65-.65.65-1.45-.29-1.45-.65-1.45-.65.65-.65,1.45"/>
    </clipPath>
  </defs>
  <g id="Capa_1-2" data-name="Capa 1">
    <rect class="cls-1" y="7.92" width="11.69" height="1.88"/>
    <polygon class="cls-1" points="2.24 1.27 9.45 1.27 11.69 7.75 0 7.75 2.24 1.27"/>
    <polygon class="cls-1" points="2.24 1.27 9.45 1.27 11.69 7.75 0 7.75 2.24 1.27"/>
    <g class="cls-2">
      <path class="cls-1" d="m7.7,2.07c-.3.11-.53.03-.8.2-.27.17-.35.54-.66.54-.43,0-.65-.26-1.08-.26h-.51c-.58,0-.74.69-.98,1.3-.17.43-.57.55-.57,1.02,0,.59.23,1.1.72,1.28.56.2.9.13,1.48.18.68.05,1.04.38,1.72.38.53,0,.88-.08,1.33-.41.33-.23.65-.41.65-.87,0-.67-.11-1.08-.44-1.63-.2-.33-.67-.26-.67-.66,0-.27.63-.91.63-1.19,0-.15-.3,0-.39-.09l-.41.2Z"/>
    </g>
  </g>
</svg>