<?xml version="1.0" encoding="UTF-8"?>
<svg id="Capa_2" data-name="Capa 2" xmlns="http://www.w3.org/2000/svg" viewBox="0 0 11.27 13.23">
  <defs>
    <style>
      .cls-1 {
        fill: #706f6f;
      }
    </style>
  </defs>
  <g id="Capa_1-2" data-name="Capa 1">
    <path class="cls-1" d="m10.56,5.46V.83h-3.9l1.08,1.23-1.56,1.83,1.81,2.13,1.56-1.83,1,1.27ZM4.65.83H.71v4.58l1.04-1.27,1.56,1.83,1.81-2.13-1.56-1.83,1.08-1.18ZM0,0h11.27v13.23H0V0Zm.71,7.77l1.01,1.27,1.56-1.83,1.81,2.13-1.56,1.83,1.08,1.23H.71v-4.63Zm5.91,4.63l1.08-1.18-1.56-1.83,1.81-2.13,1.56,1.83,1.04-1.27v4.58h-3.94Z"/>
  </g>
</svg>