<?xml version="1.0" encoding="UTF-8"?>
<svg id="Capa_2" data-name="Capa 2" xmlns="http://www.w3.org/2000/svg" viewBox="0 0 10.92 12.47">
  <defs>
    <style>
      .cls-1 {
        fill: #706f6f;
      }
    </style>
  </defs>
  <g id="Capa_1-2" data-name="Capa 1">
    <path class="cls-1" d="m6.13.74c.19-.02.39-.03.58-.05.11.07.21.14.32.21v.21c-.6.73-1.34,2.12-.63,3.08.26.12.53.25.79.37,1.32-.56,1.15-1.73,2.06-2.28.07-.02.14-.03.21-.05.3.28.32.34.21.8.03.02.07.04.11.05l.63-.27c1,.66.26.8,0,1.43.16.07.32.14.48.21,0,.28-.03.43-.11.58-1.23-.04-2.62-.11-3.01.69v1.06c.87.93,2.05.18,3.12.74-.02.14-.04.28-.05.43-.12.16-.28.18-.53.21.1.32.35.45.58.64-.02.16-.04.32-.05.48-.11.22-.21.26-.42.37-.25-.07-.49-.14-.74-.21.03.2.07.39.11.58-.26.15-.4.24-.69.11-.3-.8-.99-2.08-1.95-2.23-2.48,1.12-.34,2.13-.11,3.72-.54.34-.52.02-1-.16-.02.02-.03.04-.05.05.01.4-.03.62-.16.85-.16.04-.32.07-.48.11-.16-.11-.32-.21-.48-.32l-.05-.96c-.42.11-.33.41-.74.53-.14-.11-.28-.21-.42-.32.36-.84,1.35-1.73,1.16-2.81-.26-.34-.76-.67-1.27-.74-.96.76-1.15,1.58-1.95,2.39-.16-.09-.32-.18-.48-.26.05-.25.11-.5.16-.74-.36.09-.61.37-.95.26-.11-.07-.21-.14-.32-.21v-.64c.24-.16.53-.32.63-.64-.21-.07-.42-.14-.63-.21.04-.18.07-.35.11-.53,1.15-.19,2.27,0,3.01-.48.11-.5.06-1.07-.16-1.38-.19-.11-.39-.21-.58-.32l-2.22-.05c-.05-.04-.11-.07-.16-.11,0-.33.05-.4.16-.58.16-.02.32-.03.48-.05v-.16c-.21-.18-.42-.35-.63-.53-.05-.96.7-.83,1.21-.53.04-.04.07-.07.11-.11-.05-.18-.11-.35-.16-.53.14-.09.28-.18.42-.27.11.05.21.11.32.16.29.79.96,2.09,1.96,2.18.37-.23.74-.46,1.11-.69,0-1.39-1.11-2.24-1-2.92.11-.19.23-.22.42-.32.16.14.32.28.47.43.04-.02.07-.04.11-.05.04-.26.07-.53.11-.8.16-.05.32-.11.47-.16.23.11.41.19.53.43.02.11.03.21.05.32"/>
  </g>
</svg>