<?xml version="1.0" encoding="UTF-8"?>
<svg id="Capa_2" data-name="Capa 2" xmlns="http://www.w3.org/2000/svg" viewBox="0 0 11.05 15.46">
  <defs>
    <style>
      .cls-1 {
        fill: #706f6f;
      }
    </style>
  </defs>
  <g id="Capa_1-2" data-name="Capa 1">
    <g>
      <path class="cls-1" d="m5.97.92l.62-.06.34.26v.26c-.63.9-1.42,2.62-.67,3.81l.84.46c1.4-.69,1.22-2.15,2.19-2.83l.22-.07c.32.34.34.41.22.99l.11.07.67-.33c1.06.82.27.99,0,1.78l.5.26c0,.35-.03.53-.11.72-1.31-.05-2.77-.14-3.2.86v1.31c.92,1.15,2.18.22,3.31.92l-.06.53c-.13.2-.29.22-.56.26.1.4.38.56.62.79l-.06.59c-.11.28-.22.33-.45.46l-.78-.26.11.72c-.28.18-.42.3-.73.13-.32-.99-1.05-2.59-2.07-2.76-2.63,1.39-.36,2.64-.11,4.61-.57.43-.56.03-1.06-.2l-.06.07c.01.49-.04.77-.17,1.05l-.5.13-.13-.1V.14l.35-.14c.25.13.44.24.56.53l.06.39Z"/>
      <path class="cls-1" d="m1.53,3.55c2.71,2.66,2.76,5.33,2.75,5.38-.56,4.07-3.51,1.98-3.55,1.93-1.8-2.12.31-4.28.31-4.28.89-1,.49-3.03.49-3.03m.38,4.22s.18.92-.22,1.38c0,0-.96.98-.14,1.95.02.02,1.36.97,1.61-.88,0-.02-.02-1.23-1.25-2.45"/>
    </g>
  </g>
</svg>