<?xml version="1.0" encoding="UTF-8"?>
<svg id="Capa_2" data-name="Capa 2" xmlns="http://www.w3.org/2000/svg" viewBox="0 0 13.18 15.7">
  <defs>
    <style>
      .cls-1 {
        fill: #706f6f;
      }
    </style>
  </defs>
  <g id="Capa_1-2" data-name="Capa 1">
    <polygon class="cls-1" points="6.07 6.97 7.11 6.97 7.11 13.68 6.59 14.74 6.07 13.68 6.07 6.97"/>
    <g>
      <path class="cls-1" d="m.55,12.85l-.55,1.29s6.51,3.49,13.18.06l-.58-1.35s-6.09,2.95-12.05,0"/>
      <path class="cls-1" d="m3.41,3.3c0-1.82,1.42-3.3,3.18-3.3s3.18,1.48,3.18,3.3-1.42,3.3-3.18,3.3-3.18-1.48-3.18-3.3M6.65.83c-.09,0-.16.09-.16.21v2.21s0,.05,0,.07c.04.09.07.12.11.13l1.68.41c.11.03.21-.03.23-.12.02-.09-.05-.19-.16-.22l-1.56-.37V1.04c0-.11-.07-.21-.16-.21"/>
    </g>
  </g>
</svg>