<?xml version="1.0" encoding="UTF-8"?>
<svg id="Capa_2" data-name="Capa 2" xmlns="http://www.w3.org/2000/svg" viewBox="0 0 12.24 12.69">
  <defs>
    <style>
      .cls-1 {
        fill: #706f6f;
      }
    </style>
  </defs>
  <g id="Capa_1-2" data-name="Capa 1">
    <rect class="cls-1" y="8.61" width="12.24" height="4.08"/>
    <g>
      <path class="cls-1" d="m3.75,0s-.52.62-1.63,1.18c-.01,0-1.51.62-.99,2.22,0,.01.25.64,1.06.66.01,0,1.11-.2,1.12-2.25,0-.02.04-1.17.44-1.81"/>
      <path class="cls-1" d="m7,0s-.52.62-1.63,1.18c-.01,0-1.51.62-.99,2.22,0,.01.26.64,1.06.66.01,0,1.11-.2,1.12-2.25,0-.02.04-1.17.44-1.81"/>
      <path class="cls-1" d="m10.25,0s-.52.62-1.63,1.18c-.01,0-1.51.62-.99,2.22,0,.01.26.64,1.06.66.01,0,1.11-.2,1.12-2.25,0-.02.04-1.17.44-1.81"/>
      <path class="cls-1" d="m4.73,3.66s-.52.62-1.63,1.18c-.01,0-1.51.62-.99,2.22,0,.01.25.64,1.06.66.01,0,1.11-.2,1.12-2.25,0-.02.04-1.16.44-1.81"/>
      <path class="cls-1" d="m7.98,3.66s-.52.62-1.63,1.18c-.01,0-1.51.62-.99,2.22,0,.01.26.64,1.06.66.01,0,1.11-.2,1.12-2.25,0-.02.04-1.16.44-1.81"/>
      <path class="cls-1" d="m11.23,3.66s-.52.62-1.63,1.18c-.01,0-1.51.62-.99,2.22,0,.01.26.64,1.06.66.01,0,1.11-.2,1.12-2.25,0-.02.04-1.16.44-1.81"/>
    </g>
  </g>
</svg>