<?xml version="1.0" encoding="utf-8"?>
<!-- Generator: Adobe Illustrator 25.4.1, SVG Export Plug-In . SVG Version: 6.00 Build 0)  -->
<svg version="1.1" id="aebffceb-5228-41f4-b65a-e784d1bcde24"
	 xmlns="http://www.w3.org/2000/svg" xmlns:xlink="http://www.w3.org/1999/xlink" x="0px" y="0px" viewBox="0 0 72 66.5"
	 style="enable-background:new 0 0 72 66.5;" xml:space="preserve">
<style type="text/css">
	.st0{fill:none;stroke:#000000;stroke-width:0.25;stroke-linejoin:round;stroke-miterlimit:10;}
	.st1{fill:none;stroke:#000000;stroke-width:0.25;stroke-linecap:round;stroke-linejoin:round;stroke-miterlimit:10;}
</style>
<line class="st0" x1="37.5" y1="33.4" x2="37.6" y2="65.5"/>
<line class="st0" x1="36.7" y1="34.2" x2="36.8" y2="66.4"/>
<polyline class="st0" points="35.4,34.2 35.5,66.4 36.8,66.4 37.6,65.5 "/>
<polyline class="st1" points="34.3,65.6 34.2,33.4 33.4,34.2 "/>
<polyline class="st0" points="33.5,66.4 33.4,34.2 32.1,34.2 32.2,66.4 33.5,66.4 34.3,65.6 "/>
<line class="st0" x1="34.2" y1="65.5" x2="35.5" y2="65.5"/>
<polyline class="st1" points="31,65.6 30.9,33.4 30.1,34.2 "/>
<polyline class="st0" points="30.2,66.4 30.1,34.2 28.8,34.2 28.9,66.4 30.2,66.4 31,65.6 "/>
<polyline class="st0" points="30.9,33.4 32.9,33.4 32.1,34.2 "/>
<line class="st0" x1="30.9" y1="65.5" x2="32.2" y2="65.5"/>
<polyline class="st1" points="27.6,65.6 27.5,33.4 26.7,34.2 "/>
<polyline class="st0" points="26.8,66.4 26.7,34.2 25.4,34.2 25.5,66.4 26.8,66.4 27.6,65.6 "/>
<polyline class="st0" points="27.5,33.4 29.6,33.4 28.8,34.2 "/>
<line class="st0" x1="27.5" y1="65.5" x2="28.8" y2="65.5"/>
<polyline class="st1" points="24.2,65.6 24.1,33.4 23.3,34.2 "/>
<polyline class="st0" points="23.4,66.4 23.3,34.2 22,34.2 22.1,66.4 23.4,66.4 24.2,65.6 "/>
<polyline class="st0" points="24.1,33.4 26.2,33.4 25.4,34.2 "/>
<line class="st0" x1="24.1" y1="65.5" x2="25.4" y2="65.5"/>
<polyline class="st1" points="20.8,65.6 20.7,33.4 19.9,34.2 "/>
<polyline class="st0" points="20,66.4 19.9,34.2 18.6,34.2 18.7,66.4 20,66.4 20.8,65.6 "/>
<polyline class="st0" points="20.7,33.4 22.8,33.4 22,34.2 "/>
<line class="st0" x1="20.7" y1="65.5" x2="22" y2="65.5"/>
<polyline class="st1" points="17.4,65.6 17.3,33.4 16.5,34.2 "/>
<polyline class="st0" points="16.6,66.4 16.5,34.2 15.2,34.2 15.3,66.4 16.6,66.4 17.4,65.6 "/>
<polyline class="st0" points="17.3,33.4 19.4,33.4 18.6,34.2 "/>
<line class="st0" x1="17.3" y1="65.5" x2="18.6" y2="65.5"/>
<polyline class="st1" points="14,65.6 13.9,33.4 13.1,34.2 "/>
<polyline class="st0" points="13.2,66.4 13.1,34.2 11.8,34.2 11.9,66.4 13.2,66.4 14,65.6 "/>
<polyline class="st0" points="13.9,33.4 16,33.4 15.2,34.2 "/>
<line class="st0" x1="13.9" y1="65.5" x2="15.2" y2="65.5"/>
<polyline class="st1" points="10.6,65.6 10.5,33.4 9.7,34.2 "/>
<polyline class="st0" points="9.8,66.4 9.7,34.2 8.4,34.2 8.5,66.4 9.8,66.4 10.6,65.6 "/>
<polyline class="st0" points="10.5,33.4 12.6,33.4 11.8,34.2 "/>
<line class="st0" x1="10.5" y1="65.5" x2="11.8" y2="65.5"/>
<polyline class="st1" points="7.2,65.6 7.1,33.4 6.3,34.2 "/>
<polyline class="st0" points="6.4,66.4 6.3,34.2 5,34.2 5.1,66.4 6.4,66.4 7.2,65.6 "/>
<polyline class="st0" points="7.1,33.4 9.2,33.4 8.4,34.2 "/>
<line class="st0" x1="7.1" y1="65.5" x2="8.4" y2="65.5"/>
<polyline class="st1" points="3.8,65.6 3.7,33.4 2.9,34.2 "/>
<polyline class="st0" points="3,66.4 2.9,34.2 1.6,34.2 1.7,66.4 3,66.4 3.8,65.6 "/>
<g>
	<polyline class="st0" points="3.7,33.4 5.8,33.4 5,34.2 	"/>
</g>
<line class="st0" x1="3.7" y1="65.5" x2="5" y2="65.5"/>
<polyline class="st0" points="1.6,65.5 0.2,65.5 0.2,33.4 2.4,33.4 1.6,34.2 "/>
<polyline class="st0" points="34.2,33.4 36.2,33.4 36.2,33.4 35.4,34.2 36.7,34.2 37.5,33.4 40.2,33.4 41.1,32.5 "/>
<line class="st0" x1="37.6" y1="65.5" x2="40.3" y2="65.5"/>
<polyline class="st0" points="42.8,30.8 42,31.7 40.5,31.7 39.5,32.5 41.1,32.5 41.1,32.5 41.2,64.7 40.3,65.5 40.2,33.4 "/>
<line class="st0" x1="41.2" y1="63.8" x2="42.1" y2="63.8"/>
<polyline class="st0" points="44.6,29.1 43.8,29.9 42.2,29.9 41.3,30.8 42.8,30.8 42.8,30.8 42.9,63 42.1,63.8 42,31.7 "/>
<line class="st0" x1="42.9" y1="62.1" x2="43.8" y2="62.1"/>
<polyline class="st0" points="46.4,27.3 45.5,28.2 44,28.2 43,29.1 44.6,29.1 44.6,29.1 44.7,61.3 43.8,62.1 43.7,29.9 "/>
<line class="st0" x1="44.7" y1="60.3" x2="45.6" y2="60.3"/>
<polyline class="st0" points="48.1,25.6 47.3,26.4 45.7,26.5 44.8,27.3 46.4,27.3 46.4,27.3 46.5,59.5 45.6,60.3 45.5,28.2 "/>
<line class="st0" x1="46.4" y1="58.6" x2="47.4" y2="58.6"/>
<polyline class="st0" points="49.9,23.9 49.1,24.7 47.5,24.7 46.6,25.6 48.1,25.6 48.1,25.6 48.2,57.8 47.4,58.6 47.3,26.4 "/>
<line class="st0" x1="48.2" y1="56.8" x2="49.1" y2="56.8"/>
<polyline class="st0" points="51.7,22.1 50.8,23 49.3,23 48.3,23.9 49.9,23.8 49.9,23.9 50,56.1 49.1,56.8 49,24.7 "/>
<line class="st0" x1="50" y1="55.1" x2="50.9" y2="55.1"/>
<polyline class="st0" points="53.4,20.4 52.6,21.3 51,21.3 50.1,22.1 51.7,22.1 51.7,22.1 51.8,54.3 50.9,55.1 50.8,23 "/>
<line class="st0" x1="51.8" y1="53.4" x2="52.7" y2="53.4"/>
<polyline class="st0" points="55.2,18.7 54.4,19.5 52.8,19.5 51.9,20.4 53.4,20.4 53.4,20.4 53.5,52.6 52.7,53.4 52.6,21.3 "/>
<line class="st0" x1="53.5" y1="51.7" x2="54.5" y2="51.7"/>
<polyline class="st0" points="56.9,16.9 56.1,17.8 54.6,17.8 53.6,18.7 55.2,18.7 55.2,18.7 55.3,50.9 54.5,51.7 54.4,19.5 "/>
<line class="st0" x1="55.3" y1="49.9" x2="56.2" y2="49.9"/>
<polyline class="st0" points="58.7,15.2 57.9,16.1 56.3,16.1 55.4,16.9 56.9,16.9 56.9,16.9 57,49.1 56.2,49.9 56.1,17.8 "/>
<line class="st0" x1="57.1" y1="48.2" x2="58" y2="48.2"/>
<polyline class="st0" points="60.5,13.5 59.7,14.3 58.1,14.3 57.2,15.2 58.7,15.2 58.7,15.2 58.8,47.4 58,48.2 57.9,16.1 "/>
<line class="st0" x1="58.8" y1="46.5" x2="59.7" y2="46.5"/>
<polyline class="st0" points="62.2,11.7 61.4,12.6 59.9,12.6 58.9,13.5 60.5,13.5 60.5,13.5 60.6,45.7 59.7,46.5 59.6,14.3 "/>
<line class="st0" x1="60.6" y1="44.7" x2="61.5" y2="44.7"/>
<polyline class="st0" points="64,10 63.2,10.9 61.6,10.8 60.7,11.7 62.2,11.7 62.2,11.7 62.3,43.9 61.5,44.7 61.4,12.6 "/>
<line class="st0" x1="62.4" y1="43" x2="63.3" y2="43"/>
<polyline class="st0" points="65.8,8.3 65,9.1 63.4,9.1 62.5,10 64,10 64,10 64.1,42.2 63.3,43 63.2,10.9 "/>
<line class="st0" x1="64.1" y1="41.3" x2="65.1" y2="41.3"/>
<polyline class="st0" points="67.6,6.5 66.7,7.4 65.2,7.4 64.3,8.3 65.8,8.3 65.8,8.3 65.9,40.5 65.1,41.3 65,9.1 "/>
<line class="st0" x1="65.9" y1="39.5" x2="66.8" y2="39.5"/>
<polyline class="st0" points="69.3,4.8 68.5,5.6 67,5.7 66,6.5 67.6,6.5 67.6,6.5 67.7,38.7 66.8,39.5 66.7,7.4 "/>
<line class="st0" x1="67.6" y1="37.8" x2="68.6" y2="37.8"/>
<polyline class="st0" points="71.1,3.1 70.3,3.9 68.7,3.9 67.8,4.8 69.3,4.8 69.3,4.8 69.4,37 68.6,37.8 68.5,5.6 "/>
<line class="st0" x1="69.4" y1="36.1" x2="70.4" y2="36"/>
<polyline class="st0" points="70.5,3.1 70.5,2.2 69.5,3.1 71.1,3.1 71.1,3.1 71.2,35.3 70.4,36 70.3,3.9 "/>
</svg>
