<?xml version="1.0" encoding="utf-8"?>
<!-- Generator: Adobe Illustrator 25.4.1, SVG Export Plug-In . SVG Version: 6.00 Build 0)  -->
<svg version="1.1" id="aebffceb-5228-41f4-b65a-e784d1bcde24"
	 xmlns="http://www.w3.org/2000/svg" xmlns:xlink="http://www.w3.org/1999/xlink" x="0px" y="0px" viewBox="0 0 72 66.5"
	 style="enable-background:new 0 0 72 66.5;" xml:space="preserve">
<style type="text/css">
	.st0{fill:none;stroke:#000000;stroke-width:0.25;stroke-linejoin:round;stroke-miterlimit:10;}
	.st1{fill:none;stroke:#000000;stroke-width:0.25;stroke-linecap:round;stroke-linejoin:round;stroke-miterlimit:10;}
</style>
<line class="st0" x1="37.5" y1="33.4" x2="37.6" y2="65.5"/>
<line class="st0" x1="36.7" y1="34.2" x2="36.8" y2="66.4"/>
<polyline class="st0" points="35.4,34.2 35.5,66.4 36.8,66.4 37.6,65.5 "/>
<polyline class="st1" points="34.3,65.6 34.2,33.4 33.4,34.2 "/>
<polyline class="st0" points="33.5,66.4 33.4,34.2 32.1,34.2 32.2,66.4 33.5,66.4 34.3,65.6 "/>
<line class="st0" x1="34.2" y1="65.5" x2="35.5" y2="65.5"/>
<polyline class="st1" points="31,65.6 30.9,33.4 30.1,34.2 "/>
<polyline class="st0" points="30.2,66.4 30.1,34.2 28.8,34.2 28.9,66.4 30.2,66.4 31,65.6 "/>
<polyline class="st0" points="30.9,33.4 32.9,33.4 32.1,34.2 "/>
<line class="st0" x1="30.9" y1="65.5" x2="32.2" y2="65.5"/>
<polyline class="st1" points="27.6,65.6 27.5,33.4 26.7,34.2 "/>
<polyline class="st0" points="26.8,66.4 26.7,34.2 25.4,34.2 25.5,66.4 26.8,66.4 27.6,65.6 "/>
<polyline class="st0" points="27.5,33.4 29.6,33.4 28.8,34.2 "/>
<line class="st0" x1="27.5" y1="65.5" x2="28.8" y2="65.5"/>
<polyline class="st1" points="24.2,65.6 24.1,33.4 23.3,34.2 "/>
<polyline class="st0" points="23.4,66.4 23.3,34.2 22,34.2 22.1,66.4 23.4,66.4 24.2,65.6 "/>
<polyline class="st0" points="24.1,33.4 26.2,33.4 25.4,34.2 "/>
<line class="st0" x1="24.1" y1="65.5" x2="25.4" y2="65.5"/>
<polyline class="st1" points="20.8,65.6 20.7,33.4 19.9,34.2 "/>
<polyline class="st0" points="20,66.4 19.9,34.2 18.6,34.2 18.7,66.4 20,66.4 20.8,65.6 "/>
<polyline class="st0" points="20.7,33.4 22.8,33.4 22,34.2 "/>
<line class="st0" x1="20.7" y1="65.5" x2="22" y2="65.5"/>
<polyline class="st1" points="17.4,65.6 17.3,33.4 16.5,34.2 "/>
<polyline class="st0" points="16.6,66.4 16.5,34.2 15.2,34.2 15.3,66.4 16.6,66.4 17.4,65.6 "/>
<polyline class="st0" points="17.3,33.4 19.4,33.4 18.6,34.2 "/>
<line class="st0" x1="17.3" y1="65.5" x2="18.6" y2="65.5"/>
<polyline class="st1" points="14,65.6 13.9,33.4 13.1,34.2 "/>
<polyline class="st0" points="13.2,66.4 13.1,34.2 11.8,34.2 11.9,66.4 13.2,66.4 14,65.6 "/>
<polyline class="st0" points="13.9,33.4 16,33.4 15.2,34.2 "/>
<line class="st0" x1="13.9" y1="65.5" x2="15.2" y2="65.5"/>
<polyline class="st1" points="10.6,65.6 10.5,33.4 9.7,34.2 "/>
<polyline class="st0" points="9.8,66.4 9.7,34.2 8.4,34.2 8.5,66.4 9.8,66.4 10.6,65.6 "/>
<polyline class="st0" points="10.5,33.4 12.6,33.4 11.8,34.2 "/>
<line class="st0" x1="10.5" y1="65.5" x2="11.8" y2="65.5"/>
<polyline class="st1" points="7.2,65.6 7.1,33.4 6.3,34.2 "/>
<polyline class="st0" points="6.4,66.4 6.3,34.2 5,34.2 5.1,66.4 6.4,66.4 7.2,65.6 "/>
<polyline class="st0" points="7.1,33.4 9.2,33.4 8.4,34.2 "/>
<line class="st0" x1="7.1" y1="65.5" x2="8.4" y2="65.5"/>
<polyline class="st1" points="3.8,65.6 3.7,33.4 2.9,34.2 "/>
<polyline class="st0" points="3,66.4 2.9,34.2 1.6,34.2 1.7,66.4 3,66.4 3.8,65.6 "/>
<g>
	<polyline class="st0" points="3.7,33.4 5.8,33.4 5,34.2 	"/>
</g>
<line class="st0" x1="3.7" y1="65.5" x2="5" y2="65.5"/>
<polyline class="st0" points="1.6,65.5 0.2,65.5 0.2,33.4 2.4,33.4 1.6,34.2 "/>
<polyline class="st0" points="34.2,33.4 36.2,33.4 36.2,33.4 35.4,34.2 36.7,34.2 37.5,33.4 39.1,33.4 39.9,32.5 "/>
<line class="st0" x1="37.6" y1="65.5" x2="39.2" y2="65.5"/>
<polyline class="st0" points="41.7,30.8 40.8,31.7 39.3,31.7 38.3,32.5 39.9,32.5 39.9,32.5 40,64.7 39.2,65.5 39.1,33.4 "/>
<line class="st0" x1="40" y1="63.8" x2="40.9" y2="63.8"/>
<polyline class="st0" points="43.4,29.1 42.6,29.9 41,29.9 40.1,30.8 41.7,30.8 41.7,30.8 41.8,63 40.9,63.8 40.8,31.7 "/>
<line class="st0" x1="41.7" y1="62.1" x2="42.7" y2="62.1"/>
<polyline class="st0" points="45.2,27.3 44.4,28.2 42.8,28.2 41.9,29.1 43.4,29.1 43.4,29.1 43.5,61.3 42.7,62.1 42.6,29.9 "/>
<line class="st0" x1="43.5" y1="60.3" x2="44.4" y2="60.3"/>
<polyline class="st0" points="46.9,25.6 46.1,26.4 44.6,26.5 43.6,27.3 45.2,27.3 45.2,27.3 45.3,59.5 44.4,60.3 44.3,28.2 "/>
<line class="st0" x1="45.3" y1="58.6" x2="46.2" y2="58.6"/>
<polyline class="st0" points="48.7,23.9 47.9,24.7 46.3,24.7 45.4,25.6 46.9,25.6 46.9,25.6 47,57.8 46.2,58.6 46.1,26.4 "/>
<line class="st0" x1="47" y1="56.8" x2="48" y2="56.8"/>
<polyline class="st0" points="50.5,22.1 49.7,23 48.1,23 47.2,23.9 48.7,23.8 48.7,23.9 48.8,56.1 48,56.8 47.9,24.7 "/>
<line class="st0" x1="48.8" y1="55.1" x2="49.7" y2="55.1"/>
<polyline class="st0" points="52.3,20.4 51.4,21.3 49.9,21.3 48.9,22.1 50.5,22.1 50.5,22.1 50.6,54.3 49.7,55.1 49.6,23 "/>
<line class="st0" x1="50.6" y1="53.4" x2="51.5" y2="53.4"/>
<polyline class="st0" points="54,18.7 53.2,19.5 51.7,19.5 50.7,20.4 52.3,20.4 52.3,20.4 52.4,52.6 51.5,53.4 51.4,21.3 "/>
<line class="st0" x1="52.4" y1="51.7" x2="53.3" y2="51.7"/>
<polyline class="st0" points="55.8,16.9 54.9,17.8 53.4,17.8 52.5,18.7 54,18.7 54,18.7 54.1,50.9 53.3,51.7 53.2,19.5 "/>
<line class="st0" x1="54.1" y1="49.9" x2="55" y2="49.9"/>
<polyline class="st0" points="57.6,15.2 56.7,16.1 55.2,16.1 54.2,16.9 55.8,16.9 55.8,16.9 55.9,49.1 55,49.9 54.9,17.8 "/>
<line class="st0" x1="55.9" y1="48.2" x2="56.8" y2="48.2"/>
<polyline class="st0" points="59.3,13.5 58.5,14.3 56.9,14.3 56,15.2 57.6,15.2 57.6,15.2 57.7,47.4 56.8,48.2 56.7,16.1 "/>
<line class="st0" x1="57.6" y1="46.5" x2="58.6" y2="46.5"/>
<polyline class="st0" points="61.1,11.7 60.2,12.6 58.7,12.6 57.8,13.5 59.3,13.5 59.3,13.5 59.4,45.7 58.6,46.5 58.5,14.3 "/>
<line class="st0" x1="59.4" y1="44.7" x2="60.3" y2="44.7"/>
<polyline class="st0" points="62.9,10 62,10.9 60.5,10.8 59.5,11.7 61.1,11.7 61.1,11.7 61.2,43.9 60.3,44.7 60.2,12.6 "/>
<line class="st0" x1="61.2" y1="43" x2="62.1" y2="43"/>
<polyline class="st0" points="64.6,8.3 63.8,9.1 62.2,9.1 61.3,10 62.9,10 62.9,10 63,42.2 62.1,43 62,10.9 "/>
<line class="st0" x1="63" y1="41.3" x2="63.9" y2="41.3"/>
<polyline class="st0" points="66.4,6.5 65.6,7.4 64,7.4 63.1,8.3 64.6,8.3 64.6,8.3 64.7,40.5 63.9,41.3 63.8,9.1 "/>
<line class="st0" x1="64.7" y1="39.5" x2="65.7" y2="39.5"/>
<polyline class="st0" points="68.1,4.8 67.3,5.6 65.8,5.7 64.8,6.5 66.4,6.5 66.4,6.5 66.5,38.7 65.7,39.5 65.6,7.4 "/>
<line class="st0" x1="66.5" y1="37.8" x2="67.4" y2="37.8"/>
<polyline class="st0" points="69.9,3.1 69.1,3.9 67.5,3.9 66.6,4.8 68.1,4.8 68.1,4.8 68.2,37 67.4,37.8 67.3,5.6 "/>
<line class="st0" x1="68.3" y1="36.1" x2="69.2" y2="36"/>
<polyline class="st0" points="71.7,1.3 70.9,2.2 69.3,2.2 68.4,3.1 69.9,3.1 69.9,3.1 70,35.3 69.2,36 69.1,3.9 "/>
<line class="st0" x1="70" y1="34.3" x2="70.9" y2="34.3"/>
<polyline class="st0" points="71.1,1.3 71.1,0.4 71.1,0.4 70.1,1.3 71.7,1.3 71.7,1.3 71.8,33.5 70.9,34.3 70.8,2.2 "/>
</svg>
