<?xml version="1.0" encoding="utf-8"?>
<!-- Generator: Adobe Illustrator 25.4.1, SVG Export Plug-In . SVG Version: 6.00 Build 0)  -->
<svg version="1.1" id="bfc67a1a-3696-46ae-852c-2e5cb3d74908"
	 xmlns="http://www.w3.org/2000/svg" xmlns:xlink="http://www.w3.org/1999/xlink" x="0px" y="0px" viewBox="0 0 111.1 49"
	 style="enable-background:new 0 0 111.1 49;" xml:space="preserve">
<style type="text/css">
	.st0{fill:none;stroke:#000000;stroke-width:0.25;stroke-linejoin:round;stroke-miterlimit:10;}
	.st1{fill:none;stroke:#000000;stroke-width:0.25;stroke-linecap:round;stroke-linejoin:round;stroke-miterlimit:10;}
</style>
<g>
	<line class="st0" x1="35.4" y1="0.9" x2="35.4" y2="3.7"/>
	<polyline class="st1" points="33,48.2 32.9,0.1 32.1,0.9 	"/>
	<polyline class="st0" points="32.2,49 32.1,0.9 30.8,0.9 30.9,49 32.2,49 33,48.2 	"/>
	<line class="st0" x1="32.9" y1="48.1" x2="34.2" y2="48.1"/>
	<polyline class="st1" points="29.7,48.2 29.6,0.1 28.8,0.9 	"/>
	<polyline class="st0" points="28.9,49 28.8,0.9 27.5,0.9 27.6,49 28.9,49 29.7,48.2 	"/>
	<polyline class="st0" points="29.6,0.1 31.6,0.1 30.8,0.9 	"/>
	<line class="st0" x1="29.6" y1="48.1" x2="30.9" y2="48.1"/>
	<polyline class="st1" points="26.3,48.2 26.2,0.1 25.4,0.9 	"/>
	<polyline class="st0" points="25.5,49 25.4,0.9 24.1,0.9 24.2,49 25.5,49 26.3,48.2 	"/>
	<polyline class="st0" points="26.2,0.1 28.3,0.1 27.5,0.9 	"/>
	<line class="st0" x1="26.2" y1="48.1" x2="27.5" y2="48.1"/>
	<polyline class="st1" points="22.9,48.2 22.8,0.1 22,0.9 	"/>
	<polyline class="st0" points="22.1,49 22,0.9 20.7,0.9 20.8,49 22.1,49 22.9,48.2 	"/>
	<polyline class="st0" points="22.8,0.1 24.9,0.1 24.1,0.9 	"/>
	<line class="st0" x1="22.8" y1="48.1" x2="24.1" y2="48.1"/>
	<polyline class="st1" points="19.5,48.2 19.4,0.1 18.6,0.9 	"/>
	<polyline class="st0" points="18.7,49 18.6,0.9 17.3,0.9 17.4,49 18.7,49 19.5,48.2 	"/>
	<polyline class="st0" points="19.4,0.1 21.5,0.1 20.7,0.9 	"/>
	<line class="st0" x1="19.4" y1="48.1" x2="20.7" y2="48.1"/>
	<polyline class="st1" points="16.1,48.2 16,0.1 15.2,0.9 	"/>
	<polyline class="st0" points="15.3,49 15.2,0.9 13.9,0.9 14,49 15.3,49 16.1,48.2 	"/>
	<polyline class="st0" points="16,0.1 18.1,0.1 17.3,0.9 	"/>
	<line class="st0" x1="16" y1="48.1" x2="17.3" y2="48.1"/>
	<polyline class="st1" points="12.7,48.2 12.6,0.1 11.8,0.9 	"/>
	<polyline class="st0" points="11.9,49 11.8,0.9 10.5,0.9 10.6,49 11.9,49 12.7,48.2 	"/>
	<polyline class="st0" points="12.6,0.1 14.7,0.1 13.9,0.9 	"/>
	<line class="st0" x1="12.6" y1="48.1" x2="13.9" y2="48.1"/>
	<polyline class="st1" points="9.3,48.2 9.2,0.1 8.4,0.9 	"/>
	<polyline class="st0" points="8.5,49 8.4,0.9 7.1,0.9 7.2,49 8.5,49 9.3,48.2 	"/>
	<polyline class="st0" points="9.2,0.1 11.3,0.1 10.5,0.9 	"/>
	<line class="st0" x1="9.2" y1="48.1" x2="10.5" y2="48.1"/>
	<polyline class="st1" points="5.9,48.2 5.8,0.1 5,0.9 	"/>
	<polyline class="st0" points="5.1,49 5,0.9 3.7,0.9 3.8,49 5.1,49 5.9,48.2 	"/>
	<polyline class="st0" points="5.8,0.1 7.9,0.1 7.1,0.9 	"/>
	<line class="st0" x1="5.8" y1="48.1" x2="7.1" y2="48.1"/>
	<polyline class="st1" points="2.5,48.2 2.4,0.1 1.6,0.9 	"/>
	<polyline class="st0" points="1.7,49 1.6,0.9 0.3,0.9 0.4,49 1.7,49 2.5,48.2 	"/>
	<g>
		<polyline class="st0" points="2.4,0.1 4.5,0.1 3.7,0.9 		"/>
	</g>
	<line class="st0" x1="2.4" y1="48.1" x2="3.7" y2="48.1"/>
	<polyline class="st0" points="0,0.1 1.1,0.1 0.3,0.9 	"/>
	<line class="st0" x1="0.3" y1="48.1" x2="0" y2="48.1"/>
	<polyline class="st0" points="32.9,0.1 34.9,0.1 34.9,0.1 34.1,0.9 35.4,0.9 36.2,0.1 36.2,3 	"/>
</g>
<g>
	<polyline class="st1" points="110.9,48.2 110.8,0.1 110,0.9 	"/>
	<polyline class="st0" points="110.1,49 110,0.9 108.7,0.9 108.8,49 110.1,49 110.9,48.2 	"/>
	<line class="st0" x1="110.8" y1="48.1" x2="111.1" y2="48.1"/>
	<polyline class="st1" points="107.6,48.2 107.5,0.1 106.7,0.9 	"/>
	<polyline class="st0" points="106.8,49 106.7,0.9 105.4,0.9 105.5,49 106.8,49 107.6,48.2 	"/>
	<polyline class="st0" points="107.5,0.1 109.5,0.1 108.7,0.9 	"/>
	<line class="st0" x1="107.5" y1="48.1" x2="108.8" y2="48.1"/>
	<polyline class="st1" points="104.2,48.2 104.1,0.1 103.3,0.9 	"/>
	<polyline class="st0" points="103.4,49 103.3,0.9 102,0.9 102.1,49 103.4,49 104.2,48.2 	"/>
	<polyline class="st0" points="104.1,0.1 106.2,0.1 105.4,0.9 	"/>
	<line class="st0" x1="104.1" y1="48.1" x2="105.4" y2="48.1"/>
	<polyline class="st1" points="100.8,48.2 100.7,0.1 99.9,0.9 	"/>
	<polyline class="st0" points="100,49 99.9,0.9 98.6,0.9 98.7,49 100,49 100.8,48.2 	"/>
	<polyline class="st0" points="100.7,0.1 102.8,0.1 102,0.9 	"/>
	<line class="st0" x1="100.7" y1="48.1" x2="102" y2="48.1"/>
	<polyline class="st1" points="97.4,48.2 97.3,0.1 96.5,0.9 	"/>
	<polyline class="st0" points="96.6,49 96.5,0.9 95.2,0.9 95.3,49 96.6,49 97.4,48.2 	"/>
	<polyline class="st0" points="97.3,0.1 99.4,0.1 98.6,0.9 	"/>
	<line class="st0" x1="97.3" y1="48.1" x2="98.6" y2="48.1"/>
	<polyline class="st1" points="94,48.2 93.9,0.1 93.1,0.9 	"/>
	<polyline class="st0" points="93.2,49 93.1,0.9 91.8,0.9 91.9,49 93.2,49 94,48.2 	"/>
	<polyline class="st0" points="93.9,0.1 96,0.1 95.2,0.9 	"/>
	<line class="st0" x1="93.9" y1="48.1" x2="95.2" y2="48.1"/>
	<polyline class="st1" points="90.6,48.2 90.5,0.1 89.7,0.9 	"/>
	<polyline class="st0" points="89.8,49 89.7,0.9 88.4,0.9 88.5,49 89.8,49 90.6,48.2 	"/>
	<polyline class="st0" points="90.5,0.1 92.6,0.1 91.8,0.9 	"/>
	<line class="st0" x1="90.5" y1="48.1" x2="91.8" y2="48.1"/>
	<polyline class="st1" points="87.2,48.2 87.1,0.1 86.3,0.9 	"/>
	<polyline class="st0" points="86.4,49 86.3,0.9 85,0.9 85.1,49 86.4,49 87.2,48.2 	"/>
	<polyline class="st0" points="87.1,0.1 89.2,0.1 88.4,0.9 	"/>
	<line class="st0" x1="87.1" y1="48.1" x2="88.4" y2="48.1"/>
	<polyline class="st1" points="83.8,48.2 83.7,0.1 82.9,0.9 	"/>
	<polyline class="st0" points="83,49 82.9,0.9 81.6,0.9 81.7,49 83,49 83.8,48.2 	"/>
	<polyline class="st0" points="83.7,0.1 85.8,0.1 85,0.9 	"/>
	<line class="st0" x1="83.7" y1="48.1" x2="85" y2="48.1"/>
	<polyline class="st1" points="80.4,48.2 80.3,0.1 79.5,0.9 	"/>
	<polyline class="st0" points="79.6,49 79.5,0.9 78.2,0.9 78.3,49 79.6,49 80.4,48.2 	"/>
	<g>
		<polyline class="st0" points="80.3,0.1 82.4,0.1 81.6,0.9 		"/>
	</g>
	<line class="st0" x1="80.3" y1="48.1" x2="81.6" y2="48.1"/>
	<polyline class="st0" points="76.8,0.1 79,0.1 78.2,0.9 	"/>
	<line class="st0" x1="78.2" y1="48.1" x2="76.8" y2="48.1"/>
	<line class="st0" x1="110.8" y1="0.1" x2="111.1" y2="0.1"/>
</g>
<g>
	<path class="st0" d="M37.8,44.7"/>
	<line class="st0" x1="74.7" y1="4.6" x2="74.8" y2="46.6"/>
	<path class="st0" d="M34.7,45.7"/>
	<line class="st0" x1="74.7" y1="4.6" x2="77.4" y2="1.7"/>
	<path class="st0" d="M37.8,44.7"/>
	<g>
		<line class="st0" x1="34.6" y1="4.6" x2="74.7" y2="4.5"/>
	</g>
	<g>
		<polygon class="st0" points="35.9,6 36.1,45.2 73.3,45.1 73.2,5.9 		"/>
	</g>
	<g>
		<polyline class="st0" points="38.8,5.9 38.9,42.4 73.2,42.3 		"/>
	</g>
	<line class="st0" x1="36.1" y1="45.2" x2="38.9" y2="42.4"/>
</g>
<line class="st0" x1="35.5" y1="46.6" x2="35.5" y2="49"/>
<polyline class="st0" points="36.3,46.6 36.3,48.1 35.5,49 34.2,49 34.1,0.9 "/>
<g>
	<g>
		<path class="st0" d="M37.4,0.9"/>
		<line class="st0" x1="36.2" y1="48.1" x2="37.5" y2="48.1"/>
		<polyline class="st0" points="36.2,0.1 38.2,0.1 38.2,0.1 37.4,0.9 38.7,0.9 39.5,0.1 39.5,1.7 40.8,1.7 		"/>
	</g>
	<line class="st0" x1="38.8" y1="46.6" x2="38.8" y2="49"/>
	<polyline class="st0" points="37.5,46.6 37.5,49 38.8,49 39.6,48.1 39.6,46.6 	"/>
</g>
<polyline class="st0" points="37.4,0.9 37.4,2.5 38.7,2.5 38.7,0.9 "/>
<line class="st0" x1="38.7" y1="2.5" x2="39.5" y2="1.7"/>
<g>
	<g>
		<path class="st0" d="M40.7,0.9"/>
		<line class="st0" x1="39.5" y1="48.1" x2="40.8" y2="48.1"/>
		<polyline class="st0" points="39.5,0.1 41.5,0.1 41.5,0.1 40.7,0.9 42,0.9 42.8,0.1 42.8,1.7 44.1,1.7 		"/>
	</g>
	<line class="st0" x1="42.1" y1="46.6" x2="42.1" y2="49"/>
	<polyline class="st0" points="40.8,46.6 40.8,49 42.1,49 42.9,48.1 42.9,46.6 	"/>
</g>
<polyline class="st0" points="40.7,0.9 40.7,2.5 42,2.5 42,0.9 "/>
<line class="st0" x1="42" y1="2.5" x2="42.8" y2="1.7"/>
<g>
	<g>
		<path class="st0" d="M44.1,0.9"/>
		<line class="st0" x1="42.9" y1="48.1" x2="44.2" y2="48.1"/>
		<polyline class="st0" points="42.9,0.1 44.9,0.1 44.9,0.1 44.1,0.9 45.4,0.9 46.2,0.1 46.2,1.7 47.5,1.7 		"/>
	</g>
	<line class="st0" x1="45.5" y1="46.6" x2="45.5" y2="49"/>
	<polyline class="st0" points="44.2,46.6 44.2,49 45.5,49 46.3,48.1 46.3,46.6 	"/>
</g>
<polyline class="st0" points="44.1,0.9 44.1,2.5 45.4,2.5 45.4,0.9 "/>
<line class="st0" x1="45.4" y1="2.5" x2="46.2" y2="1.7"/>
<g>
	<g>
		<path class="st0" d="M47.5,0.9"/>
		<line class="st0" x1="46.3" y1="48.1" x2="47.6" y2="48.1"/>
		<polyline class="st0" points="46.3,0.1 48.3,0.1 48.3,0.1 47.5,0.9 48.8,0.9 49.6,0.1 49.6,1.7 50.9,1.7 		"/>
	</g>
	<line class="st0" x1="48.9" y1="46.6" x2="48.9" y2="49"/>
	<polyline class="st0" points="47.6,46.6 47.6,49 48.9,49 49.7,48.1 49.7,46.6 	"/>
</g>
<polyline class="st0" points="47.5,0.9 47.5,2.5 48.8,2.5 48.8,0.9 "/>
<line class="st0" x1="48.8" y1="2.5" x2="49.6" y2="1.7"/>
<g>
	<g>
		<path class="st0" d="M50.9,0.9"/>
		<line class="st0" x1="49.7" y1="48.1" x2="51" y2="48.1"/>
		<polyline class="st0" points="49.7,0.1 51.7,0.1 51.7,0.1 50.9,0.9 52.2,0.9 53,0.1 53,1.7 54.3,1.7 		"/>
	</g>
	<line class="st0" x1="52.3" y1="46.6" x2="52.3" y2="49"/>
	<polyline class="st0" points="51,46.6 51,49 52.3,49 53.1,48.1 53.1,46.6 	"/>
</g>
<polyline class="st0" points="50.9,0.9 50.9,2.5 52.2,2.5 52.2,0.9 "/>
<line class="st0" x1="52.2" y1="2.5" x2="53" y2="1.7"/>
<g>
	<g>
		<path class="st0" d="M54.3,0.9"/>
		<line class="st0" x1="53.1" y1="48.1" x2="54.4" y2="48.1"/>
		<polyline class="st0" points="53.1,0.1 55.1,0.1 55.1,0.1 54.3,0.9 55.6,0.9 56.4,0.1 56.4,1.7 57.7,1.7 		"/>
	</g>
	<line class="st0" x1="55.7" y1="46.6" x2="55.7" y2="49"/>
	<polyline class="st0" points="54.4,46.6 54.4,49 55.7,49 56.5,48.1 56.5,46.6 	"/>
</g>
<polyline class="st0" points="54.3,0.9 54.3,2.5 55.6,2.5 55.6,0.9 "/>
<line class="st0" x1="55.6" y1="2.5" x2="56.4" y2="1.7"/>
<g>
	<g>
		<path class="st0" d="M57.7,0.9"/>
		<line class="st0" x1="56.5" y1="48.1" x2="57.8" y2="48.1"/>
		<polyline class="st0" points="56.5,0.1 58.5,0.1 58.5,0.1 57.7,0.9 59,0.9 59.8,0.1 59.8,1.7 61.1,1.7 		"/>
	</g>
	<line class="st0" x1="59.1" y1="46.6" x2="59.1" y2="49"/>
	<polyline class="st0" points="57.8,46.6 57.8,49 59.1,49 59.9,48.1 59.9,46.6 	"/>
</g>
<polyline class="st0" points="57.7,0.9 57.7,2.5 59,2.5 59,0.9 "/>
<line class="st0" x1="59" y1="2.5" x2="59.8" y2="1.7"/>
<g>
	<g>
		<path class="st0" d="M61.1,0.9"/>
		<line class="st0" x1="59.9" y1="48.1" x2="61.2" y2="48.1"/>
		<polyline class="st0" points="59.9,0.1 61.9,0.1 61.9,0.1 61.1,0.9 62.4,0.9 63.2,0.1 63.2,1.7 64.5,1.7 		"/>
	</g>
	<line class="st0" x1="62.5" y1="46.6" x2="62.5" y2="49"/>
	<polyline class="st0" points="61.2,46.6 61.2,49 62.5,49 63.3,48.1 63.3,46.6 	"/>
</g>
<polyline class="st0" points="61.1,0.9 61.1,2.5 62.4,2.5 62.4,0.9 "/>
<line class="st0" x1="62.4" y1="2.5" x2="63.2" y2="1.7"/>
<g>
	<g>
		<path class="st0" d="M64.5,0.9"/>
		<line class="st0" x1="63.3" y1="48.1" x2="64.6" y2="48.1"/>
		<polyline class="st0" points="63.3,0.1 65.3,0.1 65.3,0.1 64.5,0.9 65.8,0.9 66.6,0.1 66.6,1.7 67.9,1.7 		"/>
	</g>
	<line class="st0" x1="65.9" y1="46.6" x2="65.9" y2="49"/>
	<polyline class="st0" points="64.6,46.6 64.6,49 65.9,49 66.7,48.1 66.7,46.6 	"/>
</g>
<polyline class="st0" points="64.5,0.9 64.5,2.5 65.8,2.5 65.8,0.9 "/>
<line class="st0" x1="65.8" y1="2.5" x2="66.6" y2="1.7"/>
<g>
	<g>
		<path class="st0" d="M67.9,0.9"/>
		<line class="st0" x1="66.7" y1="48.1" x2="68" y2="48.1"/>
		<polyline class="st0" points="66.6,0.1 68.7,0.1 68.7,0.1 67.9,0.9 69.2,0.9 70,0.1 70,1.7 71.3,1.7 		"/>
	</g>
	<line class="st0" x1="69.3" y1="46.6" x2="69.3" y2="49"/>
	<polyline class="st0" points="68,46.6 68,49 69.3,49 70.1,48.1 70.1,46.6 	"/>
</g>
<polyline class="st0" points="67.9,0.9 67.9,2.5 69.2,2.5 69.2,0.9 "/>
<line class="st0" x1="69.2" y1="2.5" x2="70" y2="1.7"/>
<g>
	<g>
		<path class="st0" d="M71.3,0.9"/>
		<line class="st0" x1="70.1" y1="48.1" x2="71.4" y2="48.1"/>
		<polyline class="st0" points="70,0.1 72.1,0.1 72.1,0.1 71.3,0.9 72.6,0.9 73.4,0.1 73.4,1.7 74.7,1.7 		"/>
	</g>
	<line class="st0" x1="72.7" y1="46.6" x2="72.7" y2="49"/>
	<polyline class="st0" points="71.4,46.6 71.4,49 72.7,49 73.5,48.1 73.5,46.6 	"/>
</g>
<polyline class="st0" points="71.3,0.9 71.3,2.5 72.6,2.5 72.6,0.9 "/>
<line class="st0" x1="72.6" y1="2.5" x2="73.4" y2="1.7"/>
<g>
	<g>
		<path class="st0" d="M74.7,0.9"/>
		<line class="st0" x1="73.5" y1="48.1" x2="74.8" y2="48.1"/>
		<polyline class="st0" points="73.4,0.1 75.5,0.1 75.5,0.1 74.7,0.9 76,0.9 76.8,0.1 76.8,1.7 77.4,1.7 77.6,43.7 74.8,46.6 
			34.7,46.6 34.6,4.6 37.4,1.8 		"/>
	</g>
	<line class="st0" x1="76.1" y1="45.2" x2="76.1" y2="49"/>
	<polyline class="st0" points="74.8,46.6 74.8,49 76.1,49 76.9,48.1 76.9,44.4 	"/>
</g>
<polyline class="st0" points="74.7,0.9 74.7,2.5 76,2.5 76,0.9 "/>
<line class="st0" x1="76" y1="2.5" x2="76.8" y2="1.7"/>
</svg>
