<?xml version="1.0" encoding="utf-8"?>
<!-- Generator: Adobe Illustrator 25.4.1, SVG Export Plug-In . SVG Version: 6.00 Build 0)  -->
<svg version="1.1" id="fdde57b0-a63a-4188-8545-e63659fc031c"
	 xmlns="http://www.w3.org/2000/svg" xmlns:xlink="http://www.w3.org/1999/xlink" x="0px" y="0px" viewBox="0 0 108.1 21"
	 style="enable-background:new 0 0 108.1 21;" xml:space="preserve">
<style type="text/css">
	.st0{fill:none;}
	.st1{fill:none;stroke:#000000;stroke-width:0.34;stroke-linejoin:round;stroke-miterlimit:10;}
</style>
<polygon class="st0" points="0.3,19.3 0.3,17.2 90.1,17.2 90.1,20.7 83.1,20.7 82,20.7 3.9,20.7 2.5,20.7 0.3,20.7 "/>
<polyline class="st1" points="90.1,20.7 3.9,20.7 2.5,20.7 0.3,20.7 0.3,19.3 0.3,17.2 90.1,17.2 90.1,20.7 "/>
<polyline class="st1" points="90.1,17.2 107.7,0.3 18.1,0.3 0.3,17.2 "/>
<polygon class="st0" points="26.5,0.9 23.5,0.9 7.1,16.5 10.2,16.5 "/>
<path class="st1" d="M23.4,1v2.9 M26.4,1h-3l-16,15.4h2.9L26.4,1z"/>
<polygon class="st0" points="34.7,0.9 31.7,0.9 15.4,16.5 18.4,16.5 "/>
<path class="st1" d="M31.6,1v2.9 M34.6,1h-3l-16,15.4h3L34.6,1z"/>
<polygon class="st0" points="42.9,0.9 39.9,0.9 23.6,16.5 26.6,16.5 "/>
<path class="st1" d="M39.8,1v2.9 M42.7,1h-3l-16,15.4h3L42.7,1z"/>
<polygon class="st0" points="51.2,0.9 48.1,0.9 31.8,16.5 34.8,16.5 "/>
<path class="st1" d="M48,1v2.9 M51,1h-3L32,16.4h3L51,1z"/>
<polygon class="st0" points="59.4,0.9 56.3,0.9 40,16.5 43,16.5 "/>
<path class="st1" d="M56.2,1v2.9 M59.2,1h-3l-16,15.4h3L59.2,1z"/>
<polygon class="st0" points="67.6,0.9 64.5,0.9 48.2,16.5 51.2,16.5 "/>
<path class="st1" d="M64.4,1v2.9 M67.4,1h-2.9l-16,15.4h3L67.4,1z"/>
<polygon class="st0" points="75.8,0.9 72.8,0.9 56.4,16.5 59.5,16.5 "/>
<path class="st1" d="M72.7,1v2.9 M75.6,1h-2.9l-16,15.4h3L75.6,1z"/>
<polygon class="st0" points="84,0.9 81,0.9 64.7,16.5 67.7,16.5 "/>
<path class="st1" d="M80.9,1v2.9 M83.9,1h-3l-16,15.4h3L83.9,1z"/>
<polygon class="st0" points="92.2,0.9 89.2,0.9 72.8,16.5 75.9,16.5 "/>
<path class="st1" d="M89.1,1v2.9 M92.1,1h-3l-16,15.4h3L92.1,1z"/>
<polygon class="st0" points="100.5,0.9 97.4,0.9 81.1,16.5 84.1,16.5 "/>
<path class="st1" d="M97.3,1v2.9 M100.3,1h-3l-16,15.4h2.9L100.3,1z"/>
<polyline class="st1" points="107.7,0.3 107.7,4.2 90.1,20.7 "/>
</svg>
