<?xml version="1.0" encoding="utf-8"?>
<!-- Generator: Adobe Illustrator 26.5.0, SVG Export Plug-In . SVG Version: 6.00 Build 0)  -->
<svg version="1.1" id="Layer_1" xmlns="http://www.w3.org/2000/svg" xmlns:xlink="http://www.w3.org/1999/xlink" x="0px" y="0px"
	 viewBox="0 0 1280 720" style="enable-background:new 0 0 1280 720;" xml:space="preserve">
<style type="text/css">
	.st0{fill:#000000;}
</style>
<g>
	<path d="M790.8,0h14.8c-8.4,2.8-17.1,4.5-25.6,6.8c-73,17.8-145.9,36.5-218.9,54.3c-117.9,29.6-236,58.7-354,88.1
		c-4.7,1.2-9.4,2.7-14.3,3.1c1.1-2.2,3-3.6,5.5-4c108.1-26.8,216.1-53.9,324.2-80.9C605.6,46.5,688.9,26,772,5.2
		C778.3,3.5,784.7,2.3,790.8,0z"/>
	<path d="M895.7,0h17.8c-30.7,7.5-61.6,14.5-92.3,22.2c-21.8,4.9-43.5,10.6-65.3,15.6c-187.3,45.1-374.5,90.4-561.7,135.6
		c-5.4,1.3-10.8,2.9-16.3,3.6c1.2-2.2,3.2-3.9,5.8-4.3C412.9,117.4,642.1,61.8,871.2,6.4C879.4,4.2,887.7,2.8,895.7,0z"/>
	<path d="M1009.7,0h18.9c-26.5,6.6-53.1,12.4-79.6,18.7c-44.9,10.5-89.7,20.9-134.6,31.4C608.8,97.8,403.4,146,198,194
		c-11.8,2.6-23.5,5.7-35.3,8c1.1-4.8,7-4.4,10.7-5.6C444.6,133,715.7,69.3,986.9,5.8C994.5,3.9,1002.3,2.6,1009.7,0z"/>
	<path d="M1142.6,0h19.9c-105.6,24-211.3,47.6-317,71.4c-13.3,3.2-26.8,5.6-40,9c-39.9,8.7-79.7,18.2-119.7,26.7
		c-7.8,2.1-15.8,3.6-23.7,5.3c-42.4,9.6-84.8,19.3-127.2,28.7c-123.6,27.8-247.1,55.8-370.6,83.5c-6.3,1.2-12.4,3.2-18.9,3.8
		c1.7-5.1,7.9-4.3,12.1-5.7C433.9,160.4,710.1,97.8,986.3,35.5C1038.4,23.6,1090.6,12.1,1142.6,0z"/>
	<g>
		<path d="M136.3,252.4C517.6,169.9,898.7,87,1280,4.5v4.8c-85.6,18.1-171.1,37-256.7,55.1c0.2,8.9,0.7,17.8,0.9,26.7
			c12.2-1.7,24-5,36.1-7.2c47.9-10,95.9-19.9,143.8-30c25.3-5.2,50.6-10.7,75.9-15.7v4.9c-85,17.6-170.1,35-255.1,52.8
			c-0.6,10,0.4,20,1,29.9c12.8-1.7,25.4-4.9,38.2-7.2c53-10.7,106.1-20.9,159.1-31.6c18.9-4,38-7.2,56.9-11.3v5.4
			c-84.6,16.4-169.2,33.3-253.7,49.9c-0.6,10.6,0.7,21.3,0.9,31.9c25.3-4.3,50.5-9.5,75.7-14.1c59-11.1,118.1-22.1,177.1-33.3v5.6
			c-79.1,14.7-158.1,29.5-237.1,44.2c-5.1,1-10.3,1.4-15.2,3.3c0,10.9,0.8,21.8,1.2,32.8c50.5-8.5,100.8-17.8,151.2-26.6
			c33.3-5.8,66.6-11.9,99.9-17.6v5.8c-56,9.6-112,19.6-168,29.4c-154,27-308,54-461.9,81.1c-37.1,6.3-74.2,13.1-111.3,19.6
			C380.3,321,222,349,63.6,376.7c-5.2,0.9-10.5,2.2-15.8,2.5c0.9-1.3,1.6-2.7,2.7-3.9c1.8-0.8,3.8-1.1,5.7-1.4
			c12.4-2,24.7-4.4,37.1-6.5c1.9-0.4,3.9-0.7,5.7-1.5c2.4-2.4,3.8-5.6,5.6-8.4c3.7-6.5,8.1-12.6,11.4-19.3
			c-15.2,2.5-30.1,6.3-45.4,8.1c0.5-1.1,1-2.3,1.5-3.4c2.4-0.8,4.8-1.4,7.3-1.8c10.4-1.8,20.8-3.9,31.2-5.7c2.7-0.5,5.4-0.9,8-1.9
			c2-1.5,2.9-3.8,4.2-5.8c3.9-7,8.6-13.6,12.3-20.7c-15.4,2.7-30.5,6.3-45.9,8.9c1.6-2.1,3.1-4.6,6-4.9c13.3-2.6,26.6-5.3,39.9-7.9
			c3.8-0.4,5.2-4.3,7-7c3.5-6.5,8.1-12.4,11.1-19.1c-14.7,2.4-29.1,6.3-43.7,8.5c0.6-2.4,2.5-3.9,4.9-4.3
			c13.1-2.9,26.4-5.3,39.5-8.2c3.2-0.4,4.4-3.7,6-6c3.4-6.1,7.5-11.7,10.4-18c-15,2.5-29.7,6.7-44.6,9.1
			C126.8,253.1,132.4,253.4,136.3,252.4z M999,69.8c-66.9,14.4-133.9,28.8-200.8,43.3c-3.4,19.9-6,39.9-9.2,59.8
			c-3.6,24.3-7.4,48.7-10.9,73c1.2-0.1,2.5-0.2,3.7-0.3c44.4-7.9,88.8-15.7,133.2-23.6c35.2-6.1,70.4-12.7,105.7-18.5
			c0.6-5.2-0.4-10.3-0.4-15.5c-0.5-18.7-1.1-37.3-2-56c-0.4-21.9-1.6-43.7-2.2-65.5C1010.4,66.8,1004.8,68.8,999,69.8z M783.5,116.3
			c-44.2,9.6-88.5,19-132.7,28.6c-16.1,3.7-32.4,6.7-48.5,10.6c-3.4,8.5-5.5,17.4-8.3,26.1c51.1-10.9,102.3-21.3,153.4-32
			c13.4-2.9,27-5.3,40.3-8.6c1.6-8.7,2.7-17.4,4.2-26.1C789.1,115,786.3,115.6,783.5,116.3z M731.1,157.1
			c-13.4,3.1-26.9,5.3-40.3,8.4c-24.8,4.9-49.5,10.4-74.3,15.2c-7.9,2-16.2,2.9-23.9,5.6c-2.6,9-5.8,17.9-7.8,27
			c1.7-0.1,3.5-0.3,5.2-0.6c64.1-12.9,128.4-25.3,192.5-38.3c2-9.4,3.1-19,4.5-28.6C768.2,149.1,749.7,153.6,731.1,157.1z
			 M574.3,161.3c-13.8,2.7-27.4,6.1-41.1,8.8c-7.3,1.8-14.8,2.7-22,5c-2,3.6-3.2,7.6-4.6,11.5c-13,34.9-26,69.9-39,104.8
			c-1.3,3.4-2.8,6.7-3.4,10.2c30.8-5.3,61.6-10.7,92.4-16.3c9.2-30.3,18.6-60.5,28-90.7c3.7-12.6,8.1-25.1,11.4-37.9
			C588.6,157.8,581.5,159.9,574.3,161.3z M451,188c-59.7,12.8-119.4,25.8-179.1,38.7c-2,0.5-4.4,0.8-5.3,2.9
			c-4,7.3-8.1,14.6-11.8,22.1c6.4-0.9,12.6-2.4,18.9-3.8c29.9-6.1,59.8-12.5,89.8-18.6c44-9.4,88.2-18.1,132.2-27.6
			c3.2-8.3,6.5-16.7,9.3-25.2C486.9,179.9,469,184.2,451,188z M661.4,202.7c-24.5,4.7-48.9,10-73.5,14.4c-2,0.6-5,0.5-5.6,3
			c-2.8,9.1-5.6,18.2-8.3,27.4c54.7-10.7,109.5-20.7,164.3-31.1c12.9-2.5,25.9-4.6,38.7-7.6c2.1-7.1,2.3-14.6,3.8-21.9
			c0.2-2.5,1.4-5.2,0.4-7.6C741.2,186.9,701.4,195.3,661.4,202.7z M458.4,213.5C389.7,227.7,321,242,252.4,256.2
			c-5.1,8.4-9.6,17.2-14.2,25.8c18.8-3.4,37.4-7.6,56.2-10.9c52.5-10.6,105.1-20.9,157.7-31.3c10.5-2.2,21.1-3.8,31.5-6.3
			c2.2-4.7,3.8-9.6,5.6-14.4c1.5-4.2,3.4-8.2,4.3-12.6C481.7,208.2,470.1,211.4,458.4,213.5z M755.2,218
			c-60.2,11.3-120.5,22.4-180.8,33.6c-2.3,0.1-2.5,2.8-3.2,4.5c-2.6,9.3-5.9,18.5-8.2,28c31-5.1,61.8-10.9,92.8-16.2
			c37.7-6.6,75.4-13.4,113.1-20c3.3-0.4,2.8-4.8,3.5-7.3c1-8.8,2.9-17.4,3.8-26.1C769.2,215,762.2,216.9,755.2,218z M239.4,233.6
			c-20.5,4.4-41.1,8.8-61.6,13.3c-2.1,0.2-3,2.3-4,3.9c-20.6,34.4-41.5,68.6-62.2,102.9c-2.3,3.8-4.8,7.5-6.8,11.5
			c30.5-5,60.9-10.7,91.4-16c2.3-3.4,4.1-7.2,6.1-10.8c18.5-33.8,37-67.6,55.5-101.4c1.5-2.6,3-5.2,4.1-8
			C254.4,230,247,232.2,239.4,233.6z M240.9,285.6c-1.8,0.4-3.8,0.6-5.4,1.6c-2,2.5-3.2,5.6-4.8,8.4c-3.2,6.1-6.8,11.9-9.7,18.2
			c22.1-3.7,44-8.3,66-12.2c61.3-11.7,122.7-22.9,184-34.7c4-9.4,7.4-19.1,10.9-28.8C401.5,253.8,321.2,269.9,240.9,285.6z
			 M448.5,275.5c-76.4,14.2-152.8,28.7-229.2,42.9c-1.5,0.3-1.9,2-2.7,3c-4.6,8.9-9.7,17.6-14.3,26.6c18.8-2.9,37.4-6.6,56.1-9.8
			c49-8.7,98-17.4,147-26c17.4-3.3,35-5.8,52.3-9.5c3.7-10.3,8-20.4,11.3-30.8C462.1,272.7,455.3,274.4,448.5,275.5z"/>
	</g>
	<path d="M1201.9,217c26-4.4,52.2-8.3,78.1-13v6.4c-49.7,7.8-99.4,16.2-149.1,24.2c-141,23-282,46-422.9,69
		c-14.6,2.4-29.1,4.9-43.8,7c-57.9,9.9-115.9,19-173.9,28.6c-98.1,16-196.2,32-294.3,48c-56.5,9.1-113,18.7-169.6,27.5
		c0.5-0.9,1.1-1.7,1.6-2.6c1.9-3.1,6.1-2.4,9.1-3.2c167.1-27.6,334.3-55.2,501.5-82.6c137.5-22.8,275-45.3,412.5-68.1
		c33.9-5.3,67.7-11.4,101.7-16.6C1102.5,233.2,1152.2,225.3,1201.9,217z"/>
	<g>
		<path d="M6.3,447.5C430.8,383,855.4,318.6,1280,254.1v6.5c-146.9,22.2-293.9,44-440.9,66.2c-33,4.5-65.9,10.2-99,14.7
			c-11.4,1.4-22.7,3.9-34.1,5.2c-8.5,0.9-16.8,2.6-25.2,3.9c-89.7,13.4-179.3,26.8-269,40.4c-25.7,4-51.6,7.5-77.2,11.7
			c-4.6,11.2-10.2,22-14.1,33.5c15.5-1.7,30.9-4.1,46.3-6.2c189.4-26.2,378.8-52.7,568.1-79c115-16.1,230-31.9,345-48.1v6.9
			c-105.7,14.6-211.4,29-317.2,43.6c-19,2.4-37.9,5.5-57,7.6c-29.9,4.4-59.9,8.4-89.9,12.6c-152.6,21-305.2,42-457.8,62.9
			c-13.6,2.1-27.2,3.4-40.7,5.9c-5.9,13.1-11.6,26.2-17.2,39.5c99.9-12.3,199.8-24.8,299.7-37.1c104-13,208-26,312.1-38.8
			c58-7.5,116-14.3,174-21.7c64.6-8.1,129.3-15.9,193.9-24.2v7.4c-145,17.8-290,35.4-435,53.2c-30.9,3.7-61.8,7.5-92.7,11.5
			c-1.6,8-2.5,16.1-3.8,24.2c-0.9,6.6-2.3,13.1-2.6,19.7c10.3-0.7,20.5-2.3,30.8-3.3c164.1-17.9,328.2-35.8,492.3-53.7
			c3.7-0.3,7.3-0.7,11-1.1v7.3c-10.3,2-20.7,2.2-31.1,3.6c-166.7,17.9-333.4,35.8-500.1,53.6c-1.5,0.2-2.9,0.5-4.3,0.8
			c-2.1,12.8-3.7,25.6-5.8,38.3c-0.6,3.2-0.9,6.5-1.1,9.7c3.9,0,7.8-0.3,11.6-0.7c127.5-11.7,255-23.6,382.6-35.4
			c49.4-4.5,98.7-9.3,148.1-13.6v8c-141.5,13-283.1,25.7-424.7,38.5c-39.6,3.4-79.2,7.5-118.9,10.5c-2.4,13.4-4,27-6.2,40.4
			c-0.7,4-1.2,8.1-1.5,12.2c4.9,0.3,9.9-0.3,14.8-0.7c178.9-13.2,357.7-26.8,536.5-39.9v8.7c-179.4,13-358.7,25.9-538.1,38.9
			c-4.9,0.3-9.9,0.2-14.6,1.6c-2.3,13-3.9,26.1-6,39.2c-0.9,5.9-2.1,11.8-2.4,17.7c8.5,0.1,16.9-0.9,25.4-1.3
			c66.4-3.5,132.9-7.1,199.3-10.9c101.8-5.5,203.6-11.1,305.4-16.8c10.3-0.6,20.6-1.3,31-1.3v9c-103.9,5.8-207.9,10.9-311.8,16.5
			C645.5,669,322.7,686,0,703v-6.6c46.3-2.1,92.6-5.1,139-7.4c117.4-6.6,234.7-13,352.1-19.3c26.5-1.4,53-3.1,79.5-4.2
			c3.3-12.5,5.9-25.1,9-37.7c1.3-5.8,3-11.6,3.7-17.5c-16.4,0.6-32.8,2.3-49.1,3.3c-105.1,7.7-210.2,15.2-315.3,22.9
			C145.9,641.6,72.9,647,0,652.1v-6c40.7-2.7,81.4-6.1,122.2-8.9c141-10.6,281.9-21.1,422.9-31.5c13.4-1.2,26.9-1.7,40.3-3.2
			c3.8-16.8,8-33.5,11.5-50.3c-17,1-34,2.9-51,4.3C378,571.8,210,586.8,42,602c-14,1.1-27.9,3-42,3.5v-5.3c18-1.6,36-3.1,54-4.9
			c3.9-0.3,7.8-0.6,11.6-1.4c5.9-10,11.2-20.4,16.9-30.5c1.7-3,3.3-6,4.6-9.3c-29,2.9-58,6.2-87.1,9.2v-5.2
			c26.7-2.8,53.4-5.9,80.2-8.7c3.5-0.5,7.1-0.4,10.4-1.6c2.2-2.7,3.6-5.9,5.3-9c4.9-9.6,10.8-18.7,15.1-28.6
			c-37,4.2-73.9,9.4-111,13.2V519c37.3-5.1,74.7-9.2,112-14.1c3.1,0,4.1-3.3,5.4-5.5c5.6-10.8,11.9-21.3,17.3-32.2
			C89.8,473.2,45,479.7,0,485.5v-4.4c44.7-6.4,89.5-12.5,134.2-18.7c2.2-0.1,4.2-1,5.1-3.1c5.2-9.9,10.9-19.5,15.8-29.5
			c-10.1,1-20.2,2.8-30.2,4.2c-36.2,5.5-72.4,10.9-108.6,16.3c-4.9,0.7-9.7,1.7-14.6,1.9C2.3,450,3.6,447.6,6.3,447.5z M317,405.2
			c-51.8,7.9-103.7,15.6-155.6,23.3c-0.6,1-1.3,1.9-1.9,3c-19.6,36.3-39.4,72.6-59,108.9c-9.4,17.6-19.3,35-28.4,52.8
			c12.7-0.3,25.3-2.1,37.9-3.2c27.7-2.5,55.3-5.1,83-7.7c19.9-2,39.8-3.4,59.7-5.7c20.3-46.3,40.6-92.7,61-139
			c4.8-11.3,10.1-22.3,14.5-33.8C324.4,404.1,320.7,404.7,317,405.2z M696.1,438.9c-22.5,2.8-45.1,5.4-67.6,8.4
			c-2.4,12.4-5.6,24.5-8.3,36.9c-10.7,46.7-21.3,93.4-32,140c-2.8,13.5-6.5,26.9-9,40.5c3.4,0,6.7-0.1,10.1-0.4
			c40.1-2.2,80.3-4.5,120.4-6.7c2-9,2.8-18.2,4.4-27.2c4.2-26.8,8.2-53.7,12.4-80.5c5.8-38.9,12.2-77.7,17.7-116.6
			C728.2,434.8,712.1,436.8,696.1,438.9z M617.9,448.5c-46.2,5.6-92.5,11.3-138.7,16.9c-25.2,3.4-50.4,5.9-75.6,9.3
			c-22.5,3.1-45,5.1-67.5,8.4c-12.9,1.2-25.7,3.2-38.6,4.5c-5.3,13.2-11.6,26-16.7,39.2c106.1-11.5,212.2-23.2,318.4-34.6
			c4.1-0.5,8.2-0.7,12.2-1.6c3.2-14.1,6.8-28.1,9.6-42.3C620,448.4,619,448.4,617.9,448.5z M537.3,505.2
			c-86.4,9.4-172.8,18.5-259.1,27.8c-3.8,7.2-6.4,14.9-9.9,22.2c-2.9,6.9-6.4,13.6-8.6,20.8c12.2-0.6,24.3-2.3,36.4-3.1
			c51.1-5,102.3-9.4,153.5-14.3c26.1-2.2,52.2-4.9,78.4-7.2c23.6-2.4,47.3-4.1,70.9-6.7c2.7-10.4,4.9-21,7.4-31.4
			c1.2-5.2,2.8-10.4,3.3-15.8C585.3,499.9,561.3,502.7,537.3,505.2z"/>
	</g>
	<path d="M1120,712.6c53.3-2.1,106.7-3.4,160-5.7v10.7c-14.7-0.7-29.3,1-43.9,1c-5.7,0.2-11.5-0.5-17,1.4H906.3
		c15.5-1.4,31.2-0.9,46.7-1.8c29-1.1,57.9-1.8,86.9-3C1066.7,714.6,1093.3,713.1,1120,712.6z"/>
</g>
</svg>
