<?xml version="1.0" encoding="utf-8"?>
<!-- Generator: Adobe Illustrator 26.5.0, SVG Export Plug-In . SVG Version: 6.00 Build 0)  -->
<svg version="1.1" id="Layer_1" xmlns="http://www.w3.org/2000/svg" xmlns:xlink="http://www.w3.org/1999/xlink" x="0px" y="0px"
	 viewBox="0 0 1280 720" style="enable-background:new 0 0 1280 720;" xml:space="preserve">
<style type="text/css">
	.st0{fill:#000000;}
</style>
<g>
	<path d="M775.8,0h14.8C598,48.4,405.2,96.6,212.5,144.7c-6,1.4-11.9,3.4-18.1,4c1.7-1.9,3.7-3.7,6.3-4.2
		C374.4,101,548.1,57.4,721.8,13.8C739.8,9.2,758,5.2,775.8,0z"/>
	<path d="M948.8,0h17.8C702.4,62.7,438.2,125.5,174.1,188.3c-1.9,0.4-3.8,0.6-5.6,0.7c3.6-5.2,10.5-4.9,16-6.5
		c235-56,470-112,705-168C909.2,9.6,929.2,5.5,948.8,0z"/>
	<path d="M1167.7,0h20C842.5,77.2,497.4,154.2,152.3,231.5c-4,1-8,1.9-12.2,2.2c3.3-5.6,10.5-5,16-6.6
		c206.4-46.3,412.8-92.6,619.2-139C906.1,58.8,1036.9,29.5,1167.7,0z"/>
	<g>
		<path d="M1035.6,83.7c81.5-17.2,163-34,244.4-51.4v5c-79.6,16.7-159.2,33.2-238.8,49.8c-5.6,1.3-11.6,1.7-16.9,4.1
			c0.1,14.9,1.3,29.9,1.6,44.8c0.1,3.1,0.1,6.2,1,9.2c11.2-1.6,22.2-4.2,33.3-6.2c73.2-14.1,146.5-28.3,219.7-42.3v5.3
			c-82.7,15.9-165.5,31.7-248.2,47.5c-1.6,0.6-3.5,0.5-4.9,1.6c-0.3,8,0.6,15.9,0.8,23.9c0.7,8.7,0.2,17.4,1.4,26.1
			c10.3-1,20.4-3.6,30.7-5.1c73.4-13,146.9-26,220.3-39.1v5.7c-71.5,12.7-143,25.1-214.5,37.7c-160.5,28.5-321.2,56.3-481.7,84.6
			c-46.8,8.4-93.5,16.7-140.3,24.7c-51.8,9.1-103.7,18.3-155.5,27.4c-73.4,12.9-146.7,26-220.1,38.7c-6.8,1.1-13.5,2.8-20.4,3.4
			c0.8-1.4,1.6-2.7,2.6-3.9c1.9-1,4.2-1.2,6.3-1.6c11.5-1.8,22.8-4.1,34.3-5.9c2.5-0.5,5-0.8,7.3-1.7c1.9-1.1,2.9-3.1,4-4.8
			c4.5-7.8,9.3-15.4,13.9-23.1c2.8-4.7,6-9.2,8.2-14.2c-15.7,2.1-31.1,6.4-46.8,8.4c1.2-2.2,2.7-4.4,5.4-4.6
			c13.4-2.6,26.8-5.2,40.2-7.6c2.1-0.5,4.6-1,5.8-3.1c3.6-5.2,6.5-10.8,9.9-16.1c5.7-9.7,12-19,17.3-28.9c-15.4,2.4-30.4,6.8-45.8,9
			c1.1-2,2.6-4,5-4.4c9.7-2.3,19.6-3.9,29.3-6.3c4.4-0.7,9-1.3,13.2-2.9c1.8-0.5,2.8-2.3,3.8-3.8c3.4-5.7,6.6-11.4,10-17.1
			c1.1-1.8,2.3-3.7,4.5-4.2c6.2-1.9,12.8-2.7,19.1-4.3c24.9-5.3,49.7-11.1,74.7-16.1c-3.4,8.6-8.8,16.2-12.6,24.6
			c78.6-16.1,157-32.9,235.6-49.2c2-0.5,4.6-0.9,5.4-3.2c2.9-6.1,4.6-12.7,7.1-18.9c0.9-2.2,1.6-5.2,4.4-5.5
			c18.1-4.1,36.2-7.8,54.3-11.8c13-2.6,25.9-6,39-8.2c-1.4,8.8-5.5,16.9-7,25.6c15.8-2.6,31.3-6.4,47-9.6
			c47.1-9.8,94.1-19.8,141.2-29.5c1.3-0.3,2.5-0.7,3.7-1.3c2.9-8.4,2.5-17.6,4.7-26.1c2.9-2.5,7.4-2.2,11-3.4
			c67.1-14.5,134.1-29.1,201.2-43.7c6-1.2,11.9-3,18-3.6c0.8,9.2,0.1,18.5,1.4,27.6C1028.1,85.4,1031.8,84.4,1035.6,83.7z M993,68.6
			c-63.6,13.7-127.2,27.6-190.9,41.2c-1.3,0.3-2.6,0.7-3.8,1.3c-0.3,1.1-0.5,2.1-0.7,3.2c-6.4,43.8-13.2,87.5-19.6,131.3
			c44.1-7.5,88.1-15.6,132.2-23.3c36.8-6.7,73.8-12.8,110.6-19.8c-0.8-29.9-2.2-59.8-3-89.7c-0.9-16.3-0.7-32.6-2-48.9
			C1008.1,64.8,1000.7,67.3,993,68.6z M741.4,149.4c-47.9,9.9-95.8,20-143.8,29.9c-1.1,0.3-2.1,0.6-3.1,1c-2.4,4.8-3.3,10.1-5,15.1
			c-3.5,12-7.7,23.8-10.6,35.9c11.8-1.5,23.3-4.4,35-6.4c50.9-9.8,101.9-19.6,152.8-29.5c4.2-0.9,8.7-1.1,12.7-3
			c1.3-4.7,1.6-9.6,2.4-14.4c1.7-12.6,4.4-25.2,5.5-37.9C772,142.7,756.8,146.4,741.4,149.4z M581.2,158.1
			c-22,4.7-43.9,9.6-65.8,14.2c-1.8,0.5-4.3,0.8-4.9,3c-11.7,31.4-23.4,62.8-35.1,94.2c-3.7,10.6-8.3,20.9-11.5,31.8
			c28.9-4.6,57.6-10.2,86.4-15c2.6-0.6,6.5-0.6,6.9-4c12.9-42.4,26.4-84.7,39.1-127.1C591.2,155.7,586.2,157.1,581.2,158.1z
			 M763,200.7c-60.8,11.6-121.6,23.4-182.4,34.9c-1.1,0.2-2.1,0.6-3.1,1c-1.7,2.6-2.2,5.7-3.1,8.6c-3.7,12.9-8,25.6-11.6,38.6
			c68.4-11.9,136.8-24.2,205.1-36.2c1.1-0.3,2.2-0.5,3.2-1.1c1.3-6.3,1.9-12.7,3-19c1.4-9.8,3.4-19.5,4.3-29.3
			C773.2,198.4,768.2,199.8,763,200.7z M479.7,204c-74.2,15.5-148.3,31-222.5,46.4c-3.5,0.4-4.6,4.1-6.1,6.6
			c-7.3,14-15.3,27.7-22.4,41.8c81.8-15.5,163.5-31.6,245.4-47.2c2.9,0,3.6-3.1,4.5-5.2c3.7-9.9,7.5-19.8,11.1-29.8
			c1.9-5.2,4.3-10.3,5.5-15.7C490,201.6,484.9,203,479.7,204z M179.8,244.8c-3.5,0.3-5,3.7-6.7,6.3c-22.7,38.1-46,75.9-68.8,113.9
			c29.6-5.2,59.3-10.5,88.9-15.8c3.6-0.2,4.8-4,6.3-6.7c11.3-20.9,22.9-41.8,34.3-62.7c9.5-17.7,19.6-35.1,28.8-52.9
			C235.1,232.7,207.5,239,179.8,244.8z M446.1,261.3c-69,13.3-138,26.5-207,39.7c-4.4,0.9-9,1.2-13.1,3c-1.6,1.8-2.6,4-3.8,6.1
			c-6.5,12.6-13.8,24.8-20.1,37.4c83.8-14.7,167.6-29.7,251.5-44.4c1.2-0.3,2.5-0.5,3.7-1c1.9-3.1,2.8-6.7,4.1-10
			c4.3-12.1,9.4-24,13.4-36.2C465.1,257.5,455.7,259.6,446.1,261.3z"/>
	</g>
	<path d="M31.8,428.5C447.9,362.9,864,297.5,1280,231.8v6.3C863,303,446.1,368.3,29.2,433.3c-6,0.9-11.9,2.2-17.9,2.5
		c1.2-1.6,1.9-4.1,4.1-4.6C20.7,429.9,26.3,429.5,31.8,428.5z"/>
	<g>
		<path d="M419.4,445.6c286.9-37.7,573.7-75.3,860.6-113v6.9C961,381,642,422.2,323,463.7c-5.5,0.9-11.2,0.7-16.4,2.6
			c-2.8,3.6-4.1,8.1-5.9,12.2c-7.6,17.4-15.1,34.9-22.8,52.3c-0.9,2.1-1.7,4.2-2.2,6.3c20.2-1.6,40.4-4.2,60.6-6.2
			c89.6-9.5,179.2-19,268.8-28.4c1-0.1,2-0.4,3-0.7c1-1.8,1.4-3.9,1.9-5.9c3-14.2,6.6-28.2,9.7-42.3c1-4.1,1.2-8.3,2.9-12.2
			c1.7-0.6,3.5-0.8,5.3-1.1c36.8-4.3,73.4-9.1,110.1-13.6c4.9-0.5,9.7-1.5,14.7-1.5c-2.5,20.9-6.5,41.6-9,62.5
			c72.8-7.4,145.5-15.4,218.2-22.9c106-11.2,212.1-22.4,318.1-33.6v7.8c-174.4,17.9-348.8,36.2-523.3,54.2
			c-4.7,0.6-9.6,0.5-14.1,2.1c-1.4,4.4-1.6,9.1-2.4,13.7c-3,20-6,40-8.9,60c-0.7,5.2-1.9,10.3-2.1,15.5
			c65.2-4.6,130.3-9.9,195.5-14.8c118.4-9.1,236.8-18.2,355.2-27.3v8.6c-182.6,13.8-365.2,27.2-547.7,40.9c-1.4,0.2-2.8,0.5-4.1,1
			c-1,2.6-1.3,5.5-1.7,8.2c-2.2,16.6-5,33.1-7.3,49.6c-0.8,4.7-0.7,9.7-2.9,14.1c-30.7,1.8-61.5,3.2-92.2,5
			c-18.6,0.7-37.1,2.3-55.7,2.7c0.6-5,2.5-9.7,3.6-14.5c2.6-11.1,5.1-22.2,7.8-33.3c1.5-7,3.6-13.9,4.6-21.1
			c-6.1-0.2-12.2,0.7-18.3,1.1c-102.3,7.6-204.7,15.3-307,22.8c-86.3,6.5-172.7,12.7-259,19.4V641c191.1-14.6,382.2-29.3,573.3-43.9
			c4.2-0.3,8.6-0.2,12.8-1.2c1.6-3.4,2.1-7.1,3-10.7c5.7-25.3,12-50.6,17.5-75.9c-1.6-0.1-3.1,0-4.7,0.1
			c-109,11.4-218,22.6-326.9,34c-3.1-0.1-4,3.3-5.1,5.5c-3.7,8.9-7.6,17.7-11.4,26.6c-1.6,3.1-3,7.7-7.3,7.5
			c-52.6,4.7-105.1,9.5-157.7,14.2c-10.2,0.8-20.3,2.2-30.6,2.5c6-12.4,13.5-24,19.5-36.5c-27.5,2.6-54.9,5.8-82.4,8.4v-5.3
			c26.4-2.8,52.9-5.7,79.3-8.3c3-0.3,6.8-0.4,8.1-3.6c10-18.3,20-36.7,30.1-55c1.7-3.1,3.4-6.2,4.7-9.5c-14.1,1.2-28.1,3.6-42.2,5.2
			c-26.7,3.4-53.3,7-80,10.3v-4.7c41-5.6,82-10.8,122.9-16.3c2.9-0.1,4.3-2.9,5.6-5.1c8.4-15.9,17.2-31.5,25.6-47.3
			c1.6-3,2.9-6.3,5.2-8.7c3.4-1.6,7.4-1.6,11-2.3c33.5-5,67.1-10.2,100.6-15.3c21.7-3.2,43.4-6.9,65.1-9.7
			c-2.2,6.8-5.3,13.2-8.1,19.8c-5.3,12.1-10.5,24.2-15.8,36.3c-1.1,2.6-2.2,5.1-3,7.8C345.9,455.4,382.7,450.4,419.4,445.6z
			 M166.2,426.5c-2.3,0.2-4.6,0.9-5.5,3.2c-26.1,48.2-52.3,96.4-78.4,144.6c-3.2,6.3-7.1,12.3-9.9,18.8c19.5-1.3,39-3.6,58.5-5.2
			c28.1-2.6,56.3-5.2,84.4-7.8c12.1-1.2,24.2-1.9,36.2-3.5c18.9-42.5,37.5-85.3,56.2-127.9c6.6-15.5,13.9-30.8,20.1-46.4
			C274,410.2,220.1,418.6,166.2,426.5z M647.5,444.2c-6.2,0.9-12.4,1.2-18.5,2.5c-0.5,0.9-0.9,1.9-1.2,2.9
			c-14.7,64.5-29.5,129.1-44.2,193.6c-1.5,7-3.5,13.9-4.5,20.9c10.4,0.3,20.7-1,31-1.3c27.9-1.6,55.8-3.1,83.8-4.7
			c5.1-0.4,10.4,0,15.5-1.1c1-3.3,1.3-6.7,1.8-10.1c10.8-71.4,22.1-142.8,32.9-214.2c-0.8,0-2.2,0-3-0.1
			C709.8,436.5,678.7,440.4,647.5,444.2z"/>
	</g>
	<path d="M163,718.9c372.3-16.2,744.7-32.2,1117-48.5v9.8c-308.6,12.6-617.1,25.3-925.7,37.9c-12.7,0.6-25.4,0.8-38.1,1.9h-171
		C151.1,719.5,157.1,719,163,718.9z"/>
</g>
</svg>
