<?xml version="1.0" encoding="utf-8"?>
<!-- Generator: Adobe Illustrator 26.5.0, SVG Export Plug-In . SVG Version: 6.00 Build 0)  -->
<svg version="1.1" id="Layer_1" xmlns="http://www.w3.org/2000/svg" xmlns:xlink="http://www.w3.org/1999/xlink" x="0px" y="0px"
	 viewBox="0 0 1280 720" style="enable-background:new 0 0 1280 720;" xml:space="preserve">
<style type="text/css">
	.st0{fill:#000000;}
</style>
<g>
	<path d="M789.7,0h18.8C765.3,11.1,722,21.6,678.7,32.5c-40.7,9.9-81.3,20.3-122.1,30.2c-23.6,5.6-47,12.1-70.6,17.5
		c-17.7,4.6-35.5,9-53.2,13.4c-73.8,18.2-147.5,36.7-221.3,55c-6.5,1.5-12.8,3.6-19.4,4.5c1.8-5.2,7.9-5.2,12.4-6.5
		c103.5-25.8,207-51.6,310.4-77.6c83.8-20.7,167.6-41.8,251.4-62.7C774,4.2,782,2.6,789.7,0z"/>
	<path d="M930.6,0h20.9C869.4,19.6,787.2,39.1,705,58.8c-40.6,9.6-81.1,19.6-121.8,28.8c-29.8,7.6-59.8,14.4-89.8,21.6
		c-101,24-202,48.1-303,72.3c-6.3,1.4-12.6,3.3-19.1,4.3c0.8-1.6,1.2-3.7,3.1-4.2c5.4-1.9,11.1-2.7,16.6-4.2
		c204.7-49,409.3-98.1,614-147.2C847,20.1,888.9,10.4,930.6,0z"/>
	<g>
		<path d="M952.1,73c109.3-23.7,218.5-47.7,327.9-71.2v5.8c-80.9,17.5-161.8,34.9-242.6,52.4c-4.4,1-8.9,1.5-13.1,3.1
			c-0.8,13.6,1.1,27.2,1.2,40.9c1,15.2,0.9,30.4,2.4,45.5c84-16.3,168.1-32.1,252.1-48.5v6.8c-80.1,15.2-160.1,30.4-240.2,45.6
			c-3.9,0.8-7.9,1.1-11.6,2.6c-0.4,3.3-0.2,6.7,0,10c0.7,11.6,1,23.3,1.7,34.9c0.1,2.4,0.4,4.9-0.5,7.2
			c-86.1,15.2-172.3,30.1-258.5,45.4c0.2-7.6,2.5-15.1,3.1-22.7c0.8-9.2,3.7-18,4-27.2c-3.6,0-7.1,0.8-10.5,1.5
			c-63.6,12.3-127.3,24-190.9,36.4c-2,4-2.8,8.4-4.1,12.6c-2.6,9.6-6,19-8.7,28.5c-0.8,2.5-1.3,5-2.7,7.3c-3.8,1.2-7.7,1.5-11.6,2.2
			c-31.5,5.5-62.9,11.1-94.4,16.5c0.8-3.7,2.4-7.1,3.8-10.6c3-7.5,5.5-15.1,8.5-22.5c1.8-4.6,3.8-9.1,4.9-13.9
			c-3.9,0.3-7.6,1.1-11.4,1.8c-77.2,14.6-154.4,29.4-231.6,43.9c-1.7,0.3-3.5,0.8-4.4,2.5c-4,6.2-6.9,13.1-10.5,19.4
			c-3.7,6.3-7.3,12.8-10.5,19.3c-1.2,2-2.1,4.9-4.9,5.1c-28.5,4.9-56.9,9.9-85.4,14.9c-6.8,1.1-13.5,2.8-20.4,3.3
			c3.3-6.5,7.7-12.3,11.2-18.7c4.7-8.5,10.5-16.2,14.9-24.8c-8.4,1.4-16.8,3.2-25.2,4.7c-6.3,1.1-12.6,2.9-19,3.2
			c1.2-2.5,2.8-5.2,5.8-5.4c11.9-2.1,23.7-4.6,35.7-6.7c2.9-0.7,6.6-0.8,8-3.9c5.4-8.6,10.3-17.6,15.9-26
			c5.4-9.8,11.9-18.9,17.3-28.7c3.4-5.9,7.8-11.2,10.5-17.5c-14,2.1-27.6,6.5-41.6,8.3c0.4-2.8,2.4-4.7,5.2-5
			C405.2,192,678.7,132.5,952.1,73z M1005.3,67c-37.6,8.1-75.2,16.3-112.8,24.3c-30.7,6.8-61.5,13.1-92.1,20.1c-1,2.9-1.3,6-1.8,9
			c-6,41.5-12.5,82.9-18.4,124.4c1.1,0.4,2.3,0.4,3.5,0.1c75.1-13.3,150.1-26.6,225.2-39.9c3.6-0.7,7.4-0.9,10.9-2.2
			c0.5-5.6-0.6-11.2-0.5-16.8c-1.1-40.3-3-80.5-3.9-120.8C1012.1,65.2,1008.7,66.2,1005.3,67z M780.7,115.5
			c-47.9,10.4-95.9,20.7-143.8,31.1c-11.2,2.6-22.6,4.5-33.6,7.5c-2.4,4.8-3.2,10.2-4.8,15.2c-4.2,12.9-7.8,26-12,39
			c-2.1,9.2-6.2,17.8-7.8,27.1c8.4-1,16.7-3,25-4.5c57.1-10.9,114.1-21.9,171.2-32.8c1.5-0.3,3.1-0.7,4.6-1.4
			c1.3-6.8,2.1-13.7,2.8-20.6c1.6-6.6,2.6-13.3,3.4-20.1c2.2-14.1,4.7-28.2,6.5-42.4C788.2,113.3,784.5,114.7,780.7,115.5z
			 M557,163.8c-14.8,3.3-29.8,6.4-44.6,9.7c-3.5,7.1-5.6,14.9-8.6,22.3c-8.9,23.8-17.7,47.6-26.5,71.4c-4,11.3-8.7,22.4-12.3,33.9
			c5-0.3,10-1.5,14.9-2.3c24.3-4.2,48.5-8.6,72.8-12.9c1-0.2,2.1-0.5,3-1c12.7-39.9,24.7-80,37.3-119.9c1-3,2-6,2.5-9.1
			C582.5,158,569.9,161.2,557,163.8z M492.1,177.9c-73.3,15.9-146.6,31.6-219.9,47.5c-2.1,0.2-2.9,2.4-3.9,4
			c-9.7,18.6-20.1,36.7-29.8,55.2c-3.2,5.9-6.8,11.6-9.5,17.7c8.1-0.8,16-3.1,24-4.3c73-14,146.1-28,219.1-41.9
			c1.4-0.3,3.2-0.7,3.5-2.3c6.9-18.1,13.5-36.4,20.6-54.4c2.4-8,6.3-15.5,8.7-23.5C500.5,175.4,496.4,177.1,492.1,177.9z M250.8,230
			c-23.9,5.2-47.7,10.4-71.6,15.4c-2.1,0.5-4.6,1-5.7,3.2c-22.9,37.8-45.8,75.6-68.8,113.3c-0.6,1.1-1.2,2.2-1.8,3.4
			c5.1-0.4,10-1.6,15-2.4c22.6-3.9,45.1-8.1,67.7-12c3.9-0.8,8-1.2,11.8-2.3c20.8-37.6,41.3-75.4,62-113.1c1.4-2.5,2.8-5,3.7-7.7
			C259,228,254.9,229.1,250.8,230z"/>
	</g>
	<path d="M984,265.9c98.7-16,197.4-31.7,296-47.8v7.9c-57.8,9-115.5,18.3-173.2,27.5c-359,57.1-718,114.4-1077,171.4
		c-4.1,0.7-8.2,1.9-12.3,1.4c1.2-2.7,3-5.7,6.4-5.7C343.8,369,663.9,317.5,984,265.9z"/>
	<g>
		<path d="M1219.6,365.7c20.1-2.4,40.2-5.3,60.4-7.2v8.9c-171.2,20.8-342.3,41.8-513.5,62.8c-4.4,0.6-8.9,0.6-13.1,2
			c-0.8,2.4-1.1,5-1.5,7.6c-4.9,33.7-10,67.4-14.8,101.1c-1.4,9.6-3.5,19.2-4.1,28.9c122.1-9.6,244.1-19.8,366.2-29.6
			c47.9-4,95.9-7.7,143.8-11.7c12.3-0.8,24.6-2.2,37-2.9v10.9c-12.2-0.1-24.3,1.9-36.5,2.7c-12.2,0.7-24.3,1.5-36.4,2.7
			c-13,1.2-26.1,1.8-39.1,2.9c-22.1,2.2-44.3,3.1-66.4,5.5c-15.8,1.3-31.8,2-47.6,3.7c-103.4,8.2-206.9,16.2-310.3,24.4
			c-4.1,0.3-8.3,0.1-12.3,1.2c-2.5,12.4-3.8,25-5.5,37.5c-2.6,14.5-4.8,29.1-6.5,43.8c-0.3,1.9-0.6,3.8-1.5,5.6
			c-1.5,0.1-3,0.1-4.5,0.2c1.2,0.4,2.4,0.7,3.6,1.1c-9-0.6-18,0.7-27,0.9c-41.2,2.1-82.4,4.5-123.6,6.3c4-15.6,8-31.2,11.2-47
			c3-12.3,6.4-24.5,8.5-37c-16.7,0.8-33.4,2.6-50.1,3.7c-152.1,12-304.2,23.9-456.3,35.8c-26.6,2.2-53.2,3.9-79.8,6.4v-7.4
			c193.2-15.6,386.4-31.4,579.7-47c2.9-0.2,5.9-0.3,8.8-1c2.1-6.5,3.1-13.3,4.9-19.9c2.7-13.7,6.6-27,9.5-40.6
			c2.6-13.7,6.9-27,9.3-40.7c2.4-10.5,5.8-20.9,7.2-31.6c-1.5-0.1-2.9,0-4.4,0.1c-101.3,12.5-202.6,24.8-303.9,37.2
			c-3.9,0.5-7.9,0.6-11.7,1.6c-1.9,2.3-2.8,5.3-4,8c-6.5,16.6-14.5,32.5-21,49.1c-5.4,11.7-10.5,23.5-15.5,35.3
			c-0.7,1.5-1.4,3.1-2.5,4.3c-13.1,1.6-26.3,2.4-39.4,3.7c-50.6,4.5-101.3,9.1-152,13.7c-2.3,0.2-4.7,0.3-7,0.3
			c1-2.5,2.4-4.8,3.7-7.1c5.9-10,11.1-20.2,16.6-30.4c7.6-12.3,13.6-25.6,21.1-38c2.7-5.2,5.8-10.1,8.3-15.4
			c-35.9,3.9-71.8,8.8-107.7,13v-6c36.2-4.5,72.4-9,108.6-13.5c1.4-0.3,3.2-0.4,3.9-1.9c6.3-10.3,11-21.4,17.4-31.6
			c3.5-6.2,6.9-12.5,10.1-18.9c4.5-7.9,9.3-15.7,13.1-23.9c1-1.9,1.8-4.1,3.5-5.4c3.5-1.1,7.3-1.3,10.9-1.9
			c51.3-7.9,102.6-15.7,153.9-23.5c5.9-0.9,11.8-2.2,17.9-2.4c-1.8,5.6-4.9,10.8-7.1,16.3c-5.3,12.9-11.1,25.6-16.5,38.5
			c-4.3,10.1-9.4,19.9-12.9,30.4c23.6-2.5,47.2-5.9,70.8-8.6c93.8-11.8,187.7-23.3,281.5-35.2
			C843.2,412.8,1031.4,389.2,1219.6,365.7z M307.9,405.2c-49.2,7.4-98.4,14.9-147.5,22.3c-1.5,1.2-2.2,3.2-3.1,4.8
			c-26.9,49.8-54.1,99.4-81,149.1c-2.2,4.1-4.9,8.1-6.3,12.6c58.6-5.3,117.2-10.8,175.8-16.2c2.2-0.3,4.7-0.2,6.7-1.2
			c2.9-5.6,5.1-11.6,7.8-17.4c18.3-41.7,36.6-83.4,54.9-125.1c4.4-10.5,9.6-20.7,13.4-31.5C321.5,402.8,314.8,404.6,307.9,405.2z
			 M665,442.5c-11.9,1.7-23.9,2.6-35.8,4.6c-1.2,3.1-1.7,6.4-2.5,9.6c-13.2,58-26.5,116.1-39.8,174.1c-2.3,11.2-5.5,22.2-7.3,33.4
			c1.8,0.1,3.5,0.1,5.3,0c41.2-2.3,82.4-4.4,123.6-6.9c1.2-3.7,1.5-7.6,2.1-11.5c10.1-65.6,20.3-131.2,30.4-196.8
			c0.8-5.3,2-10.6,2.2-16C717.1,435.8,691.1,439.5,665,442.5z"/>
	</g>
</g>
</svg>
