<?xml version="1.0" encoding="utf-8"?>
<!-- Generator: Adobe Illustrator 27.1.0, SVG Export Plug-In . SVG Version: 6.00 Build 0)  -->
<svg version="1.1" id="Layer_1" xmlns="http://www.w3.org/2000/svg" xmlns:xlink="http://www.w3.org/1999/xlink" x="0px" y="0px"
	 viewBox="0 0 1280 720" style="enable-background:new 0 0 1280 720;" xml:space="preserve" fill="currentColor">
<style type="text/css">
	.st0{fill:#000000;}
</style>
<g>
	<path class="st0" d="M706.4,25.5C740.5,17.1,774.6,8.7,808.6,0h-18.8c-18.6,5.4-37.6,9.6-56.4,14.3c-84.1,21-168.1,42-252.2,62.9
		c-92,23-184,46.1-276,69c-4.7,1.4-11.1,1.4-13.3,6.8c1.4-0.2,2.9-0.4,4.3-0.7C366.2,110,536.4,67.9,706.4,25.5z"/>
	<path class="st0" d="M847.5,7.3c9.4-2.4,19-4.2,28.2-7.3h-18.9c-10.8,3.6-22,5.7-33,8.6C615.9,59.4,408,110.3,200.2,161.3
		c-5.1,1.3-10.2,2.1-15.1,3.9c-1.7,0.5-2,2.6-2.8,3.9c7.7-1,15.2-3.5,22.8-5.2C419.2,111.6,633.4,59.5,847.5,7.3z"/>
	<path class="st0" d="M951.5,0h-20.9c-85.5,20.8-171.2,41.1-256.7,61.7c-165.6,39.7-331.3,79.4-497,119.1c-2.8,0.3-4.5,2.5-5.5,5
		c7.8-1.2,15.4-3.6,23.1-5.3C446.8,120.2,699.2,60.2,951.5,0z"/>
	<path class="st0" d="M1031.6,0h-23.8c-15.3,4.4-31,7.5-46.5,11.3C698.8,72.8,436.4,134.4,173.9,195.9c-3.2,0.7-6.5,1.3-9.7,2.4
		c-2.1,0.5-2.8,2.8-3.9,4.5c1.2-0.2,2.5-0.4,3.7-0.6C453.2,134.7,742.4,67.4,1031.6,0z"/>
	<path class="st0" d="M1070.9,10.7c15.6-3.5,31.2-6.9,46.7-10.7h-23C781.5,71.6,468.3,143.5,155.2,215.1c-3.1,0.3-5,2.7-6.2,5.3
		c1-0.2,2-0.3,3-0.5C458.3,150.1,764.6,80.5,1070.9,10.7z"/>
	<path class="st0" d="M400.4,180.2C671.1,120.2,941.8,60,1212.6,0h-25.9C842.1,77.1,497.5,154,152.9,230.9
		c-3.7,0.9-7.6,1.5-11.2,2.7c-2.1,0.6-2.9,3-4.1,4.6c1.8-0.2,3.7-0.5,5.5-0.8C228.8,218.1,314.7,199.4,400.4,180.2z"/>
	<path class="st0" d="M1280,164.2v-7.3c-70.2,12.6-140.5,24.9-210.8,37.4c-13.2,2.1-26.2,5-39.4,6.7c-0.4-6.3-0.8-12.7-0.8-19.1
		c6.5-2.2,13.4-2.7,20.1-4.1c76.9-14.2,154-28.1,230.9-42.3v-6.9c-59.2,10.8-118.3,21.8-177.5,32.7c-24.7,4.4-49.3,9.4-74,13.4
		c-0.2-6.2-0.8-12.5-0.4-18.7c14.1-3.4,28.5-5.5,42.7-8.4c69.8-13.3,139.5-26.4,209.2-39.8V101c-58.9,11.5-117.8,22.6-176.7,34
		c-25.2,4.6-50.2,10-75.4,14.2c-0.8-6-1.2-12-0.7-18.1c10.4-2.7,21.2-4.2,31.7-6.5c73.7-14.4,147.3-29.2,221.1-43.4v-6.9
		c-4.5,1.2-9.1,2-13.7,2.9c-24.9,4.9-49.7,10.1-74.6,14.8c-50,9.9-100,20-150.1,29.8c-4.9,1.1-9.7,2.2-14.7,2.6
		c-0.9-5.6-1.3-11.3-0.6-17c84.5-17.5,169.2-34.3,253.7-51.8v-6.2C1208.1,64,1136.2,79,1064.3,93.6c-12.8,2.5-25.5,5.7-38.4,7.5
		c-0.8-5.3-1.2-10.6-0.8-16c1.6-0.5,3.2-1,4.8-1.4c83.4-17.4,166.7-35,250.1-52.4V25c-60.7,13-121.5,25.7-182.3,38.6
		c-24.4,5-48.6,10.6-73.1,15.2c-0.3-5.3-0.7-10.5-0.4-15.7c41.6-9.4,83.3-18.1,125-27.2c43.6-9.5,87.2-18.7,130.8-28.3V1.7
		C899.3,84.4,518.7,167.4,138,250.1c-4.4,1.1-10.7,0.8-11.8,6.4c14.1-1.8,27.8-6.2,41.9-8.4c-2.2,4.3-4.5,8.7-7.5,12.6
		c-1.1,1.5-3.1,1.7-4.7,2.2c-12.5,2.7-25,5.1-37.4,7.9c-2.8,0.3-3.8,3.1-5,5.2c14.5-2.3,28.8-6.1,43.2-8.8
		c-2.5,4.4-4.9,8.9-7.9,12.9c-1.3,1.8-3.6,2-5.6,2.5c-11.4,2.3-22.7,4.7-34.1,6.9c-1.8,0.4-3.7,0.7-5.3,1.6
		c-1.2,1.2-1.7,2.9-2.5,4.4c14.4-2.4,28.6-6.2,43-8.4c-2.3,4.7-4.8,9.2-7.9,13.4c-1.3,1.8-3.8,1.8-5.8,2.4
		c-11.3,2.2-22.7,4.5-34,6.6c-1.9,0.5-3.9,0.7-5.6,1.7c-1.1,1.3-1.7,2.8-2.5,4.3c14.6-1.9,28.8-5.9,43.4-8.1
		c-2.4,4.7-5.1,9.3-8.1,13.7c-1.4,2.4-4.4,2.5-6.7,3.1c-11,1.9-22,4.3-33.1,6.2c-2.1,0.4-4.3,0.7-6.2,1.7c-1.4,1.2-2.2,2.9-3.2,4.4
		c6.5-0.3,12.8-2.1,19.2-3.2c8.4-1.6,16.8-3.4,25.3-4.8c-2.6,4.8-5.4,9.6-8.5,14.2c-1.5,2.5-4.7,2.5-7.2,3.1
		c-11.2,1.9-22.4,4.1-33.6,6c-1.9,0.4-3.9,0.6-5.7,1.6c-1.4,1.3-2.2,3.1-3.2,4.7c15.1-2,29.9-5.7,45-7.9c-2.8,5-5.7,10.1-9,14.8
		c-1.4,2.2-4.2,2.1-6.5,2.7c-11.5,1.9-23,4.1-34.5,6c-1.9,0.4-3.8,0.6-5.6,1.5c-1.5,1.3-2.3,3.2-3.3,4.9c1.2-0.1,2.4-0.3,3.6-0.4
		C460.4,307.9,870.2,236,1280,164.2z M456.7,302.7c-81.4,14.7-163,28.8-244.4,43.4c-2.5,0.4-5,0.8-7.5,1.1c2.1-5.1,4.9-10,7.7-14.8
		c0.8-1.7,2.6-2.3,4.3-2.6c60.8-11.1,121.5-22.1,182.3-33.3c21.6-3.7,43-8.1,64.7-11.6C461.5,290.8,460,297.3,456.7,302.7z
		 M458.9,222.7c10.2-1.8,20.1-4.7,30.4-5.8c-1.5,5.3-3.6,10.5-5.7,15.7c-48.2,9.8-96.5,19.2-144.8,28.9c-32.7,6.1-65.3,13.2-98,19.2
		c2.2-4.7,4.7-9.3,7.2-13.8c0.4-1.3,1.7-1.6,2.9-1.9C320.2,250.9,389.5,236.8,458.9,222.7z M251.9,260.1c2.5-4.9,4.7-9.9,7.9-14.3
		c2.9-1.6,6.5-1.7,9.7-2.5c60.7-12.7,121.3-25.5,181.9-38.2c15.3-3.1,30.5-6.9,45.8-9.3c-1.4,4.9-3.2,9.6-5.2,14.3
		c-0.4,1.3-2.1,1.2-3.1,1.6C409.9,227.6,331,244.2,251.9,260.1z M241.4,285.5c70-13.7,140-27.7,210.1-41.3
		c9.9-1.9,19.7-4.1,29.7-5.6c-1.8,5.6-3.7,11.1-6.2,16.4c-3.3,1.6-7.2,1.7-10.7,2.5C387.2,272.3,310.1,287,233,301.8
		c-1.4,0.2-2.7,0.4-4,0.5c2.4-4.9,5-9.8,7.8-14.5C237.6,286.1,239.8,286,241.4,285.5z M233.4,306.6c65.7-12.4,131.4-25,197.1-37.4
		c14-2.5,27.9-5.5,41.9-7.7c-1.9,5.8-3.5,12.1-6.8,17.2c-39.8,7.7-79.8,14.7-119.7,22.2c-37.8,7-75.5,14-113.3,20.9
		c-5.2,1-10.3,2.2-15.6,2.6c2.7-5.3,5.2-10.8,8.7-15.7C228,307.3,230.8,307.2,233.4,306.6z M771.6,246.6c-1.5,0.5-3,1-4.5,1.3
		c-67.7,11.7-135.4,24.1-203.2,35.8c1.3-6.3,3.2-12.4,5.5-18.3c47.4-8.7,94.9-17.3,142.3-26c20.9-3.6,41.7-7.9,62.6-11.2
		C773.6,234.3,772.8,240.5,771.6,246.6z M774.9,221.7c-68,12.6-136,25-203.9,37.7c1.7-6,3.3-12,5.5-17.9
		c62.8-12,125.7-23.8,188.5-35.8c4.4-0.8,8.7-1.9,13.1-2.3C777.4,209.5,777.1,215.9,774.9,221.7z M765.9,199.7
		c-49.3,9.4-98.5,18.8-147.7,28.3c-13.2,2.3-26.3,5.3-39.6,7.3c1.2-5.7,2.9-11.4,4.9-16.9c4.7-1.4,9.5-2,14.2-3
		c57.7-11.3,115.3-22.7,173-34c3.7-0.8,7.4-1.7,11.2-1.9c-0.7,5.7-1.6,11.5-2.5,17.2C775,198.3,770.4,198.8,765.9,199.7z
		 M585.5,212.1c1.1-5.4,2.8-10.8,4.7-16c13.6-3.1,27.2-5.6,40.8-8.4c49-10.2,98-19.9,147-30c2.5-0.5,4.9-0.9,7.2-1.3
		c-0.6,5.7-1,11.5-2.7,16.9C716.8,185.9,651.3,199.7,585.5,212.1z M800.3,111.4c61.4-13.6,123-26.6,184.4-40
		c10.3-1.9,20.4-4.9,30.8-6.3c1,46,3.2,91.9,4.4,137.8c-32.4,6.1-64.9,11.5-97.4,17.4c-47.5,8.4-95,16.9-142.5,25.2
		c5.8-39.5,11.8-79,17.6-118.5C798.5,121.8,798.9,116.5,800.3,111.4z M603.2,154c59.9-13.4,120-25.9,180-39.1
		c2.9-0.7,5.9-1.3,8.9-1.5c-0.5,5.1-1.2,10.2-2.4,15.1c-40.6,8.9-81.4,17.2-122,25.9c-23.1,4.8-46.1,9.9-69.3,14.6
		C600,164,601.2,158.9,603.2,154z M636.5,166.3c47.1-9.9,94.2-19.8,141.3-29.7c3.7-0.8,7.3-1.7,11-2c-0.6,5.3-1.2,10.6-2.5,15.8
		c-11.9,3.1-24.2,4.9-36.2,7.7c-52.7,10.8-105.4,21.5-158.1,32.5c1.4-5.3,2.8-10.6,4.9-15.7C610,171.5,623.3,169.2,636.5,166.3z
		 M576,159.7c6.5-1.3,12.9-3,19.5-3.8c-3.7,13.8-8.5,27.3-12.5,41.1c-7.9,25.6-15.9,51.1-23.7,76.7c-1.3,3.9-2.3,7.9-3.9,11.7
		c-23.8,4.4-47.5,8.4-71.3,12.7c-6.4,1-12.7,2.4-19.2,3.2c4-12.4,9-24.4,13.4-36.6c8.5-22.9,17-45.7,25.5-68.6
		c2.9-7.5,5.2-15.3,8.6-22.6C533.6,168.8,554.8,164.3,576,159.7z M273,225.1c77.3-16.5,154.6-33.5,231.8-50.1
		c-1.2,5.1-3.3,9.8-5.2,14.6c-4.7,1.6-9.7,2.3-14.6,3.4c-64.9,13.7-129.8,27.5-194.8,41.2c-9.1,1.8-18.1,4.1-27.3,5.7
		c2.1-4.5,4.3-8.9,7-13.1C270.5,225.7,271.8,225.4,273,225.1z M135.7,310.7c11.4-18.7,22.7-37.3,34-56c1.7-2.7,3-5.6,5.2-7.9
		c2.8-1.5,6.2-1.7,9.3-2.5c21.7-4.6,43.3-9.3,65-14c4.7-1,9.4-2.2,13.9-2.8c-1.3,3.4-3.1,6.6-4.9,9.8
		c-20.3,37.1-40.5,74.2-60.9,111.2c-29,5.4-58.1,10.3-87.1,15.6c-2.5,0.5-4.9,0.8-7.4,1.1C113.5,346.8,124.8,328.9,135.7,310.7z"/>
	<path class="st0" d="M1144.4,217c45.2-7.5,90.4-15,135.6-22.7v-7.5C866.3,257,452.7,326.9,39,397c-3.4,0.1-5.3,3.1-6.4,6
		c0.8-0.1,2.3-0.2,3-0.3C405.2,340.9,774.8,279,1144.4,217z"/>
	<path class="st0" d="M1280,226v-7.9c-102.9,16.8-205.9,33.2-308.9,49.9C658.5,318.3,345.9,368.7,33.3,419.1
		c-3.8,0.6-7.5,1-11.2,1.9c-2.7,0.4-3.5,3.5-4.7,5.6c5.6-0.3,11.1-1.6,16.7-2.4C449.4,358.1,864.7,292,1280,226z"/>
	<path class="st0" d="M1280.1,492.1v-10.2c-105.7,9.8-211.5,19.6-317.2,29.4c-74.7,6.8-149.4,14.1-224.2,20.6c1-10,2.4-20,4.5-29.9
		c6.2-1.3,12.6-1.5,19-2.2c172.6-17.5,345.2-35.4,517.8-52.6v-9.9c-163.6,17-327.3,34.1-491,51.1c-14.9,1.4-29.7,3.6-44.7,4.4
		c1.3-9.2,2.2-18.5,4.3-27.5c5.6-1.1,11.4-1.4,17.1-2.1c171.5-19.3,343-38.5,514.4-57.9v-9.4c-176.8,20.3-353.6,40.7-530.5,60.9
		c1.1-8.3,2.1-16.7,3.8-24.9c8.2-1.8,16.6-2,24.8-3.3c167.3-20.5,334.6-40.9,501.9-61.4v-8.9c-46,5.3-91.9,11.4-137.8,17
		c-224.8,28.1-449.6,56.1-674.4,84.1c-55.2,6.7-110.3,13.9-165.5,20.5c3.4-7.8,6.4-15.8,10.3-23.3c1.6-0.3,3.3-0.6,5-0.9
		c45.8-5.7,91.6-12,137.4-18C730,401.3,1005,364.9,1280,328.4v-8.7C973.5,361,667,402.3,360.5,443.6c-14.8,1.8-29.6,4.4-44.5,5.7
		c2.6-7.1,5.6-14,8.8-20.8c8.9-2.2,18-2.7,27-4.2c309.4-43.8,618.9-87.7,928.3-131.6v-8.3c-275.9,39.6-551.8,79.5-827.7,119.1
		c-41.4,5.8-82.7,12.2-124.2,17.7c2.6-6.9,5.3-13.8,8.7-20.3c215.9-32.6,431.9-65,647.8-97.6c98.4-14.8,196.9-29.5,295.3-44.5v-8
		C860.3,314.8,440.7,378.9,21,443c-4.9,0.8-9.9,1.2-14.7,2.3c-2.6,0.8-3.4,3.7-4.6,5.7c2.2-0.1,4.3-0.3,6.5-0.6
		c38.8-6,77.7-11.7,116.4-17.7c9.2-1.2,18.4-3.2,27.7-3.8c-2.6,6-5.8,11.7-9.1,17.3c-0.8,2.1-3.2,2.3-5.1,2.6
		c-46,6.4-92,13.3-138.1,19.7v5.7c29.2-4.2,58.5-8.2,87.8-12.9c16.8-2.3,33.6-5,50.5-6.9c-2.2,5.4-5.3,10.3-7.9,15.4
		c-1,1.6-1.8,3.5-3.3,4.7c-3.2,1-6.5,1.1-9.8,1.6c-39.1,5.2-78.1,10.7-117.2,15.7v5.9c23.8-3.1,47.6-6.3,71.4-9.4
		c17.3-2.1,34.5-5,51.9-6.5c-2.6,6-6,11.5-9,17.3c-1.2,2-2.2,4.8-4.9,4.9c-36.4,4.9-73,9-109.4,13.8v6c36-4.2,71.9-9,107.8-12.9
		c-3.2,6.3-6.6,12.5-10.1,18.7c-1,2.5-3.8,2.7-6.1,3c-30.6,3.3-61.1,7-91.6,10.4v6.3c23-2.6,46.1-5.2,69.1-7.7
		c7.7-0.8,15.2-2.1,22.9-2.5c-2.2,5.4-5.4,10.4-8.1,15.6c-1.4,2.5-2.6,5.2-4.6,7.3c-2.4,0.7-4.9,0.8-7.3,1.1c-24,2.3-48,5.2-72,7.3
		v6.7c15.3-1.6,30.7-3,46-4.6c9.7-0.9,19.3-2.3,29.1-2.7c-1.6,3.9-3.7,7.7-5.8,11.4c-2.6,4.5-4.7,9.2-7.7,13.4
		c-20.6,2.2-41.2,3.7-61.7,5.8v6.9c182.3-16.2,364.5-32.7,546.9-49c16-1.3,32.1-3.2,48.2-4.1c-2,9.1-4,18.2-6.5,27.2
		c-4.5,0.7-9,0.9-13.5,1.3C383.4,598.3,191.7,613.8,0,629.4v7.3c178.3-14.2,356.7-28,535.1-42.1c17.1-1.1,34.1-2.9,51.2-3.8
		c-0.9,5.8-2.4,11.4-3.7,17c-1.1,4.7-1.9,9.5-3.7,14c-193,13.2-386,26.5-578.9,39.7v7.5c186.6-12.2,373.1-24.6,559.6-36.7
		c5.6-0.4,11.3-1.1,17-0.8c-0.7,5.9-2.4,11.7-3.7,17.5c-1.3,5.3-2.2,10.7-4,15.9c-10.5,1.3-21.3,1.1-31.9,2
		c-179,9.8-358,19.6-537,29.5v8.2c15.7-1.4,31.4-1.7,47-2.7c304.7-15.8,609.4-31.6,914.2-47.7c106.3-5.6,212.6-10.9,318.9-16.7
		v-11.8c-71.7,4.1-143.3,7.9-215,11.9c-115,6.1-230,12.9-345,18.8c1.6-11.8,3.1-23.6,5.4-35.3c4.8-0.8,9.7-0.9,14.6-1.1
		c180-11.8,360-23.6,540-35.5v-11.2c-167,11.3-334,22.9-501,34.3c-17.4,1-34.8,2.9-52.2,3.3c1.2-10.6,2.8-21.3,4.7-31.8
		c9.5-1.5,19.1-1.5,28.7-2.5c121-9.5,242.1-18.9,363.1-28.5c52.2-3.9,104.4-8.5,156.7-12.1v-10.8c-182.3,14.7-364.7,29.8-547,44.3
		c1-9.5,2.2-19.1,4.3-28.5C918.3,524.5,1099.2,508.4,1280.1,492.1z M596.2,450.9c7.8-0.8,15.5-2.3,23.5-2.5
		c-1.3,7.4-3.1,14.8-5,22.2c-0.2,2.2-2.8,2.2-4.4,2.5c-107,12.1-213.9,24.6-320.9,36.7c3.4-7.4,6.2-15.1,10-22.4
		C398.3,475,497.3,463.2,596.2,450.9z M612.1,480.8c-1.7,9.1-3.7,18.1-6.4,26.9c-109.9,11.5-219.9,22.9-329.9,34.3
		c2-6.4,5.2-12.4,7.6-18.6c1.2-2.6,2-6.6,5.7-6.4c98-11,195.9-22,293.9-33.1C592.7,483.1,602.3,481.4,612.1,480.8z M248.1,577.5
		C188.7,583,129.3,588.6,69.8,594c1.6-3.9,3.7-7.6,5.8-11.3c26.3-48.3,52.6-96.7,78.9-145.1c1.8-3.3,3.2-6.8,5.5-9.7
		c1.7-0.7,3.4-0.9,5.1-1.2c53-7.9,106-16,158.9-23.9c1.5-0.2,3-0.3,4.5-0.4c-4.3,11.7-9.9,22.8-14.7,34.3
		c-20.3,46.1-40.5,92.3-60.7,138.4C252.5,577.3,249.9,577.2,248.1,577.5z M282.7,574.3c-7.3,0.6-14.5,1.5-21.8,1.9
		c3.3-8.9,7.2-17.7,11.3-26.3c16.3-2.3,32.6-3.3,48.9-5.2c77.4-7.9,154.8-15.7,232.2-23.6c16.9-1.6,33.7-3.8,50.7-4.9
		c-2.2,9.6-4.4,19.4-6.8,29C492.4,555,387.5,564.5,282.7,574.3z M724.8,554c-4.2,27.5-8.5,55-12.7,82.5c-1.2,7-1.7,14.1-3.5,21
		c-43.1,2.5-86.2,4.7-129.3,7.2c15.3-67.2,30.7-134.4,46-201.6c1.4-5.3,2.2-10.8,3.9-16.1c27.6-3.5,55.3-6.7,82.9-10.2
		c10.4-1.1,20.8-2.9,31.1-3.5C737.5,473.6,730.9,513.7,724.8,554z"/>
	<path class="st0" d="M258.3,719.9h239c14.8-1.5,29.8-1.2,44.7-2.1c137.4-5.2,274.8-10.6,412.2-15.8c108.6-4.3,217.2-8.2,325.8-12.7
		v-12.2c-335,14-670,28-1005,41.9C269.4,719.2,263.8,719.5,258.3,719.9z"/>
</g>
</svg>
