<?xml version="1.0" encoding="utf-8"?>
<!-- Generator: Adobe Illustrator 26.5.0, SVG Export Plug-In . SVG Version: 6.00 Build 0)  -->
<svg version="1.1" id="Layer_1" xmlns="http://www.w3.org/2000/svg" xmlns:xlink="http://www.w3.org/1999/xlink" x="0px" y="0px"
	 viewBox="0 0 1280 720" style="enable-background:new 0 0 1280 720;" xml:space="preserve">
<style type="text/css">
	.st0{fill:#000000;}
</style>
<g>
	<path d="M789.8,0h18.8c-33.4,8.7-67,16.9-100.6,25.1c-165.8,41.3-331.6,82.4-497.4,123.7c-6.2,1.4-12.3,3.5-18.7,4.3
		c1-1.5,1.9-3.6,3.8-4.2c4.9-1.8,10.1-2.6,15.1-3.9C386.9,100.9,563,57.1,739,13C755.9,8.6,773,5,789.8,0z"/>
	<path d="M930.6,0h20.9C697,60.7,442.4,121.3,187.8,182.1c-5.4,1.2-10.8,2.9-16.4,3.7c0.7-2.6,2.5-4.7,5.3-5
		c167.5-40.1,335-80.2,502.5-120.4C763,40.2,846.9,20.4,930.6,0z"/>
	<path d="M1094.7,0h23c-18.5,4.5-37.1,8.5-55.6,12.8C763,80.8,464,148.8,165,216.9c-5.4,1.1-10.6,3.1-16.2,3.2
		c1.4-2.4,3.4-4.6,6.3-5C468.3,143.5,781.5,71.6,1094.7,0z"/>
	<g>
		<path d="M978.2,67.3c100.6-21.8,201.1-43.9,301.8-65.6v5.9c-80.6,17.5-161.2,34.8-241.8,52.3c-4.6,1.1-9.5,1.6-13.9,3.3
			c-0.6,5.5,0,11.1,0.1,16.7c0.4,7,0.4,14.1,1.6,21c5.5-0.2,10.8-1.8,16.1-2.9c79.3-16.2,158.6-32.7,237.9-48.7v6.2
			c-72.6,15-145.2,29.5-217.8,44.4c-11.9,2.5-24,4.6-35.8,7.4c-1,5.8-0.2,11.8,0,17.6c0.4,8,0.4,16.1,1.6,24.1
			c11.1-1.4,22.1-4.1,33.2-6c73-14,146-27.9,218.9-42v6.8c-72.8,13.9-145.6,27.6-218.3,41.5c-11.1,2.4-22.5,3.7-33.5,6.7
			c-0.6,4.6-0.1,9.3,0.1,13.9c0.3,10.3,0.8,20.6,1.6,30.9c4.6-0.2,9.2-1.3,13.7-2.2c78.8-13.9,157.6-27.9,236.3-41.9v7.3
			C876.1,235,472.3,305.8,68.5,376.5c-7.1,1.1-14.2,2.9-21.4,3.5c0.9-1.7,1.7-3.6,3.2-4.8c1.8-0.9,3.8-1.1,5.7-1.5
			c11.7-1.9,23.2-4.2,34.9-6c2.2-0.5,4.9-0.5,6.2-2.7c3-4.1,5.3-8.7,8-13c4.5-8,10-15.4,14.2-23.6c-8.2,1.3-16.3,3.1-24.4,4.6
			c-6.6,1.1-13.2,3.1-19.9,3.4c0.9-1.6,1.7-3.2,3.1-4.4c2.2-1.1,4.8-1.4,7.2-1.9c9.3-1.5,18.5-3.6,27.8-5.2
			c3.4-0.8,7.2-0.7,10.1-2.8c5.4-7.2,9.2-15.4,14.2-22.9c2.3-4,5.5-7.7,6.9-12.2c-14.3,2.3-28.4,5.9-42.7,8.5
			c0.6-1.6,1.2-3.3,2.4-4.5c1.6-0.9,3.5-1.2,5.3-1.6c11.4-2.2,22.7-4.6,34.1-6.9c2.2-0.5,4.8-0.9,6.1-3.1c2.8-4,5-8.3,7.5-12.5
			c3.6-6.3,8.2-12.2,11.2-18.8c-14,2.1-27.6,6.6-41.7,8.4c0.8-5.6,7.3-5.2,11.6-6.4C418.1,189.2,698.1,128.3,978.2,67.3z
			 M1001.2,67.9c-56.5,12.2-113,24.4-169.5,36.6c-10.4,2.5-21,4.2-31.3,7c-0.9,2.3-1.2,4.8-1.6,7.3c-6.2,42.2-12.6,84.4-18.8,126.6
			c76.9-13.4,153.8-27.2,230.7-40.8c3-0.6,6.2-0.8,9.1-1.9c0.5-5.9-0.6-11.9-0.5-17.8c-1.2-39.9-3-79.8-3.9-119.8
			C1010.6,65.4,1006,67,1001.2,67.9z M780.7,115.5c-48.8,10.6-97.6,21-146.4,31.6c-10.3,2.4-20.9,4.1-31,7c-2.3,4.2-3,9.1-4.5,13.5
			c-2.5,7.5-4.7,15.1-6.8,22.8c64-13.3,128.1-26.3,192.1-39.5c0.5-0.2,1.6-0.6,2.1-0.8c2.7-12,4.2-24.4,5.8-36.6
			C788.2,113.5,784.5,114.7,780.7,115.5z M562,162.8c-16.5,3.7-33.1,7-49.5,10.8c-3.1,5.9-4.8,12.5-7.3,18.7
			c-9.1,24.6-18.3,49.2-27.5,73.9c-4.2,11.7-9,23.2-12.8,35.1c16.9-2.6,33.7-5.9,50.5-8.8c13.3-2.5,26.7-4.4,39.9-7.2
			c2.2-4.5,3-9.5,4.7-14.2c8.2-26.5,16.4-52.9,24.6-79.4c3.5-11.9,7.8-23.7,10.7-35.8C584.2,157.6,573.2,160.5,562,162.8z
			 M772.2,159c-59.8,12.2-119.7,24.3-179.5,36.5c-0.6,0.2-1.8,0.6-2.4,0.8c-4.5,12.8-8.5,25.8-11.7,39c20.5-3.4,40.8-7.7,61.3-11.5
			c45.2-8.6,90.5-17.4,135.7-26c1.2-0.3,2.5-0.6,3.6-1.2c2.3-13.3,4.6-26.6,6-40C780.9,157,776.6,158.1,772.2,159z M480.6,180.4
			c-67.5,14.5-135.1,29.3-202.6,43.7c-3.1,0.9-7.3,0.6-8.8,4c-5.9,10.5-11.7,21.1-17.1,32c79.3-15.9,158.5-32.5,237.8-48.6
			c2.6-0.2,2.9-3.1,3.8-5c3.7-10.3,7.9-20.5,11.4-30.9C496.7,176.3,488.7,178.9,480.6,180.4z M765,205.7
			c-62,11.8-123.9,23.6-185.8,35.3c-1.2,0.3-2.9,0.4-3.2,1.9c-4.6,13.5-8.3,27.2-12.6,40.8c19.1-3,38.1-6.7,57.2-10
			c49.1-8.6,98.2-17.5,147.4-26c1.2-0.3,2.5-0.6,3.6-1.2c2.5-14.2,4.9-28.6,6.5-43C773.6,203.7,769.3,204.9,765,205.7z M469.8,220.5
			c-70.7,14.4-141.4,28.8-212.2,43.2c-3,0.8-6.8,0.6-9.3,2.6c-6.6,11.9-13.3,23.8-19.3,36c13.4-2.1,26.6-5,39.9-7.4
			c65.1-12.5,130.2-25,195.4-37.4c3.5-0.8,7.4-0.9,10.7-2.5c2.7-5.8,4.6-12.1,7-18.1c2.3-6.7,5.5-13.1,7.2-20
			C482.6,217.5,476.2,219.2,469.8,220.5z M251.6,229.8c-24.7,5.4-49.3,10.6-74,16c-3.7,0.5-5,4.4-6.8,7.1
			c-13.5,22.4-27.1,44.8-40.7,67.2c-8.9,15.1-18.5,29.9-27.2,45.2c29.3-4.6,58.5-10.4,87.8-15.3c2.2-0.4,4.5-0.7,6.7-1.5
			c1.8-2.4,2.9-5.2,4.4-7.7c18.6-34,37.2-68,55.9-102c2-3.6,4.2-7.1,5.6-11.1C259.3,228,255.5,228.9,251.6,229.8z M446.5,266.2
			c-71.3,13.5-142.6,27.1-214,40.6c-2.8,0.7-6.8,0.5-8.2,3.6c-6.6,12.2-14,24.1-19.6,36.8c2.5-0.2,5-0.7,7.4-1.1
			c81.4-14.6,163-28.7,244.4-43.4c2.9-4.5,4-10,6.1-14.9c2.9-8.9,7.1-17.3,9.5-26.3C463.7,262.7,455.1,264.7,446.5,266.2z"/>
	</g>
	<path d="M33.3,419.1C448.8,352,864.5,285.2,1280,218.1v7.9C864.4,292.1,448.8,358.3,33.2,424.4c-5.2,0.8-10.4,2-15.7,2.3
		c1.1-2.1,1.9-5.2,4.6-5.6C25.8,420.1,29.5,419.7,33.3,419.1z"/>
	<g>
		<path d="M958.5,330.7c107.2-15.3,214.3-31,321.5-46.2v8.4c-22.8,2.8-45.5,6.5-68.2,9.6c-292.5,41.5-585,83-877.5,124.4
			c-3,0.4-6,0.6-8.9,1.5c-2.1,2.2-3,5.2-4.2,7.9c-3.5,7.9-6.2,16.1-10.1,23.8c-3,6.6-6,13.2-8.6,19.9c41.8-4.9,83.6-10.4,125.4-15.5
			c241.1-30,482.2-60.1,723.2-90.2c43-5.2,85.9-11,128.9-15.9v8.9c-171.2,21-342.3,41.9-513.5,62.9c-4.4,0.6-8.9,0.6-13.1,2
			c-2.9,12-3.6,24.4-5.9,36.5c-1.1,9-3.1,17.8-3.4,26.9c178.6-18.5,357.2-37.3,535.9-55.7v9.8c-167.6,17.2-335.3,34-502.9,51.1
			c-8.9,0.9-17.9,1.9-26.8,2.6c-2.6,0.2-5.2,0.4-7.7,1.2c-0.6,1.6-0.9,3.3-1.1,5c-2,15.2-4.5,30.3-6.6,45.4
			c-0.9,6.3-2.7,12.4-2.7,18.8c122.3-9.6,244.7-19.9,367-29.7c60.3-4.8,120.6-10,180.9-14.6v10.9c-24.1,1.2-48.1,3.6-72.1,5.3
			c-151.9,12-303.9,23.9-455.8,35.8c-7.2,0.9-14.5,0.5-21.5,1.9c-3.3,24.4-7.5,48.7-10.5,73.1c36-1.4,72-3.8,107.9-5.7
			c101.7-5.6,203.4-11.2,305.1-16.8c49-2.8,98-5.2,146.9-8.2v11.8c-105.3,5.7-210.7,11-316,16.5c-298,15.5-596,31-893.9,46.4
			c-23.3,1.4-46.7,2.1-70,3.9v-8.2c184.6-10.2,369.3-20.3,554-30.5c4.9-0.5,10.1,0.2,14.8-1.2c0.8-1.6,1.2-3.4,1.7-5.2
			c5.1-21.5,11-42.9,14.6-64.8c-15.8,0.7-31.5,2.4-47.2,3.5c-154.6,12.1-309.2,24.2-463.9,36.4c-24.7,2.1-49.4,3.6-74.1,6v-7.4
			c192-15.5,384-31.2,576-46.7c3.8-0.4,7.7-0.2,11.4-1.3c3.4-8.8,5-18.2,7.3-27.4c2.8-13.1,6.9-25.9,8.3-39.2c-1.3,0-2.6,0-3.9,0.1
			c-102.9,10.5-205.8,20.9-308.7,31.4c-6.6,1-13.3,0.8-19.8,2.3c-2.6,4.8-3.8,10.1-6.2,15c-2.7,5.3-4.1,11.3-7.4,16.3
			c-3.2,1.4-6.9,1.1-10.3,1.5c-52.9,4.7-105.8,9.5-158.6,14.2c-9.7,0.7-19.3,2.1-29,2.4c3.7-10.4,10.7-19.3,14.8-29.6
			c-24.6,2.1-49.2,5-73.8,7.4V573c24.6-2.5,49.2-5.2,73.8-7.6c1.9-0.3,4.2-0.4,5.3-2.3c3.1-4.4,5.3-9.4,8-14
			c6.7-12.8,14.1-25.2,20.7-38.1c-5.6,0.1-11,1.2-16.5,1.8C60.8,516.5,30.4,520.1,0,524v-6.1c32-4.2,64.1-7.9,96.1-12
			c5.1-0.8,10.5-0.7,15.4-2.4c6.5-9.5,10.9-20.4,16.9-30.2c3.3-6.1,7.1-12,9.8-18.4c-4.9,0.2-9.7,1.1-14.6,1.8
			C82.4,462.5,41.2,468.4,0,474.2v-5.7c46.1-6.4,92.1-13.3,138.1-19.7c1.6-0.4,3.8-0.3,4.8-2c4.8-7.4,8.2-15.7,12.6-23.3
			c3-2.2,7.2-1.8,10.8-2.5c43.3-6.6,86.7-13.3,130-19.9c14.1-1.9,28.1-4.7,42.2-6.2c-2.5,9.1-7.5,17.3-10.4,26.3
			c4.1-0.2,8.2-1,12.3-1.5C546.5,389.9,752.5,360.4,958.5,330.7z M178.6,424.7c-6.3,1.2-12.7,1.4-18.9,3.1
			C132,479.3,103.9,530.6,76,582.1c-2.1,3.9-4.5,7.7-6.1,11.9c59.7-5.4,119.4-11.1,179.1-16.5c4.3,0.2,5-4.9,6.6-7.8
			c19.4-44.5,39-89,58.5-133.6c4.8-11.3,10.2-22.4,14.6-33.9C278.7,409.5,228.7,417.3,178.6,424.7z M690,439.5
			c-20.2,2.7-40.5,4.7-60.7,7.6c-0.4,1-0.8,2-1,3c-16.1,71.6-32.8,143-48.9,214.6c43-2.5,86.1-4.7,129.2-7.2c0.7-1.7,1-3.5,1.3-5.3
			c3-22,7-43.8,9.7-65.8c5.8-36.8,11.9-73.5,17.4-110.4c2.1-14.2,4.7-28.4,6.4-42.7C725.5,434.8,707.8,437.5,690,439.5z
			 M338.9,482.4c-13.1,1.9-26.4,2.9-39.5,5.1c-1.1,1.4-1.7,3-2.4,4.6c-5.9,14-12,27.9-18.2,41.8c-1.7,3.5-3.5,6.9-4.7,10.7
			c109.3-11.6,218.6-22.8,327.9-34.2c1.1-0.2,2.2-0.4,3.3-0.8c5.5-20.3,10.8-40.6,14.4-61.4C526.1,459.4,432.5,471.1,338.9,482.4z"
			/>
	</g>
</g>
</svg>
