<svg id="Capa_1" data-name="Capa 1" xmlns="http://www.w3.org/2000/svg" viewBox="0 0 500 500"><rect width="500" height="500" style="fill:none"/><line x1="238.441" y1="96.932" x2="289.438" y2="141.234" style="fill:none;stroke:#000;stroke-linecap:square;stroke-miterlimit:10;stroke-width:2px"/><polyline points="289.438 144.983 289.732 144.689 289.96 144.331 290.155 143.972 290.253 143.548 290.286 143.125 290.253 142.701 290.155 142.277 289.96 141.918 289.732 141.56 289.438 141.266" style="fill:none;stroke:#000;stroke-linecap:square;stroke-miterlimit:10;stroke-width:2px"/><line x1="289.438" y1="145.015" x2="237.724" y2="189.904" style="fill:none;stroke:#000;stroke-linecap:square;stroke-miterlimit:10;stroke-width:2px"/><polyline points="237.724 189.937 237.495 190.165 237.267 190.458 237.104 190.752 236.974 191.11 236.908 191.436 236.876 191.795" style="fill:none;stroke:#000;stroke-linecap:square;stroke-miterlimit:10;stroke-width:2px"/><line x1="236.843" y1="191.795" x2="236.843" y2="252.657" style="fill:none;stroke:#000;stroke-linecap:square;stroke-miterlimit:10;stroke-width:2px"/><polyline points="236.876 252.657 236.908 253.113 236.974 253.57 237.104 253.993 237.267 254.417 237.463 254.841 237.724 255.199 238.017 255.558 238.343 255.884" style="fill:none;stroke:#000;stroke-linecap:square;stroke-miterlimit:10;stroke-width:2px"/><line x1="238.343" y1="255.884" x2="328.697" y2="334.382" style="fill:none;stroke:#000;stroke-linecap:square;stroke-miterlimit:10;stroke-width:2px"/><polyline points="328.697 338.131 328.99 337.838 329.219 337.479 329.414 337.12 329.512 336.697 329.545 336.273 329.512 335.849 329.414 335.425 329.219 335.067 328.99 334.708 328.697 334.415" style="fill:none;stroke:#000;stroke-linecap:square;stroke-miterlimit:10;stroke-width:2px"/><line x1="328.697" y1="338.131" x2="239.941" y2="415.227" style="fill:none;stroke:#000;stroke-linecap:square;stroke-miterlimit:10;stroke-width:2px"/><polyline points="236.974 416.01 237.365 416.075 237.756 416.075 238.147 416.042 238.539 415.945 238.93 415.814 239.289 415.651 239.615 415.456 239.941 415.227" style="fill:none;stroke:#000;stroke-linecap:square;stroke-miterlimit:10;stroke-width:2px"/><line x1="236.974" y1="416.042" x2="176.162" y2="404.731" style="fill:none;stroke:#000;stroke-linecap:square;stroke-miterlimit:10;stroke-width:2px"/><polyline points="174.336 402.155 174.368 402.579 174.466 402.97 174.629 403.361 174.825 403.72 175.118 404.046 175.412 404.307 175.77 404.535 176.162 404.698" style="fill:none;stroke:#000;stroke-linecap:square;stroke-miterlimit:10;stroke-width:2px"/><line x1="174.336" y1="402.155" x2="174.336" y2="395.929" style="fill:none;stroke:#000;stroke-linecap:square;stroke-miterlimit:10;stroke-width:2px"/><polyline points="177.955 393.354 177.531 393.321 177.14 393.321 176.749 393.386 176.325 393.517 175.966 393.68 175.607 393.908 175.314 394.169 175.02 394.462 174.792 394.788 174.596 395.146 174.433 395.538 174.336 395.929" style="fill:none;stroke:#000;stroke-linecap:square;stroke-miterlimit:10;stroke-width:2px"/><line x1="177.955" y1="393.354" x2="233.941" y2="401.96" style="fill:none;stroke:#000;stroke-linecap:square;stroke-miterlimit:10;stroke-width:2px"/><polyline points="233.974 401.96 234.332 401.992 234.724 401.992 235.115 401.927 235.474 401.862 235.832 401.731 236.191 401.568 236.517 401.373 236.81 401.145" style="fill:none;stroke:#000;stroke-linecap:square;stroke-miterlimit:10;stroke-width:2px"/><line x1="236.81" y1="401.145" x2="308.448" y2="338.946" style="fill:none;stroke:#000;stroke-linecap:square;stroke-miterlimit:10;stroke-width:2px"/><polyline points="308.415 338.946 308.774 338.587 309.067 338.164 309.296 337.74 309.491 337.251 309.589 336.762 309.622 336.273 309.589 335.784 309.491 335.295 309.296 334.806 309.067 334.382 308.774 333.958 308.415 333.6" style="fill:none;stroke:#000;stroke-linecap:square;stroke-miterlimit:10;stroke-width:2px"/><line x1="308.448" y1="333.567" x2="242.745" y2="276.519" style="fill:none;stroke:#000;stroke-linecap:square;stroke-miterlimit:10;stroke-width:2px"/><polyline points="242.712 276.519 242.288 276.226 241.865 275.998 241.408 275.802 240.886 275.704 240.397 275.672 239.908 275.704 239.419 275.802 238.93 275.998 238.506 276.226 238.082 276.519 237.724 276.878 237.43 277.302 237.202 277.725 237.006 278.214 236.908 278.703 236.876 279.192" style="fill:none;stroke:#000;stroke-linecap:square;stroke-miterlimit:10;stroke-width:2px"/><line x1="236.843" y1="279.192" x2="236.843" y2="333.535" style="fill:none;stroke:#000;stroke-linecap:square;stroke-miterlimit:10;stroke-width:2px"/><polyline points="233.322 337.055 233.778 337.023 234.235 336.925 234.658 336.794 235.082 336.599 235.474 336.338 235.8 336.012 236.126 335.686 236.387 335.295 236.582 334.871 236.713 334.447 236.81 333.991 236.843 333.535" style="fill:none;stroke:#000;stroke-linecap:square;stroke-miterlimit:10;stroke-width:2px"/><line x1="233.322" y1="337.088" x2="228.724" y2="337.088" style="fill:none;stroke:#000;stroke-linecap:square;stroke-miterlimit:10;stroke-width:2px"/><polyline points="225.202 333.535 225.235 333.991 225.333 334.447 225.463 334.871 225.659 335.295 225.92 335.686 226.246 336.012 226.572 336.338 226.963 336.599 227.387 336.794 227.811 336.925 228.268 337.023 228.724 337.055" style="fill:none;stroke:#000;stroke-linecap:square;stroke-miterlimit:10;stroke-width:2px"/><line x1="225.17" y1="333.535" x2="225.17" y2="239.259" style="fill:none;stroke:#000;stroke-linecap:square;stroke-miterlimit:10;stroke-width:2px"/><polyline points="225.17 239.259 225.137 238.9 225.039 238.574 224.876 238.248 224.648 237.987 224.387 237.759 224.061 237.596 223.735 237.498 223.376 237.466" style="fill:none;stroke:#000;stroke-linecap:square;stroke-miterlimit:10;stroke-width:2px"/><line x1="223.376" y1="237.433" x2="212.355" y2="237.433" style="fill:none;stroke:#000;stroke-linecap:square;stroke-miterlimit:10;stroke-width:2px"/><polyline points="212.355 237.466 211.997 237.498 211.671 237.596 211.344 237.759 211.084 237.987 210.855 238.248 210.692 238.574 210.595 238.9 210.562 239.259" style="fill:none;stroke:#000;stroke-linecap:square;stroke-miterlimit:10;stroke-width:2px"/><line x1="210.562" y1="239.259" x2="210.562" y2="279.518" style="fill:none;stroke:#000;stroke-linecap:square;stroke-miterlimit:10;stroke-width:2px"/><polyline points="207.008 283.039 207.464 283.006 207.921 282.909 208.345 282.778 208.769 282.583 209.16 282.322 209.486 281.996 209.812 281.67 210.073 281.279 210.268 280.855 210.399 280.431 210.497 279.975 210.529 279.518" style="fill:none;stroke:#000;stroke-linecap:square;stroke-miterlimit:10;stroke-width:2px"/><line x1="207.008" y1="283.072" x2="200.258" y2="283.072" style="fill:none;stroke:#000;stroke-linecap:square;stroke-miterlimit:10;stroke-width:2px"/><polyline points="197.552 280.366 197.584 280.79 197.682 281.213 197.845 281.605 198.073 281.963 198.334 282.289 198.66 282.55 199.019 282.778 199.41 282.941 199.834 283.039 200.258 283.072" style="fill:none;stroke:#000;stroke-linecap:square;stroke-miterlimit:10;stroke-width:2px"/><line x1="197.552" y1="280.366" x2="197.552" y2="228.077" style="fill:none;stroke:#000;stroke-linecap:square;stroke-miterlimit:10;stroke-width:2px"/><polyline points="199.345 226.284 198.986 226.317 198.66 226.415 198.334 226.578 198.073 226.806 197.845 227.067 197.682 227.393 197.584 227.719 197.552 228.077" style="fill:none;stroke:#000;stroke-linecap:square;stroke-miterlimit:10;stroke-width:2px"/><line x1="199.345" y1="226.252" x2="223.376" y2="226.252" style="fill:none;stroke:#000;stroke-linecap:square;stroke-miterlimit:10;stroke-width:2px"/><polyline points="223.376 226.252 223.735 226.219 224.061 226.121 224.387 225.958 224.648 225.73 224.876 225.469 225.039 225.143 225.137 224.817 225.17 224.459" style="fill:none;stroke:#000;stroke-linecap:square;stroke-miterlimit:10;stroke-width:2px"/><line x1="225.17" y1="224.459" x2="225.17" y2="185.634" style="fill:none;stroke:#000;stroke-linecap:square;stroke-miterlimit:10;stroke-width:2px"/><polyline points="226.409 182.96 226.148 183.221 225.887 183.515 225.692 183.841 225.529 184.167 225.398 184.525 225.268 184.884 225.235 185.242 225.202 185.634" style="fill:none;stroke:#000;stroke-linecap:square;stroke-miterlimit:10;stroke-width:2px"/><line x1="226.409" y1="182.96" x2="269.157" y2="145.798" style="fill:none;stroke:#000;stroke-linecap:square;stroke-miterlimit:10;stroke-width:2px"/><polyline points="269.157 145.798 269.515 145.439 269.809 145.015 270.037 144.592 270.233 144.103 270.33 143.614 270.363 143.125 270.33 142.636 270.233 142.147 270.037 141.658 269.809 141.234 269.515 140.81 269.157 140.451" style="fill:none;stroke:#000;stroke-linecap:square;stroke-miterlimit:10;stroke-width:2px"/><line x1="269.157" y1="140.451" x2="231.333" y2="107.592" style="fill:none;stroke:#000;stroke-linecap:square;stroke-miterlimit:10;stroke-width:2px"/><polyline points="231.333 107.592 231.072 107.396 230.778 107.233 230.485 107.07 230.191 106.94 229.865 106.842 229.539 106.777" style="fill:none;stroke:#000;stroke-linecap:square;stroke-miterlimit:10;stroke-width:2px"/><line x1="229.539" y1="106.744" x2="185.52" y2="100.127" style="fill:none;stroke:#000;stroke-linecap:square;stroke-miterlimit:10;stroke-width:2px"/><polyline points="185.52 100.159 185.226 100.127 184.9 100.159 184.607 100.257 184.346 100.387 184.085 100.55 183.889 100.779 183.694 101.039 183.563 101.3 183.498 101.626 183.466 101.92" style="fill:none;stroke:#000;stroke-linecap:square;stroke-miterlimit:10;stroke-width:2px"/><line x1="183.433" y1="101.92" x2="183.433" y2="139.05" style="fill:none;stroke:#000;stroke-linecap:square;stroke-miterlimit:10;stroke-width:2px"/><polyline points="181.64 140.843 181.998 140.81 182.324 140.712 182.65 140.549 182.911 140.321 183.139 140.06 183.303 139.734 183.4 139.408 183.433 139.05" style="fill:none;stroke:#000;stroke-linecap:square;stroke-miterlimit:10;stroke-width:2px"/><line x1="181.64" y1="140.875" x2="173.162" y2="140.875" style="fill:none;stroke:#000;stroke-linecap:square;stroke-miterlimit:10;stroke-width:2px"/><polyline points="170.455 138.137 170.488 138.561 170.586 138.984 170.749 139.376 170.977 139.734 171.238 140.06 171.564 140.321 171.923 140.549 172.314 140.712 172.738 140.81 173.162 140.843" style="fill:none;stroke:#000;stroke-linecap:square;stroke-miterlimit:10;stroke-width:2px"/><line x1="170.455" y1="138.137" x2="170.455" y2="86.631" style="fill:none;stroke:#000;stroke-linecap:square;stroke-miterlimit:10;stroke-width:2px"/><polyline points="174.042 84.088 173.651 83.958 173.194 83.925 172.77 83.958 172.347 84.055 171.955 84.218 171.597 84.414 171.271 84.707 170.977 85.033 170.749 85.392 170.586 85.783 170.488 86.207 170.455 86.631" style="fill:none;stroke:#000;stroke-linecap:square;stroke-miterlimit:10;stroke-width:2px"/><line x1="174.042" y1="84.055" x2="236.778" y2="96.15" style="fill:none;stroke:#000;stroke-linecap:square;stroke-miterlimit:10;stroke-width:2px"/><polyline points="238.408 96.965 238.05 96.704 237.626 96.476 237.202 96.313 236.745 96.182" style="fill:none;stroke:#000;stroke-linecap:square;stroke-miterlimit:10;stroke-width:2px"/></svg>