<svg id="Capa_1" data-name="Capa 1" xmlns="http://www.w3.org/2000/svg" viewBox="0 0 500 500"><rect width="500" height="500" style="fill:none"/><polyline points="107.133 399.987 107.165 400.411 107.263 400.802 107.426 401.194 107.622 401.552 107.883 401.846 108.209 402.139 108.567 402.335 108.926 402.498" style="fill:none;stroke:#000;stroke-linecap:square;stroke-miterlimit:10;stroke-width:2px"/><line x1="108.926" y1="402.53" x2="175.444" y2="414.918" style="fill:none;stroke:#000;stroke-linecap:square;stroke-miterlimit:10;stroke-width:2px"/><polyline points="175.444 414.885 175.836 414.95 176.227 414.95 176.651 414.918 177.009 414.82" style="fill:none;stroke:#000;stroke-linecap:square;stroke-miterlimit:10;stroke-width:2px"/><line x1="177.042" y1="414.853" x2="373.303" y2="360.934" style="fill:none;stroke:#000;stroke-linecap:square;stroke-miterlimit:10;stroke-width:2px"/><polyline points="373.303 360.934 374.738 360.51 376.107 360.021 377.477 359.467 378.846 358.848 380.151 358.163 381.422 357.446 382.661 356.631 383.868 355.783 385.042 354.871 386.183 353.893 387.259 352.882 388.27 351.806 389.248 350.698 390.161 349.557 391.041 348.351 391.856 347.112 392.606 345.841 393.291 344.537 393.943 343.2 394.498 341.831 395.019 340.429 395.443 339.028 395.835 337.593 396.128 336.159 396.389 334.692 396.552 333.225 396.65 331.725 396.682 330.258" style="fill:none;stroke:#000;stroke-linecap:square;stroke-miterlimit:10;stroke-width:2px"/><line x1="396.715" y1="330.258" x2="396.715" y2="296.225" style="fill:none;stroke:#000;stroke-linecap:square;stroke-miterlimit:10;stroke-width:2px"/><polyline points="396.682 296.225 396.65 294.823 396.552 293.389 396.389 291.987 396.193 290.586 395.9 289.216 395.541 287.815 395.15 286.478 394.693 285.142 394.172 283.805 393.585 282.534 392.932 281.262 392.248 280.024 391.498 278.817 390.715 277.676 389.867 276.535 388.954 275.427 388.009 274.384 387.031 273.373 385.987 272.428 384.911 271.515" style="fill:none;stroke:#000;stroke-linecap:square;stroke-miterlimit:10;stroke-width:2px"/><line x1="384.911" y1="271.483" x2="170.651" y2="97.926" style="fill:none;stroke:#000;stroke-linecap:square;stroke-miterlimit:10;stroke-width:2px"/><polyline points="170.651 97.926 170.325 97.665 169.934 97.47 169.542 97.307 169.118 97.209" style="fill:none;stroke:#000;stroke-linecap:square;stroke-miterlimit:10;stroke-width:2px"/><line x1="169.118" y1="97.209" x2="106.839" y2="85.18" style="fill:none;stroke:#000;stroke-linecap:square;stroke-miterlimit:10;stroke-width:2px"/><polyline points="106.839 85.213 106.415 85.082 105.991 85.05 105.568 85.082 105.176 85.18 104.785 85.31 104.426 85.539 104.1 85.832 103.807 86.125 103.579 86.484 103.416 86.875 103.318 87.299 103.285 87.723" style="fill:none;stroke:#000;stroke-linecap:square;stroke-miterlimit:10;stroke-width:2px"/><line x1="103.285" y1="87.723" x2="103.285" y2="138.707" style="fill:none;stroke:#000;stroke-linecap:square;stroke-miterlimit:10;stroke-width:2px"/><polyline points="103.285 138.707 103.318 139.131 103.416 139.522 103.579 139.914 103.807 140.272 104.068 140.598 104.394 140.859 104.752 141.087 105.144 141.25 105.535 141.348 105.959 141.381" style="fill:none;stroke:#000;stroke-linecap:square;stroke-miterlimit:10;stroke-width:2px"/><line x1="105.959" y1="141.413" x2="114.339" y2="141.413" style="fill:none;stroke:#000;stroke-linecap:square;stroke-miterlimit:10;stroke-width:2px"/><polyline points="114.339 141.381 114.698 141.348 115.024 141.25 115.317 141.087 115.578 140.859 115.806 140.598 115.969 140.305 116.067 139.979 116.1 139.62" style="fill:none;stroke:#000;stroke-linecap:square;stroke-miterlimit:10;stroke-width:2px"/><line x1="116.132" y1="139.62" x2="116.132" y2="102.849" style="fill:none;stroke:#000;stroke-linecap:square;stroke-miterlimit:10;stroke-width:2px"/><polyline points="118.186 101.121 117.893 101.088 117.6 101.121 117.306 101.219 117.013 101.349 116.784 101.512 116.556 101.74 116.393 101.968 116.263 102.262 116.197 102.555 116.165 102.849" style="fill:none;stroke:#000;stroke-linecap:square;stroke-miterlimit:10;stroke-width:2px"/><line x1="118.186" y1="101.088" x2="162.043" y2="107.706" style="fill:none;stroke:#000;stroke-linecap:square;stroke-miterlimit:10;stroke-width:2px"/><polyline points="163.706 108.456 163.347 108.195 162.923 107.967 162.499 107.804 162.043 107.706" style="fill:none;stroke:#000;stroke-linecap:square;stroke-miterlimit:10;stroke-width:2px"/><line x1="163.706" y1="108.456" x2="377.02" y2="281.23" style="fill:none;stroke:#000;stroke-linecap:square;stroke-miterlimit:10;stroke-width:2px"/><polyline points="384.161 296.225 384.129 295.149 384.031 294.074 383.9 293.031 383.672 291.987 383.411 290.944 383.085 289.901 382.727 288.923 382.27 287.945 381.781 286.967 381.259 286.054 380.672 285.174 380.02 284.294 379.335 283.479 378.618 282.697 377.836 281.947 377.02 281.262" style="fill:none;stroke:#000;stroke-linecap:square;stroke-miterlimit:10;stroke-width:2px"/><line x1="384.161" y1="296.225" x2="384.161" y2="330.258" style="fill:none;stroke:#000;stroke-linecap:square;stroke-miterlimit:10;stroke-width:2px"/><polyline points="369.977 348.84 371.086 348.514 372.162 348.09 373.205 347.634 374.216 347.112 375.194 346.525 376.14 345.906 377.053 345.221 377.901 344.472 378.716 343.657 379.498 342.842 380.216 341.929 380.868 341.016 381.487 340.038 382.042 339.06 382.531 338.017 382.955 336.974 383.313 335.865 383.607 334.79 383.868 333.649 384.031 332.54 384.129 331.399 384.161 330.258" style="fill:none;stroke:#000;stroke-linecap:square;stroke-miterlimit:10;stroke-width:2px"/><line x1="369.977" y1="348.84" x2="174.433" y2="402.53" style="fill:none;stroke:#000;stroke-linecap:square;stroke-miterlimit:10;stroke-width:2px"/><polyline points="170.031 399.14 170.064 399.596 170.162 400.053 170.292 400.476 170.488 400.9 170.749 401.259 171.075 401.617 171.401 401.911 171.792 402.172 172.184 402.367 172.64 402.498 173.097 402.595 173.553 402.628 174.01 402.595 174.433 402.498" style="fill:none;stroke:#000;stroke-linecap:square;stroke-miterlimit:10;stroke-width:2px"/><line x1="169.999" y1="399.14" x2="170.031" y2="229.43" style="fill:none;stroke:#000;stroke-linecap:square;stroke-miterlimit:10;stroke-width:2px"/><polyline points="170.031 229.43 169.999 228.974 169.901 228.517 169.771 228.094 169.575 227.702 169.314 227.311 169.021 226.953 168.662 226.659 168.303 226.398 167.879 226.203 167.456 226.072 166.999 225.975 166.543 225.942" style="fill:none;stroke:#000;stroke-linecap:square;stroke-miterlimit:10;stroke-width:2px"/><line x1="166.543" y1="225.942" x2="131.881" y2="225.942" style="fill:none;stroke:#000;stroke-linecap:square;stroke-miterlimit:10;stroke-width:2px"/><polyline points="131.881 225.975 131.523 226.007 131.197 226.105 130.903 226.268 130.642 226.496 130.414 226.757 130.251 227.05 130.153 227.376 130.121 227.735" style="fill:none;stroke:#000;stroke-linecap:square;stroke-miterlimit:10;stroke-width:2px"/><line x1="130.088" y1="227.735" x2="130.088" y2="279.469" style="fill:none;stroke:#000;stroke-linecap:square;stroke-miterlimit:10;stroke-width:2px"/><polyline points="130.121 279.469 130.153 279.893 130.251 280.284 130.414 280.676 130.642 281.034 130.903 281.36 131.229 281.621 131.588 281.849 131.979 282.012 132.37 282.11 132.794 282.142" style="fill:none;stroke:#000;stroke-linecap:square;stroke-miterlimit:10;stroke-width:2px"/><line x1="132.794" y1="282.142" x2="139.446" y2="282.142" style="fill:none;stroke:#000;stroke-linecap:square;stroke-miterlimit:10;stroke-width:2px"/><polyline points="139.446 282.11 139.903 282.077 140.359 281.979 140.783 281.849 141.207 281.653 141.566 281.393 141.924 281.099 142.218 280.741 142.479 280.35 142.674 279.958 142.805 279.535 142.903 279.078 142.935 278.622" style="fill:none;stroke:#000;stroke-linecap:square;stroke-miterlimit:10;stroke-width:2px"/><line x1="142.968" y1="278.622" x2="142.968" y2="238.786" style="fill:none;stroke:#000;stroke-linecap:square;stroke-miterlimit:10;stroke-width:2px"/><polyline points="144.761 237.026 144.402 237.058 144.076 237.156 143.783 237.319 143.522 237.547 143.294 237.808 143.131 238.101 143.033 238.427 143 238.786" style="fill:none;stroke:#000;stroke-linecap:square;stroke-miterlimit:10;stroke-width:2px"/><line x1="144.761" y1="236.993" x2="155.684" y2="236.993" style="fill:none;stroke:#000;stroke-linecap:square;stroke-miterlimit:10;stroke-width:2px"/><polyline points="157.445 238.786 157.413 238.427 157.315 238.101 157.152 237.808 156.924 237.547 156.663 237.319 156.369 237.156 156.043 237.058 155.684 237.026" style="fill:none;stroke:#000;stroke-linecap:square;stroke-miterlimit:10;stroke-width:2px"/><line x1="157.478" y1="238.786" x2="157.445" y2="394.38" style="fill:none;stroke:#000;stroke-linecap:square;stroke-miterlimit:10;stroke-width:2px"/><polyline points="153.402 397.836 153.891 397.869 154.38 397.836 154.869 397.738 155.358 397.575 155.782 397.314 156.206 397.021 156.565 396.662 156.858 396.271 157.087 395.847 157.282 395.358 157.38 394.869 157.413 394.38" style="fill:none;stroke:#000;stroke-linecap:square;stroke-miterlimit:10;stroke-width:2px"/><line x1="153.369" y1="397.836" x2="110.687" y2="391.284" style="fill:none;stroke:#000;stroke-linecap:square;stroke-miterlimit:10;stroke-width:2px"/><polyline points="110.687 391.284 110.263 391.251 109.872 391.251 109.48 391.316 109.089 391.447 108.698 391.61 108.372 391.838 108.046 392.066 107.785 392.359 107.524 392.718 107.361 393.076 107.198 393.435 107.1 393.826" style="fill:none;stroke:#000;stroke-linecap:square;stroke-miterlimit:10;stroke-width:2px"/><line x1="107.133" y1="393.826" x2="107.133" y2="399.987" style="fill:none;stroke:#000;stroke-linecap:square;stroke-miterlimit:10;stroke-width:2px"/></svg>