<svg id="Capa_1" data-name="Capa 1" xmlns="http://www.w3.org/2000/svg" viewBox="0 0 500 500"><rect width="500" height="500" style="fill:none"/><polyline points="42.017 101.757 41.723 101.724 41.43 101.757 41.136 101.854 40.843 101.985 40.615 102.148 40.386 102.376 40.223 102.604 40.093 102.898 40.028 103.191 39.995 103.484" style="fill:none;stroke:#000;stroke-linecap:square;stroke-miterlimit:10;stroke-width:2px"/><line x1="42.049" y1="101.691" x2="81.569" y2="107.657" style="fill:none;stroke:#000;stroke-linecap:square;stroke-miterlimit:10;stroke-width:2px"/><polyline points="81.96 107.787 81.764 107.722 81.569 107.69" style="fill:none;stroke:#000;stroke-linecap:square;stroke-miterlimit:10;stroke-width:2px"/><line x1="81.993" y1="107.755" x2="429.354" y2="202.748" style="fill:none;stroke:#000;stroke-linecap:square;stroke-miterlimit:10;stroke-width:2px"/><polyline points="460.331 243.334 460.298 241.606 460.201 239.911 460.005 238.215 459.777 236.52 459.451 234.825 459.092 233.163 458.635 231.5 458.114 229.87 457.527 228.24 456.875 226.676 456.19 225.111 455.407 223.579 454.56 222.079 453.679 220.612 452.701 219.21 451.69 217.809 450.647 216.472 449.505 215.168 448.332 213.929 447.125 212.723 445.854 211.582 444.517 210.474 443.18 209.431 441.778 208.453 440.343 207.54 438.843 206.66 437.343 205.845 435.811 205.095 434.213 204.41 432.615 203.791 431.017 203.27 429.354 202.781" style="fill:none;stroke:#000;stroke-linecap:square;stroke-miterlimit:10;stroke-width:2px"/><line x1="460.331" y1="243.334" x2="460.331" y2="269.087" style="fill:none;stroke:#000;stroke-linecap:square;stroke-miterlimit:10;stroke-width:2px"/><polyline points="429.354 309.64 431.017 309.151 432.615 308.629 434.213 308.01 435.811 307.325 437.343 306.575 438.843 305.76 440.343 304.88 441.778 303.967 443.18 302.989 444.517 301.946 445.854 300.838 447.125 299.697 448.332 298.491 449.505 297.252 450.647 295.948 451.69 294.612 452.701 293.21 453.679 291.808 454.56 290.341 455.407 288.842 456.19 287.309 456.875 285.745 457.527 284.18 458.114 282.55 458.635 280.92 459.092 279.257 459.451 277.595 459.777 275.9 460.005 274.205 460.201 272.51 460.298 270.814 460.331 269.087" style="fill:none;stroke:#000;stroke-linecap:square;stroke-miterlimit:10;stroke-width:2px"/><line x1="429.354" y1="309.672" x2="98.264" y2="400.199" style="fill:none;stroke:#000;stroke-linecap:square;stroke-miterlimit:10;stroke-width:2px"/><polyline points="93.829 396.809 93.862 397.265 93.96 397.722 94.09 398.146 94.286 398.569 94.546 398.928 94.84 399.287 95.199 399.58 95.59 399.841 95.981 400.036 96.438 400.167 96.862 400.265 97.318 400.297 97.775 400.265 98.231 400.167" style="fill:none;stroke:#000;stroke-linecap:square;stroke-miterlimit:10;stroke-width:2px"/><line x1="93.829" y1="396.809" x2="93.894" y2="230.033" style="fill:none;stroke:#000;stroke-linecap:square;stroke-miterlimit:10;stroke-width:2px"/><polyline points="93.862 230.033 93.829 229.577 93.731 229.12 93.601 228.697 93.405 228.305 93.144 227.914 92.851 227.556 92.492 227.262 92.134 227.002 91.71 226.806 91.286 226.676 90.829 226.578 90.373 226.545" style="fill:none;stroke:#000;stroke-linecap:square;stroke-miterlimit:10;stroke-width:2px"/><line x1="90.373" y1="226.545" x2="55.712" y2="226.545" style="fill:none;stroke:#000;stroke-linecap:square;stroke-miterlimit:10;stroke-width:2px"/><polyline points="55.712 226.578 55.353 226.61 55.027 226.708 54.733 226.871 54.473 227.099 54.244 227.36 54.081 227.653 53.983 227.979 53.951 228.338" style="fill:none;stroke:#000;stroke-linecap:square;stroke-miterlimit:10;stroke-width:2px"/><line x1="53.918" y1="228.338" x2="53.918" y2="280.072" style="fill:none;stroke:#000;stroke-linecap:square;stroke-miterlimit:10;stroke-width:2px"/><polyline points="53.951 280.072 53.983 280.496 54.081 280.887 54.244 281.279 54.473 281.637 54.733 281.963 55.059 282.224 55.418 282.452 55.809 282.615 56.201 282.713 56.625 282.746" style="fill:none;stroke:#000;stroke-linecap:square;stroke-miterlimit:10;stroke-width:2px"/><line x1="56.625" y1="282.746" x2="63.276" y2="282.746" style="fill:none;stroke:#000;stroke-linecap:square;stroke-miterlimit:10;stroke-width:2px"/><polyline points="63.276 282.713 63.733 282.68 64.189 282.583 64.613 282.452 65.037 282.257 65.396 281.996 65.755 281.702 66.048 281.344 66.309 280.953 66.504 280.561 66.635 280.138 66.733 279.681 66.765 279.225" style="fill:none;stroke:#000;stroke-linecap:square;stroke-miterlimit:10;stroke-width:2px"/><line x1="66.798" y1="279.225" x2="66.798" y2="239.389" style="fill:none;stroke:#000;stroke-linecap:square;stroke-miterlimit:10;stroke-width:2px"/><polyline points="68.591 237.629 68.233 237.661 67.907 237.759 67.613 237.922 67.352 238.15 67.124 238.411 66.961 238.705 66.863 239.03 66.831 239.389" style="fill:none;stroke:#000;stroke-linecap:square;stroke-miterlimit:10;stroke-width:2px"/><line x1="68.591" y1="237.596" x2="79.547" y2="237.596" style="fill:none;stroke:#000;stroke-linecap:square;stroke-miterlimit:10;stroke-width:2px"/><polyline points="81.308 239.356 81.275 239.03 81.178 238.705 81.015 238.411 80.786 238.15 80.525 237.922 80.199 237.759 79.873 237.661 79.547 237.629" style="fill:none;stroke:#000;stroke-linecap:square;stroke-miterlimit:10;stroke-width:2px"/><line x1="81.341" y1="239.356" x2="81.275" y2="394.984" style="fill:none;stroke:#000;stroke-linecap:square;stroke-miterlimit:10;stroke-width:2px"/><polyline points="77.232 398.439 77.721 398.472 78.21 398.439 78.699 398.341 79.189 398.178 79.612 397.917 80.036 397.624 80.395 397.265 80.688 396.874 80.917 396.45 81.112 395.961 81.21 395.472 81.243 394.984" style="fill:none;stroke:#000;stroke-linecap:square;stroke-miterlimit:10;stroke-width:2px"/><line x1="77.232" y1="398.439" x2="34.517" y2="391.887" style="fill:none;stroke:#000;stroke-linecap:square;stroke-miterlimit:10;stroke-width:2px"/><polyline points="34.55 391.887 34.126 391.854 33.734 391.854 33.343 391.919 32.952 392.05 32.561 392.213 32.235 392.441 31.909 392.669 31.648 392.962 31.387 393.321 31.224 393.68 31.061 394.038 30.963 394.429" style="fill:none;stroke:#000;stroke-linecap:square;stroke-miterlimit:10;stroke-width:2px"/><line x1="30.963" y1="394.429" x2="30.963" y2="400.591" style="fill:none;stroke:#000;stroke-linecap:square;stroke-miterlimit:10;stroke-width:2px"/><polyline points="30.963 400.591 30.996 401.014 31.093 401.406 31.256 401.797 31.452 402.155 31.713 402.449 32.039 402.742 32.398 402.938 32.756 403.101" style="fill:none;stroke:#000;stroke-linecap:square;stroke-miterlimit:10;stroke-width:2px"/><line x1="32.756" y1="403.133" x2="92.916" y2="414.315" style="fill:none;stroke:#000;stroke-linecap:square;stroke-miterlimit:10;stroke-width:2px"/><polyline points="92.883 414.282 93.275 414.347 93.666 414.347 94.057 414.315 94.449 414.217" style="fill:none;stroke:#000;stroke-linecap:square;stroke-miterlimit:10;stroke-width:2px"/><line x1="94.481" y1="414.249" x2="432.68" y2="321.766" style="fill:none;stroke:#000;stroke-linecap:square;stroke-miterlimit:10;stroke-width:2px"/><polyline points="432.648 321.766 434.572 321.212 436.43 320.56 438.289 319.876 440.115 319.126 441.908 318.311 443.669 317.398 445.397 316.453 447.093 315.442 448.756 314.367 450.386 313.226 451.951 312.052 453.484 310.781 454.983 309.477 456.418 308.14 457.82 306.738 459.157 305.271 460.429 303.772 461.668 302.207 462.842 300.61 463.95 298.98 464.994 297.317 465.972 295.59 466.918 293.862 467.765 292.069 468.581 290.276 469.298 288.45 469.983 286.56 470.57 284.701 471.091 282.778 471.58 280.855 471.972 278.932 472.265 276.976 472.526 275.02 472.722 273.031 472.819 271.075 472.852 269.087" style="fill:none;stroke:#000;stroke-linecap:square;stroke-miterlimit:10;stroke-width:2px"/><line x1="472.885" y1="269.087" x2="472.885" y2="243.334" style="fill:none;stroke:#000;stroke-linecap:square;stroke-miterlimit:10;stroke-width:2px"/><polyline points="472.852 243.334 472.819 241.345 472.722 239.389 472.526 237.401 472.265 235.445 471.972 233.489 471.58 231.565 471.091 229.642 470.57 227.719 469.983 225.861 469.298 223.97 468.581 222.144 467.765 220.351 466.918 218.558 465.972 216.831 464.994 215.103 463.95 213.44 462.842 211.81 461.668 210.213 460.429 208.648 459.157 207.149 457.82 205.682 456.418 204.28 454.983 202.944 453.484 201.64 451.951 200.368 450.386 199.195 448.756 198.054 447.093 196.978 445.397 195.967 443.669 195.022 441.908 194.109 440.115 193.294 438.289 192.544 436.43 191.86 434.572 191.208 432.648 190.654" style="fill:none;stroke:#000;stroke-linecap:square;stroke-miterlimit:10;stroke-width:2px"/><line x1="432.68" y1="190.621" x2="93.96" y2="98.008" style="fill:none;stroke:#000;stroke-linecap:square;stroke-miterlimit:10;stroke-width:2px"/><polyline points="93.927 98.04 93.796 98.008 93.666 97.975" style="fill:none;stroke:#000;stroke-linecap:square;stroke-miterlimit:10;stroke-width:2px"/><line x1="93.699" y1="97.943" x2="30.669" y2="85.783" style="fill:none;stroke:#000;stroke-linecap:square;stroke-miterlimit:10;stroke-width:2px"/><polyline points="30.669 85.816 30.246 85.685 29.822 85.653 29.398 85.685 29.007 85.783 28.615 85.914 28.257 86.142 27.93 86.435 27.637 86.729 27.409 87.087 27.246 87.478 27.148 87.902 27.115 88.326" style="fill:none;stroke:#000;stroke-linecap:square;stroke-miterlimit:10;stroke-width:2px"/><line x1="27.115" y1="88.326" x2="27.115" y2="139.31" style="fill:none;stroke:#000;stroke-linecap:square;stroke-miterlimit:10;stroke-width:2px"/><polyline points="27.115 139.31 27.148 139.734 27.246 140.125 27.409 140.517 27.637 140.875 27.898 141.201 28.224 141.462 28.583 141.69 28.974 141.853 29.365 141.951 29.789 141.984" style="fill:none;stroke:#000;stroke-linecap:square;stroke-miterlimit:10;stroke-width:2px"/><line x1="29.789" y1="142.016" x2="38.202" y2="142.016" style="fill:none;stroke:#000;stroke-linecap:square;stroke-miterlimit:10;stroke-width:2px"/><polyline points="38.202 141.984 38.56 141.951 38.886 141.853 39.18 141.69 39.441 141.462 39.669 141.201 39.832 140.908 39.93 140.582 39.962 140.223" style="fill:none;stroke:#000;stroke-linecap:square;stroke-miterlimit:10;stroke-width:2px"/><line x1="39.962" y1="140.223" x2="39.962" y2="103.484" style="fill:none;stroke:#000;stroke-linecap:square;stroke-miterlimit:10;stroke-width:2px"/></svg>