<svg id="Capa_1" data-name="Capa 1" xmlns="http://www.w3.org/2000/svg" viewBox="0 0 500 500"><rect width="500" height="500" style="fill:none"/><polyline points="193.574 139.62 193.606 140.044 193.704 140.435 193.867 140.826 194.095 141.185 194.356 141.511 194.682 141.772 195.041 142 195.432 142.163 195.824 142.261 196.247 142.293" style="fill:none;stroke:#000;stroke-linecap:square;stroke-miterlimit:10;stroke-width:2px"/><line x1="193.574" y1="139.62" x2="193.574" y2="88.636" style="fill:none;stroke:#000;stroke-linecap:square;stroke-miterlimit:10;stroke-width:2px"/><polyline points="197.128 86.125 196.704 85.995 196.28 85.962 195.856 85.995 195.465 86.093 195.074 86.223 194.715 86.451 194.389 86.745 194.095 87.038 193.867 87.397 193.704 87.788 193.606 88.212 193.574 88.636" style="fill:none;stroke:#000;stroke-linecap:square;stroke-miterlimit:10;stroke-width:2px"/><line x1="197.128" y1="86.093" x2="257.483" y2="97.731" style="fill:none;stroke:#000;stroke-linecap:square;stroke-miterlimit:10;stroke-width:2px"/><polyline points="260.32 101.088 260.287 100.632 260.157 100.176 259.994 99.719 259.766 99.295 259.505 98.937 259.179 98.578 258.788 98.285 258.396 98.057 257.94 97.894 257.483 97.763" style="fill:none;stroke:#000;stroke-linecap:square;stroke-miterlimit:10;stroke-width:2px"/><polyline points="260.353 101.088 260.516 105.065 260.711 109.042 261.037 113.02 261.396 116.964 261.82 120.941 262.342 124.886 262.961 128.83 263.613 132.742 264.363 136.654 265.179 140.566 266.059 144.445 267.005 148.292 268.048 152.138 269.157 155.985 270.33 159.766 271.602 163.548 272.906 167.329 274.308 171.046 275.776 174.762 277.276 178.413 278.906 182.064 280.569 185.682 282.297 189.268 284.091 192.822 285.982 196.342 287.906 199.83 289.927 203.253 291.981 206.676 294.101 210.034 296.318 213.359 298.568 216.651 300.883 219.879 303.263 223.073 305.676 226.203" style="fill:none;stroke:#000;stroke-linecap:square;stroke-miterlimit:10;stroke-width:2px"/><polyline points="306.394 228.42 306.361 228.028 306.296 227.637 306.198 227.279 306.068 226.92 305.872 226.561 305.644 226.268" style="fill:none;stroke:#000;stroke-linecap:square;stroke-miterlimit:10;stroke-width:2px"/><line x1="306.426" y1="228.42" x2="306.426" y2="281.882" style="fill:none;stroke:#000;stroke-linecap:square;stroke-miterlimit:10;stroke-width:2px"/><polyline points="305.644 284.033 305.872 283.74 306.068 283.381 306.198 283.023 306.296 282.664 306.361 282.273 306.394 281.882" style="fill:none;stroke:#000;stroke-linecap:square;stroke-miterlimit:10;stroke-width:2px"/><polyline points="305.676 284.066 303.198 287.261 300.818 290.488 298.47 293.748 296.188 297.073 293.97 300.43 291.818 303.821 289.732 307.276 287.71 310.764 285.786 314.285 283.895 317.838 282.069 321.424 280.341 325.043 278.645 328.694 277.047 332.41 275.515 336.126 274.048 339.875 272.646 343.624 271.341 347.438 270.07 351.252 268.896 355.131 267.787 358.978 266.776 362.89 265.831 366.802 264.95 370.714 264.135 374.658 263.418 378.603 262.766 382.58 262.179 386.557 261.69 390.566 261.266 394.576 260.907 398.586 260.646 402.595 260.451 406.605 260.32 410.647" style="fill:none;stroke:#000;stroke-linecap:square;stroke-miterlimit:10;stroke-width:2px"/><polyline points="256.146 413.972 256.668 414.038 257.157 414.005 257.646 413.94 258.135 413.777 258.592 413.549 259.016 413.255 259.375 412.897 259.668 412.505 259.929 412.082 260.124 411.625 260.255 411.104 260.287 410.615" style="fill:none;stroke:#000;stroke-linecap:square;stroke-miterlimit:10;stroke-width:2px"/><line x1="256.179" y1="414.005" x2="199.215" y2="403.443" style="fill:none;stroke:#000;stroke-linecap:square;stroke-miterlimit:10;stroke-width:2px"/><polyline points="197.421 400.9 197.454 401.324 197.552 401.715 197.715 402.106 197.91 402.465 198.171 402.758 198.497 403.052 198.856 403.247 199.215 403.41" style="fill:none;stroke:#000;stroke-linecap:square;stroke-miterlimit:10;stroke-width:2px"/><line x1="197.421" y1="400.9" x2="197.421" y2="394.739" style="fill:none;stroke:#000;stroke-linecap:square;stroke-miterlimit:10;stroke-width:2px"/><polyline points="201.008 392.164 200.584 392.131 200.193 392.131 199.802 392.196 199.41 392.327 199.019 392.49 198.693 392.718 198.367 392.946 198.106 393.239 197.845 393.598 197.682 393.957 197.519 394.315 197.421 394.706" style="fill:none;stroke:#000;stroke-linecap:square;stroke-miterlimit:10;stroke-width:2px"/><line x1="200.975" y1="392.196" x2="243.691" y2="398.749" style="fill:none;stroke:#000;stroke-linecap:square;stroke-miterlimit:10;stroke-width:2px"/><polyline points="243.691 398.716 244.18 398.749 244.669 398.716 245.158 398.618 245.647 398.455 246.071 398.195 246.495 397.901 246.853 397.543 247.147 397.151 247.375 396.728 247.571 396.239 247.669 395.75 247.701 395.261" style="fill:none;stroke:#000;stroke-linecap:square;stroke-miterlimit:10;stroke-width:2px"/><line x1="247.734" y1="395.261" x2="247.734" y2="239.666" style="fill:none;stroke:#000;stroke-linecap:square;stroke-miterlimit:10;stroke-width:2px"/><polyline points="247.701 239.666 247.669 239.308 247.571 238.982 247.408 238.688 247.18 238.427 246.919 238.199 246.625 238.036 246.299 237.938 245.94 237.906" style="fill:none;stroke:#000;stroke-linecap:square;stroke-miterlimit:10;stroke-width:2px"/><line x1="245.94" y1="237.873" x2="235.05" y2="237.873" style="fill:none;stroke:#000;stroke-linecap:square;stroke-miterlimit:10;stroke-width:2px"/><polyline points="235.05 237.906 234.691 237.938 234.365 238.036 234.072 238.199 233.811 238.427 233.582 238.688 233.419 238.982 233.322 239.308 233.289 239.666" style="fill:none;stroke:#000;stroke-linecap:square;stroke-miterlimit:10;stroke-width:2px"/><line x1="233.256" y1="239.666" x2="233.256" y2="279.535" style="fill:none;stroke:#000;stroke-linecap:square;stroke-miterlimit:10;stroke-width:2px"/><polyline points="229.735 283.023 230.191 282.99 230.648 282.892 231.072 282.762 231.496 282.566 231.854 282.305 232.213 282.012 232.506 281.654 232.767 281.262 232.963 280.871 233.093 280.447 233.191 279.991 233.224 279.535" style="fill:none;stroke:#000;stroke-linecap:square;stroke-miterlimit:10;stroke-width:2px"/><line x1="229.735" y1="283.055" x2="223.083" y2="283.055" style="fill:none;stroke:#000;stroke-linecap:square;stroke-miterlimit:10;stroke-width:2px"/><polyline points="220.409 280.35 220.442 280.773 220.54 281.165 220.703 281.556 220.931 281.914 221.192 282.24 221.518 282.501 221.877 282.729 222.268 282.892 222.659 282.99 223.083 283.023" style="fill:none;stroke:#000;stroke-linecap:square;stroke-miterlimit:10;stroke-width:2px"/><line x1="220.377" y1="280.35" x2="220.377" y2="228.615" style="fill:none;stroke:#000;stroke-linecap:square;stroke-miterlimit:10;stroke-width:2px"/><polyline points="222.17 226.855 221.811 226.887 221.485 226.985 221.192 227.148 220.931 227.376 220.703 227.637 220.54 227.931 220.442 228.257 220.409 228.615" style="fill:none;stroke:#000;stroke-linecap:square;stroke-miterlimit:10;stroke-width:2px"/><line x1="222.17" y1="226.822" x2="256.831" y2="226.822" style="fill:none;stroke:#000;stroke-linecap:square;stroke-miterlimit:10;stroke-width:2px"/><polyline points="260.32 230.343 260.287 229.886 260.19 229.43 260.059 229.006 259.864 228.615 259.603 228.224 259.309 227.865 258.951 227.572 258.592 227.311 258.168 227.116 257.744 226.985 257.288 226.887 256.831 226.855" style="fill:none;stroke:#000;stroke-linecap:square;stroke-miterlimit:10;stroke-width:2px"/><line x1="260.353" y1="230.343" x2="260.353" y2="322.435" style="fill:none;stroke:#000;stroke-linecap:square;stroke-miterlimit:10;stroke-width:2px"/><polyline points="260.353 322.435 260.385 322.924 260.483 323.38 260.646 323.804 260.842 324.228 261.135 324.619 261.461 324.977 261.82 325.271 262.211 325.532 262.668 325.727 263.124 325.858 263.581 325.923 264.07 325.923 264.526 325.858 264.983 325.727 265.439 325.532 265.831 325.303 266.189 325.01 266.515 324.651 266.809 324.26 267.037 323.869" style="fill:none;stroke:#000;stroke-linecap:square;stroke-miterlimit:10;stroke-width:2px"/><polyline points="293.155 279.73 290.971 282.664 288.819 285.631 286.732 288.662 284.678 291.694 282.688 294.791 280.732 297.888 278.841 301.05 277.015 304.212 275.221 307.439 273.461 310.667 271.798 313.926 270.167 317.219 268.57 320.511 267.07 323.869" style="fill:none;stroke:#000;stroke-linecap:square;stroke-miterlimit:10;stroke-width:2px"/><polyline points="293.123 279.698 293.351 279.372 293.514 279.046 293.644 278.687 293.775 278.328 293.807 277.97 293.84 277.579" style="fill:none;stroke:#000;stroke-linecap:square;stroke-miterlimit:10;stroke-width:2px"/><line x1="293.873" y1="277.579" x2="293.873" y2="232.69" style="fill:none;stroke:#000;stroke-linecap:square;stroke-miterlimit:10;stroke-width:2px"/><polyline points="293.84 232.69 293.807 232.299 293.775 231.94 293.644 231.582 293.514 231.223 293.351 230.897 293.123 230.571" style="fill:none;stroke:#000;stroke-linecap:square;stroke-miterlimit:10;stroke-width:2px"/><polyline points="248.256 110.77 248.582 114.812 248.973 118.855 249.429 122.864 249.951 126.874 250.571 130.884 251.255 134.893 252.005 138.87 252.821 142.847 253.701 146.792 254.679 150.736 255.723 154.648 256.831 158.56 258.005 162.439 259.277 166.286 260.581 170.133 261.983 173.947 263.418 177.728 264.95 181.477 266.548 185.226 268.211 188.91 269.939 192.593 271.732 196.212 273.591 199.83 275.515 203.384 277.504 206.904 279.558 210.425 281.678 213.88 283.862 217.303 286.112 220.661 288.395 224.019 290.775 227.311 293.188 230.571" style="fill:none;stroke:#000;stroke-linecap:square;stroke-miterlimit:10;stroke-width:2px"/><polyline points="248.223 110.77 248.158 110.281 248.027 109.825 247.832 109.401 247.603 109.01 247.31 108.619 246.951 108.325 246.56 108.032 246.169 107.804 245.712 107.641 245.256 107.543" style="fill:none;stroke:#000;stroke-linecap:square;stroke-miterlimit:10;stroke-width:2px"/><line x1="245.256" y1="107.543" x2="208.508" y2="102.001" style="fill:none;stroke:#000;stroke-linecap:square;stroke-miterlimit:10;stroke-width:2px"/><polyline points="208.508 102.034 208.214 102.001 207.921 102.034 207.627 102.131 207.334 102.262 207.106 102.425 206.877 102.653 206.714 102.881 206.584 103.175 206.519 103.468 206.486 103.761" style="fill:none;stroke:#000;stroke-linecap:square;stroke-miterlimit:10;stroke-width:2px"/><line x1="206.453" y1="103.761" x2="206.453" y2="140.5" style="fill:none;stroke:#000;stroke-linecap:square;stroke-miterlimit:10;stroke-width:2px"/><polyline points="204.66 142.261 205.019 142.228 205.345 142.13 205.638 141.967 205.899 141.739 206.127 141.478 206.29 141.185 206.388 140.859 206.421 140.5" style="fill:none;stroke:#000;stroke-linecap:square;stroke-miterlimit:10;stroke-width:2px"/><line x1="204.66" y1="142.293" x2="196.247" y2="142.293" style="fill:none;stroke:#000;stroke-linecap:square;stroke-miterlimit:10;stroke-width:2px"/></svg>