<svg id="Capa_1" data-name="Capa 1" xmlns="http://www.w3.org/2000/svg" viewBox="0 0 500 500"><rect width="500" height="500" style="fill:none"/><line x1="157.233" y1="176.946" x2="180.971" y2="176.946" style="fill:none;stroke:#000;stroke-linecap:square;stroke-miterlimit:10;stroke-width:2px"/><polyline points="180.971 176.946 181.33 176.913 181.656 176.816 181.949 176.653 182.21 176.424 182.438 176.164 182.601 175.838 182.699 175.512 182.732 175.153" style="fill:none;stroke:#000;stroke-linecap:square;stroke-miterlimit:10;stroke-width:2px"/><line x1="182.765" y1="175.153" x2="182.765" y2="140.696" style="fill:none;stroke:#000;stroke-linecap:square;stroke-miterlimit:10;stroke-width:2px"/><polyline points="188.014 137.664 187.623 137.469 187.199 137.338 186.743 137.24 186.286 137.208 185.83 137.24 185.373 137.338 184.949 137.469 184.525 137.664 184.167 137.925 183.808 138.218 183.514 138.577 183.254 138.936 183.058 139.359 182.928 139.783 182.83 140.24 182.797 140.696" style="fill:none;stroke:#000;stroke-linecap:square;stroke-miterlimit:10;stroke-width:2px"/><line x1="188.047" y1="137.664" x2="356.951" y2="235.2" style="fill:none;stroke:#000;stroke-linecap:square;stroke-miterlimit:10;stroke-width:2px"/><polyline points="356.951 235.2 357.309 235.363 357.701 235.493 358.125 235.559 358.516 235.559 358.94 235.493 359.331 235.363 359.69 235.2 360.016 234.972 360.342 234.679 360.57 234.353 360.798 233.994 360.929 233.635 361.027 233.244 361.059 232.82" style="fill:none;stroke:#000;stroke-linecap:square;stroke-miterlimit:10;stroke-width:2px"/><line x1="361.092" y1="232.82" x2="361.092" y2="156.93" style="fill:none;stroke:#000;stroke-linecap:square;stroke-miterlimit:10;stroke-width:2px"/><polyline points="361.059 156.93 361.027 156.572 360.961 156.213 360.864 155.887 360.701 155.561 360.505 155.268 360.244 155.007 359.983 154.746 359.69 154.55" style="fill:none;stroke:#000;stroke-linecap:square;stroke-miterlimit:10;stroke-width:2px"/><line x1="359.69" y1="154.55" x2="196.557" y2="60.34" style="fill:none;stroke:#000;stroke-linecap:square;stroke-miterlimit:10;stroke-width:2px"/><polyline points="196.525 60.372 196.264 60.242 195.938 60.112 195.644 60.014 195.318 59.949" style="fill:none;stroke:#000;stroke-linecap:square;stroke-miterlimit:10;stroke-width:2px"/><line x1="195.351" y1="59.916" x2="143.538" y2="52.092" style="fill:none;stroke:#000;stroke-linecap:square;stroke-miterlimit:10;stroke-width:2px"/><polyline points="143.538 52.125 143.245 52.092 142.951 52.125 142.658 52.223 142.365 52.353 142.136 52.516 141.908 52.744 141.745 53.005 141.615 53.266 141.549 53.592 141.517 53.885" style="fill:none;stroke:#000;stroke-linecap:square;stroke-miterlimit:10;stroke-width:2px"/><line x1="141.484" y1="53.885" x2="141.484" y2="90.624" style="fill:none;stroke:#000;stroke-linecap:square;stroke-miterlimit:10;stroke-width:2px"/><polyline points="139.691 92.417 140.049 92.384 140.376 92.287 140.669 92.124 140.93 91.895 141.158 91.635 141.321 91.309 141.419 90.983 141.452 90.624" style="fill:none;stroke:#000;stroke-linecap:square;stroke-miterlimit:10;stroke-width:2px"/><line x1="139.691" y1="92.417" x2="131.311" y2="92.417" style="fill:none;stroke:#000;stroke-linecap:square;stroke-miterlimit:10;stroke-width:2px"/><polyline points="128.637 89.744 128.67 90.168 128.767 90.559 128.93 90.95 129.159 91.309 129.42 91.635 129.746 91.895 130.104 92.124 130.496 92.287 130.887 92.384 131.311 92.417" style="fill:none;stroke:#000;stroke-linecap:square;stroke-miterlimit:10;stroke-width:2px"/><line x1="128.604" y1="89.744" x2="128.604" y2="38.759" style="fill:none;stroke:#000;stroke-linecap:square;stroke-miterlimit:10;stroke-width:2px"/><polyline points="132.191 36.249 131.767 36.119 131.343 36.086 130.919 36.119 130.528 36.217 130.137 36.347 129.778 36.575 129.452 36.869 129.159 37.162 128.93 37.521 128.767 37.912 128.67 38.335 128.637 38.759" style="fill:none;stroke:#000;stroke-linecap:square;stroke-miterlimit:10;stroke-width:2px"/><line x1="132.191" y1="36.217" x2="196.492" y2="48.604" style="fill:none;stroke:#000;stroke-linecap:square;stroke-miterlimit:10;stroke-width:2px"/><polyline points="197.601 49.028 197.34 48.898 197.046 48.8 196.786 48.702 196.492 48.637" style="fill:none;stroke:#000;stroke-linecap:square;stroke-miterlimit:10;stroke-width:2px"/><line x1="197.601" y1="49.028" x2="370.026" y2="148.585" style="fill:none;stroke:#000;stroke-linecap:square;stroke-miterlimit:10;stroke-width:2px"/><polyline points="371.396 150.965 371.363 150.606 371.298 150.247 371.2 149.921 371.037 149.595 370.841 149.302 370.58 149.041 370.32 148.78 370.026 148.585" style="fill:none;stroke:#000;stroke-linecap:square;stroke-miterlimit:10;stroke-width:2px"/><line x1="371.396" y1="150.965" x2="371.396" y2="250.717" style="fill:none;stroke:#000;stroke-linecap:square;stroke-miterlimit:10;stroke-width:2px"/><polyline points="367.287 253.097 367.646 253.26 368.037 253.39 368.461 253.455 368.852 253.455 369.276 253.39 369.667 253.26 370.026 253.097 370.352 252.869 370.678 252.575 370.907 252.249 371.135 251.891 371.265 251.532 371.363 251.141 371.396 250.717" style="fill:none;stroke:#000;stroke-linecap:square;stroke-miterlimit:10;stroke-width:2px"/><line x1="367.287" y1="253.097" x2="200.601" y2="156.832" style="fill:none;stroke:#000;stroke-linecap:square;stroke-miterlimit:10;stroke-width:2px"/><polyline points="200.568 156.832 200.177 156.637 199.753 156.506 199.296 156.409 198.84 156.376 198.383 156.409 197.927 156.506 197.503 156.637 197.079 156.832 196.72 157.093 196.362 157.387 196.068 157.745 195.807 158.136 195.612 158.528 195.481 158.951 195.383 159.408 195.351 159.864" style="fill:none;stroke:#000;stroke-linecap:square;stroke-miterlimit:10;stroke-width:2px"/><line x1="195.318" y1="159.864" x2="195.351" y2="256.161" style="fill:none;stroke:#000;stroke-linecap:square;stroke-miterlimit:10;stroke-width:2px"/><polyline points="195.383 256.161 195.416 256.618 195.514 257.074 195.644 257.498 195.84 257.922 196.101 258.28 196.394 258.639 196.753 258.932 197.144 259.193" style="fill:none;stroke:#000;stroke-linecap:square;stroke-miterlimit:10;stroke-width:2px"/><line x1="197.112" y1="259.193" x2="370.026" y2="359.043" style="fill:none;stroke:#000;stroke-linecap:square;stroke-miterlimit:10;stroke-width:2px"/><polyline points="371.396 361.456 371.363 361.097 371.298 360.738 371.2 360.412 371.037 360.086 370.841 359.793 370.58 359.532 370.32 359.271 370.026 359.076" style="fill:none;stroke:#000;stroke-linecap:square;stroke-miterlimit:10;stroke-width:2px"/><line x1="371.396" y1="361.456" x2="371.396" y2="461.176" style="fill:none;stroke:#000;stroke-linecap:square;stroke-miterlimit:10;stroke-width:2px"/><polyline points="367.287 463.555 367.646 463.718 368.037 463.849 368.461 463.914 368.852 463.914 369.276 463.849 369.667 463.718 370.026 463.555 370.352 463.327 370.678 463.034 370.907 462.708 371.135 462.349 371.265 461.991 371.363 461.599 371.396 461.176" style="fill:none;stroke:#000;stroke-linecap:square;stroke-miterlimit:10;stroke-width:2px"/><line x1="367.287" y1="463.555" x2="197.503" y2="365.53" style="fill:none;stroke:#000;stroke-linecap:square;stroke-miterlimit:10;stroke-width:2px"/><polyline points="197.47 365.53 197.209 365.4 196.949 365.302 196.655 365.204 196.394 365.139" style="fill:none;stroke:#000;stroke-linecap:square;stroke-miterlimit:10;stroke-width:2px"/><line x1="196.394" y1="365.107" x2="134.278" y2="353.567" style="fill:none;stroke:#000;stroke-linecap:square;stroke-miterlimit:10;stroke-width:2px"/><polyline points="132.485 351.024 132.517 351.448 132.615 351.839 132.778 352.23 132.974 352.589 133.235 352.882 133.561 353.175 133.919 353.371 134.278 353.534" style="fill:none;stroke:#000;stroke-linecap:square;stroke-miterlimit:10;stroke-width:2px"/><line x1="132.485" y1="351.024" x2="132.485" y2="344.83" style="fill:none;stroke:#000;stroke-linecap:square;stroke-miterlimit:10;stroke-width:2px"/><polyline points="136.039 342.287 135.615 342.255 135.224 342.255 134.832 342.32 134.441 342.45 134.05 342.613 133.724 342.842 133.398 343.07 133.137 343.363 132.876 343.722 132.713 344.08 132.55 344.439 132.452 344.83" style="fill:none;stroke:#000;stroke-linecap:square;stroke-miterlimit:10;stroke-width:2px"/><line x1="136.039" y1="342.32" x2="192.514" y2="350.991" style="fill:none;stroke:#000;stroke-linecap:square;stroke-miterlimit:10;stroke-width:2px"/><polyline points="193.72 351.415 193.46 351.285 193.134 351.154 192.84 351.057 192.514 350.991" style="fill:none;stroke:#000;stroke-linecap:square;stroke-miterlimit:10;stroke-width:2px"/><line x1="193.753" y1="351.415" x2="356.951" y2="445.658" style="fill:none;stroke:#000;stroke-linecap:square;stroke-miterlimit:10;stroke-width:2px"/><polyline points="356.951 445.658 357.309 445.821 357.701 445.952 358.125 446.017 358.516 446.017 358.94 445.952 359.331 445.821 359.69 445.658 360.016 445.43 360.342 445.137 360.57 444.811 360.798 444.452 360.929 444.094 361.027 443.703 361.059 443.279" style="fill:none;stroke:#000;stroke-linecap:square;stroke-miterlimit:10;stroke-width:2px"/><line x1="361.092" y1="443.279" x2="361.092" y2="367.421" style="fill:none;stroke:#000;stroke-linecap:square;stroke-miterlimit:10;stroke-width:2px"/><polyline points="361.059 367.421 361.027 367.063 360.961 366.704 360.864 366.378 360.701 366.052 360.505 365.759 360.244 365.498 359.983 365.237 359.69 365.041" style="fill:none;stroke:#000;stroke-linecap:square;stroke-miterlimit:10;stroke-width:2px"/><line x1="359.69" y1="365.009" x2="184.558" y2="263.887" style="fill:none;stroke:#000;stroke-linecap:square;stroke-miterlimit:10;stroke-width:2px"/><polyline points="182.83 260.855 182.862 261.312 182.96 261.768 183.091 262.192 183.286 262.583 183.547 262.974 183.841 263.333 184.199 263.626 184.59 263.887" style="fill:none;stroke:#000;stroke-linecap:square;stroke-miterlimit:10;stroke-width:2px"/><line x1="182.797" y1="260.855" x2="182.83" y2="189.757" style="fill:none;stroke:#000;stroke-linecap:square;stroke-miterlimit:10;stroke-width:2px"/><polyline points="182.797 189.757 182.765 189.431 182.667 189.073 182.504 188.779 182.275 188.519 182.015 188.29 181.688 188.127 181.362 188.03 181.036 187.997" style="fill:none;stroke:#000;stroke-linecap:square;stroke-miterlimit:10;stroke-width:2px"/><line x1="181.036" y1="187.997" x2="170.113" y2="187.997" style="fill:none;stroke:#000;stroke-linecap:square;stroke-miterlimit:10;stroke-width:2px"/><polyline points="170.113 187.997 169.754 188.03 169.428 188.127 169.135 188.29 168.874 188.519 168.646 188.779 168.483 189.105 168.385 189.431 168.352 189.79" style="fill:none;stroke:#000;stroke-linecap:square;stroke-miterlimit:10;stroke-width:2px"/><line x1="168.32" y1="189.79" x2="168.32" y2="229.658" style="fill:none;stroke:#000;stroke-linecap:square;stroke-miterlimit:10;stroke-width:2px"/><polyline points="164.798 233.146 165.255 233.114 165.711 233.016 166.135 232.886 166.559 232.69 166.918 232.429 167.276 232.136 167.57 231.777 167.831 231.386 168.026 230.995 168.157 230.571 168.254 230.115 168.287 229.658" style="fill:none;stroke:#000;stroke-linecap:square;stroke-miterlimit:10;stroke-width:2px"/><line x1="164.798" y1="233.179" x2="158.114" y2="233.179" style="fill:none;stroke:#000;stroke-linecap:square;stroke-miterlimit:10;stroke-width:2px"/><polyline points="155.44 230.473 155.473 230.897 155.57 231.288 155.733 231.679 155.962 232.038 156.222 232.364 156.549 232.625 156.907 232.853 157.299 233.016 157.69 233.114 158.114 233.146" style="fill:none;stroke:#000;stroke-linecap:square;stroke-miterlimit:10;stroke-width:2px"/><line x1="155.44" y1="230.473" x2="155.44" y2="178.739" style="fill:none;stroke:#000;stroke-linecap:square;stroke-miterlimit:10;stroke-width:2px"/><polyline points="157.233 176.946 156.875 176.979 156.549 177.076 156.255 177.239 155.994 177.467 155.766 177.728 155.603 178.054 155.505 178.38 155.473 178.739" style="fill:none;stroke:#000;stroke-linecap:square;stroke-miterlimit:10;stroke-width:2px"/></svg>