<svg id="Capa_1" data-name="Capa 1" xmlns="http://www.w3.org/2000/svg" viewBox="0 0 500 500"><rect width="500" height="500" style="fill:none"/><line x1="132.697" y1="405.187" x2="188.911" y2="415.619" style="fill:none;stroke:#000;stroke-linecap:square;stroke-miterlimit:10;stroke-width:2px"/><polyline points="188.911 415.586 189.302 415.651 189.693 415.651 190.085 415.619 190.476 415.521 190.867 415.39 191.226 415.227 191.552 415.032 191.878 414.804" style="fill:none;stroke:#000;stroke-linecap:square;stroke-miterlimit:10;stroke-width:2px"/><polyline points="191.878 414.836 268.831 347.976 371.738 258.622" style="fill:none;stroke:#000;stroke-linecap:square;stroke-miterlimit:10;stroke-width:2px"/><polyline points="371.738 258.59 372.064 258.264 372.325 257.905 372.586 257.547 372.749 257.123 372.912 256.699 372.977 256.243 373.01 255.786 372.977 255.33 372.912 254.874 372.749 254.45 372.586 254.026 372.325 253.667 372.064 253.309 371.738 252.983" style="fill:none;stroke:#000;stroke-linecap:square;stroke-miterlimit:10;stroke-width:2px"/><polyline points="371.738 252.983 268.831 163.597 191.943 96.802" style="fill:none;stroke:#000;stroke-linecap:square;stroke-miterlimit:10;stroke-width:2px"/><polyline points="191.911 96.834 191.552 96.573 191.128 96.345 190.704 96.182 190.248 96.052" style="fill:none;stroke:#000;stroke-linecap:square;stroke-miterlimit:10;stroke-width:2px"/><line x1="190.28" y1="96.019" x2="130.577" y2="84.512" style="fill:none;stroke:#000;stroke-linecap:square;stroke-miterlimit:10;stroke-width:2px"/><polyline points="130.577 84.512 130.186 84.381 129.729 84.349 129.305 84.381 128.882 84.479 128.49 84.642 128.132 84.838 127.806 85.131 127.512 85.457 127.284 85.816 127.121 86.207 127.023 86.631 126.99 87.054" style="fill:none;stroke:#000;stroke-linecap:square;stroke-miterlimit:10;stroke-width:2px"/><line x1="126.99" y1="87.054" x2="126.99" y2="138.593" style="fill:none;stroke:#000;stroke-linecap:square;stroke-miterlimit:10;stroke-width:2px"/><polyline points="126.99 138.593 127.023 139.017 127.121 139.441 127.284 139.832 127.512 140.191 127.773 140.517 128.099 140.777 128.458 141.006 128.849 141.169 129.273 141.266 129.697 141.299" style="fill:none;stroke:#000;stroke-linecap:square;stroke-miterlimit:10;stroke-width:2px"/><line x1="129.697" y1="141.299" x2="138.175" y2="141.299" style="fill:none;stroke:#000;stroke-linecap:square;stroke-miterlimit:10;stroke-width:2px"/><polyline points="138.175 141.299 138.533 141.266 138.859 141.169 139.185 141.006 139.446 140.777 139.674 140.517 139.837 140.191 139.935 139.865 139.968 139.506" style="fill:none;stroke:#000;stroke-linecap:square;stroke-miterlimit:10;stroke-width:2px"/><line x1="140.001" y1="139.506" x2="140.001" y2="102.376" style="fill:none;stroke:#000;stroke-linecap:square;stroke-miterlimit:10;stroke-width:2px"/><polyline points="142.055 100.616 141.761 100.583 141.435 100.616 141.142 100.713 140.881 100.844 140.62 101.007 140.424 101.235 140.229 101.496 140.098 101.757 140.033 102.083 140.001 102.376" style="fill:none;stroke:#000;stroke-linecap:square;stroke-miterlimit:10;stroke-width:2px"/><line x1="142.055" y1="100.583" x2="179.52" y2="106.223" style="fill:none;stroke:#000;stroke-linecap:square;stroke-miterlimit:10;stroke-width:2px"/><polyline points="181.705 108.211 181.574 107.853 181.411 107.494 181.183 107.168 180.922 106.875 180.596 106.646 180.27 106.451 179.911 106.32 179.52 106.255" style="fill:none;stroke:#000;stroke-linecap:square;stroke-miterlimit:10;stroke-width:2px"/><line x1="181.705" y1="108.211" x2="181.705" y2="224.915" style="fill:none;stroke:#000;stroke-linecap:square;stroke-miterlimit:10;stroke-width:2px"/><polyline points="179.911 226.708 180.27 226.676 180.596 226.578 180.922 226.415 181.183 226.187 181.411 225.926 181.574 225.6 181.672 225.274 181.705 224.915" style="fill:none;stroke:#000;stroke-linecap:square;stroke-miterlimit:10;stroke-width:2px"/><line x1="179.911" y1="226.708" x2="155.913" y2="226.708" style="fill:none;stroke:#000;stroke-linecap:square;stroke-miterlimit:10;stroke-width:2px"/><polyline points="155.913 226.741 155.554 226.773 155.228 226.871 154.902 227.034 154.641 227.262 154.413 227.523 154.25 227.849 154.152 228.175 154.119 228.534" style="fill:none;stroke:#000;stroke-linecap:square;stroke-miterlimit:10;stroke-width:2px"/><line x1="154.087" y1="228.534" x2="154.087" y2="280.822" style="fill:none;stroke:#000;stroke-linecap:square;stroke-miterlimit:10;stroke-width:2px"/><polyline points="154.087 280.822 154.119 281.246 154.217 281.67 154.38 282.061 154.608 282.42 154.869 282.746 155.195 283.006 155.554 283.235 155.945 283.398 156.369 283.495 156.793 283.528" style="fill:none;stroke:#000;stroke-linecap:square;stroke-miterlimit:10;stroke-width:2px"/><line x1="156.793" y1="283.528" x2="162.695" y2="283.528" style="fill:none;stroke:#000;stroke-linecap:square;stroke-miterlimit:10;stroke-width:2px"/><polyline points="162.695 283.528 163.184 283.593 163.641 283.626 164.13 283.593 164.586 283.463 165.043 283.3 165.467 283.072 165.858 282.811 166.184 282.485 166.51 282.126 166.771 281.702 166.966 281.279 167.097 280.822" style="fill:none;stroke:#000;stroke-linecap:square;stroke-miterlimit:10;stroke-width:2px"/><line x1="167.097" y1="280.822" x2="167.097" y2="239.715" style="fill:none;stroke:#000;stroke-linecap:square;stroke-miterlimit:10;stroke-width:2px"/><polyline points="168.923 237.922 168.564 237.955 168.238 238.053 167.912 238.215 167.651 238.444 167.423 238.705 167.26 239.031 167.162 239.356 167.129 239.715" style="fill:none;stroke:#000;stroke-linecap:square;stroke-miterlimit:10;stroke-width:2px"/><line x1="168.923" y1="237.89" x2="179.977" y2="237.89" style="fill:none;stroke:#000;stroke-linecap:square;stroke-miterlimit:10;stroke-width:2px"/><polyline points="181.77 239.682 181.737 239.356 181.64 238.998 181.444 238.705 181.248 238.444 180.955 238.215 180.661 238.053 180.335 237.955 179.977 237.922" style="fill:none;stroke:#000;stroke-linecap:square;stroke-miterlimit:10;stroke-width:2px"/><line x1="181.77" y1="239.682" x2="181.77" y2="336.24" style="fill:none;stroke:#000;stroke-linecap:square;stroke-miterlimit:10;stroke-width:2px"/><polyline points="181.803 336.24 181.835 336.697 181.933 337.153 182.063 337.577 182.259 338.001 182.52 338.392 182.846 338.718 183.172 339.044 183.563 339.305 183.987 339.5 184.411 339.631 184.868 339.728 185.324 339.761" style="fill:none;stroke:#000;stroke-linecap:square;stroke-miterlimit:10;stroke-width:2px"/><line x1="185.324" y1="339.794" x2="190.835" y2="339.794" style="fill:none;stroke:#000;stroke-linecap:square;stroke-miterlimit:10;stroke-width:2px"/><polyline points="190.835 339.761 191.291 339.728 191.748 339.631 192.172 339.5 192.596 339.305 192.987 339.044 193.313 338.718 193.639 338.392 193.9 338.001 194.095 337.577 194.226 337.153 194.324 336.697 194.356 336.24" style="fill:none;stroke:#000;stroke-linecap:square;stroke-miterlimit:10;stroke-width:2px"/><line x1="194.389" y1="336.24" x2="194.389" y2="123.533" style="fill:none;stroke:#000;stroke-linecap:square;stroke-miterlimit:10;stroke-width:2px"/><polyline points="200.258 120.86 199.834 120.566 199.41 120.338 198.954 120.142 198.432 120.045 197.943 120.012 197.454 120.045 196.965 120.142 196.476 120.338 196.052 120.566 195.628 120.86 195.269 121.218 194.976 121.642 194.748 122.066 194.552 122.555 194.454 123.044 194.421 123.533" style="fill:none;stroke:#000;stroke-linecap:square;stroke-miterlimit:10;stroke-width:2px"/><polyline points="200.258 120.86 260.516 173.181 352.532 253.113" style="fill:none;stroke:#000;stroke-linecap:square;stroke-miterlimit:10;stroke-width:2px"/><polyline points="352.532 258.459 352.891 258.101 353.185 257.677 353.413 257.253 353.609 256.764 353.706 256.275 353.739 255.786 353.706 255.297 353.609 254.808 353.413 254.319 353.185 253.896 352.891 253.472 352.532 253.113" style="fill:none;stroke:#000;stroke-linecap:square;stroke-miterlimit:10;stroke-width:2px"/><polyline points="352.532 258.459 260.516 338.392 188.617 400.851" style="fill:none;stroke:#000;stroke-linecap:square;stroke-miterlimit:10;stroke-width:2px"/><polyline points="185.748 401.666 186.107 401.699 186.498 401.699 186.889 401.634 187.248 401.568 187.607 401.438 187.965 401.275 188.291 401.08 188.585 400.851" style="fill:none;stroke:#000;stroke-linecap:square;stroke-miterlimit:10;stroke-width:2px"/><line x1="185.748" y1="401.699" x2="134.49" y2="393.81" style="fill:none;stroke:#000;stroke-linecap:square;stroke-miterlimit:10;stroke-width:2px"/><polyline points="134.49 393.81 134.066 393.777 133.675 393.777 133.283 393.843 132.86 393.973 132.501 394.136 132.142 394.364 131.849 394.625 131.555 394.918 131.327 395.244 131.131 395.603 130.968 395.994 130.871 396.385" style="fill:none;stroke:#000;stroke-linecap:square;stroke-miterlimit:10;stroke-width:2px"/><line x1="130.871" y1="396.385" x2="130.871" y2="402.612" style="fill:none;stroke:#000;stroke-linecap:square;stroke-miterlimit:10;stroke-width:2px"/><polyline points="130.871 402.612 130.903 403.035 131.001 403.427 131.164 403.818 131.36 404.176 131.653 404.502 131.947 404.763 132.305 404.991 132.697 405.154" style="fill:none;stroke:#000;stroke-linecap:square;stroke-miterlimit:10;stroke-width:2px"/></svg>