<svg id="Capa_1" data-name="Capa 1" xmlns="http://www.w3.org/2000/svg" viewBox="0 0 500 500"><rect width="500" height="500" style="fill:none"/><polyline points="199.524 86.093 199.101 85.962 198.677 85.93 198.253 85.962 197.862 86.06 197.47 86.191 197.112 86.419 196.786 86.712 196.492 87.006 196.264 87.364 196.101 87.755 196.003 88.179 195.97 88.603" style="fill:none;stroke:#000;stroke-linecap:square;stroke-miterlimit:10;stroke-width:2px"/><line x1="195.938" y1="88.603" x2="195.938" y2="139.588" style="fill:none;stroke:#000;stroke-linecap:square;stroke-miterlimit:10;stroke-width:2px"/><polyline points="195.97 139.588 196.003 140.011 196.101 140.403 196.264 140.794 196.492 141.152 196.753 141.478 197.079 141.739 197.438 141.967 197.829 142.13 198.22 142.228 198.644 142.261" style="fill:none;stroke:#000;stroke-linecap:square;stroke-miterlimit:10;stroke-width:2px"/><line x1="198.644" y1="142.293" x2="207.024" y2="142.293" style="fill:none;stroke:#000;stroke-linecap:square;stroke-miterlimit:10;stroke-width:2px"/><polyline points="207.024 142.293 207.383 142.261 207.709 142.163 208.002 142 208.263 141.772 208.491 141.511 208.654 141.185 208.752 140.859 208.785 140.5" style="fill:none;stroke:#000;stroke-linecap:square;stroke-miterlimit:10;stroke-width:2px"/><line x1="208.817" y1="140.5" x2="208.817" y2="103.729" style="fill:none;stroke:#000;stroke-linecap:square;stroke-miterlimit:10;stroke-width:2px"/><polyline points="210.872 101.968 210.578 101.936 210.285 101.968 209.991 102.066 209.698 102.197 209.47 102.36 209.241 102.588 209.078 102.849 208.948 103.109 208.883 103.435 208.85 103.729" style="fill:none;stroke:#000;stroke-linecap:square;stroke-miterlimit:10;stroke-width:2px"/><line x1="210.872" y1="101.968" x2="248.109" y2="107.575" style="fill:none;stroke:#000;stroke-linecap:square;stroke-miterlimit:10;stroke-width:2px"/><polyline points="251.043 110.509 250.946 110.053 250.783 109.662 250.587 109.238 250.326 108.879 250.033 108.553 249.707 108.26 249.348 108.032 248.957 107.836 248.533 107.673 248.109 107.575" style="fill:none;stroke:#000;stroke-linecap:square;stroke-miterlimit:10;stroke-width:2px"/><polyline points="251.076 110.477 251.467 112.824 251.956 115.138 252.478 117.453 253.098 119.735 253.75 121.984 254.5 124.234 255.315 126.483 256.163 128.667 257.108 130.851 258.119 132.97 259.163 135.089 260.304 137.175 261.478 139.229 262.717 141.218 264.021 143.206 265.39 145.129 266.825 147.02 268.292 148.878 269.825 150.671 271.39 152.432 273.02 154.159 274.716 155.822 276.444 157.419 278.238 158.984 280.031 160.483 281.922 161.918 283.813 163.32 285.77 164.656 287.759 165.928 289.78 167.166" style="fill:none;stroke:#000;stroke-linecap:square;stroke-miterlimit:10;stroke-width:2px"/><polyline points="291.509 170.231 291.476 169.774 291.378 169.318 291.248 168.894 291.052 168.503 290.791 168.112 290.498 167.786 290.139 167.46 289.78 167.199" style="fill:none;stroke:#000;stroke-linecap:square;stroke-miterlimit:10;stroke-width:2px"/><line x1="291.509" y1="170.231" x2="291.509" y2="185.161" style="fill:none;stroke:#000;stroke-linecap:square;stroke-miterlimit:10;stroke-width:2px"/><polyline points="289.78 188.193 290.139 187.932 290.498 187.606 290.791 187.28 291.052 186.889 291.248 186.497 291.378 186.074 291.476 185.617 291.509 185.161" style="fill:none;stroke:#000;stroke-linecap:square;stroke-miterlimit:10;stroke-width:2px"/><polyline points="289.78 188.193 287.857 189.366 285.933 190.605 284.074 191.876 282.216 193.18 280.422 194.582 278.662 196.016 276.966 197.483 275.27 199.015 273.64 200.58 272.075 202.21 270.542 203.873 269.042 205.568 267.608 207.328 266.206 209.121 264.869 210.947 263.597 212.805 262.358 214.728 261.184 216.651 260.043 218.64 258.967 220.628 257.956 222.65 257.011 224.703" style="fill:none;stroke:#000;stroke-linecap:square;stroke-miterlimit:10;stroke-width:2px"/><polyline points="253.782 226.757 254.174 226.724 254.565 226.659 254.956 226.561 255.348 226.398 255.674 226.203 256 225.942 256.293 225.681 256.554 225.388 256.782 225.029 256.978 224.703" style="fill:none;stroke:#000;stroke-linecap:square;stroke-miterlimit:10;stroke-width:2px"/><line x1="253.782" y1="226.79" x2="224.567" y2="226.79" style="fill:none;stroke:#000;stroke-linecap:square;stroke-miterlimit:10;stroke-width:2px"/><polyline points="224.567 226.79 224.208 226.822 223.882 226.92 223.588 227.083 223.328 227.311 223.099 227.572 222.936 227.898 222.838 228.224 222.806 228.583" style="fill:none;stroke:#000;stroke-linecap:square;stroke-miterlimit:10;stroke-width:2px"/><line x1="222.773" y1="228.583" x2="222.773" y2="280.317" style="fill:none;stroke:#000;stroke-linecap:square;stroke-miterlimit:10;stroke-width:2px"/><polyline points="222.773 280.317 222.806 280.741 222.904 281.132 223.067 281.523 223.295 281.882 223.556 282.208 223.882 282.468 224.241 282.697 224.632 282.86 225.023 282.957 225.447 282.99" style="fill:none;stroke:#000;stroke-linecap:square;stroke-miterlimit:10;stroke-width:2px"/><line x1="225.447" y1="283.023" x2="232.131" y2="283.023" style="fill:none;stroke:#000;stroke-linecap:square;stroke-miterlimit:10;stroke-width:2px"/><polyline points="232.131 282.99 232.588 282.957 233.044 282.86 233.468 282.729 233.892 282.534 234.251 282.273 234.61 281.979 234.903 281.621 235.164 281.23 235.359 280.839 235.49 280.415 235.588 279.958 235.62 279.502" style="fill:none;stroke:#000;stroke-linecap:square;stroke-miterlimit:10;stroke-width:2px"/><line x1="235.653" y1="279.502" x2="235.653" y2="239.634" style="fill:none;stroke:#000;stroke-linecap:square;stroke-miterlimit:10;stroke-width:2px"/><polyline points="237.446 237.841 237.088 237.873 236.762 237.971 236.468 238.134 236.207 238.362 235.979 238.623 235.816 238.949 235.718 239.275 235.686 239.634" style="fill:none;stroke:#000;stroke-linecap:square;stroke-miterlimit:10;stroke-width:2px"/><line x1="237.446" y1="237.841" x2="248.37" y2="237.841" style="fill:none;stroke:#000;stroke-linecap:square;stroke-miterlimit:10;stroke-width:2px"/><polyline points="250.13 239.601 250.098 239.275 250 238.916 249.837 238.623 249.609 238.362 249.348 238.134 249.022 237.971 248.696 237.873 248.37 237.841" style="fill:none;stroke:#000;stroke-linecap:square;stroke-miterlimit:10;stroke-width:2px"/><line x1="250.163" y1="239.634" x2="250.163" y2="254.107" style="fill:none;stroke:#000;stroke-linecap:square;stroke-miterlimit:10;stroke-width:2px"/><polyline points="250.196 254.075 250.13 256.487 250.163 258.867 250.228 261.279 250.391 263.659 250.62 266.071 250.946 268.418 251.304 270.798 251.761 273.145 252.282 275.492 252.869 277.839 253.522 280.121 254.239 282.403 255.021 284.685 255.902 286.902 256.815 289.119 257.826 291.303 258.869 293.454 260.01 295.573 261.184 297.66 262.456 299.713 263.76 301.702 265.13 303.69 266.564 305.614 268.032 307.504 269.564 309.33 271.162 311.123 272.825 312.851 274.52 314.546 276.281 316.176 278.075 317.773 279.933 319.305 281.824 320.772 283.748 322.174 285.705 323.543 287.726 324.847 289.78 326.086" style="fill:none;stroke:#000;stroke-linecap:square;stroke-miterlimit:10;stroke-width:2px"/><polyline points="291.509 329.15 291.476 328.694 291.378 328.237 291.248 327.814 291.052 327.422 290.791 327.031 290.498 326.705 290.139 326.379 289.78 326.118" style="fill:none;stroke:#000;stroke-linecap:square;stroke-miterlimit:10;stroke-width:2px"/><line x1="291.509" y1="329.15" x2="291.509" y2="344.08" style="fill:none;stroke:#000;stroke-linecap:square;stroke-miterlimit:10;stroke-width:2px"/><polyline points="289.78 347.112 290.139 346.851 290.498 346.525 290.791 346.199 291.052 345.808 291.248 345.417 291.378 344.993 291.476 344.537 291.509 344.08" style="fill:none;stroke:#000;stroke-linecap:square;stroke-miterlimit:10;stroke-width:2px"/><polyline points="289.78 347.112 287.694 348.383 285.639 349.72 283.65 351.089 281.661 352.523 279.738 354.056 277.879 355.62 276.053 357.218 274.26 358.913 272.531 360.641 270.868 362.401 269.271 364.259 267.706 366.117 266.206 368.041 264.771 370.029 263.369 372.05 262.065 374.104 260.826 376.19 259.619 378.342 258.51 380.493 257.434 382.71 256.456 384.927 255.543 387.209 254.695 389.491 253.913 391.805 253.195 394.12 252.576 396.499" style="fill:none;stroke:#000;stroke-linecap:square;stroke-miterlimit:10;stroke-width:2px"/><polyline points="248.631 399.075 249.054 399.107 249.478 399.107 249.902 399.042 250.326 398.912 250.717 398.749 251.076 398.521 251.435 398.26 251.728 397.966 251.989 397.64 252.217 397.282 252.413 396.891 252.543 396.467" style="fill:none;stroke:#000;stroke-linecap:square;stroke-miterlimit:10;stroke-width:2px"/><line x1="248.598" y1="399.107" x2="203.372" y2="392.164" style="fill:none;stroke:#000;stroke-linecap:square;stroke-miterlimit:10;stroke-width:2px"/><polyline points="203.372 392.131 202.948 392.099 202.557 392.099 202.166 392.164 201.774 392.294 201.383 392.457 201.057 392.685 200.731 392.913 200.47 393.207 200.209 393.565 200.046 393.924 199.883 394.283 199.785 394.674" style="fill:none;stroke:#000;stroke-linecap:square;stroke-miterlimit:10;stroke-width:2px"/><line x1="199.785" y1="394.706" x2="199.785" y2="400.868" style="fill:none;stroke:#000;stroke-linecap:square;stroke-miterlimit:10;stroke-width:2px"/><polyline points="199.818 400.868 199.851 401.291 199.948 401.683 200.111 402.074 200.307 402.432 200.568 402.726 200.894 403.019 201.253 403.215 201.611 403.378" style="fill:none;stroke:#000;stroke-linecap:square;stroke-miterlimit:10;stroke-width:2px"/><line x1="201.611" y1="403.41" x2="258.706" y2="414.038" style="fill:none;stroke:#000;stroke-linecap:square;stroke-miterlimit:10;stroke-width:2px"/><polyline points="258.706 414.005 259.195 414.07 259.684 414.07 260.173 413.972 260.63 413.842 261.086 413.614 261.478 413.353 261.836 413.027 262.162 412.668 262.423 412.245 262.619 411.788 262.749 411.332 262.847 410.843" style="fill:none;stroke:#000;stroke-linecap:square;stroke-miterlimit:10;stroke-width:2px"/><polyline points="302.041 354.903 300.019 355.881 298.03 356.892 296.074 358 294.15 359.141 292.291 360.38 290.433 361.651 288.672 362.988 286.911 364.389 285.215 365.856 283.585 367.356 281.987 368.953 280.422 370.551 278.955 372.246 277.52 373.941 276.151 375.734 274.814 377.527 273.575 379.385 272.368 381.276 271.26 383.199 270.184 385.188 269.205 387.176 268.26 389.23 267.412 391.284 266.63 393.37 265.912 395.489 265.26 397.64 264.673 399.792 264.184 401.976 263.728 404.193 263.369 406.377 263.108 408.626 262.88 410.843" style="fill:none;stroke:#000;stroke-linecap:square;stroke-miterlimit:10;stroke-width:2px"/><polyline points="301.975 354.871 302.334 354.708 302.66 354.479 302.986 354.219 303.247 353.925 303.475 353.599 303.671 353.241 303.834 352.882 303.932 352.491 303.997 352.1 304.03 351.708" style="fill:none;stroke:#000;stroke-linecap:square;stroke-miterlimit:10;stroke-width:2px"/><line x1="304.062" y1="351.708" x2="304.062" y2="321.522" style="fill:none;stroke:#000;stroke-linecap:square;stroke-miterlimit:10;stroke-width:2px"/><polyline points="304.03 321.522 303.997 321.131 303.932 320.74 303.834 320.348 303.671 319.99 303.475 319.631 303.247 319.305 302.986 319.012 302.66 318.751 302.334 318.523 301.975 318.36" style="fill:none;stroke:#000;stroke-linecap:square;stroke-miterlimit:10;stroke-width:2px"/><polyline points="302.041 195.984 299.986 196.962 297.997 198.005 296.008 199.113 294.085 200.287 292.193 201.525 290.335 202.797 288.541 204.166 286.781 205.6 285.052 207.067 283.422 208.599 281.792 210.197 280.259 211.827 278.759 213.522 277.325 215.282 275.955 217.075 274.618 218.901 273.379 220.791 272.173 222.715 271.064 224.671 269.988 226.659 269.01 228.68 268.097 230.734 267.216 232.853 266.434 234.972 265.749 237.123 265.097 239.275 264.543 241.459 264.054 243.676 263.63 245.893 263.304 248.142 263.01 250.359 262.847 252.608 262.717 254.89 262.684 257.139 262.717 259.388 262.847 261.67 263.01 263.92 263.304 266.136 263.63 268.386 264.054 270.602 264.543 272.819 265.097 275.003 265.749 277.155 266.434 279.306 267.216 281.425 268.097 283.544 269.01 285.598 269.988 287.619 271.064 289.608 272.173 291.564 273.379 293.487 274.618 295.378 275.955 297.203 277.325 298.996 278.759 300.756 280.259 302.452 281.792 304.082 283.422 305.679 285.052 307.211 286.781 308.678 288.541 310.112 290.335 311.481 292.193 312.753 294.085 313.992 296.008 315.165 297.997 316.274 299.986 317.317 302.041 318.295" style="fill:none;stroke:#000;stroke-linecap:square;stroke-miterlimit:10;stroke-width:2px"/><polyline points="301.975 195.951 302.334 195.788 302.66 195.56 302.986 195.299 303.247 195.006 303.475 194.68 303.671 194.321 303.834 193.963 303.932 193.571 303.997 193.18 304.03 192.789" style="fill:none;stroke:#000;stroke-linecap:square;stroke-miterlimit:10;stroke-width:2px"/><line x1="304.062" y1="192.789" x2="304.062" y2="162.602" style="fill:none;stroke:#000;stroke-linecap:square;stroke-miterlimit:10;stroke-width:2px"/><polyline points="304.03 162.602 303.997 162.211 303.932 161.82 303.834 161.429 303.671 161.07 303.475 160.712 303.247 160.386 302.986 160.092 302.66 159.832 302.334 159.603 301.975 159.44" style="fill:none;stroke:#000;stroke-linecap:square;stroke-miterlimit:10;stroke-width:2px"/><polyline points="262.749 100.991 262.88 103.175 263.075 105.326 263.336 107.478 263.662 109.629 264.054 111.781 264.543 113.9 265.097 116.019 265.684 118.105 266.369 120.191 267.119 122.245 267.934 124.266 268.814 126.255 269.76 128.211 270.738 130.134 271.814 132.057 272.955 133.915 274.129 135.741 275.368 137.534 276.672 139.262 278.042 140.957 279.444 142.619 280.911 144.249 282.444 145.814 284.009 147.314 285.607 148.78 287.27 150.182 288.998 151.551 290.726 152.823 292.519 154.061 294.345 155.268 296.237 156.376 298.128 157.452 300.052 158.43 302.041 159.375" style="fill:none;stroke:#000;stroke-linecap:square;stroke-miterlimit:10;stroke-width:2px"/><polyline points="262.684 101.023 262.619 100.534 262.521 100.078 262.358 99.654 262.13 99.263 261.836 98.872 261.51 98.546 261.152 98.252 260.728 98.024 260.304 97.861 259.847 97.731" style="fill:none;stroke:#000;stroke-linecap:square;stroke-miterlimit:10;stroke-width:2px"/><line x1="259.88" y1="97.698" x2="199.524" y2="86.06" style="fill:none;stroke:#000;stroke-linecap:square;stroke-miterlimit:10;stroke-width:2px"/></svg>