<svg id="Capa_1" data-name="Capa 1" xmlns="http://www.w3.org/2000/svg" viewBox="0 0 500 500"><rect width="500" height="500" style="fill:none"/><polyline points="176.015 51.391 175.982 50.968 175.884 50.576 175.721 50.185 175.526 49.827 175.232 49.501 174.939 49.24 174.58 49.012 174.189 48.849" style="fill:none;stroke:#000;stroke-linecap:square;stroke-miterlimit:10;stroke-width:2px"/><line x1="174.221" y1="48.816" x2="113.605" y2="37.146" style="fill:none;stroke:#000;stroke-linecap:square;stroke-miterlimit:10;stroke-width:2px"/><polyline points="113.573 37.146 113.181 37.015 112.725 36.983 112.301 37.015 111.877 37.113 111.486 37.276 111.127 37.472 110.801 37.765 110.508 38.091 110.279 38.45 110.116 38.841 110.018 39.265 109.986 39.688" style="fill:none;stroke:#000;stroke-linecap:square;stroke-miterlimit:10;stroke-width:2px"/><line x1="109.986" y1="39.688" x2="109.986" y2="91.227" style="fill:none;stroke:#000;stroke-linecap:square;stroke-miterlimit:10;stroke-width:2px"/><polyline points="109.986 91.227 110.018 91.651 110.116 92.075 110.279 92.466 110.508 92.824 110.768 93.15 111.094 93.411 111.453 93.639 111.844 93.802 112.268 93.9 112.692 93.933" style="fill:none;stroke:#000;stroke-linecap:square;stroke-miterlimit:10;stroke-width:2px"/><line x1="112.692" y1="93.933" x2="121.17" y2="93.933" style="fill:none;stroke:#000;stroke-linecap:square;stroke-miterlimit:10;stroke-width:2px"/><polyline points="121.17 93.933 121.529 93.9 121.855 93.802 122.181 93.639 122.442 93.411 122.67 93.15 122.833 92.824 122.931 92.499 122.963 92.14" style="fill:none;stroke:#000;stroke-linecap:square;stroke-miterlimit:10;stroke-width:2px"/><line x1="122.996" y1="92.14" x2="122.996" y2="54.977" style="fill:none;stroke:#000;stroke-linecap:square;stroke-miterlimit:10;stroke-width:2px"/><polyline points="125.083 53.217 124.789 53.184 124.463 53.217 124.17 53.315 123.909 53.445 123.648 53.608 123.453 53.836 123.257 54.097 123.126 54.358 123.061 54.684 123.029 54.977" style="fill:none;stroke:#000;stroke-linecap:square;stroke-miterlimit:10;stroke-width:2px"/><line x1="125.083" y1="53.184" x2="162.516" y2="58.856" style="fill:none;stroke:#000;stroke-linecap:square;stroke-miterlimit:10;stroke-width:2px"/><polyline points="164.7 60.845 164.57 60.486 164.407 60.128 164.179 59.802 163.918 59.508 163.592 59.28 163.266 59.085 162.907 58.954 162.516 58.889" style="fill:none;stroke:#000;stroke-linecap:square;stroke-miterlimit:10;stroke-width:2px"/><line x1="164.733" y1="60.812" x2="164.733" y2="177.516" style="fill:none;stroke:#000;stroke-linecap:square;stroke-miterlimit:10;stroke-width:2px"/><polyline points="162.907 179.309 163.266 179.277 163.592 179.179 163.918 179.016 164.179 178.788 164.407 178.527 164.57 178.201 164.668 177.875 164.7 177.516" style="fill:none;stroke:#000;stroke-linecap:square;stroke-miterlimit:10;stroke-width:2px"/><line x1="162.907" y1="179.342" x2="138.908" y2="179.342" style="fill:none;stroke:#000;stroke-linecap:square;stroke-miterlimit:10;stroke-width:2px"/><polyline points="138.908 179.375 138.549 179.407 138.223 179.505 137.897 179.668 137.637 179.896 137.408 180.157 137.245 180.483 137.147 180.809 137.115 181.167" style="fill:none;stroke:#000;stroke-linecap:square;stroke-miterlimit:10;stroke-width:2px"/><line x1="137.082" y1="181.167" x2="137.082" y2="233.423" style="fill:none;stroke:#000;stroke-linecap:square;stroke-miterlimit:10;stroke-width:2px"/><polyline points="137.115 233.423 137.147 233.847 137.245 234.271 137.408 234.662 137.637 235.021 137.897 235.347 138.223 235.608 138.582 235.836 138.973 235.999 139.397 236.097 139.821 236.129" style="fill:none;stroke:#000;stroke-linecap:square;stroke-miterlimit:10;stroke-width:2px"/><line x1="139.821" y1="236.162" x2="146.538" y2="236.162" style="fill:none;stroke:#000;stroke-linecap:square;stroke-miterlimit:10;stroke-width:2px"/><polyline points="146.538 236.129 146.995 236.097 147.451 235.999 147.875 235.868 148.299 235.673 148.69 235.412 149.016 235.086 149.342 234.76 149.603 234.369 149.799 233.945 149.929 233.521 150.027 233.065 150.06 232.608" style="fill:none;stroke:#000;stroke-linecap:square;stroke-miterlimit:10;stroke-width:2px"/><line x1="150.092" y1="232.608" x2="150.092" y2="192.316" style="fill:none;stroke:#000;stroke-linecap:square;stroke-miterlimit:10;stroke-width:2px"/><polyline points="151.918 190.523 151.56 190.556 151.234 190.654 150.908 190.817 150.647 191.045 150.418 191.306 150.255 191.632 150.158 191.958 150.125 192.316" style="fill:none;stroke:#000;stroke-linecap:square;stroke-miterlimit:10;stroke-width:2px"/><line x1="151.918" y1="190.523" x2="162.972" y2="190.523" style="fill:none;stroke:#000;stroke-linecap:square;stroke-miterlimit:10;stroke-width:2px"/><polyline points="164.766 192.284 164.733 191.958 164.635 191.599 164.439 191.306 164.244 191.045 163.95 190.817 163.657 190.654 163.331 190.556 162.972 190.523" style="fill:none;stroke:#000;stroke-linecap:square;stroke-miterlimit:10;stroke-width:2px"/><line x1="164.798" y1="192.316" x2="164.798" y2="306.51" style="fill:none;stroke:#000;stroke-linecap:square;stroke-miterlimit:10;stroke-width:2px"/><polyline points="164.798 306.51 164.831 306.967 164.929 307.423 165.059 307.847 165.255 308.271 165.515 308.662 165.841 308.988 166.168 309.314 166.559 309.574 166.983 309.77 167.407 309.9 167.863 309.998 168.32 310.031" style="fill:none;stroke:#000;stroke-linecap:square;stroke-miterlimit:10;stroke-width:2px"/><line x1="168.32" y1="310.063" x2="173.928" y2="310.063" style="fill:none;stroke:#000;stroke-linecap:square;stroke-miterlimit:10;stroke-width:2px"/><polyline points="173.928 310.031 174.385 309.998 174.841 309.9 175.265 309.77 175.689 309.574 176.08 309.314 176.406 308.988 176.732 308.662 176.993 308.271 177.189 307.847 177.319 307.423 177.417 306.967 177.45 306.51" style="fill:none;stroke:#000;stroke-linecap:square;stroke-miterlimit:10;stroke-width:2px"/><line x1="177.45" y1="306.51" x2="177.45" y2="146.384" style="fill:none;stroke:#000;stroke-linecap:square;stroke-miterlimit:10;stroke-width:2px"/><polyline points="184.167 144.852 183.938 144.428 183.645 144.07 183.319 143.711 182.928 143.451 182.536 143.222 182.08 143.027 181.623 142.929 181.167 142.864 180.678 142.864 180.221 142.962 179.765 143.092 179.341 143.288 178.917 143.548 178.558 143.842 178.265 144.2 177.971 144.592 177.776 145.015 177.613 145.439 177.515 145.928 177.482 146.384" style="fill:none;stroke:#000;stroke-linecap:square;stroke-miterlimit:10;stroke-width:2px"/><polyline points="184.199 144.82 186.025 148.438 187.884 152.024 189.808 155.577 191.829 159.098 193.883 162.586 196.036 166.009 198.22 169.432 200.503 172.757 202.818 176.082 205.198 179.342 207.644 182.569 210.154 185.731 212.73 188.861 215.371 191.958 218.045 194.957 220.784 197.956 223.588 200.857 226.425 203.726 229.327 206.562 232.294 209.3 235.327 212.006 238.359 214.647 241.49 217.254 244.652 219.765 247.848 222.242 251.109 224.654 254.402 227.001 257.728 229.283 261.119 231.5 264.543 233.652 267.999 235.738 271.521 237.759 275.042 239.715 278.629 241.606 282.248 243.431 285.9 245.159 289.585 246.854 293.269 248.452 297.019 250.016 300.802 251.483 304.584 252.885 308.399 254.222" style="fill:none;stroke:#000;stroke-linecap:square;stroke-miterlimit:10;stroke-width:2px"/><polyline points="176.439 358.212 176.732 360.983 177.091 363.754 177.515 366.525 178.036 369.296 178.656 372.034 179.308 374.74 180.058 377.445 180.873 380.118 181.786 382.759 182.765 385.399 183.808 388.007 184.917 390.583 186.09 393.093 187.362 395.603 188.666 398.08 190.068 400.493 191.536 402.905 193.068 405.252 194.666 407.534 196.296 409.816 198.025 412.033 199.818 414.184 201.644 416.303 203.535 418.357 205.492 420.345 207.513 422.301 209.567 424.192 211.687 426.05 213.839 427.811 216.056 429.538 218.339 431.201 220.621 432.766 223.001 434.298 225.382 435.765 227.795 437.134 230.273 438.47 232.784 439.709 235.327 440.915 237.903 442.024 240.511 443.034 243.12 444.012 245.794 444.892 248.467 445.707 251.174 446.457 253.88 447.142 256.619 447.729 259.358 448.217 262.13 448.674 264.901 449.032 267.706 449.293 270.51 449.521 273.281 449.652 276.086 449.684 278.89 449.652 281.694 449.554 284.498 449.358 287.27 449.098 290.041 448.739 292.813 448.315 295.584 447.826 298.323 447.24 301.062 446.62 303.736 445.87 306.443 445.088 309.084 444.208 311.725 443.262 314.333 442.219 316.909 441.144 319.453 439.97 321.964 438.731 324.442 437.427 326.887 436.026 329.3 434.591 331.648 433.092 333.963 431.527 336.245 429.864 338.463 428.169 340.647 426.409 342.767 424.583 344.821 422.693 346.843 420.769 348.832 418.781 350.723 416.727 352.581 414.608 354.375 412.457 356.103 410.272 357.766 408.023 359.396 405.709 360.929 403.361 362.396 400.982 363.798 398.569 365.135 396.124 366.407 393.614 367.613 391.104 368.754 388.529 369.798 385.921 370.776 383.313 371.689 380.673 372.537 378 373.287 375.294 373.972 372.588 374.591 369.85 375.113 367.079 375.569 364.341 375.961 361.57 376.254 358.766 376.482 355.995 376.645 353.192 376.711 350.388 376.711 347.585 376.613 344.781 376.45 341.978 376.189 339.207 375.863 336.403 375.471 333.632 374.982 330.894 374.428 328.123 373.809 325.418 373.091 322.679 372.341 320.006 371.461 317.333 370.548 314.692 369.537 312.085 368.461 309.509 367.32 306.934 366.081 304.424 364.809 301.946 363.44 299.469 362.005 297.056 360.537 294.709 358.972 292.362 357.342 290.08 355.646 287.864 353.918 285.679 352.092 283.528 350.234 281.442 348.31 279.388 346.321 277.432 344.299 275.509 342.212 273.618 340.06 271.825 337.876 270.065 335.658 268.369 333.376 266.772 331.028 265.207 328.681 263.708 326.268 262.273 323.822 260.937 321.311 259.633 318.801 258.427 316.257 257.253 313.649 256.177 311.04 255.2 308.399 254.254" style="fill:none;stroke:#000;stroke-linecap:square;stroke-miterlimit:10;stroke-width:2px"/><polyline points="176.406 358.212 176.308 357.756 176.178 357.332 175.982 356.875 175.754 356.484 175.461 356.126 175.102 355.8 174.743 355.539 174.319 355.311 173.863 355.148 173.406 355.05" style="fill:none;stroke:#000;stroke-linecap:square;stroke-miterlimit:10;stroke-width:2px"/><line x1="173.439" y1="355.017" x2="117.485" y2="346.444" style="fill:none;stroke:#000;stroke-linecap:square;stroke-miterlimit:10;stroke-width:2px"/><polyline points="117.485 346.411 117.062 346.379 116.67 346.379 116.279 346.444 115.888 346.574 115.496 346.737 115.17 346.965 114.844 347.226 114.583 347.52 114.323 347.846 114.16 348.204 113.996 348.595 113.899 348.987" style="fill:none;stroke:#000;stroke-linecap:square;stroke-miterlimit:10;stroke-width:2px"/><line x1="113.899" y1="348.987" x2="113.899" y2="355.245" style="fill:none;stroke:#000;stroke-linecap:square;stroke-miterlimit:10;stroke-width:2px"/><polyline points="113.899 355.245 113.931 355.669 114.029 356.06 114.192 356.452 114.388 356.81 114.681 357.136 114.975 357.397 115.333 357.625 115.725 357.788" style="fill:none;stroke:#000;stroke-linecap:square;stroke-miterlimit:10;stroke-width:2px"/><line x1="115.725" y1="357.788" x2="161.635" y2="366.329" style="fill:none;stroke:#000;stroke-linecap:square;stroke-miterlimit:10;stroke-width:2px"/><polyline points="164.439 369.198 164.342 368.774 164.211 368.383 164.016 368.024 163.755 367.666 163.494 367.34 163.168 367.046 162.809 366.818 162.45 366.622 162.026 366.46 161.635 366.362" style="fill:none;stroke:#000;stroke-linecap:square;stroke-miterlimit:10;stroke-width:2px"/><polyline points="164.505 369.198 165.059 372.132 165.678 375.066 166.396 377.967 167.211 380.836 168.059 383.704 169.004 386.54 170.015 389.377 171.124 392.147 172.265 394.918 173.504 397.624 174.808 400.33 176.178 402.97 177.645 405.611 179.145 408.186 180.743 410.729 182.373 413.206 184.101 415.684 185.862 418.096 187.721 420.443 189.612 422.758 191.568 425.007 193.59 427.224 195.677 429.375 197.796 431.462 199.981 433.515 202.231 435.471 204.513 437.395 206.861 439.285 209.274 441.078 211.687 442.806 214.165 444.469 216.708 446.066 219.284 447.631 221.86 449.098 224.534 450.499 227.208 451.836 229.914 453.075 232.653 454.281 235.425 455.389 238.229 456.432 241.066 457.378 243.935 458.291 246.805 459.105 249.707 459.855 252.609 460.507 255.543 461.094 258.51 461.616 261.445 462.039 264.412 462.398 267.412 462.659 270.379 462.854 273.379 462.985 276.379 463.017 279.346 462.985 282.346 462.854 285.346 462.659 288.313 462.398 291.28 462.039 294.248 461.616 297.182 461.094 300.117 460.507 303.051 459.855 305.953 459.105 308.823 458.291 311.66 457.41 314.497 456.432 317.301 455.389 320.072 454.281 322.844 453.075 325.55 451.836 328.224 450.499 330.865 449.098 333.474 447.631 336.05 446.099 338.56 444.501 341.039 442.806 343.484 441.078 345.864 439.285 348.212 437.427 350.495 435.504 352.744 433.515 354.929 431.462 357.081 429.375 359.168 427.224 361.157 425.007 363.146 422.758 365.037 420.443 366.863 418.096 368.657 415.684 370.352 413.239 372.015 410.729 373.613 408.186 375.113 405.611 376.547 403.003 377.95 400.33 379.254 397.657 380.493 394.918 381.634 392.18 382.743 389.377 383.754 386.573 384.699 383.737 385.547 380.868 386.362 377.967 387.08 375.066 387.699 372.164 388.253 369.198 388.742 366.264 389.166 363.297 389.492 360.331 389.721 357.332 389.916 354.333 389.982 351.366 390.014 348.367 389.949 345.368 389.786 342.369 389.59 339.402 389.264 336.436 388.906 333.469 388.449 330.503 387.895 327.569 387.308 324.635 386.59 321.701 385.841 318.833 384.993 315.964 384.08 313.095 383.102 310.292 382.025 307.488 380.884 304.717 379.678 301.979 378.406 299.273 377.037 296.6 375.635 293.96 374.135 291.384 372.569 288.809 370.939 286.299 369.244 283.854 367.483 281.409 365.689 279.062 363.798 276.715 361.842 274.433 359.853 272.216 357.799 270.032 355.679 267.946 353.527 265.859 351.277 263.871 349.027 261.915 346.68 260.057 344.299 258.231 341.886 256.471 339.441 254.776 336.93 253.146 334.354 251.581 331.778 250.082 329.137 248.68 326.463 247.311 323.757 246.039 321.051 244.833 318.279 243.692 315.475 242.616 312.638 241.606" style="fill:none;stroke:#000;stroke-linecap:square;stroke-miterlimit:10;stroke-width:2px"/><line x1="176.047" y1="51.391" x2="176.047" y2="51.391" style="fill:none;stroke:#000;stroke-linecap:square;stroke-miterlimit:10;stroke-width:2px"/><polyline points="176.047 51.391 176.08 55.303 176.211 59.182 176.374 63.094 176.667 67.006 176.993 70.885 177.417 74.765 177.906 78.644 178.46 82.523 179.113 86.37 179.83 90.217 180.612 94.031 181.493 97.845 182.438 101.626 183.449 105.408 184.525 109.157 185.699 112.905 186.938 116.589 188.242 120.273 189.612 123.956 191.047 127.575 192.579 131.161 194.177 134.747 195.84 138.267 197.535 141.788 199.329 145.243 201.187 148.699 203.144 152.089 205.133 155.447 207.187 158.772 209.307 162.065 211.491 165.292 213.741 168.486 216.056 171.649 218.404 174.746 220.849 177.81 223.328 180.809 225.871 183.775 228.479 186.677 231.153 189.545 233.86 192.349 236.631 195.12 239.468 197.825 242.337 200.466 245.272 203.041 248.239 205.584 251.272 208.062 254.337 210.474 257.467 212.821 260.63 215.103 263.825 217.32 267.086 219.504 270.379 221.59 273.705 223.644 277.064 225.6 280.487 227.523 283.944 229.349 287.4 231.142 290.922 232.837 294.476 234.467 298.063 236.031 301.649 237.531 305.301 238.965 308.953 240.302 312.671 241.606" style="fill:none;stroke:#000;stroke-linecap:square;stroke-miterlimit:10;stroke-width:2px"/></svg>