<svg id="Capa_1" data-name="Capa 1" xmlns="http://www.w3.org/2000/svg" viewBox="0 0 500 500"><rect width="500" height="500" style="fill:none"/><line x1="155.098" y1="229.072" x2="155.098" y2="177.337" style="fill:none;stroke:#000;stroke-linecap:square;stroke-miterlimit:10;stroke-width:2px"/><polyline points="156.858 175.544 156.5 175.577 156.174 175.675 155.88 175.838 155.619 176.066 155.391 176.327 155.228 176.653 155.13 176.979 155.098 177.337" style="fill:none;stroke:#000;stroke-linecap:square;stroke-miterlimit:10;stroke-width:2px"/><line x1="156.858" y1="175.544" x2="180.629" y2="175.544" style="fill:none;stroke:#000;stroke-linecap:square;stroke-miterlimit:10;stroke-width:2px"/><polyline points="180.629 175.544 180.987 175.512 181.314 175.414 181.607 175.251 181.868 175.023 182.096 174.762 182.259 174.436 182.357 174.11 182.389 173.751" style="fill:none;stroke:#000;stroke-linecap:square;stroke-miterlimit:10;stroke-width:2px"/><line x1="182.422" y1="173.751" x2="182.422" y2="137.99" style="fill:none;stroke:#000;stroke-linecap:square;stroke-miterlimit:10;stroke-width:2px"/><polyline points="187.672 134.959 187.281 134.763 186.857 134.633 186.4 134.535 185.944 134.502 185.487 134.535 185.031 134.633 184.607 134.763 184.183 134.959 183.824 135.219 183.466 135.513 183.172 135.871 182.911 136.23 182.716 136.654 182.585 137.077 182.487 137.534 182.455 137.99" style="fill:none;stroke:#000;stroke-linecap:square;stroke-miterlimit:10;stroke-width:2px"/><line x1="187.672" y1="134.959" x2="265.57" y2="179.912" style="fill:none;stroke:#000;stroke-linecap:square;stroke-miterlimit:10;stroke-width:2px"/><polyline points="265.602 179.912 265.994 180.108 266.418 180.238 266.874 180.336 267.331 180.369 267.787 180.336 268.244 180.238 268.667 180.108 269.091 179.912 269.45 179.652 269.809 179.358 270.102 179 270.363 178.608 270.559 178.217 270.689 177.794 270.787 177.337 270.82 176.881" style="fill:none;stroke:#000;stroke-linecap:square;stroke-miterlimit:10;stroke-width:2px"/><line x1="270.82" y1="176.881" x2="270.82" y2="107.282" style="fill:none;stroke:#000;stroke-linecap:square;stroke-miterlimit:10;stroke-width:2px"/><polyline points="270.82 107.282 270.787 106.826 270.689 106.369 270.559 105.946 270.363 105.522 270.102 105.163 269.809 104.805 269.45 104.511 269.059 104.25" style="fill:none;stroke:#000;stroke-linecap:square;stroke-miterlimit:10;stroke-width:2px"/><line x1="269.091" y1="104.25" x2="188.65" y2="57.797" style="fill:none;stroke:#000;stroke-linecap:square;stroke-miterlimit:10;stroke-width:2px"/><polyline points="188.617 57.797 188.357 57.667 188.03 57.536 187.737 57.438 187.411 57.373" style="fill:none;stroke:#000;stroke-linecap:square;stroke-miterlimit:10;stroke-width:2px"/><line x1="187.411" y1="57.373" x2="143.196" y2="50.69" style="fill:none;stroke:#000;stroke-linecap:square;stroke-miterlimit:10;stroke-width:2px"/><polyline points="143.196 50.723 142.902 50.69 142.609 50.723 142.316 50.821 142.022 50.951 141.794 51.114 141.566 51.342 141.403 51.603 141.272 51.864 141.207 52.19 141.174 52.483" style="fill:none;stroke:#000;stroke-linecap:square;stroke-miterlimit:10;stroke-width:2px"/><line x1="141.142" y1="52.483" x2="141.142" y2="89.222" style="fill:none;stroke:#000;stroke-linecap:square;stroke-miterlimit:10;stroke-width:2px"/><polyline points="139.348 91.015 139.707 90.983 140.033 90.885 140.327 90.722 140.587 90.494 140.816 90.233 140.979 89.907 141.077 89.581 141.109 89.222" style="fill:none;stroke:#000;stroke-linecap:square;stroke-miterlimit:10;stroke-width:2px"/><line x1="139.348" y1="91.015" x2="130.936" y2="91.015" style="fill:none;stroke:#000;stroke-linecap:square;stroke-miterlimit:10;stroke-width:2px"/><polyline points="128.262 88.342 128.295 88.766 128.392 89.157 128.555 89.548 128.784 89.907 129.045 90.233 129.371 90.494 129.729 90.722 130.121 90.885 130.512 90.983 130.936 91.015" style="fill:none;stroke:#000;stroke-linecap:square;stroke-miterlimit:10;stroke-width:2px"/><line x1="128.262" y1="88.342" x2="128.262" y2="37.325" style="fill:none;stroke:#000;stroke-linecap:square;stroke-miterlimit:10;stroke-width:2px"/><polyline points="131.816 34.815 131.392 34.684 130.968 34.652 130.544 34.684 130.153 34.782 129.762 34.913 129.403 35.141 129.077 35.434 128.784 35.728 128.555 36.086 128.392 36.477 128.295 36.901 128.262 37.325" style="fill:none;stroke:#000;stroke-linecap:square;stroke-miterlimit:10;stroke-width:2px"/><line x1="131.816" y1="34.782" x2="194.454" y2="46.876" style="fill:none;stroke:#000;stroke-linecap:square;stroke-miterlimit:10;stroke-width:2px"/><polyline points="195.498 47.268 195.269 47.137 194.976 47.039 194.715 46.942 194.421 46.876" style="fill:none;stroke:#000;stroke-linecap:square;stroke-miterlimit:10;stroke-width:2px"/><line x1="195.53" y1="47.268" x2="282.004" y2="97.209" style="fill:none;stroke:#000;stroke-linecap:square;stroke-miterlimit:10;stroke-width:2px"/><polyline points="283.341 99.589 283.308 99.23 283.243 98.872 283.145 98.546 282.982 98.22 282.786 97.926 282.525 97.665 282.265 97.405 281.971 97.209" style="fill:none;stroke:#000;stroke-linecap:square;stroke-miterlimit:10;stroke-width:2px"/><line x1="283.373" y1="99.589" x2="283.373" y2="199.896" style="fill:none;stroke:#000;stroke-linecap:square;stroke-miterlimit:10;stroke-width:2px"/><polyline points="279.232 202.275 279.591 202.438 279.982 202.569 280.406 202.634 280.797 202.634 281.221 202.569 281.612 202.438 281.971 202.275 282.297 202.047 282.623 201.754 282.851 201.428 283.08 201.069 283.21 200.711 283.308 200.319 283.341 199.896" style="fill:none;stroke:#000;stroke-linecap:square;stroke-miterlimit:10;stroke-width:2px"/><line x1="279.232" y1="202.308" x2="199.182" y2="156.083" style="fill:none;stroke:#000;stroke-linecap:square;stroke-miterlimit:10;stroke-width:2px"/><polyline points="199.15 156.083 198.791 155.92 198.4 155.789 197.976 155.724 197.584 155.724 197.16 155.789 196.769 155.92 196.41 156.083 196.084 156.311 195.758 156.604 195.53 156.93 195.302 157.289 195.171 157.647 195.074 158.039 195.041 158.462" style="fill:none;stroke:#000;stroke-linecap:square;stroke-miterlimit:10;stroke-width:2px"/><line x1="195.008" y1="158.462" x2="195.008" y2="257.074" style="fill:none;stroke:#000;stroke-linecap:square;stroke-miterlimit:10;stroke-width:2px"/><polyline points="195.041 257.074 195.074 257.433 195.139 257.791 195.237 258.117 195.4 258.443 195.595 258.737 195.856 258.997 196.117 259.258 196.41 259.454" style="fill:none;stroke:#000;stroke-linecap:square;stroke-miterlimit:10;stroke-width:2px"/><line x1="196.41" y1="259.454" x2="370.368" y2="359.923" style="fill:none;stroke:#000;stroke-linecap:square;stroke-miterlimit:10;stroke-width:2px"/><polyline points="371.705 362.336 371.673 361.977 371.608 361.619 371.51 361.293 371.347 360.967 371.151 360.673 370.89 360.412 370.629 360.152 370.336 359.956" style="fill:none;stroke:#000;stroke-linecap:square;stroke-miterlimit:10;stroke-width:2px"/><line x1="371.738" y1="362.336" x2="371.738" y2="462.61" style="fill:none;stroke:#000;stroke-linecap:square;stroke-miterlimit:10;stroke-width:2px"/><polyline points="367.597 464.99 367.956 465.153 368.347 465.283 368.771 465.348 369.162 465.348 369.586 465.283 369.977 465.153 370.336 464.99 370.662 464.761 370.988 464.468 371.216 464.142 371.444 463.783 371.575 463.425 371.673 463.034 371.705 462.61" style="fill:none;stroke:#000;stroke-linecap:square;stroke-miterlimit:10;stroke-width:2px"/><line x1="367.597" y1="465.022" x2="190.802" y2="362.923" style="fill:none;stroke:#000;stroke-linecap:square;stroke-miterlimit:10;stroke-width:2px"/><polyline points="190.77 362.923 190.509 362.792 190.248 362.694 189.954 362.597 189.693 362.531" style="fill:none;stroke:#000;stroke-linecap:square;stroke-miterlimit:10;stroke-width:2px"/><line x1="189.693" y1="362.531" x2="133.903" y2="352.132" style="fill:none;stroke:#000;stroke-linecap:square;stroke-miterlimit:10;stroke-width:2px"/><polyline points="132.11 349.59 132.142 350.013 132.24 350.405 132.403 350.796 132.599 351.154 132.86 351.448 133.186 351.741 133.544 351.937 133.903 352.1" style="fill:none;stroke:#000;stroke-linecap:square;stroke-miterlimit:10;stroke-width:2px"/><line x1="132.11" y1="349.59" x2="132.11" y2="343.428" style="fill:none;stroke:#000;stroke-linecap:square;stroke-miterlimit:10;stroke-width:2px"/><polyline points="135.696 340.886 135.272 340.853 134.881 340.853 134.49 340.918 134.099 341.049 133.707 341.212 133.381 341.44 133.055 341.668 132.794 341.961 132.534 342.32 132.37 342.679 132.207 343.037 132.11 343.428" style="fill:none;stroke:#000;stroke-linecap:square;stroke-miterlimit:10;stroke-width:2px"/><line x1="135.664" y1="340.886" x2="192.335" y2="349.59" style="fill:none;stroke:#000;stroke-linecap:square;stroke-miterlimit:10;stroke-width:2px"/><polyline points="193.574 350.046 193.28 349.916 192.954 349.785 192.661 349.687 192.335 349.622" style="fill:none;stroke:#000;stroke-linecap:square;stroke-miterlimit:10;stroke-width:2px"/><line x1="193.574" y1="350.046" x2="353.935" y2="442.627" style="fill:none;stroke:#000;stroke-linecap:square;stroke-miterlimit:10;stroke-width:2px"/><polyline points="353.935 442.627 354.326 442.822 354.75 442.953 355.206 443.051 355.663 443.083 356.119 443.051 356.576 442.953 357 442.822 357.424 442.627 357.782 442.366 358.141 442.073 358.434 441.714 358.695 441.323 358.891 440.932 359.021 440.508 359.119 440.051 359.152 439.595" style="fill:none;stroke:#000;stroke-linecap:square;stroke-miterlimit:10;stroke-width:2px"/><line x1="359.184" y1="439.595" x2="359.184" y2="369.996" style="fill:none;stroke:#000;stroke-linecap:square;stroke-miterlimit:10;stroke-width:2px"/><polyline points="359.152 369.996 359.119 369.54 359.021 369.084 358.891 368.66 358.695 368.236 358.434 367.878 358.141 367.519 357.782 367.226 357.391 366.965" style="fill:none;stroke:#000;stroke-linecap:square;stroke-miterlimit:10;stroke-width:2px"/><line x1="357.424" y1="366.965" x2="184.215" y2="266.919" style="fill:none;stroke:#000;stroke-linecap:square;stroke-miterlimit:10;stroke-width:2px"/><polyline points="182.487 263.887 182.52 264.344 182.618 264.8 182.748 265.224 182.944 265.615 183.205 266.006 183.498 266.365 183.857 266.658 184.248 266.919" style="fill:none;stroke:#000;stroke-linecap:square;stroke-miterlimit:10;stroke-width:2px"/><line x1="182.455" y1="263.887" x2="182.487" y2="188.356" style="fill:none;stroke:#000;stroke-linecap:square;stroke-miterlimit:10;stroke-width:2px"/><polyline points="182.455 188.356 182.422 188.03 182.324 187.671 182.161 187.378 181.933 187.117 181.672 186.889 181.346 186.726 181.02 186.628 180.694 186.595" style="fill:none;stroke:#000;stroke-linecap:square;stroke-miterlimit:10;stroke-width:2px"/><line x1="180.694" y1="186.595" x2="169.738" y2="186.595" style="fill:none;stroke:#000;stroke-linecap:square;stroke-miterlimit:10;stroke-width:2px"/><polyline points="169.738 186.595 169.379 186.628 169.053 186.726 168.76 186.889 168.499 187.117 168.271 187.378 168.108 187.704 168.01 188.03 167.977 188.388" style="fill:none;stroke:#000;stroke-linecap:square;stroke-miterlimit:10;stroke-width:2px"/><line x1="167.945" y1="188.388" x2="167.945" y2="228.257" style="fill:none;stroke:#000;stroke-linecap:square;stroke-miterlimit:10;stroke-width:2px"/><polyline points="164.456 231.745 164.912 231.712 165.369 231.614 165.793 231.484 166.216 231.288 166.575 231.027 166.934 230.734 167.227 230.375 167.488 229.984 167.684 229.593 167.814 229.169 167.912 228.713 167.945 228.257" style="fill:none;stroke:#000;stroke-linecap:square;stroke-miterlimit:10;stroke-width:2px"/><line x1="164.456" y1="231.745" x2="157.771" y2="231.745" style="fill:none;stroke:#000;stroke-linecap:square;stroke-miterlimit:10;stroke-width:2px"/><polyline points="155.098 229.072 155.13 229.495 155.228 229.887 155.391 230.278 155.619 230.636 155.88 230.962 156.206 231.223 156.565 231.451 156.956 231.614 157.347 231.712 157.771 231.745" style="fill:none;stroke:#000;stroke-linecap:square;stroke-miterlimit:10;stroke-width:2px"/></svg>