<svg id="Capa_1" data-name="Capa 1" xmlns="http://www.w3.org/2000/svg" viewBox="0 0 500 500"><rect width="500" height="500" style="fill:none"/><line x1="217.687" y1="233.375" x2="217.687" y2="233.375" style="fill:none;stroke:#000;stroke-linecap:square;stroke-miterlimit:10;stroke-width:2px"/><line x1="245.402" y1="283.12" x2="245.402" y2="223.758" style="fill:none;stroke:#000;stroke-linecap:square;stroke-miterlimit:10;stroke-width:2px"/><polyline points="245.435 223.758 246.902 224.964 248.435 226.105 250 227.181 251.598 228.191 253.261 229.137 254.956 230.017 256.652 230.832 258.413 231.582 260.206 232.266 262.032 232.853 263.858 233.375 265.717 233.831 267.575 234.19 269.466 234.483 271.358 234.711 273.249 234.842 275.14 234.907 277.064 234.874 278.955 234.809 280.846 234.613 282.737 234.385 284.629 234.059 286.487 233.635 288.346 233.179 290.172 232.625 291.965 232.005 293.726 231.288 295.487 230.538 297.182 229.691 298.845 228.778 300.508 227.8 302.073 226.757 303.638 225.649 305.138 224.475 306.606 223.236 308.008 221.965 309.345 220.628 310.649 219.227 311.888 217.76 313.062 216.26 314.17 214.728 315.214 213.131 316.225 211.501 317.138 209.838 317.985 208.11 318.768 206.383 319.453 204.622 320.105 202.797 320.659 201.004 321.148 199.146 321.54 197.288 321.898 195.397 322.159 193.506 322.322 191.615 322.42 189.725 322.453 187.801 322.387 185.911 322.257 183.987 322.061 182.097 321.768 180.238 321.409 178.348 320.985 176.49 320.464 174.664 319.877 172.838 319.225 171.046 318.475 169.285 317.692 167.557 316.812 165.862 315.866 164.232 314.855 162.602 313.779 161.038 312.638 159.506 311.431 158.006 310.192 156.572 308.856 155.202 307.486 153.866 306.084 152.627 304.584 151.421 303.084 150.247 301.519 149.172 299.889 148.161 298.258 147.216 296.563 146.303 294.835 145.488 293.074 144.771 291.313 144.086 289.487 143.499 287.661 142.978 285.802 142.522 283.944 142.13" style="fill:none;stroke:#000;stroke-linecap:square;stroke-miterlimit:10;stroke-width:2px"/><polyline points="245.435 96.068 245.468 97.894 245.565 99.687 245.761 101.48 245.989 103.272 246.315 105.065 246.707 106.826 247.131 108.586 247.652 110.314 248.239 112.042 248.891 113.737 249.609 115.399 250.391 117.029 251.239 118.626 252.152 120.191 253.098 121.723 254.108 123.223 255.185 124.657 256.326 126.092 257.532 127.428 258.771 128.765 260.043 130.036 261.38 131.242 262.782 132.416 264.217 133.524 265.684 134.567 267.184 135.578 268.749 136.523 270.314 137.403 271.944 138.218 273.575 138.968 275.238 139.653 276.966 140.272 278.662 140.826 280.422 141.315 282.183 141.739 283.944 142.098" style="fill:none;stroke:#000;stroke-linecap:square;stroke-miterlimit:10;stroke-width:2px"/><line x1="245.402" y1="96.068" x2="245.402" y2="93.493" style="fill:none;stroke:#000;stroke-linecap:square;stroke-miterlimit:10;stroke-width:2px"/><polyline points="245.37 93.493 245.337 93.004 245.239 92.547 245.076 92.091 244.848 91.635 244.555 91.243 244.229 90.885 243.837 90.591 243.446 90.363 242.99 90.168 242.5 90.037" style="fill:none;stroke:#000;stroke-linecap:square;stroke-miterlimit:10;stroke-width:2px"/><line x1="242.533" y1="90.005" x2="181.167" y2="78.171" style="fill:none;stroke:#000;stroke-linecap:square;stroke-miterlimit:10;stroke-width:2px"/><polyline points="181.167 78.204 180.775 78.074 180.319 78.041 179.895 78.074 179.471 78.171 179.08 78.334 178.721 78.53 178.395 78.823 178.102 79.149 177.873 79.508 177.71 79.899 177.613 80.323 177.58 80.747" style="fill:none;stroke:#000;stroke-linecap:square;stroke-miterlimit:10;stroke-width:2px"/><line x1="177.547" y1="80.747" x2="177.547" y2="132.285" style="fill:none;stroke:#000;stroke-linecap:square;stroke-miterlimit:10;stroke-width:2px"/><polyline points="177.58 132.285 177.613 132.709 177.71 133.133 177.873 133.524 178.102 133.883 178.363 134.209 178.689 134.47 179.047 134.698 179.439 134.861 179.862 134.959 180.286 134.991" style="fill:none;stroke:#000;stroke-linecap:square;stroke-miterlimit:10;stroke-width:2px"/><line x1="180.286" y1="134.991" x2="188.764" y2="134.991" style="fill:none;stroke:#000;stroke-linecap:square;stroke-miterlimit:10;stroke-width:2px"/><polyline points="188.764 134.959 189.123 134.926 189.449 134.828 189.775 134.665 190.036 134.437 190.264 134.176 190.427 133.85 190.525 133.524 190.558 133.166" style="fill:none;stroke:#000;stroke-linecap:square;stroke-miterlimit:10;stroke-width:2px"/><line x1="190.558" y1="133.166" x2="190.558" y2="96.035" style="fill:none;stroke:#000;stroke-linecap:square;stroke-miterlimit:10;stroke-width:2px"/><polyline points="192.644 94.275 192.351 94.243 192.025 94.275 191.731 94.373 191.471 94.503 191.21 94.666 191.014 94.895 190.818 95.155 190.688 95.416 190.623 95.742 190.59 96.035" style="fill:none;stroke:#000;stroke-linecap:square;stroke-miterlimit:10;stroke-width:2px"/><line x1="192.644" y1="94.243" x2="230.142" y2="99.882" style="fill:none;stroke:#000;stroke-linecap:square;stroke-miterlimit:10;stroke-width:2px"/><polyline points="233.11 102.979 233.044 102.555 232.881 102.099 232.686 101.675 232.457 101.316 232.164 100.958 231.805 100.632 231.447 100.371 231.023 100.176 230.599 100.013 230.142 99.915" style="fill:none;stroke:#000;stroke-linecap:square;stroke-miterlimit:10;stroke-width:2px"/><polyline points="233.142 103.012 233.436 105.098 233.794 107.152 234.218 109.238 234.74 111.259 235.294 113.313 235.946 115.301 236.664 117.29 237.446 119.246 238.327 121.169 239.24 123.06 240.218 124.918 241.294 126.744 242.403 128.537 243.576 130.297 244.816 131.992 246.12 133.655 247.489 135.252 248.924 136.817 250.391 138.316 251.924 139.783 253.489 141.185 255.119 142.522 256.782 143.793 258.51 145.032 260.239 146.205 262.065 147.314 263.891 148.324 265.749 149.302 267.673 150.215 269.597 151.03 271.553 151.812 273.542 152.497 275.564 153.116 277.585 153.67 279.64 154.159 281.727 154.583" style="fill:none;stroke:#000;stroke-linecap:square;stroke-miterlimit:10;stroke-width:2px"/><polyline points="241.816 191.387 242.011 193.017 242.272 194.614 242.631 196.244 243.055 197.809 243.544 199.374 244.131 200.939 244.783 202.438 245.5 203.905 246.315 205.34 247.163 206.741 248.109 208.11 249.087 209.414 250.163 210.686 251.272 211.892 252.446 213.033 253.685 214.141 254.956 215.152 256.293 216.13 257.663 217.043 259.065 217.89 260.532 218.64 261.999 219.357 263.532 219.976 265.097 220.531 266.662 220.987 268.26 221.411 269.858 221.704 271.488 221.965 273.118 222.128 274.781 222.226 276.412 222.226 278.042 222.161 279.705 221.998 281.335 221.769 282.933 221.443 284.531 221.052 286.128 220.596 287.661 220.074 289.194 219.455 290.693 218.77 292.161 218.02 293.563 217.173 294.965 216.293 296.302 215.315 297.574 214.304 298.813 213.228 299.986 212.087 301.128 210.881 302.171 209.61 303.182 208.339 304.128 206.969 305.008 205.568 305.823 204.133 306.54 202.666 307.225 201.167 307.812 199.635 308.334 198.07 308.758 196.505 309.116 194.908 309.41 193.278 309.638 191.648 309.736 190.018 309.801 188.355 309.769 186.726 309.671 185.063 309.475 183.433 309.214 181.803 308.856 180.206 308.432 178.608 307.943 177.044 307.356 175.512 306.703 174.012 305.986 172.512 305.204 171.078 304.356 169.676 303.41 168.307 302.432 167.003 301.389 165.732 300.28 164.526 299.106 163.385 297.867 162.276 296.595 161.233 295.291 160.255 293.922 159.342 292.487 158.495 291.052 157.745 289.552 157.028 288.052 156.409 286.487 155.854 284.922 155.365 283.324 154.942 281.727 154.616" style="fill:none;stroke:#000;stroke-linecap:square;stroke-miterlimit:10;stroke-width:2px"/><polyline points="241.783 191.355 241.685 190.931 241.587 190.507 241.424 190.116 241.196 189.725 240.935 189.399 240.642 189.073 240.283 188.812 239.924 188.584 239.533 188.388 239.109 188.258 238.685 188.193 238.261 188.16" style="fill:none;stroke:#000;stroke-linecap:square;stroke-miterlimit:10;stroke-width:2px"/><line x1="238.261" y1="188.16" x2="235.849" y2="188.16" style="fill:none;stroke:#000;stroke-linecap:square;stroke-miterlimit:10;stroke-width:2px"/><polyline points="235.849 188.16 235.392 188.193 234.936 188.29 234.512 188.421 234.088 188.616 233.697 188.877 233.37 189.203 233.044 189.529 232.784 189.92 232.588 190.344 232.457 190.768 232.36 191.224 232.327 191.681" style="fill:none;stroke:#000;stroke-linecap:square;stroke-miterlimit:10;stroke-width:2px"/><line x1="232.294" y1="191.681" x2="232.294" y2="218.575" style="fill:none;stroke:#000;stroke-linecap:square;stroke-miterlimit:10;stroke-width:2px"/><polyline points="230.468 220.368 230.827 220.335 231.153 220.237 231.479 220.074 231.74 219.846 231.968 219.585 232.131 219.259 232.229 218.933 232.262 218.575" style="fill:none;stroke:#000;stroke-linecap:square;stroke-miterlimit:10;stroke-width:2px"/><line x1="230.468" y1="220.4" x2="206.47" y2="220.4" style="fill:none;stroke:#000;stroke-linecap:square;stroke-miterlimit:10;stroke-width:2px"/><polyline points="206.47 220.4 206.111 220.433 205.785 220.531 205.459 220.694 205.198 220.922 204.97 221.183 204.807 221.509 204.709 221.835 204.676 222.193" style="fill:none;stroke:#000;stroke-linecap:square;stroke-miterlimit:10;stroke-width:2px"/><line x1="204.676" y1="222.193" x2="204.676" y2="274.482" style="fill:none;stroke:#000;stroke-linecap:square;stroke-miterlimit:10;stroke-width:2px"/><polyline points="204.676 274.482 204.709 274.906 204.807 275.329 204.97 275.72 205.198 276.079 205.459 276.405 205.785 276.666 206.144 276.894 206.535 277.057 206.959 277.155 207.383 277.187" style="fill:none;stroke:#000;stroke-linecap:square;stroke-miterlimit:10;stroke-width:2px"/><line x1="207.383" y1="277.187" x2="214.132" y2="277.187" style="fill:none;stroke:#000;stroke-linecap:square;stroke-miterlimit:10;stroke-width:2px"/><polyline points="214.132 277.155 214.589 277.122 215.045 277.024 215.469 276.894 215.893 276.698 216.284 276.438 216.61 276.112 216.937 275.786 217.197 275.395 217.393 274.971 217.523 274.547 217.621 274.091 217.654 273.634" style="fill:none;stroke:#000;stroke-linecap:square;stroke-miterlimit:10;stroke-width:2px"/><line x1="217.687" y1="273.634" x2="217.687" y2="233.375" style="fill:none;stroke:#000;stroke-linecap:square;stroke-miterlimit:10;stroke-width:2px"/><polyline points="219.48 231.582 219.121 231.614 218.795 231.712 218.469 231.875 218.208 232.103 217.98 232.364 217.817 232.69 217.719 233.016 217.687 233.375" style="fill:none;stroke:#000;stroke-linecap:square;stroke-miterlimit:10;stroke-width:2px"/><line x1="219.48" y1="231.549" x2="230.534" y2="231.549" style="fill:none;stroke:#000;stroke-linecap:square;stroke-miterlimit:10;stroke-width:2px"/><polyline points="232.327 233.342 232.294 233.016 232.197 232.657 232.001 232.364 231.805 232.103 231.512 231.875 231.218 231.712 230.892 231.614 230.534 231.582" style="fill:none;stroke:#000;stroke-linecap:square;stroke-miterlimit:10;stroke-width:2px"/><polyline points="232.718 283.12 232.686 270.668 232.62 258.247 232.523 245.795 232.36 233.342" style="fill:none;stroke:#000;stroke-linecap:square;stroke-miterlimit:10;stroke-width:2px"/><polyline points="232.751 283.12 232.784 285.207 232.881 287.26 233.077 289.314 233.338 291.368 233.664 293.422 234.055 295.443 234.512 297.464 235.033 299.485 235.653 301.474 236.338 303.43 237.055 305.353 237.87 307.244 238.751 309.134 239.696 310.992 240.674 312.785 241.75 314.578 242.892 316.306 244.066 318.001 245.305 319.664 246.609 321.261 247.978 322.826 249.38 324.358 250.848 325.825 252.348 327.227 253.913 328.596 255.511 329.9 257.174 331.139 258.869 332.345 260.597 333.453 262.358 334.529 264.184 335.539 266.043 336.485 267.901 337.365 269.792 338.18 271.749 338.93 273.705 339.614 275.662 340.201 277.683 340.755 279.672 341.212 281.727 341.635" style="fill:none;stroke:#000;stroke-linecap:square;stroke-miterlimit:10;stroke-width:2px"/><polyline points="250.685 398.325 251.826 399.466 253 400.574 254.206 401.617 255.478 402.628 256.815 403.541 258.184 404.421 259.586 405.203 261.021 405.953 262.488 406.605 263.988 407.192 265.521 407.713 267.086 408.17 268.651 408.528 270.216 408.822 271.814 409.05 273.444 409.213 275.042 409.278 276.673 409.278 278.27 409.18 279.868 409.017 281.466 408.789 283.063 408.463 284.629 408.105 286.194 407.648 287.694 407.094 289.194 406.507 290.661 405.823 292.096 405.073 293.498 404.29 294.867 403.41 296.171 402.465 297.443 401.454 298.65 400.411 299.823 399.303 300.932 398.129 302.008 396.923 302.986 395.652 303.932 394.315 304.812 392.979 305.627 391.577 306.345 390.143 307.03 388.676 307.616 387.176 308.171 385.644 308.627 384.112 309.019 382.547 309.312 380.95 309.54 379.352 309.703 377.755 309.801 376.125 309.801 374.528 309.736 372.898 309.573 371.3 309.345 369.703 309.051 368.106 308.692 366.541 308.236 365.009 307.714 363.477 307.127 361.977 306.475 360.51 305.725 359.076 304.943 357.674 304.062 356.305 303.149 354.968 302.139 353.697 301.095 352.458 299.986 351.285 298.845 350.176 297.606 349.101 296.367 348.09 295.063 347.145 293.693 346.264 292.324 345.449 290.889 344.7 289.422 344.015 287.922 343.396 286.422 342.874 284.857 342.385 283.292 341.994 281.727 341.668" style="fill:none;stroke:#000;stroke-linecap:square;stroke-miterlimit:10;stroke-width:2px"/><polyline points="250.652 398.357 250.391 398.064 250.065 397.836 249.739 397.64 249.38 397.477 248.989 397.347 248.598 397.249" style="fill:none;stroke:#000;stroke-linecap:square;stroke-miterlimit:10;stroke-width:2px"/><line x1="248.631" y1="397.249" x2="185.047" y2="387.469" style="fill:none;stroke:#000;stroke-linecap:square;stroke-miterlimit:10;stroke-width:2px"/><polyline points="185.08 387.469 184.656 387.437 184.264 387.437 183.873 387.502 183.482 387.632 183.091 387.795 182.765 388.024 182.438 388.284 182.178 388.578 181.917 388.904 181.754 389.262 181.591 389.654 181.493 390.045" style="fill:none;stroke:#000;stroke-linecap:square;stroke-miterlimit:10;stroke-width:2px"/><line x1="181.46" y1="390.045" x2="181.46" y2="396.271" style="fill:none;stroke:#000;stroke-linecap:square;stroke-miterlimit:10;stroke-width:2px"/><polyline points="181.46 396.271 181.493 396.695 181.591 397.086 181.754 397.477 181.949 397.836 182.243 398.162 182.536 398.423 182.895 398.651 183.286 398.814" style="fill:none;stroke:#000;stroke-linecap:square;stroke-miterlimit:10;stroke-width:2px"/><line x1="183.286" y1="398.846" x2="243.837" y2="410.093" style="fill:none;stroke:#000;stroke-linecap:square;stroke-miterlimit:10;stroke-width:2px"/><polyline points="245.468 410.908 245.109 410.615 244.685 410.386 244.261 410.223 243.837 410.126" style="fill:none;stroke:#000;stroke-linecap:square;stroke-miterlimit:10;stroke-width:2px"/><polyline points="245.5 410.875 246.968 412.082 248.5 413.223 250.065 414.298 251.696 415.309 253.326 416.254 255.021 417.134 256.75 417.917 258.51 418.667 260.304 419.351 262.097 419.938 263.923 420.46 265.782 420.883 267.673 421.242 269.532 421.535 271.423 421.763 273.347 421.894 275.238 421.959 277.129 421.926 279.053 421.829 280.944 421.666 282.835 421.405 284.694 421.079 286.552 420.688 288.411 420.199 290.237 419.645 292.03 419.025 293.791 418.308 295.552 417.558 297.247 416.711 298.91 415.798 300.541 414.82 302.139 413.777 303.704 412.668 305.204 411.495 306.638 410.256 308.04 408.985 309.41 407.616 310.681 406.214 311.921 404.779 313.094 403.28 314.203 401.715 315.246 400.15 316.225 398.488 317.17 396.825 317.985 395.13 318.768 393.37 319.485 391.61 320.105 389.817 320.659 387.991 321.148 386.165 321.572 384.307 321.898 382.417 322.159 380.526 322.322 378.635 322.42 376.744 322.453 374.821 322.387 372.93 322.257 371.007 322.061 369.116 321.768 367.226 321.409 365.367 320.953 363.509 320.464 361.684 319.877 359.858 319.192 358.098 318.475 356.338 317.659 354.61 316.779 352.915 315.833 351.252 314.823 349.622 313.779 348.057 312.638 346.525 311.431 345.058 310.16 343.624 308.856 342.255 307.486 340.918 306.051 339.647 304.584 338.441 303.051 337.3 301.486 336.224 299.889 335.213 298.226 334.236 296.563 333.355 294.835 332.54 293.074 331.823 291.28 331.139 289.487 330.552 287.661 330.03 285.802 329.574 283.944 329.183" style="fill:none;stroke:#000;stroke-linecap:square;stroke-miterlimit:10;stroke-width:2px"/><line x1="245.402" y1="283.12" x2="245.402" y2="283.12" style="fill:none;stroke:#000;stroke-linecap:square;stroke-miterlimit:10;stroke-width:2px"/><polyline points="245.435 283.12 245.468 284.946 245.565 286.739 245.761 288.532 245.989 290.325 246.315 292.118 246.707 293.878 247.131 295.638 247.652 297.366 248.239 299.094 248.891 300.789 249.609 302.452 250.391 304.082 251.239 305.679 252.152 307.244 253.098 308.776 254.108 310.275 255.185 311.71 256.326 313.144 257.532 314.481 258.771 315.817 260.043 317.088 261.38 318.295 262.782 319.468 264.217 320.577 265.684 321.62 267.184 322.63 268.749 323.576 270.314 324.456 271.944 325.271 273.575 326.021 275.238 326.705 276.966 327.325 278.662 327.879 280.422 328.368 282.183 328.791 283.944 329.15" style="fill:none;stroke:#000;stroke-linecap:square;stroke-miterlimit:10;stroke-width:2px"/></svg>