<svg id="Capa_1" data-name="Capa 1" xmlns="http://www.w3.org/2000/svg" viewBox="0 0 500 500"><rect width="500" height="500" style="fill:none"/><polyline points="175.689 60.437 175.298 60.405 174.906 60.405 174.515 60.503 174.124 60.601 173.798 60.796 173.472 61.024 173.178 61.285 172.95 61.611 172.754 61.937 172.624 62.296 172.526 62.687 172.493 63.078" style="fill:none;stroke:#000;stroke-linecap:square;stroke-miterlimit:10;stroke-width:2px"/><line x1="172.493" y1="63.078" x2="172.493" y2="114.03" style="fill:none;stroke:#000;stroke-linecap:square;stroke-miterlimit:10;stroke-width:2px"/><polyline points="172.493 114.03 172.526 114.454 172.624 114.845 172.787 115.236 173.015 115.595 173.276 115.921 173.602 116.182 173.961 116.41 174.352 116.573 174.743 116.671 175.167 116.703" style="fill:none;stroke:#000;stroke-linecap:square;stroke-miterlimit:10;stroke-width:2px"/><line x1="175.167" y1="116.703" x2="183.58" y2="116.703" style="fill:none;stroke:#000;stroke-linecap:square;stroke-miterlimit:10;stroke-width:2px"/><polyline points="183.58 116.703 183.938 116.671 184.264 116.573 184.558 116.41 184.819 116.182 185.047 115.921 185.21 115.595 185.308 115.269 185.34 114.91" style="fill:none;stroke:#000;stroke-linecap:square;stroke-miterlimit:10;stroke-width:2px"/><line x1="185.373" y1="114.91" x2="185.373" y2="78.171" style="fill:none;stroke:#000;stroke-linecap:square;stroke-miterlimit:10;stroke-width:2px"/><polyline points="187.427 76.411 187.134 76.378 186.84 76.411 186.547 76.509 186.253 76.639 186.025 76.802 185.797 77.03 185.634 77.291 185.504 77.552 185.438 77.878 185.406 78.171" style="fill:none;stroke:#000;stroke-linecap:square;stroke-miterlimit:10;stroke-width:2px"/><line x1="187.427" y1="76.378" x2="231.675" y2="83.061" style="fill:none;stroke:#000;stroke-linecap:square;stroke-miterlimit:10;stroke-width:2px"/><polyline points="232.881 83.518 232.621 83.387 232.294 83.257 232.001 83.159 231.675 83.094" style="fill:none;stroke:#000;stroke-linecap:square;stroke-miterlimit:10;stroke-width:2px"/><line x1="232.914" y1="83.485" x2="313.192" y2="129.873" style="fill:none;stroke:#000;stroke-linecap:square;stroke-miterlimit:10;stroke-width:2px"/><polyline points="314.92 132.905 314.888 132.448 314.79 131.992 314.66 131.568 314.464 131.177 314.203 130.786 313.91 130.427 313.551 130.134 313.16 129.873" style="fill:none;stroke:#000;stroke-linecap:square;stroke-miterlimit:10;stroke-width:2px"/><line x1="314.953" y1="132.905" x2="314.953" y2="202.373" style="fill:none;stroke:#000;stroke-linecap:square;stroke-miterlimit:10;stroke-width:2px"/><polyline points="309.703 205.405 310.095 205.6 310.518 205.731 310.975 205.828 311.431 205.861 311.888 205.828 312.344 205.731 312.768 205.6 313.192 205.405 313.551 205.144 313.91 204.851 314.203 204.492 314.464 204.101 314.66 203.71 314.79 203.286 314.888 202.829 314.92 202.373" style="fill:none;stroke:#000;stroke-linecap:square;stroke-miterlimit:10;stroke-width:2px"/><line x1="309.671" y1="205.437" x2="231.936" y2="160.516" style="fill:none;stroke:#000;stroke-linecap:square;stroke-miterlimit:10;stroke-width:2px"/><polyline points="231.903 160.516 231.512 160.32 231.088 160.19 230.632 160.092 230.175 160.06 229.719 160.092 229.262 160.19 228.838 160.32 228.414 160.516 228.056 160.777 227.697 161.07 227.403 161.429 227.143 161.787 226.947 162.211 226.816 162.635 226.719 163.091 226.686 163.548" style="fill:none;stroke:#000;stroke-linecap:square;stroke-miterlimit:10;stroke-width:2px"/><line x1="226.653" y1="163.548" x2="226.653" y2="199.439" style="fill:none;stroke:#000;stroke-linecap:square;stroke-miterlimit:10;stroke-width:2px"/><polyline points="224.86 201.232 225.219 201.199 225.545 201.102 225.838 200.939 226.099 200.711 226.327 200.45 226.49 200.124 226.588 199.798 226.621 199.439" style="fill:none;stroke:#000;stroke-linecap:square;stroke-miterlimit:10;stroke-width:2px"/><line x1="224.86" y1="201.232" x2="201.122" y2="201.232" style="fill:none;stroke:#000;stroke-linecap:square;stroke-miterlimit:10;stroke-width:2px"/><polyline points="201.122 201.232 200.764 201.265 200.437 201.362 200.144 201.525 199.883 201.754 199.655 202.014 199.492 202.34 199.394 202.666 199.361 203.025" style="fill:none;stroke:#000;stroke-linecap:square;stroke-miterlimit:10;stroke-width:2px"/><line x1="199.329" y1="203.025" x2="199.329" y2="254.759" style="fill:none;stroke:#000;stroke-linecap:square;stroke-miterlimit:10;stroke-width:2px"/><polyline points="199.329 254.759 199.361 255.183 199.459 255.574 199.622 255.966 199.851 256.324 200.111 256.65 200.437 256.911 200.796 257.139 201.187 257.302 201.579 257.4 202.003 257.433" style="fill:none;stroke:#000;stroke-linecap:square;stroke-miterlimit:10;stroke-width:2px"/><line x1="202.003" y1="257.465" x2="208.687" y2="257.465" style="fill:none;stroke:#000;stroke-linecap:square;stroke-miterlimit:10;stroke-width:2px"/><polyline points="208.687 257.433 209.144 257.4 209.6 257.302 210.024 257.172 210.448 256.976 210.806 256.715 211.165 256.422 211.459 256.063 211.719 255.672 211.915 255.281 212.046 254.857 212.143 254.401 212.176 253.944" style="fill:none;stroke:#000;stroke-linecap:square;stroke-miterlimit:10;stroke-width:2px"/><line x1="212.176" y1="253.944" x2="212.176" y2="214.076" style="fill:none;stroke:#000;stroke-linecap:square;stroke-miterlimit:10;stroke-width:2px"/><polyline points="213.969 212.283 213.611 212.316 213.285 212.414 212.991 212.576 212.73 212.805 212.502 213.065 212.339 213.391 212.241 213.717 212.209 214.076" style="fill:none;stroke:#000;stroke-linecap:square;stroke-miterlimit:10;stroke-width:2px"/><line x1="213.969" y1="212.283" x2="224.925" y2="212.283" style="fill:none;stroke:#000;stroke-linecap:square;stroke-miterlimit:10;stroke-width:2px"/><polyline points="226.686 214.043 226.653 213.717 226.556 213.359 226.393 213.065 226.164 212.805 225.903 212.576 225.577 212.414 225.251 212.316 224.925 212.283" style="fill:none;stroke:#000;stroke-linecap:square;stroke-miterlimit:10;stroke-width:2px"/><line x1="226.719" y1="214.043" x2="226.686" y2="289.314" style="fill:none;stroke:#000;stroke-linecap:square;stroke-miterlimit:10;stroke-width:2px"/><polyline points="226.719 289.314 226.751 289.771 226.849 290.227 226.98 290.651 227.175 291.042 227.436 291.433 227.729 291.792 228.088 292.085 228.479 292.346" style="fill:none;stroke:#000;stroke-linecap:square;stroke-miterlimit:10;stroke-width:2px"/><line x1="228.447" y1="292.346" x2="313.192" y2="341.309" style="fill:none;stroke:#000;stroke-linecap:square;stroke-miterlimit:10;stroke-width:2px"/><polyline points="314.92 344.341 314.888 343.885 314.79 343.428 314.66 343.005 314.464 342.581 314.203 342.222 313.91 341.864 313.551 341.57 313.16 341.309" style="fill:none;stroke:#000;stroke-linecap:square;stroke-miterlimit:10;stroke-width:2px"/><line x1="314.953" y1="344.341" x2="314.953" y2="413.809" style="fill:none;stroke:#000;stroke-linecap:square;stroke-miterlimit:10;stroke-width:2px"/><polyline points="309.703 416.841 310.095 417.037 310.518 417.167 310.975 417.265 311.431 417.297 311.888 417.265 312.344 417.167 312.768 417.037 313.192 416.841 313.551 416.58 313.91 416.287 314.203 415.928 314.464 415.537 314.66 415.146 314.79 414.722 314.888 414.266 314.92 413.809" style="fill:none;stroke:#000;stroke-linecap:square;stroke-miterlimit:10;stroke-width:2px"/><line x1="309.671" y1="416.841" x2="238.718" y2="375.864" style="fill:none;stroke:#000;stroke-linecap:square;stroke-miterlimit:10;stroke-width:2px"/><polyline points="238.718 375.897 238.425 375.766 238.098 375.636 237.805 375.538 237.479 375.473" style="fill:none;stroke:#000;stroke-linecap:square;stroke-miterlimit:10;stroke-width:2px"/><line x1="237.479" y1="375.44" x2="179.928" y2="366.606" style="fill:none;stroke:#000;stroke-linecap:square;stroke-miterlimit:10;stroke-width:2px"/><polyline points="179.928 366.574 179.504 366.541 179.113 366.541 178.721 366.606 178.33 366.737 177.939 366.9 177.613 367.128 177.287 367.356 177.026 367.649 176.765 368.008 176.602 368.367 176.439 368.725 176.341 369.116" style="fill:none;stroke:#000;stroke-linecap:square;stroke-miterlimit:10;stroke-width:2px"/><line x1="176.341" y1="369.149" x2="176.341" y2="375.31" style="fill:none;stroke:#000;stroke-linecap:square;stroke-miterlimit:10;stroke-width:2px"/><polyline points="176.374 375.31 176.406 375.734 176.504 376.125 176.667 376.516 176.863 376.875 177.124 377.168 177.45 377.462 177.808 377.657 178.167 377.82" style="fill:none;stroke:#000;stroke-linecap:square;stroke-miterlimit:10;stroke-width:2px"/><line x1="178.167" y1="377.853" x2="234.903" y2="388.415" style="fill:none;stroke:#000;stroke-linecap:square;stroke-miterlimit:10;stroke-width:2px"/><polyline points="235.979 388.806 235.718 388.676 235.457 388.578 235.164 388.48 234.903 388.415" style="fill:none;stroke:#000;stroke-linecap:square;stroke-miterlimit:10;stroke-width:2px"/><line x1="236.012" y1="388.806" x2="323.333" y2="439.237" style="fill:none;stroke:#000;stroke-linecap:square;stroke-miterlimit:10;stroke-width:2px"/><polyline points="323.366 439.237 323.724 439.4 324.116 439.53 324.539 439.595 324.931 439.595 325.355 439.53 325.746 439.4 326.105 439.237 326.431 439.008 326.757 438.715 326.985 438.389 327.213 438.03 327.344 437.672 327.441 437.281 327.474 436.857" style="fill:none;stroke:#000;stroke-linecap:square;stroke-miterlimit:10;stroke-width:2px"/><line x1="327.507" y1="436.857" x2="327.507" y2="336.648" style="fill:none;stroke:#000;stroke-linecap:square;stroke-miterlimit:10;stroke-width:2px"/><polyline points="327.474 336.648 327.441 336.289 327.376 335.931 327.278 335.605 327.115 335.279 326.92 334.985 326.659 334.724 326.398 334.464 326.105 334.268" style="fill:none;stroke:#000;stroke-linecap:square;stroke-miterlimit:10;stroke-width:2px"/><line x1="326.105" y1="334.268" x2="240.642" y2="284.881" style="fill:none;stroke:#000;stroke-linecap:square;stroke-miterlimit:10;stroke-width:2px"/><polyline points="239.272 282.501 239.305 282.86 239.37 283.218 239.468 283.544 239.631 283.87 239.827 284.164 240.087 284.424 240.348 284.685 240.642 284.881" style="fill:none;stroke:#000;stroke-linecap:square;stroke-miterlimit:10;stroke-width:2px"/><line x1="239.24" y1="282.501" x2="239.24" y2="184.02" style="fill:none;stroke:#000;stroke-linecap:square;stroke-miterlimit:10;stroke-width:2px"/><polyline points="243.381 181.64 243.022 181.477 242.631 181.347 242.207 181.282 241.816 181.282 241.392 181.347 241.001 181.477 240.642 181.64 240.316 181.868 239.99 182.162 239.761 182.488 239.533 182.846 239.403 183.205 239.305 183.596 239.272 184.02" style="fill:none;stroke:#000;stroke-linecap:square;stroke-miterlimit:10;stroke-width:2px"/><line x1="243.381" y1="181.64" x2="323.333" y2="227.8" style="fill:none;stroke:#000;stroke-linecap:square;stroke-miterlimit:10;stroke-width:2px"/><polyline points="323.366 227.8 323.724 227.963 324.116 228.094 324.539 228.159 324.931 228.159 325.355 228.094 325.746 227.963 326.105 227.8 326.431 227.572 326.757 227.279 326.985 226.953 327.213 226.594 327.344 226.235 327.441 225.844 327.474 225.42" style="fill:none;stroke:#000;stroke-linecap:square;stroke-miterlimit:10;stroke-width:2px"/><line x1="327.507" y1="225.42" x2="327.507" y2="125.244" style="fill:none;stroke:#000;stroke-linecap:square;stroke-miterlimit:10;stroke-width:2px"/><polyline points="327.474 125.244 327.441 124.885 327.376 124.527 327.278 124.201 327.115 123.875 326.92 123.582 326.659 123.321 326.398 123.06 326.105 122.864" style="fill:none;stroke:#000;stroke-linecap:square;stroke-miterlimit:10;stroke-width:2px"/><line x1="326.105" y1="122.832" x2="239.761" y2="72.988" style="fill:none;stroke:#000;stroke-linecap:square;stroke-miterlimit:10;stroke-width:2px"/><polyline points="239.761 72.988 239.533 72.858 239.24 72.76 238.979 72.662 238.685 72.597" style="fill:none;stroke:#000;stroke-linecap:square;stroke-miterlimit:10;stroke-width:2px"/><line x1="238.685" y1="72.564" x2="175.689" y2="60.437" style="fill:none;stroke:#000;stroke-linecap:square;stroke-miterlimit:10;stroke-width:2px"/></svg>