<svg id="Capa_1" data-name="Capa 1" xmlns="http://www.w3.org/2000/svg" viewBox="0 0 500 500"><rect width="500" height="500" style="fill:none"/><polyline points="269.743 100.811 269.972 102.539 270.265 104.299 270.624 106.027 271.048 107.722 271.569 109.417 272.124 111.08 272.743 112.742 273.428 114.372 274.211 115.937 275.026 117.502 275.906 119.034 276.819 120.534 277.83 122.001 278.873 123.402 279.982 124.771 281.156 126.108 282.362 127.412 283.601 128.618 284.906 129.824 286.275 130.965 287.677 132.041 289.112 133.052 290.579 134.03 292.079 134.942 293.644 135.79 295.209 136.572" style="fill:none;stroke:#000;stroke-linecap:square;stroke-miterlimit:10;stroke-width:2px"/><polyline points="297.166 139.734 297.133 139.245 297.035 138.756 296.872 138.3 296.612 137.876 296.351 137.485 295.992 137.126 295.601 136.833 295.177 136.572" style="fill:none;stroke:#000;stroke-linecap:square;stroke-miterlimit:10;stroke-width:2px"/><line x1="297.199" y1="139.734" x2="297.199" y2="158.446" style="fill:none;stroke:#000;stroke-linecap:square;stroke-miterlimit:10;stroke-width:2px"/><polyline points="295.177 161.608 295.601 161.347 295.992 161.054 296.318 160.695 296.612 160.304 296.872 159.88 297.035 159.424 297.133 158.935 297.166 158.446" style="fill:none;stroke:#000;stroke-linecap:square;stroke-miterlimit:10;stroke-width:2px"/><polyline points="295.209 161.641 293.579 162.456 291.981 163.303 290.449 164.249 288.949 165.259 287.482 166.302 286.047 167.443 284.677 168.617 283.341 169.823 282.036 171.094 280.83 172.431 279.656 173.833 278.547 175.234 277.471 176.701 276.461 178.234 275.548 179.766 274.667 181.363 273.852 182.993 273.102 184.623 272.45 186.318 271.83 188.013 271.276 189.741 270.82 191.501 270.428 193.262 270.102 195.055 269.841 196.848 269.646 198.64 269.548 200.433 269.515 202.259" style="fill:none;stroke:#000;stroke-linecap:square;stroke-miterlimit:10;stroke-width:2px"/><line x1="269.515" y1="202.259" x2="269.515" y2="308.564" style="fill:none;stroke:#000;stroke-linecap:square;stroke-miterlimit:10;stroke-width:2px"/><polyline points="269.515 308.564 269.548 310.389 269.646 312.182 269.841 313.975 270.102 315.768 270.428 317.561 270.82 319.322 271.276 321.082 271.83 322.81 272.45 324.505 273.102 326.2 273.852 327.83 274.667 329.46 275.548 331.057 276.461 332.589 277.471 334.121 278.547 335.588 279.656 336.99 280.83 338.392 282.036 339.728 283.341 341 284.677 342.206 286.047 343.379 287.482 344.52 288.949 345.564 290.449 346.574 291.981 347.52 293.579 348.367 295.209 349.182" style="fill:none;stroke:#000;stroke-linecap:square;stroke-miterlimit:10;stroke-width:2px"/><polyline points="297.166 352.344 297.133 351.855 297.035 351.366 296.872 350.91 296.612 350.486 296.318 350.095 295.992 349.736 295.601 349.443 295.177 349.182" style="fill:none;stroke:#000;stroke-linecap:square;stroke-miterlimit:10;stroke-width:2px"/><line x1="297.199" y1="352.344" x2="297.199" y2="371.056" style="fill:none;stroke:#000;stroke-linecap:square;stroke-miterlimit:10;stroke-width:2px"/><polyline points="295.177 374.218 295.601 373.957 295.992 373.664 296.318 373.305 296.612 372.914 296.872 372.49 297.035 372.034 297.133 371.545 297.166 371.056" style="fill:none;stroke:#000;stroke-linecap:square;stroke-miterlimit:10;stroke-width:2px"/><polyline points="295.209 374.251 293.579 375.033 292.014 375.913 290.482 376.859 288.982 377.837 287.514 378.88 286.112 379.988 284.743 381.162 283.406 382.368 282.134 383.639 280.928 384.943 279.754 386.312 278.645 387.714 277.569 389.181 276.591 390.68 275.645 392.213 274.765 393.777 273.95 395.375 273.2 397.005 272.515 398.667 271.928 400.362 271.374 402.09 270.885 403.818 270.493 405.578 270.135 407.339 269.874 409.099 269.678 410.892" style="fill:none;stroke:#000;stroke-linecap:square;stroke-miterlimit:10;stroke-width:2px"/><polyline points="265.537 413.989 266.026 414.054 266.515 414.054 267.005 413.956 267.461 413.826 267.885 413.597 268.309 413.337 268.667 413.011 268.994 412.652 269.254 412.261 269.45 411.805 269.58 411.348 269.678 410.859" style="fill:none;stroke:#000;stroke-linecap:square;stroke-miterlimit:10;stroke-width:2px"/><line x1="265.537" y1="414.021" x2="208.442" y2="403.427" style="fill:none;stroke:#000;stroke-linecap:square;stroke-miterlimit:10;stroke-width:2px"/><polyline points="206.649 400.884 206.682 401.308 206.779 401.699 206.943 402.09 207.138 402.449 207.399 402.742 207.725 403.035 208.084 403.231 208.442 403.394" style="fill:none;stroke:#000;stroke-linecap:square;stroke-miterlimit:10;stroke-width:2px"/><line x1="206.649" y1="400.884" x2="206.649" y2="394.723" style="fill:none;stroke:#000;stroke-linecap:square;stroke-miterlimit:10;stroke-width:2px"/><polyline points="210.236 392.147 209.812 392.115 209.421 392.115 209.029 392.18 208.638 392.31 208.247 392.473 207.921 392.702 207.595 392.93 207.334 393.223 207.073 393.582 206.91 393.94 206.747 394.299 206.649 394.69" style="fill:none;stroke:#000;stroke-linecap:square;stroke-miterlimit:10;stroke-width:2px"/><line x1="210.203" y1="392.18" x2="255.983" y2="399.189" style="fill:none;stroke:#000;stroke-linecap:square;stroke-miterlimit:10;stroke-width:2px"/><polyline points="255.983 399.189 256.472 399.221 256.962 399.189 257.418 399.091 257.907 398.928 258.331 398.7 258.722 398.439 259.081 398.08 259.374 397.689 259.635 397.265 259.831 396.842" style="fill:none;stroke:#000;stroke-linecap:square;stroke-miterlimit:10;stroke-width:2px"/><polyline points="283.08 366.688 281.449 367.763 279.884 368.904 278.352 370.111 276.884 371.349 275.417 372.653 274.015 373.99 272.678 375.359 271.374 376.793 270.102 378.26 268.896 379.792 267.754 381.357 266.646 382.955 265.602 384.584 264.592 386.247 263.646 387.942 262.766 389.67 261.95 391.43 261.2 393.191 260.483 395.016 259.864 396.842" style="fill:none;stroke:#000;stroke-linecap:square;stroke-miterlimit:10;stroke-width:2px"/><polyline points="283.047 366.655 283.406 366.394 283.732 366.101 283.993 365.742 284.221 365.384 284.417 364.993 284.547 364.569 284.612 364.145 284.645 363.721" style="fill:none;stroke:#000;stroke-linecap:square;stroke-miterlimit:10;stroke-width:2px"/><line x1="284.645" y1="363.721" x2="284.645" y2="359.679" style="fill:none;stroke:#000;stroke-linecap:square;stroke-miterlimit:10;stroke-width:2px"/><polyline points="284.645 359.679 284.612 359.255 284.547 358.831 284.417 358.408 284.221 358.016 283.993 357.658 283.732 357.299 283.406 357.006 283.047 356.745" style="fill:none;stroke:#000;stroke-linecap:square;stroke-miterlimit:10;stroke-width:2px"/><polyline points="256.962 308.564 256.994 310.618 257.092 312.639 257.288 314.66 257.548 316.681 257.875 318.702 258.266 320.723 258.722 322.712 259.277 324.668 259.864 326.624 260.548 328.547 261.298 330.438 262.081 332.296 262.961 334.154 263.907 335.98 264.918 337.74 265.961 339.468 267.102 341.195 268.276 342.825 269.548 344.455 270.82 346.02 272.189 347.552 273.591 349.019 275.058 350.453 276.558 351.823 278.123 353.127 279.721 354.398 281.384 355.604 283.08 356.745" style="fill:none;stroke:#000;stroke-linecap:square;stroke-miterlimit:10;stroke-width:2px"/><line x1="256.962" y1="308.564" x2="256.962" y2="241.378" style="fill:none;stroke:#000;stroke-linecap:square;stroke-miterlimit:10;stroke-width:2px"/><polyline points="256.929 241.378 256.896 240.921 256.799 240.465 256.668 240.041 256.472 239.65 256.212 239.259 255.918 238.9 255.559 238.607 255.201 238.346 254.777 238.15 254.353 238.02 253.896 237.922 253.44 237.89" style="fill:none;stroke:#000;stroke-linecap:square;stroke-miterlimit:10;stroke-width:2px"/><line x1="253.44" y1="237.857" x2="244.277" y2="237.857" style="fill:none;stroke:#000;stroke-linecap:square;stroke-miterlimit:10;stroke-width:2px"/><polyline points="244.277 237.89 243.919 237.922 243.593 238.02 243.299 238.183 243.038 238.411 242.81 238.672 242.647 238.965 242.549 239.291 242.517 239.65" style="fill:none;stroke:#000;stroke-linecap:square;stroke-miterlimit:10;stroke-width:2px"/><line x1="242.484" y1="239.65" x2="242.484" y2="279.518" style="fill:none;stroke:#000;stroke-linecap:square;stroke-miterlimit:10;stroke-width:2px"/><polyline points="238.963 283.006 239.419 282.974 239.876 282.876 240.299 282.746 240.723 282.55 241.082 282.289 241.441 281.996 241.734 281.637 241.995 281.246 242.191 280.855 242.321 280.431 242.419 279.975 242.451 279.518" style="fill:none;stroke:#000;stroke-linecap:square;stroke-miterlimit:10;stroke-width:2px"/><line x1="238.963" y1="283.039" x2="232.311" y2="283.039" style="fill:none;stroke:#000;stroke-linecap:square;stroke-miterlimit:10;stroke-width:2px"/><polyline points="229.637 280.333 229.67 280.757 229.767 281.148 229.93 281.539 230.159 281.898 230.419 282.224 230.746 282.485 231.104 282.713 231.496 282.876 231.887 282.974 232.311 283.006" style="fill:none;stroke:#000;stroke-linecap:square;stroke-miterlimit:10;stroke-width:2px"/><line x1="229.604" y1="280.333" x2="229.604" y2="228.599" style="fill:none;stroke:#000;stroke-linecap:square;stroke-miterlimit:10;stroke-width:2px"/><polyline points="231.398 226.839 231.039 226.871 230.713 226.969 230.419 227.132 230.159 227.36 229.93 227.621 229.767 227.914 229.67 228.24 229.637 228.599" style="fill:none;stroke:#000;stroke-linecap:square;stroke-miterlimit:10;stroke-width:2px"/><line x1="231.398" y1="226.806" x2="253.44" y2="226.806" style="fill:none;stroke:#000;stroke-linecap:square;stroke-miterlimit:10;stroke-width:2px"/><polyline points="253.44 226.773 253.896 226.741 254.353 226.643 254.777 226.512 255.201 226.317 255.559 226.056 255.918 225.763 256.212 225.404 256.472 225.013 256.668 224.622 256.799 224.198 256.896 223.742 256.929 223.285" style="fill:none;stroke:#000;stroke-linecap:square;stroke-miterlimit:10;stroke-width:2px"/><line x1="256.962" y1="223.285" x2="256.962" y2="202.259" style="fill:none;stroke:#000;stroke-linecap:square;stroke-miterlimit:10;stroke-width:2px"/><polyline points="283.08 154.078 281.384 155.219 279.721 156.425 278.123 157.696 276.558 159 275.058 160.369 273.591 161.804 272.189 163.271 270.82 164.803 269.548 166.368 268.276 167.998 267.102 169.627 265.961 171.355 264.918 173.083 263.907 174.843 262.961 176.669 262.081 178.527 261.298 180.385 260.548 182.276 259.864 184.199 259.277 186.155 258.722 188.111 258.266 190.1 257.875 192.121 257.548 194.142 257.288 196.163 257.092 198.184 256.994 200.205 256.962 202.259" style="fill:none;stroke:#000;stroke-linecap:square;stroke-miterlimit:10;stroke-width:2px"/><polyline points="283.047 154.045 283.406 153.784 283.732 153.491 283.993 153.132 284.221 152.774 284.417 152.383 284.547 151.959 284.612 151.535 284.645 151.111" style="fill:none;stroke:#000;stroke-linecap:square;stroke-miterlimit:10;stroke-width:2px"/><line x1="284.645" y1="151.111" x2="284.645" y2="147.069" style="fill:none;stroke:#000;stroke-linecap:square;stroke-miterlimit:10;stroke-width:2px"/><polyline points="284.645 147.069 284.612 146.645 284.547 146.221 284.417 145.798 284.221 145.407 283.993 145.048 283.732 144.689 283.406 144.396 283.047 144.135" style="fill:none;stroke:#000;stroke-linecap:square;stroke-miterlimit:10;stroke-width:2px"/><polyline points="258.755 110.298 259.277 112.188 259.864 114.014 260.483 115.839 261.2 117.665 261.95 119.425 262.798 121.186 263.679 122.913 264.592 124.608 265.602 126.271 266.646 127.901 267.754 129.498 268.928 131.03 270.135 132.563 271.374 134.03 272.678 135.464 274.048 136.833 275.45 138.17 276.884 139.473 278.384 140.712 279.884 141.886 281.449 143.027 283.08 144.135" style="fill:none;stroke:#000;stroke-linecap:square;stroke-miterlimit:10;stroke-width:2px"/><polyline points="258.722 110.33 258.592 109.939 258.429 109.58 258.201 109.222 257.94 108.896 257.679 108.602 257.353 108.374 256.994 108.146 256.635 107.983 256.244 107.853 255.853 107.755" style="fill:none;stroke:#000;stroke-linecap:square;stroke-miterlimit:10;stroke-width:2px"/><line x1="255.853" y1="107.722" x2="217.735" y2="101.985" style="fill:none;stroke:#000;stroke-linecap:square;stroke-miterlimit:10;stroke-width:2px"/><polyline points="217.703 102.017 217.409 101.985 217.116 102.017 216.822 102.115 216.529 102.246 216.301 102.409 216.072 102.637 215.909 102.865 215.779 103.158 215.714 103.452 215.681 103.745" style="fill:none;stroke:#000;stroke-linecap:square;stroke-miterlimit:10;stroke-width:2px"/><line x1="215.649" y1="103.745" x2="215.649" y2="140.517" style="fill:none;stroke:#000;stroke-linecap:square;stroke-miterlimit:10;stroke-width:2px"/><polyline points="213.855 142.277 214.214 142.244 214.54 142.147 214.833 141.984 215.094 141.755 215.323 141.495 215.486 141.201 215.583 140.875 215.616 140.517" style="fill:none;stroke:#000;stroke-linecap:square;stroke-miterlimit:10;stroke-width:2px"/><line x1="213.855" y1="142.31" x2="205.475" y2="142.31" style="fill:none;stroke:#000;stroke-linecap:square;stroke-miterlimit:10;stroke-width:2px"/><polyline points="202.801 139.604 202.834 140.028 202.932 140.419 203.095 140.81 203.323 141.169 203.584 141.495 203.91 141.755 204.269 141.984 204.66 142.147 205.051 142.244 205.475 142.277" style="fill:none;stroke:#000;stroke-linecap:square;stroke-miterlimit:10;stroke-width:2px"/><line x1="202.801" y1="139.604" x2="202.801" y2="88.619" style="fill:none;stroke:#000;stroke-linecap:square;stroke-miterlimit:10;stroke-width:2px"/><polyline points="206.356 86.109 205.932 85.979 205.508 85.946 205.084 85.979 204.693 86.077 204.301 86.207 203.943 86.435 203.617 86.729 203.323 87.022 203.095 87.381 202.932 87.772 202.834 88.195 202.801 88.619" style="fill:none;stroke:#000;stroke-linecap:square;stroke-miterlimit:10;stroke-width:2px"/><line x1="206.356" y1="86.077" x2="266.874" y2="97.747" style="fill:none;stroke:#000;stroke-linecap:square;stroke-miterlimit:10;stroke-width:2px"/><polyline points="269.678 100.811 269.613 100.387 269.483 99.964 269.287 99.54 269.059 99.181 268.798 98.823 268.472 98.529 268.113 98.269 267.722 98.04 267.298 97.877 266.874 97.78" style="fill:none;stroke:#000;stroke-linecap:square;stroke-miterlimit:10;stroke-width:2px"/></svg>