<svg id="Capa_1" data-name="Capa 1" xmlns="http://www.w3.org/2000/svg" viewBox="0 0 500 500"><rect width="500" height="500" style="fill:none"/><polyline points="232.034 100.502 231.74 100.469 231.414 100.502 231.121 100.599 230.86 100.73 230.599 100.893 230.403 101.121 230.208 101.382 230.077 101.642 230.012 101.968 229.979 102.262" style="fill:none;stroke:#000;stroke-linecap:square;stroke-miterlimit:10;stroke-width:2px"/><line x1="232.066" y1="100.469" x2="269.499" y2="106.109" style="fill:none;stroke:#000;stroke-linecap:square;stroke-miterlimit:10;stroke-width:2px"/><polyline points="271.684 108.097 271.553 107.738 271.39 107.38 271.162 107.054 270.901 106.761 270.575 106.532 270.249 106.337 269.89 106.206 269.499 106.141" style="fill:none;stroke:#000;stroke-linecap:square;stroke-miterlimit:10;stroke-width:2px"/><line x1="271.684" y1="108.097" x2="271.684" y2="224.801" style="fill:none;stroke:#000;stroke-linecap:square;stroke-miterlimit:10;stroke-width:2px"/><polyline points="269.89 226.594 270.249 226.561 270.575 226.464 270.901 226.301 271.162 226.072 271.39 225.812 271.553 225.486 271.651 225.16 271.684 224.801" style="fill:none;stroke:#000;stroke-linecap:square;stroke-miterlimit:10;stroke-width:2px"/><line x1="269.89" y1="226.594" x2="245.892" y2="226.594" style="fill:none;stroke:#000;stroke-linecap:square;stroke-miterlimit:10;stroke-width:2px"/><polyline points="245.892 226.627 245.533 226.659 245.207 226.757 244.881 226.92 244.62 227.148 244.392 227.409 244.229 227.735 244.131 228.061 244.098 228.42" style="fill:none;stroke:#000;stroke-linecap:square;stroke-miterlimit:10;stroke-width:2px"/><line x1="244.066" y1="228.42" x2="244.066" y2="280.708" style="fill:none;stroke:#000;stroke-linecap:square;stroke-miterlimit:10;stroke-width:2px"/><polyline points="244.098 280.708 244.131 281.132 244.229 281.556 244.392 281.947 244.62 282.305 244.881 282.631 245.207 282.892 245.565 283.12 245.957 283.283 246.381 283.381 246.805 283.414" style="fill:none;stroke:#000;stroke-linecap:square;stroke-miterlimit:10;stroke-width:2px"/><line x1="246.805" y1="283.414" x2="253.522" y2="283.414" style="fill:none;stroke:#000;stroke-linecap:square;stroke-miterlimit:10;stroke-width:2px"/><polyline points="253.522 283.381 253.978 283.349 254.435 283.251 254.858 283.12 255.282 282.925 255.674 282.664 256 282.338 256.326 282.012 256.587 281.621 256.782 281.197 256.913 280.773 257.01 280.317 257.043 279.861" style="fill:none;stroke:#000;stroke-linecap:square;stroke-miterlimit:10;stroke-width:2px"/><line x1="257.076" y1="279.861" x2="257.076" y2="239.601" style="fill:none;stroke:#000;stroke-linecap:square;stroke-miterlimit:10;stroke-width:2px"/><polyline points="258.902 237.808 258.543 237.841 258.217 237.938 257.891 238.101 257.63 238.33 257.402 238.59 257.239 238.916 257.141 239.242 257.108 239.601" style="fill:none;stroke:#000;stroke-linecap:square;stroke-miterlimit:10;stroke-width:2px"/><line x1="258.902" y1="237.775" x2="269.955" y2="237.775" style="fill:none;stroke:#000;stroke-linecap:square;stroke-miterlimit:10;stroke-width:2px"/><polyline points="271.749 239.568 271.716 239.242 271.618 238.884 271.423 238.59 271.227 238.33 270.934 238.101 270.64 237.938 270.314 237.841 269.955 237.808" style="fill:none;stroke:#000;stroke-linecap:square;stroke-miterlimit:10;stroke-width:2px"/><line x1="271.749" y1="239.568" x2="271.684" y2="396.825" style="fill:none;stroke:#000;stroke-linecap:square;stroke-miterlimit:10;stroke-width:2px"/><polyline points="267.64 400.313 268.129 400.346 268.651 400.313 269.14 400.216 269.597 400.053 270.053 399.792 270.445 399.498 270.803 399.14 271.129 398.749 271.358 398.292 271.553 397.836 271.651 397.314 271.684 396.825" style="fill:none;stroke:#000;stroke-linecap:square;stroke-miterlimit:10;stroke-width:2px"/><line x1="267.608" y1="400.313" x2="224.469" y2="393.696" style="fill:none;stroke:#000;stroke-linecap:square;stroke-miterlimit:10;stroke-width:2px"/><polyline points="224.469 393.696 224.045 393.663 223.654 393.663 223.262 393.728 222.871 393.859 222.48 394.022 222.154 394.25 221.828 394.511 221.567 394.804 221.306 395.13 221.143 395.489 220.98 395.88 220.882 396.271" style="fill:none;stroke:#000;stroke-linecap:square;stroke-miterlimit:10;stroke-width:2px"/><line x1="220.849" y1="396.271" x2="220.849" y2="402.498" style="fill:none;stroke:#000;stroke-linecap:square;stroke-miterlimit:10;stroke-width:2px"/><polyline points="220.882 402.498 220.915 402.921 221.012 403.313 221.175 403.704 221.371 404.062 221.665 404.388 221.958 404.649 222.317 404.877 222.708 405.04" style="fill:none;stroke:#000;stroke-linecap:square;stroke-miterlimit:10;stroke-width:2px"/><line x1="222.675" y1="405.073" x2="279.411" y2="415.602" style="fill:none;stroke:#000;stroke-linecap:square;stroke-miterlimit:10;stroke-width:2px"/><polyline points="279.411 415.57 279.835 415.7 280.259 415.733 280.683 415.7 281.107 415.602 281.498 415.439 281.857 415.244 282.183 414.95 282.477 414.624 282.705 414.266 282.868 413.875 282.966 413.451 282.998 413.027" style="fill:none;stroke:#000;stroke-linecap:square;stroke-miterlimit:10;stroke-width:2px"/><line x1="283.031" y1="413.027" x2="283.031" y2="98.643" style="fill:none;stroke:#000;stroke-linecap:square;stroke-miterlimit:10;stroke-width:2px"/><polyline points="282.998 98.643 282.966 98.22 282.868 97.828 282.705 97.437 282.509 97.079 282.216 96.753 281.922 96.492 281.564 96.264 281.172 96.101" style="fill:none;stroke:#000;stroke-linecap:square;stroke-miterlimit:10;stroke-width:2px"/><line x1="281.205" y1="96.068" x2="220.589" y2="84.398" style="fill:none;stroke:#000;stroke-linecap:square;stroke-miterlimit:10;stroke-width:2px"/><polyline points="220.556 84.43 220.165 84.3 219.708 84.267 219.284 84.3 218.86 84.398 218.469 84.561 218.11 84.756 217.784 85.05 217.491 85.376 217.263 85.734 217.1 86.125 217.002 86.549 216.969 86.973" style="fill:none;stroke:#000;stroke-linecap:square;stroke-miterlimit:10;stroke-width:2px"/><line x1="216.969" y1="86.973" x2="216.969" y2="138.479" style="fill:none;stroke:#000;stroke-linecap:square;stroke-miterlimit:10;stroke-width:2px"/><polyline points="216.969 138.479 217.002 138.903 217.1 139.327 217.263 139.718 217.491 140.077 217.752 140.403 218.078 140.663 218.436 140.892 218.828 141.055 219.252 141.152 219.676 141.185" style="fill:none;stroke:#000;stroke-linecap:square;stroke-miterlimit:10;stroke-width:2px"/><line x1="219.676" y1="141.217" x2="228.153" y2="141.217" style="fill:none;stroke:#000;stroke-linecap:square;stroke-miterlimit:10;stroke-width:2px"/><polyline points="228.153 141.185 228.512 141.152 228.838 141.055 229.164 140.892 229.425 140.663 229.653 140.403 229.816 140.077 229.914 139.751 229.947 139.392" style="fill:none;stroke:#000;stroke-linecap:square;stroke-miterlimit:10;stroke-width:2px"/><line x1="229.979" y1="139.392" x2="229.979" y2="102.262" style="fill:none;stroke:#000;stroke-linecap:square;stroke-miterlimit:10;stroke-width:2px"/></svg>