<svg id="Capa_1" data-name="Capa 1" xmlns="http://www.w3.org/2000/svg" viewBox="0 0 500 500"><polyline points="211.784 282.944 212.472 282.881 213.097 282.694 213.722 282.381 214.284 281.943 214.722 281.381 215.034 280.756 215.222 280.131 215.284 279.443" style="fill:none;stroke:#000;stroke-linecap:square;stroke-miterlimit:10;stroke-width:2px"/><line x1="215.347" y1="279.443" x2="215.347" y2="239.123" style="fill:none;stroke:#000;stroke-linecap:square;stroke-miterlimit:10;stroke-width:2px"/><polyline points="217.159 237.373 216.721 237.435 216.284 237.623 215.909 237.873 215.659 238.248 215.472 238.685 215.409 239.123" style="fill:none;stroke:#000;stroke-linecap:square;stroke-miterlimit:10;stroke-width:2px"/><line x1="217.159" y1="237.31" x2="228.221" y2="237.31" style="fill:none;stroke:#000;stroke-linecap:square;stroke-miterlimit:10;stroke-width:2px"/><polyline points="229.97 239.123 229.908 238.685 229.72 238.248 229.47 237.873 229.095 237.623 228.658 237.435 228.221 237.373" style="fill:none;stroke:#000;stroke-linecap:square;stroke-miterlimit:10;stroke-width:2px"/><line x1="230.033" y1="239.123" x2="230.033" y2="333.453" style="fill:none;stroke:#000;stroke-linecap:square;stroke-miterlimit:10;stroke-width:2px"/><polyline points="230.033 333.453 230.095 334.141 230.283 334.766 230.595 335.391 231.033 335.953 231.595 336.391 232.22 336.704 232.845 336.891 233.533 336.954" style="fill:none;stroke:#000;stroke-linecap:square;stroke-miterlimit:10;stroke-width:2px"/><line x1="233.533" y1="337.016" x2="238.157" y2="337.016" style="fill:none;stroke:#000;stroke-linecap:square;stroke-miterlimit:10;stroke-width:2px"/><polyline points="238.157 336.954 238.845 336.891 239.47 336.704 240.095 336.391 240.657 335.953 241.094 335.391 241.407 334.766 241.594 334.141 241.657 333.453" style="fill:none;stroke:#000;stroke-linecap:square;stroke-miterlimit:10;stroke-width:2px"/><line x1="241.719" y1="333.453" x2="241.719" y2="297.321" style="fill:none;stroke:#000;stroke-linecap:square;stroke-miterlimit:10;stroke-width:2px"/><polyline points="247.531 294.696 246.969 294.321 246.344 294.008 245.719 293.883 245.032 293.821 244.407 293.946 243.782 294.133 243.219 294.446 242.657 294.883 242.282 295.446 241.969 296.009 241.782 296.634 241.719 297.321" style="fill:none;stroke:#000;stroke-linecap:square;stroke-miterlimit:10;stroke-width:2px"/><line x1="247.594" y1="294.633" x2="302.402" y2="342.267" style="fill:none;stroke:#000;stroke-linecap:square;stroke-miterlimit:10;stroke-width:2px"/><polyline points="302.402 347.581 302.777 347.143 303.152 346.705 303.402 346.143 303.527 345.58 303.589 344.955 303.527 344.33 303.402 343.767 303.152 343.205 302.777 342.767 302.402 342.33" style="fill:none;stroke:#000;stroke-linecap:square;stroke-miterlimit:10;stroke-width:2px"/><line x1="302.402" y1="347.643" x2="240.969" y2="401.028" style="fill:none;stroke:#000;stroke-linecap:square;stroke-miterlimit:10;stroke-width:2px"/><polyline points="238.095 401.778 238.657 401.841 239.157 401.778 239.657 401.716 240.095 401.528 240.532 401.278 240.969 400.966" style="fill:none;stroke:#000;stroke-linecap:square;stroke-miterlimit:10;stroke-width:2px"/><line x1="238.095" y1="401.841" x2="182.724" y2="393.339" style="fill:none;stroke:#000;stroke-linecap:square;stroke-miterlimit:10;stroke-width:2px"/><polyline points="182.724 393.339 182.162 393.277 181.537 393.339 180.974 393.527 180.412 393.839 179.974 394.277 179.599 394.714 179.287 395.277 179.162 395.902" style="fill:none;stroke:#000;stroke-linecap:square;stroke-miterlimit:10;stroke-width:2px"/><line x1="179.099" y1="395.902" x2="179.099" y2="402.091" style="fill:none;stroke:#000;stroke-linecap:square;stroke-miterlimit:10;stroke-width:2px"/><polyline points="179.162 402.091 179.224 402.653 179.412 403.153 179.662 403.654 180.037 404.091 180.474 404.404 180.974 404.654" style="fill:none;stroke:#000;stroke-linecap:square;stroke-miterlimit:10;stroke-width:2px"/><line x1="180.912" y1="404.716" x2="242.719" y2="416.156" style="fill:none;stroke:#000;stroke-linecap:square;stroke-miterlimit:10;stroke-width:2px"/><polyline points="242.719 416.156 243.219 416.218 243.719 416.218 244.282 416.093 244.782 415.906 245.219 415.656 245.657 415.343" style="fill:none;stroke:#000;stroke-linecap:square;stroke-miterlimit:10;stroke-width:2px"/><line x1="245.719" y1="415.343" x2="323.525" y2="347.768" style="fill:none;stroke:#000;stroke-linecap:square;stroke-miterlimit:10;stroke-width:2px"/><polyline points="323.525 347.768 323.963 347.268 324.275 346.768 324.588 346.205 324.713 345.58 324.775 344.955 324.713 344.33 324.588 343.705 324.275 343.142 323.963 342.642 323.525 342.142" style="fill:none;stroke:#000;stroke-linecap:square;stroke-miterlimit:10;stroke-width:2px"/><line x1="323.525" y1="342.142" x2="246.219" y2="274.942" style="fill:none;stroke:#000;stroke-linecap:square;stroke-miterlimit:10;stroke-width:2px"/><polyline points="244.969 272.129 245.032 272.629 245.094 273.192 245.282 273.629 245.532 274.129 245.844 274.567 246.219 274.942" style="fill:none;stroke:#000;stroke-linecap:square;stroke-miterlimit:10;stroke-width:2px"/><line x1="244.969" y1="272.129" x2="244.969" y2="239.623" style="fill:none;stroke:#000;stroke-linecap:square;stroke-miterlimit:10;stroke-width:2px"/><polyline points="246.219 236.81 245.844 237.185 245.532 237.623 245.282 238.123 245.094 238.56 245.032 239.123 244.969 239.623" style="fill:none;stroke:#000;stroke-linecap:square;stroke-miterlimit:10;stroke-width:2px"/><line x1="246.219" y1="236.81" x2="323.525" y2="169.673" style="fill:none;stroke:#000;stroke-linecap:square;stroke-miterlimit:10;stroke-width:2px"/><polyline points="323.525 169.673 323.963 169.172 324.275 168.672 324.588 168.11 324.713 167.485 324.775 166.86 324.713 166.234 324.588 165.609 324.275 165.047 323.963 164.547 323.525 164.047" style="fill:none;stroke:#000;stroke-linecap:square;stroke-miterlimit:10;stroke-width:2px"/><line x1="323.525" y1="164.047" x2="246.969" y2="97.534" style="fill:none;stroke:#000;stroke-linecap:square;stroke-miterlimit:10;stroke-width:2px"/><polyline points="246.906 97.534 246.531 97.222 246.094 97.034 245.719 96.847 245.282 96.722" style="fill:none;stroke:#000;stroke-linecap:square;stroke-miterlimit:10;stroke-width:2px"/><line x1="245.282" y1="96.722" x2="178.85" y2="83.907" style="fill:none;stroke:#000;stroke-linecap:square;stroke-miterlimit:10;stroke-width:2px"/><polyline points="178.787 83.907 178.287 83.782 177.787 83.782 177.287 83.844 176.787 84.032 176.35 84.282 175.975 84.594 175.662 85.032 175.412 85.469 175.287 85.97 175.225 86.47" style="fill:none;stroke:#000;stroke-linecap:square;stroke-miterlimit:10;stroke-width:2px"/><line x1="175.225" y1="86.47" x2="175.225" y2="137.979" style="fill:none;stroke:#000;stroke-linecap:square;stroke-miterlimit:10;stroke-width:2px"/><polyline points="175.225 137.979 175.287 138.479 175.412 138.979 175.662 139.479 176.037 139.855 176.412 140.23 176.912 140.48 177.412 140.605 177.912 140.667" style="fill:none;stroke:#000;stroke-linecap:square;stroke-miterlimit:10;stroke-width:2px"/><line x1="177.912" y1="140.73" x2="186.411" y2="140.73" style="fill:none;stroke:#000;stroke-linecap:square;stroke-miterlimit:10;stroke-width:2px"/><polyline points="186.411 140.667 186.849 140.605 187.286 140.417 187.661 140.167 187.911 139.792 188.099 139.354 188.161 138.917" style="fill:none;stroke:#000;stroke-linecap:square;stroke-miterlimit:10;stroke-width:2px"/><line x1="188.224" y1="138.917" x2="188.224" y2="101.722" style="fill:none;stroke:#000;stroke-linecap:square;stroke-miterlimit:10;stroke-width:2px"/><polyline points="190.286 99.972 189.911 99.972 189.536 100.035 189.224 100.16 188.911 100.41 188.661 100.66 188.474 100.972 188.349 101.347 188.286 101.722" style="fill:none;stroke:#000;stroke-linecap:square;stroke-miterlimit:10;stroke-width:2px"/><line x1="190.286" y1="99.972" x2="235.47" y2="106.786" style="fill:none;stroke:#000;stroke-linecap:square;stroke-miterlimit:10;stroke-width:2px"/><polyline points="237.282 107.661 236.845 107.348 236.407 107.098 235.97 106.911 235.47 106.848" style="fill:none;stroke:#000;stroke-linecap:square;stroke-miterlimit:10;stroke-width:2px"/><line x1="237.282" y1="107.599" x2="302.402" y2="164.172" style="fill:none;stroke:#000;stroke-linecap:square;stroke-miterlimit:10;stroke-width:2px"/><polyline points="302.402 169.485 302.777 169.047 303.152 168.61 303.402 168.047 303.527 167.485 303.589 166.86 303.527 166.234 303.402 165.672 303.152 165.109 302.777 164.672 302.402 164.234" style="fill:none;stroke:#000;stroke-linecap:square;stroke-miterlimit:10;stroke-width:2px"/><line x1="302.402" y1="169.548" x2="238.22" y2="225.308" style="fill:none;stroke:#000;stroke-linecap:square;stroke-miterlimit:10;stroke-width:2px"/><polyline points="235.907 226.121 236.532 226.058 237.157 225.871 237.72 225.62 238.22 225.245" style="fill:none;stroke:#000;stroke-linecap:square;stroke-miterlimit:10;stroke-width:2px"/><line x1="235.907" y1="226.183" x2="204.16" y2="226.183" style="fill:none;stroke:#000;stroke-linecap:square;stroke-miterlimit:10;stroke-width:2px"/><polyline points="204.16 226.246 203.723 226.308 203.285 226.496 202.91 226.746 202.66 227.121 202.473 227.558 202.41 227.996" style="fill:none;stroke:#000;stroke-linecap:square;stroke-miterlimit:10;stroke-width:2px"/><line x1="202.348" y1="227.996" x2="202.348" y2="280.256" style="fill:none;stroke:#000;stroke-linecap:square;stroke-miterlimit:10;stroke-width:2px"/><polyline points="202.348 280.256 202.41 280.756 202.535 281.256 202.785 281.756 203.16 282.131 203.535 282.506 204.035 282.756 204.535 282.881 205.035 282.944" style="fill:none;stroke:#000;stroke-linecap:square;stroke-miterlimit:10;stroke-width:2px"/><line x1="205.035" y1="283.006" x2="211.784" y2="283.006" style="fill:none;stroke:#000;stroke-linecap:square;stroke-miterlimit:10;stroke-width:2px"/><rect width="500" height="500" style="fill:none"/></svg>