<svg id="Capa_1" data-name="Capa 1" xmlns="http://www.w3.org/2000/svg" viewBox="0 0 500 500"><rect width="500" height="500" style="fill:none"/><polyline points="256.195 403.166 258.184 402.938 260.141 402.644 262.13 402.253 264.086 401.797 266.01 401.275 267.901 400.656 269.792 399.971 271.651 399.221 273.477 398.406 275.27 397.526 277.031 396.548 278.759 395.538 280.455 394.462 282.085 393.288 283.683 392.082 285.248 390.811 286.748 389.474 288.183 388.073 289.585 386.638 290.922 385.139 292.193 383.607 293.4 382.009 294.574 380.379 295.65 378.684 296.693 376.989 297.639 375.229 298.552 373.436 299.367 371.61 300.117 369.752 300.802 367.861 301.421 365.938 301.975 364.015 302.432 362.059 302.823 360.103 303.149 358.114 303.378 356.126 303.541 354.137 303.638 352.116 303.638 350.127 303.573 348.106 303.41 346.118 303.215 344.129 302.921 342.141 302.53 340.152 302.106 338.196 301.584 336.273 300.997 334.35 300.313 332.459 299.595 330.601 298.78 328.775 297.9 326.95 296.954 325.189" style="fill:none;stroke:#000;stroke-linecap:square;stroke-miterlimit:10;stroke-width:2px"/><polyline points="255.315 403.133 255.511 403.166 255.739 403.166 255.967 403.166 256.163 403.133" style="fill:none;stroke:#000;stroke-linecap:square;stroke-miterlimit:10;stroke-width:2px"/><line x1="255.315" y1="403.166" x2="191.177" y2="393.321" style="fill:none;stroke:#000;stroke-linecap:square;stroke-miterlimit:10;stroke-width:2px"/><polyline points="191.177 393.288 190.753 393.256 190.362 393.256 189.971 393.321 189.579 393.451 189.188 393.614 188.862 393.843 188.536 394.103 188.275 394.397 188.014 394.723 187.851 395.081 187.688 395.473 187.59 395.864" style="fill:none;stroke:#000;stroke-linecap:square;stroke-miterlimit:10;stroke-width:2px"/><line x1="187.558" y1="395.864" x2="187.558" y2="402.123" style="fill:none;stroke:#000;stroke-linecap:square;stroke-miterlimit:10;stroke-width:2px"/><polyline points="187.59 402.123 187.623 402.546 187.721 402.938 187.884 403.329 188.079 403.687 188.373 404.013 188.666 404.274 189.025 404.502 189.416 404.665" style="fill:none;stroke:#000;stroke-linecap:square;stroke-miterlimit:10;stroke-width:2px"/><line x1="189.384" y1="404.665" x2="250.587" y2="416.042" style="fill:none;stroke:#000;stroke-linecap:square;stroke-miterlimit:10;stroke-width:2px"/><polyline points="250.587 416.01 250.913 416.075 251.239 416.075" style="fill:none;stroke:#000;stroke-linecap:square;stroke-miterlimit:10;stroke-width:2px"/><polyline points="251.239 416.108 253.522 416.075 255.771 415.945 258.021 415.749 260.271 415.456 262.488 415.097 264.706 414.673 266.89 414.152 269.075 413.565 271.26 412.913 273.379 412.163 275.499 411.381 277.585 410.468 279.607 409.523 281.629 408.512 283.618 407.404 285.542 406.263 287.465 405.024 289.291 403.72 291.117 402.383 292.878 400.949 294.574 399.482 296.237 397.95 297.834 396.353 299.4 394.723 300.867 392.995 302.302 391.267 303.671 389.474 304.975 387.616 306.214 385.725 307.388 383.802 308.497 381.814 309.54 379.825 310.518 377.771 311.399 375.718 312.214 373.599 312.964 371.48 313.649 369.296 314.268 367.144 314.79 364.927 315.246 362.711 315.605 360.494 315.899 358.245 316.127 355.995 316.257 353.746 316.323 351.497 316.29 349.215 316.192 346.965 316.029 344.716 315.768 342.467 315.442 340.25 315.051 338.001 314.562 335.817 314.007 333.6 313.388 331.448 312.671 329.297 311.888 327.178 311.04 325.092 310.095 323.038 309.116 320.984 308.04 318.996" style="fill:none;stroke:#000;stroke-linecap:square;stroke-miterlimit:10;stroke-width:2px"/><polyline points="251.109 99.214 251.206 105.245 251.37 111.275 251.63 117.306 251.956 123.337 252.348 129.368 252.837 135.366 253.391 141.364 254.043 147.362 254.761 153.361 255.543 159.359 256.424 165.324 257.337 171.29 258.38 177.223 259.456 183.156 260.63 189.089 261.902 194.989 263.206 200.857 264.608 206.758 266.108 212.593 267.64 218.428 269.271 224.231 270.966 230.033 272.76 235.803 274.586 241.541 276.509 247.245 278.531 252.95 280.585 258.622 282.737 264.262 284.955 269.869 287.237 275.443 289.585 281.018 291.998 286.527 294.508 292.036 297.084 297.48 299.726 302.924 302.432 308.303 305.204 313.649 308.04 318.996" style="fill:none;stroke:#000;stroke-linecap:square;stroke-miterlimit:10;stroke-width:2px"/><polyline points="251.076 99.214 251.043 98.725 250.946 98.269 250.783 97.812 250.554 97.388 250.261 96.997 249.935 96.639 249.544 96.345 249.12 96.084 248.696 95.921 248.207 95.791" style="fill:none;stroke:#000;stroke-linecap:square;stroke-miterlimit:10;stroke-width:2px"/><line x1="248.207" y1="95.758" x2="187.297" y2="84.023" style="fill:none;stroke:#000;stroke-linecap:square;stroke-miterlimit:10;stroke-width:2px"/><polyline points="187.264 84.055 186.873 83.925 186.416 83.892 185.993 83.925 185.569 84.023 185.177 84.186 184.819 84.381 184.493 84.675 184.199 85.001 183.971 85.359 183.808 85.751 183.71 86.174 183.677 86.598" style="fill:none;stroke:#000;stroke-linecap:square;stroke-miterlimit:10;stroke-width:2px"/><line x1="183.677" y1="86.598" x2="183.677" y2="138.104" style="fill:none;stroke:#000;stroke-linecap:square;stroke-miterlimit:10;stroke-width:2px"/><polyline points="183.677 138.104 183.71 138.528 183.808 138.952 183.971 139.343 184.199 139.702 184.46 140.028 184.786 140.288 185.145 140.517 185.536 140.68 185.96 140.777 186.384 140.81" style="fill:none;stroke:#000;stroke-linecap:square;stroke-miterlimit:10;stroke-width:2px"/><line x1="186.384" y1="140.81" x2="194.862" y2="140.81" style="fill:none;stroke:#000;stroke-linecap:square;stroke-miterlimit:10;stroke-width:2px"/><polyline points="194.862 140.81 195.22 140.777 195.546 140.68 195.872 140.517 196.133 140.288 196.362 140.028 196.525 139.702 196.622 139.376 196.655 139.017" style="fill:none;stroke:#000;stroke-linecap:square;stroke-miterlimit:10;stroke-width:2px"/><line x1="196.688" y1="139.017" x2="196.688" y2="101.887" style="fill:none;stroke:#000;stroke-linecap:square;stroke-miterlimit:10;stroke-width:2px"/><polyline points="198.742 100.127 198.448 100.094 198.122 100.127 197.829 100.224 197.568 100.355 197.307 100.518 197.112 100.746 196.916 101.007 196.785 101.268 196.72 101.594 196.688 101.887" style="fill:none;stroke:#000;stroke-linecap:square;stroke-miterlimit:10;stroke-width:2px"/><line x1="198.775" y1="100.094" x2="235.588" y2="105.636" style="fill:none;stroke:#000;stroke-linecap:square;stroke-miterlimit:10;stroke-width:2px"/><polyline points="238.588 109.059 238.522 108.57 238.425 108.081 238.229 107.624 238.001 107.201 237.707 106.809 237.349 106.483 236.957 106.19 236.533 105.962 236.077 105.766 235.588 105.668" style="fill:none;stroke:#000;stroke-linecap:square;stroke-miterlimit:10;stroke-width:2px"/><polyline points="238.588 109.026 238.816 114.731 239.077 120.436 239.403 126.141 239.827 131.845 240.283 137.55 240.837 143.222 241.457 148.895 242.109 154.567 242.859 160.239 243.674 165.879 244.555 171.518 245.468 177.158 246.478 182.765 247.554 188.404 248.696 193.979 249.902 199.553 251.174 205.128 252.543 210.669 253.945 216.211 255.413 221.72" style="fill:none;stroke:#000;stroke-linecap:square;stroke-miterlimit:10;stroke-width:2px"/><polyline points="251.989 226.187 252.446 226.154 252.902 226.056 253.326 225.926 253.75 225.698 254.141 225.469 254.5 225.143 254.793 224.817 255.054 224.426 255.25 224.002 255.38 223.579 255.478 223.122 255.511 222.666 255.478 222.177 255.38 221.753" style="fill:none;stroke:#000;stroke-linecap:square;stroke-miterlimit:10;stroke-width:2px"/><line x1="251.989" y1="226.219" x2="212.6" y2="226.219" style="fill:none;stroke:#000;stroke-linecap:square;stroke-miterlimit:10;stroke-width:2px"/><polyline points="212.6 226.252 212.241 226.284 211.915 226.382 211.589 226.545 211.328 226.773 211.1 227.034 210.937 227.36 210.839 227.686 210.806 228.045" style="fill:none;stroke:#000;stroke-linecap:square;stroke-miterlimit:10;stroke-width:2px"/><line x1="210.774" y1="228.045" x2="210.774" y2="280.301" style="fill:none;stroke:#000;stroke-linecap:square;stroke-miterlimit:10;stroke-width:2px"/><polyline points="210.774 280.301 210.806 280.724 210.904 281.148 211.067 281.539 211.296 281.898 211.556 282.224 211.883 282.485 212.241 282.713 212.632 282.876 213.056 282.974 213.48 283.006" style="fill:none;stroke:#000;stroke-linecap:square;stroke-miterlimit:10;stroke-width:2px"/><line x1="213.48" y1="283.039" x2="220.23" y2="283.039" style="fill:none;stroke:#000;stroke-linecap:square;stroke-miterlimit:10;stroke-width:2px"/><polyline points="220.23 283.006 220.686 282.974 221.143 282.876 221.567 282.746 221.991 282.55 222.382 282.289 222.708 281.963 223.034 281.637 223.295 281.246 223.491 280.822 223.621 280.398 223.719 279.942 223.751 279.486" style="fill:none;stroke:#000;stroke-linecap:square;stroke-miterlimit:10;stroke-width:2px"/><line x1="223.784" y1="279.486" x2="223.784" y2="239.226" style="fill:none;stroke:#000;stroke-linecap:square;stroke-miterlimit:10;stroke-width:2px"/><polyline points="225.61 237.433 225.251 237.466 224.925 237.564 224.599 237.727 224.338 237.955 224.11 238.216 223.947 238.542 223.849 238.868 223.817 239.226" style="fill:none;stroke:#000;stroke-linecap:square;stroke-miterlimit:10;stroke-width:2px"/><line x1="225.61" y1="237.401" x2="236.664" y2="237.401" style="fill:none;stroke:#000;stroke-linecap:square;stroke-miterlimit:10;stroke-width:2px"/><polyline points="238.457 239.226 238.425 238.868 238.327 238.542 238.164 238.216 237.935 237.955 237.675 237.727 237.349 237.564 237.022 237.466 236.664 237.433" style="fill:none;stroke:#000;stroke-linecap:square;stroke-miterlimit:10;stroke-width:2px"/><line x1="238.457" y1="239.226" x2="238.457" y2="333.502" style="fill:none;stroke:#000;stroke-linecap:square;stroke-miterlimit:10;stroke-width:2px"/><polyline points="238.49 333.502 238.522 333.958 238.62 334.415 238.751 334.839 238.946 335.262 239.207 335.654 239.533 335.98 239.859 336.306 240.251 336.566 240.674 336.762 241.098 336.892 241.555 336.99 242.011 337.023" style="fill:none;stroke:#000;stroke-linecap:square;stroke-miterlimit:10;stroke-width:2px"/><line x1="242.011" y1="337.055" x2="247.587" y2="337.055" style="fill:none;stroke:#000;stroke-linecap:square;stroke-miterlimit:10;stroke-width:2px"/><polyline points="247.587 337.023 248.044 336.99 248.5 336.892 248.924 336.762 249.348 336.566 249.739 336.306 250.065 335.98 250.391 335.654 250.652 335.262 250.848 334.839 250.978 334.415 251.076 333.958 251.109 333.502" style="fill:none;stroke:#000;stroke-linecap:square;stroke-miterlimit:10;stroke-width:2px"/><line x1="251.141" y1="333.502" x2="251.141" y2="240.954" style="fill:none;stroke:#000;stroke-linecap:square;stroke-miterlimit:10;stroke-width:2px"/><polyline points="254.695 237.433 254.239 237.466 253.782 237.564 253.359 237.694 252.935 237.89 252.543 238.15 252.217 238.476 251.891 238.802 251.63 239.193 251.435 239.617 251.304 240.041 251.206 240.497 251.174 240.954" style="fill:none;stroke:#000;stroke-linecap:square;stroke-miterlimit:10;stroke-width:2px"/><line x1="254.695" y1="237.401" x2="257.369" y2="237.401" style="fill:none;stroke:#000;stroke-linecap:square;stroke-miterlimit:10;stroke-width:2px"/><polyline points="260.728 239.911 260.565 239.487 260.369 239.096 260.108 238.737 259.782 238.411 259.456 238.118 259.065 237.89 258.673 237.694 258.25 237.531 257.826 237.466 257.369 237.433" style="fill:none;stroke:#000;stroke-linecap:square;stroke-miterlimit:10;stroke-width:2px"/><polyline points="260.728 239.878 262.521 245.387 264.347 250.864 266.271 256.34 268.227 261.785 270.282 267.229 272.368 272.607 274.553 277.986 276.77 283.332 279.085 288.646 281.433 293.927 283.846 299.175 286.324 304.424 288.9 309.607 291.509 314.79 294.182 319.941 296.889 325.026" style="fill:none;stroke:#000;stroke-linecap:square;stroke-miterlimit:10;stroke-width:2px"/></svg>