<svg id="Capa_1" data-name="Capa 1" xmlns="http://www.w3.org/2000/svg" viewBox="0 0 500 500"><rect width="500" height="500" style="fill:none"/><line x1="152.766" y1="97.926" x2="89.606" y2="85.767" style="fill:none;stroke:#000;stroke-linecap:square;stroke-miterlimit:10;stroke-width:2px"/><polyline points="89.606 85.799 89.183 85.669 88.759 85.636 88.335 85.669 87.944 85.767 87.552 85.897 87.194 86.125 86.868 86.419 86.574 86.712 86.346 87.071 86.183 87.462 86.085 87.886 86.052 88.31" style="fill:none;stroke:#000;stroke-linecap:square;stroke-miterlimit:10;stroke-width:2px"/><line x1="86.052" y1="88.31" x2="86.052" y2="139.294" style="fill:none;stroke:#000;stroke-linecap:square;stroke-miterlimit:10;stroke-width:2px"/><polyline points="86.052 139.294 86.085 139.718 86.183 140.109 86.346 140.5 86.574 140.859 86.835 141.185 87.161 141.446 87.52 141.674 87.911 141.837 88.302 141.935 88.726 141.967" style="fill:none;stroke:#000;stroke-linecap:square;stroke-miterlimit:10;stroke-width:2px"/><line x1="88.726" y1="141.967" x2="97.139" y2="141.967" style="fill:none;stroke:#000;stroke-linecap:square;stroke-miterlimit:10;stroke-width:2px"/><polyline points="97.139 141.935 97.497 141.902 97.823 141.804 98.117 141.641 98.378 141.413 98.606 141.152 98.769 140.859 98.867 140.533 98.899 140.174" style="fill:none;stroke:#000;stroke-linecap:square;stroke-miterlimit:10;stroke-width:2px"/><line x1="98.932" y1="140.174" x2="98.932" y2="103.435" style="fill:none;stroke:#000;stroke-linecap:square;stroke-miterlimit:10;stroke-width:2px"/><polyline points="100.986 101.708 100.693 101.675 100.399 101.708 100.106 101.805 99.812 101.936 99.584 102.099 99.356 102.327 99.193 102.555 99.063 102.849 98.997 103.142 98.965 103.435" style="fill:none;stroke:#000;stroke-linecap:square;stroke-miterlimit:10;stroke-width:2px"/><line x1="100.986" y1="101.643" x2="140.506" y2="107.608" style="fill:none;stroke:#000;stroke-linecap:square;stroke-miterlimit:10;stroke-width:2px"/><polyline points="140.897 107.739 140.702 107.673 140.506 107.641" style="fill:none;stroke:#000;stroke-linecap:square;stroke-miterlimit:10;stroke-width:2px"/><line x1="140.93" y1="107.706" x2="382.938" y2="173.882" style="fill:none;stroke:#000;stroke-linecap:square;stroke-miterlimit:10;stroke-width:2px"/><polyline points="401.394 198.07 401.361 196.701 401.231 195.364 401.068 193.995 400.807 192.659 400.481 191.355 400.09 190.051 399.601 188.779 399.079 187.508 398.459 186.302 397.775 185.096 397.057 183.955 396.242 182.846 395.394 181.803 394.481 180.793 393.503 179.815 392.492 178.934 391.449 178.087 390.34 177.272 389.166 176.555 387.993 175.87 386.753 175.283 385.514 174.762 384.243 174.273 382.938 173.882" style="fill:none;stroke:#000;stroke-linecap:square;stroke-miterlimit:10;stroke-width:2px"/><line x1="401.394" y1="198.07" x2="401.394" y2="314.383" style="fill:none;stroke:#000;stroke-linecap:square;stroke-miterlimit:10;stroke-width:2px"/><polyline points="382.938 338.571 384.243 338.18 385.514 337.691 386.753 337.169 387.993 336.583 389.166 335.898 390.34 335.181 391.449 334.366 392.492 333.518 393.503 332.638 394.481 331.66 395.394 330.65 396.242 329.606 397.057 328.498 397.775 327.357 398.459 326.151 399.079 324.945 399.601 323.673 400.09 322.402 400.481 321.098 400.807 319.794 401.068 318.458 401.231 317.088 401.361 315.752 401.394 314.383" style="fill:none;stroke:#000;stroke-linecap:square;stroke-miterlimit:10;stroke-width:2px"/><line x1="382.938" y1="338.571" x2="157.201" y2="400.313" style="fill:none;stroke:#000;stroke-linecap:square;stroke-miterlimit:10;stroke-width:2px"/><polyline points="152.766 396.923 152.799 397.38 152.897 397.836 153.027 398.26 153.223 398.683 153.483 399.042 153.777 399.401 154.136 399.694 154.527 399.955 154.918 400.15 155.375 400.281 155.799 400.379 156.255 400.411 156.712 400.379 157.168 400.281" style="fill:none;stroke:#000;stroke-linecap:square;stroke-miterlimit:10;stroke-width:2px"/><line x1="152.766" y1="396.923" x2="152.799" y2="230.017" style="fill:none;stroke:#000;stroke-linecap:square;stroke-miterlimit:10;stroke-width:2px"/><polyline points="152.799 230.017 152.766 229.56 152.668 229.104 152.538 228.68 152.342 228.289 152.081 227.898 151.788 227.539 151.429 227.246 151.071 226.985 150.647 226.79 150.223 226.659 149.766 226.561 149.31 226.529" style="fill:none;stroke:#000;stroke-linecap:square;stroke-miterlimit:10;stroke-width:2px"/><line x1="149.31" y1="226.496" x2="114.649" y2="226.496" style="fill:none;stroke:#000;stroke-linecap:square;stroke-miterlimit:10;stroke-width:2px"/><polyline points="114.649 226.529 114.29 226.561 113.964 226.659 113.67 226.822 113.41 227.05 113.181 227.311 113.018 227.605 112.92 227.931 112.888 228.289" style="fill:none;stroke:#000;stroke-linecap:square;stroke-miterlimit:10;stroke-width:2px"/><line x1="112.855" y1="228.289" x2="112.855" y2="280.024" style="fill:none;stroke:#000;stroke-linecap:square;stroke-miterlimit:10;stroke-width:2px"/><polyline points="112.888 280.024 112.92 280.447 113.018 280.839 113.181 281.23 113.41 281.588 113.67 281.914 113.996 282.175 114.355 282.403 114.746 282.566 115.138 282.664 115.562 282.697" style="fill:none;stroke:#000;stroke-linecap:square;stroke-miterlimit:10;stroke-width:2px"/><line x1="115.562" y1="282.697" x2="122.246" y2="282.697" style="fill:none;stroke:#000;stroke-linecap:square;stroke-miterlimit:10;stroke-width:2px"/><polyline points="122.246 282.697 122.703 282.664 123.159 282.566 123.583 282.436 124.007 282.24 124.365 281.98 124.724 281.686 125.018 281.328 125.278 280.936 125.474 280.545 125.605 280.121 125.702 279.665 125.735 279.209" style="fill:none;stroke:#000;stroke-linecap:square;stroke-miterlimit:10;stroke-width:2px"/><line x1="125.735" y1="279.209" x2="125.735" y2="239.34" style="fill:none;stroke:#000;stroke-linecap:square;stroke-miterlimit:10;stroke-width:2px"/><polyline points="127.528 237.58 127.17 237.612 126.844 237.71 126.55 237.873 126.289 238.101 126.061 238.362 125.898 238.656 125.8 238.982 125.768 239.34" style="fill:none;stroke:#000;stroke-linecap:square;stroke-miterlimit:10;stroke-width:2px"/><line x1="127.528" y1="237.547" x2="138.484" y2="237.547" style="fill:none;stroke:#000;stroke-linecap:square;stroke-miterlimit:10;stroke-width:2px"/><polyline points="140.245 239.308 140.212 238.982 140.115 238.656 139.952 238.362 139.723 238.101 139.463 237.873 139.136 237.71 138.81 237.612 138.484 237.58" style="fill:none;stroke:#000;stroke-linecap:square;stroke-miterlimit:10;stroke-width:2px"/><line x1="140.278" y1="239.308" x2="140.212" y2="394.935" style="fill:none;stroke:#000;stroke-linecap:square;stroke-miterlimit:10;stroke-width:2px"/><polyline points="136.169 398.39 136.658 398.423 137.147 398.39 137.637 398.292 138.126 398.129 138.55 397.869 138.973 397.575 139.332 397.217 139.626 396.825 139.854 396.402 140.049 395.913 140.147 395.424 140.18 394.935" style="fill:none;stroke:#000;stroke-linecap:square;stroke-miterlimit:10;stroke-width:2px"/><line x1="136.169" y1="398.39" x2="93.454" y2="391.838" style="fill:none;stroke:#000;stroke-linecap:square;stroke-miterlimit:10;stroke-width:2px"/><polyline points="93.487 391.838 93.063 391.805 92.672 391.805 92.28 391.87 91.889 392.001 91.498 392.164 91.172 392.392 90.846 392.62 90.585 392.913 90.324 393.272 90.161 393.631 89.998 393.989 89.9 394.38" style="fill:none;stroke:#000;stroke-linecap:square;stroke-miterlimit:10;stroke-width:2px"/><line x1="89.9" y1="394.38" x2="89.9" y2="400.542" style="fill:none;stroke:#000;stroke-linecap:square;stroke-miterlimit:10;stroke-width:2px"/><polyline points="89.9 400.542 89.933 400.965 90.03 401.357 90.193 401.748 90.389 402.106 90.65 402.4 90.976 402.693 91.335 402.889 91.693 403.052" style="fill:none;stroke:#000;stroke-linecap:square;stroke-miterlimit:10;stroke-width:2px"/><line x1="91.693" y1="403.084" x2="152.147" y2="414.331" style="fill:none;stroke:#000;stroke-linecap:square;stroke-miterlimit:10;stroke-width:2px"/><polyline points="152.147 414.298 152.538 414.364 152.929 414.364 153.32 414.331 153.712 414.233" style="fill:none;stroke:#000;stroke-linecap:square;stroke-miterlimit:10;stroke-width:2px"/><line x1="153.712" y1="414.266" x2="386.232" y2="350.698" style="fill:none;stroke:#000;stroke-linecap:square;stroke-miterlimit:10;stroke-width:2px"/><polyline points="386.232 350.665 387.797 350.209 389.362 349.687 390.862 349.068 392.362 348.416 393.829 347.666 395.264 346.884 396.666 346.036 398.003 345.124 399.34 344.146 400.611 343.102 401.818 342.027 402.992 340.918 404.133 339.712 405.209 338.473 406.22 337.202 407.198 335.898 408.111 334.529 408.959 333.127 409.741 331.693 410.459 330.226 411.111 328.726 411.698 327.194 412.219 325.662 412.676 324.097 413.067 322.5 413.393 320.903 413.622 319.273 413.817 317.643 413.915 316.013 413.948 314.383" style="fill:none;stroke:#000;stroke-linecap:square;stroke-miterlimit:10;stroke-width:2px"/><line x1="413.948" y1="314.383" x2="413.948" y2="198.07" style="fill:none;stroke:#000;stroke-linecap:square;stroke-miterlimit:10;stroke-width:2px"/><polyline points="413.948 198.07 413.915 196.44 413.817 194.81 413.622 193.18 413.393 191.55 413.067 189.953 412.676 188.356 412.219 186.791 411.698 185.259 411.111 183.726 410.459 182.227 409.741 180.76 408.959 179.326 408.111 177.924 407.198 176.555 406.22 175.251 405.209 173.979 404.133 172.741 402.992 171.534 401.818 170.426 400.611 169.35 399.34 168.307 398.003 167.329 396.666 166.416 395.264 165.569 393.829 164.787 392.362 164.037 390.862 163.385 389.362 162.765 387.797 162.244 386.232 161.787" style="fill:none;stroke:#000;stroke-linecap:square;stroke-miterlimit:10;stroke-width:2px"/><polygon points="386.232 161.787 152.766 97.926 386.232 161.787 386.232 161.787" style="fill:none;stroke:#000;stroke-linecap:square;stroke-miterlimit:10;stroke-width:2px"/></svg>