<svg id="Capa_1" data-name="Capa 1" xmlns="http://www.w3.org/2000/svg" viewBox="0 0 500 500"><rect width="500" height="500" style="fill:none"/><polyline points="173.602 385.285 173.178 385.253 172.787 385.253 172.396 385.318 172.004 385.448 171.613 385.611 171.287 385.84 170.961 386.1 170.7 386.394 170.439 386.72 170.276 387.078 170.113 387.469 170.015 387.861" style="fill:none;stroke:#000;stroke-linecap:square;stroke-miterlimit:10;stroke-width:2px"/><line x1="173.602" y1="385.285" x2="239.501" y2="395.424" style="fill:none;stroke:#000;stroke-linecap:square;stroke-miterlimit:10;stroke-width:2px"/><polyline points="242.174 397.445 241.979 397.086 241.718 396.728 241.424 396.402 241.098 396.141 240.74 395.88 240.348 395.684 239.924 395.554 239.501 395.456" style="fill:none;stroke:#000;stroke-linecap:square;stroke-miterlimit:10;stroke-width:2px"/><polyline points="242.207 397.445 242.826 398.683 243.511 399.857 244.261 401.031 245.109 402.139 245.989 403.215 246.902 404.225 247.913 405.171 248.957 406.083 250.065 406.898 251.206 407.681 252.38 408.398 253.619 409.017 254.891 409.604 256.163 410.093 257.467 410.517 258.804 410.875 260.173 411.136 261.543 411.332 262.912 411.43 264.314 411.462 265.684 411.43 267.053 411.299 268.423 411.104 269.76 410.81 271.097 410.452 272.434 410.028 273.705 409.506 274.944 408.92 276.183 408.268 277.357 407.55 278.498 406.768 279.575 405.92 280.618 405.008 281.596 404.062 282.542 403.019 283.422 401.976 284.237 400.835 284.955 399.661 285.639 398.455 286.259 397.217 286.781 395.945 287.237 394.641 287.628 393.337 287.954 391.968 288.183 390.599 288.313 389.23 288.411 387.861 288.411 386.459 288.313 385.09 288.15 383.721 287.922 382.351 287.596 381.015 287.205 379.678 286.748 378.374 286.226 377.103 285.607 375.864 284.922 374.658 284.172 373.517 283.357 372.376 282.477 371.333 281.564 370.29 280.553 369.344 279.509 368.432 278.433 367.584 277.292 366.802 276.118 366.085 274.879 365.433 273.64 364.878" style="fill:none;stroke:#000;stroke-linecap:square;stroke-miterlimit:10;stroke-width:2px"/><polyline points="220.849 285.142 220.882 287.684 221.012 290.194 221.175 292.737 221.436 295.247 221.762 297.757 222.186 300.267 222.643 302.745 223.197 305.222 223.849 307.667 224.534 310.112 225.284 312.525 226.132 314.904 227.045 317.284 228.023 319.631 229.066 321.913 230.175 324.195 231.349 326.444 232.588 328.661 233.892 330.813 235.262 332.964 236.696 335.05 238.164 337.104 239.729 339.093 241.327 341.049 242.99 342.972 244.718 344.83 246.478 346.623 248.304 348.383 250.196 350.079 252.119 351.741 254.076 353.306 256.098 354.838 258.152 356.338 260.271 357.739 262.391 359.076 264.575 360.38 266.793 361.586 269.075 362.727 271.358 363.835 273.673 364.846" style="fill:none;stroke:#000;stroke-linecap:square;stroke-miterlimit:10;stroke-width:2px"/><line x1="220.817" y1="285.142" x2="220.882" y2="231.158" style="fill:none;stroke:#000;stroke-linecap:square;stroke-miterlimit:10;stroke-width:2px"/><polyline points="220.882 231.158 220.849 230.832 220.752 230.473 220.556 230.18 220.36 229.919 220.067 229.691 219.773 229.528 219.447 229.43 219.089 229.398" style="fill:none;stroke:#000;stroke-linecap:square;stroke-miterlimit:10;stroke-width:2px"/><line x1="219.089" y1="229.398" x2="208.002" y2="229.398" style="fill:none;stroke:#000;stroke-linecap:square;stroke-miterlimit:10;stroke-width:2px"/><polyline points="208.002 229.398 207.644 229.43 207.318 229.528 206.991 229.691 206.731 229.919 206.502 230.18 206.339 230.506 206.242 230.832 206.209 231.19" style="fill:none;stroke:#000;stroke-linecap:square;stroke-miterlimit:10;stroke-width:2px"/><line x1="206.209" y1="231.19" x2="206.209" y2="271.483" style="fill:none;stroke:#000;stroke-linecap:square;stroke-miterlimit:10;stroke-width:2px"/><polyline points="202.655 275.003 203.111 274.971 203.568 274.873 203.992 274.743 204.416 274.547 204.807 274.286 205.133 273.96 205.459 273.634 205.72 273.243 205.915 272.819 206.046 272.395 206.144 271.939 206.176 271.483" style="fill:none;stroke:#000;stroke-linecap:square;stroke-miterlimit:10;stroke-width:2px"/><line x1="202.655" y1="275.003" x2="195.905" y2="275.003" style="fill:none;stroke:#000;stroke-linecap:square;stroke-miterlimit:10;stroke-width:2px"/><polyline points="193.199 272.298 193.231 272.721 193.329 273.145 193.492 273.536 193.72 273.895 193.981 274.221 194.307 274.482 194.666 274.71 195.057 274.873 195.481 274.971 195.905 275.003" style="fill:none;stroke:#000;stroke-linecap:square;stroke-miterlimit:10;stroke-width:2px"/><line x1="193.199" y1="272.298" x2="193.199" y2="220.009" style="fill:none;stroke:#000;stroke-linecap:square;stroke-miterlimit:10;stroke-width:2px"/><polyline points="195.025 218.216 194.666 218.249 194.34 218.346 194.014 218.509 193.753 218.738 193.525 218.998 193.362 219.324 193.264 219.65 193.231 220.009" style="fill:none;stroke:#000;stroke-linecap:square;stroke-miterlimit:10;stroke-width:2px"/><line x1="195.025" y1="218.216" x2="231.088" y2="218.216" style="fill:none;stroke:#000;stroke-linecap:square;stroke-miterlimit:10;stroke-width:2px"/><polyline points="234.381 220.498 234.186 220.107 233.957 219.748 233.697 219.422 233.403 219.129 233.077 218.868 232.718 218.64 232.327 218.477 231.936 218.346 231.512 218.281 231.088 218.249" style="fill:none;stroke:#000;stroke-linecap:square;stroke-miterlimit:10;stroke-width:2px"/><line x1="234.381" y1="220.465" x2="244.685" y2="247.001" style="fill:none;stroke:#000;stroke-linecap:square;stroke-miterlimit:10;stroke-width:2px"/><polyline points="244.685 247.001 245.533 248.533 246.478 250.033 247.457 251.467 248.5 252.901 249.641 254.238 250.783 255.574 252.022 256.846 253.293 258.052 254.63 259.193 256 260.301 257.434 261.312 258.902 262.29 260.434 263.203 261.967 264.05 263.565 264.8 265.162 265.517 266.825 266.136 268.488 266.691 270.184 267.18 271.879 267.603 273.607 267.962 275.368 268.223 277.096 268.386 278.857 268.516 280.618 268.549 282.379 268.516 284.139 268.386 285.9 268.19 287.628 267.929 289.357 267.603 291.085 267.18 292.748 266.691 294.443 266.104 296.074 265.484 297.704 264.767 299.269 264.018 300.802 263.17 302.334 262.257 303.801 261.279 305.204 260.236 306.606 259.16 307.91 257.987 309.214 256.781 310.421 255.509 311.594 254.205 312.703 252.836 313.747 251.402 314.725 249.967 315.67 248.468 316.518 246.903 317.301 245.338 318.018 243.741 318.67 242.111 319.257 240.449 319.779 238.753 320.203 237.058 320.561 235.33 320.855 233.57 321.051 231.842 321.181 230.082 321.246 228.322 321.214 226.561 321.116 224.801 320.953 223.041 320.692 221.313 320.398 219.585 319.974 217.857 319.518 216.162 318.964 214.5 318.344 212.837 317.659 211.207 316.909 209.643 316.094 208.078 315.181 206.546 314.236 205.079 313.225 203.644 312.116 202.243 311.008 200.906 309.801 199.602 308.529 198.363 307.225 197.19 305.888 196.081 304.486 195.006 303.019 193.995 301.552 193.05 300.019 192.202 298.454 191.387 296.856 190.637 295.226 189.985 293.563 189.366" style="fill:none;stroke:#000;stroke-linecap:square;stroke-miterlimit:10;stroke-width:2px"/><polyline points="221.599 100.795 221.991 103.631 222.447 106.467 222.969 109.271 223.588 112.074 224.273 114.878 225.023 117.616 225.838 120.387 226.751 123.093 227.729 125.798 228.773 128.471 229.914 131.112 231.088 133.72 232.36 136.295 233.664 138.838 235.066 141.315 236.533 143.793 238.066 146.205 239.664 148.617 241.294 150.932 243.022 153.247 244.783 155.496 246.641 157.68 248.533 159.831 250.489 161.918 252.478 163.972 254.565 165.96 256.684 167.916 258.836 169.774 261.054 171.6 263.304 173.36 265.619 175.055 267.966 176.685 270.379 178.25 272.825 179.749 275.303 181.184 277.814 182.585 280.357 183.889 282.933 185.128 285.574 186.269 288.215 187.378 290.889 188.388 293.595 189.333" style="fill:none;stroke:#000;stroke-linecap:square;stroke-miterlimit:10;stroke-width:2px"/><polyline points="221.534 100.795 221.469 100.339 221.306 99.915 221.11 99.491 220.882 99.1 220.589 98.774 220.23 98.448 219.871 98.187 219.447 97.991 219.023 97.828 218.567 97.731" style="fill:none;stroke:#000;stroke-linecap:square;stroke-miterlimit:10;stroke-width:2px"/><line x1="218.6" y1="97.698" x2="181.167" y2="92.058" style="fill:none;stroke:#000;stroke-linecap:square;stroke-miterlimit:10;stroke-width:2px"/><polyline points="181.167 92.091 180.873 92.058 180.547 92.091 180.254 92.189 179.993 92.319 179.732 92.482 179.536 92.71 179.341 92.971 179.21 93.232 179.145 93.558 179.113 93.851" style="fill:none;stroke:#000;stroke-linecap:square;stroke-miterlimit:10;stroke-width:2px"/><line x1="179.113" y1="93.851" x2="179.113" y2="130.981" style="fill:none;stroke:#000;stroke-linecap:square;stroke-miterlimit:10;stroke-width:2px"/><polyline points="177.287 132.774 177.645 132.742 177.971 132.644 178.297 132.481 178.558 132.253 178.786 131.992 178.95 131.666 179.047 131.34 179.08 130.981" style="fill:none;stroke:#000;stroke-linecap:square;stroke-miterlimit:10;stroke-width:2px"/><line x1="177.287" y1="132.807" x2="168.809" y2="132.807" style="fill:none;stroke:#000;stroke-linecap:square;stroke-miterlimit:10;stroke-width:2px"/><polyline points="166.102 130.101 166.135 130.525 166.233 130.949 166.396 131.34 166.624 131.699 166.885 132.025 167.211 132.285 167.57 132.514 167.961 132.677 168.385 132.774 168.809 132.807" style="fill:none;stroke:#000;stroke-linecap:square;stroke-miterlimit:10;stroke-width:2px"/><line x1="166.102" y1="130.101" x2="166.102" y2="78.562" style="fill:none;stroke:#000;stroke-linecap:square;stroke-miterlimit:10;stroke-width:2px"/><polyline points="169.689 76.02 169.298 75.889 168.841 75.857 168.417 75.889 167.994 75.987 167.602 76.15 167.244 76.346 166.918 76.639 166.624 76.965 166.396 77.324 166.233 77.715 166.135 78.139 166.102 78.562" style="fill:none;stroke:#000;stroke-linecap:square;stroke-miterlimit:10;stroke-width:2px"/><line x1="169.689" y1="75.987" x2="230.664" y2="87.755" style="fill:none;stroke:#000;stroke-linecap:square;stroke-miterlimit:10;stroke-width:2px"/><polyline points="233.534 91.113 233.468 90.657 233.37 90.2 233.207 89.744 232.979 89.353 232.686 88.962 232.36 88.603 232.001 88.342 231.577 88.081 231.153 87.918 230.664 87.788" style="fill:none;stroke:#000;stroke-linecap:square;stroke-miterlimit:10;stroke-width:2px"/><polyline points="233.599 91.113 233.697 93.721 233.892 96.296 234.153 98.904 234.479 101.479 234.903 104.022 235.359 106.598 235.914 109.14 236.533 111.65 237.218 114.16 237.968 116.638 238.783 119.116 239.696 121.56 240.642 123.973 241.653 126.352 242.761 128.7 243.903 131.047 245.109 133.329 246.413 135.578 247.75 137.827 249.152 140.011 250.62 142.163 252.119 144.249 253.717 146.303 255.348 148.324 257.043 150.313 258.771 152.236 260.565 154.127 262.423 155.952 264.314 157.713 266.238 159.44 268.227 161.103 270.282 162.733 272.368 164.265 274.488 165.765 276.64 167.199 278.857 168.601 281.074 169.905 283.357 171.143 285.672 172.349 287.987 173.49 290.367 174.534 292.78 175.544 295.193 176.457 297.639 177.337" style="fill:none;stroke:#000;stroke-linecap:square;stroke-miterlimit:10;stroke-width:2px"/><polyline points="233.501 252.934 234.512 254.727 235.555 256.455 236.696 258.15 237.87 259.812 239.142 261.442 240.446 262.974 241.816 264.507 243.25 265.941 244.718 267.343 246.25 268.679 247.848 269.983 249.478 271.189 251.141 272.363 252.869 273.439 254.63 274.482 256.424 275.427 258.25 276.34 260.108 277.155 261.999 277.905 263.923 278.557 265.88 279.176 267.869 279.698 269.858 280.121 271.847 280.513 273.868 280.806 275.89 281.034 277.912 281.165 279.966 281.23 281.987 281.197 284.042 281.132 286.063 280.936 288.085 280.708 290.107 280.382 292.096 279.958 294.085 279.502 296.041 278.948 297.965 278.328 299.889 277.611 301.78 276.829 303.638 275.981 305.432 275.069 307.225 274.091 308.986 273.047 310.682 271.906 312.344 270.733 313.942 269.494 315.507 268.19 317.04 266.821 318.475 265.387 319.909 263.92 321.246 262.388 322.518 260.823 323.757 259.193 324.931 257.53 326.007 255.803 327.05 254.042 328.028 252.249 328.909 250.424 329.724 248.566 330.507 246.642 331.159 244.752 331.778 242.796 332.3 240.807 332.756 238.851 333.148 236.83 333.441 234.809 333.669 232.788 333.832 230.767 333.898 228.713 333.898 226.692 333.8 224.638 333.637 222.617 333.409 220.596 333.082 218.575 332.691 216.586 332.202 214.598 331.68 212.642 331.061 210.686 330.344 208.762 329.594 206.872 328.746 205.014 327.833 203.188 326.855 201.428 325.811 199.667 324.703 197.972 323.529 196.277 322.29 194.68 320.985 193.115 319.616 191.583 318.214 190.116 316.746 188.714 315.214 187.345 313.649 186.074 312.018 184.835 310.355 183.661 308.66 182.553 306.899 181.51 305.106 180.532 303.28 179.652 301.421 178.804 299.53 178.054 297.606 177.37" style="fill:none;stroke:#000;stroke-linecap:square;stroke-miterlimit:10;stroke-width:2px"/><line x1="233.501" y1="252.966" x2="233.501" y2="285.142" style="fill:none;stroke:#000;stroke-linecap:square;stroke-miterlimit:10;stroke-width:2px"/><polyline points="233.534 285.142 233.566 287.554 233.697 289.934 233.892 292.346 234.153 294.726 234.512 297.105 234.936 299.452 235.425 301.8 236.012 304.147 236.664 306.461 237.414 308.743 238.196 310.993 239.077 313.242 240.022 315.459 241.066 317.61 242.142 319.762 243.316 321.848 244.522 323.934 245.826 325.955 247.196 327.911 248.598 329.867 250.098 331.758 251.63 333.584 253.228 335.376 254.891 337.104 256.619 338.799 258.38 340.397 260.206 341.961 262.097 343.494 263.988 344.928 265.977 346.297 267.966 347.601 270.021 348.872 272.108 350.046 274.26 351.154 276.412 352.197 278.596 353.175" style="fill:none;stroke:#000;stroke-linecap:square;stroke-miterlimit:10;stroke-width:2px"/><polyline points="234.61 409.278 235.653 410.615 236.729 411.919 237.903 413.157 239.109 414.331 240.381 415.439 241.718 416.515 243.087 417.526 244.489 418.438 245.957 419.319 247.424 420.134 248.957 420.851 250.522 421.535 252.119 422.122 253.717 422.644 255.348 423.067 257.01 423.426 258.673 423.719 260.369 423.948 262.032 424.078 263.728 424.143 265.423 424.111 267.119 424.013 268.814 423.85 270.477 423.589 272.14 423.263 273.803 422.872 275.401 422.383 276.999 421.829 278.596 421.209 280.129 420.525 281.629 419.742 283.129 418.927 284.563 418.015 285.933 417.037 287.27 416.026 288.574 414.918 289.813 413.777 291.02 412.571 292.161 411.299 293.237 409.995 294.248 408.659 295.193 407.257 296.074 405.79 296.889 404.323 297.639 402.791 298.323 401.259 298.943 399.661 299.465 398.064 299.921 396.434 300.313 394.772 300.606 393.109 300.867 391.414 300.997 389.751 301.095 388.056 301.095 386.361 300.997 384.666 300.867 382.971 300.606 381.276 300.313 379.613 299.921 377.983 299.465 376.353 298.91 374.723 298.323 373.159 297.639 371.594 296.889 370.094 296.074 368.595 295.193 367.16 294.215 365.759 293.204 364.389 292.128 363.085 290.987 361.847 289.813 360.641 288.574 359.467 287.27 358.391 285.933 357.348 284.531 356.403 283.096 355.49 281.629 354.642 280.129 353.893 278.564 353.208" style="fill:none;stroke:#000;stroke-linecap:square;stroke-miterlimit:10;stroke-width:2px"/><polyline points="234.577 409.311 234.283 408.985 233.957 408.691 233.599 408.431 233.207 408.235 232.816 408.072 232.392 407.974" style="fill:none;stroke:#000;stroke-linecap:square;stroke-miterlimit:10;stroke-width:2px"/><line x1="232.392" y1="407.942" x2="171.809" y2="396.662" style="fill:none;stroke:#000;stroke-linecap:square;stroke-miterlimit:10;stroke-width:2px"/><polyline points="169.983 394.087 170.015 394.511 170.113 394.902 170.276 395.293 170.472 395.652 170.765 395.978 171.059 396.239 171.417 396.467 171.809 396.63" style="fill:none;stroke:#000;stroke-linecap:square;stroke-miterlimit:10;stroke-width:2px"/><line x1="169.983" y1="394.087" x2="169.983" y2="387.861" style="fill:none;stroke:#000;stroke-linecap:square;stroke-miterlimit:10;stroke-width:2px"/></svg>