<svg id="Capa_1" data-name="Capa 1" xmlns="http://www.w3.org/2000/svg" viewBox="0 0 500 500"><rect width="500" height="500" style="fill:none"/><line x1="239.207" y1="390.827" x2="239.272" y2="222.063" style="fill:none;stroke:#000;stroke-linecap:square;stroke-miterlimit:10;stroke-width:2px"/><polyline points="239.24 222.063 239.207 221.606 239.109 221.15 238.979 220.726 238.783 220.335 238.522 219.944 238.229 219.585 237.87 219.292 237.512 219.031 237.088 218.835 236.664 218.705 236.207 218.607 235.751 218.575" style="fill:none;stroke:#000;stroke-linecap:square;stroke-miterlimit:10;stroke-width:2px"/><line x1="235.751" y1="218.542" x2="201.122" y2="218.542" style="fill:none;stroke:#000;stroke-linecap:square;stroke-miterlimit:10;stroke-width:2px"/><polyline points="201.122 218.542 200.764 218.575 200.437 218.672 200.144 218.835 199.883 219.064 199.655 219.324 199.492 219.65 199.394 219.976 199.361 220.335" style="fill:none;stroke:#000;stroke-linecap:square;stroke-miterlimit:10;stroke-width:2px"/><line x1="199.329" y1="220.335" x2="199.329" y2="272.069" style="fill:none;stroke:#000;stroke-linecap:square;stroke-miterlimit:10;stroke-width:2px"/><polyline points="199.329 272.069 199.361 272.493 199.459 272.884 199.622 273.276 199.851 273.634 200.111 273.96 200.437 274.221 200.796 274.449 201.187 274.612 201.579 274.71 202.003 274.743" style="fill:none;stroke:#000;stroke-linecap:square;stroke-miterlimit:10;stroke-width:2px"/><line x1="202.003" y1="274.775" x2="208.687" y2="274.775" style="fill:none;stroke:#000;stroke-linecap:square;stroke-miterlimit:10;stroke-width:2px"/><polyline points="208.687 274.743 209.144 274.71 209.6 274.612 210.024 274.482 210.448 274.286 210.806 274.025 211.165 273.732 211.459 273.373 211.72 272.982 211.915 272.591 212.046 272.167 212.143 271.711 212.176 271.254" style="fill:none;stroke:#000;stroke-linecap:square;stroke-miterlimit:10;stroke-width:2px"/><line x1="212.176" y1="271.254" x2="212.176" y2="231.386" style="fill:none;stroke:#000;stroke-linecap:square;stroke-miterlimit:10;stroke-width:2px"/><polyline points="213.969 229.593 213.611 229.626 213.285 229.723 212.991 229.886 212.73 230.115 212.502 230.375 212.339 230.701 212.241 231.027 212.209 231.386" style="fill:none;stroke:#000;stroke-linecap:square;stroke-miterlimit:10;stroke-width:2px"/><line x1="213.969" y1="229.593" x2="224.925" y2="229.593" style="fill:none;stroke:#000;stroke-linecap:square;stroke-miterlimit:10;stroke-width:2px"/><polyline points="226.686 231.353 226.653 231.027 226.556 230.669 226.393 230.375 226.164 230.115 225.903 229.886 225.577 229.723 225.251 229.626 224.925 229.593" style="fill:none;stroke:#000;stroke-linecap:square;stroke-miterlimit:10;stroke-width:2px"/><line x1="226.719" y1="231.353" x2="226.653" y2="386.98" style="fill:none;stroke:#000;stroke-linecap:square;stroke-miterlimit:10;stroke-width:2px"/><polyline points="222.61 390.436 223.099 390.469 223.588 390.436 224.077 390.338 224.567 390.175 224.991 389.914 225.414 389.621 225.773 389.262 226.067 388.871 226.295 388.447 226.49 387.958 226.588 387.469 226.621 386.98" style="fill:none;stroke:#000;stroke-linecap:square;stroke-miterlimit:10;stroke-width:2px"/><line x1="222.61" y1="390.469" x2="179.928" y2="383.916" style="fill:none;stroke:#000;stroke-linecap:square;stroke-miterlimit:10;stroke-width:2px"/><polyline points="179.928 383.884 179.504 383.851 179.113 383.851 178.721 383.916 178.33 384.047 177.939 384.21 177.613 384.438 177.287 384.666 177.026 384.959 176.765 385.318 176.602 385.677 176.439 386.035 176.341 386.426" style="fill:none;stroke:#000;stroke-linecap:square;stroke-miterlimit:10;stroke-width:2px"/><line x1="176.341" y1="386.459" x2="176.341" y2="392.62" style="fill:none;stroke:#000;stroke-linecap:square;stroke-miterlimit:10;stroke-width:2px"/><polyline points="176.374 392.62 176.406 393.044 176.504 393.435 176.667 393.826 176.863 394.185 177.124 394.478 177.45 394.772 177.808 394.967 178.167 395.13" style="fill:none;stroke:#000;stroke-linecap:square;stroke-miterlimit:10;stroke-width:2px"/><line x1="178.167" y1="395.163" x2="324.311" y2="422.318" style="fill:none;stroke:#000;stroke-linecap:square;stroke-miterlimit:10;stroke-width:2px"/><polyline points="324.311 422.318 324.702 422.35 325.094 422.35 325.485 422.252 325.844 422.122 326.202 421.959 326.496 421.731 326.789 421.47 327.018 421.144 327.213 420.818 327.376 420.46 327.441 420.068 327.474 419.677" style="fill:none;stroke:#000;stroke-linecap:square;stroke-miterlimit:10;stroke-width:2px"/><line x1="327.507" y1="419.677" x2="327.507" y2="109.205" style="fill:none;stroke:#000;stroke-linecap:square;stroke-miterlimit:10;stroke-width:2px"/><polyline points="327.474 109.205 327.441 108.847 327.376 108.488 327.246 108.13 327.083 107.804 326.855 107.51 326.594 107.25 326.333 107.021 326.007 106.826 325.648 106.663 325.322 106.565" style="fill:none;stroke:#000;stroke-linecap:square;stroke-miterlimit:10;stroke-width:2px"/><line x1="325.322" y1="106.565" x2="176.08" y2="77.813" style="fill:none;stroke:#000;stroke-linecap:square;stroke-miterlimit:10;stroke-width:2px"/><polyline points="176.048 77.813 175.624 77.682 175.2 77.65 174.776 77.682 174.385 77.78 173.993 77.911 173.635 78.139 173.309 78.432 173.015 78.725 172.787 79.084 172.624 79.475 172.526 79.899 172.493 80.323" style="fill:none;stroke:#000;stroke-linecap:square;stroke-miterlimit:10;stroke-width:2px"/><line x1="172.493" y1="80.323" x2="172.493" y2="131.34" style="fill:none;stroke:#000;stroke-linecap:square;stroke-miterlimit:10;stroke-width:2px"/><polyline points="172.493 131.34 172.526 131.764 172.624 132.155 172.787 132.546 173.015 132.905 173.276 133.231 173.602 133.492 173.961 133.72 174.352 133.883 174.743 133.981 175.167 134.013" style="fill:none;stroke:#000;stroke-linecap:square;stroke-miterlimit:10;stroke-width:2px"/><line x1="175.167" y1="134.013" x2="183.58" y2="134.013" style="fill:none;stroke:#000;stroke-linecap:square;stroke-miterlimit:10;stroke-width:2px"/><polyline points="183.58 134.013 183.938 133.981 184.264 133.883 184.558 133.72 184.819 133.492 185.047 133.231 185.21 132.905 185.308 132.579 185.34 132.22" style="fill:none;stroke:#000;stroke-linecap:square;stroke-miterlimit:10;stroke-width:2px"/><line x1="185.373" y1="132.22" x2="185.373" y2="95.481" style="fill:none;stroke:#000;stroke-linecap:square;stroke-miterlimit:10;stroke-width:2px"/><polyline points="187.427 93.721 187.134 93.688 186.84 93.721 186.547 93.819 186.253 93.949 186.025 94.112 185.797 94.34 185.634 94.601 185.504 94.862 185.438 95.188 185.406 95.481" style="fill:none;stroke:#000;stroke-linecap:square;stroke-miterlimit:10;stroke-width:2px"/><polyline points="187.427 93.688 209.502 97.013 312.084 116.801" style="fill:none;stroke:#000;stroke-linecap:square;stroke-miterlimit:10;stroke-width:2px"/><polyline points="314.92 120.256 314.888 119.767 314.79 119.311 314.627 118.855 314.399 118.431 314.138 118.04 313.779 117.681 313.421 117.388 312.997 117.127 312.573 116.964 312.084 116.834" style="fill:none;stroke:#000;stroke-linecap:square;stroke-miterlimit:10;stroke-width:2px"/><line x1="314.953" y1="120.256" x2="314.953" y2="403.606" style="fill:none;stroke:#000;stroke-linecap:square;stroke-miterlimit:10;stroke-width:2px"/><polyline points="310.779 407.029 311.236 407.094 311.66 407.094 312.084 407.029 312.508 406.931 312.931 406.768 313.323 406.54 313.649 406.279 313.975 405.986 314.268 405.66 314.497 405.268 314.692 404.877 314.823 404.486 314.888 404.03 314.92 403.606" style="fill:none;stroke:#000;stroke-linecap:square;stroke-miterlimit:10;stroke-width:2px"/><line x1="310.779" y1="407.061" x2="242.077" y2="394.283" style="fill:none;stroke:#000;stroke-linecap:square;stroke-miterlimit:10;stroke-width:2px"/><polyline points="239.24 390.827 239.272 391.316 239.37 391.773 239.533 392.229 239.761 392.653 240.055 393.044 240.381 393.402 240.772 393.696 241.164 393.957 241.62 394.12 242.077 394.25" style="fill:none;stroke:#000;stroke-linecap:square;stroke-miterlimit:10;stroke-width:2px"/></svg>