<svg id="Capa_1" data-name="Capa 1" xmlns="http://www.w3.org/2000/svg" viewBox="0 0 500 500"><rect width="500" height="500" style="fill:none"/><polyline points="204.877 294.985 204.623 294.985 204.368 295.027 204.114 295.112 203.86 295.281 203.69 295.451 203.563 295.705 203.478 295.96 203.436 296.214" style="fill:none;stroke:#000;stroke-linecap:square;stroke-miterlimit:10;stroke-width:1.5px"/><line x1="203.393" y1="296.214" x2="203.393" y2="298.417" style="fill:none;stroke:#000;stroke-linecap:square;stroke-miterlimit:10;stroke-width:1.5px"/><polyline points="203.436 298.417 203.478 298.714 203.52 298.968 203.648 299.223 203.817 299.477 204.029 299.689 204.241 299.858 204.495 299.985 204.792 300.028" style="fill:none;stroke:#000;stroke-linecap:square;stroke-miterlimit:10;stroke-width:1.5px"/><line x1="204.75" y1="300.07" x2="350.61" y2="327.193" style="fill:none;stroke:#000;stroke-linecap:square;stroke-miterlimit:10;stroke-width:1.5px"/><polyline points="350.61 327.193 350.865 327.193 351.161 327.15 351.416 327.065 351.628 326.896" style="fill:none;stroke:#000;stroke-linecap:square;stroke-miterlimit:10;stroke-width:1.5px"/><line x1="351.67" y1="326.896" x2="393.084" y2="290.916" style="fill:none;stroke:#000;stroke-linecap:square;stroke-miterlimit:10;stroke-width:1.5px"/><polyline points="393.084 290.916 393.254 290.747 393.381 290.535 393.423 290.323 393.466 290.069 393.423 289.815 393.381 289.603 393.254 289.391 393.084 289.221" style="fill:none;stroke:#000;stroke-linecap:square;stroke-miterlimit:10;stroke-width:1.5px"/><line x1="393.084" y1="289.179" x2="351.034" y2="252.691" style="fill:none;stroke:#000;stroke-linecap:square;stroke-miterlimit:10;stroke-width:1.5px"/><polyline points="350.398 251.208 350.398 251.504 350.483 251.759 350.568 252.013 350.695 252.267 350.865 252.479 351.077 252.691" style="fill:none;stroke:#000;stroke-linecap:square;stroke-miterlimit:10;stroke-width:1.5px"/><line x1="350.356" y1="251.208" x2="350.356" y2="222.899" style="fill:none;stroke:#000;stroke-linecap:square;stroke-miterlimit:10;stroke-width:1.5px"/><polyline points="350.737 222.051 350.568 222.221 350.441 222.433 350.398 222.645 350.356 222.899" style="fill:none;stroke:#000;stroke-linecap:square;stroke-miterlimit:10;stroke-width:1.5px"/><line x1="350.78" y1="222.009" x2="374.814" y2="201.116" style="fill:none;stroke:#000;stroke-linecap:square;stroke-miterlimit:10;stroke-width:1.5px"/><polyline points="374.814 201.116 374.984 200.947 375.111 200.735 375.154 200.523 375.196 200.269 375.154 200.014 375.111 199.803 374.984 199.591 374.814 199.421" style="fill:none;stroke:#000;stroke-linecap:square;stroke-miterlimit:10;stroke-width:1.5px"/><line x1="374.814" y1="199.379" x2="351.077" y2="178.783" style="fill:none;stroke:#000;stroke-linecap:square;stroke-miterlimit:10;stroke-width:1.5px"/><polyline points="351.077 178.783 350.907 178.656 350.737 178.571 350.526 178.486 350.314 178.444" style="fill:none;stroke:#000;stroke-linecap:square;stroke-miterlimit:10;stroke-width:1.5px"/><line x1="350.314" y1="178.401" x2="321.447" y2="172.85" style="fill:none;stroke:#000;stroke-linecap:square;stroke-miterlimit:10;stroke-width:1.5px"/><polyline points="321.404 172.892 321.319 172.85 321.192 172.85" style="fill:none;stroke:#000;stroke-linecap:square;stroke-miterlimit:10;stroke-width:1.5px"/><line x1="321.192" y1="172.807" x2="108.23" y2="172.807" style="fill:none;stroke:#000;stroke-linecap:square;stroke-miterlimit:10;stroke-width:1.5px"/><polyline points="108.23 172.85 107.891 172.892 107.594 172.977 107.297 173.147 107.043 173.316 106.873 173.57 106.704 173.867 106.619 174.164 106.577 174.503" style="fill:none;stroke:#000;stroke-linecap:square;stroke-miterlimit:10;stroke-width:1.5px"/><line x1="106.534" y1="174.503" x2="106.534" y2="176.198" style="fill:none;stroke:#000;stroke-linecap:square;stroke-miterlimit:10;stroke-width:1.5px"/><polyline points="106.577 176.198 106.619 176.537 106.704 176.833 106.873 177.13 107.043 177.384 107.297 177.554 107.594 177.723 107.891 177.808 108.23 177.851" style="fill:none;stroke:#000;stroke-linecap:square;stroke-miterlimit:10;stroke-width:1.5px"/><line x1="108.23" y1="177.893" x2="320.726" y2="177.893" style="fill:none;stroke:#000;stroke-linecap:square;stroke-miterlimit:10;stroke-width:1.5px"/><polyline points="320.938 177.935 320.853 177.893 320.726 177.893" style="fill:none;stroke:#000;stroke-linecap:square;stroke-miterlimit:10;stroke-width:1.5px"/><line x1="320.938" y1="177.893" x2="348.152" y2="183.148" style="fill:none;stroke:#000;stroke-linecap:square;stroke-miterlimit:10;stroke-width:1.5px"/><polyline points="348.703 183.444 348.576 183.36 348.448 183.275 348.279 183.19 348.109 183.19" style="fill:none;stroke:#000;stroke-linecap:square;stroke-miterlimit:10;stroke-width:1.5px"/><line x1="348.745" y1="183.402" x2="367.015" y2="199.294" style="fill:none;stroke:#000;stroke-linecap:square;stroke-miterlimit:10;stroke-width:1.5px"/><polyline points="366.972 201.201 367.142 200.989 367.269 200.777 367.354 200.523 367.396 200.269 367.354 200.014 367.269 199.76 367.142 199.548 366.972 199.336" style="fill:none;stroke:#000;stroke-linecap:square;stroke-miterlimit:10;stroke-width:1.5px"/><line x1="367.015" y1="201.201" x2="345.736" y2="219.678" style="fill:none;stroke:#000;stroke-linecap:square;stroke-miterlimit:10;stroke-width:1.5px"/><polyline points="345.778 219.678 345.608 219.89 345.481 220.102 345.396 220.356 345.354 220.61" style="fill:none;stroke:#000;stroke-linecap:square;stroke-miterlimit:10;stroke-width:1.5px"/><line x1="345.312" y1="220.61" x2="345.312" y2="253.835" style="fill:none;stroke:#000;stroke-linecap:square;stroke-miterlimit:10;stroke-width:1.5px"/><polyline points="345.354 253.835 345.396 254.09 345.481 254.344 345.608 254.556 345.778 254.768" style="fill:none;stroke:#000;stroke-linecap:square;stroke-miterlimit:10;stroke-width:1.5px"/><line x1="345.736" y1="254.768" x2="385.285" y2="289.094" style="fill:none;stroke:#000;stroke-linecap:square;stroke-miterlimit:10;stroke-width:1.5px"/><polyline points="385.242 291.001 385.412 290.789 385.539 290.577 385.624 290.323 385.666 290.069 385.624 289.815 385.539 289.56 385.412 289.348 385.242 289.137" style="fill:none;stroke:#000;stroke-linecap:square;stroke-miterlimit:10;stroke-width:1.5px"/><line x1="385.285" y1="291.001" x2="350.186" y2="321.471" style="fill:none;stroke:#000;stroke-linecap:square;stroke-miterlimit:10;stroke-width:1.5px"/><polyline points="349.127 321.768 349.381 321.768 349.678 321.726 349.932 321.641 350.144 321.471" style="fill:none;stroke:#000;stroke-linecap:square;stroke-miterlimit:10;stroke-width:1.5px"/><line x1="349.127" y1="321.768" x2="204.877" y2="294.942" style="fill:none;stroke:#000;stroke-linecap:square;stroke-miterlimit:10;stroke-width:1.5px"/></svg>