<svg id="Capa_1" data-name="Capa 1" xmlns="http://www.w3.org/2000/svg" viewBox="0 0 500 500"><rect width="500" height="500" style="fill:none"/><polyline points="355.124 186.212 355.07 185.887 354.908 185.616 354.745 185.4 354.528 185.183 354.258 185.02 353.933 184.912" style="fill:none;stroke:#000;stroke-linecap:square;stroke-miterlimit:10;stroke-width:1.5px"/><line x1="353.987" y1="184.858" x2="328.369" y2="179.928" style="fill:none;stroke:#000;stroke-linecap:square;stroke-miterlimit:10;stroke-width:1.5px"/><polyline points="328.369 179.928 328.261 179.928 328.153 179.928" style="fill:none;stroke:#000;stroke-linecap:square;stroke-miterlimit:10;stroke-width:1.5px"/><line x1="328.153" y1="179.928" x2="134.585" y2="179.928" style="fill:none;stroke:#000;stroke-linecap:square;stroke-miterlimit:10;stroke-width:1.5px"/><polyline points="134.585 179.928 134.206 179.982 133.827 180.145 133.502 180.362 133.286 180.687 133.123 181.066 133.069 181.445" style="fill:none;stroke:#000;stroke-linecap:square;stroke-miterlimit:10;stroke-width:1.5px"/><line x1="133.069" y1="181.445" x2="133.069" y2="182.962" style="fill:none;stroke:#000;stroke-linecap:square;stroke-miterlimit:10;stroke-width:1.5px"/><polyline points="133.069 182.962 133.123 183.341 133.286 183.72 133.502 184.045 133.827 184.262 134.206 184.425 134.585 184.479" style="fill:none;stroke:#000;stroke-linecap:square;stroke-miterlimit:10;stroke-width:1.5px"/><line x1="134.585" y1="184.533" x2="327.719" y2="184.533" style="fill:none;stroke:#000;stroke-linecap:square;stroke-miterlimit:10;stroke-width:1.5px"/><polyline points="327.936 184.533 327.828 184.533 327.719 184.533" style="fill:none;stroke:#000;stroke-linecap:square;stroke-miterlimit:10;stroke-width:1.5px"/><line x1="327.936" y1="184.533" x2="350.25" y2="188.812" style="fill:none;stroke:#000;stroke-linecap:square;stroke-miterlimit:10;stroke-width:1.5px"/><polyline points="351.116 189.679 351.008 189.354 350.791 189.137 350.575 188.921 350.25 188.812" style="fill:none;stroke:#000;stroke-linecap:square;stroke-miterlimit:10;stroke-width:1.5px"/><polyline points="351.171 189.679 351.604 191.196 352.145 192.659 352.741 194.067 353.391 195.422 354.204 196.776 355.07 198.022 355.991 199.268 357.02 200.405 358.157 201.489 359.295 202.518 360.54 203.439 361.84 204.306" style="fill:none;stroke:#000;stroke-linecap:square;stroke-miterlimit:10;stroke-width:1.5px"/><polyline points="362.327 205.335 362.273 205.064 362.165 204.793 362.002 204.522 361.786 204.36" style="fill:none;stroke:#000;stroke-linecap:square;stroke-miterlimit:10;stroke-width:1.5px"/><line x1="362.327" y1="205.335" x2="362.327" y2="208.314" style="fill:none;stroke:#000;stroke-linecap:square;stroke-miterlimit:10;stroke-width:1.5px"/><polyline points="361.786 209.29 362.002 209.127 362.165 208.856 362.273 208.585 362.327 208.314" style="fill:none;stroke:#000;stroke-linecap:square;stroke-miterlimit:10;stroke-width:1.5px"/><polyline points="361.786 209.344 360.54 210.156 359.349 211.077 358.211 212.052 357.128 213.136 356.099 214.219 355.178 215.411 354.312 216.657 353.554 217.957 352.849 219.311 352.254 220.72 351.712 222.128 351.279 223.591 350.954 225.054 350.737 226.516 350.575 228.033 350.521 229.55" style="fill:none;stroke:#000;stroke-linecap:square;stroke-miterlimit:10;stroke-width:1.5px"/><line x1="350.466" y1="229.55" x2="350.466" y2="274.946" style="fill:none;stroke:#000;stroke-linecap:square;stroke-miterlimit:10;stroke-width:1.5px"/><polyline points="350.521 274.946 350.575 276.463 350.737 277.98 350.954 279.443 351.279 280.905 351.712 282.368 352.254 283.776 352.849 285.185 353.554 286.539 354.312 287.839 355.178 289.085 356.099 290.277 357.128 291.36 358.211 292.444 359.349 293.419 360.54 294.34 361.786 295.153" style="fill:none;stroke:#000;stroke-linecap:square;stroke-miterlimit:10;stroke-width:1.5px"/><polyline points="362.327 296.182 362.273 295.911 362.165 295.64 362.002 295.369 361.786 295.207" style="fill:none;stroke:#000;stroke-linecap:square;stroke-miterlimit:10;stroke-width:1.5px"/><line x1="362.327" y1="296.182" x2="362.327" y2="299.161" style="fill:none;stroke:#000;stroke-linecap:square;stroke-miterlimit:10;stroke-width:1.5px"/><polyline points="361.786 300.136 362.002 299.974 362.165 299.703 362.273 299.432 362.327 299.161" style="fill:none;stroke:#000;stroke-linecap:square;stroke-miterlimit:10;stroke-width:1.5px"/><polyline points="361.786 300.136 360.594 300.895 359.403 301.816 358.265 302.791 357.236 303.766 356.262 304.849 355.341 306.041 354.474 307.233 353.716 308.479 353.012 309.779 352.362 311.133 351.875 312.488 351.387 313.896" style="fill:none;stroke:#000;stroke-linecap:square;stroke-miterlimit:10;stroke-width:1.5px"/><polyline points="350.033 314.709 350.304 314.709 350.575 314.655 350.846 314.546 351.062 314.384 351.225 314.113 351.333 313.896" style="fill:none;stroke:#000;stroke-linecap:square;stroke-miterlimit:10;stroke-width:1.5px"/><line x1="350.087" y1="314.709" x2="222.92" y2="291.09" style="fill:none;stroke:#000;stroke-linecap:square;stroke-miterlimit:10;stroke-width:1.5px"/><polyline points="222.866 291.035 222.541 291.035 222.216 291.09 221.891 291.198 221.62 291.36 221.404 291.631 221.241 291.902 221.133 292.227 221.079 292.552" style="fill:none;stroke:#000;stroke-linecap:square;stroke-miterlimit:10;stroke-width:1.5px"/><line x1="221.079" y1="292.552" x2="221.079" y2="294.123" style="fill:none;stroke:#000;stroke-linecap:square;stroke-miterlimit:10;stroke-width:1.5px"/><polyline points="221.079 294.123 221.133 294.448 221.241 294.773 221.404 295.098 221.674 295.315 221.999 295.532 222.324 295.64" style="fill:none;stroke:#000;stroke-linecap:square;stroke-miterlimit:10;stroke-width:1.5px"/><line x1="222.324" y1="295.64" x2="353.77" y2="320.072" style="fill:none;stroke:#000;stroke-linecap:square;stroke-miterlimit:10;stroke-width:1.5px"/><polyline points="353.77 320.072 354.095 320.072 354.42 320.018 354.691 319.855 354.908 319.584 355.07 319.313 355.124 318.988" style="fill:none;stroke:#000;stroke-linecap:square;stroke-miterlimit:10;stroke-width:1.5px"/><polyline points="366.065 303.008 364.819 303.658 363.573 304.47 362.382 305.283 361.298 306.258 360.269 307.287 359.295 308.371 358.482 309.508 357.67 310.754 357.02 312.054 356.424 313.354 355.937 314.763 355.612 316.171 355.341 317.58 355.178 318.988" style="fill:none;stroke:#000;stroke-linecap:square;stroke-miterlimit:10;stroke-width:1.5px"/><polyline points="366.065 302.953 366.281 302.845 366.498 302.628 366.66 302.412 366.769 302.195 366.877 301.924 366.877 301.653" style="fill:none;stroke:#000;stroke-linecap:square;stroke-miterlimit:10;stroke-width:1.5px"/><line x1="366.931" y1="301.653" x2="366.931" y2="293.636" style="fill:none;stroke:#000;stroke-linecap:square;stroke-miterlimit:10;stroke-width:1.5px"/><polyline points="366.877 293.636 366.877 293.365 366.769 293.094 366.66 292.877 366.498 292.661 366.281 292.444 366.065 292.336" style="fill:none;stroke:#000;stroke-linecap:square;stroke-miterlimit:10;stroke-width:1.5px"/><polyline points="355.124 274.946 355.178 276.301 355.341 277.655 355.557 278.955 355.882 280.309 356.316 281.555 356.803 282.801 357.399 284.047 358.103 285.185 358.861 286.322 359.674 287.352 360.594 288.381 361.569 289.302 362.652 290.169 363.736 290.927 364.873 291.631 366.065 292.281" style="fill:none;stroke:#000;stroke-linecap:square;stroke-miterlimit:10;stroke-width:1.5px"/><line x1="355.07" y1="274.946" x2="355.07" y2="229.55" style="fill:none;stroke:#000;stroke-linecap:square;stroke-miterlimit:10;stroke-width:1.5px"/><polyline points="366.065 212.215 364.873 212.865 363.736 213.569 362.652 214.328 361.569 215.194 360.594 216.115 359.674 217.145 358.861 218.174 358.103 219.311 357.399 220.449 356.803 221.695 356.316 222.941 355.882 224.187 355.557 225.541 355.341 226.841 355.178 228.196 355.124 229.55" style="fill:none;stroke:#000;stroke-linecap:square;stroke-miterlimit:10;stroke-width:1.5px"/><polyline points="366.065 212.106 366.281 211.998 366.498 211.781 366.66 211.565 366.769 211.348 366.877 211.077 366.877 210.806" style="fill:none;stroke:#000;stroke-linecap:square;stroke-miterlimit:10;stroke-width:1.5px"/><line x1="366.931" y1="210.806" x2="366.931" y2="202.843" style="fill:none;stroke:#000;stroke-linecap:square;stroke-miterlimit:10;stroke-width:1.5px"/><polyline points="366.877 202.843 366.877 202.572 366.769 202.301 366.66 202.085 366.498 201.868 366.281 201.651 366.065 201.543" style="fill:none;stroke:#000;stroke-linecap:square;stroke-miterlimit:10;stroke-width:1.5px"/><polyline points="355.233 186.212 355.449 187.567 355.774 188.921 356.153 190.275 356.641 191.575 357.236 192.875 357.941 194.067 358.699 195.259 359.565 196.342 360.486 197.372 361.461 198.347 362.544 199.268 363.681 200.08 364.873 200.839 366.119 201.489" style="fill:none;stroke:#000;stroke-linecap:square;stroke-miterlimit:10;stroke-width:1.5px"/></svg>