<svg id="Capa_1" data-name="Capa 1" xmlns="http://www.w3.org/2000/svg" viewBox="0 0 500 500"><rect width="500" height="500" style="fill:none"/><polyline points="285.881 179.603 285.773 179.603 285.664 179.603" style="fill:none;stroke:#000;stroke-linecap:square;stroke-miterlimit:10;stroke-width:1.5px"/><line x1="285.664" y1="179.549" x2="92.097" y2="179.549" style="fill:none;stroke:#000;stroke-linecap:square;stroke-miterlimit:10;stroke-width:1.5px"/><polyline points="92.097 179.603 91.718 179.657 91.339 179.82 91.014 180.037 90.797 180.362 90.635 180.741 90.581 181.12" style="fill:none;stroke:#000;stroke-linecap:square;stroke-miterlimit:10;stroke-width:1.5px"/><line x1="90.581" y1="181.12" x2="90.581" y2="182.637" style="fill:none;stroke:#000;stroke-linecap:square;stroke-miterlimit:10;stroke-width:1.5px"/><polyline points="90.581 182.637 90.635 183.016 90.797 183.395 91.014 183.72 91.339 183.937 91.718 184.099 92.097 184.154" style="fill:none;stroke:#000;stroke-linecap:square;stroke-miterlimit:10;stroke-width:1.5px"/><line x1="92.097" y1="184.154" x2="285.231" y2="184.154" style="fill:none;stroke:#000;stroke-linecap:square;stroke-miterlimit:10;stroke-width:1.5px"/><polyline points="285.448 184.154 285.339 184.154 285.231 184.154" style="fill:none;stroke:#000;stroke-linecap:square;stroke-miterlimit:10;stroke-width:1.5px"/><line x1="285.448" y1="184.208" x2="310.361" y2="188.975" style="fill:none;stroke:#000;stroke-linecap:square;stroke-miterlimit:10;stroke-width:1.5px"/><polyline points="310.849 189.246 310.632 189.083 310.361 188.975" style="fill:none;stroke:#000;stroke-linecap:square;stroke-miterlimit:10;stroke-width:1.5px"/><line x1="310.849" y1="189.192" x2="401.512" y2="262.703" style="fill:none;stroke:#000;stroke-linecap:square;stroke-miterlimit:10;stroke-width:1.5px"/><polyline points="404.87 269.692 404.816 268.717 404.653 267.687 404.383 266.766 404.003 265.845 403.516 264.924 402.92 264.112 402.27 263.353 401.512 262.703" style="fill:none;stroke:#000;stroke-linecap:square;stroke-miterlimit:10;stroke-width:1.5px"/><line x1="404.87" y1="269.692" x2="404.87" y2="284.264" style="fill:none;stroke:#000;stroke-linecap:square;stroke-miterlimit:10;stroke-width:1.5px"/><polyline points="398.262 292.932 399.183 292.606 400.05 292.227 400.916 291.74 401.675 291.144 402.379 290.44 403.029 289.735 403.57 288.923 404.058 288.056 404.383 287.135 404.653 286.214 404.816 285.239 404.87 284.264" style="fill:none;stroke:#000;stroke-linecap:square;stroke-miterlimit:10;stroke-width:1.5px"/><line x1="398.208" y1="292.932" x2="315.344" y2="315.684" style="fill:none;stroke:#000;stroke-linecap:square;stroke-miterlimit:10;stroke-width:1.5px"/><polyline points="314.802 315.738 315.073 315.738 315.344 315.684" style="fill:none;stroke:#000;stroke-linecap:square;stroke-miterlimit:10;stroke-width:1.5px"/><line x1="314.856" y1="315.738" x2="180.432" y2="290.71" style="fill:none;stroke:#000;stroke-linecap:square;stroke-miterlimit:10;stroke-width:1.5px"/><polyline points="180.432 290.71 180.107 290.71 179.782 290.765 179.457 290.873 179.186 291.035 178.969 291.306 178.807 291.577 178.699 291.902 178.644 292.227" style="fill:none;stroke:#000;stroke-linecap:square;stroke-miterlimit:10;stroke-width:1.5px"/><line x1="178.644" y1="292.227" x2="178.644" y2="293.798" style="fill:none;stroke:#000;stroke-linecap:square;stroke-miterlimit:10;stroke-width:1.5px"/><polyline points="178.644 293.798 178.699 294.123 178.807 294.448 178.969 294.773 179.24 294.99 179.565 295.207 179.89 295.315" style="fill:none;stroke:#000;stroke-linecap:square;stroke-miterlimit:10;stroke-width:1.5px"/><line x1="179.89" y1="295.261" x2="315.019" y2="320.451" style="fill:none;stroke:#000;stroke-linecap:square;stroke-miterlimit:10;stroke-width:1.5px"/><polyline points="315.019 320.451 315.29 320.451 315.56 320.397" style="fill:none;stroke:#000;stroke-linecap:square;stroke-miterlimit:10;stroke-width:1.5px"/><line x1="315.56" y1="320.397" x2="399.454" y2="297.374" style="fill:none;stroke:#000;stroke-linecap:square;stroke-miterlimit:10;stroke-width:1.5px"/><polyline points="399.454 297.374 400.646 296.994 401.837 296.507 402.92 295.857 403.949 295.153 404.924 294.34 405.845 293.473 406.657 292.498 407.361 291.469 407.957 290.385 408.499 289.194 408.878 288.002 409.203 286.756 409.365 285.51 409.419 284.264" style="fill:none;stroke:#000;stroke-linecap:square;stroke-miterlimit:10;stroke-width:1.5px"/><line x1="409.419" y1="284.264" x2="409.419" y2="269.692" style="fill:none;stroke:#000;stroke-linecap:square;stroke-miterlimit:10;stroke-width:1.5px"/><polyline points="409.419 269.692 409.365 268.5 409.203 267.308 408.932 266.116 408.553 264.979 408.12 263.841 407.524 262.758 406.874 261.782 406.116 260.807 405.303 259.941 404.383 259.128" style="fill:none;stroke:#000;stroke-linecap:square;stroke-miterlimit:10;stroke-width:1.5px"/><line x1="404.383" y1="259.128" x2="312.907" y2="184.966" style="fill:none;stroke:#000;stroke-linecap:square;stroke-miterlimit:10;stroke-width:1.5px"/><polyline points="312.907 184.966 312.744 184.858 312.582 184.804 312.419 184.695 312.203 184.695" style="fill:none;stroke:#000;stroke-linecap:square;stroke-miterlimit:10;stroke-width:1.5px"/><line x1="312.257" y1="184.641" x2="285.881" y2="179.603" style="fill:none;stroke:#000;stroke-linecap:square;stroke-miterlimit:10;stroke-width:1.5px"/></svg>