<svg id="Capa_1" data-name="Capa 1" xmlns="http://www.w3.org/2000/svg" viewBox="0 0 500 500"><line x1="324.957" y1="214.978" x2="359.132" y2="234.696" style="fill:none;stroke:#000;stroke-linecap:square;stroke-miterlimit:10;stroke-width:1.5px"/><polyline points="359.186 234.642 359.457 234.75 359.728 234.805 359.999 234.75 360.324 234.642 360.54 234.48 360.703 234.209 360.811 233.938 360.865 233.667" style="fill:none;stroke:#000;stroke-linecap:square;stroke-miterlimit:10;stroke-width:1.5px"/><line x1="360.919" y1="233.667" x2="360.919" y2="190.817" style="fill:none;stroke:#000;stroke-linecap:square;stroke-miterlimit:10;stroke-width:1.5px"/><polyline points="360.865 190.817 360.811 190.546 360.703 190.221 360.54 190.004 360.269 189.842" style="fill:none;stroke:#000;stroke-linecap:square;stroke-miterlimit:10;stroke-width:1.5px"/><line x1="360.324" y1="189.788" x2="296.848" y2="153.113" style="fill:none;stroke:#000;stroke-linecap:square;stroke-miterlimit:10;stroke-width:1.5px"/><polyline points="296.794 153.113 296.686 153.059 296.523 153.005 296.415 152.95 296.252 152.95" style="fill:none;stroke:#000;stroke-linecap:square;stroke-miterlimit:10;stroke-width:1.5px"/><line x1="296.252" y1="152.95" x2="102.848" y2="152.95" style="fill:none;stroke:#000;stroke-linecap:square;stroke-miterlimit:10;stroke-width:1.5px"/><polyline points="102.848 153.005 102.469 153.059 102.09 153.221 101.765 153.438 101.548 153.763 101.385 154.142 101.331 154.521" style="fill:none;stroke:#000;stroke-linecap:square;stroke-miterlimit:10;stroke-width:1.5px"/><line x1="101.331" y1="154.521" x2="101.331" y2="156.038" style="fill:none;stroke:#000;stroke-linecap:square;stroke-miterlimit:10;stroke-width:1.5px"/><polyline points="101.331 156.038 101.385 156.417 101.548 156.797 101.765 157.122 102.09 157.338 102.469 157.501 102.848 157.555" style="fill:none;stroke:#000;stroke-linecap:square;stroke-miterlimit:10;stroke-width:1.5px"/><line x1="102.848" y1="157.555" x2="295.007" y2="157.555" style="fill:none;stroke:#000;stroke-linecap:square;stroke-miterlimit:10;stroke-width:1.5px"/><polyline points="295.548 157.718 295.44 157.663 295.278 157.609 295.169 157.555 295.007 157.555" style="fill:none;stroke:#000;stroke-linecap:square;stroke-miterlimit:10;stroke-width:1.5px"/><line x1="295.603" y1="157.718" x2="355.774" y2="192.496" style="fill:none;stroke:#000;stroke-linecap:square;stroke-miterlimit:10;stroke-width:1.5px"/><polyline points="356.316 193.471 356.262 193.2 356.153 192.875 355.991 192.659 355.72 192.496" style="fill:none;stroke:#000;stroke-linecap:square;stroke-miterlimit:10;stroke-width:1.5px"/><line x1="356.316" y1="193.471" x2="356.316" y2="225.812" style="fill:none;stroke:#000;stroke-linecap:square;stroke-miterlimit:10;stroke-width:1.5px"/><polyline points="354.637 226.787 354.908 226.896 355.178 226.95 355.449 226.896 355.774 226.787 355.991 226.625 356.153 226.354 356.262 226.083 356.316 225.812" style="fill:none;stroke:#000;stroke-linecap:square;stroke-miterlimit:10;stroke-width:1.5px"/><line x1="354.583" y1="226.787" x2="320.299" y2="206.96" style="fill:none;stroke:#000;stroke-linecap:square;stroke-miterlimit:10;stroke-width:1.5px"/><polyline points="320.299 207.014 320.029 206.906 319.758 206.852 319.487 206.906 319.162 207.014 318.945 207.177 318.783 207.448 318.675 207.719 318.62 207.989" style="fill:none;stroke:#000;stroke-linecap:square;stroke-miterlimit:10;stroke-width:1.5px"/><line x1="318.566" y1="207.989" x2="318.566" y2="260.807" style="fill:none;stroke:#000;stroke-linecap:square;stroke-miterlimit:10;stroke-width:1.5px"/><polyline points="318.62 260.807 318.675 261.078 318.783 261.403 318.945 261.62 319.216 261.782" style="fill:none;stroke:#000;stroke-linecap:square;stroke-miterlimit:10;stroke-width:1.5px"/><line x1="319.162" y1="261.782" x2="393.469" y2="304.741" style="fill:none;stroke:#000;stroke-linecap:square;stroke-miterlimit:10;stroke-width:1.5px"/><polyline points="394.065 305.716 394.011 305.445 393.903 305.12 393.74 304.904 393.469 304.741" style="fill:none;stroke:#000;stroke-linecap:square;stroke-miterlimit:10;stroke-width:1.5px"/><line x1="394.065" y1="305.716" x2="394.065" y2="338.057" style="fill:none;stroke:#000;stroke-linecap:square;stroke-miterlimit:10;stroke-width:1.5px"/><polyline points="392.386 339.032 392.657 339.14 392.928 339.195 393.199 339.14 393.523 339.032 393.74 338.87 393.903 338.599 394.011 338.328 394.065 338.057" style="fill:none;stroke:#000;stroke-linecap:square;stroke-miterlimit:10;stroke-width:1.5px"/><line x1="392.332" y1="339.032" x2="296.794" y2="283.831" style="fill:none;stroke:#000;stroke-linecap:square;stroke-miterlimit:10;stroke-width:1.5px"/><polyline points="296.74 283.831 296.577 283.722 296.415 283.668" style="fill:none;stroke:#000;stroke-linecap:square;stroke-miterlimit:10;stroke-width:1.5px"/><line x1="296.415" y1="283.668" x2="191.182" y2="264.112" style="fill:none;stroke:#000;stroke-linecap:square;stroke-miterlimit:10;stroke-width:1.5px"/><polyline points="191.182 264.112 190.857 264.112 190.532 264.166 190.208 264.274 189.937 264.437 189.72 264.708 189.558 264.979 189.449 265.304 189.395 265.629" style="fill:none;stroke:#000;stroke-linecap:square;stroke-miterlimit:10;stroke-width:1.5px"/><line x1="189.395" y1="265.629" x2="189.395" y2="267.2" style="fill:none;stroke:#000;stroke-linecap:square;stroke-miterlimit:10;stroke-width:1.5px"/><polyline points="189.395 267.2 189.449 267.525 189.558 267.85 189.72 268.175 189.991 268.391 190.316 268.608 190.641 268.716" style="fill:none;stroke:#000;stroke-linecap:square;stroke-miterlimit:10;stroke-width:1.5px"/><line x1="190.641" y1="268.662" x2="294.79" y2="288.056" style="fill:none;stroke:#000;stroke-linecap:square;stroke-miterlimit:10;stroke-width:1.5px"/><polyline points="295.115 288.218 294.953 288.11 294.79 288.056" style="fill:none;stroke:#000;stroke-linecap:square;stroke-miterlimit:10;stroke-width:1.5px"/><line x1="295.169" y1="288.218" x2="396.881" y2="346.941" style="fill:none;stroke:#000;stroke-linecap:square;stroke-miterlimit:10;stroke-width:1.5px"/><polyline points="396.936 346.887 397.206 346.995 397.477 347.05 397.748 346.995 398.073 346.887 398.29 346.724 398.452 346.454 398.56 346.183 398.615 345.912" style="fill:none;stroke:#000;stroke-linecap:square;stroke-miterlimit:10;stroke-width:1.5px"/><line x1="398.669" y1="345.912" x2="398.669" y2="303.062" style="fill:none;stroke:#000;stroke-linecap:square;stroke-miterlimit:10;stroke-width:1.5px"/><polyline points="398.615 303.062 398.56 302.791 398.452 302.466 398.29 302.249 398.019 302.087" style="fill:none;stroke:#000;stroke-linecap:square;stroke-miterlimit:10;stroke-width:1.5px"/><line x1="398.073" y1="302.032" x2="323.766" y2="259.128" style="fill:none;stroke:#000;stroke-linecap:square;stroke-miterlimit:10;stroke-width:1.5px"/><polyline points="323.224 258.099 323.278 258.37 323.387 258.695 323.549 258.911 323.82 259.074" style="fill:none;stroke:#000;stroke-linecap:square;stroke-miterlimit:10;stroke-width:1.5px"/><line x1="323.17" y1="258.099" x2="323.17" y2="216.007" style="fill:none;stroke:#000;stroke-linecap:square;stroke-miterlimit:10;stroke-width:1.5px"/><polyline points="324.903 215.032 324.632 214.923 324.361 214.869 324.091 214.923 323.82 215.032 323.549 215.194 323.387 215.411 323.278 215.736 323.224 216.007" style="fill:none;stroke:#000;stroke-linecap:square;stroke-miterlimit:10;stroke-width:1.5px"/><rect width="500" height="500" style="fill:none"/></svg>