<svg id="Capa_1" data-name="Capa 1" xmlns="http://www.w3.org/2000/svg" viewBox="0 0 500 500"><rect width="500" height="500" style="fill:none"/><line x1="373.606" y1="237.668" x2="339.314" y2="217.877" style="fill:none;stroke:#000;stroke-linecap:square;stroke-miterlimit:10;stroke-width:1.5px"/><polyline points="339.271 217.877 339.017 217.75 338.72 217.708 338.423 217.75 338.127 217.877 337.915 218.047 337.745 218.301 337.618 218.555 337.576 218.852" style="fill:none;stroke:#000;stroke-linecap:square;stroke-miterlimit:10;stroke-width:1.5px"/><line x1="337.576" y1="218.852" x2="337.576" y2="271.655" style="fill:none;stroke:#000;stroke-linecap:square;stroke-miterlimit:10;stroke-width:1.5px"/><polyline points="337.576 271.655 337.618 271.952 337.745 272.249 337.915 272.461 338.169 272.63" style="fill:none;stroke:#000;stroke-linecap:square;stroke-miterlimit:10;stroke-width:1.5px"/><line x1="338.169" y1="272.672" x2="374.751" y2="293.777" style="fill:none;stroke:#000;stroke-linecap:square;stroke-miterlimit:10;stroke-width:1.5px"/><polyline points="375.302 294.794 375.26 294.497 375.132 294.201 374.963 293.989 374.708 293.819" style="fill:none;stroke:#000;stroke-linecap:square;stroke-miterlimit:10;stroke-width:1.5px"/><line x1="375.302" y1="294.794" x2="375.302" y2="327.087" style="fill:none;stroke:#000;stroke-linecap:square;stroke-miterlimit:10;stroke-width:1.5px"/><polyline points="373.606 328.061 373.861 328.188 374.157 328.231 374.454 328.188 374.751 328.061 374.963 327.892 375.132 327.637 375.26 327.383 375.302 327.087" style="fill:none;stroke:#000;stroke-linecap:square;stroke-miterlimit:10;stroke-width:1.5px"/><line x1="373.606" y1="328.061" x2="316.169" y2="294.921" style="fill:none;stroke:#000;stroke-linecap:square;stroke-miterlimit:10;stroke-width:1.5px"/><polyline points="316.169 294.921 316 294.836 315.83 294.752" style="fill:none;stroke:#000;stroke-linecap:square;stroke-miterlimit:10;stroke-width:1.5px"/><line x1="315.83" y1="294.794" x2="210.027" y2="275.13" style="fill:none;stroke:#000;stroke-linecap:square;stroke-miterlimit:10;stroke-width:1.5px"/><polyline points="210.07 275.13 209.73 275.088 209.391 275.13 209.095 275.258 208.798 275.427 208.586 275.681 208.374 275.978 208.289 276.275 208.247 276.614" style="fill:none;stroke:#000;stroke-linecap:square;stroke-miterlimit:10;stroke-width:1.5px"/><line x1="208.247" y1="276.614" x2="208.247" y2="278.182" style="fill:none;stroke:#000;stroke-linecap:square;stroke-miterlimit:10;stroke-width:1.5px"/><polyline points="208.247 278.182 208.289 278.521 208.416 278.86 208.586 279.156 208.84 279.411 209.137 279.58 209.476 279.665" style="fill:none;stroke:#000;stroke-linecap:square;stroke-miterlimit:10;stroke-width:1.5px"/><line x1="209.476" y1="279.707" x2="314.219" y2="299.159" style="fill:none;stroke:#000;stroke-linecap:square;stroke-miterlimit:10;stroke-width:1.5px"/><polyline points="314.558 299.329 314.389 299.244 314.219 299.159" style="fill:none;stroke:#000;stroke-linecap:square;stroke-miterlimit:10;stroke-width:1.5px"/><line x1="314.558" y1="299.286" x2="378.142" y2="336.028" style="fill:none;stroke:#000;stroke-linecap:square;stroke-miterlimit:10;stroke-width:1.5px"/><polyline points="378.184 335.944 378.439 336.071 378.735 336.113 379.032 336.071 379.329 335.944 379.541 335.774 379.71 335.52 379.838 335.266 379.88 334.969" style="fill:none;stroke:#000;stroke-linecap:square;stroke-miterlimit:10;stroke-width:1.5px"/><line x1="379.922" y1="334.969" x2="379.922" y2="292.167" style="fill:none;stroke:#000;stroke-linecap:square;stroke-miterlimit:10;stroke-width:1.5px"/><polyline points="379.88 292.167 379.838 291.87 379.71 291.573 379.541 291.361 379.286 291.192" style="fill:none;stroke:#000;stroke-linecap:square;stroke-miterlimit:10;stroke-width:1.5px"/><line x1="379.329" y1="291.107" x2="342.79" y2="270.003" style="fill:none;stroke:#000;stroke-linecap:square;stroke-miterlimit:10;stroke-width:1.5px"/><polyline points="342.238 268.986 342.281 269.282 342.408 269.579 342.578 269.791 342.832 269.96" style="fill:none;stroke:#000;stroke-linecap:square;stroke-miterlimit:10;stroke-width:1.5px"/><line x1="342.196" y1="268.986" x2="342.196" y2="226.904" style="fill:none;stroke:#000;stroke-linecap:square;stroke-miterlimit:10;stroke-width:1.5px"/><polyline points="343.934 225.929 343.68 225.802 343.383 225.759 343.086 225.802 342.832 225.929 342.578 226.098 342.408 226.31 342.281 226.607 342.238 226.904" style="fill:none;stroke:#000;stroke-linecap:square;stroke-miterlimit:10;stroke-width:1.5px"/><line x1="343.976" y1="225.887" x2="378.142" y2="245.593" style="fill:none;stroke:#000;stroke-linecap:square;stroke-miterlimit:10;stroke-width:1.5px"/><polyline points="378.184 245.55 378.439 245.677 378.735 245.72 379.032 245.677 379.329 245.55 379.541 245.381 379.71 245.126 379.838 244.872 379.88 244.576" style="fill:none;stroke:#000;stroke-linecap:square;stroke-miterlimit:10;stroke-width:1.5px"/><line x1="379.922" y1="244.576" x2="379.922" y2="201.773" style="fill:none;stroke:#000;stroke-linecap:square;stroke-miterlimit:10;stroke-width:1.5px"/><polyline points="379.88 201.773 379.838 201.477 379.71 201.18 379.541 200.968 379.286 200.799" style="fill:none;stroke:#000;stroke-linecap:square;stroke-miterlimit:10;stroke-width:1.5px"/><line x1="379.329" y1="200.714" x2="315.788" y2="164.056" style="fill:none;stroke:#000;stroke-linecap:square;stroke-miterlimit:10;stroke-width:1.5px"/><polyline points="315.788 164.056 315.661 163.972 315.533 163.929 315.406 163.887 315.237 163.887" style="fill:none;stroke:#000;stroke-linecap:square;stroke-miterlimit:10;stroke-width:1.5px"/><line x1="315.237" y1="163.887" x2="121.604" y2="163.887" style="fill:none;stroke:#000;stroke-linecap:square;stroke-miterlimit:10;stroke-width:1.5px"/><polyline points="121.604 163.887 121.307 163.929 121.01 164.014 120.756 164.141 120.544 164.353 120.332 164.565 120.205 164.819 120.12 165.116 120.078 165.412" style="fill:none;stroke:#000;stroke-linecap:square;stroke-miterlimit:10;stroke-width:1.5px"/><line x1="120.078" y1="165.412" x2="120.078" y2="166.938" style="fill:none;stroke:#000;stroke-linecap:square;stroke-miterlimit:10;stroke-width:1.5px"/><polyline points="120.078 166.938 120.12 167.235 120.205 167.531 120.332 167.786 120.544 167.998 120.756 168.209 121.01 168.337 121.307 168.421 121.604 168.464" style="fill:none;stroke:#000;stroke-linecap:square;stroke-miterlimit:10;stroke-width:1.5px"/><line x1="121.604" y1="168.506" x2="314.007" y2="168.506" style="fill:none;stroke:#000;stroke-linecap:square;stroke-miterlimit:10;stroke-width:1.5px"/><polyline points="314.558 168.676 314.431 168.591 314.304 168.548 314.177 168.506 314.007 168.506" style="fill:none;stroke:#000;stroke-linecap:square;stroke-miterlimit:10;stroke-width:1.5px"/><line x1="314.558" y1="168.633" x2="374.751" y2="203.384" style="fill:none;stroke:#000;stroke-linecap:square;stroke-miterlimit:10;stroke-width:1.5px"/><polyline points="375.302 204.401 375.26 204.104 375.132 203.807 374.963 203.595 374.708 203.426" style="fill:none;stroke:#000;stroke-linecap:square;stroke-miterlimit:10;stroke-width:1.5px"/><line x1="375.302" y1="204.401" x2="375.302" y2="236.693" style="fill:none;stroke:#000;stroke-linecap:square;stroke-miterlimit:10;stroke-width:1.5px"/><polyline points="373.606 237.668 373.861 237.795 374.157 237.837 374.454 237.795 374.751 237.668 374.963 237.498 375.132 237.244 375.26 236.99 375.302 236.693" style="fill:none;stroke:#000;stroke-linecap:square;stroke-miterlimit:10;stroke-width:1.5px"/></svg>