<svg id="Capa_1" data-name="Capa 1" xmlns="http://www.w3.org/2000/svg" viewBox="0 0 500 500"><rect width="500" height="500" style="fill:none"/><line x1="354.383" y1="178.719" x2="323.566" y2="172.786" style="fill:none;stroke:#000;stroke-linecap:square;stroke-miterlimit:10;stroke-width:1.5px"/><polyline points="323.566 172.829 323.481 172.786 323.354 172.786" style="fill:none;stroke:#000;stroke-linecap:square;stroke-miterlimit:10;stroke-width:1.5px"/><line x1="323.354" y1="172.744" x2="110.349" y2="172.744" style="fill:none;stroke:#000;stroke-linecap:square;stroke-miterlimit:10;stroke-width:1.5px"/><polyline points="110.349 172.786 110.01 172.829 109.714 172.913 109.417 173.083 109.162 173.252 108.993 173.507 108.823 173.803 108.739 174.1 108.696 174.439" style="fill:none;stroke:#000;stroke-linecap:square;stroke-miterlimit:10;stroke-width:1.5px"/><line x1="108.696" y1="174.439" x2="108.696" y2="176.134" style="fill:none;stroke:#000;stroke-linecap:square;stroke-miterlimit:10;stroke-width:1.5px"/><polyline points="108.696 176.134 108.739 176.473 108.823 176.77 108.993 177.067 109.162 177.321 109.417 177.49 109.714 177.66 110.01 177.745 110.349 177.787" style="fill:none;stroke:#000;stroke-linecap:square;stroke-miterlimit:10;stroke-width:1.5px"/><line x1="110.349" y1="177.829" x2="322.846" y2="177.829" style="fill:none;stroke:#000;stroke-linecap:square;stroke-miterlimit:10;stroke-width:1.5px"/><polyline points="323.057 177.872 322.973 177.829 322.846 177.829" style="fill:none;stroke:#000;stroke-linecap:square;stroke-miterlimit:10;stroke-width:1.5px"/><line x1="323.1" y1="177.829" x2="352.179" y2="183.423" style="fill:none;stroke:#000;stroke-linecap:square;stroke-miterlimit:10;stroke-width:1.5px"/><polyline points="352.73 183.762 352.603 183.678 352.475 183.593 352.306 183.508 352.136 183.508" style="fill:none;stroke:#000;stroke-linecap:square;stroke-miterlimit:10;stroke-width:1.5px"/><line x1="352.772" y1="183.72" x2="383.462" y2="210.376" style="fill:none;stroke:#000;stroke-linecap:square;stroke-miterlimit:10;stroke-width:1.5px"/><polyline points="383.419 212.241 383.589 212.029 383.716 211.817 383.801 211.563 383.843 211.308 383.801 211.054 383.716 210.8 383.589 210.588 383.419 210.376" style="fill:none;stroke:#000;stroke-linecap:square;stroke-miterlimit:10;stroke-width:1.5px"/><line x1="383.462" y1="212.283" x2="349.593" y2="241.694" style="fill:none;stroke:#000;stroke-linecap:square;stroke-miterlimit:10;stroke-width:1.5px"/><polyline points="349.635 241.694 349.466 241.906 349.339 242.118 349.254 242.372 349.211 242.626" style="fill:none;stroke:#000;stroke-linecap:square;stroke-miterlimit:10;stroke-width:1.5px"/><line x1="349.169" y1="242.626" x2="349.169" y2="262.798" style="fill:none;stroke:#000;stroke-linecap:square;stroke-miterlimit:10;stroke-width:1.5px"/><polyline points="349.211 262.798 349.254 263.053 349.339 263.307 349.466 263.519 349.635 263.731" style="fill:none;stroke:#000;stroke-linecap:square;stroke-miterlimit:10;stroke-width:1.5px"/><line x1="349.593" y1="263.731" x2="383.462" y2="293.141" style="fill:none;stroke:#000;stroke-linecap:square;stroke-miterlimit:10;stroke-width:1.5px"/><polyline points="383.419 295.048 383.589 294.836 383.716 294.625 383.801 294.37 383.843 294.116 383.801 293.862 383.716 293.608 383.589 293.396 383.419 293.184" style="fill:none;stroke:#000;stroke-linecap:square;stroke-miterlimit:10;stroke-width:1.5px"/><line x1="383.462" y1="295.048" x2="352.942" y2="321.535" style="fill:none;stroke:#000;stroke-linecap:square;stroke-miterlimit:10;stroke-width:1.5px"/><polyline points="351.882 321.832 352.136 321.832 352.433 321.789 352.687 321.704 352.899 321.535" style="fill:none;stroke:#000;stroke-linecap:square;stroke-miterlimit:10;stroke-width:1.5px"/><line x1="351.882" y1="321.832" x2="207.378" y2="294.964" style="fill:none;stroke:#000;stroke-linecap:square;stroke-miterlimit:10;stroke-width:1.5px"/><polyline points="207.378 295.006 207.039 294.964 206.657 295.006 206.318 295.133 206.021 295.345 205.767 295.599 205.597 295.896 205.47 296.277 205.428 296.616" style="fill:none;stroke:#000;stroke-linecap:square;stroke-miterlimit:10;stroke-width:1.5px"/><line x1="205.386" y1="296.616" x2="205.386" y2="298.354" style="fill:none;stroke:#000;stroke-linecap:square;stroke-miterlimit:10;stroke-width:1.5px"/><polyline points="205.428 298.354 205.47 298.651 205.513 298.905 205.64 299.159 205.809 299.413 206.021 299.625 206.233 299.795 206.488 299.922 206.784 299.964" style="fill:none;stroke:#000;stroke-linecap:square;stroke-miterlimit:10;stroke-width:1.5px"/><line x1="206.742" y1="300.007" x2="353.366" y2="327.256" style="fill:none;stroke:#000;stroke-linecap:square;stroke-miterlimit:10;stroke-width:1.5px"/><polyline points="353.366 327.214 353.62 327.214 353.917 327.171 354.171 327.087 354.383 326.917" style="fill:none;stroke:#000;stroke-linecap:square;stroke-miterlimit:10;stroke-width:1.5px"/><line x1="354.425" y1="326.959" x2="390.753" y2="295.387" style="fill:none;stroke:#000;stroke-linecap:square;stroke-miterlimit:10;stroke-width:1.5px"/><polyline points="390.71 295.387 390.965 295.133 391.134 294.836 391.261 294.455 391.304 294.116 391.261 293.777 391.134 293.396 390.965 293.099 390.71 292.845" style="fill:none;stroke:#000;stroke-linecap:square;stroke-miterlimit:10;stroke-width:1.5px"/><line x1="390.753" y1="292.802" x2="354.807" y2="261.569" style="fill:none;stroke:#000;stroke-linecap:square;stroke-miterlimit:10;stroke-width:1.5px"/><polyline points="354.256 260.256 354.298 260.595 354.425 260.976 354.595 261.273 354.849 261.527" style="fill:none;stroke:#000;stroke-linecap:square;stroke-miterlimit:10;stroke-width:1.5px"/><line x1="354.213" y1="260.256" x2="354.213" y2="245.169" style="fill:none;stroke:#000;stroke-linecap:square;stroke-miterlimit:10;stroke-width:1.5px"/><polyline points="354.849 243.897 354.595 244.152 354.425 244.448 354.298 244.83 354.256 245.169" style="fill:none;stroke:#000;stroke-linecap:square;stroke-miterlimit:10;stroke-width:1.5px"/><line x1="354.807" y1="243.855" x2="390.753" y2="212.622" style="fill:none;stroke:#000;stroke-linecap:square;stroke-miterlimit:10;stroke-width:1.5px"/><polyline points="390.71 212.58 390.965 212.326 391.134 212.029 391.261 211.647 391.304 211.308 391.261 210.969 391.134 210.588 390.965 210.291 390.71 210.037" style="fill:none;stroke:#000;stroke-linecap:square;stroke-miterlimit:10;stroke-width:1.5px"/><line x1="390.753" y1="210.037" x2="355.146" y2="179.101" style="fill:none;stroke:#000;stroke-linecap:square;stroke-miterlimit:10;stroke-width:1.5px"/><polyline points="355.104 179.101 354.934 178.974 354.764 178.889 354.553 178.804 354.341 178.762" style="fill:none;stroke:#000;stroke-linecap:square;stroke-miterlimit:10;stroke-width:1.5px"/></svg>