<svg id="Capa_1" data-name="Capa 1" xmlns="http://www.w3.org/2000/svg" viewBox="0 0 500 500"><rect width="500" height="500" style="fill:none"/><polyline points="352.2 186.293 352.145 185.968 352.037 185.643 351.82 185.373 351.604 185.156 351.333 184.993 351.008 184.885" style="fill:none;stroke:#000;stroke-linecap:square;stroke-miterlimit:10;stroke-width:1.5px"/><polyline points="351.008 184.831 325.39 179.901 131.715 179.901" style="fill:none;stroke:#000;stroke-linecap:square;stroke-miterlimit:10;stroke-width:1.5px"/><polyline points="131.715 179.901 131.336 179.955 130.957 180.118 130.632 180.335 130.415 180.66 130.253 181.039 130.198 181.418" style="fill:none;stroke:#000;stroke-linecap:square;stroke-miterlimit:10;stroke-width:1.5px"/><line x1="130.144" y1="181.418" x2="130.144" y2="182.989" style="fill:none;stroke:#000;stroke-linecap:square;stroke-miterlimit:10;stroke-width:1.5px"/><polyline points="130.198 182.989 130.253 183.368 130.415 183.747 130.632 184.072 130.957 184.289 131.336 184.452 131.715 184.506" style="fill:none;stroke:#000;stroke-linecap:square;stroke-miterlimit:10;stroke-width:1.5px"/><line x1="131.715" y1="184.506" x2="324.849" y2="184.506" style="fill:none;stroke:#000;stroke-linecap:square;stroke-miterlimit:10;stroke-width:1.5px"/><polyline points="325.065 184.506 324.957 184.506 324.849 184.506" style="fill:none;stroke:#000;stroke-linecap:square;stroke-miterlimit:10;stroke-width:1.5px"/><line x1="325.065" y1="184.506" x2="347" y2="188.785" style="fill:none;stroke:#000;stroke-linecap:square;stroke-miterlimit:10;stroke-width:1.5px"/><polyline points="347.921 189.706 347.867 189.49 347.758 189.273 347.596 189.11 347.434 188.948 347.217 188.84 347 188.731" style="fill:none;stroke:#000;stroke-linecap:square;stroke-miterlimit:10;stroke-width:1.5px"/><polyline points="347.975 189.76 348.3 191.657 348.733 193.498 349.275 195.34 349.925 197.128 350.629 198.916 351.495 200.649 352.47 202.328 353.499 203.899 354.637 205.47 355.828 206.933 357.128 208.342 358.536 209.696 359.944 210.942 361.515 212.134 363.086 213.163 364.71 214.138" style="fill:none;stroke:#000;stroke-linecap:square;stroke-miterlimit:10;stroke-width:1.5px"/><polyline points="365.252 215.167 365.198 214.842 365.09 214.571 364.927 214.355 364.656 214.192" style="fill:none;stroke:#000;stroke-linecap:square;stroke-miterlimit:10;stroke-width:1.5px"/><line x1="365.306" y1="215.167" x2="365.306" y2="222.86" style="fill:none;stroke:#000;stroke-linecap:square;stroke-miterlimit:10;stroke-width:1.5px"/><polyline points="364.656 223.835 364.927 223.672 365.09 223.456 365.198 223.185 365.252 222.86" style="fill:none;stroke:#000;stroke-linecap:square;stroke-miterlimit:10;stroke-width:1.5px"/><polyline points="364.71 223.943 363.032 224.918 361.407 226.002 359.836 227.248 358.374 228.494 356.966 229.902 355.666 231.311 354.42 232.882 353.283 234.453 352.254 236.132 351.279 237.865 350.466 239.599 349.708 241.441 349.112 243.283 348.571 245.179 348.192 247.129 347.867 249.079 347.704 251.029 347.65 252.979 347.704 254.93 347.867 256.88 348.192 258.83 348.571 260.78 349.112 262.676 349.708 264.518 350.466 266.36 351.279 268.094 352.254 269.827 353.283 271.506 354.42 273.077 355.666 274.648 356.966 276.057 358.374 277.465 359.836 278.711 361.407 279.957 363.032 281.041 364.71 282.016" style="fill:none;stroke:#000;stroke-linecap:square;stroke-miterlimit:10;stroke-width:1.5px"/><polyline points="365.252 283.099 365.198 282.774 365.09 282.503 364.927 282.287 364.656 282.124" style="fill:none;stroke:#000;stroke-linecap:square;stroke-miterlimit:10;stroke-width:1.5px"/><line x1="365.306" y1="283.099" x2="365.306" y2="290.792" style="fill:none;stroke:#000;stroke-linecap:square;stroke-miterlimit:10;stroke-width:1.5px"/><polyline points="364.656 291.767 364.927 291.604 365.09 291.388 365.198 291.117 365.252 290.792" style="fill:none;stroke:#000;stroke-linecap:square;stroke-miterlimit:10;stroke-width:1.5px"/><polyline points="364.71 291.821 362.977 292.85 361.353 293.988 359.728 295.18 358.211 296.534 356.803 297.942 355.449 299.459 354.203 301.03 353.066 302.71 351.983 304.389 351.062 306.177 350.25 308.018 349.492 309.914 348.896 311.811 348.408 313.815" style="fill:none;stroke:#000;stroke-linecap:square;stroke-miterlimit:10;stroke-width:1.5px"/><polyline points="347 314.682 347.325 314.682 347.596 314.627 347.867 314.465 348.083 314.302 348.246 314.086 348.354 313.761" style="fill:none;stroke:#000;stroke-linecap:square;stroke-miterlimit:10;stroke-width:1.5px"/><line x1="347" y1="314.682" x2="219.995" y2="291.063" style="fill:none;stroke:#000;stroke-linecap:square;stroke-miterlimit:10;stroke-width:1.5px"/><polyline points="219.995 291.063 219.671 291.063 219.346 291.117 219.021 291.225 218.75 291.388 218.533 291.658 218.371 291.929 218.262 292.254 218.208 292.579" style="fill:none;stroke:#000;stroke-linecap:square;stroke-miterlimit:10;stroke-width:1.5px"/><line x1="218.208" y1="292.579" x2="218.208" y2="294.096" style="fill:none;stroke:#000;stroke-linecap:square;stroke-miterlimit:10;stroke-width:1.5px"/><polyline points="218.208 294.096 218.262 294.421 218.371 294.746 218.533 295.071 218.804 295.288 219.129 295.505 219.454 295.613" style="fill:none;stroke:#000;stroke-linecap:square;stroke-miterlimit:10;stroke-width:1.5px"/><line x1="219.454" y1="295.613" x2="350.9" y2="320.099" style="fill:none;stroke:#000;stroke-linecap:square;stroke-miterlimit:10;stroke-width:1.5px"/><polyline points="350.9 320.099 351.225 320.099 351.55 320.045 351.82 319.882 352.037 319.611 352.2 319.34 352.254 319.015" style="fill:none;stroke:#000;stroke-linecap:square;stroke-miterlimit:10;stroke-width:1.5px"/><polyline points="369.043 294.746 367.473 295.505 366.01 296.317 364.548 297.292 363.194 298.322 361.84 299.405 360.594 300.597 359.457 301.843 358.32 303.143 357.345 304.551 356.37 306.014 355.557 307.477 354.799 309.048 354.149 310.619 353.554 312.244 353.12 313.923 352.741 315.603 352.47 317.282 352.308 319.015" style="fill:none;stroke:#000;stroke-linecap:square;stroke-miterlimit:10;stroke-width:1.5px"/><polyline points="368.989 294.746 369.26 294.584 369.477 294.421 369.639 294.205 369.747 293.934 369.856 293.663 369.856 293.392" style="fill:none;stroke:#000;stroke-linecap:square;stroke-miterlimit:10;stroke-width:1.5px"/><line x1="369.856" y1="293.392" x2="369.856" y2="280.499" style="fill:none;stroke:#000;stroke-linecap:square;stroke-miterlimit:10;stroke-width:1.5px"/><polyline points="369.856 280.499 369.856 280.228 369.747 279.957 369.639 279.686 369.477 279.47 369.26 279.307 368.989 279.145" style="fill:none;stroke:#000;stroke-linecap:square;stroke-miterlimit:10;stroke-width:1.5px"/><polyline points="369.043 226.868 367.418 227.681 365.848 228.548 364.331 229.577 362.869 230.661 361.461 231.852 360.161 233.152 358.97 234.507 357.832 235.915 356.803 237.432 355.882 239.003 355.016 240.628 354.312 242.308 353.662 243.987 353.174 245.775 352.795 247.562 352.47 249.35 352.308 251.138 352.254 252.979 352.308 254.821 352.47 256.609 352.795 258.397 353.174 260.184 353.662 261.972 354.312 263.651 355.016 265.331 355.882 266.956 356.803 268.527 357.832 270.044 358.97 271.452 360.161 272.807 361.461 274.107 362.869 275.298 364.331 276.382 365.848 277.411 367.418 278.278 369.043 279.09" style="fill:none;stroke:#000;stroke-linecap:square;stroke-miterlimit:10;stroke-width:1.5px"/><polyline points="368.989 226.814 369.26 226.652 369.477 226.489 369.639 226.273 369.747 226.002 369.856 225.731 369.856 225.46" style="fill:none;stroke:#000;stroke-linecap:square;stroke-miterlimit:10;stroke-width:1.5px"/><line x1="369.856" y1="225.46" x2="369.856" y2="212.567" style="fill:none;stroke:#000;stroke-linecap:square;stroke-miterlimit:10;stroke-width:1.5px"/><polyline points="369.856 212.567 369.856 212.296 369.747 212.025 369.639 211.754 369.477 211.538 369.26 211.375 368.989 211.213" style="fill:none;stroke:#000;stroke-linecap:square;stroke-miterlimit:10;stroke-width:1.5px"/><polyline points="352.254 186.293 352.416 188.027 352.633 189.76 352.958 191.494 353.445 193.227 353.987 194.853 354.637 196.532 355.341 198.103 356.207 199.62 357.128 201.137 358.157 202.545 359.295 203.899 360.486 205.2 361.732 206.446 363.086 207.583 364.494 208.612 365.956 209.587 367.473 210.454 369.043 211.213" style="fill:none;stroke:#000;stroke-linecap:square;stroke-miterlimit:10;stroke-width:1.5px"/></svg>