<svg id="Capa_1" data-name="Capa 1" xmlns="http://www.w3.org/2000/svg" viewBox="0 0 500 500"><rect width="500" height="500" style="fill:none"/><line x1="372.271" y1="199.781" x2="372.271" y2="199.781" style="fill:none;stroke:#000;stroke-linecap:square;stroke-miterlimit:10;stroke-width:1.5px"/><polyline points="354.383 178.38 354.425 179.736 354.552 181.135 354.764 182.491 355.061 183.847 355.443 185.161 355.951 186.432 356.502 187.704 357.096 188.933 357.816 190.119 358.579 191.263 359.427 192.323 360.36 193.382 361.335 194.315 362.394 195.247 363.454 196.052 364.599 196.815 365.786 197.535 367.015 198.129 368.287 198.68 369.601 199.146 370.915 199.485 372.271 199.781" style="fill:none;stroke:#000;stroke-linecap:square;stroke-miterlimit:10;stroke-width:1.5px"/><line x1="354.341" y1="178.38" x2="354.341" y2="178.38" style="fill:none;stroke:#000;stroke-linecap:square;stroke-miterlimit:10;stroke-width:1.5px"/><line x1="354.341" y1="178.38" x2="354.341" y2="177.151" style="fill:none;stroke:#000;stroke-linecap:square;stroke-miterlimit:10;stroke-width:1.5px"/><polyline points="354.298 177.151 354.256 176.77 354.129 176.431 353.917 176.134 353.662 175.88 353.366 175.668 352.984 175.583" style="fill:none;stroke:#000;stroke-linecap:square;stroke-miterlimit:10;stroke-width:1.5px"/><line x1="353.027" y1="175.541" x2="324.753" y2="170.116" style="fill:none;stroke:#000;stroke-linecap:square;stroke-miterlimit:10;stroke-width:1.5px"/><polyline points="324.753 170.159 324.668 170.116 324.541 170.116" style="fill:none;stroke:#000;stroke-linecap:square;stroke-miterlimit:10;stroke-width:1.5px"/><line x1="324.541" y1="170.074" x2="111.536" y2="170.074" style="fill:none;stroke:#000;stroke-linecap:square;stroke-miterlimit:10;stroke-width:1.5px"/><polyline points="111.536 170.116 111.197 170.159 110.9 170.244 110.604 170.413 110.349 170.583 110.18 170.837 110.01 171.134 109.926 171.43 109.883 171.769" style="fill:none;stroke:#000;stroke-linecap:square;stroke-miterlimit:10;stroke-width:1.5px"/><line x1="109.841" y1="171.769" x2="109.841" y2="173.464" style="fill:none;stroke:#000;stroke-linecap:square;stroke-miterlimit:10;stroke-width:1.5px"/><polyline points="109.883 173.464 109.926 173.803 110.01 174.1 110.18 174.397 110.349 174.651 110.604 174.82 110.9 174.99 111.197 175.075 111.536 175.117" style="fill:none;stroke:#000;stroke-linecap:square;stroke-miterlimit:10;stroke-width:1.5px"/><line x1="111.536" y1="175.117" x2="324.032" y2="175.117" style="fill:none;stroke:#000;stroke-linecap:square;stroke-miterlimit:10;stroke-width:1.5px"/><polyline points="324.244 175.202 324.16 175.159 324.032 175.159" style="fill:none;stroke:#000;stroke-linecap:square;stroke-miterlimit:10;stroke-width:1.5px"/><line x1="324.287" y1="175.159" x2="348.406" y2="179.821" style="fill:none;stroke:#000;stroke-linecap:square;stroke-miterlimit:10;stroke-width:1.5px"/><line x1="349.423" y1="180.923" x2="349.423" y2="180.923" style="fill:none;stroke:#000;stroke-linecap:square;stroke-miterlimit:10;stroke-width:1.5px"/><polyline points="349.381 180.923 349.339 180.669 349.211 180.414 349.042 180.203 348.872 180.033 348.618 179.906 348.364 179.863" style="fill:none;stroke:#000;stroke-linecap:square;stroke-miterlimit:10;stroke-width:1.5px"/><line x1="371.381" y1="204.74" x2="371.381" y2="204.74" style="fill:none;stroke:#000;stroke-linecap:square;stroke-miterlimit:10;stroke-width:1.5px"/><polyline points="349.423 180.923 349.635 182.491 349.89 184.059 350.271 185.585 350.738 187.11 351.331 188.594 351.967 190.034 352.687 191.433 353.493 192.789 354.383 194.103 355.358 195.332 356.375 196.518 357.477 197.662 358.664 198.722 359.894 199.739 361.165 200.629 362.522 201.477 363.921 202.239 365.319 202.917 366.803 203.511 368.287 204.019 369.813 204.443 371.381 204.74" style="fill:none;stroke:#000;stroke-linecap:square;stroke-miterlimit:10;stroke-width:1.5px"/><line x1="351.84" y1="222.581" x2="351.84" y2="222.581" style="fill:none;stroke:#000;stroke-linecap:square;stroke-miterlimit:10;stroke-width:1.5px"/><polyline points="351.84 222.581 352.009 223.81 352.264 225.081 352.603 226.31 353.069 227.497 353.578 228.684 354.213 229.785 354.892 230.845 355.697 231.862 356.545 232.837 357.477 233.684 358.452 234.489 359.512 235.252 360.614 235.888 361.759 236.439 362.946 236.905 364.175 237.286 365.446 237.541 366.676 237.753 367.99 237.837 369.262 237.837 370.533 237.71 371.805 237.498 373.034 237.202 374.221 236.82 375.408 236.312 376.552 235.718 377.655 235.083 378.672 234.32 379.689 233.515 380.579 232.582 381.427 231.65 382.19 230.633 382.868 229.531 383.462 228.387 383.97 227.243 384.394 226.014 384.734 224.785 384.945 223.513 385.073 222.242 385.115 220.971 385.03 219.699 384.903 218.428 384.606 217.199 384.267 215.97 383.843 214.741 383.292 213.597 382.656 212.495 381.936 211.436 381.173 210.418 380.283 209.486 379.35 208.596 378.375 207.791 377.315 207.071 376.213 206.435 375.069 205.884 373.84 205.418 372.653 205.079 371.381 204.782" style="fill:none;stroke:#000;stroke-linecap:square;stroke-miterlimit:10;stroke-width:1.5px"/><polyline points="351.797 222.581 351.712 222.242 351.585 221.988 351.373 221.734 351.119 221.564 350.822 221.479 350.526 221.437 350.229 221.479 349.932 221.606 349.678 221.818 349.508 222.073 349.381 222.369 349.339 222.666" style="fill:none;stroke:#000;stroke-linecap:square;stroke-miterlimit:10;stroke-width:1.5px"/><line x1="349.296" y1="222.666" x2="349.296" y2="222.666" style="fill:none;stroke:#000;stroke-linecap:square;stroke-miterlimit:10;stroke-width:1.5px"/><line x1="349.296" y1="265.341" x2="349.296" y2="265.341" style="fill:none;stroke:#000;stroke-linecap:square;stroke-miterlimit:10;stroke-width:1.5px"/><line x1="349.296" y1="222.666" x2="349.296" y2="265.341" style="fill:none;stroke:#000;stroke-linecap:square;stroke-miterlimit:10;stroke-width:1.5px"/><polyline points="349.296 265.341 349.339 266.909 349.466 268.435 349.72 270.003 350.017 271.528 350.398 273.012 350.907 274.495 351.501 275.936 352.136 277.334 352.857 278.733 353.705 280.046 354.595 281.318 355.527 282.547 356.587 283.691 357.689 284.793 358.834 285.852 360.063 286.785 361.335 287.717 362.649 288.522 364.005 289.243 365.446 289.921 366.888 290.472 368.371 290.98 369.855 291.404 371.381 291.701" style="fill:none;stroke:#000;stroke-linecap:square;stroke-miterlimit:10;stroke-width:1.5px"/><polyline points="356.757 320.052 357.732 320.899 358.749 321.704 359.809 322.425 360.953 323.061 362.14 323.612 363.369 324.035 364.599 324.374 365.87 324.629 367.184 324.798 368.456 324.841 369.77 324.798 371.042 324.629 372.356 324.374 373.585 324.035 374.814 323.569 376.001 323.061 377.103 322.425 378.206 321.704 379.223 320.899 380.198 320.009 381.088 319.077 381.893 318.06 382.614 316.958 383.25 315.856 383.801 314.67 384.267 313.441 384.606 312.212 384.903 310.94 385.03 309.627 385.115 308.355 385.073 307.042 384.945 305.77 384.691 304.499 384.352 303.227 383.928 301.998 383.377 300.812 382.784 299.668 382.063 298.608 381.3 297.549 380.41 296.574 379.477 295.684 378.46 294.879 377.4 294.116 376.256 293.48 375.111 292.929 373.882 292.463 372.653 292.082 371.381 291.785" style="fill:none;stroke:#000;stroke-linecap:square;stroke-miterlimit:10;stroke-width:1.5px"/><polyline points="356.714 320.052 356.587 319.967 356.418 319.84 356.248 319.797 356.079 319.713" style="fill:none;stroke:#000;stroke-linecap:square;stroke-miterlimit:10;stroke-width:1.5px"/><line x1="356.079" y1="319.713" x2="208.734" y2="292.294" style="fill:none;stroke:#000;stroke-linecap:square;stroke-miterlimit:10;stroke-width:1.5px"/><polyline points="208.692 292.336 208.353 292.294 207.971 292.336 207.632 292.463 207.335 292.675 207.081 292.929 206.912 293.226 206.784 293.608 206.742 293.947" style="fill:none;stroke:#000;stroke-linecap:square;stroke-miterlimit:10;stroke-width:1.5px"/><line x1="206.742" y1="293.947" x2="206.742" y2="295.684" style="fill:none;stroke:#000;stroke-linecap:square;stroke-miterlimit:10;stroke-width:1.5px"/><polyline points="206.742 295.684 206.784 295.981 206.827 296.235 206.954 296.489 207.124 296.744 207.335 296.955 207.547 297.125 207.802 297.252 208.098 297.294" style="fill:none;stroke:#000;stroke-linecap:square;stroke-miterlimit:10;stroke-width:1.5px"/><line x1="208.098" y1="297.337" x2="353.747" y2="324.417" style="fill:none;stroke:#000;stroke-linecap:square;stroke-miterlimit:10;stroke-width:1.5px"/><polyline points="354.298 324.713 354.171 324.629 354.044 324.544 353.874 324.459 353.705 324.417" style="fill:none;stroke:#000;stroke-linecap:square;stroke-miterlimit:10;stroke-width:1.5px"/><polyline points="354.341 324.713 355.485 325.646 356.714 326.451 357.986 327.214 359.3 327.892 360.657 328.485 362.055 328.951 363.454 329.333 364.938 329.629 366.379 329.841 367.863 329.926 369.346 329.926 370.787 329.799 372.271 329.587 373.712 329.29 375.111 328.866 376.51 328.358 377.866 327.765 379.181 327.087 380.452 326.324 381.639 325.476 382.784 324.502 383.843 323.527 384.861 322.425 385.793 321.281 386.641 320.052 387.404 318.823 388.082 317.509 388.676 316.111 389.142 314.754 389.566 313.314 389.863 311.873 390.032 310.389 390.159 308.906 390.159 307.465 390.032 305.982 389.863 304.499 389.566 303.058 389.142 301.617 388.676 300.261 388.082 298.905 387.404 297.591 386.641 296.32 385.793 295.091 384.861 293.947 383.843 292.845 382.784 291.87 381.639 290.895 380.452 290.048 379.181 289.285 377.866 288.607 376.51 288.014 375.111 287.505 373.712 287.081 372.271 286.785" style="fill:none;stroke:#000;stroke-linecap:square;stroke-miterlimit:10;stroke-width:1.5px"/><polyline points="354.383 265.341 354.425 266.697 354.552 268.096 354.764 269.452 355.061 270.808 355.443 272.122 355.951 273.393 356.502 274.664 357.096 275.893 357.816 277.08 358.579 278.224 359.427 279.284 360.36 280.343 361.335 281.275 362.394 282.208 363.454 283.013 364.599 283.776 365.786 284.496 367.015 285.089 368.287 285.64 369.601 286.107 370.915 286.446 372.271 286.742" style="fill:none;stroke:#000;stroke-linecap:square;stroke-miterlimit:10;stroke-width:1.5px"/><line x1="354.341" y1="265.341" x2="354.341" y2="265.341" style="fill:none;stroke:#000;stroke-linecap:square;stroke-miterlimit:10;stroke-width:1.5px"/><line x1="354.341" y1="265.341" x2="354.341" y2="237.753" style="fill:none;stroke:#000;stroke-linecap:square;stroke-miterlimit:10;stroke-width:1.5px"/><polyline points="354.383 237.71 355.527 238.643 356.757 239.49 358.028 240.253 359.343 240.889 360.699 241.482 362.098 241.948 363.497 242.372 364.938 242.626 366.421 242.838 367.905 242.923 369.389 242.923 370.83 242.796 372.314 242.584 373.755 242.287 375.154 241.863 376.552 241.355 377.909 240.761 379.181 240.083 380.452 239.278 381.639 238.431 382.784 237.498 383.886 236.481 384.861 235.422 385.793 234.235 386.641 233.049 387.404 231.777 388.082 230.464 388.676 229.107 389.142 227.709 389.566 226.31 389.863 224.827 390.032 223.386 390.159 221.903 390.159 220.42 390.032 218.936 389.863 217.496 389.523 216.055 389.142 214.614 388.676 213.215 388.082 211.859 387.404 210.546 386.641 209.317 385.793 208.088 384.861 206.943 383.843 205.842 382.784 204.824 381.639 203.892 380.452 203.045 379.181 202.282 377.866 201.604 376.51 201.01 375.111 200.502 373.712 200.078 372.271 199.781" style="fill:none;stroke:#000;stroke-linecap:square;stroke-miterlimit:10;stroke-width:1.5px"/></svg>