<svg id="Capa_1" data-name="Capa 1" xmlns="http://www.w3.org/2000/svg" viewBox="0 0 500 500"><rect width="500" height="500" style="fill:none"/><polyline points="278.217 180.408 278.109 180.354 277.946 180.354" style="fill:none;stroke:#000;stroke-linecap:square;stroke-miterlimit:10;stroke-width:1.5px"/><line x1="277.946" y1="180.299" x2="86.816" y2="180.299" style="fill:none;stroke:#000;stroke-linecap:square;stroke-miterlimit:10;stroke-width:1.5px"/><polyline points="86.816 180.354 86.437 180.408 86.112 180.57 85.787 180.787 85.571 181.057 85.408 181.436 85.354 181.815" style="fill:none;stroke:#000;stroke-linecap:square;stroke-miterlimit:10;stroke-width:1.5px"/><line x1="85.354" y1="181.815" x2="85.354" y2="183.331" style="fill:none;stroke:#000;stroke-linecap:square;stroke-miterlimit:10;stroke-width:1.5px"/><polyline points="85.354 183.331 85.408 183.71 85.571 184.035 85.787 184.36 86.112 184.576 86.437 184.739 86.816 184.793" style="fill:none;stroke:#000;stroke-linecap:square;stroke-miterlimit:10;stroke-width:1.5px"/><line x1="86.816" y1="184.847" x2="277.297" y2="184.847" style="fill:none;stroke:#000;stroke-linecap:square;stroke-miterlimit:10;stroke-width:1.5px"/><polyline points="277.567 184.955 277.459 184.901 277.297 184.901" style="fill:none;stroke:#000;stroke-linecap:square;stroke-miterlimit:10;stroke-width:1.5px"/><line x1="277.622" y1="184.901" x2="401.756" y2="218.845" style="fill:none;stroke:#000;stroke-linecap:square;stroke-miterlimit:10;stroke-width:1.5px"/><polyline points="410.096 229.78 410.042 228.751 409.88 227.669 409.663 226.64 409.338 225.666 408.905 224.691 408.363 223.771 407.768 222.905 407.118 222.093 406.359 221.389 405.547 220.685 404.68 220.09 403.76 219.602 402.785 219.169 401.756 218.845" style="fill:none;stroke:#000;stroke-linecap:square;stroke-miterlimit:10;stroke-width:1.5px"/><line x1="410.096" y1="229.78" x2="410.096" y2="278.773" style="fill:none;stroke:#000;stroke-linecap:square;stroke-miterlimit:10;stroke-width:1.5px"/><polyline points="401.756 289.709 402.785 289.384 403.76 288.951 404.68 288.464 405.547 287.868 406.359 287.165 407.118 286.461 407.768 285.649 408.363 284.783 408.905 283.862 409.338 282.888 409.663 281.913 409.88 280.885 410.042 279.802 410.096 278.773" style="fill:none;stroke:#000;stroke-linecap:square;stroke-miterlimit:10;stroke-width:1.5px"/><line x1="401.756" y1="289.709" x2="309.305" y2="314.991" style="fill:none;stroke:#000;stroke-linecap:square;stroke-miterlimit:10;stroke-width:1.5px"/><polyline points="308.763 314.991 309.034 314.991 309.251 314.937" style="fill:none;stroke:#000;stroke-linecap:square;stroke-miterlimit:10;stroke-width:1.5px"/><line x1="308.763" y1="315.045" x2="174.068" y2="289.98" style="fill:none;stroke:#000;stroke-linecap:square;stroke-miterlimit:10;stroke-width:1.5px"/><polyline points="174.068 290.034 173.743 290.034 173.418 290.088 173.147 290.196 172.876 290.359 172.66 290.575 172.497 290.9 172.389 291.171 172.335 291.496" style="fill:none;stroke:#000;stroke-linecap:square;stroke-miterlimit:10;stroke-width:1.5px"/><line x1="172.281" y1="291.496" x2="172.281" y2="293.011" style="fill:none;stroke:#000;stroke-linecap:square;stroke-miterlimit:10;stroke-width:1.5px"/><polyline points="172.335 293.011 172.389 293.336 172.497 293.661 172.66 293.932 172.931 294.202 173.201 294.365 173.526 294.473" style="fill:none;stroke:#000;stroke-linecap:square;stroke-miterlimit:10;stroke-width:1.5px"/><line x1="173.472" y1="294.473" x2="308.98" y2="319.701" style="fill:none;stroke:#000;stroke-linecap:square;stroke-miterlimit:10;stroke-width:1.5px"/><polyline points="308.98 319.646 309.251 319.646 309.467 319.592" style="fill:none;stroke:#000;stroke-linecap:square;stroke-miterlimit:10;stroke-width:1.5px"/><line x1="309.467" y1="319.646" x2="402.947" y2="294.094" style="fill:none;stroke:#000;stroke-linecap:square;stroke-miterlimit:10;stroke-width:1.5px"/><polyline points="402.947 294.094 404.193 293.661 405.385 293.174 406.522 292.632 407.605 291.929 408.634 291.171 409.609 290.305 410.53 289.384 411.342 288.41 412.1 287.327 412.75 286.244 413.292 285.053 413.779 283.862 414.104 282.617 414.375 281.372 414.538 280.073 414.592 278.773" style="fill:none;stroke:#000;stroke-linecap:square;stroke-miterlimit:10;stroke-width:1.5px"/><line x1="414.646" y1="278.773" x2="414.646" y2="229.78" style="fill:none;stroke:#000;stroke-linecap:square;stroke-miterlimit:10;stroke-width:1.5px"/><polyline points="414.592 229.78 414.538 228.481 414.375 227.182 414.104 225.936 413.779 224.691 413.292 223.5 412.75 222.309 412.1 221.226 411.342 220.144 410.53 219.169 409.609 218.249 408.634 217.383 407.605 216.625 406.522 215.921 405.385 215.38 404.193 214.893 402.947 214.459" style="fill:none;stroke:#000;stroke-linecap:square;stroke-miterlimit:10;stroke-width:1.5px"/><line x1="402.947" y1="214.459" x2="278.217" y2="180.354" style="fill:none;stroke:#000;stroke-linecap:square;stroke-miterlimit:10;stroke-width:1.5px"/></svg>