<svg id="Capa_1" data-name="Capa 1" xmlns="http://www.w3.org/2000/svg" viewBox="0 0 500 500"><rect width="500" height="500" style="fill:none"/><polyline points="292.728 152.244 292.643 152.201 292.516 152.201" style="fill:none;stroke:#000;stroke-linecap:square;stroke-miterlimit:10;stroke-width:1.5px"/><line x1="292.516" y1="152.201" x2="82.224" y2="152.201" style="fill:none;stroke:#000;stroke-linecap:square;stroke-miterlimit:10;stroke-width:1.5px"/><polyline points="82.224 152.201 81.885 152.244 81.588 152.328 81.292 152.498 81.037 152.668 80.868 152.922 80.698 153.219 80.613 153.516 80.571 153.855" style="fill:none;stroke:#000;stroke-linecap:square;stroke-miterlimit:10;stroke-width:1.5px"/><line x1="80.571" y1="153.855" x2="80.571" y2="155.508" style="fill:none;stroke:#000;stroke-linecap:square;stroke-miterlimit:10;stroke-width:1.5px"/><polyline points="80.571 155.508 80.613 155.848 80.698 156.144 80.868 156.441 81.037 156.696 81.292 156.865 81.588 157.035 81.885 157.12 82.224 157.162" style="fill:none;stroke:#000;stroke-linecap:square;stroke-miterlimit:10;stroke-width:1.5px"/><line x1="82.224" y1="157.162" x2="292.05" y2="157.162" style="fill:none;stroke:#000;stroke-linecap:square;stroke-miterlimit:10;stroke-width:1.5px"/><polyline points="292.262 157.247 292.177 157.205 292.05 157.205" style="fill:none;stroke:#000;stroke-linecap:square;stroke-miterlimit:10;stroke-width:1.5px"/><line x1="292.304" y1="157.205" x2="315.237" y2="161.614" style="fill:none;stroke:#000;stroke-linecap:square;stroke-miterlimit:10;stroke-width:1.5px"/><polyline points="316.254 162.802 316.212 162.505 316.127 162.25 315.957 162.038 315.745 161.869 315.533 161.699 315.237 161.657" style="fill:none;stroke:#000;stroke-linecap:square;stroke-miterlimit:10;stroke-width:1.5px"/><polyline points="316.254 162.802 316.424 165.854 316.72 168.907 317.102 171.96 317.568 175.013 318.119 178.066 318.755 181.034 319.518 184.045 320.366 187.013 321.341 189.938 322.358 192.822 323.503 195.705 324.689 198.503 326.004 201.302 327.402 204.058 328.886 206.729 330.454 209.401 332.065 211.987 333.803 214.531 335.626 217.033 337.491 219.492 339.483 221.824 341.518 224.156 343.595 226.404 345.799 228.566 348.046 230.686 350.335 232.721 352.709 234.672 355.167 236.538 357.668 238.361 360.211 240.057 362.797 241.711 365.468 243.279 368.138 244.721 370.893 246.12 373.691 247.435 376.531 248.622 379.371 249.767 382.296 250.784" style="fill:none;stroke:#000;stroke-linecap:square;stroke-miterlimit:10;stroke-width:1.5px"/><polyline points="320.323 300.309 320.578 302.472 320.959 304.634 321.425 306.797 321.977 308.917 322.655 311.037 323.418 313.072 324.266 315.107 325.24 317.1 326.3 319.008 327.402 320.916 328.632 322.74 329.946 324.521 331.345 326.217 332.786 327.828 334.354 329.439 335.965 330.923 337.618 332.322 339.356 333.679 341.179 334.951 343.044 336.096 344.951 337.199 346.901 338.174 348.894 339.107 350.971 339.912 353.048 340.591 355.167 341.227 357.287 341.735 359.448 342.159 361.61 342.456 363.814 342.668 366.019 342.796 368.223 342.796 370.385 342.711 372.589 342.499 374.751 342.202 376.913 341.778 379.075 341.269 381.194 340.675 383.271 339.997 385.306 339.191 387.34 338.301 389.29 337.326 391.24 336.266 393.105 335.078 394.886 333.849 396.666 332.492 398.319 331.093 399.972 329.609 401.498 328.04 402.982 326.429 404.381 324.733 405.695 322.952 406.924 321.128 408.069 319.263 409.128 317.355 410.103 315.362 410.951 313.327 411.756 311.291 412.435 309.214 413.028 307.051 413.494 304.931 413.876 302.769 414.173 300.564 414.342 298.401 414.427 296.196 414.385 293.991 414.257 291.787 414.045 289.624 413.706 287.419 413.282 285.257 412.774 283.137 412.138 281.017 411.417 278.981 410.57 276.904 409.637 274.911 408.662 272.96 407.56 271.052 406.373 269.229 405.101 267.406 403.745 265.667 402.304 264.014 400.778 262.402 399.209 260.876 397.556 259.434 395.861 258.077 394.08 256.763 392.215 255.576 390.35 254.431 388.4 253.413 386.408 252.48 384.373 251.632 382.296 250.869" style="fill:none;stroke:#000;stroke-linecap:square;stroke-miterlimit:10;stroke-width:1.5px"/><polyline points="320.239 300.309 320.196 300.055 320.069 299.8 319.899 299.588 319.73 299.419 319.476 299.292 319.221 299.207" style="fill:none;stroke:#000;stroke-linecap:square;stroke-miterlimit:10;stroke-width:1.5px"/><line x1="319.264" y1="299.207" x2="178.193" y2="272.96" style="fill:none;stroke:#000;stroke-linecap:square;stroke-miterlimit:10;stroke-width:1.5px"/><polyline points="178.151 272.96 177.811 272.918 177.43 272.96 177.091 273.088 176.794 273.3 176.54 273.554 176.37 273.851 176.243 274.232 176.201 274.572" style="fill:none;stroke:#000;stroke-linecap:square;stroke-miterlimit:10;stroke-width:1.5px"/><line x1="176.201" y1="274.572" x2="176.201" y2="276.268" style="fill:none;stroke:#000;stroke-linecap:square;stroke-miterlimit:10;stroke-width:1.5px"/><polyline points="176.201 276.268 176.243 276.565 176.285 276.819 176.413 277.073 176.582 277.328 176.794 277.54 177.006 277.709 177.26 277.837 177.557 277.879" style="fill:none;stroke:#000;stroke-linecap:square;stroke-miterlimit:10;stroke-width:1.5px"/><line x1="177.557" y1="277.921" x2="314.813" y2="303.447" style="fill:none;stroke:#000;stroke-linecap:square;stroke-miterlimit:10;stroke-width:1.5px"/><polyline points="315.788 304.465 315.703 304.21 315.576 303.998 315.449 303.829 315.237 303.659 315.025 303.532 314.77 303.447" style="fill:none;stroke:#000;stroke-linecap:square;stroke-miterlimit:10;stroke-width:1.5px"/><polyline points="315.83 304.465 316.254 306.712 316.805 308.959 317.441 311.164 318.162 313.327 319.009 315.447 319.899 317.567 320.917 319.602 322.019 321.637 323.206 323.588 324.477 325.496 325.834 327.361 327.275 329.142 328.759 330.881 330.37 332.534 332.023 334.103 333.718 335.63 335.541 337.029 337.364 338.386 339.271 339.658 341.264 340.845 343.256 341.947 345.333 342.965 347.41 343.898 349.572 344.704 351.734 345.424 353.938 346.06 356.142 346.612 358.389 347.036 360.678 347.375 362.967 347.629 365.256 347.757 367.545 347.799 369.834 347.757 372.123 347.587 374.369 347.29 376.658 346.951 378.905 346.484 381.109 345.933 383.313 345.255 385.475 344.492 387.595 343.644 389.714 342.711 391.749 341.693 393.741 340.591 395.691 339.361 397.599 338.089 399.421 336.69 401.202 335.248 402.897 333.722 404.55 332.11 406.119 330.457 407.602 328.718 409.001 326.895 410.358 325.029 411.587 323.121 412.774 321.128 413.834 319.093 414.809 317.058 415.699 314.938 416.504 312.775 417.225 310.613 417.818 308.408 418.369 306.161 418.751 303.913 419.09 301.624 419.302 299.334 419.429 297.044 419.429 294.755 419.344 292.465 419.132 290.175 418.878 287.928 418.454 285.638 417.988 283.434 417.394 281.186 416.716 279.024 415.953 276.861 415.063 274.741 414.13 272.664 413.071 270.628 411.926 268.635 410.697 266.685 409.383 264.819 407.984 262.996 406.5 261.215 404.974 259.562 403.363 257.908 401.668 256.381 399.93 254.897 398.107 253.498 396.2 252.184 394.292 250.954 392.3 249.809 390.265 248.749 388.188 247.774 386.069 246.926 383.907 246.12" style="fill:none;stroke:#000;stroke-linecap:square;stroke-miterlimit:10;stroke-width:1.5px"/><polyline points="321.171 158.689 321.214 161.699 321.383 164.71 321.595 167.72 321.977 170.731 322.4 173.741 322.951 176.709 323.587 179.635 324.308 182.603 325.156 185.486 326.088 188.37 327.106 191.21 328.208 194.009 329.395 196.807 330.709 199.521 332.065 202.235 333.549 204.864 335.117 207.45 336.77 209.994 338.466 212.454 340.289 214.913 342.154 217.245 344.104 219.577 346.138 221.782 348.258 223.944 350.42 226.064 352.666 228.1 354.955 230.05 357.329 231.916 359.745 233.697 362.246 235.435 364.789 237.046 367.375 238.615 370.046 240.057 372.716 241.456 375.429 242.728 378.227 243.915 381.024 245.018 383.864 246.035" style="fill:none;stroke:#000;stroke-linecap:square;stroke-miterlimit:10;stroke-width:1.5px"/><polyline points="321.129 158.689 321.086 158.434 321.044 158.18 320.917 157.968 320.747 157.798 320.535 157.629 320.323 157.544" style="fill:none;stroke:#000;stroke-linecap:square;stroke-miterlimit:10;stroke-width:1.5px"/><line x1="321.171" y1="158.689" x2="321.171" y2="158.689" style="fill:none;stroke:#000;stroke-linecap:square;stroke-miterlimit:10;stroke-width:1.5px"/><line x1="320.323" y1="157.501" x2="292.771" y2="152.201" style="fill:none;stroke:#000;stroke-linecap:square;stroke-miterlimit:10;stroke-width:1.5px"/></svg>