<svg id="Capa_1" data-name="Capa 1" xmlns="http://www.w3.org/2000/svg" viewBox="0 0 500 500"><rect width="500" height="500" style="fill:none"/><polyline points="351.143 186.266 351.089 185.941 350.981 185.67 350.818 185.4 350.548 185.129 350.277 184.966 349.952 184.858" style="fill:none;stroke:#000;stroke-linecap:square;stroke-miterlimit:10;stroke-width:1.5px"/><line x1="350.006" y1="184.858" x2="324.443" y2="179.928" style="fill:none;stroke:#000;stroke-linecap:square;stroke-miterlimit:10;stroke-width:1.5px"/><polyline points="324.443 179.928 324.334 179.928 324.226 179.928" style="fill:none;stroke:#000;stroke-linecap:square;stroke-miterlimit:10;stroke-width:1.5px"/><line x1="324.226" y1="179.928" x2="130.659" y2="179.928" style="fill:none;stroke:#000;stroke-linecap:square;stroke-miterlimit:10;stroke-width:1.5px"/><polyline points="130.659 179.928 130.28 179.982 129.901 180.145 129.576 180.362 129.359 180.687 129.197 181.066 129.142 181.445" style="fill:none;stroke:#000;stroke-linecap:square;stroke-miterlimit:10;stroke-width:1.5px"/><line x1="129.142" y1="181.445" x2="129.142" y2="183.016" style="fill:none;stroke:#000;stroke-linecap:square;stroke-miterlimit:10;stroke-width:1.5px"/><polyline points="129.142 183.016 129.197 183.395 129.359 183.775 129.576 184.1 129.901 184.316 130.28 184.479 130.659 184.533" style="fill:none;stroke:#000;stroke-linecap:square;stroke-miterlimit:10;stroke-width:1.5px"/><line x1="130.659" y1="184.533" x2="323.793" y2="184.533" style="fill:none;stroke:#000;stroke-linecap:square;stroke-miterlimit:10;stroke-width:1.5px"/><polyline points="324.009 184.533 323.901 184.533 323.793 184.533" style="fill:none;stroke:#000;stroke-linecap:square;stroke-miterlimit:10;stroke-width:1.5px"/><line x1="324.009" y1="184.533" x2="345.836" y2="188.758" style="fill:none;stroke:#000;stroke-linecap:square;stroke-miterlimit:10;stroke-width:1.5px"/><polyline points="346.757 189.842 346.702 189.571 346.594 189.354 346.486 189.137 346.269 188.975 346.052 188.867 345.836 188.758" style="fill:none;stroke:#000;stroke-linecap:square;stroke-miterlimit:10;stroke-width:1.5px"/><polyline points="346.811 189.788 347.081 192.875 347.406 195.963 347.894 199.051 348.435 202.139 349.085 205.172 349.789 208.152 350.656 211.186 351.577 214.111 352.66 217.036 353.797 219.962 354.989 222.778 356.343 225.595 357.751 228.358 359.213 231.121 360.838 233.775 362.517 236.376 364.25 238.922 366.092 241.414" style="fill:none;stroke:#000;stroke-linecap:square;stroke-miterlimit:10;stroke-width:1.5px"/><polyline points="366.254 242.172 366.254 242.01 366.2 241.793 366.146 241.63 366.037 241.468" style="fill:none;stroke:#000;stroke-linecap:square;stroke-miterlimit:10;stroke-width:1.5px"/><line x1="366.308" y1="242.172" x2="366.308" y2="262.108" style="fill:none;stroke:#000;stroke-linecap:square;stroke-miterlimit:10;stroke-width:1.5px"/><polyline points="366.037 262.812 366.146 262.649 366.2 262.487 366.254 262.27 366.254 262.108" style="fill:none;stroke:#000;stroke-linecap:square;stroke-miterlimit:10;stroke-width:1.5px"/><polyline points="366.037 262.812 364.034 265.575 362.084 268.446 360.242 271.317 358.509 274.296 356.884 277.33 355.422 280.418 354.014 283.56 352.714 286.756 351.577 290.006 350.548 293.311 349.627 296.615 348.815 299.974 348.11 303.333 347.569 306.745 347.136 310.158 346.811 313.571" style="fill:none;stroke:#000;stroke-linecap:square;stroke-miterlimit:10;stroke-width:1.5px"/><polyline points="345.457 314.6 345.782 314.6 346.107 314.546 346.377 314.384 346.594 314.113 346.757 313.842 346.811 313.571" style="fill:none;stroke:#000;stroke-linecap:square;stroke-miterlimit:10;stroke-width:1.5px"/><line x1="345.457" y1="314.6" x2="218.994" y2="291.09" style="fill:none;stroke:#000;stroke-linecap:square;stroke-miterlimit:10;stroke-width:1.5px"/><polyline points="218.994 291.09 218.669 291.09 218.344 291.144 218.019 291.252 217.748 291.415 217.531 291.686 217.369 291.956 217.26 292.281 217.206 292.606" style="fill:none;stroke:#000;stroke-linecap:square;stroke-miterlimit:10;stroke-width:1.5px"/><line x1="217.206" y1="292.606" x2="217.206" y2="294.123" style="fill:none;stroke:#000;stroke-linecap:square;stroke-miterlimit:10;stroke-width:1.5px"/><polyline points="217.206 294.123 217.26 294.448 217.369 294.773 217.531 295.098 217.802 295.315 218.127 295.532 218.452 295.64" style="fill:none;stroke:#000;stroke-linecap:square;stroke-miterlimit:10;stroke-width:1.5px"/><line x1="218.452" y1="295.64" x2="349.844" y2="320.072" style="fill:none;stroke:#000;stroke-linecap:square;stroke-miterlimit:10;stroke-width:1.5px"/><polyline points="349.844 320.072 350.169 320.072 350.494 319.963 350.764 319.801 350.981 319.584 351.143 319.259 351.198 318.934" style="fill:none;stroke:#000;stroke-linecap:square;stroke-miterlimit:10;stroke-width:1.5px"/><polyline points="370.587 264.491 368.583 267.091 366.687 269.8 364.9 272.509 363.221 275.325 361.65 278.197 360.188 281.122 358.834 284.047 357.534 287.081 356.397 290.169 355.368 293.257 354.447 296.399 353.635 299.541 352.931 302.737 352.335 305.987 351.902 309.183 351.523 312.433 351.306 315.738 351.198 318.988" style="fill:none;stroke:#000;stroke-linecap:square;stroke-miterlimit:10;stroke-width:1.5px"/><polyline points="370.533 264.491 370.695 264.274 370.803 264.058 370.858 263.787 370.858 263.57" style="fill:none;stroke:#000;stroke-linecap:square;stroke-miterlimit:10;stroke-width:1.5px"/><line x1="370.858" y1="263.57" x2="370.858" y2="240.709" style="fill:none;stroke:#000;stroke-linecap:square;stroke-miterlimit:10;stroke-width:1.5px"/><polyline points="370.858 240.709 370.858 240.493 370.803 240.222 370.695 240.005 370.533 239.789" style="fill:none;stroke:#000;stroke-linecap:square;stroke-miterlimit:10;stroke-width:1.5px"/><polyline points="351.252 186.321 351.36 189.517 351.631 192.713 352.01 195.909 352.497 199.051 353.093 202.247 353.797 205.389 354.61 208.477 355.53 211.565 356.614 214.598 357.751 217.578 358.997 220.557 360.351 223.483 361.813 226.3 363.384 229.117 365.008 231.879 366.796 234.588 368.637 237.188 370.587 239.734" style="fill:none;stroke:#000;stroke-linecap:square;stroke-miterlimit:10;stroke-width:1.5px"/></svg>