<svg id="Capa_1" data-name="Capa 1" xmlns="http://www.w3.org/2000/svg" viewBox="0 0 500 500"><rect width="500" height="500" style="fill:none"/><polyline points="183.216 298.608 183.259 298.905 183.301 299.159 183.428 299.413 183.598 299.668 183.81 299.88 184.021 300.049 184.276 300.176 184.573 300.219" style="fill:none;stroke:#000;stroke-linecap:square;stroke-miterlimit:10;stroke-width:1.5px"/><line x1="184.573" y1="300.261" x2="328.271" y2="327.002" style="fill:none;stroke:#000;stroke-linecap:square;stroke-miterlimit:10;stroke-width:1.5px"/><polyline points="328.271 326.959 328.526 326.959 328.822 326.917 329.077 326.832 329.289 326.663" style="fill:none;stroke:#000;stroke-linecap:square;stroke-miterlimit:10;stroke-width:1.5px"/><line x1="329.331" y1="326.705" x2="413.092" y2="253.941" style="fill:none;stroke:#000;stroke-linecap:square;stroke-miterlimit:10;stroke-width:1.5px"/><polyline points="413.049 253.899 413.304 253.645 413.473 253.348 413.6 252.966 413.643 252.627 413.6 252.288 413.473 251.907 413.304 251.61 413.049 251.356" style="fill:none;stroke:#000;stroke-linecap:square;stroke-miterlimit:10;stroke-width:1.5px"/><line x1="413.092" y1="251.314" x2="329.501" y2="178.719" style="fill:none;stroke:#000;stroke-linecap:square;stroke-miterlimit:10;stroke-width:1.5px"/><polyline points="329.458 178.719 329.289 178.592 329.119 178.507 328.907 178.423 328.695 178.38" style="fill:none;stroke:#000;stroke-linecap:square;stroke-miterlimit:10;stroke-width:1.5px"/><line x1="328.695" y1="178.338" x2="301.227" y2="173.041" style="fill:none;stroke:#000;stroke-linecap:square;stroke-miterlimit:10;stroke-width:1.5px"/><polyline points="301.227 173.083 301.142 173.041 301.015 173.041" style="fill:none;stroke:#000;stroke-linecap:square;stroke-miterlimit:10;stroke-width:1.5px"/><line x1="301.015" y1="172.998" x2="88.01" y2="172.998" style="fill:none;stroke:#000;stroke-linecap:square;stroke-miterlimit:10;stroke-width:1.5px"/><polyline points="88.01 173.041 87.671 173.083 87.375 173.168 87.078 173.337 86.823 173.507 86.654 173.761 86.484 174.058 86.4 174.354 86.357 174.693" style="fill:none;stroke:#000;stroke-linecap:square;stroke-miterlimit:10;stroke-width:1.5px"/><line x1="86.357" y1="174.693" x2="86.357" y2="176.388" style="fill:none;stroke:#000;stroke-linecap:square;stroke-miterlimit:10;stroke-width:1.5px"/><polyline points="86.357 176.388 86.4 176.728 86.484 177.024 86.654 177.321 86.823 177.575 87.078 177.745 87.375 177.914 87.671 177.999 88.01 178.041" style="fill:none;stroke:#000;stroke-linecap:square;stroke-miterlimit:10;stroke-width:1.5px"/><line x1="88.01" y1="178.084" x2="300.507" y2="178.084" style="fill:none;stroke:#000;stroke-linecap:square;stroke-miterlimit:10;stroke-width:1.5px"/><polyline points="300.718 178.168 300.634 178.126 300.507 178.126" style="fill:none;stroke:#000;stroke-linecap:square;stroke-miterlimit:10;stroke-width:1.5px"/><line x1="300.761" y1="178.084" x2="326.533" y2="183.042" style="fill:none;stroke:#000;stroke-linecap:square;stroke-miterlimit:10;stroke-width:1.5px"/><polyline points="327.084 183.381 326.957 183.296 326.83 183.211 326.661 183.127 326.491 183.127" style="fill:none;stroke:#000;stroke-linecap:square;stroke-miterlimit:10;stroke-width:1.5px"/><line x1="327.127" y1="183.339" x2="405.801" y2="251.695" style="fill:none;stroke:#000;stroke-linecap:square;stroke-miterlimit:10;stroke-width:1.5px"/><polyline points="405.758 253.56 405.928 253.348 406.055 253.136 406.14 252.882 406.182 252.627 406.14 252.373 406.055 252.119 405.928 251.907 405.758 251.695" style="fill:none;stroke:#000;stroke-linecap:square;stroke-miterlimit:10;stroke-width:1.5px"/><line x1="405.801" y1="253.602" x2="327.847" y2="321.281" style="fill:none;stroke:#000;stroke-linecap:square;stroke-miterlimit:10;stroke-width:1.5px"/><polyline points="326.788 321.577 327.042 321.577 327.339 321.535 327.593 321.45 327.805 321.281" style="fill:none;stroke:#000;stroke-linecap:square;stroke-miterlimit:10;stroke-width:1.5px"/><line x1="326.788" y1="321.577" x2="184.7" y2="295.176" style="fill:none;stroke:#000;stroke-linecap:square;stroke-miterlimit:10;stroke-width:1.5px"/><polyline points="184.657 295.176 184.403 295.176 184.149 295.218 183.894 295.303 183.64 295.472 183.47 295.642 183.343 295.896 183.259 296.15 183.216 296.405" style="fill:none;stroke:#000;stroke-linecap:square;stroke-miterlimit:10;stroke-width:1.5px"/><line x1="183.216" y1="296.405" x2="183.216" y2="298.608" style="fill:none;stroke:#000;stroke-linecap:square;stroke-miterlimit:10;stroke-width:1.5px"/></svg>