<svg id="Capa_1" data-name="Capa 1" xmlns="http://www.w3.org/2000/svg" viewBox="0 0 500 500"><rect width="500" height="500" style="fill:none"/><polyline points="356.142 321.277 357.668 321.192 359.152 321.065 360.678 320.81 362.161 320.471 363.603 320.047 365.044 319.496 366.4 318.902 367.757 318.224 369.071 317.461 370.342 316.613 371.529 315.68 372.674 314.705 373.776 313.645 374.793 312.5 375.768 311.312 376.616 310.083 377.421 308.811 378.142 307.454 378.778 306.097 379.329 304.655 379.795 303.214 380.177 301.73 380.473 300.246 380.643 298.762 380.77 297.235 380.77 295.709 380.685 294.225 380.516 292.698 380.261 291.214 379.88 289.73 379.456 288.288 378.905 286.847 378.312 285.448 377.591 284.133" style="fill:none;stroke:#000;stroke-linecap:square;stroke-miterlimit:10;stroke-width:1.5px"/><polyline points="355.93 321.277 356.057 321.277 356.142 321.277" style="fill:none;stroke:#000;stroke-linecap:square;stroke-miterlimit:10;stroke-width:1.5px"/><line x1="355.93" y1="321.277" x2="211.892" y2="294.479" style="fill:none;stroke:#000;stroke-linecap:square;stroke-miterlimit:10;stroke-width:1.5px"/><polyline points="211.892 294.521 211.553 294.479 211.172 294.521 210.833 294.649 210.536 294.861 210.282 295.115 210.112 295.412 209.985 295.794 209.942 296.133" style="fill:none;stroke:#000;stroke-linecap:square;stroke-miterlimit:10;stroke-width:1.5px"/><line x1="209.942" y1="296.133" x2="209.942" y2="297.829" style="fill:none;stroke:#000;stroke-linecap:square;stroke-miterlimit:10;stroke-width:1.5px"/><polyline points="209.942 297.829 209.985 298.126 210.027 298.38 210.154 298.634 210.324 298.889 210.536 299.101 210.748 299.27 211.002 299.398 211.299 299.44" style="fill:none;stroke:#000;stroke-linecap:square;stroke-miterlimit:10;stroke-width:1.5px"/><line x1="211.299" y1="299.44" x2="355.464" y2="326.28" style="fill:none;stroke:#000;stroke-linecap:square;stroke-miterlimit:10;stroke-width:1.5px"/><polyline points="355.464 326.28 355.549 326.28 355.676 326.28" style="fill:none;stroke:#000;stroke-linecap:square;stroke-miterlimit:10;stroke-width:1.5px"/><polyline points="355.676 326.28 357.414 326.238 359.152 326.111 360.847 325.856 362.543 325.517 364.238 325.051 365.892 324.542 367.502 323.906 369.071 323.185 370.597 322.379 372.08 321.446 373.479 320.471 374.878 319.411 376.15 318.266 377.421 317.037 378.566 315.765 379.668 314.408 380.643 313.009 381.575 311.524 382.423 309.998 383.186 308.429 383.822 306.818 384.373 305.207 384.839 303.511 385.221 301.815 385.475 300.118 385.645 298.38 385.73 296.642 385.687 294.903 385.56 293.165 385.348 291.469 385.009 289.773 384.585 288.076 384.076 286.423 383.441 284.812 382.72 283.2 381.915 281.674" style="fill:none;stroke:#000;stroke-linecap:square;stroke-miterlimit:10;stroke-width:1.5px"/><polyline points="355.803 180.674 355.888 185.083 356.057 189.451 356.354 193.861 356.693 198.228 357.117 202.595 357.668 206.963 358.304 211.287 358.982 215.612 359.788 219.937 360.678 224.22 361.653 228.502 362.712 232.785 363.857 237.025 365.086 241.223 366.4 245.421 367.799 249.576 369.283 253.689 370.851 257.802 372.504 261.872 374.242 265.901 376.023 269.886 377.93 273.83 379.922 277.773 381.957 281.631" style="fill:none;stroke:#000;stroke-linecap:square;stroke-miterlimit:10;stroke-width:1.5px"/><polyline points="355.803 180.716 355.761 180.334 355.633 179.995 355.421 179.698 355.167 179.444 354.828 179.232 354.489 179.147" style="fill:none;stroke:#000;stroke-linecap:square;stroke-miterlimit:10;stroke-width:1.5px"/><line x1="354.489" y1="179.105" x2="326.682" y2="173.762" style="fill:none;stroke:#000;stroke-linecap:square;stroke-miterlimit:10;stroke-width:1.5px"/><polyline points="326.639 173.762 326.512 173.72 326.343 173.72" style="fill:none;stroke:#000;stroke-linecap:square;stroke-miterlimit:10;stroke-width:1.5px"/><line x1="326.343" y1="173.72" x2="115.966" y2="173.72" style="fill:none;stroke:#000;stroke-linecap:square;stroke-miterlimit:10;stroke-width:1.5px"/><polyline points="115.966 173.72 115.627 173.762 115.33 173.847 115.033 174.017 114.779 174.186 114.61 174.441 114.44 174.738 114.355 175.034 114.313 175.373" style="fill:none;stroke:#000;stroke-linecap:square;stroke-miterlimit:10;stroke-width:1.5px"/><line x1="114.27" y1="175.373" x2="114.27" y2="177.07" style="fill:none;stroke:#000;stroke-linecap:square;stroke-miterlimit:10;stroke-width:1.5px"/><polyline points="114.313 177.07 114.355 177.409 114.44 177.706 114.61 178.002 114.779 178.257 115.033 178.426 115.33 178.596 115.627 178.681 115.966 178.723" style="fill:none;stroke:#000;stroke-linecap:square;stroke-miterlimit:10;stroke-width:1.5px"/><line x1="115.966" y1="178.723" x2="325.919" y2="178.723" style="fill:none;stroke:#000;stroke-linecap:square;stroke-miterlimit:10;stroke-width:1.5px"/><polyline points="326.131 178.766 326.046 178.723 325.919 178.723" style="fill:none;stroke:#000;stroke-linecap:square;stroke-miterlimit:10;stroke-width:1.5px"/><line x1="326.173" y1="178.723" x2="349.869" y2="183.303" style="fill:none;stroke:#000;stroke-linecap:square;stroke-miterlimit:10;stroke-width:1.5px"/><polyline points="350.886 184.49 350.843 184.235 350.759 183.981 350.589 183.727 350.377 183.557 350.165 183.387 349.869 183.345" style="fill:none;stroke:#000;stroke-linecap:square;stroke-miterlimit:10;stroke-width:1.5px"/><polyline points="350.928 184.49 351.098 188.815 351.31 193.14 351.649 197.465 352.073 201.79 352.539 206.115 353.132 210.397 353.811 214.68 354.531 218.92 355.379 223.202 356.312 227.442 357.287 231.64 358.389 235.838 359.533 240.036 360.805 244.149 362.119 248.304 363.518 252.374 365.001 256.445 366.57 260.516 368.223 264.501 369.961 268.487 371.741 272.43 373.606 276.331 375.556 280.19 377.591 284.048" style="fill:none;stroke:#000;stroke-linecap:square;stroke-miterlimit:10;stroke-width:1.5px"/></svg>