<svg id="Capa_1" data-name="Capa 1" xmlns="http://www.w3.org/2000/svg" viewBox="0 0 500 500"><rect width="500" height="500" style="fill:none"/><polyline points="225.436 297.803 225.478 298.1 225.52 298.354 225.648 298.608 225.817 298.862 226.029 299.074 226.241 299.244 226.495 299.371 226.792 299.413" style="fill:none;stroke:#000;stroke-linecap:square;stroke-miterlimit:10;stroke-width:1.5px"/><line x1="226.792" y1="299.456" x2="368.414" y2="325.773" style="fill:none;stroke:#000;stroke-linecap:square;stroke-miterlimit:10;stroke-width:1.5px"/><polyline points="368.414 325.773 368.668 325.773 368.922 325.73 369.177 325.646 369.431 325.476 369.601 325.307 369.728 325.052 369.813 324.798 369.855 324.544" style="fill:none;stroke:#000;stroke-linecap:square;stroke-miterlimit:10;stroke-width:1.5px"/><line x1="369.897" y1="324.544" x2="369.897" y2="181.05" style="fill:none;stroke:#000;stroke-linecap:square;stroke-miterlimit:10;stroke-width:1.5px"/><polyline points="369.897 181.05 369.855 180.669 369.728 180.33 369.516 179.991 369.262 179.736 368.922 179.525 368.541 179.44" style="fill:none;stroke:#000;stroke-linecap:square;stroke-miterlimit:10;stroke-width:1.5px"/><line x1="368.541" y1="179.44" x2="341.581" y2="174.227" style="fill:none;stroke:#000;stroke-linecap:square;stroke-miterlimit:10;stroke-width:1.5px"/><polyline points="341.581 174.27 341.497 174.227 341.37 174.227" style="fill:none;stroke:#000;stroke-linecap:square;stroke-miterlimit:10;stroke-width:1.5px"/><line x1="341.37" y1="174.227" x2="131.756" y2="174.227" style="fill:none;stroke:#000;stroke-linecap:square;stroke-miterlimit:10;stroke-width:1.5px"/><polyline points="131.756 174.227 131.417 174.27 131.12 174.354 130.823 174.524 130.569 174.693 130.399 174.948 130.23 175.244 130.145 175.541 130.103 175.88" style="fill:none;stroke:#000;stroke-linecap:square;stroke-miterlimit:10;stroke-width:1.5px"/><line x1="130.103" y1="175.88" x2="130.103" y2="177.533" style="fill:none;stroke:#000;stroke-linecap:square;stroke-miterlimit:10;stroke-width:1.5px"/><polyline points="130.103 177.533 130.145 177.872 130.23 178.168 130.399 178.465 130.569 178.719 130.823 178.889 131.12 179.058 131.417 179.143 131.756 179.185" style="fill:none;stroke:#000;stroke-linecap:square;stroke-miterlimit:10;stroke-width:1.5px"/><line x1="131.756" y1="179.185" x2="340.861" y2="179.185" style="fill:none;stroke:#000;stroke-linecap:square;stroke-miterlimit:10;stroke-width:1.5px"/><polyline points="341.073 179.228 340.988 179.185 340.861 179.185" style="fill:none;stroke:#000;stroke-linecap:square;stroke-miterlimit:10;stroke-width:1.5px"/><line x1="341.115" y1="179.185" x2="363.921" y2="183.593" style="fill:none;stroke:#000;stroke-linecap:square;stroke-miterlimit:10;stroke-width:1.5px"/><polyline points="364.895 184.822 364.853 184.525 364.768 184.271 364.599 184.059 364.429 183.847 364.175 183.72 363.878 183.635" style="fill:none;stroke:#000;stroke-linecap:square;stroke-miterlimit:10;stroke-width:1.5px"/><line x1="364.895" y1="184.822" x2="364.895" y2="318.568" style="fill:none;stroke:#000;stroke-linecap:square;stroke-miterlimit:10;stroke-width:1.5px"/><polyline points="363.454 319.797 363.709 319.797 363.963 319.755 364.217 319.67 364.472 319.501 364.641 319.331 364.768 319.077 364.853 318.823 364.895 318.568" style="fill:none;stroke:#000;stroke-linecap:square;stroke-miterlimit:10;stroke-width:1.5px"/><line x1="363.454" y1="319.797" x2="226.919" y2="294.413" style="fill:none;stroke:#000;stroke-linecap:square;stroke-miterlimit:10;stroke-width:1.5px"/><polyline points="226.877 294.413 226.622 294.413 226.368 294.455 226.114 294.54 225.859 294.709 225.69 294.879 225.563 295.133 225.478 295.387 225.436 295.642" style="fill:none;stroke:#000;stroke-linecap:square;stroke-miterlimit:10;stroke-width:1.5px"/><line x1="225.436" y1="295.642" x2="225.436" y2="297.803" style="fill:none;stroke:#000;stroke-linecap:square;stroke-miterlimit:10;stroke-width:1.5px"/></svg>