<svg id="Capa_1" data-name="Capa 1" xmlns="http://www.w3.org/2000/svg" viewBox="0 0 500 500"><rect width="500" height="500" style="fill:none"/><polyline points="253.358 180.435 253.25 180.381 253.087 180.381" style="fill:none;stroke:#000;stroke-linecap:square;stroke-miterlimit:10;stroke-width:1.5px"/><line x1="253.087" y1="180.326" x2="62.011" y2="180.326" style="fill:none;stroke:#000;stroke-linecap:square;stroke-miterlimit:10;stroke-width:1.5px"/><polyline points="62.011 180.381 61.632 180.435 61.307 180.597 60.982 180.814 60.766 181.084 60.603 181.463 60.549 181.842" style="fill:none;stroke:#000;stroke-linecap:square;stroke-miterlimit:10;stroke-width:1.5px"/><line x1="60.495" y1="181.842" x2="60.495" y2="183.358" style="fill:none;stroke:#000;stroke-linecap:square;stroke-miterlimit:10;stroke-width:1.5px"/><polyline points="60.549 183.358 60.603 183.737 60.766 184.062 60.982 184.387 61.307 184.603 61.632 184.766 62.011 184.82" style="fill:none;stroke:#000;stroke-linecap:square;stroke-miterlimit:10;stroke-width:1.5px"/><line x1="62.011" y1="184.82" x2="252.491" y2="184.82" style="fill:none;stroke:#000;stroke-linecap:square;stroke-miterlimit:10;stroke-width:1.5px"/><polyline points="252.762 184.928 252.654 184.874 252.491 184.874" style="fill:none;stroke:#000;stroke-linecap:square;stroke-miterlimit:10;stroke-width:1.5px"/><line x1="252.816" y1="184.874" x2="421.362" y2="230.998" style="fill:none;stroke:#000;stroke-linecap:square;stroke-miterlimit:10;stroke-width:1.5px"/><polyline points="434.956 248.809 434.902 247.293 434.685 245.832 434.414 244.316 433.981 242.908 433.439 241.501 432.789 240.147 432.031 238.848 431.165 237.603 430.19 236.466 429.161 235.383 428.023 234.409 426.832 233.488 425.532 232.731 424.178 232.027 422.77 231.431 421.362 230.998" style="fill:none;stroke:#000;stroke-linecap:square;stroke-miterlimit:10;stroke-width:1.5px"/><line x1="435.01" y1="248.809" x2="435.01" y2="259.69" style="fill:none;stroke:#000;stroke-linecap:square;stroke-miterlimit:10;stroke-width:1.5px"/><polyline points="421.362 277.501 422.77 277.068 424.178 276.473 425.532 275.769 426.832 275.011 428.023 274.091 429.161 273.116 430.19 272.033 431.165 270.897 432.031 269.651 432.789 268.352 433.439 266.999 433.981 265.591 434.414 264.184 434.685 262.668 434.902 261.206 434.956 259.69" style="fill:none;stroke:#000;stroke-linecap:square;stroke-miterlimit:10;stroke-width:1.5px"/><line x1="421.362" y1="277.501" x2="284.337" y2="314.964" style="fill:none;stroke:#000;stroke-linecap:square;stroke-miterlimit:10;stroke-width:1.5px"/><polyline points="283.796 314.964 284.067 314.964 284.283 314.909" style="fill:none;stroke:#000;stroke-linecap:square;stroke-miterlimit:10;stroke-width:1.5px"/><line x1="283.85" y1="315.018" x2="149.209" y2="290.007" style="fill:none;stroke:#000;stroke-linecap:square;stroke-miterlimit:10;stroke-width:1.5px"/><polyline points="149.209 290.007 148.884 290.007 148.559 290.061 148.288 290.169 148.017 290.332 147.8 290.548 147.638 290.873 147.53 291.144 147.475 291.468" style="fill:none;stroke:#000;stroke-linecap:square;stroke-miterlimit:10;stroke-width:1.5px"/><line x1="147.421" y1="291.468" x2="147.421" y2="292.984" style="fill:none;stroke:#000;stroke-linecap:square;stroke-miterlimit:10;stroke-width:1.5px"/><polyline points="147.475 292.984 147.53 293.309 147.638 293.634 147.8 293.905 148.071 294.175 148.342 294.338 148.667 294.446" style="fill:none;stroke:#000;stroke-linecap:square;stroke-miterlimit:10;stroke-width:1.5px"/><line x1="148.667" y1="294.5" x2="284.012" y2="319.674" style="fill:none;stroke:#000;stroke-linecap:square;stroke-miterlimit:10;stroke-width:1.5px"/><polyline points="284.012 319.619 284.283 319.619 284.5 319.565" style="fill:none;stroke:#000;stroke-linecap:square;stroke-miterlimit:10;stroke-width:1.5px"/><line x1="284.5" y1="319.619" x2="422.553" y2="281.886" style="fill:none;stroke:#000;stroke-linecap:square;stroke-miterlimit:10;stroke-width:1.5px"/><polyline points="422.553 281.886 424.124 281.399 425.694 280.749 427.211 280.046 428.673 279.234 430.027 278.313 431.327 277.285 432.573 276.148 433.71 274.957 434.793 273.658 435.768 272.304 436.635 270.843 437.339 269.381 437.989 267.865 438.53 266.241 438.964 264.671 439.289 262.993 439.451 261.369 439.505 259.69" style="fill:none;stroke:#000;stroke-linecap:square;stroke-miterlimit:10;stroke-width:1.5px"/><line x1="439.505" y1="259.69" x2="439.505" y2="248.809" style="fill:none;stroke:#000;stroke-linecap:square;stroke-miterlimit:10;stroke-width:1.5px"/><polyline points="439.505 248.809 439.451 247.131 439.289 245.507 438.964 243.828 438.53 242.258 437.989 240.634 437.339 239.119 436.635 237.657 435.768 236.195 434.793 234.842 433.71 233.543 432.573 232.352 431.327 231.215 430.027 230.186 428.673 229.266 427.211 228.454 425.694 227.75 424.124 227.1 422.553 226.613" style="fill:none;stroke:#000;stroke-linecap:square;stroke-miterlimit:10;stroke-width:1.5px"/><line x1="422.553" y1="226.613" x2="253.412" y2="180.326" style="fill:none;stroke:#000;stroke-linecap:square;stroke-miterlimit:10;stroke-width:1.5px"/></svg>