<svg id="Capa_1" data-name="Capa 1" xmlns="http://www.w3.org/2000/svg" viewBox="0 0 500 500"><rect width="500" height="500" style="fill:none"/><polyline points="347.961 323.036 348.809 324.054 349.657 324.987 350.632 325.877 351.649 326.683 352.709 327.404 353.853 328.04 355.04 328.591 356.227 329.057 357.499 329.439 358.77 329.693 360.042 329.863 361.356 329.948 362.628 329.905 363.942 329.778 365.213 329.566 366.485 329.227 367.714 328.845 368.901 328.337 370.046 327.701 371.148 327.022 372.208 326.259 373.182 325.411 374.115 324.478 374.963 323.503 375.726 322.443 376.404 321.34 376.997 320.196 377.506 319.008 377.93 317.779 378.227 316.507 378.439 315.235 378.566 313.92 378.608 312.648 378.523 311.334 378.354 310.062 378.057 308.79 377.718 307.518 377.252 306.33 376.701 305.143 376.023 303.998 375.302 302.938 374.497 301.921 373.606 300.988 372.674 300.097 371.656 299.292 370.554 298.571 369.452 297.935 368.265 297.384" style="fill:none;stroke:#000;stroke-linecap:square;stroke-miterlimit:10;stroke-width:1.5px"/><polyline points="347.579 266.134 347.622 267.957 347.791 269.738 348.003 271.519 348.343 273.3 348.766 275.038 349.275 276.776 349.911 278.473 350.589 280.126 351.395 281.78 352.285 283.349 353.217 284.875 354.277 286.359 355.379 287.758 356.566 289.115 357.838 290.43 359.152 291.659 360.551 292.804 361.992 293.864 363.475 294.882 365.044 295.772 366.655 296.62 368.265 297.384" style="fill:none;stroke:#000;stroke-linecap:square;stroke-miterlimit:10;stroke-width:1.5px"/><line x1="347.579" y1="266.134" x2="347.579" y2="255.576" style="fill:none;stroke:#000;stroke-linecap:square;stroke-miterlimit:10;stroke-width:1.5px"/><polyline points="349.784 254.813 349.572 254.601 349.317 254.431 349.021 254.346 348.724 254.346 348.427 254.431 348.131 254.558 347.919 254.728 347.749 254.982 347.622 255.279 347.579 255.576" style="fill:none;stroke:#000;stroke-linecap:square;stroke-miterlimit:10;stroke-width:1.5px"/><polyline points="349.826 254.813 350.843 256.042 351.903 257.187 353.048 258.247 354.277 259.265 355.549 260.198 356.863 261.003 358.262 261.766 359.703 262.445 361.144 262.996 362.67 263.462 364.196 263.844 365.722 264.098 367.29 264.268 368.859 264.353 370.47 264.31 371.996 264.183 373.564 263.971 375.09 263.632 376.616 263.208 378.1 262.657 379.541 262.063 380.94 261.342 382.296 260.537 383.61 259.646 384.839 258.671 386.026 257.611 387.128 256.509 388.146 255.321 389.121 254.049 389.969 252.777 390.774 251.378 391.452 249.979 392.088 248.537 392.597 247.053 392.978 245.527 393.317 243.958 393.529 242.389 393.656 240.82 393.656 239.251 393.572 237.682 393.36 236.113 393.063 234.587 392.681 233.061 392.215 231.534 391.622 230.093 390.943 228.651 390.18 227.294 389.333 225.937 388.4 224.665 387.383 223.478 386.323 222.333 385.136 221.273 383.949 220.298 382.635 219.365 381.321 218.559 379.922 217.796 378.481 217.16 376.997 216.609" style="fill:none;stroke:#000;stroke-linecap:square;stroke-miterlimit:10;stroke-width:1.5px"/><polyline points="347.622 176.964 347.707 178.999 347.919 180.992 348.215 182.985 348.597 184.977 349.106 186.928 349.657 188.878 350.335 190.786 351.098 192.652 351.946 194.475 352.878 196.256 353.853 198.037 354.955 199.733 356.1 201.387 357.371 202.956 358.685 204.482 360.042 205.966 361.525 207.365 363.009 208.68 364.577 209.952 366.231 211.139 367.926 212.242 369.664 213.259 371.445 214.234 373.267 215.082 375.132 215.846 376.997 216.566" style="fill:none;stroke:#000;stroke-linecap:square;stroke-miterlimit:10;stroke-width:1.5px"/><polyline points="347.579 177.006 347.537 176.624 347.41 176.285 347.198 175.988 346.944 175.776 346.605 175.564 346.265 175.479" style="fill:none;stroke:#000;stroke-linecap:square;stroke-miterlimit:10;stroke-width:1.5px"/><line x1="346.265" y1="175.437" x2="318.543" y2="170.095" style="fill:none;stroke:#000;stroke-linecap:square;stroke-miterlimit:10;stroke-width:1.5px"/><polyline points="318.543 170.137 318.458 170.095 318.331 170.095" style="fill:none;stroke:#000;stroke-linecap:square;stroke-miterlimit:10;stroke-width:1.5px"/><line x1="318.331" y1="170.052" x2="107.997" y2="170.052" style="fill:none;stroke:#000;stroke-linecap:square;stroke-miterlimit:10;stroke-width:1.5px"/><polyline points="107.997 170.095 107.658 170.137 107.361 170.222 107.064 170.391 106.81 170.561 106.64 170.815 106.471 171.112 106.386 171.409 106.344 171.748" style="fill:none;stroke:#000;stroke-linecap:square;stroke-miterlimit:10;stroke-width:1.5px"/><line x1="106.344" y1="171.748" x2="106.344" y2="173.402" style="fill:none;stroke:#000;stroke-linecap:square;stroke-miterlimit:10;stroke-width:1.5px"/><polyline points="106.344 173.402 106.386 173.741 106.471 174.038 106.64 174.335 106.81 174.589 107.064 174.759 107.361 174.928 107.658 175.013 107.997 175.056" style="fill:none;stroke:#000;stroke-linecap:square;stroke-miterlimit:10;stroke-width:1.5px"/><line x1="107.997" y1="175.056" x2="317.822" y2="175.056" style="fill:none;stroke:#000;stroke-linecap:square;stroke-miterlimit:10;stroke-width:1.5px"/><polyline points="318.034 175.14 317.95 175.098 317.822 175.098" style="fill:none;stroke:#000;stroke-linecap:square;stroke-miterlimit:10;stroke-width:1.5px"/><line x1="318.077" y1="175.098" x2="341.857" y2="179.677" style="fill:none;stroke:#000;stroke-linecap:square;stroke-miterlimit:10;stroke-width:1.5px"/><polyline points="342.832 180.78 342.79 180.525 342.662 180.271 342.493 180.059 342.323 179.889 342.069 179.762 341.815 179.72" style="fill:none;stroke:#000;stroke-linecap:square;stroke-miterlimit:10;stroke-width:1.5px"/><polyline points="342.874 180.737 343.129 182.857 343.51 184.935 343.934 186.97 344.485 189.048 345.121 191.041 345.842 193.034 346.647 194.984 347.537 196.892 348.512 198.758 349.572 200.581 350.716 202.362 351.903 204.1 353.217 205.797 354.574 207.408 356.015 208.977 357.499 210.461 359.067 211.86 360.678 213.217 362.331 214.531 364.069 215.718 365.849 216.863 367.672 217.923 369.579 218.899 371.487 219.789 373.437 220.595 375.429 221.273" style="fill:none;stroke:#000;stroke-linecap:square;stroke-miterlimit:10;stroke-width:1.5px"/><polyline points="350.504 245.315 350.928 246.629 351.437 247.901 352.073 249.131 352.751 250.318 353.556 251.463 354.404 252.565 355.337 253.583 356.354 254.516 357.414 255.364 358.516 256.169 359.703 256.89 360.932 257.526 362.204 258.035 363.518 258.501 364.832 258.841 366.188 259.138 367.587 259.265 368.944 259.35 370.342 259.307 371.699 259.18 373.055 258.968 374.412 258.629 375.726 258.247 376.997 257.738 378.227 257.145 379.456 256.424 380.601 255.661 381.66 254.813 382.72 253.922 383.653 252.904 384.543 251.844 385.348 250.742 386.111 249.597 386.747 248.368 387.298 247.095 387.764 245.781 388.146 244.467 388.4 243.11 388.612 241.753 388.697 240.396 388.697 238.997 388.57 237.64 388.358 236.241 388.061 234.926 387.679 233.612 387.171 232.297 386.62 231.068 385.942 229.838 385.179 228.693 384.373 227.591 383.441 226.531 382.466 225.556 381.448 224.665 380.346 223.817 379.159 223.096 377.972 222.418 376.701 221.867 375.429 221.358" style="fill:none;stroke:#000;stroke-linecap:square;stroke-miterlimit:10;stroke-width:1.5px"/><line x1="350.462" y1="245.315" x2="347.834" y2="236.283" style="fill:none;stroke:#000;stroke-linecap:square;stroke-miterlimit:10;stroke-width:1.5px"/><polyline points="347.834 236.283 347.707 236.029 347.579 235.817 347.368 235.647 347.156 235.52 346.901 235.435 346.647 235.393" style="fill:none;stroke:#000;stroke-linecap:square;stroke-miterlimit:10;stroke-width:1.5px"/><line x1="346.647" y1="235.35" x2="343.807" y2="235.35" style="fill:none;stroke:#000;stroke-linecap:square;stroke-miterlimit:10;stroke-width:1.5px"/><polyline points="343.807 235.393 343.468 235.435 343.171 235.562 342.917 235.732 342.747 236.029 342.62 236.283 342.578 236.622" style="fill:none;stroke:#000;stroke-linecap:square;stroke-miterlimit:10;stroke-width:1.5px"/><line x1="342.578" y1="236.622" x2="342.578" y2="266.134" style="fill:none;stroke:#000;stroke-linecap:square;stroke-miterlimit:10;stroke-width:1.5px"/><polyline points="342.62 266.134 342.662 268.042 342.79 269.907 343.044 271.816 343.341 273.681 343.765 275.547 344.273 277.37 344.867 279.151 345.545 280.932 346.308 282.67 347.156 284.366 348.088 286.02 349.106 287.631 350.165 289.2 351.352 290.684 352.581 292.126 353.853 293.525 355.252 294.839 356.651 296.069 358.134 297.256 359.703 298.359 361.271 299.376 362.924 300.352 364.62 301.2 366.358 301.963" style="fill:none;stroke:#000;stroke-linecap:square;stroke-miterlimit:10;stroke-width:1.5px"/><polyline points="351.14 318.669 351.691 319.602 352.327 320.45 353.048 321.298 353.811 322.019 354.658 322.697 355.591 323.291 356.566 323.8 357.541 324.224 358.601 324.563 359.66 324.775 360.72 324.902 361.822 324.944 362.882 324.86 363.984 324.732 365.044 324.478 366.061 324.096 367.036 323.672 368.011 323.121 368.901 322.485 369.707 321.807 370.47 321.044 371.19 320.196 371.784 319.305 372.335 318.372 372.759 317.355 373.14 316.337 373.394 315.277 373.564 314.217 373.606 313.115 373.564 312.054 373.437 310.952 373.182 309.892 372.886 308.874 372.462 307.857 371.953 306.881 371.36 305.991 370.682 305.143 369.919 304.337 369.113 303.659 368.223 302.981 367.29 302.429 366.315 301.963" style="fill:none;stroke:#000;stroke-linecap:square;stroke-miterlimit:10;stroke-width:1.5px"/><polyline points="351.14 318.669 350.971 318.457 350.759 318.287 350.504 318.118 350.25 318.033" style="fill:none;stroke:#000;stroke-linecap:square;stroke-miterlimit:10;stroke-width:1.5px"/><line x1="350.25" y1="318.033" x2="203.966" y2="290.811" style="fill:none;stroke:#000;stroke-linecap:square;stroke-miterlimit:10;stroke-width:1.5px"/><polyline points="203.966 290.854 203.626 290.811 203.245 290.854 202.906 290.981 202.609 291.193 202.355 291.447 202.185 291.744 202.058 292.126 202.016 292.465" style="fill:none;stroke:#000;stroke-linecap:square;stroke-miterlimit:10;stroke-width:1.5px"/><line x1="202.016" y1="292.465" x2="202.016" y2="294.161" style="fill:none;stroke:#000;stroke-linecap:square;stroke-miterlimit:10;stroke-width:1.5px"/><polyline points="202.016 294.161 202.058 294.458 202.1 294.712 202.228 294.967 202.397 295.221 202.609 295.433 202.821 295.603 203.075 295.73 203.372 295.772" style="fill:none;stroke:#000;stroke-linecap:square;stroke-miterlimit:10;stroke-width:1.5px"/><line x1="203.372" y1="295.815" x2="347.198" y2="322.57" style="fill:none;stroke:#000;stroke-linecap:square;stroke-miterlimit:10;stroke-width:1.5px"/><polyline points="347.961 323.079 347.834 322.909 347.622 322.74 347.452 322.655 347.198 322.57" style="fill:none;stroke:#000;stroke-linecap:square;stroke-miterlimit:10;stroke-width:1.5px"/></svg>