<svg id="Capa_1" data-name="Capa 1" xmlns="http://www.w3.org/2000/svg" viewBox="0 0 500 500"><rect width="500" height="500" style="fill:none"/><line x1="387.828" y1="184.483" x2="319.963" y2="171.388" style="fill:none;stroke:#000;stroke-linecap:square;stroke-miterlimit:10;stroke-width:1.5px"/><polyline points="319.963 171.473 319.878 171.43 319.751 171.43" style="fill:none;stroke:#000;stroke-linecap:square;stroke-miterlimit:10;stroke-width:1.5px"/><line x1="319.751" y1="171.388" x2="112.808" y2="171.388" style="fill:none;stroke:#000;stroke-linecap:square;stroke-miterlimit:10;stroke-width:1.5px"/><polyline points="112.808 171.388 112.511 171.43 112.172 171.515 111.918 171.642 111.663 171.854 111.452 172.108 111.324 172.362 111.24 172.702 111.197 172.998" style="fill:none;stroke:#000;stroke-linecap:square;stroke-miterlimit:10;stroke-width:1.5px"/><line x1="111.155" y1="172.998" x2="111.155" y2="174.651" style="fill:none;stroke:#000;stroke-linecap:square;stroke-miterlimit:10;stroke-width:1.5px"/><polyline points="111.197 174.651 111.24 174.948 111.324 175.287 111.452 175.541 111.663 175.795 111.918 176.007 112.172 176.134 112.511 176.219 112.808 176.261" style="fill:none;stroke:#000;stroke-linecap:square;stroke-miterlimit:10;stroke-width:1.5px"/><line x1="112.808" y1="176.261" x2="319.285" y2="176.261" style="fill:none;stroke:#000;stroke-linecap:square;stroke-miterlimit:10;stroke-width:1.5px"/><polyline points="319.497 176.346 319.412 176.304 319.285 176.304" style="fill:none;stroke:#000;stroke-linecap:square;stroke-miterlimit:10;stroke-width:1.5px"/><line x1="319.497" y1="176.304" x2="382.911" y2="188.551" style="fill:none;stroke:#000;stroke-linecap:square;stroke-miterlimit:10;stroke-width:1.5px"/><polyline points="383.886 189.738 383.843 189.483 383.759 189.229 383.631 188.975 383.419 188.805 383.165 188.636 382.911 188.594" style="fill:none;stroke:#000;stroke-linecap:square;stroke-miterlimit:10;stroke-width:1.5px"/><line x1="383.928" y1="189.738" x2="383.928" y2="321.535" style="fill:none;stroke:#000;stroke-linecap:square;stroke-miterlimit:10;stroke-width:1.5px"/><polyline points="382.487 322.722 382.741 322.722 382.996 322.679 383.25 322.594 383.462 322.467 383.631 322.255 383.759 322.044 383.843 321.789 383.886 321.535" style="fill:none;stroke:#000;stroke-linecap:square;stroke-miterlimit:10;stroke-width:1.5px"/><line x1="382.444" y1="322.722" x2="207.208" y2="290.132" style="fill:none;stroke:#000;stroke-linecap:square;stroke-miterlimit:10;stroke-width:1.5px"/><polyline points="207.208 290.175 206.869 290.132 206.488 290.175 206.191 290.302 205.894 290.514 205.64 290.768 205.47 291.065 205.343 291.404 205.301 291.743" style="fill:none;stroke:#000;stroke-linecap:square;stroke-miterlimit:10;stroke-width:1.5px"/><line x1="205.258" y1="291.743" x2="205.258" y2="293.396" style="fill:none;stroke:#000;stroke-linecap:square;stroke-miterlimit:10;stroke-width:1.5px"/><polyline points="205.301 293.396 205.343 293.777 205.47 294.116 205.682 294.413 205.937 294.667 206.276 294.879 206.615 294.964" style="fill:none;stroke:#000;stroke-linecap:square;stroke-miterlimit:10;stroke-width:1.5px"/><line x1="206.615" y1="295.006" x2="387.362" y2="328.612" style="fill:none;stroke:#000;stroke-linecap:square;stroke-miterlimit:10;stroke-width:1.5px"/><polyline points="387.404 328.612 387.658 328.612 387.913 328.57 388.167 328.485 388.379 328.358 388.549 328.146 388.676 327.934 388.76 327.68 388.803 327.426" style="fill:none;stroke:#000;stroke-linecap:square;stroke-miterlimit:10;stroke-width:1.5px"/><line x1="388.845" y1="327.426" x2="388.845" y2="185.669" style="fill:none;stroke:#000;stroke-linecap:square;stroke-miterlimit:10;stroke-width:1.5px"/><polyline points="388.803 185.669 388.76 185.415 388.676 185.161 388.549 184.907 388.337 184.737 388.082 184.568 387.828 184.525" style="fill:none;stroke:#000;stroke-linecap:square;stroke-miterlimit:10;stroke-width:1.5px"/></svg>