<svg id="Capa_1" data-name="Capa 1" xmlns="http://www.w3.org/2000/svg" viewBox="0 0 500 500"><rect width="500" height="500" style="fill:none"/><line x1="325.553" y1="215.438" x2="396.719" y2="256.555" style="fill:none;stroke:#000;stroke-linecap:square;stroke-miterlimit:10;stroke-width:1.5px"/><polyline points="396.773 256.501 397.044 256.609 397.315 256.663 397.586 256.609 397.911 256.501 398.127 256.338 398.29 256.067 398.398 255.796 398.452 255.526" style="fill:none;stroke:#000;stroke-linecap:square;stroke-miterlimit:10;stroke-width:1.5px"/><line x1="398.506" y1="255.526" x2="398.506" y2="212.946" style="fill:none;stroke:#000;stroke-linecap:square;stroke-miterlimit:10;stroke-width:1.5px"/><polyline points="398.452 212.946 398.398 212.675 398.29 212.35 398.127 212.134 397.856 211.971" style="fill:none;stroke:#000;stroke-linecap:square;stroke-miterlimit:10;stroke-width:1.5px"/><line x1="397.911" y1="211.917" x2="296.957" y2="153.573" style="fill:none;stroke:#000;stroke-linecap:square;stroke-miterlimit:10;stroke-width:1.5px"/><polyline points="296.957 153.628 296.848 153.573 296.686 153.519 296.577 153.465 296.415 153.465" style="fill:none;stroke:#000;stroke-linecap:square;stroke-miterlimit:10;stroke-width:1.5px"/><line x1="296.415" y1="153.411" x2="103.01" y2="153.411" style="fill:none;stroke:#000;stroke-linecap:square;stroke-miterlimit:10;stroke-width:1.5px"/><polyline points="103.01 153.465 102.631 153.519 102.252 153.682 101.927 153.898 101.71 154.223 101.548 154.603 101.494 154.982" style="fill:none;stroke:#000;stroke-linecap:square;stroke-miterlimit:10;stroke-width:1.5px"/><line x1="101.494" y1="154.982" x2="101.494" y2="156.499" style="fill:none;stroke:#000;stroke-linecap:square;stroke-miterlimit:10;stroke-width:1.5px"/><polyline points="101.494 156.499 101.548 156.878 101.71 157.257 101.927 157.582 102.252 157.799 102.631 157.961 103.01 158.016" style="fill:none;stroke:#000;stroke-linecap:square;stroke-miterlimit:10;stroke-width:1.5px"/><line x1="103.01" y1="158.016" x2="295.169" y2="158.016" style="fill:none;stroke:#000;stroke-linecap:square;stroke-miterlimit:10;stroke-width:1.5px"/><polyline points="295.711 158.178 295.603 158.124 295.44 158.07 295.332 158.016 295.169 158.016" style="fill:none;stroke:#000;stroke-linecap:square;stroke-miterlimit:10;stroke-width:1.5px"/><line x1="295.711" y1="158.178" x2="393.361" y2="214.571" style="fill:none;stroke:#000;stroke-linecap:square;stroke-miterlimit:10;stroke-width:1.5px"/><polyline points="393.903 215.546 393.848 215.276 393.74 214.951 393.578 214.734 393.307 214.571" style="fill:none;stroke:#000;stroke-linecap:square;stroke-miterlimit:10;stroke-width:1.5px"/><line x1="393.903" y1="215.546" x2="393.903" y2="247.616" style="fill:none;stroke:#000;stroke-linecap:square;stroke-miterlimit:10;stroke-width:1.5px"/><polyline points="392.224 248.592 392.494 248.7 392.765 248.754 393.036 248.7 393.361 248.592 393.578 248.429 393.74 248.158 393.848 247.887 393.903 247.616" style="fill:none;stroke:#000;stroke-linecap:square;stroke-miterlimit:10;stroke-width:1.5px"/><line x1="392.17" y1="248.646" x2="320.462" y2="207.15" style="fill:none;stroke:#000;stroke-linecap:square;stroke-miterlimit:10;stroke-width:1.5px"/><polyline points="320.408 207.204 320.137 207.096 319.866 207.041 319.595 207.096 319.27 207.204 319.054 207.366 318.891 207.637 318.783 207.908 318.729 208.179" style="fill:none;stroke:#000;stroke-linecap:square;stroke-miterlimit:10;stroke-width:1.5px"/><line x1="318.729" y1="208.179" x2="318.729" y2="260.726" style="fill:none;stroke:#000;stroke-linecap:square;stroke-miterlimit:10;stroke-width:1.5px"/><polyline points="318.729 260.726 318.783 260.997 318.891 261.322 319.054 261.539 319.325 261.701" style="fill:none;stroke:#000;stroke-linecap:square;stroke-miterlimit:10;stroke-width:1.5px"/><line x1="319.325" y1="261.701" x2="393.361" y2="304.497" style="fill:none;stroke:#000;stroke-linecap:square;stroke-miterlimit:10;stroke-width:1.5px"/><polyline points="393.903 305.472 393.848 305.201 393.74 304.876 393.578 304.66 393.307 304.497" style="fill:none;stroke:#000;stroke-linecap:square;stroke-miterlimit:10;stroke-width:1.5px"/><line x1="393.903" y1="305.472" x2="393.903" y2="337.542" style="fill:none;stroke:#000;stroke-linecap:square;stroke-miterlimit:10;stroke-width:1.5px"/><polyline points="392.224 338.517 392.494 338.626 392.765 338.68 393.036 338.626 393.361 338.517 393.578 338.355 393.74 338.084 393.848 337.813 393.903 337.542" style="fill:none;stroke:#000;stroke-linecap:square;stroke-miterlimit:10;stroke-width:1.5px"/><line x1="392.17" y1="338.517" x2="298.96" y2="284.67" style="fill:none;stroke:#000;stroke-linecap:square;stroke-miterlimit:10;stroke-width:1.5px"/><polyline points="298.906 284.67 298.744 284.562 298.581 284.508" style="fill:none;stroke:#000;stroke-linecap:square;stroke-miterlimit:10;stroke-width:1.5px"/><line x1="298.581" y1="284.508" x2="191.345" y2="264.572" style="fill:none;stroke:#000;stroke-linecap:square;stroke-miterlimit:10;stroke-width:1.5px"/><polyline points="191.345 264.572 191.02 264.572 190.695 264.626 190.37 264.735 190.099 264.897 189.883 265.168 189.72 265.439 189.612 265.764 189.558 266.089" style="fill:none;stroke:#000;stroke-linecap:square;stroke-miterlimit:10;stroke-width:1.5px"/><line x1="189.503" y1="266.089" x2="189.503" y2="267.66" style="fill:none;stroke:#000;stroke-linecap:square;stroke-miterlimit:10;stroke-width:1.5px"/><polyline points="189.558 267.66 189.612 267.985 189.72 268.31 189.883 268.635 190.153 268.852 190.478 269.069 190.803 269.177" style="fill:none;stroke:#000;stroke-linecap:square;stroke-miterlimit:10;stroke-width:1.5px"/><line x1="190.803" y1="269.177" x2="296.957" y2="288.896" style="fill:none;stroke:#000;stroke-linecap:square;stroke-miterlimit:10;stroke-width:1.5px"/><polyline points="297.282 289.058 297.119 288.95 296.957 288.896" style="fill:none;stroke:#000;stroke-linecap:square;stroke-miterlimit:10;stroke-width:1.5px"/><line x1="297.336" y1="289.058" x2="396.719" y2="346.481" style="fill:none;stroke:#000;stroke-linecap:square;stroke-miterlimit:10;stroke-width:1.5px"/><polyline points="396.773 346.427 397.044 346.535 397.315 346.589 397.586 346.535 397.911 346.427 398.127 346.264 398.29 345.993 398.398 345.722 398.452 345.451" style="fill:none;stroke:#000;stroke-linecap:square;stroke-miterlimit:10;stroke-width:1.5px"/><line x1="398.506" y1="345.451" x2="398.506" y2="302.872" style="fill:none;stroke:#000;stroke-linecap:square;stroke-miterlimit:10;stroke-width:1.5px"/><polyline points="398.452 302.872 398.398 302.601 398.29 302.276 398.127 302.059 397.856 301.897" style="fill:none;stroke:#000;stroke-linecap:square;stroke-miterlimit:10;stroke-width:1.5px"/><line x1="397.911" y1="301.843" x2="324.091" y2="259.155" style="fill:none;stroke:#000;stroke-linecap:square;stroke-miterlimit:10;stroke-width:1.5px"/><polyline points="323.387 257.855 323.441 258.234 323.603 258.613 323.82 258.884 324.145 259.101" style="fill:none;stroke:#000;stroke-linecap:square;stroke-miterlimit:10;stroke-width:1.5px"/><line x1="323.332" y1="257.855" x2="323.332" y2="216.738" style="fill:none;stroke:#000;stroke-linecap:square;stroke-miterlimit:10;stroke-width:1.5px"/><polyline points="325.499 215.492 325.174 215.33 324.795 215.276 324.416 215.33 324.036 215.492 323.766 215.709 323.549 216.034 323.387 216.359 323.332 216.738" style="fill:none;stroke:#000;stroke-linecap:square;stroke-miterlimit:10;stroke-width:1.5px"/></svg>