<?xml version="1.0" encoding="utf-8"?>
<!-- Generator: Adobe Illustrator 24.0.2, SVG Export Plug-In . SVG Version: 6.00 Build 0)  -->
<svg version="1.1" id="a4dea938-ac5f-4bcd-be1b-59b4319fc14b"
	 xmlns="http://www.w3.org/2000/svg" xmlns:xlink="http://www.w3.org/1999/xlink" x="0px" y="0px" viewBox="0 0 76.1 49.6"
	 style="enable-background:new 0 0 76.1 49.6;" xml:space="preserve">
<style type="text/css">
	.st0{fill:none;stroke:#000000;stroke-width:0.25;stroke-miterlimit:10;}
	.st1{fill:none;stroke:#000000;stroke-miterlimit:10;}
	.st2{fill:none;stroke:#000000;stroke-width:2.000000e-02;stroke-miterlimit:10;}
</style>
<line class="st0" x1="68.3" y1="1.1" x2="8.5" y2="1.1"/>
<line class="st0" x1="68.4" y1="40.8" x2="8.6" y2="40.8"/>
<path class="st0" d="M68.2,1.1"/>
<path class="st0" d="M75.9,49.5"/>
<line class="st0" x1="67.1" y1="0.1" x2="68.3" y2="1"/>
<polyline class="st0" points="0.1,49.1 0.1,49.5 75.9,49.5 "/>
<polyline class="st0" points="67.2,0.2 9.4,0.2 8.6,1 8.6,1.1 "/>
<line class="st1" x1="8.8" y1="21.8" x2="68.3" y2="21.8"/>
<line class="st0" x1="0.1" y1="49.5" x2="8.8" y2="40.8"/>
<line class="st0" x1="75.9" y1="49.5" x2="68.3" y2="40.8"/>
<line class="st0" x1="8.7" y1="40.9" x2="8.6" y2="1"/>
<line class="st0" x1="38.8" y1="40.8" x2="38.8" y2="1.1"/>
<line class="st0" x1="68.4" y1="40.8" x2="68.3" y2="0.9"/>
<ellipse class="st2" cx="2.4" cy="48.7" rx="0.2" ry="0.1"/>
<ellipse class="st2" cx="7.1" cy="47.4" rx="0.2" ry="0.1"/>
<ellipse class="st2" cx="9.4" cy="42.1" rx="0.2" ry="0.1"/>
<ellipse class="st2" cx="7.1" cy="43.9" rx="0.2" ry="0.1"/>
<ellipse class="st2" cx="20.7" cy="42.9" rx="0.2" ry="0.1"/>
<ellipse class="st2" cx="5.5" cy="46.2" rx="0.2" ry="0.1"/>
<ellipse class="st2" cx="20.3" cy="44.9" rx="0.2" ry="0.1"/>
<ellipse class="st2" cx="12" cy="41.7" rx="0.2" ry="0.1"/>
<ellipse class="st2" cx="23.4" cy="43.9" rx="0.2" ry="0.1"/>
<ellipse class="st2" cx="21.1" cy="47" rx="0.2" ry="0.1"/>
<ellipse class="st2" cx="14.6" cy="42.1" rx="0.2" ry="0.1"/>
<ellipse class="st2" cx="26.6" cy="43.2" rx="0.2" ry="0.1"/>
<ellipse class="st2" cx="24.2" cy="46.3" rx="0.2" ry="0.1"/>
<ellipse class="st2" cx="28.1" cy="46" rx="0.2" ry="0.1"/>
<ellipse class="st2" cx="25.9" cy="47.4" rx="0.2" ry="0.1"/>
<ellipse class="st2" cx="9.8" cy="42.9" rx="0.2" ry="0.1"/>
<ellipse class="st2" cx="9.4" cy="44.9" rx="0.2" ry="0.1"/>
<ellipse class="st2" cx="12.5" cy="43.9" rx="0.2" ry="0.1"/>
<ellipse class="st2" cx="10.3" cy="47" rx="0.2" ry="0.1"/>
<ellipse class="st2" cx="15.7" cy="43.2" rx="0.2" ry="0.1"/>
<ellipse class="st2" cx="13.3" cy="46.3" rx="0.2" ry="0.1"/>
<ellipse class="st2" cx="17.2" cy="46" rx="0.2" ry="0.1"/>
<ellipse class="st2" cx="15.1" cy="47.4" rx="0.2" ry="0.1"/>
<ellipse class="st2" cx="30.6" cy="42.5" rx="0.2" ry="0.1"/>
<ellipse class="st2" cx="41.9" cy="43.2" rx="0.2" ry="0.1"/>
<ellipse class="st2" cx="41.5" cy="45.2" rx="0.2" ry="0.1"/>
<ellipse class="st2" cx="33.2" cy="42" rx="0.2" ry="0.1"/>
<ellipse class="st2" cx="44.6" cy="44.3" rx="0.2" ry="0.1"/>
<ellipse class="st2" cx="42.3" cy="47.3" rx="0.2" ry="0.1"/>
<ellipse class="st2" cx="35.8" cy="42.5" rx="0.2" ry="0.1"/>
<ellipse class="st2" cx="47.8" cy="43.5" rx="0.2" ry="0.1"/>
<ellipse class="st2" cx="45.4" cy="46.6" rx="0.2" ry="0.1"/>
<ellipse class="st2" cx="49.3" cy="46.3" rx="0.2" ry="0.1"/>
<ellipse class="st2" cx="47.1" cy="47.7" rx="0.2" ry="0.1"/>
<ellipse class="st2" cx="31" cy="43.2" rx="0.2" ry="0.1"/>
<ellipse class="st2" cx="30.6" cy="45.2" rx="0.2" ry="0.1"/>
<ellipse class="st2" cx="33.7" cy="44.3" rx="0.2" ry="0.1"/>
<ellipse class="st2" cx="31.5" cy="47.3" rx="0.2" ry="0.1"/>
<ellipse class="st2" cx="36.9" cy="43.5" rx="0.2" ry="0.1"/>
<ellipse class="st2" cx="34.5" cy="46.6" rx="0.2" ry="0.1"/>
<ellipse class="st2" cx="38.4" cy="46.3" rx="0.2" ry="0.1"/>
<ellipse class="st2" cx="36.2" cy="47.7" rx="0.2" ry="0.1"/>
<ellipse class="st2" cx="49.5" cy="41.6" rx="0.2" ry="0.1"/>
<ellipse class="st2" cx="63.8" cy="43.1" rx="0.2" ry="0.1"/>
<ellipse class="st2" cx="42" cy="41.5" rx="0.2" ry="0.1"/>
<ellipse class="st2" cx="55.1" cy="41.9" rx="0.2" ry="0.1"/>
<ellipse class="st2" cx="66.4" cy="44.1" rx="0.2" ry="0.1"/>
<ellipse class="st2" cx="42.8" cy="43.6" rx="0.2" ry="0.1"/>
<ellipse class="st2" cx="57.7" cy="42.4" rx="0.2" ry="0.1"/>
<ellipse class="st2" cx="69.7" cy="43.4" rx="0.2" ry="0.1"/>
<ellipse class="st2" cx="45.8" cy="42.9" rx="0.2" ry="0.1"/>
<ellipse class="st2" cx="71.2" cy="46.2" rx="0.2" ry="0.1"/>
<ellipse class="st2" cx="69" cy="47.6" rx="0.2" ry="0.1"/>
<ellipse class="st2" cx="52.9" cy="43.1" rx="0.2" ry="0.1"/>
<ellipse class="st2" cx="52.5" cy="45.1" rx="0.2" ry="0.1"/>
<ellipse class="st2" cx="55.6" cy="44.1" rx="0.2" ry="0.1"/>
<ellipse class="st2" cx="53.3" cy="47.2" rx="0.2" ry="0.1"/>
<ellipse class="st2" cx="58.8" cy="43.4" rx="0.2" ry="0.1"/>
<ellipse class="st2" cx="56.4" cy="46.5" rx="0.2" ry="0.1"/>
<ellipse class="st2" cx="38.9" cy="42.6" rx="0.2" ry="0.1"/>
<ellipse class="st2" cx="58.1" cy="47.6" rx="0.2" ry="0.1"/>
<ellipse class="st2" cx="63.6" cy="45.6" rx="0.2" ry="0.1"/>
<ellipse class="st2" cx="65.3" cy="46.7" rx="0.2" ry="0.1"/>
<ellipse class="st2" cx="59.4" cy="45.8" rx="0.2" ry="0.1"/>
<ellipse class="st2" cx="60.5" cy="46.8" rx="0.2" ry="0.1"/>
<ellipse class="st2" cx="61.7" cy="42.1" rx="0.2" ry="0.1"/>
<ellipse class="st2" cx="62.8" cy="43.1" rx="0.2" ry="0.1"/>
<ellipse class="st2" cx="17.6" cy="42.4" rx="0.2" ry="0.1"/>
<ellipse class="st2" cx="20.6" cy="41.7" rx="0.2" ry="0.1"/>
<ellipse class="st2" cx="22.4" cy="42.8" rx="0.2" ry="0.1"/>
<ellipse class="st2" cx="24.9" cy="42.5" rx="0.2" ry="0.1"/>
<ellipse class="st2" cx="26.4" cy="45.3" rx="0.2" ry="0.1"/>
<ellipse class="st2" cx="26.7" cy="41.7" rx="0.2" ry="0.1"/>
<ellipse class="st2" cx="13.1" cy="48.4" rx="0.2" ry="0.1"/>
<ellipse class="st2" cx="16.2" cy="47.7" rx="0.2" ry="0.1"/>
<ellipse class="st2" cx="20.1" cy="47.4" rx="0.2" ry="0.1"/>
<ellipse class="st2" cx="17.9" cy="48.8" rx="0.2" ry="0.1"/>
<ellipse class="st2" cx="5.3" cy="47.7" rx="0.2" ry="0.1"/>
<ellipse class="st2" cx="9.2" cy="47.4" rx="0.2" ry="0.1"/>
<ellipse class="st2" cx="7.1" cy="48.8" rx="0.2" ry="0.1"/>
<ellipse class="st2" cx="33.5" cy="46.6" rx="0.2" ry="0.1"/>
<ellipse class="st2" cx="34.3" cy="48.7" rx="0.2" ry="0.1"/>
<ellipse class="st2" cx="37.4" cy="48" rx="0.2" ry="0.1"/>
<ellipse class="st2" cx="41.3" cy="47.7" rx="0.2" ry="0.1"/>
<ellipse class="st2" cx="39.1" cy="49.1" rx="0.2" ry="0.1"/>
<ellipse class="st2" cx="22.6" cy="46.6" rx="0.2" ry="0.1"/>
<ellipse class="st2" cx="23.5" cy="48.7" rx="0.2" ry="0.1"/>
<ellipse class="st2" cx="26.5" cy="48" rx="0.2" ry="0.1"/>
<ellipse class="st2" cx="30.4" cy="47.7" rx="0.2" ry="0.1"/>
<ellipse class="st2" cx="28.2" cy="49.1" rx="0.2" ry="0.1"/>
<ellipse class="st2" cx="45.3" cy="48.6" rx="0.2" ry="0.1"/>
<ellipse class="st2" cx="48.4" cy="47.9" rx="0.2" ry="0.1"/>
<ellipse class="st2" cx="50.1" cy="49" rx="0.2" ry="0.1"/>
<ellipse class="st2" cx="51.4" cy="47.1" rx="0.2" ry="0.1"/>
<ellipse class="st2" cx="52.5" cy="48.2" rx="0.2" ry="0.1"/>
<ellipse class="st2" cx="18.4" cy="46.7" rx="0.2" ry="0.1"/>
<ellipse class="st2" cx="36.4" cy="43.2" rx="0.2" ry="0.1"/>
<ellipse class="st2" cx="37.9" cy="46" rx="0.2" ry="0.1"/>
<ellipse class="st2" cx="40.4" cy="42.5" rx="0.2" ry="0.1"/>
<ellipse class="st2" cx="42.9" cy="42" rx="0.2" ry="0.1"/>
<ellipse class="st2" cx="40.8" cy="43.2" rx="0.2" ry="0.1"/>
<ellipse class="st2" cx="40.4" cy="45.2" rx="0.2" ry="0.1"/>
<ellipse class="st2" cx="43.4" cy="44.3" rx="0.2" ry="0.1"/>
<ellipse class="st2" cx="36.1" cy="45.3" rx="0.2" ry="0.1"/>
<ellipse class="st2" cx="36.4" cy="41.7" rx="0.2" ry="0.1"/>
<ellipse class="st2" cx="43.3" cy="46.6" rx="0.2" ry="0.1"/>
<ellipse class="st2" cx="28.2" cy="42.9" rx="0.2" ry="0.1"/>
<ellipse class="st2" cx="29.7" cy="45.7" rx="0.2" ry="0.1"/>
<ellipse class="st2" cx="32.2" cy="42.2" rx="0.2" ry="0.1"/>
<ellipse class="st2" cx="34.8" cy="41.8" rx="0.2" ry="0.1"/>
<ellipse class="st2" cx="32.6" cy="42.9" rx="0.2" ry="0.1"/>
<ellipse class="st2" cx="32.2" cy="44.9" rx="0.2" ry="0.1"/>
<ellipse class="st2" cx="35.3" cy="44" rx="0.2" ry="0.1"/>
<ellipse class="st2" cx="28" cy="45" rx="0.2" ry="0.1"/>
<ellipse class="st2" cx="28.3" cy="41.4" rx="0.2" ry="0.1"/>
<ellipse class="st2" cx="35.1" cy="46.3" rx="0.2" ry="0.1"/>
<ellipse class="st2" cx="46.6" cy="42.9" rx="0.2" ry="0.1"/>
<ellipse class="st2" cx="47.8" cy="46.4" rx="0.2" ry="0.1"/>
<ellipse class="st2" cx="50.3" cy="42.9" rx="0.2" ry="0.1"/>
<ellipse class="st2" cx="52.8" cy="42.5" rx="0.2" ry="0.1"/>
<ellipse class="st2" cx="50.7" cy="43.6" rx="0.2" ry="0.1"/>
<ellipse class="st2" cx="50.3" cy="45.6" rx="0.2" ry="0.1"/>
<ellipse class="st2" cx="53.3" cy="44.7" rx="0.2" ry="0.1"/>
<ellipse class="st2" cx="46" cy="45.7" rx="0.2" ry="0.1"/>
<ellipse class="st2" cx="48" cy="42.2" rx="0.2" ry="0.1"/>
<ellipse class="st2" cx="53.2" cy="46.5" rx="0.2" ry="0.1"/>
<ellipse class="st2" cx="11.1" cy="44.4" rx="0.2" ry="0.1"/>
<ellipse class="st2" cx="12.6" cy="47.2" rx="0.2" ry="0.1"/>
<ellipse class="st2" cx="15.1" cy="43.7" rx="0.2" ry="0.1"/>
<ellipse class="st2" cx="17.7" cy="43.3" rx="0.2" ry="0.1"/>
<ellipse class="st2" cx="15.5" cy="44.4" rx="0.2" ry="0.1"/>
<ellipse class="st2" cx="15.1" cy="46.4" rx="0.2" ry="0.1"/>
<ellipse class="st2" cx="18.1" cy="45.5" rx="0.2" ry="0.1"/>
<ellipse class="st2" cx="10.8" cy="46.5" rx="0.2" ry="0.1"/>
<ellipse class="st2" cx="11.2" cy="42.9" rx="0.2" ry="0.1"/>
<ellipse class="st2" cx="18" cy="47.8" rx="0.2" ry="0.1"/>
<ellipse class="st2" cx="54.5" cy="44.9" rx="0.2" ry="0.1"/>
<ellipse class="st2" cx="56" cy="47.7" rx="0.2" ry="0.1"/>
<ellipse class="st2" cx="58.5" cy="44.2" rx="0.2" ry="0.1"/>
<ellipse class="st2" cx="61.1" cy="43.8" rx="0.2" ry="0.1"/>
<ellipse class="st2" cx="58.9" cy="44.9" rx="0.2" ry="0.1"/>
<ellipse class="st2" cx="58.5" cy="47" rx="0.2" ry="0.1"/>
<ellipse class="st2" cx="61.5" cy="46" rx="0.2" ry="0.1"/>
<ellipse class="st2" cx="54.2" cy="47" rx="0.2" ry="0.1"/>
<ellipse class="st2" cx="54.6" cy="43.4" rx="0.2" ry="0.1"/>
<ellipse class="st2" cx="61.4" cy="48.3" rx="0.2" ry="0.1"/>
<ellipse class="st2" cx="60.2" cy="42.8" rx="0.2" ry="0.1"/>
<ellipse class="st2" cx="61.7" cy="45.6" rx="0.2" ry="0.1"/>
<path class="st2" d="M64.2,42c0.1,0,0.2,0,0.2,0.1s-0.1,0.1-0.2,0.1s-0.2,0-0.2-0.1S64.1,42,64.2,42z"/>
<ellipse class="st2" cx="66.8" cy="41.7" rx="0.2" ry="0.1"/>
<ellipse class="st2" cx="64.6" cy="42.9" rx="0.2" ry="0.1"/>
<path class="st2" d="M64.2,44.8c0.1,0,0.2,0,0.2,0.1S64.3,45,64.2,45S64,45,64,44.9S64.1,44.8,64.2,44.8z"/>
<ellipse class="st2" cx="67.2" cy="43.9" rx="0.2" ry="0.1"/>
<ellipse class="st2" cx="59.9" cy="45" rx="0.2" ry="0.1"/>
<ellipse class="st2" cx="60.2" cy="41.4" rx="0.2" ry="0.1"/>
<ellipse class="st2" cx="67.1" cy="46.2" rx="0.2" ry="0.1"/>
<ellipse class="st2" cx="39.3" cy="42.9" rx="0.2" ry="0.1"/>
<ellipse class="st2" cx="40.8" cy="45.8" rx="0.2" ry="0.1"/>
<ellipse class="st2" cx="43.9" cy="41.7" rx="0.2" ry="0.1"/>
<ellipse class="st2" cx="45.8" cy="41.8" rx="0.2" ry="0.1"/>
<ellipse class="st2" cx="43.7" cy="43" rx="0.2" ry="0.1"/>
<ellipse class="st2" cx="43.3" cy="45" rx="0.2" ry="0.1"/>
<ellipse class="st2" cx="46.3" cy="44" rx="0.2" ry="0.1"/>
<ellipse class="st2" cx="39" cy="45.1" rx="0.2" ry="0.1"/>
<ellipse class="st2" cx="39.3" cy="41.5" rx="0.2" ry="0.1"/>
<ellipse class="st2" cx="46.1" cy="46.4" rx="0.2" ry="0.1"/>
<ellipse class="st2" cx="70.3" cy="45.2" rx="0.2" ry="0.1"/>
<ellipse class="st2" cx="70.1" cy="47.7" rx="0.2" ry="0.1"/>
<ellipse class="st2" cx="71.8" cy="48.8" rx="0.2" ry="0.1"/>
<ellipse class="st2" cx="68.2" cy="44.2" rx="0.2" ry="0.1"/>
<ellipse class="st2" cx="69.3" cy="45.2" rx="0.2" ry="0.1"/>
<ellipse class="st2" cx="67.6" cy="45.9" rx="0.2" ry="0.1"/>
<ellipse class="st2" cx="68" cy="48.1" rx="0.2" ry="0.1"/>
<ellipse class="st2" cx="68.2" cy="47.8" rx="0.2" ry="0.1"/>
<ellipse class="st2" cx="70.7" cy="44.3" rx="0.2" ry="0.1"/>
<ellipse class="st2" cx="71.1" cy="45" rx="0.2" ry="0.1"/>
<ellipse class="st2" cx="70.7" cy="47" rx="0.2" ry="0.1"/>
<ellipse class="st2" cx="33.3" cy="46" rx="0.2" ry="0.1"/>
<ellipse class="st2" cx="64.4" cy="48.2" rx="0.2" ry="0.1"/>
<ellipse class="st2" cx="32.1" cy="45.8" rx="0.2" ry="0.1"/>
<ellipse class="st2" cx="34.1" cy="45" rx="0.2" ry="0.1"/>
<ellipse class="st2" cx="52.8" cy="41.4" rx="0.2" ry="0.1"/>
</svg>
