<?xml version="1.0" encoding="utf-8"?>
<!-- Generator: Adobe Illustrator 27.1.0, SVG Export Plug-In . SVG Version: 6.00 Build 0)  -->
<svg version="1.1" id="Capa_1" xmlns="http://www.w3.org/2000/svg" xmlns:xlink="http://www.w3.org/1999/xlink" x="0px" y="0px"
	 viewBox="0 0 5.2 10.6" style="enable-background:new 0 0 5.2 10.6;" xml:space="preserve">
<style type="text/css">
	.st0{fill:none;stroke:#000000;stroke-width:0.15;stroke-miterlimit:10;}
</style>
<g>
	<polyline class="st0" points="1.3,6.3 0.9,6.3 0.9,4.5 1.7,4.5 1.7,2.7 0.1,1.8 0.1,0.1 2,0.4 5.1,3.6 5.1,7.7 2,10.5 0.2,10.1 
		0.2,9.7 1.7,8.9 1.7,6.2 	"/>
	<polygon class="st0" points="0.4,1.8 0.4,0.6 1.7,0.8 1.7,2.5 	"/>
	<line class="st0" x1="1.7" y1="1.6" x2="0.4" y2="0.6"/>
	<polyline class="st0" points="1.7,6.2 1.3,6.3 1.3,4.9 1.7,4.9 1.7,6.2 	"/>
	<polyline class="st0" points="1.7,8.9 1.7,10 0.2,9.7 	"/>
	<path class="st0" d="M1.7,10"/>
	<line class="st0" x1="1.7" y1="2.7" x2="1.7" y2="2.3"/>
	<line class="st0" x1="1.7" y1="5" x2="1.3" y2="4.9"/>
	<line class="st0" x1="0.1" y1="1.8" x2="0.4" y2="1.8"/>
	<line class="st0" x1="2" y1="10.5" x2="2" y2="0.4"/>
</g>
</svg>
