<?xml version="1.0" encoding="utf-8"?>
<!-- Generator: Adobe Illustrator 26.5.0, SVG Export Plug-In . SVG Version: 6.00 Build 0)  -->
<svg version="1.1" id="aebffceb-5228-41f4-b65a-e784d1bcde24"
	 xmlns="http://www.w3.org/2000/svg" xmlns:xlink="http://www.w3.org/1999/xlink" x="0px" y="0px" viewBox="0 0 72 66.5"
	 style="enable-background:new 0 0 72 66.5;" xml:space="preserve">
<style type="text/css">
	.st0{fill:none;stroke:#000000;stroke-width:0.25;stroke-miterlimit:10;}
	.st1{fill:none;stroke:#000000;stroke-miterlimit:10;}
	.st2{fill:none;stroke:#000000;stroke-width:0;stroke-linecap:round;stroke-linejoin:round;}
	.st3{stroke:#000000;stroke-miterlimit:10;}
</style>
<line class="st0" x1="71.9" y1="0.6" x2="37.9" y2="34.2"/>
<line class="st0" x1="0.2" y1="34.2" x2="37.9" y2="34.2"/>
<line class="st0" x1="0" y1="66.4" x2="38" y2="66.4"/>
<line class="st0" x1="71.9" y1="31.4" x2="38" y2="66.4"/>
<line class="st0" x1="0" y1="50.2" x2="38" y2="50.2"/>
<line class="st0" x1="37.9" y1="34.2" x2="38" y2="66.4"/>
<line class="st0" x1="0.2" y1="34.2" x2="0.2" y2="66.4"/>
<line class="st0" x1="55.3" y1="17" x2="55.3" y2="48.6"/>
<line class="st0" x1="71.9" y1="17" x2="71.9" y2="31.4"/>
<line class="st0" x1="71.9" y1="16.9" x2="71.9" y2="17"/>
<line class="st0" x1="71.9" y1="16.7" x2="71.9" y2="16.9"/>
<line class="st0" x1="71.9" y1="15.7" x2="71.9" y2="16.7"/>
<line class="st0" x1="71.9" y1="15.5" x2="71.9" y2="15.7"/>
<line class="st0" x1="71.9" y1="0.6" x2="71.9" y2="15.5"/>
<line class="st0" x1="71.9" y1="0.6" x2="71.2" y2="0.1"/>
<line class="st0" x1="55.2" y1="17.1" x2="54.5" y2="16.6"/>
<line class="st0" x1="38" y1="34.2" x2="37.5" y2="33.4"/>
<line class="st0" x1="71.2" y1="0.1" x2="37.5" y2="33.4"/>
<path class="st0" d="M1.6,33.4l-1.4,0.9L1.6,33.4z"/>
<line class="st0" x1="1.6" y1="33.4" x2="37.5" y2="33.4"/>
<line class="st1" x1="38" y1="50.5" x2="0" y2="50.5"/>
<g>
	<line class="st2" x1="72.2" y1="16" x2="71.9" y2="16.3"/>
	<path class="st3" d="M71.7,16.6L37.8,50.5L71.7,16.6z"/>
</g>
</svg>
