<?xml version="1.0" encoding="utf-8"?>
<!-- Generator: Adobe Illustrator 26.5.0, SVG Export Plug-In . SVG Version: 6.00 Build 0)  -->
<svg version="1.1" id="bfc67a1a-3696-46ae-852c-2e5cb3d74908"
	 xmlns="http://www.w3.org/2000/svg" xmlns:xlink="http://www.w3.org/1999/xlink" x="0px" y="0px" viewBox="0 0 111.1 49"
	 style="enable-background:new 0 0 111.1 49;" xml:space="preserve">
<style type="text/css">
	.st0{fill:none;stroke:#000000;stroke-width:0.25;stroke-miterlimit:10;}
	.st1{fill:none;stroke:#000000;stroke-miterlimit:10;}
</style>
<line class="st0" x1="46.2" y1="0.7" x2="37.9" y2="8.3"/>
<line class="st0" x1="0.1" y1="8.4" x2="37.9" y2="8.4"/>
<line class="st0" x1="0" y1="24.8" x2="38" y2="24.8"/>
<line class="st0" x1="0.2" y1="8.3" x2="0.2" y2="40.8"/>
<line class="st0" x1="46.2" y1="32.3" x2="38" y2="40.8"/>
<line class="st0" x1="37.9" y1="8.3" x2="37.4" y2="7.6"/>
<path class="st0" d="M37.4,7.5H1.1H37.4z"/>
<path class="st0" d="M1.2,7.6L0.2,8.4L1.2,7.6z"/>
<polyline class="st0" points="46.3,0.7 44.9,0.7 37.4,7.6 "/>
<line class="st0" x1="38" y1="40.8" x2="73.2" y2="40.8"/>
<line class="st0" x1="46.2" y1="32.2" x2="73.2" y2="32.2"/>
<line class="st0" x1="37.9" y1="8.3" x2="37.9" y2="40.8"/>
<line class="st0" x1="46.2" y1="0.7" x2="46.2" y2="32.3"/>
<line class="st0" x1="73.1" y1="8.4" x2="110.9" y2="8.4"/>
<line class="st0" x1="73" y1="40.8" x2="111" y2="40.8"/>
<line class="st0" x1="73" y1="24.8" x2="111" y2="24.8"/>
<line class="st0" x1="73.2" y1="8.3" x2="73.2" y2="40.8"/>
<path class="st0" d="M110.3,7.5H74.1H110.3z"/>
<path class="st0" d="M74.2,7.6l-1.1,0.9L74.2,7.6z"/>
<line class="st0" x1="111" y1="40.8" x2="111" y2="8.4"/>
<line class="st0" x1="83.4" y1="0.1" x2="75.2" y2="7.6"/>
<polyline class="st0" points="83.4,0.1 82.6,0.1 74.2,7.6 "/>
<line class="st0" x1="83.4" y1="0.1" x2="83.4" y2="7.6"/>
<line class="st0" x1="111" y1="8.4" x2="110.2" y2="7.5"/>
<line class="st0" x1="0" y1="49" x2="111" y2="49"/>
<line class="st0" x1="111" y1="40.8" x2="111" y2="49"/>
<line class="st0" x1="73.2" y1="40.8" x2="73.2" y2="49"/>
<line class="st0" x1="38" y1="40.8" x2="38" y2="49"/>
<line class="st0" x1="0" y1="40.8" x2="0" y2="49"/>
<line class="st1" x1="0" y1="24.8" x2="38" y2="24.8"/>
<line class="st1" x1="37.9" y1="8.3" x2="38" y2="40.8"/>
<line class="st1" x1="37.5" y1="40.8" x2="73.2" y2="40.8"/>
<line class="st1" x1="73.2" y1="8.3" x2="73.2" y2="41.2"/>
<line class="st1" x1="0" y1="40.8" x2="38" y2="40.8"/>
<line class="st1" x1="73" y1="40.8" x2="111" y2="40.8"/>
<line class="st1" x1="73" y1="24.8" x2="111" y2="24.8"/>
</svg>
