<?xml version="1.0" encoding="utf-8"?>
<!-- Generator: Adobe Illustrator 26.5.0, SVG Export Plug-In . SVG Version: 6.00 Build 0)  -->
<svg version="1.1" id="bfc67a1a-3696-46ae-852c-2e5cb3d74908"
	 xmlns="http://www.w3.org/2000/svg" xmlns:xlink="http://www.w3.org/1999/xlink" x="0px" y="0px" viewBox="0 0 85.9 49"
	 style="enable-background:new 0 0 85.9 49;" xml:space="preserve">
<style type="text/css">
	.st0{fill:none;stroke:#000000;stroke-width:0.25;stroke-miterlimit:10;}
	.st1{fill:none;stroke:#000000;stroke-miterlimit:10;}
</style>
<line class="st0" x1="32.7" y1="0.7" x2="24.4" y2="8.3"/>
<line class="st0" x1="0" y1="8.4" x2="24.4" y2="8.4"/>
<line class="st0" x1="32.7" y1="32.3" x2="24.5" y2="40.8"/>
<line class="st0" x1="24.4" y1="8.3" x2="23.9" y2="7.6"/>
<path class="st0" d="M23.9,7.5H1H23.9z"/>
<path class="st0" d="M1,7.5L0,8.3L1,7.5z"/>
<polyline class="st0" points="32.8,0.7 31.4,0.7 23.9,7.6 "/>
<line class="st0" x1="24.5" y1="40.8" x2="59.7" y2="40.8"/>
<line class="st0" x1="32.7" y1="32.2" x2="59.7" y2="32.2"/>
<line class="st0" x1="24.4" y1="8.3" x2="24.4" y2="40.8"/>
<line class="st0" x1="32.7" y1="0.7" x2="32.7" y2="32.3"/>
<line class="st0" x1="59.6" y1="8.4" x2="85.9" y2="8.4"/>
<line class="st0" x1="59.7" y1="8.3" x2="59.7" y2="40.8"/>
<path class="st0" d="M85.1,7.5H60.6H85.1z"/>
<path class="st0" d="M60.7,7.6l-1.1,0.9L60.7,7.6z"/>
<line class="st0" x1="69.9" y1="0.1" x2="61.7" y2="7.6"/>
<polyline class="st0" points="69.9,0.1 69.1,0.1 60.7,7.6 "/>
<line class="st0" x1="69.9" y1="0.1" x2="69.9" y2="7.6"/>
<line class="st0" x1="85.9" y1="8.4" x2="85.1" y2="7.5"/>
<line class="st0" x1="0" y1="49" x2="85.9" y2="49"/>
<line class="st0" x1="59.7" y1="40.8" x2="59.7" y2="49"/>
<line class="st0" x1="24.5" y1="40.8" x2="24.5" y2="49"/>
<line class="st1" x1="0" y1="24.8" x2="24.5" y2="24.8"/>
<line class="st1" x1="24.4" y1="8.3" x2="24.5" y2="40.8"/>
<line class="st1" x1="24" y1="40.8" x2="59.7" y2="40.8"/>
<line class="st1" x1="59.7" y1="8.3" x2="59.7" y2="41.2"/>
<line class="st1" x1="0" y1="40.8" x2="24.5" y2="40.8"/>
<line class="st1" x1="59.5" y1="40.8" x2="85.9" y2="40.8"/>
<line class="st1" x1="59.5" y1="24.8" x2="85.9" y2="24.8"/>
</svg>
