<?xml version="1.0" encoding="utf-8"?>
<!-- Generator: Adobe Illustrator 24.0.2, SVG Export Plug-In . SVG Version: 6.00 Build 0)  -->
<svg version="1.1" id="bfc67a1a-3696-46ae-852c-2e5cb3d74908"
	 xmlns="http://www.w3.org/2000/svg" xmlns:xlink="http://www.w3.org/1999/xlink" x="0px" y="0px" viewBox="0 0 81.8 49.2"
	 style="enable-background:new 0 0 81.8 49.2;" xml:space="preserve">
<style type="text/css">
	.st0{fill:none;stroke:#000000;stroke-width:0.25;stroke-miterlimit:10;}
	.st1{fill:none;stroke:#000000;stroke-miterlimit:10;}
	.st2{fill:none;stroke:#000000;stroke-linejoin:round;stroke-miterlimit:10;}
</style>
<line class="st0" x1="29.3" y1="0.7" x2="21" y2="8.3"/>
<line class="st0" x1="0" y1="8.4" x2="21.1" y2="8.4"/>
<line class="st0" x1="0.1" y1="8.3" x2="0.1" y2="40.8"/>
<line class="st0" x1="29.3" y1="32.3" x2="21.1" y2="40.8"/>
<line class="st0" x1="21" y1="8.3" x2="20.5" y2="7.6"/>
<path class="st0" d="M20.8,7.5H0.6H20.8z"/>
<path class="st0" d="M0.9,7.6L0.1,8.4L0.9,7.6z"/>
<polyline class="st0" points="29.4,0.7 28,0.7 20.5,7.6 "/>
<line class="st0" x1="21.1" y1="40.8" x2="56.3" y2="40.8"/>
<line class="st0" x1="29.3" y1="32.2" x2="56.3" y2="32.2"/>
<line class="st0" x1="21" y1="8.3" x2="21" y2="40.8"/>
<line class="st0" x1="29.3" y1="0.7" x2="29.3" y2="32.3"/>
<line class="st0" x1="56.7" y1="8.4" x2="81.6" y2="8.4"/>
<line class="st0" x1="53.7" y1="40.8" x2="81.7" y2="40.8"/>
<line class="st0" x1="56.3" y1="8.3" x2="56.3" y2="40.8"/>
<path class="st0" d="M81.2,7.6H57.4H81.2z"/>
<path class="st0" d="M57.3,7.6l-1.1,0.9L57.3,7.6z"/>
<line class="st0" x1="81.7" y1="40.8" x2="81.7" y2="8.4"/>
<line class="st0" x1="66.5" y1="0.1" x2="58.3" y2="7.6"/>
<polyline class="st0" points="66.5,0.1 65.7,0.1 57.3,7.6 "/>
<line class="st0" x1="66.5" y1="0.1" x2="66.5" y2="7.6"/>
<line class="st0" x1="81.7" y1="8.4" x2="81.1" y2="7.5"/>
<line class="st0" x1="0.1" y1="49" x2="81.8" y2="49"/>
<line class="st0" x1="81.7" y1="40.8" x2="81.7" y2="49"/>
<line class="st0" x1="56.3" y1="40.8" x2="56.3" y2="49"/>
<line class="st0" x1="21.1" y1="40.8" x2="21.1" y2="49"/>
<line class="st0" x1="0.1" y1="40.8" x2="0.1" y2="49"/>
<line class="st1" x1="0" y1="24.8" x2="21.1" y2="24.8"/>
<line class="st1" x1="21" y1="8.3" x2="21.1" y2="40.8"/>
<line class="st1" x1="20.6" y1="40.8" x2="56.3" y2="40.8"/>
<line class="st2" x1="56.3" y1="8.3" x2="56.3" y2="41.2"/>
<line class="st1" x1="0" y1="40.8" x2="27.9" y2="40.8"/>
<line class="st1" x1="53.7" y1="40.8" x2="81.7" y2="40.8"/>
<line class="st1" x1="56.3" y1="24.8" x2="81.7" y2="24.8"/>
</svg>
